M48
;Layer_Color=9474304
;FILE_FORMAT=2:5
INCH,TZ
;TYPE=PLATED
T1F00S00C0.02800
T2F00S00C0.03937
T3F00S00C0.04000
T4F00S00C0.04094
T5F00S00C0.05200
T6F00S00C0.05201
T7F00S00C0.11811
%
T01
X-6500Y-76100
X-6200Y-67100
X7100
X7200Y-76100
T02
X-16800Y-59100
X16600Y-59900
X52400Y139800
X-47700Y140300
T03
X-46900Y-23100
Y-13100
Y-3100
X-47000Y7000
Y17000
X-46900Y26900
Y36900
X-47000Y46500
Y56500
X-47100Y66800
Y76800
T04
X-28000Y-23100
X32000
Y-13100
Y-3100
Y6900
Y16900
Y26900
Y36900
Y46900
Y56900
Y66900
Y76900
Y86900
Y96900
Y106900
Y116900
X-28000
Y106900
Y96900
Y86900
Y76900
Y66900
Y56900
Y46900
Y36900
Y26900
Y16900
Y6900
Y-3100
Y-13100
T05
X55900Y42400
Y62400
T06
X-47200Y-58300
Y-38300
X51300Y-37000
Y-57000
X51400Y104100
Y124100
X-48500Y124600
Y104600
T07
X-20000Y-70300
X23900Y-70800
X49300Y15600
M30
