G04 Layer_Physical_Order=2*
G04 Layer_Color=16711680*
%FSLAX25Y25*%
%MOIN*%
G70*
G01*
G75*
%ADD12C,0.03937*%
%ADD14R,0.12000X0.12000*%
%ADD15C,0.12000*%
%ADD16C,0.07000*%
%ADD17C,0.06693*%
%ADD18C,0.06000*%
%ADD19C,0.06299*%
%ADD20C,0.05000*%
G36*
X63000Y70400D02*
X47900D01*
Y60903D01*
X35566D01*
X34696Y61570D01*
X34503Y61650D01*
Y62150D01*
X34696Y62230D01*
X35813Y63087D01*
X36670Y64204D01*
X37209Y65504D01*
X37393Y66900D01*
X37209Y68296D01*
X36670Y69596D01*
X35813Y70713D01*
X34696Y71570D01*
X34503Y71650D01*
Y72150D01*
X34696Y72230D01*
X35813Y73087D01*
X36670Y74204D01*
X37209Y75504D01*
X37393Y76900D01*
X37209Y78296D01*
X36670Y79596D01*
X35813Y80713D01*
X34696Y81570D01*
X34503Y81650D01*
Y82150D01*
X34696Y82230D01*
X35813Y83087D01*
X36670Y84204D01*
X37209Y85504D01*
X37393Y86900D01*
X37209Y88296D01*
X36670Y89596D01*
X35813Y90713D01*
X34696Y91570D01*
X34503Y91650D01*
Y92150D01*
X34696Y92230D01*
X35813Y93087D01*
X36670Y94204D01*
X37209Y95504D01*
X37393Y96900D01*
X37209Y98296D01*
X36670Y99596D01*
X35813Y100713D01*
X34696Y101570D01*
X34503Y101650D01*
Y102150D01*
X34696Y102230D01*
X35813Y103087D01*
X36670Y104204D01*
X37209Y105504D01*
X37393Y106900D01*
X37209Y108296D01*
X36670Y109596D01*
X35813Y110713D01*
X34696Y111570D01*
X34503Y111650D01*
Y112150D01*
X34696Y112230D01*
X35813Y113087D01*
X36670Y114204D01*
X37209Y115504D01*
X37352Y116591D01*
X40858Y120097D01*
X44468D01*
X44716Y119634D01*
X45716Y118416D01*
X46934Y117416D01*
X47397Y117168D01*
Y111032D01*
X46934Y110784D01*
X45716Y109784D01*
X44716Y108566D01*
X43973Y107176D01*
X43516Y105668D01*
X43361Y104100D01*
X43516Y102532D01*
X43973Y101024D01*
X44716Y99634D01*
X45716Y98416D01*
X46934Y97416D01*
X48324Y96673D01*
X49832Y96216D01*
X51400Y96061D01*
X52968Y96216D01*
X54476Y96673D01*
X55866Y97416D01*
X57084Y98416D01*
X58084Y99634D01*
X58827Y101024D01*
X59284Y102532D01*
X59439Y104100D01*
X59284Y105668D01*
X58827Y107176D01*
X58084Y108566D01*
X57084Y109784D01*
X55866Y110784D01*
X55403Y111032D01*
Y117168D01*
X55866Y117416D01*
X57084Y118416D01*
X58084Y119634D01*
X58827Y121024D01*
X59284Y122532D01*
X59439Y124100D01*
X59284Y125668D01*
X58827Y127176D01*
X58084Y128566D01*
X57084Y129784D01*
X56403Y130343D01*
Y136557D01*
X56898Y137203D01*
X57417Y138456D01*
X57594Y139800D01*
X57417Y141144D01*
X56898Y142397D01*
X56073Y143473D01*
X54997Y144298D01*
X53744Y144817D01*
X52400Y144994D01*
X51056Y144817D01*
X49803Y144298D01*
X48727Y143473D01*
X47902Y142397D01*
X47383Y141144D01*
X47206Y139800D01*
X47383Y138456D01*
X47902Y137203D01*
X48397Y136557D01*
Y131549D01*
X48324Y131527D01*
X46934Y130784D01*
X45716Y129784D01*
X44716Y128566D01*
X44468Y128103D01*
X39200D01*
X38164Y127966D01*
X37199Y127567D01*
X36370Y126930D01*
X31691Y122252D01*
X30604Y122109D01*
X29304Y121570D01*
X28187Y120713D01*
X27330Y119596D01*
X26791Y118296D01*
X26607Y116900D01*
X26791Y115504D01*
X27330Y114204D01*
X28187Y113087D01*
X29304Y112230D01*
X29497Y112150D01*
Y111650D01*
X29304Y111570D01*
X28187Y110713D01*
X27330Y109596D01*
X26791Y108296D01*
X26607Y106900D01*
X26791Y105504D01*
X27330Y104204D01*
X28187Y103087D01*
X29304Y102230D01*
X29497Y102150D01*
Y101650D01*
X29304Y101570D01*
X28187Y100713D01*
X27330Y99596D01*
X26791Y98296D01*
X26607Y96900D01*
X26791Y95504D01*
X27330Y94204D01*
X28187Y93087D01*
X29304Y92230D01*
X29497Y92150D01*
Y91650D01*
X29304Y91570D01*
X28187Y90713D01*
X27330Y89596D01*
X26791Y88296D01*
X26607Y86900D01*
X26791Y85504D01*
X27330Y84204D01*
X28187Y83087D01*
X29304Y82230D01*
X29497Y82150D01*
Y81650D01*
X29304Y81570D01*
X28187Y80713D01*
X27330Y79596D01*
X26791Y78296D01*
X26607Y76900D01*
X26791Y75504D01*
X27330Y74204D01*
X28187Y73087D01*
X29304Y72230D01*
X29497Y72150D01*
Y71650D01*
X29304Y71570D01*
X28187Y70713D01*
X27330Y69596D01*
X26791Y68296D01*
X26607Y66900D01*
X26791Y65504D01*
X27330Y64204D01*
X28187Y63087D01*
X29304Y62230D01*
X29497Y62150D01*
Y61650D01*
X29304Y61570D01*
X28187Y60713D01*
X27330Y59596D01*
X26791Y58296D01*
X26607Y56900D01*
X26791Y55504D01*
X27330Y54204D01*
X28187Y53087D01*
X29304Y52230D01*
X29497Y52150D01*
Y51650D01*
X29304Y51570D01*
X28187Y50713D01*
X27330Y49596D01*
X26791Y48296D01*
X26607Y46900D01*
X26791Y45504D01*
X27330Y44204D01*
X28187Y43087D01*
X29304Y42230D01*
X29497Y42150D01*
Y41650D01*
X29304Y41570D01*
X28187Y40713D01*
X27330Y39596D01*
X26791Y38296D01*
X26607Y36900D01*
X26791Y35504D01*
X27330Y34204D01*
X28187Y33087D01*
X29304Y32230D01*
X29497Y32150D01*
Y31650D01*
X29304Y31570D01*
X28187Y30713D01*
X27330Y29596D01*
X26791Y28296D01*
X26607Y26900D01*
X26791Y25504D01*
X27330Y24204D01*
X28187Y23087D01*
X29304Y22230D01*
X29497Y22150D01*
Y21650D01*
X29304Y21570D01*
X28187Y20713D01*
X27330Y19596D01*
X26791Y18296D01*
X26607Y16900D01*
X26791Y15504D01*
X27330Y14204D01*
X28187Y13087D01*
X29304Y12230D01*
X29497Y12150D01*
Y11650D01*
X29304Y11570D01*
X28187Y10713D01*
X27330Y9596D01*
X26791Y8296D01*
X26607Y6900D01*
X26791Y5504D01*
X27330Y4204D01*
X28187Y3087D01*
X29304Y2230D01*
X29497Y2150D01*
Y1650D01*
X29304Y1570D01*
X28187Y713D01*
X27330Y-404D01*
X26791Y-1704D01*
X26607Y-3100D01*
X26791Y-4496D01*
X27330Y-5796D01*
X28187Y-6913D01*
X29304Y-7770D01*
X29497Y-7850D01*
Y-8350D01*
X29304Y-8430D01*
X28187Y-9287D01*
X27330Y-10404D01*
X26791Y-11704D01*
X26607Y-13100D01*
X26791Y-14496D01*
X27330Y-15796D01*
X28187Y-16913D01*
X29304Y-17770D01*
X29497Y-17850D01*
Y-18350D01*
X29304Y-18430D01*
X28187Y-19287D01*
X27330Y-20404D01*
X26791Y-21704D01*
X26607Y-23100D01*
X26791Y-24496D01*
X27330Y-25796D01*
X28187Y-26913D01*
X29304Y-27770D01*
X30604Y-28309D01*
X32000Y-28493D01*
X33396Y-28309D01*
X34696Y-27770D01*
X35813Y-26913D01*
X36670Y-25796D01*
X37209Y-24496D01*
X37393Y-23100D01*
X37209Y-21704D01*
X36670Y-20404D01*
X35813Y-19287D01*
X34696Y-18430D01*
X34503Y-18350D01*
Y-17850D01*
X34696Y-17770D01*
X35813Y-16913D01*
X36670Y-15796D01*
X37209Y-14496D01*
X37393Y-13100D01*
X37209Y-11704D01*
X36670Y-10404D01*
X35813Y-9287D01*
X34696Y-8430D01*
X34503Y-8350D01*
Y-7850D01*
X34696Y-7770D01*
X35813Y-6913D01*
X36670Y-5796D01*
X37209Y-4496D01*
X37393Y-3100D01*
X37209Y-1704D01*
X36670Y-404D01*
X35813Y713D01*
X34696Y1570D01*
X34503Y1650D01*
Y2150D01*
X34696Y2230D01*
X35813Y3087D01*
X36670Y4204D01*
X37209Y5504D01*
X37393Y6900D01*
X37209Y8296D01*
X36670Y9596D01*
X35813Y10713D01*
X34696Y11570D01*
X34503Y11650D01*
Y12150D01*
X34696Y12230D01*
X35813Y13087D01*
X36670Y14204D01*
X37209Y15504D01*
X37393Y16900D01*
X37209Y18296D01*
X36670Y19596D01*
X35813Y20713D01*
X34696Y21570D01*
X34503Y21650D01*
Y22150D01*
X34696Y22230D01*
X35813Y23087D01*
X36670Y24204D01*
X37209Y25504D01*
X37393Y26900D01*
X37209Y28296D01*
X36670Y29596D01*
X35813Y30713D01*
X34696Y31570D01*
X34503Y31650D01*
Y32150D01*
X34696Y32230D01*
X35813Y33087D01*
X36670Y34204D01*
X37209Y35504D01*
X37393Y36900D01*
X37209Y38296D01*
X36670Y39596D01*
X35813Y40713D01*
X34696Y41570D01*
X34503Y41650D01*
Y42150D01*
X34696Y42230D01*
X35566Y42897D01*
X47538D01*
X47874Y42527D01*
X47861Y42400D01*
X48016Y40832D01*
X48473Y39324D01*
X49216Y37934D01*
X50216Y36716D01*
X51434Y35716D01*
X52824Y34973D01*
X54332Y34516D01*
X55900Y34361D01*
X57468Y34516D01*
X58976Y34973D01*
X60366Y35716D01*
X61584Y36716D01*
X62500Y37832D01*
X63000Y37714D01*
Y-82334D01*
X62600Y-82500D01*
X-60246D01*
X-60599Y-82146D01*
X-60200Y147100D01*
X-60100Y147200D01*
X63000D01*
Y70400D01*
D02*
G37*
G36*
Y47086D02*
X62500Y46968D01*
X61584Y48084D01*
X60366Y49084D01*
X58976Y49827D01*
X57468Y50284D01*
X55900Y50439D01*
X54332Y50284D01*
X53742Y50105D01*
X53401Y50366D01*
X52436Y50766D01*
X51400Y50903D01*
X35566D01*
X34696Y51570D01*
X34503Y51650D01*
Y52150D01*
X34696Y52230D01*
X35566Y52897D01*
X50400D01*
X51436Y53034D01*
X52401Y53434D01*
X53230Y54070D01*
X53561Y54400D01*
X63000D01*
Y47086D01*
D02*
G37*
%LPC*%
G36*
X-18000Y-55106D02*
X-18893Y-55475D01*
X-19760Y-56141D01*
X-20425Y-57007D01*
X-20794Y-57900D01*
X-18000D01*
Y-55106D01*
D02*
G37*
G36*
X-15600D02*
Y-57900D01*
X-12806D01*
X-13175Y-57007D01*
X-13840Y-56141D01*
X-14707Y-55475D01*
X-15600Y-55106D01*
D02*
G37*
G36*
X49300Y23544D02*
X47750Y23391D01*
X46260Y22939D01*
X44887Y22205D01*
X43683Y21217D01*
X42695Y20013D01*
X41961Y18640D01*
X41509Y17150D01*
X41356Y15600D01*
X41509Y14050D01*
X41961Y12560D01*
X42695Y11187D01*
X43683Y9983D01*
X44887Y8995D01*
X46260Y8261D01*
X47750Y7809D01*
X49300Y7656D01*
X50850Y7809D01*
X52340Y8261D01*
X53713Y8995D01*
X54917Y9983D01*
X55905Y11187D01*
X56639Y12560D01*
X57091Y14050D01*
X57244Y15600D01*
X57091Y17150D01*
X56639Y18640D01*
X55905Y20013D01*
X54917Y21217D01*
X53713Y22205D01*
X52340Y22939D01*
X50850Y23391D01*
X49300Y23544D01*
D02*
G37*
G36*
X-40284Y-59500D02*
X-46000D01*
Y-65216D01*
X-45828Y-65199D01*
X-44508Y-64798D01*
X-43292Y-64148D01*
X-42226Y-63274D01*
X-41352Y-62208D01*
X-40701Y-60992D01*
X-40301Y-59672D01*
X-40284Y-59500D01*
D02*
G37*
G36*
X-48400D02*
X-54116D01*
X-54099Y-59672D01*
X-53698Y-60992D01*
X-53048Y-62208D01*
X-52174Y-63274D01*
X-51108Y-64148D01*
X-49892Y-64798D01*
X-48572Y-65199D01*
X-48400Y-65216D01*
Y-59500D01*
D02*
G37*
G36*
X-12806Y-60300D02*
X-20794D01*
X-20425Y-61193D01*
X-19911Y-61863D01*
X-19940Y-62026D01*
X-20145Y-62371D01*
X-21550Y-62509D01*
X-23040Y-62961D01*
X-24413Y-63695D01*
X-25617Y-64683D01*
X-26605Y-65887D01*
X-27339Y-67260D01*
X-27791Y-68750D01*
X-27944Y-70300D01*
X-27791Y-71850D01*
X-27339Y-73340D01*
X-26605Y-74713D01*
X-25617Y-75917D01*
X-24413Y-76905D01*
X-23040Y-77639D01*
X-21550Y-78091D01*
X-20000Y-78244D01*
X-18450Y-78091D01*
X-16960Y-77639D01*
X-15587Y-76905D01*
X-14383Y-75917D01*
X-13395Y-74713D01*
X-12661Y-73340D01*
X-12209Y-71850D01*
X-12056Y-70300D01*
X-12209Y-68750D01*
X-12661Y-67260D01*
X-13395Y-65887D01*
X-14383Y-64683D01*
X-15587Y-63695D01*
X-15755Y-63605D01*
X-15628Y-63106D01*
X-14707Y-62725D01*
X-13840Y-62059D01*
X-13175Y-61193D01*
X-12806Y-60300D01*
D02*
G37*
G36*
X-40284Y-39500D02*
X-46000D01*
Y-45216D01*
X-45828Y-45199D01*
X-44508Y-44798D01*
X-43292Y-44148D01*
X-42226Y-43274D01*
X-41352Y-42208D01*
X-40701Y-40992D01*
X-40301Y-39672D01*
X-40284Y-39500D01*
D02*
G37*
G36*
X-48400Y-31384D02*
X-48572Y-31401D01*
X-49892Y-31802D01*
X-51108Y-32452D01*
X-52174Y-33326D01*
X-53048Y-34392D01*
X-53698Y-35608D01*
X-54099Y-36928D01*
X-54116Y-37100D01*
X-48400D01*
Y-31384D01*
D02*
G37*
G36*
X-47100Y82348D02*
X-48536Y82158D01*
X-49874Y81604D01*
X-51023Y80723D01*
X-51904Y79574D01*
X-52458Y78236D01*
X-52648Y76800D01*
X-52458Y75364D01*
X-51904Y74026D01*
X-51023Y72877D01*
X-50000Y72093D01*
X-49957Y71927D01*
Y71673D01*
X-50000Y71507D01*
X-51023Y70723D01*
X-51904Y69574D01*
X-52458Y68236D01*
X-52648Y66800D01*
X-52458Y65364D01*
X-51904Y64026D01*
X-51023Y62877D01*
X-49874Y61996D01*
X-49593Y61879D01*
Y61379D01*
X-49774Y61304D01*
X-50923Y60423D01*
X-51804Y59274D01*
X-52358Y57936D01*
X-52548Y56500D01*
X-52358Y55064D01*
X-51804Y53726D01*
X-50923Y52577D01*
X-49900Y51793D01*
X-49858Y51627D01*
Y51373D01*
X-49900Y51207D01*
X-50923Y50423D01*
X-51804Y49274D01*
X-52358Y47936D01*
X-52548Y46500D01*
X-52358Y45064D01*
X-51804Y43726D01*
X-50923Y42577D01*
X-50140Y41977D01*
Y41346D01*
X-50823Y40823D01*
X-51704Y39674D01*
X-52258Y38336D01*
X-52447Y36900D01*
X-52258Y35464D01*
X-51704Y34126D01*
X-50823Y32977D01*
X-49800Y32193D01*
X-49758Y32027D01*
Y31773D01*
X-49800Y31607D01*
X-50823Y30823D01*
X-51704Y29674D01*
X-52258Y28336D01*
X-52447Y26900D01*
X-52258Y25464D01*
X-51704Y24126D01*
X-50823Y22977D01*
X-49920Y22285D01*
X-49887Y22175D01*
X-49928Y21686D01*
X-50923Y20923D01*
X-51804Y19774D01*
X-52358Y18436D01*
X-52548Y17000D01*
X-52358Y15564D01*
X-51804Y14226D01*
X-50923Y13077D01*
X-49900Y12293D01*
X-49858Y12127D01*
Y11873D01*
X-49900Y11707D01*
X-50923Y10923D01*
X-51804Y9774D01*
X-52358Y8436D01*
X-52548Y7000D01*
X-52358Y5564D01*
X-51804Y4226D01*
X-50923Y3077D01*
X-49774Y2196D01*
X-49715Y2171D01*
X-49751Y1645D01*
X-50823Y823D01*
X-51704Y-326D01*
X-52258Y-1664D01*
X-52447Y-3100D01*
X-52258Y-4536D01*
X-51704Y-5874D01*
X-50823Y-7023D01*
X-49800Y-7807D01*
X-49758Y-7973D01*
Y-8227D01*
X-49800Y-8393D01*
X-50823Y-9177D01*
X-51704Y-10326D01*
X-52258Y-11664D01*
X-52447Y-13100D01*
X-52258Y-14536D01*
X-51704Y-15874D01*
X-50823Y-17023D01*
X-49674Y-17904D01*
X-48548Y-18371D01*
Y-18912D01*
X-49169Y-19169D01*
X-50109Y-19891D01*
X-50831Y-20831D01*
X-51274Y-21900D01*
X-46900D01*
Y-23100D01*
X-45700D01*
Y-27474D01*
X-44631Y-27031D01*
X-43691Y-26309D01*
X-42969Y-25369D01*
X-42516Y-24275D01*
X-42458Y-23837D01*
X-41985Y-23676D01*
X-38118Y-27543D01*
Y-28685D01*
X-37981Y-29721D01*
X-37582Y-30686D01*
X-36945Y-31515D01*
X-28730Y-39730D01*
X-27901Y-40367D01*
X-26936Y-40766D01*
X-25900Y-40903D01*
X44315D01*
X44616Y-41466D01*
X45616Y-42684D01*
X46834Y-43684D01*
X47297Y-43932D01*
Y-50068D01*
X46834Y-50316D01*
X45616Y-51316D01*
X44616Y-52534D01*
X43873Y-53924D01*
X43416Y-55432D01*
X43370Y-55897D01*
X19843D01*
X19197Y-55402D01*
X17944Y-54883D01*
X16600Y-54706D01*
X15256Y-54883D01*
X14003Y-55402D01*
X12927Y-56227D01*
X12102Y-57303D01*
X11583Y-58556D01*
X11406Y-59900D01*
X11583Y-61244D01*
X12102Y-62497D01*
X12927Y-63573D01*
X14003Y-64398D01*
X15256Y-64917D01*
X16600Y-65094D01*
X17843Y-64930D01*
X18039Y-65163D01*
X18122Y-65379D01*
X17295Y-66387D01*
X16561Y-67760D01*
X16109Y-69250D01*
X15956Y-70800D01*
X16109Y-72350D01*
X16561Y-73840D01*
X17295Y-75213D01*
X18283Y-76417D01*
X19487Y-77405D01*
X20860Y-78139D01*
X22350Y-78591D01*
X23900Y-78744D01*
X25450Y-78591D01*
X26940Y-78139D01*
X28313Y-77405D01*
X29517Y-76417D01*
X30505Y-75213D01*
X31239Y-73840D01*
X31691Y-72350D01*
X31844Y-70800D01*
X31691Y-69250D01*
X31239Y-67760D01*
X30505Y-66387D01*
X29517Y-65183D01*
X28567Y-64403D01*
X28745Y-63903D01*
X47243D01*
X48224Y-64427D01*
X49732Y-64884D01*
X51300Y-65039D01*
X52868Y-64884D01*
X54376Y-64427D01*
X55766Y-63684D01*
X56984Y-62684D01*
X57984Y-61466D01*
X58727Y-60076D01*
X59184Y-58568D01*
X59339Y-57000D01*
X59184Y-55432D01*
X58727Y-53924D01*
X57984Y-52534D01*
X56984Y-51316D01*
X55766Y-50316D01*
X55303Y-50068D01*
Y-43932D01*
X55766Y-43684D01*
X56984Y-42684D01*
X57984Y-41466D01*
X58727Y-40076D01*
X59184Y-38568D01*
X59339Y-37000D01*
X59184Y-35432D01*
X58727Y-33924D01*
X57984Y-32534D01*
X56984Y-31316D01*
X55766Y-30316D01*
X54376Y-29573D01*
X52868Y-29116D01*
X51300Y-28961D01*
X49732Y-29116D01*
X48224Y-29573D01*
X46834Y-30316D01*
X45616Y-31316D01*
X44616Y-32534D01*
X44422Y-32897D01*
X-24242D01*
X-28214Y-28926D01*
X-28136Y-28769D01*
X-27947Y-28486D01*
X-26604Y-28309D01*
X-25304Y-27770D01*
X-24187Y-26913D01*
X-23330Y-25796D01*
X-22791Y-24496D01*
X-22607Y-23100D01*
X-22791Y-21704D01*
X-23330Y-20404D01*
X-24187Y-19287D01*
X-25304Y-18430D01*
X-25497Y-18350D01*
Y-17850D01*
X-25304Y-17770D01*
X-24187Y-16913D01*
X-23330Y-15796D01*
X-22791Y-14496D01*
X-22607Y-13100D01*
X-22791Y-11704D01*
X-23330Y-10404D01*
X-24187Y-9287D01*
X-25304Y-8430D01*
X-25497Y-8350D01*
Y-7850D01*
X-25304Y-7770D01*
X-24187Y-6913D01*
X-23330Y-5796D01*
X-22791Y-4496D01*
X-22607Y-3100D01*
X-22791Y-1704D01*
X-23330Y-404D01*
X-24187Y713D01*
X-25304Y1570D01*
X-25497Y1650D01*
Y2150D01*
X-25304Y2230D01*
X-24187Y3087D01*
X-23330Y4204D01*
X-22791Y5504D01*
X-22607Y6900D01*
X-22791Y8296D01*
X-23330Y9596D01*
X-24187Y10713D01*
X-25304Y11570D01*
X-25497Y11650D01*
Y12150D01*
X-25304Y12230D01*
X-24187Y13087D01*
X-23330Y14204D01*
X-22791Y15504D01*
X-22607Y16900D01*
X-22791Y18296D01*
X-23330Y19596D01*
X-24187Y20713D01*
X-25304Y21570D01*
X-25497Y21650D01*
Y22150D01*
X-25304Y22230D01*
X-24187Y23087D01*
X-23330Y24204D01*
X-22791Y25504D01*
X-22607Y26900D01*
X-22791Y28296D01*
X-23330Y29596D01*
X-24187Y30713D01*
X-25304Y31570D01*
X-25497Y31650D01*
Y32150D01*
X-25304Y32230D01*
X-24187Y33087D01*
X-23330Y34204D01*
X-22791Y35504D01*
X-22607Y36900D01*
X-22791Y38296D01*
X-23330Y39596D01*
X-24187Y40713D01*
X-25304Y41570D01*
X-25497Y41650D01*
Y42150D01*
X-25304Y42230D01*
X-24187Y43087D01*
X-23330Y44204D01*
X-22791Y45504D01*
X-22607Y46900D01*
X-22791Y48296D01*
X-23330Y49596D01*
X-24187Y50713D01*
X-25304Y51570D01*
X-25497Y51650D01*
Y52150D01*
X-25304Y52230D01*
X-24187Y53087D01*
X-23330Y54204D01*
X-22791Y55504D01*
X-22607Y56900D01*
X-22791Y58296D01*
X-23330Y59596D01*
X-24187Y60713D01*
X-25304Y61570D01*
X-25497Y61650D01*
Y62150D01*
X-25304Y62230D01*
X-24187Y63087D01*
X-23330Y64204D01*
X-22791Y65504D01*
X-22607Y66900D01*
X-22791Y68296D01*
X-23330Y69596D01*
X-24187Y70713D01*
X-25304Y71570D01*
X-25497Y71650D01*
Y72150D01*
X-25304Y72230D01*
X-24187Y73087D01*
X-23330Y74204D01*
X-22791Y75504D01*
X-22607Y76900D01*
X-22791Y78296D01*
X-23330Y79596D01*
X-24187Y80713D01*
X-25304Y81570D01*
X-26604Y82109D01*
X-26933Y82152D01*
Y82152D01*
X-28000Y82293D01*
X-29067Y82152D01*
Y82152D01*
X-29396Y82109D01*
X-30696Y81570D01*
X-31696Y80803D01*
X-43282D01*
X-44326Y81604D01*
X-45664Y82158D01*
X-47100Y82348D01*
D02*
G37*
G36*
X-48400Y-39500D02*
X-54116D01*
X-54099Y-39672D01*
X-53698Y-40992D01*
X-53048Y-42208D01*
X-52174Y-43274D01*
X-51108Y-44148D01*
X-49892Y-44798D01*
X-48572Y-45199D01*
X-48400Y-45216D01*
Y-39500D01*
D02*
G37*
G36*
X-46000Y-51384D02*
Y-57100D01*
X-40284D01*
X-40301Y-56928D01*
X-40701Y-55608D01*
X-41352Y-54392D01*
X-42226Y-53326D01*
X-43292Y-52451D01*
X-44508Y-51802D01*
X-45828Y-51401D01*
X-46000Y-51384D01*
D02*
G37*
G36*
X-48400D02*
X-48572Y-51401D01*
X-49892Y-51802D01*
X-51108Y-52451D01*
X-52174Y-53326D01*
X-53048Y-54392D01*
X-53698Y-55608D01*
X-54099Y-56928D01*
X-54116Y-57100D01*
X-48400D01*
Y-51384D01*
D02*
G37*
G36*
X-46000Y-31384D02*
Y-37100D01*
X-40284D01*
X-40301Y-36928D01*
X-40701Y-35608D01*
X-41352Y-34392D01*
X-42226Y-33326D01*
X-43292Y-32452D01*
X-44508Y-31802D01*
X-45828Y-31401D01*
X-46000Y-31384D01*
D02*
G37*
G36*
X-48100Y-24300D02*
X-51274D01*
X-50831Y-25369D01*
X-50109Y-26309D01*
X-49169Y-27031D01*
X-48100Y-27474D01*
Y-24300D01*
D02*
G37*
G36*
X-29200Y91107D02*
X-29694Y90903D01*
X-30800D01*
X-31836Y90766D01*
X-32801Y90367D01*
X-33630Y89730D01*
X-34266Y88901D01*
X-34666Y87936D01*
X-34803Y86900D01*
X-34666Y85864D01*
X-34266Y84899D01*
X-33630Y84070D01*
X-32801Y83434D01*
X-31836Y83034D01*
X-30800Y82897D01*
X-29694D01*
X-29200Y82692D01*
Y86900D01*
Y91107D01*
D02*
G37*
G36*
X-47300Y131516D02*
Y125800D01*
X-41584D01*
X-41601Y125972D01*
X-42002Y127292D01*
X-42652Y128508D01*
X-43526Y129574D01*
X-44592Y130448D01*
X-45808Y131098D01*
X-47128Y131499D01*
X-47300Y131516D01*
D02*
G37*
G36*
X-49700D02*
X-49872Y131499D01*
X-51192Y131098D01*
X-52408Y130448D01*
X-53474Y129574D01*
X-54348Y128508D01*
X-54998Y127292D01*
X-55399Y125972D01*
X-55416Y125800D01*
X-49700D01*
Y131516D01*
D02*
G37*
G36*
X-41584Y123400D02*
X-47300D01*
Y117684D01*
X-47128Y117701D01*
X-45808Y118102D01*
X-44592Y118752D01*
X-43526Y119626D01*
X-42652Y120692D01*
X-42002Y121908D01*
X-41601Y123228D01*
X-41584Y123400D01*
D02*
G37*
G36*
X-48900Y139100D02*
X-51694D01*
X-51325Y138207D01*
X-50660Y137340D01*
X-49793Y136675D01*
X-48900Y136306D01*
Y139100D01*
D02*
G37*
G36*
X-46500Y144294D02*
Y141500D01*
X-43706D01*
X-44075Y142393D01*
X-44741Y143260D01*
X-45607Y143925D01*
X-46500Y144294D01*
D02*
G37*
G36*
X-48900D02*
X-49793Y143925D01*
X-50660Y143260D01*
X-51325Y142393D01*
X-51694Y141500D01*
X-48900D01*
Y144294D01*
D02*
G37*
G36*
X-43706Y139100D02*
X-46500D01*
Y136306D01*
X-45607Y136675D01*
X-44741Y137340D01*
X-44075Y138207D01*
X-43706Y139100D01*
D02*
G37*
G36*
X-49700Y123400D02*
X-55416D01*
X-55399Y123228D01*
X-54998Y121908D01*
X-54348Y120692D01*
X-53474Y119626D01*
X-52408Y118752D01*
X-51192Y118102D01*
X-49872Y117701D01*
X-49700Y117684D01*
Y123400D01*
D02*
G37*
G36*
X-28000Y122293D02*
X-29396Y122109D01*
X-30696Y121570D01*
X-31813Y120713D01*
X-32670Y119596D01*
X-33209Y118296D01*
X-33393Y116900D01*
X-33209Y115504D01*
X-32670Y114204D01*
X-31813Y113087D01*
X-30696Y112230D01*
X-30503Y112150D01*
Y111650D01*
X-30696Y111570D01*
X-31813Y110713D01*
X-32670Y109596D01*
X-33209Y108296D01*
X-33393Y106900D01*
X-33209Y105504D01*
X-32670Y104204D01*
X-31813Y103087D01*
X-30696Y102230D01*
X-30503Y102150D01*
Y101650D01*
X-30696Y101570D01*
X-31813Y100713D01*
X-32670Y99596D01*
X-33209Y98296D01*
X-33393Y96900D01*
X-33209Y95504D01*
X-32670Y94204D01*
X-31813Y93087D01*
X-30696Y92230D01*
X-29396Y91691D01*
X-29067Y91648D01*
Y91648D01*
X-28000Y91507D01*
X-26933Y91648D01*
Y91648D01*
X-26604Y91691D01*
X-25304Y92230D01*
X-24187Y93087D01*
X-23330Y94204D01*
X-22791Y95504D01*
X-22607Y96900D01*
X-22791Y98296D01*
X-23330Y99596D01*
X-24187Y100713D01*
X-25304Y101570D01*
X-25497Y101650D01*
Y102150D01*
X-25304Y102230D01*
X-24187Y103087D01*
X-23330Y104204D01*
X-22791Y105504D01*
X-22607Y106900D01*
X-22791Y108296D01*
X-23330Y109596D01*
X-24187Y110713D01*
X-25304Y111570D01*
X-25497Y111650D01*
Y112150D01*
X-25304Y112230D01*
X-24187Y113087D01*
X-23330Y114204D01*
X-22791Y115504D01*
X-22607Y116900D01*
X-22791Y118296D01*
X-23330Y119596D01*
X-24187Y120713D01*
X-25304Y121570D01*
X-26604Y122109D01*
X-28000Y122293D01*
D02*
G37*
G36*
X-26800Y91107D02*
Y88100D01*
X-23792D01*
X-24203Y89092D01*
X-24900Y90000D01*
X-25808Y90697D01*
X-26800Y91107D01*
D02*
G37*
G36*
X-23792Y85700D02*
X-26800D01*
Y82692D01*
X-25808Y83103D01*
X-24900Y83800D01*
X-24203Y84708D01*
X-23792Y85700D01*
D02*
G37*
G36*
X-49700Y103400D02*
X-55416D01*
X-55399Y103228D01*
X-54998Y101908D01*
X-54348Y100692D01*
X-53474Y99626D01*
X-52408Y98751D01*
X-51192Y98102D01*
X-49872Y97701D01*
X-49700Y97684D01*
Y103400D01*
D02*
G37*
G36*
X-47300Y111516D02*
Y105800D01*
X-41584D01*
X-41601Y105972D01*
X-42002Y107292D01*
X-42652Y108508D01*
X-43526Y109574D01*
X-44592Y110449D01*
X-45808Y111099D01*
X-47128Y111499D01*
X-47300Y111516D01*
D02*
G37*
G36*
X-49700D02*
X-49872Y111499D01*
X-51192Y111099D01*
X-52408Y110449D01*
X-53474Y109574D01*
X-54348Y108508D01*
X-54998Y107292D01*
X-55399Y105972D01*
X-55416Y105800D01*
X-49700D01*
Y111516D01*
D02*
G37*
G36*
X-41584Y103400D02*
X-47300D01*
Y97684D01*
X-47128Y97701D01*
X-45808Y98102D01*
X-44592Y98751D01*
X-43526Y99626D01*
X-42652Y100692D01*
X-42002Y101908D01*
X-41601Y103228D01*
X-41584Y103400D01*
D02*
G37*
%LPD*%
G36*
X-30696Y52230D02*
X-30503Y52150D01*
Y51650D01*
X-30696Y51570D01*
X-31813Y50713D01*
X-31975Y50503D01*
X-43182D01*
X-44100Y51207D01*
X-44142Y51373D01*
Y51627D01*
X-44100Y51793D01*
X-43182Y52497D01*
X-31045D01*
X-30696Y52230D01*
D02*
G37*
G36*
Y62230D02*
X-30503Y62150D01*
Y61650D01*
X-30696Y61570D01*
X-31813Y60713D01*
X-31975Y60503D01*
X-43182D01*
X-44226Y61304D01*
X-44508Y61421D01*
Y61921D01*
X-44326Y61996D01*
X-43282Y62797D01*
X-31436D01*
X-30696Y62230D01*
D02*
G37*
G36*
Y72230D02*
X-30503Y72150D01*
Y71650D01*
X-30696Y71570D01*
X-31696Y70803D01*
X-43282D01*
X-44200Y71507D01*
X-44243Y71673D01*
Y71927D01*
X-44200Y72093D01*
X-43282Y72797D01*
X-31436D01*
X-30696Y72230D01*
D02*
G37*
G36*
Y32230D02*
X-30503Y32150D01*
Y31650D01*
X-30696Y31570D01*
X-31566Y30903D01*
X-43082D01*
X-44000Y31607D01*
X-44043Y31773D01*
Y32027D01*
X-44000Y32193D01*
X-43082Y32897D01*
X-31566D01*
X-30696Y32230D01*
D02*
G37*
G36*
Y-7770D02*
X-30503Y-7850D01*
Y-8350D01*
X-30696Y-8430D01*
X-31813Y-9287D01*
X-32670Y-10404D01*
X-33209Y-11704D01*
X-33393Y-13100D01*
X-33209Y-14496D01*
X-32670Y-15796D01*
X-31813Y-16913D01*
X-30696Y-17770D01*
X-30503Y-17850D01*
Y-18350D01*
X-30696Y-18430D01*
X-31813Y-19287D01*
X-32670Y-20404D01*
X-32868Y-20883D01*
X-33359Y-20980D01*
X-41370Y-12970D01*
X-41542Y-11664D01*
X-42096Y-10326D01*
X-42977Y-9177D01*
X-44000Y-8393D01*
X-44043Y-8227D01*
Y-7973D01*
X-44000Y-7807D01*
X-43082Y-7103D01*
X-31566D01*
X-30696Y-7770D01*
D02*
G37*
G36*
Y2230D02*
X-30503Y2150D01*
Y1650D01*
X-30696Y1570D01*
X-31566Y903D01*
X-43082D01*
X-44126Y1704D01*
X-44185Y1729D01*
X-44149Y2255D01*
X-43182Y2997D01*
X-31696D01*
X-30696Y2230D01*
D02*
G37*
G36*
Y12230D02*
X-30503Y12150D01*
Y11650D01*
X-30696Y11570D01*
X-31436Y11003D01*
X-43182D01*
X-44100Y11707D01*
X-44142Y11873D01*
Y12127D01*
X-44100Y12293D01*
X-43182Y12997D01*
X-31696D01*
X-30696Y12230D01*
D02*
G37*
D12*
X51400Y46900D02*
X55900Y42400D01*
X32000Y46900D02*
X51400D01*
X50400Y56900D02*
X55900Y62400D01*
X32000Y56900D02*
X50400D01*
X39200Y124100D02*
X51400D01*
X32000Y116900D02*
X39200Y124100D01*
X51400Y104100D02*
Y124100D01*
X-47100Y76800D02*
X-28100D01*
X-47100Y66800D02*
X-28100D01*
X-47000Y56500D02*
X-28400D01*
X-47000Y46500D02*
X-28400D01*
X-46900Y36900D02*
X-28000D01*
X-46900Y26900D02*
X-28000D01*
X-47000Y17000D02*
X-28100D01*
X-47000Y7000D02*
X-28100D01*
X-46900Y-3100D02*
X-28000D01*
X-30800Y86900D02*
X-28000D01*
X51300Y-57000D02*
Y-37000D01*
X-46900Y-13100D02*
X-34115Y-25885D01*
Y-28685D02*
Y-25885D01*
Y-28685D02*
X-25900Y-36900D01*
X51300D01*
X52400Y125100D02*
Y139800D01*
X16600Y-59900D02*
X48400D01*
D14*
X55900Y62400D02*
D03*
D15*
Y42400D02*
D03*
X-48500Y124600D02*
D03*
Y104600D02*
D03*
X51400Y104100D02*
D03*
Y124100D02*
D03*
X-47200Y-38300D02*
D03*
Y-58300D02*
D03*
X51300Y-57000D02*
D03*
Y-37000D02*
D03*
D16*
X-46900Y36900D02*
D03*
Y26900D02*
D03*
X-47000Y17000D02*
D03*
Y7000D02*
D03*
X-47100Y76800D02*
D03*
Y66800D02*
D03*
X-47000Y56500D02*
D03*
Y46500D02*
D03*
X-46900Y-3100D02*
D03*
Y-23100D02*
D03*
Y-13100D02*
D03*
D17*
X32000Y106900D02*
D03*
Y96900D02*
D03*
Y86900D02*
D03*
Y76900D02*
D03*
Y66900D02*
D03*
Y56900D02*
D03*
Y46900D02*
D03*
Y36900D02*
D03*
Y26900D02*
D03*
Y16900D02*
D03*
Y6900D02*
D03*
Y-3100D02*
D03*
Y-13100D02*
D03*
Y-23100D02*
D03*
X-28000D02*
D03*
Y-13100D02*
D03*
Y-3100D02*
D03*
Y6900D02*
D03*
Y16900D02*
D03*
Y26900D02*
D03*
Y36900D02*
D03*
Y46900D02*
D03*
Y66900D02*
D03*
Y76900D02*
D03*
Y86900D02*
D03*
Y56900D02*
D03*
Y96900D02*
D03*
Y106900D02*
D03*
X32000Y116900D02*
D03*
X-28000D02*
D03*
D18*
X49300Y15600D02*
D03*
X-20000Y-70300D02*
D03*
X23900Y-70800D02*
D03*
D19*
X-47700Y140300D02*
D03*
X52400Y139800D02*
D03*
X-16800Y-59100D02*
D03*
X16600Y-59900D02*
D03*
D20*
X7100Y-67100D02*
D03*
X-6200D02*
D03*
X-6500Y-76100D02*
D03*
X7200D02*
D03*
M02*
