M48
;Layer_Color=9474304
;FILE_FORMAT=2:4
INCH,TZ
;TYPE=PLATED
T1F00S00C0.0354
T2F00S00C0.0520
T3F00S00C0.1260
%
T01
X-44409Y15118
X-37717
X-34278Y15157
X-27585
X-24147
X-17454
X-14016
X-7323
Y30906
X-14016
X-17454
X-24147
X-27585
X-34278
X-37717Y30866
X-44409
T02
X-26850Y9181
Y11181
X-24646
Y9181
X-43780Y9488
Y11488
X-12283Y35441
Y37441
Y39378
Y41378
X-9646Y41370
Y39370
X-9606Y37433
Y35433
X-7306
Y37433
X-7346Y39370
Y41370
X-14583Y41378
Y39378
Y37441
Y35441
X-17402Y35441
Y37441
X-17480Y39370
Y41370
X-19606
Y39370
X-19685Y37433
Y35433
X-22267
Y37433
X-22323Y39378
Y41378
X-24567Y41370
Y39370
X-24528Y37433
Y35433
X-27559Y35394
Y37394
X-27598Y39370
Y41370
X-29724
Y39370
Y37394
Y35394
X-32480
Y37394
X-32559Y39370
Y41370
X-34685
Y39370
X-34680Y37394
Y35394
X-37682Y35354
Y37354
X-37682Y39331
Y41331
X-39882
Y39331
X-39882Y37354
Y35354
X-42646Y35362
Y37362
X-42668Y39370
Y41370
X-44868
Y39370
X-44946Y37354
Y35354
T03
X-19134Y10354
X-32008
X-7047Y44055
X-44882
M30
