G04 Layer_Color=32896*
%FSLAX24Y24*%
%MOIN*%
G70*
G01*
G75*
%ADD18C,0.0100*%
%ADD28C,0.0020*%
%ADD29C,0.0020*%
G54D18*
X-45039Y42586D02*
X-44640D01*
X-44839Y42786D02*
Y42387D01*
X-42992Y42629D02*
X-42592D01*
X-40039D02*
X-39639D01*
X-37913Y42586D02*
X-37514D01*
X-37713Y42786D02*
Y42387D01*
X-34803Y42586D02*
X-34403D01*
X-34603Y42786D02*
Y42387D01*
X-32874Y42629D02*
X-32474D01*
X-29843D02*
X-29443D01*
X-27835Y42586D02*
X-27435D01*
X-27635Y42786D02*
Y42387D01*
X-24803Y42586D02*
X-24403D01*
X-24603Y42786D02*
Y42387D01*
X-22638Y42629D02*
X-22238D01*
X-19685D02*
X-19285D01*
X-17677Y42586D02*
X-17277D01*
X-17477Y42786D02*
Y42387D01*
X-14685Y42586D02*
X-14285D01*
X-14485Y42786D02*
Y42387D01*
X-12362Y42629D02*
X-11962D01*
X-9921D02*
X-9521D01*
X-7559Y42586D02*
X-7159D01*
X-7359Y42786D02*
Y42387D01*
X-38622Y32096D02*
Y31496D01*
X-39022D01*
X-39522D02*
X-39322D01*
X-39222Y31596D01*
Y31796D01*
X-39322Y31896D01*
X-39522D01*
X-39622Y31796D01*
Y31696D01*
X-39222D01*
X-40222Y32096D02*
Y31496D01*
X-39922D01*
X-39822Y31596D01*
Y31796D01*
X-39922Y31896D01*
X-40222D01*
X-40421Y31396D02*
X-40821D01*
X-41021Y31496D02*
Y32096D01*
X-41321D01*
X-41421Y31996D01*
Y31796D01*
X-41321Y31696D01*
X-41021D01*
X-41221D02*
X-41421Y31496D01*
X-41921D02*
X-41721D01*
X-41621Y31596D01*
Y31796D01*
X-41721Y31896D01*
X-41921D01*
X-42021Y31796D01*
Y31696D01*
X-41621D01*
X-42421Y31296D02*
X-42521D01*
X-42621Y31396D01*
Y31896D01*
X-42321D01*
X-42221Y31796D01*
Y31596D01*
X-42321Y31496D01*
X-42621D01*
X-42821D02*
X-43021D01*
X-42921D01*
Y32096D01*
X-42821Y31996D01*
X-28780Y32096D02*
Y31496D01*
X-29179D01*
X-29679D02*
X-29479D01*
X-29379Y31596D01*
Y31796D01*
X-29479Y31896D01*
X-29679D01*
X-29779Y31796D01*
Y31696D01*
X-29379D01*
X-30379Y32096D02*
Y31496D01*
X-30079D01*
X-29979Y31596D01*
Y31796D01*
X-30079Y31896D01*
X-30379D01*
X-30579Y31396D02*
X-30979D01*
X-31179Y31496D02*
Y32096D01*
X-31479D01*
X-31579Y31996D01*
Y31796D01*
X-31479Y31696D01*
X-31179D01*
X-31379D02*
X-31579Y31496D01*
X-32078D02*
X-31879D01*
X-31779Y31596D01*
Y31796D01*
X-31879Y31896D01*
X-32078D01*
X-32178Y31796D01*
Y31696D01*
X-31779D01*
X-32578Y31296D02*
X-32678D01*
X-32778Y31396D01*
Y31896D01*
X-32478D01*
X-32378Y31796D01*
Y31596D01*
X-32478Y31496D01*
X-32778D01*
X-33378D02*
X-32978D01*
X-33378Y31896D01*
Y31996D01*
X-33278Y32096D01*
X-33078D01*
X-32978Y31996D01*
X-17874Y32096D02*
Y31496D01*
X-18274D01*
X-18774D02*
X-18574D01*
X-18474Y31596D01*
Y31796D01*
X-18574Y31896D01*
X-18774D01*
X-18874Y31796D01*
Y31696D01*
X-18474D01*
X-19474Y32096D02*
Y31496D01*
X-19174D01*
X-19074Y31596D01*
Y31796D01*
X-19174Y31896D01*
X-19474D01*
X-19673Y31396D02*
X-20073D01*
X-20273Y31496D02*
Y32096D01*
X-20573D01*
X-20673Y31996D01*
Y31796D01*
X-20573Y31696D01*
X-20273D01*
X-20473D02*
X-20673Y31496D01*
X-21173D02*
X-20973D01*
X-20873Y31596D01*
Y31796D01*
X-20973Y31896D01*
X-21173D01*
X-21273Y31796D01*
Y31696D01*
X-20873D01*
X-21673Y31296D02*
X-21773D01*
X-21873Y31396D01*
Y31896D01*
X-21573D01*
X-21473Y31796D01*
Y31596D01*
X-21573Y31496D01*
X-21873D01*
X-22073Y31996D02*
X-22173Y32096D01*
X-22373D01*
X-22473Y31996D01*
Y31896D01*
X-22373Y31796D01*
X-22273D01*
X-22373D01*
X-22473Y31696D01*
Y31596D01*
X-22373Y31496D01*
X-22173D01*
X-22073Y31596D01*
X-7913Y32096D02*
Y31496D01*
X-8313D01*
X-8813D02*
X-8613D01*
X-8513Y31596D01*
Y31796D01*
X-8613Y31896D01*
X-8813D01*
X-8913Y31796D01*
Y31696D01*
X-8513D01*
X-9513Y32096D02*
Y31496D01*
X-9213D01*
X-9113Y31596D01*
Y31796D01*
X-9213Y31896D01*
X-9513D01*
X-9713Y31396D02*
X-10113D01*
X-10313Y31496D02*
Y32096D01*
X-10613D01*
X-10712Y31996D01*
Y31796D01*
X-10613Y31696D01*
X-10313D01*
X-10513D02*
X-10712Y31496D01*
X-11212D02*
X-11012D01*
X-10912Y31596D01*
Y31796D01*
X-11012Y31896D01*
X-11212D01*
X-11312Y31796D01*
Y31696D01*
X-10912D01*
X-11712Y31296D02*
X-11812D01*
X-11912Y31396D01*
Y31896D01*
X-11612D01*
X-11512Y31796D01*
Y31596D01*
X-11612Y31496D01*
X-11912D01*
X-12412D02*
Y32096D01*
X-12112Y31796D01*
X-12512D01*
X-35157Y9340D02*
Y8740D01*
X-35557D01*
X-36157Y9340D02*
X-35757D01*
Y8740D01*
X-36157D01*
X-35757Y9040D02*
X-35957D01*
X-36357Y9340D02*
Y8740D01*
X-36657D01*
X-36757Y8840D01*
Y9240D01*
X-36657Y9340D01*
X-36357D01*
X-36957Y8640D02*
X-37357D01*
X-37957Y8740D02*
X-37557D01*
X-37957Y9140D01*
Y9240D01*
X-37857Y9340D01*
X-37657D01*
X-37557Y9240D01*
X-38456Y8740D02*
Y9340D01*
X-38157Y9040D01*
X-38556D01*
X-38756Y9340D02*
Y8940D01*
X-38956Y8740D01*
X-39156Y8940D01*
Y9340D01*
G54D28*
X-30791Y32495D02*
X-30341D01*
X-31641Y33095D02*
X-31191D01*
X-31641Y32495D02*
Y33095D01*
Y32495D02*
X-31191D01*
X-30341D02*
Y33095D01*
X-30791D02*
X-30341D01*
X-25043Y13528D02*
X-24593D01*
Y12928D02*
Y13528D01*
X-25893Y12928D02*
X-25443D01*
X-25893D02*
Y13528D01*
X-25443D01*
X-25043Y12928D02*
X-24593D01*
X-36678Y9671D02*
Y10121D01*
X-36078Y10521D02*
Y10971D01*
X-36678D02*
X-36078D01*
X-36678Y10521D02*
Y10971D01*
Y9671D02*
X-36078D01*
Y10121D01*
X-37938Y10509D02*
Y10959D01*
X-37338D01*
Y9659D02*
Y10109D01*
X-37938Y9659D02*
X-37338D01*
X-37938D02*
Y10109D01*
X-37338Y10509D02*
Y10959D01*
X-41470Y33480D02*
X-41020D01*
X-41470D02*
Y34080D01*
X-40620D02*
X-40170D01*
Y33480D02*
Y34080D01*
X-40620Y33480D02*
X-40170D01*
X-41470Y34080D02*
X-41020D01*
X-40633Y32574D02*
X-40183D01*
X-41483Y33174D02*
X-41033D01*
X-41483Y32574D02*
Y33174D01*
Y32574D02*
X-41033D01*
X-40183D02*
Y33174D01*
X-40633D02*
X-40183D01*
X-31641Y33440D02*
X-31191D01*
X-31641D02*
Y34040D01*
X-30791D02*
X-30341D01*
Y33440D02*
Y34040D01*
X-30791Y33440D02*
X-30341D01*
X-31641Y34040D02*
X-31191D01*
X-20762Y33440D02*
X-20312D01*
X-20762D02*
Y34040D01*
X-19912D02*
X-19462D01*
Y33440D02*
Y34040D01*
X-19912Y33440D02*
X-19462D01*
X-20762Y34040D02*
X-20312D01*
X-19885Y32495D02*
X-19435D01*
X-20735Y33095D02*
X-20285D01*
X-20735Y32495D02*
Y33095D01*
Y32495D02*
X-20285D01*
X-19435D02*
Y33095D01*
X-19885D02*
X-19435D01*
X-10801Y33401D02*
X-10351D01*
X-10801D02*
Y34001D01*
X-9951D02*
X-9501D01*
Y33401D02*
Y34001D01*
X-9951Y33401D02*
X-9501D01*
X-10801Y34001D02*
X-10351D01*
X-9964Y32377D02*
X-9514D01*
X-10814Y32977D02*
X-10364D01*
X-10814Y32377D02*
Y32977D01*
Y32377D02*
X-10364D01*
X-9514D02*
Y32977D01*
X-9964D02*
X-9514D01*
G54D29*
X-37938Y10409D02*
X-37338D01*
X-40920Y33480D02*
Y34080D01*
X-31091Y33440D02*
Y34040D01*
X-20212Y33440D02*
Y34040D01*
X-10251Y33401D02*
Y34001D01*
M02*
