M48
;Layer_Color=9474304
;FILE_FORMAT=2:4
INCH,TZ
;TYPE=PLATED
T1F00S00C0.0280
T2F00S00C0.0360
T3F00S00C0.0400
T4F00S00C0.0520
T5F00S00C0.1260
%
T01
X2960Y3010
X6480Y6380
X8520Y5600
X4570Y11190
X12790Y13250
X-1070Y10400
X-4210Y13250
X-6730Y6350
X-2190Y2550
X-4110Y14250
Y15250
X-3700Y20900
X-4220Y23870
X-2160Y27000
X-1220Y28070
X3370Y24940
X12510Y19820
Y15870
X10710Y37250
X10200Y37860
X4480Y35770
X-3740Y37430
X-3797Y38197
T02
X7400Y10200
X8400
Y11200
Y12200
Y13200
Y14200
X7400
Y13200
Y12200
Y11200
X1470Y11190
Y10190
X470
Y11190
Y12190
X1470
Y13190
X470
Y14190
X1470
X7430Y31180
X8430
Y32180
Y33180
Y34180
Y35180
X7430
Y34180
Y33180
Y32180
X1530
Y31180
X530
Y32180
Y33180
X1530
Y34180
X530
Y35180
X1530
T03
X9780Y3600
Y5600
X12780
Y3600
X13710Y12870
Y13870
X-5290Y13270
Y12270
Y11270
Y10270
Y9270
Y14270
Y15270
Y16270
Y17270
Y18270
Y19870
Y20870
Y21870
Y22870
Y23870
Y24870
Y25870
Y26870
Y28870
X2710Y27870
X3710
X4710
Y26870
X3710
X2710
X13710
Y27870
Y28870
Y25870
Y24870
Y23870
Y22870
Y21870
Y19870
Y18870
Y17870
Y16870
Y15870
Y14870
Y30870
Y31870
Y32870
Y33870
Y34870
Y35870
Y36870
Y37870
X11710Y38870
X10710
X9710
X8710
X7710
X6710
X5710
X4710
X3710
X2710
Y39870
X3710
X4710
X5710
X6710
X7710
X8710
X9710
X10710
X11710
X1710
X710
X-290
X-1290
X-2290
X-3290
X-4290
X-5290
Y38870
X-4290
X-3290
X-2290
X-1290
X-290
X710
X1710
X-5290Y35870
Y34870
Y33870
Y32870
Y31870
Y30870
Y29870
T04
X-4560Y3360
Y5360
X520Y19540
Y21540
X2760
Y19540
X8590Y24320
Y26320
X10750
Y24320
T05
X13710Y7370
X-5290Y7870
X710Y27870
X11710
X13710Y39870
X-5290Y37370
M30
