G04 Layer_Physical_Order=2*
G04 Layer_Color=16711680*
%FSLAX24Y24*%
%MOIN*%
G70*
G01*
G75*
%ADD14C,0.0236*%
%ADD16C,0.1200*%
%ADD17C,0.1000*%
%ADD18C,0.0700*%
%ADD19O,0.1000X0.0500*%
%ADD20C,0.1300*%
%ADD21R,0.1200X0.1200*%
%ADD22C,0.0500*%
G36*
X13680Y40850D02*
X15480D01*
Y15845D01*
X15430Y15835D01*
X15428Y15840D01*
X15377Y15907D01*
X15377Y15907D01*
X15187Y16097D01*
X15120Y16148D01*
X15043Y16180D01*
X14960Y16191D01*
X14281D01*
X14281Y16191D01*
X14187Y16263D01*
X14077Y16308D01*
X13960Y16324D01*
X13460D01*
X13343Y16308D01*
X13233Y16263D01*
X13139Y16191D01*
X13139Y16191D01*
X12831D01*
X12831Y16191D01*
X12737Y16263D01*
X12627Y16308D01*
X12510Y16324D01*
X12393Y16308D01*
X12283Y16263D01*
X12189Y16191D01*
X12117Y16097D01*
X12072Y15987D01*
X12056Y15870D01*
X12072Y15753D01*
X12117Y15643D01*
X12189Y15549D01*
X12283Y15477D01*
X12393Y15432D01*
X12510Y15416D01*
X12627Y15432D01*
X12737Y15477D01*
X12831Y15549D01*
X12831Y15549D01*
X13139D01*
X13139Y15549D01*
X13233Y15477D01*
X13343Y15432D01*
X13460Y15416D01*
X13960D01*
X14077Y15432D01*
X14187Y15477D01*
X14281Y15549D01*
X14281Y15549D01*
X14827D01*
X14829Y15547D01*
Y2963D01*
X14627Y2761D01*
X4233D01*
X3757Y3237D01*
X3690Y3288D01*
X3613Y3320D01*
X3530Y3331D01*
X3281D01*
X3281Y3331D01*
X3187Y3403D01*
X3077Y3448D01*
X2960Y3464D01*
X2843Y3448D01*
X2733Y3403D01*
X2639Y3331D01*
X2567Y3237D01*
X2522Y3127D01*
X2506Y3010D01*
X2522Y2893D01*
X2567Y2783D01*
X2639Y2689D01*
X2733Y2617D01*
X2843Y2572D01*
X2960Y2556D01*
X3077Y2572D01*
X3187Y2617D01*
X3281Y2689D01*
X3281Y2689D01*
X3397D01*
X3873Y2213D01*
X3940Y2162D01*
X4017Y2130D01*
X4100Y2119D01*
X4100Y2119D01*
X14760D01*
X14843Y2130D01*
X14888Y2149D01*
X14916Y2106D01*
X14770Y1960D01*
Y1880D01*
X-6290Y1870D01*
X-7090Y2670D01*
X-7080Y2680D01*
Y6152D01*
X-7058Y6163D01*
X-7030Y6166D01*
X-6980Y6100D01*
X-6907Y6044D01*
X-6850Y6021D01*
Y6350D01*
Y6679D01*
X-6907Y6656D01*
X-6980Y6600D01*
X-7030Y6534D01*
X-7058Y6537D01*
X-7080Y6548D01*
Y40200D01*
X-6380Y40900D01*
X-1100D01*
Y40910D01*
X-150Y41860D01*
X12670D01*
X13680Y40850D01*
D02*
G37*
%LPC*%
G36*
X13590Y18750D02*
X13131D01*
X13154Y18693D01*
X13210Y18620D01*
X13283Y18564D01*
X13369Y18529D01*
X13460Y18517D01*
X13590D01*
Y18750D01*
D02*
G37*
G36*
Y18223D02*
X13460D01*
X13369Y18211D01*
X13283Y18176D01*
X13210Y18120D01*
X13154Y18047D01*
X13131Y17990D01*
X13590D01*
Y18223D01*
D02*
G37*
G36*
X13960D02*
X13830D01*
Y17990D01*
X14289D01*
X14266Y18047D01*
X14210Y18120D01*
X14137Y18176D01*
X14051Y18211D01*
X13960Y18223D01*
D02*
G37*
G36*
X3452Y19420D02*
X2880D01*
Y18848D01*
X2897Y18850D01*
X3029Y18890D01*
X3151Y18955D01*
X3257Y19043D01*
X3345Y19149D01*
X3410Y19271D01*
X3450Y19403D01*
X3452Y19420D01*
D02*
G37*
G36*
X2640D02*
X2068D01*
X2070Y19403D01*
X2110Y19271D01*
X2175Y19149D01*
X2263Y19043D01*
X2369Y18955D01*
X2491Y18890D01*
X2623Y18850D01*
X2640Y18848D01*
Y19420D01*
D02*
G37*
G36*
X14289Y18750D02*
X13830D01*
Y18517D01*
X13960D01*
X14051Y18529D01*
X14137Y18564D01*
X14210Y18620D01*
X14266Y18693D01*
X14289Y18750D01*
D02*
G37*
G36*
X-5040Y18724D02*
X-5540D01*
X-5657Y18708D01*
X-5767Y18663D01*
X-5861Y18591D01*
X-5933Y18497D01*
X-5978Y18387D01*
X-5994Y18270D01*
X-5978Y18153D01*
X-5933Y18043D01*
X-5861Y17949D01*
X-5767Y17877D01*
X-5657Y17832D01*
X-5540Y17816D01*
X-5040D01*
X-4923Y17832D01*
X-4813Y17877D01*
X-4719Y17949D01*
X-4647Y18043D01*
X-4602Y18153D01*
X-4586Y18270D01*
X-4602Y18387D01*
X-4647Y18497D01*
X-4719Y18591D01*
X-4813Y18663D01*
X-4923Y18708D01*
X-5040Y18724D01*
D02*
G37*
G36*
X13960Y17324D02*
X13460D01*
X13343Y17308D01*
X13233Y17263D01*
X13139Y17191D01*
X13067Y17097D01*
X13022Y16987D01*
X13006Y16870D01*
X13022Y16753D01*
X13067Y16643D01*
X13139Y16549D01*
X13233Y16477D01*
X13343Y16432D01*
X13460Y16416D01*
X13960D01*
X14077Y16432D01*
X14187Y16477D01*
X14281Y16549D01*
X14353Y16643D01*
X14398Y16753D01*
X14414Y16870D01*
X14398Y16987D01*
X14353Y17097D01*
X14281Y17191D01*
X14187Y17263D01*
X14077Y17308D01*
X13960Y17324D01*
D02*
G37*
G36*
X-5040Y16724D02*
X-5540D01*
X-5657Y16708D01*
X-5767Y16663D01*
X-5861Y16591D01*
X-5933Y16497D01*
X-5978Y16387D01*
X-5994Y16270D01*
X-5978Y16153D01*
X-5933Y16043D01*
X-5861Y15949D01*
X-5767Y15877D01*
X-5657Y15832D01*
X-5540Y15816D01*
X-5040D01*
X-4923Y15832D01*
X-4813Y15877D01*
X-4719Y15949D01*
X-4647Y16043D01*
X-4602Y16153D01*
X-4586Y16270D01*
X-4602Y16387D01*
X-4647Y16497D01*
X-4719Y16591D01*
X-4813Y16663D01*
X-4923Y16708D01*
X-5040Y16724D01*
D02*
G37*
G36*
X13960Y15324D02*
X13460D01*
X13343Y15308D01*
X13233Y15263D01*
X13139Y15191D01*
X13139Y15191D01*
X13060D01*
X13060Y15191D01*
X12977Y15180D01*
X12900Y15148D01*
X12833Y15097D01*
X12553Y14817D01*
X12502Y14750D01*
X12470Y14673D01*
X12459Y14590D01*
Y13558D01*
X12397Y13477D01*
X12352Y13367D01*
X12336Y13250D01*
X12352Y13133D01*
X12397Y13023D01*
X12459Y12942D01*
Y6222D01*
X12389Y6185D01*
X12283Y6097D01*
X12195Y5991D01*
X12158Y5921D01*
X10402D01*
X10365Y5991D01*
X10277Y6097D01*
X10171Y6185D01*
X10049Y6250D01*
X9917Y6290D01*
X9780Y6303D01*
X9643Y6290D01*
X9511Y6250D01*
X9389Y6185D01*
X9283Y6097D01*
X9195Y5991D01*
X9158Y5921D01*
X8841D01*
X8841Y5921D01*
X8747Y5993D01*
X8637Y6038D01*
X8520Y6054D01*
X8403Y6038D01*
X8293Y5993D01*
X8199Y5921D01*
X8127Y5827D01*
X8082Y5717D01*
X8066Y5600D01*
X8082Y5483D01*
X8127Y5373D01*
X8199Y5279D01*
X8293Y5207D01*
X8403Y5162D01*
X8520Y5146D01*
X8637Y5162D01*
X8747Y5207D01*
X8841Y5279D01*
X8841Y5279D01*
X9158D01*
X9195Y5209D01*
X9283Y5103D01*
X9389Y5015D01*
X9511Y4950D01*
X9643Y4910D01*
X9780Y4897D01*
X9917Y4910D01*
X10049Y4950D01*
X10171Y5015D01*
X10277Y5103D01*
X10365Y5209D01*
X10402Y5279D01*
X12158D01*
X12195Y5209D01*
X12283Y5103D01*
X12389Y5015D01*
X12511Y4950D01*
X12643Y4910D01*
X12780Y4897D01*
X12917Y4910D01*
X13049Y4950D01*
X13171Y5015D01*
X13277Y5103D01*
X13365Y5209D01*
X13430Y5331D01*
X13470Y5463D01*
X13483Y5600D01*
X13470Y5737D01*
X13430Y5869D01*
X13365Y5991D01*
X13277Y6097D01*
X13171Y6185D01*
X13101Y6222D01*
Y6706D01*
X13151Y6729D01*
X13235Y6660D01*
X13383Y6581D01*
X13543Y6532D01*
X13710Y6516D01*
X13877Y6532D01*
X14037Y6581D01*
X14185Y6660D01*
X14314Y6766D01*
X14420Y6895D01*
X14499Y7043D01*
X14548Y7203D01*
X14564Y7370D01*
X14548Y7537D01*
X14499Y7697D01*
X14420Y7845D01*
X14314Y7974D01*
X14185Y8080D01*
X14037Y8159D01*
X13877Y8208D01*
X13710Y8224D01*
X13543Y8208D01*
X13383Y8159D01*
X13235Y8080D01*
X13151Y8011D01*
X13101Y8034D01*
Y12523D01*
X13151Y12540D01*
X13233Y12477D01*
X13343Y12432D01*
X13460Y12416D01*
X13960D01*
X14077Y12432D01*
X14187Y12477D01*
X14281Y12549D01*
X14353Y12643D01*
X14398Y12753D01*
X14414Y12870D01*
X14398Y12987D01*
X14353Y13097D01*
X14281Y13191D01*
X14187Y13263D01*
X14077Y13308D01*
X13960Y13324D01*
X13460D01*
X13343Y13308D01*
X13280Y13282D01*
X13236Y13307D01*
X13228Y13367D01*
X13198Y13441D01*
X13223Y13467D01*
X13238Y13475D01*
X13343Y13432D01*
X13460Y13416D01*
X13960D01*
X14077Y13432D01*
X14187Y13477D01*
X14281Y13549D01*
X14353Y13643D01*
X14398Y13753D01*
X14414Y13870D01*
X14398Y13987D01*
X14353Y14097D01*
X14281Y14191D01*
X14187Y14263D01*
X14077Y14308D01*
X13960Y14324D01*
X13460D01*
X13343Y14308D01*
X13233Y14263D01*
X13151Y14200D01*
X13101Y14217D01*
Y14457D01*
X13169Y14526D01*
X13233Y14477D01*
X13343Y14432D01*
X13460Y14416D01*
X13960D01*
X14077Y14432D01*
X14187Y14477D01*
X14281Y14549D01*
X14353Y14643D01*
X14398Y14753D01*
X14414Y14870D01*
X14398Y14987D01*
X14353Y15097D01*
X14281Y15191D01*
X14187Y15263D01*
X14077Y15308D01*
X13960Y15324D01*
D02*
G37*
G36*
X14289Y17750D02*
X13830D01*
Y17517D01*
X13960D01*
X14051Y17529D01*
X14137Y17564D01*
X14210Y17620D01*
X14266Y17693D01*
X14289Y17750D01*
D02*
G37*
G36*
X13590D02*
X13131D01*
X13154Y17693D01*
X13210Y17620D01*
X13283Y17564D01*
X13369Y17529D01*
X13460Y17517D01*
X13590D01*
Y17750D01*
D02*
G37*
G36*
X-5040Y17724D02*
X-5540D01*
X-5657Y17708D01*
X-5767Y17663D01*
X-5861Y17591D01*
X-5933Y17497D01*
X-5978Y17387D01*
X-5994Y17270D01*
X-5978Y17153D01*
X-5933Y17043D01*
X-5861Y16949D01*
X-5767Y16877D01*
X-5657Y16832D01*
X-5540Y16816D01*
X-5040D01*
X-4923Y16832D01*
X-4813Y16877D01*
X-4719Y16949D01*
X-4647Y17043D01*
X-4602Y17153D01*
X-4586Y17270D01*
X-4602Y17387D01*
X-4647Y17497D01*
X-4719Y17591D01*
X-4813Y17663D01*
X-4923Y17708D01*
X-5040Y17724D01*
D02*
G37*
G36*
X13590Y19223D02*
X13460D01*
X13369Y19211D01*
X13283Y19176D01*
X13210Y19120D01*
X13154Y19047D01*
X13131Y18990D01*
X13590D01*
Y19223D01*
D02*
G37*
G36*
X13960Y22324D02*
X13460D01*
X13343Y22308D01*
X13233Y22263D01*
X13139Y22191D01*
X13067Y22097D01*
X13022Y21987D01*
X13006Y21870D01*
X13022Y21753D01*
X13067Y21643D01*
X13139Y21549D01*
X13233Y21477D01*
X13343Y21432D01*
X13460Y21416D01*
X13960D01*
X14077Y21432D01*
X14187Y21477D01*
X14281Y21549D01*
X14353Y21643D01*
X14398Y21753D01*
X14414Y21870D01*
X14398Y21987D01*
X14353Y22097D01*
X14281Y22191D01*
X14187Y22263D01*
X14077Y22308D01*
X13960Y22324D01*
D02*
G37*
G36*
X-5040D02*
X-5540D01*
X-5657Y22308D01*
X-5767Y22263D01*
X-5861Y22191D01*
X-5933Y22097D01*
X-5978Y21987D01*
X-5994Y21870D01*
X-5978Y21753D01*
X-5933Y21643D01*
X-5861Y21549D01*
X-5767Y21477D01*
X-5657Y21432D01*
X-5540Y21416D01*
X-5040D01*
X-4923Y21432D01*
X-4813Y21477D01*
X-4719Y21549D01*
X-4647Y21643D01*
X-4602Y21753D01*
X-4586Y21870D01*
X-4602Y21987D01*
X-4647Y22097D01*
X-4719Y22191D01*
X-4813Y22263D01*
X-4923Y22308D01*
X-5040Y22324D01*
D02*
G37*
G36*
X3452Y21420D02*
X2880D01*
Y20848D01*
X2897Y20850D01*
X3029Y20890D01*
X3151Y20955D01*
X3257Y21043D01*
X3345Y21149D01*
X3410Y21271D01*
X3450Y21403D01*
X3452Y21420D01*
D02*
G37*
G36*
X2640Y22232D02*
X2623Y22230D01*
X2491Y22190D01*
X2369Y22125D01*
X2263Y22037D01*
X2175Y21931D01*
X2110Y21809D01*
X2070Y21677D01*
X2068Y21660D01*
X2640D01*
Y22232D01*
D02*
G37*
G36*
X13960Y23324D02*
X13460D01*
X13343Y23308D01*
X13233Y23263D01*
X13139Y23191D01*
X13067Y23097D01*
X13022Y22987D01*
X13006Y22870D01*
X13022Y22753D01*
X13067Y22643D01*
X13139Y22549D01*
X13233Y22477D01*
X13343Y22432D01*
X13460Y22416D01*
X13960D01*
X14077Y22432D01*
X14187Y22477D01*
X14281Y22549D01*
X14353Y22643D01*
X14398Y22753D01*
X14414Y22870D01*
X14398Y22987D01*
X14353Y23097D01*
X14281Y23191D01*
X14187Y23263D01*
X14077Y23308D01*
X13960Y23324D01*
D02*
G37*
G36*
X-5040D02*
X-5540D01*
X-5657Y23308D01*
X-5767Y23263D01*
X-5861Y23191D01*
X-5933Y23097D01*
X-5978Y22987D01*
X-5994Y22870D01*
X-5978Y22753D01*
X-5933Y22643D01*
X-5861Y22549D01*
X-5767Y22477D01*
X-5657Y22432D01*
X-5540Y22416D01*
X-5040D01*
X-4923Y22432D01*
X-4813Y22477D01*
X-4719Y22549D01*
X-4647Y22643D01*
X-4602Y22753D01*
X-4586Y22870D01*
X-4602Y22987D01*
X-4647Y23097D01*
X-4719Y23191D01*
X-4813Y23263D01*
X-4923Y23308D01*
X-5040Y23324D01*
D02*
G37*
G36*
X2880Y22232D02*
Y21660D01*
X3452D01*
X3450Y21677D01*
X3410Y21809D01*
X3345Y21931D01*
X3257Y22037D01*
X3151Y22125D01*
X3029Y22190D01*
X2897Y22230D01*
X2880Y22232D01*
D02*
G37*
G36*
X8590Y27124D02*
X8433Y27108D01*
X8282Y27063D01*
X8143Y26988D01*
X8022Y26888D01*
X7922Y26767D01*
X7847Y26628D01*
X7802Y26477D01*
X7786Y26320D01*
X7802Y26163D01*
X7847Y26012D01*
X7922Y25873D01*
X8022Y25752D01*
X8143Y25652D01*
X8269Y25584D01*
Y25056D01*
X8143Y24988D01*
X8022Y24888D01*
X7922Y24767D01*
X7847Y24628D01*
X7802Y24477D01*
X7786Y24320D01*
X7802Y24163D01*
X7847Y24012D01*
X7922Y23873D01*
X8022Y23752D01*
X8143Y23652D01*
X8282Y23577D01*
X8323Y23565D01*
X8363Y23513D01*
X12056Y19820D01*
X12056Y19820D01*
X12072Y19703D01*
X12117Y19593D01*
X12189Y19499D01*
X12283Y19427D01*
X12393Y19382D01*
X12510Y19366D01*
X12627Y19382D01*
X12737Y19427D01*
X12831Y19499D01*
X12903Y19593D01*
X12948Y19703D01*
X12964Y19818D01*
X12964Y19820D01*
X13012Y19822D01*
X13012Y19822D01*
X13022Y19753D01*
X13067Y19643D01*
X13139Y19549D01*
X13233Y19477D01*
X13343Y19432D01*
X13460Y19416D01*
X13960D01*
X14077Y19432D01*
X14187Y19477D01*
X14281Y19549D01*
X14353Y19643D01*
X14398Y19753D01*
X14414Y19870D01*
X14398Y19987D01*
X14353Y20097D01*
X14281Y20191D01*
X14187Y20263D01*
X14077Y20308D01*
X13960Y20324D01*
X13460D01*
X13343Y20308D01*
X13233Y20263D01*
X13139Y20191D01*
X13067Y20097D01*
X13022Y19987D01*
X13006Y19872D01*
X13006Y19870D01*
X12958Y19868D01*
X12958Y19868D01*
X12948Y19937D01*
X12903Y20047D01*
X12831Y20141D01*
X12737Y20213D01*
X12627Y20258D01*
X12510Y20274D01*
X12510Y20274D01*
X9115Y23668D01*
X9118Y23718D01*
X9158Y23752D01*
X9258Y23873D01*
X9333Y24012D01*
X9378Y24163D01*
X9394Y24320D01*
X9378Y24477D01*
X9333Y24628D01*
X9258Y24767D01*
X9158Y24888D01*
X9037Y24988D01*
X8911Y25056D01*
Y25584D01*
X9037Y25652D01*
X9158Y25752D01*
X9258Y25873D01*
X9333Y26012D01*
X9378Y26163D01*
X9394Y26320D01*
X9378Y26477D01*
X9333Y26628D01*
X9258Y26767D01*
X9158Y26888D01*
X9037Y26988D01*
X8898Y27063D01*
X8747Y27108D01*
X8590Y27124D01*
D02*
G37*
G36*
X-5040Y20324D02*
X-5540D01*
X-5657Y20308D01*
X-5767Y20263D01*
X-5861Y20191D01*
X-5933Y20097D01*
X-5978Y19987D01*
X-5994Y19870D01*
X-5978Y19753D01*
X-5933Y19643D01*
X-5861Y19549D01*
X-5767Y19477D01*
X-5657Y19432D01*
X-5540Y19416D01*
X-5040D01*
X-4923Y19432D01*
X-4813Y19477D01*
X-4719Y19549D01*
X-4647Y19643D01*
X-4602Y19753D01*
X-4586Y19870D01*
X-4602Y19987D01*
X-4647Y20097D01*
X-4719Y20191D01*
X-4813Y20263D01*
X-4923Y20308D01*
X-5040Y20324D01*
D02*
G37*
G36*
X13960Y19223D02*
X13830D01*
Y18990D01*
X14289D01*
X14266Y19047D01*
X14210Y19120D01*
X14137Y19176D01*
X14051Y19211D01*
X13960Y19223D01*
D02*
G37*
G36*
X2640Y20232D02*
X2623Y20230D01*
X2491Y20190D01*
X2369Y20125D01*
X2263Y20037D01*
X2175Y19931D01*
X2110Y19809D01*
X2070Y19677D01*
X2068Y19660D01*
X2640D01*
Y20232D01*
D02*
G37*
G36*
Y21420D02*
X2068D01*
X2070Y21403D01*
X2110Y21271D01*
X2175Y21149D01*
X2263Y21043D01*
X2369Y20955D01*
X2491Y20890D01*
X2623Y20850D01*
X2640Y20848D01*
Y21420D01*
D02*
G37*
G36*
X-5040Y21324D02*
X-5540D01*
X-5657Y21308D01*
X-5767Y21263D01*
X-5861Y21191D01*
X-5933Y21097D01*
X-5978Y20987D01*
X-5994Y20870D01*
X-5978Y20753D01*
X-5933Y20643D01*
X-5861Y20549D01*
X-5767Y20477D01*
X-5657Y20432D01*
X-5540Y20416D01*
X-5040D01*
X-4923Y20432D01*
X-4813Y20477D01*
X-4719Y20549D01*
X-4647Y20643D01*
X-4602Y20753D01*
X-4586Y20870D01*
X-4602Y20987D01*
X-4647Y21097D01*
X-4719Y21191D01*
X-4813Y21263D01*
X-4923Y21308D01*
X-5040Y21324D01*
D02*
G37*
G36*
X2880Y20232D02*
Y19660D01*
X3452D01*
X3450Y19677D01*
X3410Y19809D01*
X3345Y19931D01*
X3257Y20037D01*
X3151Y20125D01*
X3029Y20190D01*
X2897Y20230D01*
X2880Y20232D01*
D02*
G37*
G36*
X-4560Y6164D02*
X-4717Y6148D01*
X-4868Y6103D01*
X-5007Y6028D01*
X-5128Y5928D01*
X-5228Y5807D01*
X-5303Y5668D01*
X-5348Y5517D01*
X-5364Y5360D01*
X-5348Y5203D01*
X-5303Y5052D01*
X-5228Y4913D01*
X-5128Y4792D01*
X-5007Y4692D01*
X-4868Y4617D01*
X-4717Y4572D01*
X-4560Y4556D01*
X-4403Y4572D01*
X-4252Y4617D01*
X-4113Y4692D01*
X-3992Y4792D01*
X-3892Y4913D01*
X-3817Y5052D01*
X-3772Y5203D01*
X-3756Y5360D01*
X-3772Y5517D01*
X-3817Y5668D01*
X-3892Y5807D01*
X-3992Y5928D01*
X-4113Y6028D01*
X-4252Y6103D01*
X-4403Y6148D01*
X-4560Y6164D01*
D02*
G37*
G36*
X12900Y4191D02*
Y3720D01*
X13371D01*
X13337Y3831D01*
X13281Y3935D01*
X13206Y4026D01*
X13115Y4101D01*
X13011Y4157D01*
X12900Y4191D01*
D02*
G37*
G36*
X12660D02*
X12549Y4157D01*
X12445Y4101D01*
X12354Y4026D01*
X12279Y3935D01*
X12223Y3831D01*
X12189Y3720D01*
X12660D01*
Y4191D01*
D02*
G37*
G36*
X6480Y6834D02*
X6363Y6818D01*
X6253Y6773D01*
X6159Y6701D01*
X6159Y6701D01*
X-240D01*
X-323Y6690D01*
X-400Y6658D01*
X-467Y6607D01*
X-467Y6607D01*
X-2417Y4657D01*
X-2468Y4590D01*
X-2500Y4513D01*
X-2511Y4430D01*
Y2871D01*
X-2511Y2871D01*
X-2583Y2777D01*
X-2628Y2667D01*
X-2644Y2550D01*
X-2628Y2433D01*
X-2583Y2323D01*
X-2511Y2229D01*
X-2417Y2157D01*
X-2307Y2112D01*
X-2190Y2096D01*
X-2073Y2112D01*
X-1963Y2157D01*
X-1869Y2229D01*
X-1797Y2323D01*
X-1752Y2433D01*
X-1736Y2550D01*
X-1752Y2667D01*
X-1797Y2777D01*
X-1869Y2871D01*
X-1869Y2871D01*
Y4297D01*
X-107Y6059D01*
X6159D01*
X6159Y6059D01*
X6253Y5987D01*
X6363Y5942D01*
X6480Y5926D01*
X6597Y5942D01*
X6707Y5987D01*
X6801Y6059D01*
X6873Y6153D01*
X6918Y6263D01*
X6934Y6380D01*
X6918Y6497D01*
X6873Y6607D01*
X6801Y6701D01*
X6707Y6773D01*
X6597Y6818D01*
X6480Y6834D01*
D02*
G37*
G36*
X-5290Y8724D02*
X-5457Y8708D01*
X-5617Y8659D01*
X-5765Y8580D01*
X-5894Y8474D01*
X-6000Y8345D01*
X-6079Y8197D01*
X-6128Y8037D01*
X-6144Y7870D01*
X-6128Y7703D01*
X-6079Y7543D01*
X-6000Y7395D01*
X-5894Y7266D01*
X-5765Y7160D01*
X-5617Y7081D01*
X-5457Y7032D01*
X-5290Y7016D01*
X-5123Y7032D01*
X-4963Y7081D01*
X-4815Y7160D01*
X-4686Y7266D01*
X-4580Y7395D01*
X-4501Y7543D01*
X-4452Y7703D01*
X-4436Y7870D01*
X-4452Y8037D01*
X-4501Y8197D01*
X-4580Y8345D01*
X-4686Y8474D01*
X-4815Y8580D01*
X-4963Y8659D01*
X-5123Y8708D01*
X-5290Y8724D01*
D02*
G37*
G36*
X-6610Y6679D02*
Y6470D01*
X-6401D01*
X-6424Y6527D01*
X-6480Y6600D01*
X-6553Y6656D01*
X-6610Y6679D01*
D02*
G37*
G36*
X-6401Y6230D02*
X-6610D01*
Y6021D01*
X-6553Y6044D01*
X-6480Y6100D01*
X-6424Y6173D01*
X-6401Y6230D01*
D02*
G37*
G36*
X10371Y3480D02*
X9900D01*
Y3009D01*
X10011Y3043D01*
X10115Y3099D01*
X10206Y3174D01*
X10281Y3265D01*
X10337Y3369D01*
X10371Y3480D01*
D02*
G37*
G36*
X9660D02*
X9189D01*
X9223Y3369D01*
X9279Y3265D01*
X9354Y3174D01*
X9445Y3099D01*
X9549Y3043D01*
X9660Y3009D01*
Y3480D01*
D02*
G37*
G36*
X-3760Y4160D02*
X-5360D01*
Y2560D01*
X-3760D01*
Y4160D01*
D02*
G37*
G36*
X12660Y3480D02*
X12189D01*
X12223Y3369D01*
X12279Y3265D01*
X12354Y3174D01*
X12445Y3099D01*
X12549Y3043D01*
X12660Y3009D01*
Y3480D01*
D02*
G37*
G36*
X9900Y4191D02*
Y3720D01*
X10371D01*
X10337Y3831D01*
X10281Y3935D01*
X10206Y4026D01*
X10115Y4101D01*
X10011Y4157D01*
X9900Y4191D01*
D02*
G37*
G36*
X9660D02*
X9549Y4157D01*
X9445Y4101D01*
X9354Y4026D01*
X9279Y3935D01*
X9223Y3831D01*
X9189Y3720D01*
X9660D01*
Y4191D01*
D02*
G37*
G36*
X13371Y3480D02*
X12900D01*
Y3009D01*
X13011Y3043D01*
X13115Y3099D01*
X13206Y3174D01*
X13281Y3265D01*
X13337Y3369D01*
X13371Y3480D01*
D02*
G37*
G36*
X-5040Y9724D02*
X-5540D01*
X-5657Y9708D01*
X-5767Y9663D01*
X-5861Y9591D01*
X-5933Y9497D01*
X-5978Y9387D01*
X-5994Y9270D01*
X-5978Y9153D01*
X-5933Y9043D01*
X-5861Y8949D01*
X-5767Y8877D01*
X-5657Y8832D01*
X-5540Y8816D01*
X-5040D01*
X-4923Y8832D01*
X-4813Y8877D01*
X-4719Y8949D01*
X-4647Y9043D01*
X-4602Y9153D01*
X-4586Y9270D01*
X-4602Y9387D01*
X-4647Y9497D01*
X-4719Y9591D01*
X-4813Y9663D01*
X-4923Y9708D01*
X-5040Y9724D01*
D02*
G37*
G36*
X1590Y14627D02*
Y14310D01*
X1907D01*
X1863Y14417D01*
X1791Y14511D01*
X1697Y14583D01*
X1590Y14627D01*
D02*
G37*
G36*
X1350D02*
X1243Y14583D01*
X1149Y14511D01*
X1077Y14417D01*
X1033Y14310D01*
X1350D01*
Y14627D01*
D02*
G37*
G36*
X590D02*
Y14310D01*
X907D01*
X863Y14417D01*
X791Y14511D01*
X697Y14583D01*
X590Y14627D01*
D02*
G37*
G36*
X7280Y14637D02*
X7173Y14593D01*
X7079Y14521D01*
X7007Y14427D01*
X6963Y14320D01*
X7280D01*
Y14637D01*
D02*
G37*
G36*
X8520D02*
Y14320D01*
X8837D01*
X8793Y14427D01*
X8721Y14521D01*
X8627Y14593D01*
X8520Y14637D01*
D02*
G37*
G36*
X8280D02*
X8173Y14593D01*
X8079Y14521D01*
X8007Y14427D01*
X7963Y14320D01*
X8280D01*
Y14637D01*
D02*
G37*
G36*
X7520D02*
Y14320D01*
X7837D01*
X7793Y14427D01*
X7721Y14521D01*
X7627Y14593D01*
X7520Y14637D01*
D02*
G37*
G36*
X-5410Y12150D02*
X-5869D01*
X-5846Y12093D01*
X-5790Y12020D01*
X-5717Y11964D01*
X-5631Y11929D01*
X-5540Y11917D01*
X-5410D01*
Y12150D01*
D02*
G37*
G36*
X-5040Y11724D02*
X-5540D01*
X-5657Y11708D01*
X-5767Y11663D01*
X-5861Y11591D01*
X-5933Y11497D01*
X-5978Y11387D01*
X-5994Y11270D01*
X-5978Y11153D01*
X-5933Y11043D01*
X-5861Y10949D01*
X-5767Y10877D01*
X-5657Y10832D01*
X-5540Y10816D01*
X-5040D01*
X-4923Y10832D01*
X-4813Y10877D01*
X-4719Y10949D01*
X-4647Y11043D01*
X-4602Y11153D01*
X-4586Y11270D01*
X-4602Y11387D01*
X-4647Y11497D01*
X-4719Y11591D01*
X-4813Y11663D01*
X-4923Y11708D01*
X-5040Y11724D01*
D02*
G37*
G36*
Y10724D02*
X-5540D01*
X-5657Y10708D01*
X-5767Y10663D01*
X-5861Y10591D01*
X-5933Y10497D01*
X-5978Y10387D01*
X-5994Y10270D01*
X-5978Y10153D01*
X-5933Y10043D01*
X-5861Y9949D01*
X-5767Y9877D01*
X-5657Y9832D01*
X-5540Y9816D01*
X-5040D01*
X-4923Y9832D01*
X-4813Y9877D01*
X-4719Y9949D01*
X-4647Y10043D01*
X-4602Y10153D01*
X-4586Y10270D01*
X-4602Y10387D01*
X-4647Y10497D01*
X-4719Y10591D01*
X-4813Y10663D01*
X-4923Y10708D01*
X-5040Y10724D01*
D02*
G37*
G36*
X-4711Y12150D02*
X-5170D01*
Y11917D01*
X-5040D01*
X-4949Y11929D01*
X-4863Y11964D01*
X-4790Y12020D01*
X-4734Y12093D01*
X-4711Y12150D01*
D02*
G37*
G36*
X350Y14627D02*
X243Y14583D01*
X149Y14511D01*
X77Y14417D01*
X33Y14310D01*
X350D01*
Y14627D01*
D02*
G37*
G36*
X-5040Y12623D02*
X-5170D01*
Y12390D01*
X-4711D01*
X-4734Y12447D01*
X-4790Y12520D01*
X-4863Y12576D01*
X-4949Y12611D01*
X-5040Y12623D01*
D02*
G37*
G36*
X-5410D02*
X-5540D01*
X-5631Y12611D01*
X-5717Y12576D01*
X-5790Y12520D01*
X-5846Y12447D01*
X-5869Y12390D01*
X-5410D01*
Y12623D01*
D02*
G37*
G36*
X7310Y35617D02*
X7203Y35573D01*
X7109Y35501D01*
X7037Y35407D01*
X6993Y35300D01*
X7310D01*
Y35617D01*
D02*
G37*
G36*
X13960Y35324D02*
X13460D01*
X13343Y35308D01*
X13233Y35263D01*
X13139Y35191D01*
X13067Y35097D01*
X13022Y34987D01*
X13006Y34870D01*
X13022Y34753D01*
X13067Y34643D01*
X13139Y34549D01*
X13233Y34477D01*
X13343Y34432D01*
X13460Y34416D01*
X13960D01*
X14077Y34432D01*
X14187Y34477D01*
X14281Y34549D01*
X14353Y34643D01*
X14398Y34753D01*
X14414Y34870D01*
X14398Y34987D01*
X14353Y35097D01*
X14281Y35191D01*
X14187Y35263D01*
X14077Y35308D01*
X13960Y35324D01*
D02*
G37*
G36*
X-5040D02*
X-5540D01*
X-5657Y35308D01*
X-5767Y35263D01*
X-5861Y35191D01*
X-5933Y35097D01*
X-5978Y34987D01*
X-5994Y34870D01*
X-5978Y34753D01*
X-5933Y34643D01*
X-5861Y34549D01*
X-5767Y34477D01*
X-5657Y34432D01*
X-5540Y34416D01*
X-5040D01*
X-4923Y34432D01*
X-4813Y34477D01*
X-4719Y34549D01*
X-4647Y34643D01*
X-4602Y34753D01*
X-4586Y34870D01*
X-4602Y34987D01*
X-4647Y35097D01*
X-4719Y35191D01*
X-4813Y35263D01*
X-4923Y35308D01*
X-5040Y35324D01*
D02*
G37*
G36*
X7550Y35617D02*
Y35300D01*
X7867D01*
X7823Y35407D01*
X7751Y35501D01*
X7657Y35573D01*
X7550Y35617D01*
D02*
G37*
G36*
X-5040Y36324D02*
X-5540D01*
X-5657Y36308D01*
X-5767Y36263D01*
X-5861Y36191D01*
X-5933Y36097D01*
X-5978Y35987D01*
X-5994Y35870D01*
X-5978Y35753D01*
X-5933Y35643D01*
X-5861Y35549D01*
X-5767Y35477D01*
X-5657Y35432D01*
X-5540Y35416D01*
X-5040D01*
X-4923Y35432D01*
X-4813Y35477D01*
X-4719Y35549D01*
X-4647Y35643D01*
X-4602Y35753D01*
X-4586Y35870D01*
X-4602Y35987D01*
X-4647Y36097D01*
X-4719Y36191D01*
X-4813Y36263D01*
X-4923Y36308D01*
X-5040Y36324D01*
D02*
G37*
G36*
X8550Y35617D02*
Y35300D01*
X8867D01*
X8823Y35407D01*
X8751Y35501D01*
X8657Y35573D01*
X8550Y35617D01*
D02*
G37*
G36*
X8310D02*
X8203Y35573D01*
X8109Y35501D01*
X8037Y35407D01*
X7993Y35300D01*
X8310D01*
Y35617D01*
D02*
G37*
G36*
X-5040Y33324D02*
X-5540D01*
X-5657Y33308D01*
X-5767Y33263D01*
X-5861Y33191D01*
X-5933Y33097D01*
X-5978Y32987D01*
X-5994Y32870D01*
X-5978Y32753D01*
X-5933Y32643D01*
X-5861Y32549D01*
X-5767Y32477D01*
X-5657Y32432D01*
X-5540Y32416D01*
X-5040D01*
X-4923Y32432D01*
X-4813Y32477D01*
X-4719Y32549D01*
X-4647Y32643D01*
X-4602Y32753D01*
X-4586Y32870D01*
X-4602Y32987D01*
X-4647Y33097D01*
X-4719Y33191D01*
X-4813Y33263D01*
X-4923Y33308D01*
X-5040Y33324D01*
D02*
G37*
G36*
X13960Y32324D02*
X13460D01*
X13343Y32308D01*
X13233Y32263D01*
X13139Y32191D01*
X13067Y32097D01*
X13022Y31987D01*
X13006Y31870D01*
X13022Y31753D01*
X13067Y31643D01*
X13139Y31549D01*
X13233Y31477D01*
X13343Y31432D01*
X13460Y31416D01*
X13960D01*
X14077Y31432D01*
X14187Y31477D01*
X14281Y31549D01*
X14353Y31643D01*
X14398Y31753D01*
X14414Y31870D01*
X14398Y31987D01*
X14353Y32097D01*
X14281Y32191D01*
X14187Y32263D01*
X14077Y32308D01*
X13960Y32324D01*
D02*
G37*
G36*
X-5040D02*
X-5540D01*
X-5657Y32308D01*
X-5767Y32263D01*
X-5861Y32191D01*
X-5933Y32097D01*
X-5978Y31987D01*
X-5994Y31870D01*
X-5978Y31753D01*
X-5933Y31643D01*
X-5861Y31549D01*
X-5767Y31477D01*
X-5657Y31432D01*
X-5540Y31416D01*
X-5040D01*
X-4923Y31432D01*
X-4813Y31477D01*
X-4719Y31549D01*
X-4647Y31643D01*
X-4602Y31753D01*
X-4586Y31870D01*
X-4602Y31987D01*
X-4647Y32097D01*
X-4719Y32191D01*
X-4813Y32263D01*
X-4923Y32308D01*
X-5040Y32324D01*
D02*
G37*
G36*
X13960Y33324D02*
X13460D01*
X13343Y33308D01*
X13233Y33263D01*
X13139Y33191D01*
X13067Y33097D01*
X13022Y32987D01*
X13006Y32870D01*
X13022Y32753D01*
X13067Y32643D01*
X13139Y32549D01*
X13233Y32477D01*
X13343Y32432D01*
X13460Y32416D01*
X13960D01*
X14077Y32432D01*
X14187Y32477D01*
X14281Y32549D01*
X14353Y32643D01*
X14398Y32753D01*
X14414Y32870D01*
X14398Y32987D01*
X14353Y33097D01*
X14281Y33191D01*
X14187Y33263D01*
X14077Y33308D01*
X13960Y33324D01*
D02*
G37*
G36*
X10200Y38314D02*
X10083Y38298D01*
X9973Y38253D01*
X9879Y38181D01*
X9807Y38087D01*
X9762Y37977D01*
X9746Y37860D01*
X9762Y37743D01*
X9807Y37633D01*
X9879Y37539D01*
X9889Y37531D01*
Y33733D01*
X9657Y33501D01*
X8877D01*
X8822Y33572D01*
X8720Y33651D01*
X8716Y33667D01*
Y33693D01*
X8720Y33709D01*
X8822Y33788D01*
X8910Y33903D01*
X8966Y34036D01*
X8985Y34180D01*
X8966Y34324D01*
X8910Y34457D01*
X8822Y34572D01*
X8707Y34660D01*
X8595Y34707D01*
Y34761D01*
X8657Y34787D01*
X8751Y34859D01*
X8823Y34953D01*
X8867Y35060D01*
X7993D01*
X8037Y34953D01*
X8109Y34859D01*
X8203Y34787D01*
X8265Y34761D01*
Y34707D01*
X8153Y34660D01*
X8038Y34572D01*
X7983Y34501D01*
X7877D01*
X7822Y34572D01*
X7707Y34660D01*
X7595Y34707D01*
Y34761D01*
X7657Y34787D01*
X7751Y34859D01*
X7823Y34953D01*
X7867Y35060D01*
X6993D01*
X7037Y34953D01*
X7109Y34859D01*
X7203Y34787D01*
X7265Y34761D01*
Y34707D01*
X7153Y34660D01*
X7038Y34572D01*
X6983Y34501D01*
X6390D01*
X6390Y34501D01*
X6307Y34490D01*
X6230Y34458D01*
X6163Y34407D01*
X6033Y34277D01*
X5982Y34210D01*
X5950Y34133D01*
X5939Y34050D01*
Y27653D01*
X5292Y27006D01*
X5241Y27025D01*
X5190Y27147D01*
X5102Y27262D01*
X4987Y27350D01*
X4875Y27397D01*
Y27451D01*
X4937Y27477D01*
X5031Y27549D01*
X5103Y27643D01*
X5147Y27750D01*
X4710D01*
Y27870D01*
X4590D01*
Y28307D01*
X4483Y28263D01*
X4389Y28191D01*
X4317Y28097D01*
X4291Y28035D01*
X4237D01*
X4190Y28147D01*
X4102Y28262D01*
X3987Y28350D01*
X3854Y28406D01*
X3710Y28425D01*
X3566Y28406D01*
X3433Y28350D01*
X3318Y28262D01*
X3239Y28160D01*
X3223Y28156D01*
X3197D01*
X3181Y28160D01*
X3102Y28262D01*
X2987Y28350D01*
X2854Y28406D01*
X2710Y28425D01*
X2566Y28406D01*
X2433Y28350D01*
X2318Y28262D01*
X2230Y28147D01*
X2174Y28014D01*
X2155Y27870D01*
X2174Y27726D01*
X2230Y27593D01*
X2318Y27478D01*
X2420Y27399D01*
X2424Y27383D01*
Y27357D01*
X2420Y27341D01*
X2318Y27262D01*
X2230Y27147D01*
X2174Y27014D01*
X2155Y26870D01*
X2174Y26726D01*
X2230Y26593D01*
X2318Y26478D01*
X2433Y26390D01*
X2566Y26334D01*
X2710Y26315D01*
X2854Y26334D01*
X2987Y26390D01*
X3102Y26478D01*
X3181Y26580D01*
X3197Y26584D01*
X3223D01*
X3239Y26580D01*
X3318Y26478D01*
X3433Y26390D01*
X3566Y26334D01*
X3710Y26315D01*
X3854Y26334D01*
X3987Y26390D01*
X4102Y26478D01*
X4181Y26580D01*
X4197Y26584D01*
X4223D01*
X4239Y26580D01*
X4318Y26478D01*
X4433Y26390D01*
X4555Y26339D01*
X4574Y26288D01*
X4487Y26201D01*
X1260D01*
X1177Y26190D01*
X1100Y26158D01*
X1033Y26107D01*
X-3723Y21351D01*
X-3817Y21338D01*
X-3927Y21293D01*
X-4021Y21221D01*
X-4093Y21127D01*
X-4138Y21017D01*
X-4154Y20900D01*
X-4138Y20783D01*
X-4093Y20673D01*
X-4021Y20579D01*
X-3927Y20507D01*
X-3817Y20462D01*
X-3700Y20446D01*
X-3583Y20462D01*
X-3473Y20507D01*
X-3379Y20579D01*
X-3307Y20673D01*
X-3262Y20783D01*
X-3246Y20900D01*
X-3248Y20918D01*
X1393Y25559D01*
X4620D01*
X4703Y25570D01*
X4780Y25602D01*
X4847Y25653D01*
X6487Y27293D01*
X6538Y27360D01*
X6570Y27437D01*
X6581Y27520D01*
Y33859D01*
X6983D01*
X7038Y33788D01*
X7140Y33709D01*
X7144Y33693D01*
Y33667D01*
X7140Y33651D01*
X7038Y33572D01*
X6950Y33457D01*
X6894Y33324D01*
X6875Y33180D01*
X6894Y33036D01*
X6950Y32903D01*
X7038Y32788D01*
X7140Y32709D01*
X7144Y32693D01*
Y32667D01*
X7140Y32651D01*
X7038Y32572D01*
X6950Y32457D01*
X6894Y32324D01*
X6875Y32180D01*
X6894Y32036D01*
X6950Y31903D01*
X7038Y31788D01*
X7140Y31709D01*
X7144Y31693D01*
Y31667D01*
X7140Y31651D01*
X7038Y31572D01*
X6950Y31457D01*
X6894Y31324D01*
X6875Y31180D01*
X6894Y31036D01*
X6950Y30903D01*
X7038Y30788D01*
X7153Y30700D01*
X7286Y30644D01*
X7430Y30625D01*
X7574Y30644D01*
X7707Y30700D01*
X7822Y30788D01*
X7877Y30859D01*
X7983D01*
X8038Y30788D01*
X8153Y30700D01*
X8286Y30644D01*
X8430Y30625D01*
X8574Y30644D01*
X8707Y30700D01*
X8822Y30788D01*
X8877Y30859D01*
X9399D01*
Y29943D01*
X4717Y25261D01*
X3691D01*
X3691Y25261D01*
X3597Y25333D01*
X3487Y25378D01*
X3370Y25394D01*
X3253Y25378D01*
X3143Y25333D01*
X3049Y25261D01*
X3049Y25261D01*
X2140D01*
X2057Y25250D01*
X1980Y25218D01*
X1913Y25167D01*
X193Y23447D01*
X142Y23380D01*
X110Y23303D01*
X99Y23220D01*
Y22222D01*
X73Y22208D01*
X-48Y22108D01*
X-148Y21987D01*
X-223Y21848D01*
X-268Y21697D01*
X-284Y21540D01*
X-268Y21383D01*
X-223Y21232D01*
X-148Y21093D01*
X-48Y20972D01*
X73Y20872D01*
X199Y20804D01*
Y20276D01*
X73Y20208D01*
X-48Y20108D01*
X-148Y19987D01*
X-223Y19848D01*
X-268Y19697D01*
X-284Y19540D01*
X-268Y19383D01*
X-223Y19232D01*
X-148Y19093D01*
X-48Y18972D01*
X73Y18872D01*
X199Y18804D01*
Y18380D01*
X210Y18297D01*
X242Y18220D01*
X293Y18153D01*
X2229Y16217D01*
Y11790D01*
X2240Y11707D01*
X2272Y11630D01*
X2323Y11563D01*
X2329Y11557D01*
X2310Y11511D01*
X1917D01*
X1862Y11582D01*
X1760Y11661D01*
X1756Y11677D01*
Y11703D01*
X1760Y11719D01*
X1862Y11798D01*
X1950Y11913D01*
X2006Y12046D01*
X2025Y12190D01*
X2006Y12334D01*
X1950Y12467D01*
X1862Y12582D01*
X1760Y12661D01*
X1756Y12677D01*
Y12703D01*
X1760Y12719D01*
X1862Y12798D01*
X1950Y12913D01*
X2006Y13046D01*
X2025Y13190D01*
X2006Y13334D01*
X1950Y13467D01*
X1862Y13582D01*
X1747Y13670D01*
X1635Y13717D01*
Y13771D01*
X1697Y13797D01*
X1791Y13869D01*
X1863Y13963D01*
X1907Y14070D01*
X1033D01*
X1077Y13963D01*
X1149Y13869D01*
X1243Y13797D01*
X1305Y13771D01*
Y13717D01*
X1193Y13670D01*
X1078Y13582D01*
X1023Y13511D01*
X917D01*
X862Y13582D01*
X747Y13670D01*
X635Y13717D01*
Y13771D01*
X697Y13797D01*
X791Y13869D01*
X863Y13963D01*
X907Y14070D01*
X33D01*
X77Y13963D01*
X149Y13869D01*
X243Y13797D01*
X305Y13771D01*
Y13717D01*
X193Y13670D01*
X78Y13582D01*
X-10Y13467D01*
X-66Y13334D01*
X-85Y13190D01*
X-66Y13046D01*
X-10Y12913D01*
X78Y12798D01*
X180Y12719D01*
X184Y12703D01*
Y12677D01*
X180Y12661D01*
X78Y12582D01*
X23Y12511D01*
X-469D01*
Y14940D01*
X-480Y15023D01*
X-512Y15100D01*
X-563Y15167D01*
X-873Y15477D01*
X-940Y15528D01*
X-1017Y15560D01*
X-1100Y15571D01*
X-3789D01*
X-3789Y15571D01*
X-3883Y15643D01*
X-3993Y15688D01*
X-4110Y15704D01*
X-4227Y15688D01*
X-4337Y15643D01*
X-4431Y15571D01*
X-4503Y15477D01*
X-4548Y15367D01*
X-4548Y15367D01*
X-4599D01*
X-4602Y15387D01*
X-4647Y15497D01*
X-4719Y15591D01*
X-4813Y15663D01*
X-4923Y15708D01*
X-5040Y15724D01*
X-5540D01*
X-5657Y15708D01*
X-5767Y15663D01*
X-5861Y15591D01*
X-5933Y15497D01*
X-5978Y15387D01*
X-5994Y15270D01*
X-5978Y15153D01*
X-5933Y15043D01*
X-5861Y14949D01*
X-5767Y14877D01*
X-5657Y14832D01*
X-5540Y14816D01*
X-5040D01*
X-4923Y14832D01*
X-4813Y14877D01*
X-4719Y14949D01*
X-4647Y15043D01*
X-4602Y15153D01*
X-4602Y15153D01*
X-4551D01*
X-4548Y15133D01*
X-4503Y15023D01*
X-4431Y14929D01*
X-4337Y14857D01*
X-4227Y14812D01*
X-4110Y14796D01*
X-3993Y14812D01*
X-3883Y14857D01*
X-3789Y14929D01*
X-3789Y14929D01*
X-1233D01*
X-1111Y14807D01*
Y12350D01*
X-1100Y12267D01*
X-1068Y12190D01*
X-1017Y12123D01*
X-857Y11963D01*
X-790Y11912D01*
X-713Y11880D01*
X-630Y11869D01*
X23D01*
X78Y11798D01*
X180Y11719D01*
X184Y11703D01*
Y11677D01*
X180Y11661D01*
X78Y11582D01*
X-10Y11467D01*
X-66Y11334D01*
X-85Y11190D01*
X-66Y11046D01*
X-10Y10913D01*
X78Y10798D01*
X180Y10719D01*
X184Y10703D01*
Y10677D01*
X180Y10661D01*
X78Y10582D01*
X31Y10521D01*
X-633D01*
X-677Y10627D01*
X-749Y10721D01*
X-843Y10793D01*
X-953Y10838D01*
X-1070Y10854D01*
X-1169Y10841D01*
X-1219Y10873D01*
Y13750D01*
X-1219Y13750D01*
X-1230Y13833D01*
X-1262Y13910D01*
X-1313Y13977D01*
X-1813Y14477D01*
X-1880Y14528D01*
X-1957Y14560D01*
X-2040Y14571D01*
X-3789D01*
X-3789Y14571D01*
X-3883Y14643D01*
X-3993Y14688D01*
X-4110Y14704D01*
X-4227Y14688D01*
X-4337Y14643D01*
X-4431Y14571D01*
X-4503Y14477D01*
X-4548Y14367D01*
X-4548Y14367D01*
X-4599D01*
X-4602Y14387D01*
X-4647Y14497D01*
X-4719Y14591D01*
X-4813Y14663D01*
X-4923Y14708D01*
X-5040Y14724D01*
X-5540D01*
X-5657Y14708D01*
X-5767Y14663D01*
X-5861Y14591D01*
X-5933Y14497D01*
X-5978Y14387D01*
X-5994Y14270D01*
X-5978Y14153D01*
X-5933Y14043D01*
X-5861Y13949D01*
X-5767Y13877D01*
X-5657Y13832D01*
X-5540Y13816D01*
X-5040D01*
X-4923Y13832D01*
X-4813Y13877D01*
X-4719Y13949D01*
X-4647Y14043D01*
X-4602Y14153D01*
X-4602Y14153D01*
X-4551D01*
X-4548Y14133D01*
X-4503Y14023D01*
X-4431Y13929D01*
X-4337Y13857D01*
X-4227Y13812D01*
X-4110Y13796D01*
X-3993Y13812D01*
X-3883Y13857D01*
X-3789Y13929D01*
X-3789Y13929D01*
X-2173D01*
X-1861Y13617D01*
Y13230D01*
X-1907Y13211D01*
X-2173Y13477D01*
X-2240Y13528D01*
X-2317Y13560D01*
X-2400Y13571D01*
X-3889D01*
X-3889Y13571D01*
X-3983Y13643D01*
X-4093Y13688D01*
X-4210Y13704D01*
X-4327Y13688D01*
X-4437Y13643D01*
X-4531Y13571D01*
X-4591Y13493D01*
X-4646Y13495D01*
X-4647Y13497D01*
X-4719Y13591D01*
X-4813Y13663D01*
X-4923Y13708D01*
X-5040Y13724D01*
X-5540D01*
X-5657Y13708D01*
X-5767Y13663D01*
X-5861Y13591D01*
X-5933Y13497D01*
X-5978Y13387D01*
X-5994Y13270D01*
X-5978Y13153D01*
X-5933Y13043D01*
X-5861Y12949D01*
X-5767Y12877D01*
X-5657Y12832D01*
X-5540Y12816D01*
X-5040D01*
X-4923Y12832D01*
X-4813Y12877D01*
X-4719Y12949D01*
X-4659Y13027D01*
X-4604Y13025D01*
X-4603Y13023D01*
X-4531Y12929D01*
X-4437Y12857D01*
X-4327Y12812D01*
X-4210Y12796D01*
X-4093Y12812D01*
X-3983Y12857D01*
X-3889Y12929D01*
X-3889Y12929D01*
X-2533D01*
X-2261Y12657D01*
Y8540D01*
X-2250Y8457D01*
X-2218Y8380D01*
X-2167Y8313D01*
X-1057Y7203D01*
X-990Y7152D01*
X-913Y7120D01*
X-830Y7109D01*
X9420D01*
X9503Y7120D01*
X9580Y7152D01*
X9647Y7203D01*
X9937Y7493D01*
X9988Y7560D01*
X10020Y7637D01*
X10031Y7720D01*
Y11920D01*
X10020Y12003D01*
X9988Y12080D01*
X9937Y12147D01*
X9937Y12147D01*
X9687Y12397D01*
X9620Y12448D01*
X9543Y12480D01*
X9460Y12491D01*
X8870D01*
X8792Y12592D01*
X8690Y12671D01*
X8686Y12687D01*
Y12713D01*
X8690Y12729D01*
X8792Y12808D01*
X8880Y12923D01*
X8936Y13056D01*
X8955Y13200D01*
X8936Y13344D01*
X8880Y13477D01*
X8792Y13592D01*
X8677Y13680D01*
X8565Y13727D01*
Y13781D01*
X8627Y13807D01*
X8721Y13879D01*
X8793Y13973D01*
X8837Y14080D01*
X7963D01*
X8007Y13973D01*
X8079Y13879D01*
X8173Y13807D01*
X8235Y13781D01*
Y13727D01*
X8123Y13680D01*
X8008Y13592D01*
X7953Y13521D01*
X7847D01*
X7792Y13592D01*
X7677Y13680D01*
X7565Y13727D01*
Y13781D01*
X7627Y13807D01*
X7721Y13879D01*
X7793Y13973D01*
X7837Y14080D01*
X6963D01*
X7007Y13973D01*
X7079Y13879D01*
X7173Y13807D01*
X7235Y13781D01*
Y13727D01*
X7123Y13680D01*
X7008Y13592D01*
X6920Y13477D01*
X6864Y13344D01*
X6845Y13200D01*
X6864Y13056D01*
X6920Y12923D01*
X7008Y12808D01*
X7110Y12729D01*
X7114Y12713D01*
Y12687D01*
X7110Y12671D01*
X7008Y12592D01*
X6920Y12477D01*
X6864Y12344D01*
X6845Y12200D01*
X6864Y12056D01*
X6920Y11923D01*
X7008Y11808D01*
X7110Y11729D01*
X7114Y11713D01*
Y11687D01*
X7110Y11671D01*
X7008Y11592D01*
X6953Y11521D01*
X6560D01*
X6484Y11511D01*
X4891D01*
X4891Y11511D01*
X4797Y11583D01*
X4687Y11628D01*
X4570Y11644D01*
X4453Y11628D01*
X4343Y11583D01*
X4249Y11511D01*
X4249Y11511D01*
X3250D01*
X3238Y11540D01*
X3187Y11607D01*
X3187Y11607D01*
X2871Y11923D01*
Y16350D01*
X2871Y16350D01*
X2860Y16433D01*
X2828Y16510D01*
X2777Y16577D01*
X2777Y16577D01*
X841Y18513D01*
Y18804D01*
X967Y18872D01*
X1088Y18972D01*
X1188Y19093D01*
X1263Y19232D01*
X1308Y19383D01*
X1324Y19540D01*
X1308Y19697D01*
X1263Y19848D01*
X1188Y19987D01*
X1088Y20108D01*
X967Y20208D01*
X841Y20276D01*
Y20804D01*
X967Y20872D01*
X1088Y20972D01*
X1188Y21093D01*
X1263Y21232D01*
X1308Y21383D01*
X1324Y21540D01*
X1308Y21697D01*
X1263Y21848D01*
X1188Y21987D01*
X1088Y22108D01*
X967Y22208D01*
X828Y22283D01*
X741Y22309D01*
Y23087D01*
X2273Y24619D01*
X3049D01*
X3049Y24619D01*
X3143Y24547D01*
X3253Y24502D01*
X3370Y24486D01*
X3487Y24502D01*
X3597Y24547D01*
X3691Y24619D01*
X3691Y24619D01*
X4850D01*
X4933Y24630D01*
X5010Y24662D01*
X5077Y24713D01*
X9947Y29583D01*
X9998Y29650D01*
X10030Y29727D01*
X10041Y29810D01*
Y31030D01*
X10030Y31113D01*
X9998Y31190D01*
X9947Y31257D01*
X9797Y31407D01*
X9730Y31458D01*
X9653Y31490D01*
X9570Y31501D01*
X8877D01*
X8822Y31572D01*
X8720Y31651D01*
X8716Y31667D01*
Y31693D01*
X8720Y31709D01*
X8822Y31788D01*
X8885Y31869D01*
X9930D01*
X10013Y31880D01*
X10090Y31912D01*
X10157Y31963D01*
X10937Y32743D01*
X10937Y32743D01*
X10988Y32810D01*
X11020Y32887D01*
X11031Y32970D01*
X11031Y32970D01*
Y36929D01*
X11031Y36929D01*
X11103Y37023D01*
X11148Y37133D01*
X11164Y37250D01*
X11148Y37367D01*
X11103Y37477D01*
X11031Y37571D01*
X10937Y37643D01*
X10827Y37688D01*
X10710Y37704D01*
X10667Y37698D01*
X10638Y37735D01*
X10639Y37745D01*
X10654Y37860D01*
X10638Y37977D01*
X10593Y38087D01*
X10521Y38181D01*
X10427Y38253D01*
X10317Y38298D01*
X10200Y38314D01*
D02*
G37*
G36*
X13960Y34324D02*
X13460D01*
X13343Y34308D01*
X13233Y34263D01*
X13139Y34191D01*
X13067Y34097D01*
X13022Y33987D01*
X13006Y33870D01*
X13022Y33753D01*
X13067Y33643D01*
X13139Y33549D01*
X13233Y33477D01*
X13343Y33432D01*
X13460Y33416D01*
X13960D01*
X14077Y33432D01*
X14187Y33477D01*
X14281Y33549D01*
X14353Y33643D01*
X14398Y33753D01*
X14414Y33870D01*
X14398Y33987D01*
X14353Y34097D01*
X14281Y34191D01*
X14187Y34263D01*
X14077Y34308D01*
X13960Y34324D01*
D02*
G37*
G36*
X-5040D02*
X-5540D01*
X-5657Y34308D01*
X-5767Y34263D01*
X-5861Y34191D01*
X-5933Y34097D01*
X-5978Y33987D01*
X-5994Y33870D01*
X-5978Y33753D01*
X-5933Y33643D01*
X-5861Y33549D01*
X-5767Y33477D01*
X-5657Y33432D01*
X-5540Y33416D01*
X-5040D01*
X-4923Y33432D01*
X-4813Y33477D01*
X-4719Y33549D01*
X-4647Y33643D01*
X-4602Y33753D01*
X-4586Y33870D01*
X-4602Y33987D01*
X-4647Y34097D01*
X-4719Y34191D01*
X-4813Y34263D01*
X-4923Y34308D01*
X-5040Y34324D01*
D02*
G37*
G36*
X11830Y39307D02*
Y38990D01*
X12147D01*
X12103Y39097D01*
X12031Y39191D01*
X11937Y39263D01*
X11830Y39307D01*
D02*
G37*
G36*
X12147Y38750D02*
X11830D01*
Y38433D01*
X11937Y38477D01*
X12031Y38549D01*
X12103Y38643D01*
X12147Y38750D01*
D02*
G37*
G36*
X13960Y38324D02*
X13460D01*
X13343Y38308D01*
X13233Y38263D01*
X13139Y38191D01*
X13067Y38097D01*
X13022Y37987D01*
X13006Y37870D01*
X13022Y37753D01*
X13067Y37643D01*
X13139Y37549D01*
X13233Y37477D01*
X13343Y37432D01*
X13460Y37416D01*
X13960D01*
X14077Y37432D01*
X14187Y37477D01*
X14281Y37549D01*
X14353Y37643D01*
X14398Y37753D01*
X14414Y37870D01*
X14398Y37987D01*
X14353Y38097D01*
X14281Y38191D01*
X14187Y38263D01*
X14077Y38308D01*
X13960Y38324D01*
D02*
G37*
G36*
X13710Y40724D02*
X13543Y40708D01*
X13383Y40659D01*
X13235Y40580D01*
X13106Y40474D01*
X13000Y40345D01*
X12921Y40197D01*
X12872Y40037D01*
X12856Y39870D01*
X12872Y39703D01*
X12921Y39543D01*
X13000Y39395D01*
X13106Y39266D01*
X13235Y39160D01*
X13383Y39081D01*
X13543Y39032D01*
X13710Y39016D01*
X13877Y39032D01*
X14037Y39081D01*
X14185Y39160D01*
X14314Y39266D01*
X14420Y39395D01*
X14499Y39543D01*
X14548Y39703D01*
X14564Y39870D01*
X14548Y40037D01*
X14499Y40197D01*
X14420Y40345D01*
X14314Y40474D01*
X14185Y40580D01*
X14037Y40659D01*
X13877Y40708D01*
X13710Y40724D01*
D02*
G37*
G36*
X10710Y40425D02*
X10566Y40406D01*
X10433Y40350D01*
X10318Y40262D01*
X10239Y40160D01*
X10223Y40156D01*
X10197D01*
X10181Y40160D01*
X10102Y40262D01*
X9987Y40350D01*
X9854Y40406D01*
X9710Y40425D01*
X9566Y40406D01*
X9433Y40350D01*
X9318Y40262D01*
X9239Y40160D01*
X9223Y40156D01*
X9197D01*
X9181Y40160D01*
X9102Y40262D01*
X8987Y40350D01*
X8854Y40406D01*
X8710Y40425D01*
X8566Y40406D01*
X8433Y40350D01*
X8318Y40262D01*
X8239Y40160D01*
X8223Y40156D01*
X8197D01*
X8181Y40160D01*
X8102Y40262D01*
X7987Y40350D01*
X7854Y40406D01*
X7710Y40425D01*
X7566Y40406D01*
X7433Y40350D01*
X7318Y40262D01*
X7239Y40160D01*
X7223Y40156D01*
X7197D01*
X7181Y40160D01*
X7102Y40262D01*
X6987Y40350D01*
X6854Y40406D01*
X6710Y40425D01*
X6566Y40406D01*
X6433Y40350D01*
X6318Y40262D01*
X6239Y40160D01*
X6223Y40156D01*
X6197D01*
X6181Y40160D01*
X6102Y40262D01*
X5987Y40350D01*
X5854Y40406D01*
X5710Y40425D01*
X5566Y40406D01*
X5433Y40350D01*
X5318Y40262D01*
X5239Y40160D01*
X5223Y40156D01*
X5197D01*
X5181Y40160D01*
X5102Y40262D01*
X4987Y40350D01*
X4854Y40406D01*
X4710Y40425D01*
X4566Y40406D01*
X4433Y40350D01*
X4318Y40262D01*
X4239Y40160D01*
X4223Y40156D01*
X4197D01*
X4181Y40160D01*
X4102Y40262D01*
X3987Y40350D01*
X3854Y40406D01*
X3710Y40425D01*
X3566Y40406D01*
X3433Y40350D01*
X3318Y40262D01*
X3239Y40160D01*
X3223Y40156D01*
X3197D01*
X3181Y40160D01*
X3102Y40262D01*
X2987Y40350D01*
X2854Y40406D01*
X2710Y40425D01*
X2566Y40406D01*
X2433Y40350D01*
X2318Y40262D01*
X2239Y40160D01*
X2223Y40156D01*
X2197D01*
X2181Y40160D01*
X2102Y40262D01*
X1987Y40350D01*
X1854Y40406D01*
X1710Y40425D01*
X1566Y40406D01*
X1433Y40350D01*
X1318Y40262D01*
X1239Y40160D01*
X1223Y40156D01*
X1197D01*
X1181Y40160D01*
X1102Y40262D01*
X987Y40350D01*
X854Y40406D01*
X710Y40425D01*
X566Y40406D01*
X433Y40350D01*
X318Y40262D01*
X239Y40160D01*
X223Y40156D01*
X197D01*
X181Y40160D01*
X102Y40262D01*
X-13Y40350D01*
X-146Y40406D01*
X-290Y40425D01*
X-434Y40406D01*
X-567Y40350D01*
X-682Y40262D01*
X-761Y40160D01*
X-777Y40156D01*
X-803D01*
X-819Y40160D01*
X-898Y40262D01*
X-1013Y40350D01*
X-1146Y40406D01*
X-1290Y40425D01*
X-1434Y40406D01*
X-1567Y40350D01*
X-1682Y40262D01*
X-1761Y40160D01*
X-1777Y40156D01*
X-1803D01*
X-1819Y40160D01*
X-1898Y40262D01*
X-2013Y40350D01*
X-2146Y40406D01*
X-2290Y40425D01*
X-2434Y40406D01*
X-2567Y40350D01*
X-2682Y40262D01*
X-2761Y40160D01*
X-2777Y40156D01*
X-2803D01*
X-2819Y40160D01*
X-2898Y40262D01*
X-3013Y40350D01*
X-3146Y40406D01*
X-3290Y40425D01*
X-3434Y40406D01*
X-3567Y40350D01*
X-3682Y40262D01*
X-3761Y40160D01*
X-3777Y40156D01*
X-3803D01*
X-3819Y40160D01*
X-3898Y40262D01*
X-4013Y40350D01*
X-4146Y40406D01*
X-4290Y40425D01*
X-4434Y40406D01*
X-4567Y40350D01*
X-4682Y40262D01*
X-4761Y40160D01*
X-4777Y40156D01*
X-4803D01*
X-4819Y40160D01*
X-4898Y40262D01*
X-5013Y40350D01*
X-5146Y40406D01*
X-5290Y40425D01*
X-5434Y40406D01*
X-5567Y40350D01*
X-5682Y40262D01*
X-5770Y40147D01*
X-5826Y40014D01*
X-5845Y39870D01*
X-5826Y39726D01*
X-5770Y39593D01*
X-5682Y39478D01*
X-5580Y39399D01*
X-5576Y39383D01*
Y39357D01*
X-5580Y39341D01*
X-5682Y39262D01*
X-5770Y39147D01*
X-5826Y39014D01*
X-5845Y38870D01*
X-5826Y38726D01*
X-5770Y38593D01*
X-5682Y38478D01*
X-5567Y38390D01*
X-5434Y38334D01*
X-5290Y38315D01*
X-5146Y38334D01*
X-5013Y38390D01*
X-4898Y38478D01*
X-4819Y38580D01*
X-4803Y38584D01*
X-4777D01*
X-4761Y38580D01*
X-4682Y38478D01*
X-4567Y38390D01*
X-4434Y38334D01*
X-4290Y38315D01*
X-4286Y38316D01*
X-4242Y38271D01*
X-4251Y38197D01*
X-4236Y38080D01*
X-4191Y37970D01*
X-4118Y37876D01*
X-4049Y37823D01*
X-4046Y37762D01*
X-4061Y37751D01*
X-4133Y37657D01*
X-4178Y37547D01*
X-4194Y37430D01*
X-4178Y37313D01*
X-4133Y37203D01*
X-4061Y37109D01*
X-3967Y37037D01*
X-3857Y36992D01*
X-3740Y36976D01*
X-3623Y36992D01*
X-3513Y37037D01*
X-3419Y37109D01*
X-3419Y37109D01*
X2427D01*
X2429Y37107D01*
Y34583D01*
X2347Y34501D01*
X1977D01*
X1922Y34572D01*
X1820Y34651D01*
X1816Y34667D01*
Y34693D01*
X1820Y34709D01*
X1922Y34788D01*
X2010Y34903D01*
X2066Y35036D01*
X2085Y35180D01*
X2066Y35324D01*
X2010Y35457D01*
X1922Y35572D01*
X1807Y35660D01*
X1674Y35716D01*
X1530Y35735D01*
X1386Y35716D01*
X1253Y35660D01*
X1138Y35572D01*
X1083Y35501D01*
X977D01*
X922Y35572D01*
X807Y35660D01*
X674Y35716D01*
X530Y35735D01*
X386Y35716D01*
X253Y35660D01*
X138Y35572D01*
X83Y35501D01*
X-520D01*
X-603Y35490D01*
X-680Y35458D01*
X-747Y35407D01*
X-917Y35237D01*
X-968Y35170D01*
X-1000Y35093D01*
X-1011Y35010D01*
Y29443D01*
X-1447Y29007D01*
X-1498Y28940D01*
X-1530Y28863D01*
X-1541Y28780D01*
Y28391D01*
X-1541Y28391D01*
X-1613Y28297D01*
X-1658Y28187D01*
X-1674Y28070D01*
X-1658Y27953D01*
X-1613Y27843D01*
X-1541Y27749D01*
X-1447Y27677D01*
X-1337Y27632D01*
X-1220Y27616D01*
X-1103Y27632D01*
X-993Y27677D01*
X-899Y27749D01*
X-895Y27754D01*
X-847Y27738D01*
X-843Y27701D01*
X-1678Y26866D01*
X-1720Y26894D01*
X-1706Y27000D01*
X-1722Y27117D01*
X-1767Y27227D01*
X-1839Y27321D01*
X-1933Y27393D01*
X-2043Y27438D01*
X-2160Y27454D01*
X-2277Y27438D01*
X-2387Y27393D01*
X-2481Y27321D01*
X-2481Y27321D01*
X-2837D01*
X-4123Y28607D01*
X-4190Y28658D01*
X-4267Y28690D01*
X-4350Y28701D01*
X-4433Y28690D01*
X-4510Y28658D01*
X-4577Y28607D01*
X-4628Y28540D01*
X-4660Y28463D01*
X-4671Y28380D01*
X-4660Y28297D01*
X-4628Y28220D01*
X-4577Y28153D01*
X-3197Y26773D01*
X-3130Y26722D01*
X-3053Y26690D01*
X-2970Y26679D01*
X-2970Y26679D01*
X-2481D01*
X-2481Y26679D01*
X-2387Y26607D01*
X-2277Y26562D01*
X-2160Y26546D01*
X-2054Y26560D01*
X-2026Y26518D01*
X-4220Y24324D01*
X-4220Y24324D01*
X-4337Y24308D01*
X-4447Y24263D01*
X-4541Y24191D01*
X-4600Y24114D01*
X-4610Y24110D01*
X-4650Y24110D01*
X-4660Y24114D01*
X-4719Y24191D01*
X-4813Y24263D01*
X-4923Y24308D01*
X-5040Y24324D01*
X-5540D01*
X-5657Y24308D01*
X-5767Y24263D01*
X-5861Y24191D01*
X-5933Y24097D01*
X-5978Y23987D01*
X-5994Y23870D01*
X-5978Y23753D01*
X-5933Y23643D01*
X-5861Y23549D01*
X-5767Y23477D01*
X-5657Y23432D01*
X-5540Y23416D01*
X-5040D01*
X-4923Y23432D01*
X-4813Y23477D01*
X-4719Y23549D01*
X-4660Y23626D01*
X-4650Y23630D01*
X-4610Y23630D01*
X-4600Y23626D01*
X-4541Y23549D01*
X-4447Y23477D01*
X-4337Y23432D01*
X-4220Y23416D01*
X-4103Y23432D01*
X-3993Y23477D01*
X-3899Y23549D01*
X-3827Y23643D01*
X-3782Y23753D01*
X-3766Y23870D01*
X-3766Y23870D01*
X-293Y27343D01*
X-242Y27410D01*
X-210Y27487D01*
X-199Y27570D01*
Y28657D01*
X-187Y28669D01*
X296D01*
X308Y28619D01*
X235Y28580D01*
X106Y28474D01*
X-0Y28345D01*
X-79Y28197D01*
X-128Y28037D01*
X-144Y27870D01*
X-128Y27703D01*
X-79Y27543D01*
X-0Y27395D01*
X106Y27266D01*
X235Y27160D01*
X383Y27081D01*
X543Y27032D01*
X710Y27016D01*
X877Y27032D01*
X1037Y27081D01*
X1185Y27160D01*
X1314Y27266D01*
X1420Y27395D01*
X1499Y27543D01*
X1548Y27703D01*
X1564Y27870D01*
X1548Y28037D01*
X1499Y28197D01*
X1420Y28345D01*
X1314Y28474D01*
X1185Y28580D01*
X1112Y28619D01*
X1124Y28669D01*
X2590D01*
X2673Y28680D01*
X2750Y28712D01*
X2817Y28763D01*
X3667Y29613D01*
X3667Y29613D01*
X3718Y29680D01*
X3750Y29757D01*
X3761Y29840D01*
X3761Y29840D01*
Y31120D01*
X3761Y31120D01*
X3750Y31203D01*
X3718Y31280D01*
X3667Y31347D01*
X3667Y31347D01*
X2667Y32347D01*
X2600Y32398D01*
X2523Y32430D01*
X2440Y32441D01*
X2017D01*
X2010Y32457D01*
X1922Y32572D01*
X1820Y32651D01*
X1816Y32667D01*
Y32693D01*
X1820Y32709D01*
X1922Y32788D01*
X1977Y32859D01*
X2480D01*
X2563Y32870D01*
X2640Y32902D01*
X2707Y32953D01*
X3537Y33783D01*
X3588Y33850D01*
X3620Y33927D01*
X3631Y34010D01*
Y37240D01*
X3631Y37240D01*
X3620Y37323D01*
X3588Y37400D01*
X3537Y37467D01*
X3537Y37467D01*
X2977Y38027D01*
X2910Y38078D01*
X2833Y38110D01*
X2750Y38121D01*
X-3267D01*
X-3344Y38197D01*
X-3344Y38197D01*
X-3354Y38273D01*
X-3309Y38318D01*
X-3290Y38315D01*
X-3146Y38334D01*
X-3013Y38390D01*
X-2898Y38478D01*
X-2819Y38580D01*
X-2803Y38584D01*
X-2777D01*
X-2761Y38580D01*
X-2682Y38478D01*
X-2567Y38390D01*
X-2434Y38334D01*
X-2290Y38315D01*
X-2146Y38334D01*
X-2013Y38390D01*
X-1898Y38478D01*
X-1819Y38580D01*
X-1803Y38584D01*
X-1777D01*
X-1761Y38580D01*
X-1682Y38478D01*
X-1567Y38390D01*
X-1434Y38334D01*
X-1290Y38315D01*
X-1146Y38334D01*
X-1013Y38390D01*
X-898Y38478D01*
X-819Y38580D01*
X-803Y38584D01*
X-777D01*
X-761Y38580D01*
X-682Y38478D01*
X-567Y38390D01*
X-434Y38334D01*
X-290Y38315D01*
X-146Y38334D01*
X-13Y38390D01*
X102Y38478D01*
X181Y38580D01*
X197Y38584D01*
X223D01*
X239Y38580D01*
X318Y38478D01*
X433Y38390D01*
X566Y38334D01*
X710Y38315D01*
X854Y38334D01*
X987Y38390D01*
X1102Y38478D01*
X1181Y38580D01*
X1197Y38584D01*
X1223D01*
X1239Y38580D01*
X1318Y38478D01*
X1433Y38390D01*
X1566Y38334D01*
X1710Y38315D01*
X1854Y38334D01*
X1987Y38390D01*
X2102Y38478D01*
X2181Y38580D01*
X2197Y38584D01*
X2223D01*
X2239Y38580D01*
X2318Y38478D01*
X2433Y38390D01*
X2566Y38334D01*
X2710Y38315D01*
X2854Y38334D01*
X2987Y38390D01*
X3102Y38478D01*
X3181Y38580D01*
X3197Y38584D01*
X3223D01*
X3239Y38580D01*
X3318Y38478D01*
X3433Y38390D01*
X3566Y38334D01*
X3710Y38315D01*
X3854Y38334D01*
X3987Y38390D01*
X4102Y38478D01*
X4181Y38580D01*
X4197Y38584D01*
X4223D01*
X4239Y38580D01*
X4318Y38478D01*
X4433Y38390D01*
X4566Y38334D01*
X4710Y38315D01*
X4854Y38334D01*
X4987Y38390D01*
X5102Y38478D01*
X5181Y38580D01*
X5197Y38584D01*
X5223D01*
X5239Y38580D01*
X5318Y38478D01*
X5433Y38390D01*
X5566Y38334D01*
X5710Y38315D01*
X5854Y38334D01*
X5987Y38390D01*
X6102Y38478D01*
X6181Y38580D01*
X6197Y38584D01*
X6223D01*
X6239Y38580D01*
X6318Y38478D01*
X6433Y38390D01*
X6566Y38334D01*
X6710Y38315D01*
X6854Y38334D01*
X6987Y38390D01*
X7102Y38478D01*
X7181Y38580D01*
X7197Y38584D01*
X7223D01*
X7239Y38580D01*
X7318Y38478D01*
X7433Y38390D01*
X7566Y38334D01*
X7710Y38315D01*
X7854Y38334D01*
X7987Y38390D01*
X8102Y38478D01*
X8181Y38580D01*
X8197Y38584D01*
X8223D01*
X8239Y38580D01*
X8318Y38478D01*
X8433Y38390D01*
X8566Y38334D01*
X8710Y38315D01*
X8854Y38334D01*
X8987Y38390D01*
X9102Y38478D01*
X9181Y38580D01*
X9197Y38584D01*
X9223D01*
X9239Y38580D01*
X9318Y38478D01*
X9433Y38390D01*
X9566Y38334D01*
X9710Y38315D01*
X9854Y38334D01*
X9987Y38390D01*
X10102Y38478D01*
X10181Y38580D01*
X10197Y38584D01*
X10223D01*
X10239Y38580D01*
X10318Y38478D01*
X10433Y38390D01*
X10566Y38334D01*
X10710Y38315D01*
X10854Y38334D01*
X10987Y38390D01*
X11102Y38478D01*
X11190Y38593D01*
X11237Y38705D01*
X11291D01*
X11317Y38643D01*
X11389Y38549D01*
X11483Y38477D01*
X11590Y38433D01*
Y38870D01*
Y39307D01*
X11483Y39263D01*
X11389Y39191D01*
X11317Y39097D01*
X11291Y39035D01*
X11237D01*
X11190Y39147D01*
X11102Y39262D01*
X11000Y39341D01*
X10996Y39357D01*
Y39383D01*
X11000Y39399D01*
X11102Y39478D01*
X11190Y39593D01*
X11237Y39705D01*
X11291D01*
X11317Y39643D01*
X11389Y39549D01*
X11483Y39477D01*
X11590Y39433D01*
Y39870D01*
Y40307D01*
X11483Y40263D01*
X11389Y40191D01*
X11317Y40097D01*
X11291Y40035D01*
X11237D01*
X11190Y40147D01*
X11102Y40262D01*
X10987Y40350D01*
X10854Y40406D01*
X10710Y40425D01*
D02*
G37*
G36*
X11830Y40307D02*
Y39990D01*
X12147D01*
X12103Y40097D01*
X12031Y40191D01*
X11937Y40263D01*
X11830Y40307D01*
D02*
G37*
G36*
X12147Y39750D02*
X11830D01*
Y39433D01*
X11937Y39477D01*
X12031Y39549D01*
X12103Y39643D01*
X12147Y39750D01*
D02*
G37*
G36*
X4809Y35650D02*
X4600D01*
Y35441D01*
X4657Y35464D01*
X4730Y35520D01*
X4786Y35593D01*
X4809Y35650D01*
D02*
G37*
G36*
X4360D02*
X4151D01*
X4174Y35593D01*
X4230Y35520D01*
X4303Y35464D01*
X4360Y35441D01*
Y35650D01*
D02*
G37*
G36*
X13960Y36324D02*
X13460D01*
X13343Y36308D01*
X13233Y36263D01*
X13139Y36191D01*
X13067Y36097D01*
X13022Y35987D01*
X13006Y35870D01*
X13022Y35753D01*
X13067Y35643D01*
X13139Y35549D01*
X13233Y35477D01*
X13343Y35432D01*
X13460Y35416D01*
X13960D01*
X14077Y35432D01*
X14187Y35477D01*
X14281Y35549D01*
X14353Y35643D01*
X14398Y35753D01*
X14414Y35870D01*
X14398Y35987D01*
X14353Y36097D01*
X14281Y36191D01*
X14187Y36263D01*
X14077Y36308D01*
X13960Y36324D01*
D02*
G37*
G36*
X4360Y36099D02*
X4303Y36076D01*
X4230Y36020D01*
X4174Y35947D01*
X4151Y35890D01*
X4360D01*
Y36099D01*
D02*
G37*
G36*
X-5290Y38224D02*
X-5457Y38208D01*
X-5617Y38159D01*
X-5765Y38080D01*
X-5894Y37974D01*
X-6000Y37845D01*
X-6079Y37697D01*
X-6128Y37537D01*
X-6144Y37370D01*
X-6128Y37203D01*
X-6079Y37043D01*
X-6000Y36895D01*
X-5894Y36766D01*
X-5765Y36660D01*
X-5617Y36581D01*
X-5457Y36532D01*
X-5290Y36516D01*
X-5123Y36532D01*
X-4963Y36581D01*
X-4815Y36660D01*
X-4686Y36766D01*
X-4580Y36895D01*
X-4501Y37043D01*
X-4452Y37203D01*
X-4436Y37370D01*
X-4452Y37537D01*
X-4501Y37697D01*
X-4580Y37845D01*
X-4686Y37974D01*
X-4815Y38080D01*
X-4963Y38159D01*
X-5123Y38208D01*
X-5290Y38224D01*
D02*
G37*
G36*
X13960Y37324D02*
X13460D01*
X13343Y37308D01*
X13233Y37263D01*
X13139Y37191D01*
X13067Y37097D01*
X13022Y36987D01*
X13006Y36870D01*
X13022Y36753D01*
X13067Y36643D01*
X13139Y36549D01*
X13233Y36477D01*
X13343Y36432D01*
X13460Y36416D01*
X13960D01*
X14077Y36432D01*
X14187Y36477D01*
X14281Y36549D01*
X14353Y36643D01*
X14398Y36753D01*
X14414Y36870D01*
X14398Y36987D01*
X14353Y37097D01*
X14281Y37191D01*
X14187Y37263D01*
X14077Y37308D01*
X13960Y37324D01*
D02*
G37*
G36*
X4600Y36099D02*
Y35890D01*
X4809D01*
X4786Y35947D01*
X4730Y36020D01*
X4657Y36076D01*
X4600Y36099D01*
D02*
G37*
G36*
X11442Y26200D02*
X10870D01*
Y25628D01*
X10887Y25630D01*
X11019Y25670D01*
X11141Y25735D01*
X11247Y25823D01*
X11335Y25929D01*
X11400Y26051D01*
X11440Y26183D01*
X11442Y26200D01*
D02*
G37*
G36*
X10630D02*
X10058D01*
X10060Y26183D01*
X10100Y26051D01*
X10165Y25929D01*
X10253Y25823D01*
X10359Y25735D01*
X10481Y25670D01*
X10613Y25630D01*
X10630Y25628D01*
Y26200D01*
D02*
G37*
G36*
X13960Y26324D02*
X13460D01*
X13343Y26308D01*
X13233Y26263D01*
X13139Y26191D01*
X13067Y26097D01*
X13022Y25987D01*
X13006Y25870D01*
X13022Y25753D01*
X13067Y25643D01*
X13139Y25549D01*
X13233Y25477D01*
X13343Y25432D01*
X13460Y25416D01*
X13960D01*
X14077Y25432D01*
X14187Y25477D01*
X14281Y25549D01*
X14353Y25643D01*
X14398Y25753D01*
X14414Y25870D01*
X14398Y25987D01*
X14353Y26097D01*
X14281Y26191D01*
X14187Y26263D01*
X14077Y26308D01*
X13960Y26324D01*
D02*
G37*
G36*
X-5040Y27324D02*
X-5540D01*
X-5657Y27308D01*
X-5767Y27263D01*
X-5861Y27191D01*
X-5933Y27097D01*
X-5978Y26987D01*
X-5994Y26870D01*
X-5978Y26753D01*
X-5933Y26643D01*
X-5861Y26549D01*
X-5767Y26477D01*
X-5657Y26432D01*
X-5540Y26416D01*
X-5040D01*
X-4923Y26432D01*
X-4813Y26477D01*
X-4719Y26549D01*
X-4647Y26643D01*
X-4602Y26753D01*
X-4586Y26870D01*
X-4602Y26987D01*
X-4647Y27097D01*
X-4719Y27191D01*
X-4813Y27263D01*
X-4923Y27308D01*
X-5040Y27324D01*
D02*
G37*
G36*
X10870Y27012D02*
Y26440D01*
X11442D01*
X11440Y26457D01*
X11400Y26589D01*
X11335Y26711D01*
X11247Y26817D01*
X11141Y26905D01*
X11019Y26970D01*
X10887Y27010D01*
X10870Y27012D01*
D02*
G37*
G36*
X10630D02*
X10613Y27010D01*
X10481Y26970D01*
X10359Y26905D01*
X10253Y26817D01*
X10165Y26711D01*
X10100Y26589D01*
X10060Y26457D01*
X10058Y26440D01*
X10630D01*
Y27012D01*
D02*
G37*
G36*
X13960Y27324D02*
X13460D01*
X13343Y27308D01*
X13233Y27263D01*
X13139Y27191D01*
X13067Y27097D01*
X13022Y26987D01*
X13006Y26870D01*
X13022Y26753D01*
X13067Y26643D01*
X13139Y26549D01*
X13233Y26477D01*
X13343Y26432D01*
X13460Y26416D01*
X13960D01*
X14077Y26432D01*
X14187Y26477D01*
X14281Y26549D01*
X14353Y26643D01*
X14398Y26753D01*
X14414Y26870D01*
X14398Y26987D01*
X14353Y27097D01*
X14281Y27191D01*
X14187Y27263D01*
X14077Y27308D01*
X13960Y27324D01*
D02*
G37*
G36*
X-5040Y26324D02*
X-5540D01*
X-5657Y26308D01*
X-5767Y26263D01*
X-5861Y26191D01*
X-5933Y26097D01*
X-5978Y25987D01*
X-5994Y25870D01*
X-5978Y25753D01*
X-5933Y25643D01*
X-5861Y25549D01*
X-5767Y25477D01*
X-5657Y25432D01*
X-5540Y25416D01*
X-5040D01*
X-4923Y25432D01*
X-4813Y25477D01*
X-4719Y25549D01*
X-4647Y25643D01*
X-4602Y25753D01*
X-4586Y25870D01*
X-4602Y25987D01*
X-4647Y26097D01*
X-4719Y26191D01*
X-4813Y26263D01*
X-4923Y26308D01*
X-5040Y26324D01*
D02*
G37*
G36*
X11442Y24200D02*
X10870D01*
Y23628D01*
X10887Y23630D01*
X11019Y23670D01*
X11141Y23735D01*
X11247Y23823D01*
X11335Y23929D01*
X11400Y24051D01*
X11440Y24183D01*
X11442Y24200D01*
D02*
G37*
G36*
X10630D02*
X10058D01*
X10060Y24183D01*
X10100Y24051D01*
X10165Y23929D01*
X10253Y23823D01*
X10359Y23735D01*
X10481Y23670D01*
X10613Y23630D01*
X10630Y23628D01*
Y24200D01*
D02*
G37*
G36*
X13960Y24324D02*
X13460D01*
X13343Y24308D01*
X13233Y24263D01*
X13139Y24191D01*
X13067Y24097D01*
X13022Y23987D01*
X13006Y23870D01*
X13022Y23753D01*
X13067Y23643D01*
X13139Y23549D01*
X13233Y23477D01*
X13343Y23432D01*
X13460Y23416D01*
X13960D01*
X14077Y23432D01*
X14187Y23477D01*
X14281Y23549D01*
X14353Y23643D01*
X14398Y23753D01*
X14414Y23870D01*
X14398Y23987D01*
X14353Y24097D01*
X14281Y24191D01*
X14187Y24263D01*
X14077Y24308D01*
X13960Y24324D01*
D02*
G37*
G36*
X-5040Y25324D02*
X-5540D01*
X-5657Y25308D01*
X-5767Y25263D01*
X-5861Y25191D01*
X-5933Y25097D01*
X-5978Y24987D01*
X-5994Y24870D01*
X-5978Y24753D01*
X-5933Y24643D01*
X-5861Y24549D01*
X-5767Y24477D01*
X-5657Y24432D01*
X-5540Y24416D01*
X-5040D01*
X-4923Y24432D01*
X-4813Y24477D01*
X-4719Y24549D01*
X-4647Y24643D01*
X-4602Y24753D01*
X-4586Y24870D01*
X-4602Y24987D01*
X-4647Y25097D01*
X-4719Y25191D01*
X-4813Y25263D01*
X-4923Y25308D01*
X-5040Y25324D01*
D02*
G37*
G36*
X10870Y25012D02*
Y24440D01*
X11442D01*
X11440Y24457D01*
X11400Y24589D01*
X11335Y24711D01*
X11247Y24817D01*
X11141Y24905D01*
X11019Y24970D01*
X10887Y25010D01*
X10870Y25012D01*
D02*
G37*
G36*
X10630D02*
X10613Y25010D01*
X10481Y24970D01*
X10359Y24905D01*
X10253Y24817D01*
X10165Y24711D01*
X10100Y24589D01*
X10060Y24457D01*
X10058Y24440D01*
X10630D01*
Y25012D01*
D02*
G37*
G36*
X13960Y25324D02*
X13460D01*
X13343Y25308D01*
X13233Y25263D01*
X13139Y25191D01*
X13067Y25097D01*
X13022Y24987D01*
X13006Y24870D01*
X13022Y24753D01*
X13067Y24643D01*
X13139Y24549D01*
X13233Y24477D01*
X13343Y24432D01*
X13460Y24416D01*
X13960D01*
X14077Y24432D01*
X14187Y24477D01*
X14281Y24549D01*
X14353Y24643D01*
X14398Y24753D01*
X14414Y24870D01*
X14398Y24987D01*
X14353Y25097D01*
X14281Y25191D01*
X14187Y25263D01*
X14077Y25308D01*
X13960Y25324D01*
D02*
G37*
G36*
X11710Y28724D02*
X11543Y28708D01*
X11383Y28659D01*
X11235Y28580D01*
X11106Y28474D01*
X11000Y28345D01*
X10921Y28197D01*
X10872Y28037D01*
X10856Y27870D01*
X10872Y27703D01*
X10921Y27543D01*
X11000Y27395D01*
X11106Y27266D01*
X11235Y27160D01*
X11383Y27081D01*
X11543Y27032D01*
X11710Y27016D01*
X11877Y27032D01*
X12037Y27081D01*
X12185Y27160D01*
X12314Y27266D01*
X12420Y27395D01*
X12499Y27543D01*
X12548Y27703D01*
X12564Y27870D01*
X12548Y28037D01*
X12499Y28197D01*
X12420Y28345D01*
X12314Y28474D01*
X12185Y28580D01*
X12037Y28659D01*
X11877Y28708D01*
X11710Y28724D01*
D02*
G37*
G36*
X-5040Y30324D02*
X-5540D01*
X-5657Y30308D01*
X-5767Y30263D01*
X-5861Y30191D01*
X-5933Y30097D01*
X-5978Y29987D01*
X-5994Y29870D01*
X-5978Y29753D01*
X-5933Y29643D01*
X-5861Y29549D01*
X-5767Y29477D01*
X-5657Y29432D01*
X-5540Y29416D01*
X-5040D01*
X-4923Y29432D01*
X-4813Y29477D01*
X-4719Y29549D01*
X-4647Y29643D01*
X-4602Y29753D01*
X-4586Y29870D01*
X-4602Y29987D01*
X-4647Y30097D01*
X-4719Y30191D01*
X-4813Y30263D01*
X-4923Y30308D01*
X-5040Y30324D01*
D02*
G37*
G36*
X13960Y29324D02*
X13460D01*
X13343Y29308D01*
X13233Y29263D01*
X13139Y29191D01*
X13067Y29097D01*
X13022Y28987D01*
X13006Y28870D01*
X13022Y28753D01*
X13067Y28643D01*
X13139Y28549D01*
X13233Y28477D01*
X13343Y28432D01*
X13460Y28416D01*
X13960D01*
X14077Y28432D01*
X14187Y28477D01*
X14281Y28549D01*
X14353Y28643D01*
X14398Y28753D01*
X14414Y28870D01*
X14398Y28987D01*
X14353Y29097D01*
X14281Y29191D01*
X14187Y29263D01*
X14077Y29308D01*
X13960Y29324D01*
D02*
G37*
G36*
Y31324D02*
X13460D01*
X13343Y31308D01*
X13233Y31263D01*
X13139Y31191D01*
X13067Y31097D01*
X13022Y30987D01*
X13006Y30870D01*
X13022Y30753D01*
X13067Y30643D01*
X13139Y30549D01*
X13233Y30477D01*
X13343Y30432D01*
X13460Y30416D01*
X13960D01*
X14077Y30432D01*
X14187Y30477D01*
X14281Y30549D01*
X14353Y30643D01*
X14398Y30753D01*
X14414Y30870D01*
X14398Y30987D01*
X14353Y31097D01*
X14281Y31191D01*
X14187Y31263D01*
X14077Y31308D01*
X13960Y31324D01*
D02*
G37*
G36*
X-5040D02*
X-5540D01*
X-5657Y31308D01*
X-5767Y31263D01*
X-5861Y31191D01*
X-5933Y31097D01*
X-5978Y30987D01*
X-5994Y30870D01*
X-5978Y30753D01*
X-5933Y30643D01*
X-5861Y30549D01*
X-5767Y30477D01*
X-5657Y30432D01*
X-5540Y30416D01*
X-5040D01*
X-4923Y30432D01*
X-4813Y30477D01*
X-4719Y30549D01*
X-4647Y30643D01*
X-4602Y30753D01*
X-4586Y30870D01*
X-4602Y30987D01*
X-4647Y31097D01*
X-4719Y31191D01*
X-4813Y31263D01*
X-4923Y31308D01*
X-5040Y31324D01*
D02*
G37*
G36*
Y29324D02*
X-5540D01*
X-5657Y29308D01*
X-5767Y29263D01*
X-5861Y29191D01*
X-5933Y29097D01*
X-5978Y28987D01*
X-5994Y28870D01*
X-5978Y28753D01*
X-5933Y28643D01*
X-5861Y28549D01*
X-5767Y28477D01*
X-5657Y28432D01*
X-5540Y28416D01*
X-5040D01*
X-4923Y28432D01*
X-4813Y28477D01*
X-4719Y28549D01*
X-4647Y28643D01*
X-4602Y28753D01*
X-4586Y28870D01*
X-4602Y28987D01*
X-4647Y29097D01*
X-4719Y29191D01*
X-4813Y29263D01*
X-4923Y29308D01*
X-5040Y29324D01*
D02*
G37*
G36*
X13960Y28324D02*
X13460D01*
X13343Y28308D01*
X13233Y28263D01*
X13139Y28191D01*
X13067Y28097D01*
X13022Y27987D01*
X13006Y27870D01*
X13022Y27753D01*
X13067Y27643D01*
X13139Y27549D01*
X13233Y27477D01*
X13343Y27432D01*
X13460Y27416D01*
X13960D01*
X14077Y27432D01*
X14187Y27477D01*
X14281Y27549D01*
X14353Y27643D01*
X14398Y27753D01*
X14414Y27870D01*
X14398Y27987D01*
X14353Y28097D01*
X14281Y28191D01*
X14187Y28263D01*
X14077Y28308D01*
X13960Y28324D01*
D02*
G37*
G36*
X4830Y28307D02*
Y27990D01*
X5147D01*
X5103Y28097D01*
X5031Y28191D01*
X4937Y28263D01*
X4830Y28307D01*
D02*
G37*
%LPD*%
G36*
X9389Y11787D02*
Y7853D01*
X9287Y7751D01*
X4290D01*
X4271Y7797D01*
X6353Y9879D01*
X6953D01*
X7008Y9808D01*
X7123Y9720D01*
X7256Y9664D01*
X7400Y9645D01*
X7544Y9664D01*
X7677Y9720D01*
X7792Y9808D01*
X7847Y9879D01*
X7953D01*
X8008Y9808D01*
X8123Y9720D01*
X8256Y9664D01*
X8400Y9645D01*
X8544Y9664D01*
X8677Y9720D01*
X8792Y9808D01*
X8880Y9923D01*
X8936Y10056D01*
X8955Y10200D01*
X8936Y10344D01*
X8880Y10477D01*
X8792Y10592D01*
X8690Y10671D01*
X8686Y10687D01*
Y10713D01*
X8690Y10729D01*
X8792Y10808D01*
X8880Y10923D01*
X8936Y11056D01*
X8955Y11200D01*
X8936Y11344D01*
X8880Y11477D01*
X8792Y11592D01*
X8690Y11671D01*
X8686Y11687D01*
Y11713D01*
X8690Y11729D01*
X8792Y11808D01*
X8824Y11849D01*
X9327D01*
X9389Y11787D01*
D02*
G37*
G36*
X10389Y33260D02*
Y33103D01*
X9797Y32511D01*
X8869D01*
X8822Y32572D01*
X8720Y32651D01*
X8716Y32667D01*
Y32693D01*
X8720Y32709D01*
X8822Y32788D01*
X8877Y32859D01*
X9790D01*
X9873Y32870D01*
X9950Y32902D01*
X10017Y32953D01*
X10343Y33279D01*
X10389Y33260D01*
D02*
G37*
G36*
X7008Y10808D02*
X7110Y10729D01*
X7114Y10713D01*
Y10687D01*
X7110Y10671D01*
X7008Y10592D01*
X6953Y10521D01*
X6220D01*
X6220Y10521D01*
X6137Y10510D01*
X6060Y10478D01*
X5993Y10427D01*
X5993Y10427D01*
X3827Y8261D01*
X-607D01*
X-1219Y8873D01*
Y9927D01*
X-1169Y9959D01*
X-1070Y9946D01*
X-1063Y9947D01*
X-1030Y9922D01*
X-953Y9890D01*
X-870Y9879D01*
X-870Y9879D01*
X15D01*
X78Y9798D01*
X193Y9710D01*
X326Y9654D01*
X470Y9635D01*
X614Y9654D01*
X747Y9710D01*
X862Y9798D01*
X917Y9869D01*
X1023D01*
X1078Y9798D01*
X1193Y9710D01*
X1326Y9654D01*
X1470Y9635D01*
X1614Y9654D01*
X1747Y9710D01*
X1862Y9798D01*
X1950Y9913D01*
X2006Y10046D01*
X2025Y10190D01*
X2006Y10334D01*
X1950Y10467D01*
X1862Y10582D01*
X1760Y10661D01*
X1756Y10677D01*
Y10703D01*
X1760Y10719D01*
X1862Y10798D01*
X1917Y10869D01*
X4249D01*
X4249Y10869D01*
X4343Y10797D01*
X4453Y10752D01*
X4570Y10736D01*
X4687Y10752D01*
X4797Y10797D01*
X4891Y10869D01*
X4891Y10869D01*
X6550D01*
X6626Y10879D01*
X6953D01*
X7008Y10808D01*
D02*
G37*
G36*
X138Y34788D02*
X240Y34709D01*
X244Y34693D01*
Y34667D01*
X240Y34651D01*
X138Y34572D01*
X50Y34457D01*
X-6Y34324D01*
X-25Y34180D01*
X-6Y34036D01*
X50Y33903D01*
X138Y33788D01*
X240Y33709D01*
X244Y33693D01*
Y33667D01*
X240Y33651D01*
X138Y33572D01*
X50Y33457D01*
X-6Y33324D01*
X-25Y33180D01*
X-6Y33036D01*
X50Y32903D01*
X138Y32788D01*
X240Y32709D01*
X244Y32693D01*
Y32667D01*
X240Y32651D01*
X138Y32572D01*
X50Y32457D01*
X-6Y32324D01*
X-25Y32180D01*
X-6Y32036D01*
X50Y31903D01*
X138Y31788D01*
X253Y31700D01*
X365Y31653D01*
Y31599D01*
X303Y31573D01*
X209Y31501D01*
X137Y31407D01*
X93Y31300D01*
X967D01*
X923Y31407D01*
X851Y31501D01*
X757Y31573D01*
X695Y31599D01*
Y31653D01*
X807Y31700D01*
X922Y31788D01*
X977Y31859D01*
X1083D01*
X1138Y31788D01*
X1253Y31700D01*
X1365Y31653D01*
Y31599D01*
X1303Y31573D01*
X1209Y31501D01*
X1137Y31407D01*
X1093Y31300D01*
X1967D01*
X1923Y31407D01*
X1851Y31501D01*
X1757Y31573D01*
X1695Y31599D01*
Y31653D01*
X1807Y31700D01*
X1922Y31788D01*
X1931Y31799D01*
X2307D01*
X3119Y30987D01*
Y29973D01*
X2457Y29311D01*
X-320D01*
X-320Y29311D01*
X-369Y29355D01*
Y34859D01*
X83D01*
X138Y34788D01*
D02*
G37*
G36*
X2963Y34138D02*
X2966Y34120D01*
X2347Y33501D01*
X1977D01*
X1922Y33572D01*
X1820Y33651D01*
X1816Y33667D01*
Y33693D01*
X1820Y33709D01*
X1922Y33788D01*
X1977Y33859D01*
X2480D01*
X2563Y33870D01*
X2640Y33902D01*
X2707Y33953D01*
X2909Y34155D01*
X2963Y34138D01*
D02*
G37*
%LPC*%
G36*
X1410Y31060D02*
X1093D01*
X1137Y30953D01*
X1209Y30859D01*
X1303Y30787D01*
X1410Y30743D01*
Y31060D01*
D02*
G37*
G36*
X1967D02*
X1650D01*
Y30743D01*
X1757Y30787D01*
X1851Y30859D01*
X1923Y30953D01*
X1967Y31060D01*
D02*
G37*
G36*
X410D02*
X93D01*
X137Y30953D01*
X209Y30859D01*
X303Y30787D01*
X410Y30743D01*
Y31060D01*
D02*
G37*
G36*
X967D02*
X650D01*
Y30743D01*
X757Y30787D01*
X851Y30859D01*
X923Y30953D01*
X967Y31060D01*
D02*
G37*
%LPD*%
G54D14*
X2960Y3010D02*
X3530D01*
X4100Y2440D01*
X14760D01*
X15150Y2830D01*
Y15680D01*
X14960Y15870D02*
X15150Y15680D01*
X13710Y15870D02*
X14960D01*
X-240Y6380D02*
X6480D01*
X-2190Y4430D02*
X-240Y6380D01*
X-2190Y2550D02*
Y4430D01*
X8590Y23740D02*
X12510Y19820D01*
X8590Y23740D02*
Y24320D01*
Y26320D01*
X420Y21520D02*
Y23220D01*
X520Y19540D02*
Y21540D01*
Y18380D02*
Y19540D01*
X7400Y13200D02*
X8400D01*
X3960Y7940D02*
X6220Y10200D01*
X-740Y7940D02*
X3960D01*
X-1540Y8740D02*
X-740Y7940D01*
X-830Y7430D02*
X9420D01*
X12510Y15870D02*
X13710D01*
X-2970Y27000D02*
X-2160D01*
X-4350Y28380D02*
X-2970Y27000D01*
X12780Y5600D02*
Y14590D01*
X4570Y11190D02*
X6550D01*
X2960D02*
X4570D01*
X9780Y3600D02*
X12780D01*
X8520Y5600D02*
X9780D01*
X13060Y14870D02*
X13710D01*
X12780Y14590D02*
X13060Y14870D01*
X9780Y5600D02*
X12780D01*
X-690Y29310D02*
Y35010D01*
X1470Y11190D02*
X2960D01*
X2550Y11790D02*
Y16350D01*
Y11790D02*
X2960Y11380D01*
Y11190D02*
Y11380D01*
X6550Y11190D02*
X6560Y11200D01*
X520Y18380D02*
X2550Y16350D01*
X420Y21520D02*
X440Y21540D01*
X420Y23220D02*
X2140Y24940D01*
X3370D01*
X7400Y14200D02*
X8400D01*
X7430Y12170D02*
X9460D01*
X7400Y12200D02*
X7430Y12170D01*
X9460D02*
X9710Y11920D01*
Y7720D02*
Y11920D01*
X9420Y7430D02*
X9710Y7720D01*
X-1940Y8540D02*
X-830Y7430D01*
X-1940Y8540D02*
Y12790D01*
X-2400Y13250D02*
X-1940Y12790D01*
X-4210Y13250D02*
X-2400D01*
X7400Y10200D02*
X8400D01*
X6220D02*
X7400D01*
X-1540Y8740D02*
Y13750D01*
X-2040Y14250D02*
X-1540Y13750D01*
X-4110Y14250D02*
X-2040D01*
X7400Y11200D02*
X8400D01*
X6560D02*
X7400D01*
X460Y10200D02*
X470Y10190D01*
X-870Y10200D02*
X460D01*
X-1070Y10400D02*
X-870Y10200D01*
X-630Y12190D02*
X470D01*
X-790Y12350D02*
X-630Y12190D01*
X-790Y12350D02*
Y14940D01*
X-1100Y15250D02*
X-790Y14940D01*
X-4110Y15250D02*
X-1100D01*
X470Y14190D02*
X1470D01*
X470Y13190D02*
X1470D01*
X470Y12190D02*
X1470D01*
X470Y11190D02*
X1470D01*
X470Y10190D02*
X1470D01*
X8410Y32160D02*
X8430Y32180D01*
X7430Y35180D02*
X8430D01*
X530Y31180D02*
X1530D01*
X-3797Y38197D02*
X-3400Y37800D01*
X2750D01*
X3310Y37240D01*
Y34010D02*
Y37240D01*
X2480Y33180D02*
X3310Y34010D01*
X1530Y33180D02*
X2480D01*
X530D02*
X1530D01*
X-3740Y37430D02*
X2560D01*
X2750Y37240D01*
Y34450D02*
Y37240D01*
X2480Y34180D02*
X2750Y34450D01*
X1530Y34180D02*
X2480D01*
X530D02*
X1530D01*
Y32180D02*
X1590Y32120D01*
X2440D01*
X3440Y31120D01*
X-320Y28990D02*
X2590D01*
X-520Y28790D02*
X-320Y28990D01*
X-520Y27570D02*
Y28790D01*
X530Y32180D02*
X1530D01*
X-4220Y23870D02*
X-520Y27570D01*
X7430Y31180D02*
X8430D01*
X530Y35180D02*
X1530D01*
X9930Y32190D02*
X10710Y32970D01*
X7430Y32180D02*
X7440Y32190D01*
X9930D01*
X7430Y33180D02*
X8430D01*
X9790D01*
X10210Y33600D01*
X10710Y32970D02*
Y37250D01*
X10210Y33600D02*
Y37850D01*
X10200Y37860D02*
X10210Y37850D01*
X7430Y34180D02*
X8430D01*
X6390D02*
X7430D01*
X6260Y34050D02*
X6390Y34180D01*
X6260Y27520D02*
Y34050D01*
X4620Y25880D02*
X6260Y27520D01*
X1260Y25880D02*
X4620D01*
X-3700Y20920D02*
X1260Y25880D01*
X-5290Y20870D02*
X-5240Y20920D01*
X470Y14190D02*
X510Y14150D01*
X8390Y10190D02*
X8400Y10200D01*
X-520Y35180D02*
X530D01*
X-690Y35010D02*
X-520Y35180D01*
X-1220Y28780D02*
X-690Y29310D01*
X-1220Y28070D02*
Y28780D01*
X8430Y31180D02*
X9570D01*
X9720Y31030D01*
Y29810D02*
Y31030D01*
X4850Y24940D02*
X9720Y29810D01*
X3370Y24940D02*
X4850D01*
X3440Y29840D02*
Y31120D01*
X2590Y28990D02*
X3440Y29840D01*
G54D16*
X520Y19540D02*
D03*
Y21540D02*
D03*
X2760D02*
D03*
Y19540D02*
D03*
X8590Y24320D02*
D03*
Y26320D02*
D03*
X10750Y24320D02*
D03*
Y26320D02*
D03*
X-4560Y5360D02*
D03*
G54D17*
X12780Y5600D02*
D03*
X9780D02*
D03*
Y3600D02*
D03*
X12780D02*
D03*
G54D18*
X8430Y31180D02*
D03*
X7430Y35180D02*
D03*
X8430D02*
D03*
X7430Y34180D02*
D03*
X8430D02*
D03*
X7430Y33180D02*
D03*
X8430D02*
D03*
X7430Y32180D02*
D03*
X8430D02*
D03*
X7430Y31180D02*
D03*
X530Y35180D02*
D03*
X1530Y31180D02*
D03*
X530D02*
D03*
X1530Y32180D02*
D03*
X530D02*
D03*
X1530Y33180D02*
D03*
X530D02*
D03*
X1530Y34180D02*
D03*
X530D02*
D03*
X1530Y35180D02*
D03*
X8400Y10200D02*
D03*
X7400Y14200D02*
D03*
X8400D02*
D03*
X7400Y13200D02*
D03*
X8400D02*
D03*
X7400Y12200D02*
D03*
X8400D02*
D03*
X7400Y11200D02*
D03*
X8400D02*
D03*
X7400Y10200D02*
D03*
X470Y14190D02*
D03*
X1470Y10190D02*
D03*
X470D02*
D03*
X1470Y11190D02*
D03*
X470D02*
D03*
X1470Y12190D02*
D03*
X470D02*
D03*
X1470Y13190D02*
D03*
X470D02*
D03*
X1470Y14190D02*
D03*
X4710Y27870D02*
D03*
Y26870D02*
D03*
X3710Y27870D02*
D03*
Y26870D02*
D03*
X2710Y27870D02*
D03*
Y26870D02*
D03*
X-5290Y38870D02*
D03*
Y39870D02*
D03*
X-4290Y38870D02*
D03*
Y39870D02*
D03*
X-3290Y38870D02*
D03*
Y39870D02*
D03*
X-2290Y38870D02*
D03*
Y39870D02*
D03*
X-1290Y38870D02*
D03*
Y39870D02*
D03*
X-290Y38870D02*
D03*
Y39870D02*
D03*
X710Y38870D02*
D03*
Y39870D02*
D03*
X1710Y38870D02*
D03*
Y39870D02*
D03*
X2710Y38870D02*
D03*
Y39870D02*
D03*
X3710Y38870D02*
D03*
Y39870D02*
D03*
X4710Y38870D02*
D03*
Y39870D02*
D03*
X5710Y38870D02*
D03*
Y39870D02*
D03*
X6710Y38870D02*
D03*
Y39870D02*
D03*
X7710Y38870D02*
D03*
Y39870D02*
D03*
X8710Y38870D02*
D03*
Y39870D02*
D03*
X9710Y38870D02*
D03*
Y39870D02*
D03*
X10710Y38870D02*
D03*
Y39870D02*
D03*
X11710Y38870D02*
D03*
Y39870D02*
D03*
G54D19*
X-5290Y18270D02*
D03*
Y17270D02*
D03*
Y16270D02*
D03*
Y15270D02*
D03*
Y14270D02*
D03*
Y13270D02*
D03*
Y12270D02*
D03*
Y11270D02*
D03*
Y10270D02*
D03*
Y9270D02*
D03*
Y19870D02*
D03*
Y20870D02*
D03*
Y21870D02*
D03*
Y22870D02*
D03*
Y23870D02*
D03*
Y24870D02*
D03*
Y25870D02*
D03*
Y26870D02*
D03*
Y28870D02*
D03*
Y29870D02*
D03*
Y30870D02*
D03*
Y31870D02*
D03*
Y32870D02*
D03*
Y33870D02*
D03*
Y34870D02*
D03*
Y35870D02*
D03*
X13710Y37870D02*
D03*
Y36870D02*
D03*
Y35870D02*
D03*
Y34870D02*
D03*
Y33870D02*
D03*
Y32870D02*
D03*
Y31870D02*
D03*
Y30870D02*
D03*
Y28870D02*
D03*
Y27870D02*
D03*
Y26870D02*
D03*
Y25870D02*
D03*
Y24870D02*
D03*
Y23870D02*
D03*
Y22870D02*
D03*
Y21870D02*
D03*
Y19870D02*
D03*
Y18870D02*
D03*
Y17870D02*
D03*
Y16870D02*
D03*
Y15870D02*
D03*
Y14870D02*
D03*
Y13870D02*
D03*
Y12870D02*
D03*
G54D20*
X11710Y27870D02*
D03*
X710D02*
D03*
X13710Y7370D02*
D03*
Y39870D02*
D03*
X-5290Y37370D02*
D03*
Y7870D02*
D03*
G54D21*
X-4560Y3360D02*
D03*
G54D22*
X2960Y3010D02*
D03*
X-6730Y6350D02*
D03*
X6480Y6380D02*
D03*
X-2190Y2550D02*
D03*
X4480Y35770D02*
D03*
X12510Y15870D02*
D03*
X-2160Y27000D02*
D03*
X12790Y13250D02*
D03*
X4570Y11190D02*
D03*
X8520Y5600D02*
D03*
X-4210Y13250D02*
D03*
X-4110Y14250D02*
D03*
X-1070Y10400D02*
D03*
X-4110Y15250D02*
D03*
X-3740Y37430D02*
D03*
X-3797Y38197D02*
D03*
X10200Y37860D02*
D03*
X10710Y37250D02*
D03*
X-4220Y23870D02*
D03*
X-3700Y20900D02*
D03*
X-1220Y28070D02*
D03*
X3370Y24940D02*
D03*
X12510Y19820D02*
D03*
M02*
