G04 Layer_Physical_Order=1*
G04 Layer_Color=255*
%FSLAX24Y24*%
%MOIN*%
G70*
G01*
G75*
%ADD10R,0.0500X0.0400*%
%ADD11R,0.0400X0.0500*%
%ADD12R,0.0394X0.0118*%
%ADD13C,0.0118*%
%ADD14C,0.0236*%
%ADD15C,0.0100*%
%ADD16C,0.1200*%
%ADD17C,0.1000*%
%ADD18C,0.0700*%
%ADD19O,0.1000X0.0500*%
%ADD20C,0.1300*%
%ADD21R,0.1200X0.1200*%
%ADD22C,0.0500*%
G36*
X13651Y40848D02*
X15451D01*
Y2668D01*
X14741Y1958D01*
Y1878D01*
X-6319Y1868D01*
X-7119Y2668D01*
X-7109Y2678D01*
Y6220D01*
X-7059Y6230D01*
X-7036Y6173D01*
X-6980Y6100D01*
X-6907Y6044D01*
X-6850Y6021D01*
Y6350D01*
Y6679D01*
X-6907Y6656D01*
X-6980Y6600D01*
X-7036Y6527D01*
X-7059Y6470D01*
X-7109Y6480D01*
Y7503D01*
X-7059Y7520D01*
X-7043Y7499D01*
X-6339Y6795D01*
X-6272Y6744D01*
X-6195Y6712D01*
X-6112Y6701D01*
X2487D01*
X2649Y6539D01*
Y4349D01*
X2604Y4303D01*
X2267D01*
Y4550D01*
Y5069D01*
X2167D01*
Y5224D01*
X1573D01*
Y5069D01*
X1473D01*
Y4550D01*
Y4295D01*
Y4039D01*
Y3791D01*
X1108D01*
X721Y4178D01*
Y4900D01*
X712Y4968D01*
X686Y5031D01*
X645Y5085D01*
X479Y5250D01*
X425Y5292D01*
X362Y5318D01*
X295Y5327D01*
X-532D01*
X-549Y5324D01*
X-928D01*
Y4806D01*
Y4550D01*
Y4303D01*
X-1689D01*
X-2973Y5587D01*
X-3040Y5638D01*
X-3117Y5670D01*
X-3200Y5681D01*
X-3824D01*
X-3892Y5807D01*
X-3992Y5928D01*
X-4113Y6028D01*
X-4252Y6103D01*
X-4403Y6148D01*
X-4560Y6164D01*
X-4717Y6148D01*
X-4868Y6103D01*
X-5007Y6028D01*
X-5128Y5928D01*
X-5228Y5807D01*
X-5303Y5668D01*
X-5348Y5517D01*
X-5364Y5360D01*
X-5348Y5203D01*
X-5303Y5052D01*
X-5228Y4913D01*
X-5128Y4792D01*
X-5007Y4692D01*
X-4868Y4617D01*
X-4717Y4572D01*
X-4560Y4556D01*
X-4403Y4572D01*
X-4252Y4617D01*
X-4113Y4692D01*
X-3992Y4792D01*
X-3892Y4913D01*
X-3824Y5039D01*
X-3333D01*
X-2112Y3818D01*
X-2249Y3681D01*
X-3760D01*
Y4160D01*
X-5360D01*
Y2560D01*
X-3760D01*
Y3039D01*
X-2305D01*
X-2302Y2989D01*
X-2307Y2988D01*
X-2417Y2943D01*
X-2511Y2871D01*
X-2583Y2777D01*
X-2628Y2667D01*
X-2644Y2550D01*
X-2628Y2433D01*
X-2583Y2323D01*
X-2511Y2229D01*
X-2417Y2157D01*
X-2307Y2112D01*
X-2190Y2096D01*
X-2073Y2112D01*
X-1963Y2157D01*
X-1869Y2229D01*
X-1869Y2229D01*
X-1030D01*
Y2100D01*
X-230D01*
Y3000D01*
X-1030D01*
Y2902D01*
X-1080Y2884D01*
X-1119Y2923D01*
Y3157D01*
X-1009Y3267D01*
X-532D01*
X-505Y3271D01*
X-135D01*
Y3527D01*
Y4045D01*
Y4295D01*
Y4550D01*
Y4804D01*
X186D01*
X199Y4792D01*
Y4070D01*
X208Y4002D01*
X234Y3939D01*
X275Y3885D01*
X815Y3345D01*
X869Y3304D01*
X932Y3278D01*
X1000Y3269D01*
X1860D01*
X1870Y3267D01*
X2532D01*
X2559Y3217D01*
X2522Y3127D01*
X2506Y3010D01*
X2518Y2921D01*
X2481Y2871D01*
X2360D01*
Y3000D01*
X1560D01*
Y2100D01*
X2360D01*
Y2229D01*
X2690D01*
X2773Y2240D01*
X2850Y2272D01*
X2917Y2323D01*
X3197Y2603D01*
X3237Y2655D01*
X3281Y2689D01*
X3353Y2783D01*
X3398Y2893D01*
X3414Y3010D01*
X3398Y3127D01*
X3353Y3237D01*
X3291Y3318D01*
Y3400D01*
X3280Y3483D01*
X3248Y3560D01*
X3197Y3627D01*
X3192Y3632D01*
Y3682D01*
X3446Y3937D01*
X3473Y3940D01*
X3550Y3972D01*
X3617Y4023D01*
X3668Y4090D01*
X3700Y4167D01*
X3711Y4250D01*
Y7280D01*
X3700Y7363D01*
X3668Y7440D01*
X3617Y7507D01*
X2963Y8160D01*
X2982Y8207D01*
X3862Y8211D01*
X3821Y16309D01*
X2621Y16303D01*
X2660Y8513D01*
X2610Y8486D01*
X2553Y8510D01*
X2534Y8513D01*
X1998Y9049D01*
X1931Y9100D01*
X1854Y9132D01*
X1771Y9143D01*
X-4554D01*
X-4596Y9193D01*
X-4586Y9270D01*
X-4602Y9387D01*
X-4647Y9497D01*
X-4719Y9591D01*
X-4813Y9663D01*
X-4923Y9708D01*
X-5040Y9724D01*
X-5540D01*
X-5657Y9708D01*
X-5767Y9663D01*
X-5861Y9591D01*
X-5933Y9497D01*
X-5978Y9387D01*
X-5994Y9270D01*
X-5984Y9193D01*
X-6026Y9143D01*
X-6149D01*
X-6179Y9173D01*
Y34165D01*
X-5855Y34489D01*
X-5783D01*
X-5767Y34477D01*
X-5657Y34432D01*
X-5540Y34416D01*
X-5040D01*
X-4923Y34432D01*
X-4813Y34477D01*
X-4719Y34549D01*
X-4647Y34643D01*
X-4602Y34753D01*
X-4586Y34870D01*
X-4602Y34987D01*
X-4647Y35097D01*
X-4719Y35191D01*
X-4813Y35263D01*
X-4923Y35308D01*
X-5040Y35324D01*
X-5540D01*
X-5657Y35308D01*
X-5767Y35263D01*
X-5861Y35191D01*
X-5907Y35131D01*
X-5988D01*
X-5988Y35131D01*
X-6071Y35120D01*
X-6149Y35088D01*
X-6215Y35037D01*
X-6449Y34803D01*
X-6495Y34822D01*
Y35301D01*
X-6247Y35549D01*
X-5861D01*
X-5861Y35549D01*
X-5767Y35477D01*
X-5657Y35432D01*
X-5540Y35416D01*
X-5040D01*
X-4923Y35432D01*
X-4813Y35477D01*
X-4719Y35549D01*
X-4647Y35643D01*
X-4602Y35753D01*
X-4586Y35870D01*
X-4602Y35987D01*
X-4647Y36097D01*
X-4719Y36191D01*
X-4813Y36263D01*
X-4923Y36308D01*
X-5040Y36324D01*
X-5540D01*
X-5657Y36308D01*
X-5767Y36263D01*
X-5861Y36191D01*
X-5861Y36191D01*
X-6380D01*
X-6463Y36180D01*
X-6540Y36148D01*
X-6607Y36097D01*
X-7043Y35661D01*
X-7059Y35640D01*
X-7109Y35657D01*
Y40198D01*
X-6409Y40898D01*
X-1129D01*
Y40908D01*
X-179Y41858D01*
X12641D01*
X13651Y40848D01*
D02*
G37*
G36*
X2166Y7973D02*
X2232Y7923D01*
X2309Y7890D01*
X2328Y7888D01*
X3069Y7147D01*
Y7092D01*
X3023Y7073D01*
X2847Y7249D01*
X2780Y7300D01*
X2703Y7332D01*
X2620Y7343D01*
X-4565D01*
X-4586Y7388D01*
X-4580Y7395D01*
X-4501Y7543D01*
X-4452Y7703D01*
X-4436Y7870D01*
X-4452Y8037D01*
X-4501Y8197D01*
X-4580Y8345D01*
X-4667Y8451D01*
X-4644Y8501D01*
X1638D01*
X2166Y7973D01*
D02*
G37*
G36*
X-6442Y8544D02*
X-6365Y8512D01*
X-6282Y8501D01*
X-5936D01*
X-5913Y8451D01*
X-6000Y8345D01*
X-6079Y8197D01*
X-6128Y8037D01*
X-6144Y7870D01*
X-6128Y7703D01*
X-6079Y7543D01*
X-6045Y7480D01*
X-6086Y7449D01*
X-6495Y7859D01*
Y8528D01*
X-6451Y8550D01*
X-6442Y8544D01*
D02*
G37*
%LPC*%
G36*
X13590Y18223D02*
X13460D01*
X13369Y18211D01*
X13283Y18176D01*
X13210Y18120D01*
X13154Y18047D01*
X13131Y17990D01*
X13590D01*
Y18223D01*
D02*
G37*
G36*
X12380Y15040D02*
X12200D01*
Y14810D01*
X12380D01*
Y15040D01*
D02*
G37*
G36*
X11960D02*
X11780D01*
Y14810D01*
X11960D01*
Y15040D01*
D02*
G37*
G36*
X-5040Y18724D02*
X-5540D01*
X-5657Y18708D01*
X-5767Y18663D01*
X-5861Y18591D01*
X-5933Y18497D01*
X-5978Y18387D01*
X-5994Y18270D01*
X-5978Y18153D01*
X-5933Y18043D01*
X-5861Y17949D01*
X-5767Y17877D01*
X-5657Y17832D01*
X-5540Y17816D01*
X-5040D01*
X-4923Y17832D01*
X-4813Y17877D01*
X-4719Y17949D01*
X-4647Y18043D01*
X-4602Y18153D01*
X-4586Y18270D01*
X-4602Y18387D01*
X-4647Y18497D01*
X-4719Y18591D01*
X-4813Y18663D01*
X-4923Y18708D01*
X-5040Y18724D01*
D02*
G37*
G36*
X13590Y17750D02*
X13131D01*
X13154Y17693D01*
X13210Y17620D01*
X13283Y17564D01*
X13369Y17529D01*
X13460Y17517D01*
X13590D01*
Y17750D01*
D02*
G37*
G36*
X14289D02*
X13830D01*
Y17517D01*
X13960D01*
X14051Y17529D01*
X14137Y17564D01*
X14210Y17620D01*
X14266Y17693D01*
X14289Y17750D01*
D02*
G37*
G36*
X-5040Y17724D02*
X-5540D01*
X-5657Y17708D01*
X-5767Y17663D01*
X-5861Y17591D01*
X-5933Y17497D01*
X-5978Y17387D01*
X-5994Y17270D01*
X-5978Y17153D01*
X-5933Y17043D01*
X-5861Y16949D01*
X-5767Y16877D01*
X-5657Y16832D01*
X-5540Y16816D01*
X-5040D01*
X-4923Y16832D01*
X-4813Y16877D01*
X-4719Y16949D01*
X-4647Y17043D01*
X-4602Y17153D01*
X-4586Y17270D01*
X-4602Y17387D01*
X-4647Y17497D01*
X-4719Y17591D01*
X-4813Y17663D01*
X-4923Y17708D01*
X-5040Y17724D01*
D02*
G37*
G36*
X1590Y14627D02*
Y14310D01*
X1907D01*
X1863Y14417D01*
X1791Y14511D01*
X1697Y14583D01*
X1590Y14627D01*
D02*
G37*
G36*
X7280Y14637D02*
X7173Y14593D01*
X7079Y14521D01*
X7007Y14427D01*
X6963Y14320D01*
X7280D01*
Y14637D01*
D02*
G37*
G36*
X1350Y14627D02*
X1243Y14583D01*
X1149Y14511D01*
X1077Y14417D01*
X1033Y14310D01*
X1350D01*
Y14627D01*
D02*
G37*
G36*
X350D02*
X243Y14583D01*
X149Y14511D01*
X77Y14417D01*
X33Y14310D01*
X350D01*
Y14627D01*
D02*
G37*
G36*
X590D02*
Y14310D01*
X907D01*
X863Y14417D01*
X791Y14511D01*
X697Y14583D01*
X590Y14627D01*
D02*
G37*
G36*
X13960Y15324D02*
X13460D01*
X13343Y15308D01*
X13233Y15263D01*
X13139Y15191D01*
X13067Y15097D01*
X13022Y14987D01*
X13006Y14870D01*
X13022Y14753D01*
X13067Y14643D01*
X13139Y14549D01*
X13233Y14477D01*
X13343Y14432D01*
X13460Y14416D01*
X13960D01*
X14077Y14432D01*
X14187Y14477D01*
X14281Y14549D01*
X14353Y14643D01*
X14398Y14753D01*
X14414Y14870D01*
X14398Y14987D01*
X14353Y15097D01*
X14281Y15191D01*
X14187Y15263D01*
X14077Y15308D01*
X13960Y15324D01*
D02*
G37*
G36*
X-5040Y15724D02*
X-5540D01*
X-5657Y15708D01*
X-5767Y15663D01*
X-5861Y15591D01*
X-5933Y15497D01*
X-5978Y15387D01*
X-5994Y15270D01*
X-5978Y15153D01*
X-5933Y15043D01*
X-5861Y14949D01*
X-5767Y14877D01*
X-5657Y14832D01*
X-5540Y14816D01*
X-5040D01*
X-4923Y14832D01*
X-4813Y14877D01*
X-4719Y14949D01*
X-4719Y14949D01*
X-4446D01*
X-4431Y14929D01*
X-4337Y14857D01*
X-4227Y14812D01*
X-4110Y14796D01*
X-3993Y14812D01*
X-3883Y14857D01*
X-3789Y14929D01*
X-3717Y15023D01*
X-3672Y15133D01*
X-3656Y15250D01*
X-3672Y15367D01*
X-3717Y15477D01*
X-3789Y15571D01*
X-3883Y15643D01*
X-3993Y15688D01*
X-4110Y15704D01*
X-4227Y15688D01*
X-4337Y15643D01*
X-4405Y15591D01*
X-4719D01*
X-4719Y15591D01*
X-4813Y15663D01*
X-4923Y15708D01*
X-5040Y15724D01*
D02*
G37*
G36*
X8520Y14637D02*
Y14320D01*
X8837D01*
X8793Y14427D01*
X8721Y14521D01*
X8627Y14593D01*
X8520Y14637D01*
D02*
G37*
G36*
X7520D02*
Y14320D01*
X7837D01*
X7793Y14427D01*
X7721Y14521D01*
X7627Y14593D01*
X7520Y14637D01*
D02*
G37*
G36*
X8280D02*
X8173Y14593D01*
X8079Y14521D01*
X8007Y14427D01*
X7963Y14320D01*
X8280D01*
Y14637D01*
D02*
G37*
G36*
X13590Y19223D02*
X13460D01*
X13369Y19211D01*
X13283Y19176D01*
X13210Y19120D01*
X13154Y19047D01*
X13131Y18990D01*
X13590D01*
Y19223D01*
D02*
G37*
G36*
X13960D02*
X13830D01*
Y18990D01*
X14289D01*
X14266Y19047D01*
X14210Y19120D01*
X14137Y19176D01*
X14051Y19211D01*
X13960Y19223D01*
D02*
G37*
G36*
X2640Y19420D02*
X2068D01*
X2070Y19403D01*
X2110Y19271D01*
X2175Y19149D01*
X2263Y19043D01*
X2369Y18955D01*
X2491Y18890D01*
X2623Y18850D01*
X2640Y18848D01*
Y19420D01*
D02*
G37*
G36*
X3452D02*
X2880D01*
Y18848D01*
X2897Y18850D01*
X3029Y18890D01*
X3151Y18955D01*
X3257Y19043D01*
X3345Y19149D01*
X3410Y19271D01*
X3450Y19403D01*
X3452Y19420D01*
D02*
G37*
G36*
X-5040Y20324D02*
X-5540D01*
X-5657Y20308D01*
X-5767Y20263D01*
X-5861Y20191D01*
X-5933Y20097D01*
X-5978Y19987D01*
X-5994Y19870D01*
X-5978Y19753D01*
X-5933Y19643D01*
X-5861Y19549D01*
X-5767Y19477D01*
X-5657Y19432D01*
X-5540Y19416D01*
X-5040D01*
X-4923Y19432D01*
X-4813Y19477D01*
X-4719Y19549D01*
X-4647Y19643D01*
X-4602Y19753D01*
X-4586Y19870D01*
X-4602Y19987D01*
X-4647Y20097D01*
X-4719Y20191D01*
X-4813Y20263D01*
X-4923Y20308D01*
X-5040Y20324D01*
D02*
G37*
G36*
X12780Y20600D02*
X12600D01*
Y20370D01*
X12780D01*
Y20600D01*
D02*
G37*
G36*
X13200D02*
X13020D01*
Y20370D01*
X13200D01*
Y20600D01*
D02*
G37*
G36*
X2640Y20232D02*
X2623Y20230D01*
X2491Y20190D01*
X2369Y20125D01*
X2263Y20037D01*
X2175Y19931D01*
X2110Y19809D01*
X2070Y19677D01*
X2068Y19660D01*
X2640D01*
Y20232D01*
D02*
G37*
G36*
X2880D02*
Y19660D01*
X3452D01*
X3450Y19677D01*
X3410Y19809D01*
X3345Y19931D01*
X3257Y20037D01*
X3151Y20125D01*
X3029Y20190D01*
X2897Y20230D01*
X2880Y20232D01*
D02*
G37*
G36*
X520Y20344D02*
X363Y20328D01*
X212Y20283D01*
X73Y20208D01*
X-48Y20108D01*
X-148Y19987D01*
X-223Y19848D01*
X-268Y19697D01*
X-284Y19540D01*
X-268Y19383D01*
X-223Y19232D01*
X-148Y19093D01*
X-48Y18972D01*
X73Y18872D01*
X212Y18797D01*
X363Y18752D01*
X520Y18736D01*
X677Y18752D01*
X828Y18797D01*
X967Y18872D01*
X1088Y18972D01*
X1188Y19093D01*
X1263Y19232D01*
X1308Y19383D01*
X1324Y19540D01*
X1308Y19697D01*
X1263Y19848D01*
X1188Y19987D01*
X1088Y20108D01*
X967Y20208D01*
X828Y20283D01*
X677Y20328D01*
X520Y20344D01*
D02*
G37*
G36*
X12560Y18330D02*
X12330D01*
Y18150D01*
X12560D01*
Y18330D01*
D02*
G37*
G36*
X-550Y23009D02*
X-1850D01*
Y18410D01*
X-550D01*
Y23009D01*
D02*
G37*
G36*
X13960Y18223D02*
X13830D01*
Y17990D01*
X14289D01*
X14266Y18047D01*
X14210Y18120D01*
X14137Y18176D01*
X14051Y18211D01*
X13960Y18223D01*
D02*
G37*
G36*
X12090Y18330D02*
X11860D01*
Y18150D01*
X12090D01*
Y18330D01*
D02*
G37*
G36*
X5000Y23009D02*
X3700D01*
Y18410D01*
X5000D01*
Y23009D01*
D02*
G37*
G36*
X12090Y18750D02*
X11860D01*
Y18570D01*
X12090D01*
Y18750D01*
D02*
G37*
G36*
X12560D02*
X12330D01*
Y18570D01*
X12560D01*
Y18750D01*
D02*
G37*
G36*
X13590D02*
X13131D01*
X13154Y18693D01*
X13210Y18620D01*
X13283Y18564D01*
X13369Y18529D01*
X13460Y18517D01*
X13590D01*
Y18750D01*
D02*
G37*
G36*
X14289D02*
X13830D01*
Y18517D01*
X13960D01*
X14051Y18529D01*
X14137Y18564D01*
X14210Y18620D01*
X14266Y18693D01*
X14289Y18750D01*
D02*
G37*
G36*
X-5040Y14724D02*
X-5540D01*
X-5657Y14708D01*
X-5767Y14663D01*
X-5861Y14591D01*
X-5933Y14497D01*
X-5978Y14387D01*
X-5994Y14270D01*
X-5978Y14153D01*
X-5933Y14043D01*
X-5861Y13949D01*
X-5767Y13877D01*
X-5657Y13832D01*
X-5540Y13816D01*
X-5040D01*
X-4923Y13832D01*
X-4813Y13877D01*
X-4719Y13949D01*
X-4719Y13949D01*
X-4446D01*
X-4431Y13929D01*
X-4337Y13857D01*
X-4227Y13812D01*
X-4110Y13796D01*
X-3993Y13812D01*
X-3883Y13857D01*
X-3789Y13929D01*
X-3717Y14023D01*
X-3672Y14133D01*
X-3656Y14250D01*
X-3672Y14367D01*
X-3717Y14477D01*
X-3789Y14571D01*
X-3883Y14643D01*
X-3993Y14688D01*
X-4110Y14704D01*
X-4227Y14688D01*
X-4337Y14643D01*
X-4405Y14591D01*
X-4719D01*
X-4719Y14591D01*
X-4813Y14663D01*
X-4923Y14708D01*
X-5040Y14724D01*
D02*
G37*
G36*
X13371Y3480D02*
X12900D01*
Y3009D01*
X13011Y3043D01*
X13115Y3099D01*
X13206Y3174D01*
X13281Y3265D01*
X13337Y3369D01*
X13371Y3480D01*
D02*
G37*
G36*
X7360Y3650D02*
X7130D01*
Y3470D01*
X7360D01*
Y3650D01*
D02*
G37*
G36*
X10371Y3480D02*
X9900D01*
Y3009D01*
X10011Y3043D01*
X10115Y3099D01*
X10206Y3174D01*
X10281Y3265D01*
X10337Y3369D01*
X10371Y3480D01*
D02*
G37*
G36*
X12660D02*
X12189D01*
X12223Y3369D01*
X12279Y3265D01*
X12354Y3174D01*
X12445Y3099D01*
X12549Y3043D01*
X12660Y3009D01*
Y3480D01*
D02*
G37*
G36*
X7830Y3650D02*
X7600D01*
Y3470D01*
X7830D01*
Y3650D01*
D02*
G37*
G36*
X12660Y4191D02*
X12549Y4157D01*
X12445Y4101D01*
X12354Y4026D01*
X12279Y3935D01*
X12223Y3831D01*
X12189Y3720D01*
X12660D01*
Y4191D01*
D02*
G37*
G36*
X12900D02*
Y3720D01*
X13371D01*
X13337Y3831D01*
X13281Y3935D01*
X13206Y4026D01*
X13115Y4101D01*
X13011Y4157D01*
X12900Y4191D01*
D02*
G37*
G36*
X9660D02*
X9549Y4157D01*
X9445Y4101D01*
X9354Y4026D01*
X9279Y3935D01*
X9223Y3831D01*
X9189Y3720D01*
X9660D01*
Y4191D01*
D02*
G37*
G36*
X9900D02*
Y3720D01*
X10371D01*
X10337Y3831D01*
X10281Y3935D01*
X10206Y4026D01*
X10115Y4101D01*
X10011Y4157D01*
X9900Y4191D01*
D02*
G37*
G36*
X1040Y2430D02*
X860D01*
Y2200D01*
X1040D01*
Y2430D01*
D02*
G37*
G36*
X1460D02*
X1280D01*
Y2200D01*
X1460D01*
Y2430D01*
D02*
G37*
G36*
X50D02*
X-130D01*
Y2200D01*
X50D01*
Y2430D01*
D02*
G37*
G36*
X470D02*
X290D01*
Y2200D01*
X470D01*
Y2430D01*
D02*
G37*
G36*
X50Y2900D02*
X-130D01*
Y2670D01*
X50D01*
Y2900D01*
D02*
G37*
G36*
X1460D02*
X1280D01*
Y2670D01*
X1460D01*
Y2900D01*
D02*
G37*
G36*
X9660Y3480D02*
X9189D01*
X9223Y3369D01*
X9279Y3265D01*
X9354Y3174D01*
X9445Y3099D01*
X9549Y3043D01*
X9660Y3009D01*
Y3480D01*
D02*
G37*
G36*
X470Y2900D02*
X290D01*
Y2670D01*
X470D01*
Y2900D01*
D02*
G37*
G36*
X1040D02*
X860D01*
Y2670D01*
X1040D01*
Y2900D01*
D02*
G37*
G36*
X-5410Y12150D02*
X-5869D01*
X-5846Y12093D01*
X-5790Y12020D01*
X-5717Y11964D01*
X-5631Y11929D01*
X-5540Y11917D01*
X-5410D01*
Y12150D01*
D02*
G37*
G36*
X-4711D02*
X-5170D01*
Y11917D01*
X-5040D01*
X-4949Y11929D01*
X-4863Y11964D01*
X-4790Y12020D01*
X-4734Y12093D01*
X-4711Y12150D01*
D02*
G37*
G36*
X-5040Y16724D02*
X-5540D01*
X-5657Y16708D01*
X-5767Y16663D01*
X-5861Y16591D01*
X-5933Y16497D01*
X-5978Y16387D01*
X-5994Y16270D01*
X-5978Y16153D01*
X-5933Y16043D01*
X-5861Y15949D01*
X-5767Y15877D01*
X-5657Y15832D01*
X-5540Y15816D01*
X-5040D01*
X-4923Y15832D01*
X-4813Y15877D01*
X-4719Y15949D01*
X-4719Y15949D01*
X-1673D01*
X-1391Y15667D01*
Y10721D01*
X-1391Y10721D01*
X-1463Y10627D01*
X-1508Y10517D01*
X-1524Y10400D01*
X-1508Y10283D01*
X-1463Y10173D01*
X-1391Y10079D01*
X-1297Y10007D01*
X-1187Y9962D01*
X-1070Y9946D01*
X-953Y9962D01*
X-843Y10007D01*
X-749Y10079D01*
X-677Y10173D01*
X-632Y10283D01*
X-616Y10400D01*
X-632Y10517D01*
X-677Y10627D01*
X-749Y10721D01*
X-749Y10721D01*
Y15800D01*
X-760Y15883D01*
X-792Y15960D01*
X-843Y16027D01*
X-843Y16027D01*
X-1313Y16497D01*
X-1380Y16548D01*
X-1457Y16580D01*
X-1540Y16591D01*
X-4719D01*
X-4719Y16591D01*
X-4813Y16663D01*
X-4923Y16708D01*
X-5040Y16724D01*
D02*
G37*
G36*
Y11724D02*
X-5540D01*
X-5657Y11708D01*
X-5767Y11663D01*
X-5861Y11591D01*
X-5933Y11497D01*
X-5978Y11387D01*
X-5994Y11270D01*
X-5978Y11153D01*
X-5933Y11043D01*
X-5861Y10949D01*
X-5767Y10877D01*
X-5657Y10832D01*
X-5540Y10816D01*
X-5040D01*
X-4923Y10832D01*
X-4813Y10877D01*
X-4719Y10949D01*
X-4647Y11043D01*
X-4602Y11153D01*
X-4586Y11270D01*
X-4602Y11387D01*
X-4647Y11497D01*
X-4719Y11591D01*
X-4813Y11663D01*
X-4923Y11708D01*
X-5040Y11724D01*
D02*
G37*
G36*
X-5410Y12623D02*
X-5540D01*
X-5631Y12611D01*
X-5717Y12576D01*
X-5790Y12520D01*
X-5846Y12447D01*
X-5869Y12390D01*
X-5410D01*
Y12623D01*
D02*
G37*
G36*
X1907Y14070D02*
X1033D01*
X1077Y13963D01*
X1149Y13869D01*
X1243Y13797D01*
X1305Y13771D01*
Y13717D01*
X1193Y13670D01*
X1078Y13582D01*
X999Y13480D01*
X983Y13476D01*
X957D01*
X941Y13480D01*
X862Y13582D01*
X747Y13670D01*
X635Y13717D01*
Y13771D01*
X697Y13797D01*
X791Y13869D01*
X863Y13963D01*
X907Y14070D01*
X33D01*
X77Y13963D01*
X149Y13869D01*
X243Y13797D01*
X305Y13771D01*
Y13717D01*
X193Y13670D01*
X78Y13582D01*
X-10Y13467D01*
X-66Y13334D01*
X-85Y13190D01*
X-66Y13046D01*
X-10Y12913D01*
X78Y12798D01*
X180Y12719D01*
X184Y12703D01*
Y12677D01*
X180Y12661D01*
X78Y12582D01*
X-10Y12467D01*
X-66Y12334D01*
X-85Y12190D01*
X-66Y12046D01*
X-10Y11913D01*
X78Y11798D01*
X180Y11719D01*
X184Y11703D01*
Y11677D01*
X180Y11661D01*
X78Y11582D01*
X-10Y11467D01*
X-66Y11334D01*
X-85Y11190D01*
X-66Y11046D01*
X-10Y10913D01*
X78Y10798D01*
X180Y10719D01*
X184Y10703D01*
Y10677D01*
X180Y10661D01*
X78Y10582D01*
X-10Y10467D01*
X-66Y10334D01*
X-85Y10190D01*
X-66Y10046D01*
X-10Y9913D01*
X78Y9798D01*
X193Y9710D01*
X326Y9654D01*
X470Y9635D01*
X614Y9654D01*
X747Y9710D01*
X862Y9798D01*
X941Y9900D01*
X957Y9904D01*
X983D01*
X999Y9900D01*
X1078Y9798D01*
X1193Y9710D01*
X1326Y9654D01*
X1470Y9635D01*
X1614Y9654D01*
X1747Y9710D01*
X1862Y9798D01*
X1950Y9913D01*
X2006Y10046D01*
X2025Y10190D01*
X2006Y10334D01*
X1950Y10467D01*
X1862Y10582D01*
X1760Y10661D01*
X1756Y10677D01*
Y10703D01*
X1760Y10719D01*
X1862Y10798D01*
X1950Y10913D01*
X2006Y11046D01*
X2025Y11190D01*
X2006Y11334D01*
X1950Y11467D01*
X1862Y11582D01*
X1760Y11661D01*
X1756Y11677D01*
Y11703D01*
X1760Y11719D01*
X1862Y11798D01*
X1950Y11913D01*
X2006Y12046D01*
X2025Y12190D01*
X2006Y12334D01*
X1950Y12467D01*
X1862Y12582D01*
X1760Y12661D01*
X1756Y12677D01*
Y12703D01*
X1760Y12719D01*
X1862Y12798D01*
X1950Y12913D01*
X2006Y13046D01*
X2025Y13190D01*
X2006Y13334D01*
X1950Y13467D01*
X1862Y13582D01*
X1747Y13670D01*
X1635Y13717D01*
Y13771D01*
X1697Y13797D01*
X1791Y13869D01*
X1863Y13963D01*
X1907Y14070D01*
D02*
G37*
G36*
X8837Y14080D02*
X7963D01*
X8007Y13973D01*
X8079Y13879D01*
X8173Y13807D01*
X8235Y13781D01*
Y13727D01*
X8123Y13680D01*
X8008Y13592D01*
X7929Y13490D01*
X7913Y13486D01*
X7887D01*
X7871Y13490D01*
X7792Y13592D01*
X7677Y13680D01*
X7565Y13727D01*
Y13781D01*
X7627Y13807D01*
X7721Y13879D01*
X7793Y13973D01*
X7837Y14080D01*
X6963D01*
X7007Y13973D01*
X7079Y13879D01*
X7173Y13807D01*
X7235Y13781D01*
Y13727D01*
X7123Y13680D01*
X7008Y13592D01*
X6920Y13477D01*
X6864Y13344D01*
X6845Y13200D01*
X6864Y13056D01*
X6920Y12923D01*
X7008Y12808D01*
X7110Y12729D01*
X7114Y12713D01*
Y12687D01*
X7110Y12671D01*
X7008Y12592D01*
X6920Y12477D01*
X6864Y12344D01*
X6845Y12200D01*
X6864Y12056D01*
X6920Y11923D01*
X7008Y11808D01*
X7110Y11729D01*
X7114Y11713D01*
Y11687D01*
X7110Y11671D01*
X7008Y11592D01*
X6920Y11477D01*
X6864Y11344D01*
X6845Y11200D01*
X6864Y11056D01*
X6920Y10923D01*
X7008Y10808D01*
X7110Y10729D01*
X7114Y10713D01*
Y10687D01*
X7110Y10671D01*
X7008Y10592D01*
X6920Y10477D01*
X6864Y10344D01*
X6845Y10200D01*
X6864Y10056D01*
X6920Y9923D01*
X7008Y9808D01*
X7123Y9720D01*
X7256Y9664D01*
X7400Y9645D01*
X7544Y9664D01*
X7677Y9720D01*
X7792Y9808D01*
X7871Y9910D01*
X7887Y9914D01*
X7913D01*
X7929Y9910D01*
X8008Y9808D01*
X8123Y9720D01*
X8256Y9664D01*
X8400Y9645D01*
X8544Y9664D01*
X8677Y9720D01*
X8792Y9808D01*
X8880Y9923D01*
X8936Y10056D01*
X8955Y10200D01*
X8936Y10344D01*
X8880Y10477D01*
X8792Y10592D01*
X8690Y10671D01*
X8686Y10687D01*
Y10713D01*
X8690Y10729D01*
X8792Y10808D01*
X8880Y10923D01*
X8936Y11056D01*
X8955Y11200D01*
X8936Y11344D01*
X8880Y11477D01*
X8792Y11592D01*
X8690Y11671D01*
X8686Y11687D01*
Y11713D01*
X8690Y11729D01*
X8792Y11808D01*
X8880Y11923D01*
X8936Y12056D01*
X8955Y12200D01*
X8936Y12344D01*
X8880Y12477D01*
X8792Y12592D01*
X8690Y12671D01*
X8686Y12687D01*
Y12713D01*
X8690Y12729D01*
X8792Y12808D01*
X8880Y12923D01*
X8936Y13056D01*
X8955Y13200D01*
X8936Y13344D01*
X8880Y13477D01*
X8792Y13592D01*
X8677Y13680D01*
X8565Y13727D01*
Y13781D01*
X8627Y13807D01*
X8721Y13879D01*
X8793Y13973D01*
X8837Y14080D01*
D02*
G37*
G36*
X-5040Y12623D02*
X-5170D01*
Y12390D01*
X-4711D01*
X-4734Y12447D01*
X-4790Y12520D01*
X-4863Y12576D01*
X-4949Y12611D01*
X-5040Y12623D01*
D02*
G37*
G36*
Y13724D02*
X-5540D01*
X-5657Y13708D01*
X-5767Y13663D01*
X-5861Y13591D01*
X-5933Y13497D01*
X-5978Y13387D01*
X-5994Y13270D01*
X-5978Y13153D01*
X-5933Y13043D01*
X-5861Y12949D01*
X-5767Y12877D01*
X-5657Y12832D01*
X-5540Y12816D01*
X-5040D01*
X-4923Y12832D01*
X-4813Y12877D01*
X-4719Y12949D01*
X-4719Y12949D01*
X-4546D01*
X-4531Y12929D01*
X-4437Y12857D01*
X-4327Y12812D01*
X-4210Y12796D01*
X-4093Y12812D01*
X-3983Y12857D01*
X-3889Y12929D01*
X-3817Y13023D01*
X-3772Y13133D01*
X-3756Y13250D01*
X-3772Y13367D01*
X-3817Y13477D01*
X-3889Y13571D01*
X-3983Y13643D01*
X-4093Y13688D01*
X-4210Y13704D01*
X-4327Y13688D01*
X-4437Y13643D01*
X-4505Y13591D01*
X-4719D01*
X-4719Y13591D01*
X-4813Y13663D01*
X-4923Y13708D01*
X-5040Y13724D01*
D02*
G37*
G36*
X9780Y6303D02*
X9643Y6290D01*
X9511Y6250D01*
X9389Y6185D01*
X9283Y6097D01*
X9195Y5991D01*
X9130Y5869D01*
X9090Y5737D01*
X9077Y5600D01*
X9090Y5463D01*
X9130Y5331D01*
X9195Y5209D01*
X9283Y5103D01*
X9389Y5015D01*
X9511Y4950D01*
X9643Y4910D01*
X9780Y4897D01*
X9917Y4910D01*
X10049Y4950D01*
X10171Y5015D01*
X10277Y5103D01*
X10365Y5209D01*
X10430Y5331D01*
X10470Y5463D01*
X10483Y5600D01*
X10470Y5737D01*
X10430Y5869D01*
X10365Y5991D01*
X10277Y6097D01*
X10171Y6185D01*
X10049Y6250D01*
X9917Y6290D01*
X9780Y6303D01*
D02*
G37*
G36*
X12780D02*
X12643Y6290D01*
X12511Y6250D01*
X12389Y6185D01*
X12283Y6097D01*
X12195Y5991D01*
X12130Y5869D01*
X12090Y5737D01*
X12077Y5600D01*
X12090Y5463D01*
X12130Y5331D01*
X12195Y5209D01*
X12283Y5103D01*
X12389Y5015D01*
X12511Y4950D01*
X12643Y4910D01*
X12780Y4897D01*
X12917Y4910D01*
X13049Y4950D01*
X13171Y5015D01*
X13277Y5103D01*
X13365Y5209D01*
X13430Y5331D01*
X13470Y5463D01*
X13483Y5600D01*
X13470Y5737D01*
X13430Y5869D01*
X13365Y5991D01*
X13277Y6097D01*
X13171Y6185D01*
X13049Y6250D01*
X12917Y6290D01*
X12780Y6303D01*
D02*
G37*
G36*
X7360Y4070D02*
X7130D01*
Y3890D01*
X7360D01*
Y4070D01*
D02*
G37*
G36*
X7830D02*
X7600D01*
Y3890D01*
X7830D01*
Y4070D01*
D02*
G37*
G36*
X-6401Y6230D02*
X-6610D01*
Y6021D01*
X-6553Y6044D01*
X-6480Y6100D01*
X-6424Y6173D01*
X-6401Y6230D01*
D02*
G37*
G36*
X6330Y16308D02*
X5130D01*
Y8244D01*
X5080Y8224D01*
X4891Y8413D01*
Y10869D01*
X4891Y10869D01*
X4963Y10963D01*
X5008Y11073D01*
X5024Y11190D01*
X5008Y11307D01*
X4963Y11417D01*
X4891Y11511D01*
X4797Y11583D01*
X4687Y11628D01*
X4570Y11644D01*
X4453Y11628D01*
X4343Y11583D01*
X4249Y11511D01*
X4177Y11417D01*
X4132Y11307D01*
X4116Y11190D01*
X4132Y11073D01*
X4177Y10963D01*
X4249Y10869D01*
X4249Y10869D01*
Y8280D01*
X4260Y8197D01*
X4292Y8120D01*
X4343Y8053D01*
X6028Y6369D01*
X6042Y6263D01*
X6087Y6153D01*
X6159Y6059D01*
X6253Y5987D01*
X6363Y5942D01*
X6480Y5926D01*
X6597Y5942D01*
X6707Y5987D01*
X6801Y6059D01*
X6816Y6079D01*
X7040D01*
Y6000D01*
Y5200D01*
X7169D01*
Y4970D01*
X7030D01*
Y4170D01*
X7930D01*
Y4970D01*
X7811D01*
Y5200D01*
X7940D01*
Y5279D01*
X8199D01*
X8199Y5279D01*
X8293Y5207D01*
X8403Y5162D01*
X8520Y5146D01*
X8637Y5162D01*
X8747Y5207D01*
X8841Y5279D01*
X8913Y5373D01*
X8958Y5483D01*
X8974Y5600D01*
X8958Y5717D01*
X8913Y5827D01*
X8841Y5921D01*
X8747Y5993D01*
X8637Y6038D01*
X8520Y6054D01*
X8403Y6038D01*
X8293Y5993D01*
X8199Y5921D01*
X8199Y5921D01*
X7940D01*
Y6000D01*
Y6800D01*
X7040D01*
Y6721D01*
X6775D01*
X6707Y6773D01*
X6597Y6818D01*
X6480Y6834D01*
X6471Y6833D01*
X5144Y8160D01*
X5164Y8210D01*
X6330D01*
Y16308D01*
D02*
G37*
G36*
X-5040Y10724D02*
X-5540D01*
X-5657Y10708D01*
X-5767Y10663D01*
X-5861Y10591D01*
X-5933Y10497D01*
X-5978Y10387D01*
X-5994Y10270D01*
X-5978Y10153D01*
X-5933Y10043D01*
X-5861Y9949D01*
X-5767Y9877D01*
X-5657Y9832D01*
X-5540Y9816D01*
X-5040D01*
X-4923Y9832D01*
X-4813Y9877D01*
X-4719Y9949D01*
X-4647Y10043D01*
X-4602Y10153D01*
X-4586Y10270D01*
X-4602Y10387D01*
X-4647Y10497D01*
X-4719Y10591D01*
X-4813Y10663D01*
X-4923Y10708D01*
X-5040Y10724D01*
D02*
G37*
G36*
X-6610Y6679D02*
Y6470D01*
X-6401D01*
X-6424Y6527D01*
X-6480Y6600D01*
X-6553Y6656D01*
X-6610Y6679D01*
D02*
G37*
G36*
X13710Y8224D02*
X13543Y8208D01*
X13383Y8159D01*
X13235Y8080D01*
X13106Y7974D01*
X13039Y7892D01*
X12989Y7910D01*
X12987Y8016D01*
X7989Y7956D01*
X8005Y6656D01*
X13003Y6717D01*
X13002Y6819D01*
X13049Y6836D01*
X13106Y6766D01*
X13235Y6660D01*
X13383Y6581D01*
X13543Y6532D01*
X13710Y6516D01*
X13877Y6532D01*
X14037Y6581D01*
X14185Y6660D01*
X14314Y6766D01*
X14420Y6895D01*
X14499Y7043D01*
X14548Y7203D01*
X14564Y7370D01*
X14548Y7537D01*
X14499Y7697D01*
X14420Y7845D01*
X14314Y7974D01*
X14185Y8080D01*
X14037Y8159D01*
X13877Y8208D01*
X13710Y8224D01*
D02*
G37*
G36*
X-3860Y33510D02*
X-4090D01*
Y33330D01*
X-3860D01*
Y33510D01*
D02*
G37*
G36*
X-3390D02*
X-3620D01*
Y33330D01*
X-3390D01*
Y33510D01*
D02*
G37*
G36*
X-2510Y33090D02*
X-2740D01*
Y32910D01*
X-2510D01*
Y33090D01*
D02*
G37*
G36*
X-2040D02*
X-2270D01*
Y32910D01*
X-2040D01*
Y33090D01*
D02*
G37*
G36*
X-2510Y33510D02*
X-2740D01*
Y33330D01*
X-2510D01*
Y33510D01*
D02*
G37*
G36*
X13960Y34324D02*
X13460D01*
X13343Y34308D01*
X13233Y34263D01*
X13139Y34191D01*
X13067Y34097D01*
X13022Y33987D01*
X13006Y33870D01*
X13022Y33753D01*
X13067Y33643D01*
X13139Y33549D01*
X13233Y33477D01*
X13343Y33432D01*
X13460Y33416D01*
X13960D01*
X14077Y33432D01*
X14187Y33477D01*
X14281Y33549D01*
X14353Y33643D01*
X14398Y33753D01*
X14414Y33870D01*
X14398Y33987D01*
X14353Y34097D01*
X14281Y34191D01*
X14187Y34263D01*
X14077Y34308D01*
X13960Y34324D01*
D02*
G37*
G36*
Y35324D02*
X13460D01*
X13343Y35308D01*
X13233Y35263D01*
X13139Y35191D01*
X13067Y35097D01*
X13022Y34987D01*
X13006Y34870D01*
X13022Y34753D01*
X13067Y34643D01*
X13139Y34549D01*
X13233Y34477D01*
X13343Y34432D01*
X13460Y34416D01*
X13960D01*
X14077Y34432D01*
X14187Y34477D01*
X14281Y34549D01*
X14353Y34643D01*
X14398Y34753D01*
X14414Y34870D01*
X14398Y34987D01*
X14353Y35097D01*
X14281Y35191D01*
X14187Y35263D01*
X14077Y35308D01*
X13960Y35324D01*
D02*
G37*
G36*
X-2040Y33510D02*
X-2270D01*
Y33330D01*
X-2040D01*
Y33510D01*
D02*
G37*
G36*
X-5040Y34324D02*
X-5540D01*
X-5657Y34308D01*
X-5767Y34263D01*
X-5861Y34191D01*
X-5933Y34097D01*
X-5978Y33987D01*
X-5994Y33870D01*
X-5978Y33753D01*
X-5933Y33643D01*
X-5861Y33549D01*
X-5767Y33477D01*
X-5657Y33432D01*
X-5540Y33416D01*
X-5040D01*
X-4923Y33432D01*
X-4813Y33477D01*
X-4719Y33549D01*
X-4647Y33643D01*
X-4602Y33753D01*
X-4586Y33870D01*
X-4602Y33987D01*
X-4647Y34097D01*
X-4719Y34191D01*
X-4813Y34263D01*
X-4923Y34308D01*
X-5040Y34324D01*
D02*
G37*
G36*
X1967Y31060D02*
X1650D01*
Y30743D01*
X1757Y30787D01*
X1851Y30859D01*
X1923Y30953D01*
X1967Y31060D01*
D02*
G37*
G36*
X-5040Y32324D02*
X-5540D01*
X-5657Y32308D01*
X-5767Y32263D01*
X-5861Y32191D01*
X-5933Y32097D01*
X-5978Y31987D01*
X-5994Y31870D01*
X-5978Y31753D01*
X-5933Y31643D01*
X-5861Y31549D01*
X-5767Y31477D01*
X-5657Y31432D01*
X-5540Y31416D01*
X-5040D01*
X-4923Y31432D01*
X-4813Y31477D01*
X-4719Y31549D01*
X-4647Y31643D01*
X-4602Y31753D01*
X-4586Y31870D01*
X-4602Y31987D01*
X-4647Y32097D01*
X-4719Y32191D01*
X-4813Y32263D01*
X-4923Y32308D01*
X-5040Y32324D01*
D02*
G37*
G36*
X967Y31060D02*
X650D01*
Y30743D01*
X757Y30787D01*
X851Y30859D01*
X923Y30953D01*
X967Y31060D01*
D02*
G37*
G36*
X1410D02*
X1093D01*
X1137Y30953D01*
X1209Y30859D01*
X1303Y30787D01*
X1410Y30743D01*
Y31060D01*
D02*
G37*
G36*
X13960Y32324D02*
X13460D01*
X13343Y32308D01*
X13233Y32263D01*
X13139Y32191D01*
X13067Y32097D01*
X13022Y31987D01*
X13006Y31870D01*
X13022Y31753D01*
X13067Y31643D01*
X13139Y31549D01*
X13233Y31477D01*
X13343Y31432D01*
X13460Y31416D01*
X13960D01*
X14077Y31432D01*
X14187Y31477D01*
X14281Y31549D01*
X14353Y31643D01*
X14398Y31753D01*
X14414Y31870D01*
X14398Y31987D01*
X14353Y32097D01*
X14281Y32191D01*
X14187Y32263D01*
X14077Y32308D01*
X13960Y32324D01*
D02*
G37*
G36*
X-3860Y33090D02*
X-4090D01*
Y32910D01*
X-3860D01*
Y33090D01*
D02*
G37*
G36*
X-3390D02*
X-3620D01*
Y32910D01*
X-3390D01*
Y33090D01*
D02*
G37*
G36*
X-5040Y33324D02*
X-5540D01*
X-5657Y33308D01*
X-5767Y33263D01*
X-5861Y33191D01*
X-5933Y33097D01*
X-5978Y32987D01*
X-5994Y32870D01*
X-5978Y32753D01*
X-5933Y32643D01*
X-5861Y32549D01*
X-5767Y32477D01*
X-5657Y32432D01*
X-5540Y32416D01*
X-5040D01*
X-4923Y32432D01*
X-4813Y32477D01*
X-4719Y32549D01*
X-4647Y32643D01*
X-4602Y32753D01*
X-4586Y32870D01*
X-4602Y32987D01*
X-4647Y33097D01*
X-4719Y33191D01*
X-4813Y33263D01*
X-4923Y33308D01*
X-5040Y33324D01*
D02*
G37*
G36*
X13960D02*
X13460D01*
X13343Y33308D01*
X13233Y33263D01*
X13139Y33191D01*
X13067Y33097D01*
X13022Y32987D01*
X13006Y32870D01*
X13022Y32753D01*
X13067Y32643D01*
X13139Y32549D01*
X13233Y32477D01*
X13343Y32432D01*
X13460Y32416D01*
X13960D01*
X14077Y32432D01*
X14187Y32477D01*
X14281Y32549D01*
X14353Y32643D01*
X14398Y32753D01*
X14414Y32870D01*
X14398Y32987D01*
X14353Y33097D01*
X14281Y33191D01*
X14187Y33263D01*
X14077Y33308D01*
X13960Y33324D01*
D02*
G37*
G36*
X8867Y35060D02*
X7993D01*
X8037Y34953D01*
X8109Y34859D01*
X8203Y34787D01*
X8265Y34761D01*
Y34707D01*
X8153Y34660D01*
X8038Y34572D01*
X7959Y34470D01*
X7943Y34466D01*
X7917D01*
X7901Y34470D01*
X7822Y34572D01*
X7707Y34660D01*
X7595Y34707D01*
Y34761D01*
X7657Y34787D01*
X7751Y34859D01*
X7823Y34953D01*
X7867Y35060D01*
X6993D01*
X7037Y34953D01*
X7109Y34859D01*
X7203Y34787D01*
X7265Y34761D01*
Y34707D01*
X7153Y34660D01*
X7038Y34572D01*
X6950Y34457D01*
X6894Y34324D01*
X6875Y34180D01*
X6894Y34036D01*
X6950Y33903D01*
X7038Y33788D01*
X7140Y33709D01*
X7144Y33693D01*
Y33667D01*
X7140Y33651D01*
X7038Y33572D01*
X6950Y33457D01*
X6894Y33324D01*
X6875Y33180D01*
X6894Y33036D01*
X6950Y32903D01*
X7038Y32788D01*
X7140Y32709D01*
X7144Y32693D01*
Y32667D01*
X7140Y32651D01*
X7038Y32572D01*
X6950Y32457D01*
X6894Y32324D01*
X6875Y32180D01*
X6894Y32036D01*
X6950Y31903D01*
X7038Y31788D01*
X7140Y31709D01*
X7144Y31693D01*
Y31667D01*
X7140Y31651D01*
X7038Y31572D01*
X6950Y31457D01*
X6894Y31324D01*
X6875Y31180D01*
X6894Y31036D01*
X6950Y30903D01*
X7038Y30788D01*
X7153Y30700D01*
X7286Y30644D01*
X7430Y30625D01*
X7574Y30644D01*
X7707Y30700D01*
X7822Y30788D01*
X7901Y30890D01*
X7917Y30894D01*
X7943D01*
X7959Y30890D01*
X8038Y30788D01*
X8153Y30700D01*
X8286Y30644D01*
X8430Y30625D01*
X8574Y30644D01*
X8707Y30700D01*
X8822Y30788D01*
X8910Y30903D01*
X8966Y31036D01*
X8985Y31180D01*
X8966Y31324D01*
X8910Y31457D01*
X8822Y31572D01*
X8720Y31651D01*
X8716Y31667D01*
Y31693D01*
X8720Y31709D01*
X8822Y31788D01*
X8910Y31903D01*
X8966Y32036D01*
X8985Y32180D01*
X8966Y32324D01*
X8910Y32457D01*
X8822Y32572D01*
X8720Y32651D01*
X8716Y32667D01*
Y32693D01*
X8720Y32709D01*
X8822Y32788D01*
X8910Y32903D01*
X8966Y33036D01*
X8985Y33180D01*
X8966Y33324D01*
X8910Y33457D01*
X8822Y33572D01*
X8720Y33651D01*
X8716Y33667D01*
Y33693D01*
X8720Y33709D01*
X8822Y33788D01*
X8910Y33903D01*
X8966Y34036D01*
X8985Y34180D01*
X8966Y34324D01*
X8910Y34457D01*
X8822Y34572D01*
X8707Y34660D01*
X8595Y34707D01*
Y34761D01*
X8657Y34787D01*
X8751Y34859D01*
X8823Y34953D01*
X8867Y35060D01*
D02*
G37*
G36*
X13960Y38324D02*
X13460D01*
X13343Y38308D01*
X13233Y38263D01*
X13139Y38191D01*
X13067Y38097D01*
X13022Y37987D01*
X13006Y37870D01*
X13022Y37753D01*
X13067Y37643D01*
X13139Y37549D01*
X13233Y37477D01*
X13343Y37432D01*
X13460Y37416D01*
X13960D01*
X14077Y37432D01*
X14187Y37477D01*
X14281Y37549D01*
X14353Y37643D01*
X14398Y37753D01*
X14414Y37870D01*
X14398Y37987D01*
X14353Y38097D01*
X14281Y38191D01*
X14187Y38263D01*
X14077Y38308D01*
X13960Y38324D01*
D02*
G37*
G36*
X12147Y38750D02*
X11830D01*
Y38433D01*
X11937Y38477D01*
X12031Y38549D01*
X12103Y38643D01*
X12147Y38750D01*
D02*
G37*
G36*
X4600Y36099D02*
Y35890D01*
X4809D01*
X4786Y35947D01*
X4730Y36020D01*
X4657Y36076D01*
X4600Y36099D01*
D02*
G37*
G36*
X13960Y37324D02*
X13460D01*
X13343Y37308D01*
X13233Y37263D01*
X13139Y37191D01*
X13067Y37097D01*
X13022Y36987D01*
X13006Y36870D01*
X13022Y36753D01*
X13067Y36643D01*
X13139Y36549D01*
X13233Y36477D01*
X13343Y36432D01*
X13460Y36416D01*
X13960D01*
X14077Y36432D01*
X14187Y36477D01*
X14281Y36549D01*
X14353Y36643D01*
X14398Y36753D01*
X14414Y36870D01*
X14398Y36987D01*
X14353Y37097D01*
X14281Y37191D01*
X14187Y37263D01*
X14077Y37308D01*
X13960Y37324D01*
D02*
G37*
G36*
X11830Y39307D02*
Y38990D01*
X12147D01*
X12103Y39097D01*
X12031Y39191D01*
X11937Y39263D01*
X11830Y39307D01*
D02*
G37*
G36*
Y40307D02*
Y39990D01*
X12147D01*
X12103Y40097D01*
X12031Y40191D01*
X11937Y40263D01*
X11830Y40307D01*
D02*
G37*
G36*
X10710Y40425D02*
X10566Y40406D01*
X10433Y40350D01*
X10318Y40262D01*
X10239Y40160D01*
X10223Y40156D01*
X10197D01*
X10181Y40160D01*
X10102Y40262D01*
X9987Y40350D01*
X9854Y40406D01*
X9710Y40425D01*
X9566Y40406D01*
X9433Y40350D01*
X9318Y40262D01*
X9239Y40160D01*
X9223Y40156D01*
X9197D01*
X9181Y40160D01*
X9102Y40262D01*
X8987Y40350D01*
X8854Y40406D01*
X8710Y40425D01*
X8566Y40406D01*
X8433Y40350D01*
X8318Y40262D01*
X8239Y40160D01*
X8223Y40156D01*
X8197D01*
X8181Y40160D01*
X8102Y40262D01*
X7987Y40350D01*
X7854Y40406D01*
X7710Y40425D01*
X7566Y40406D01*
X7433Y40350D01*
X7318Y40262D01*
X7239Y40160D01*
X7223Y40156D01*
X7197D01*
X7181Y40160D01*
X7102Y40262D01*
X6987Y40350D01*
X6854Y40406D01*
X6710Y40425D01*
X6566Y40406D01*
X6433Y40350D01*
X6318Y40262D01*
X6239Y40160D01*
X6223Y40156D01*
X6197D01*
X6181Y40160D01*
X6102Y40262D01*
X5987Y40350D01*
X5854Y40406D01*
X5710Y40425D01*
X5566Y40406D01*
X5433Y40350D01*
X5318Y40262D01*
X5239Y40160D01*
X5223Y40156D01*
X5197D01*
X5181Y40160D01*
X5102Y40262D01*
X4987Y40350D01*
X4854Y40406D01*
X4710Y40425D01*
X4566Y40406D01*
X4433Y40350D01*
X4318Y40262D01*
X4239Y40160D01*
X4223Y40156D01*
X4197D01*
X4181Y40160D01*
X4102Y40262D01*
X3987Y40350D01*
X3854Y40406D01*
X3710Y40425D01*
X3566Y40406D01*
X3433Y40350D01*
X3318Y40262D01*
X3239Y40160D01*
X3223Y40156D01*
X3197D01*
X3181Y40160D01*
X3102Y40262D01*
X2987Y40350D01*
X2854Y40406D01*
X2710Y40425D01*
X2566Y40406D01*
X2433Y40350D01*
X2318Y40262D01*
X2239Y40160D01*
X2223Y40156D01*
X2197D01*
X2181Y40160D01*
X2102Y40262D01*
X1987Y40350D01*
X1854Y40406D01*
X1710Y40425D01*
X1566Y40406D01*
X1433Y40350D01*
X1318Y40262D01*
X1239Y40160D01*
X1223Y40156D01*
X1197D01*
X1181Y40160D01*
X1102Y40262D01*
X987Y40350D01*
X854Y40406D01*
X710Y40425D01*
X566Y40406D01*
X433Y40350D01*
X318Y40262D01*
X239Y40160D01*
X223Y40156D01*
X197D01*
X181Y40160D01*
X102Y40262D01*
X-13Y40350D01*
X-146Y40406D01*
X-290Y40425D01*
X-434Y40406D01*
X-567Y40350D01*
X-682Y40262D01*
X-761Y40160D01*
X-777Y40156D01*
X-803D01*
X-819Y40160D01*
X-898Y40262D01*
X-1013Y40350D01*
X-1146Y40406D01*
X-1290Y40425D01*
X-1434Y40406D01*
X-1567Y40350D01*
X-1682Y40262D01*
X-1761Y40160D01*
X-1777Y40156D01*
X-1803D01*
X-1819Y40160D01*
X-1898Y40262D01*
X-2013Y40350D01*
X-2146Y40406D01*
X-2290Y40425D01*
X-2434Y40406D01*
X-2567Y40350D01*
X-2682Y40262D01*
X-2761Y40160D01*
X-2777Y40156D01*
X-2803D01*
X-2819Y40160D01*
X-2898Y40262D01*
X-3013Y40350D01*
X-3146Y40406D01*
X-3290Y40425D01*
X-3434Y40406D01*
X-3567Y40350D01*
X-3682Y40262D01*
X-3761Y40160D01*
X-3777Y40156D01*
X-3803D01*
X-3819Y40160D01*
X-3898Y40262D01*
X-4013Y40350D01*
X-4146Y40406D01*
X-4290Y40425D01*
X-4434Y40406D01*
X-4567Y40350D01*
X-4682Y40262D01*
X-4761Y40160D01*
X-4777Y40156D01*
X-4803D01*
X-4819Y40160D01*
X-4898Y40262D01*
X-5013Y40350D01*
X-5146Y40406D01*
X-5290Y40425D01*
X-5434Y40406D01*
X-5567Y40350D01*
X-5682Y40262D01*
X-5770Y40147D01*
X-5826Y40014D01*
X-5845Y39870D01*
X-5826Y39726D01*
X-5770Y39593D01*
X-5682Y39478D01*
X-5580Y39399D01*
X-5576Y39383D01*
Y39357D01*
X-5580Y39341D01*
X-5682Y39262D01*
X-5770Y39147D01*
X-5826Y39014D01*
X-5845Y38870D01*
X-5826Y38726D01*
X-5770Y38593D01*
X-5682Y38478D01*
X-5567Y38390D01*
X-5434Y38334D01*
X-5290Y38315D01*
X-5146Y38334D01*
X-5013Y38390D01*
X-4898Y38478D01*
X-4819Y38580D01*
X-4803Y38584D01*
X-4777D01*
X-4761Y38580D01*
X-4682Y38478D01*
X-4567Y38390D01*
X-4566Y38389D01*
X-4566Y38389D01*
Y37936D01*
X-4562Y37901D01*
X-4610Y37881D01*
X-4686Y37974D01*
X-4815Y38080D01*
X-4963Y38159D01*
X-5123Y38208D01*
X-5290Y38224D01*
X-5457Y38208D01*
X-5617Y38159D01*
X-5765Y38080D01*
X-5894Y37974D01*
X-6000Y37845D01*
X-6079Y37697D01*
X-6128Y37537D01*
X-6144Y37370D01*
X-6128Y37203D01*
X-6079Y37043D01*
X-6000Y36895D01*
X-5894Y36766D01*
X-5765Y36660D01*
X-5617Y36581D01*
X-5457Y36532D01*
X-5290Y36516D01*
X-5123Y36532D01*
X-4963Y36581D01*
X-4815Y36660D01*
X-4686Y36766D01*
X-4580Y36895D01*
X-4501Y37043D01*
X-4452Y37203D01*
X-4436Y37370D01*
X-4452Y37537D01*
X-4488Y37653D01*
X-4443Y37680D01*
X-4194Y37430D01*
X-4194Y37430D01*
X-4178Y37313D01*
X-4133Y37203D01*
X-4061Y37109D01*
X-3967Y37037D01*
X-3883Y37002D01*
X-3868Y36945D01*
X-3967Y36847D01*
X-4018Y36780D01*
X-4050Y36703D01*
X-4060Y36630D01*
X-4190D01*
Y35830D01*
Y35030D01*
X-4061D01*
Y34410D01*
X-4190D01*
Y33610D01*
X-3290D01*
Y34410D01*
X-3419D01*
Y35030D01*
X-3290D01*
Y35830D01*
Y36616D01*
X-2063Y37843D01*
X-2012Y37910D01*
X-1980Y37987D01*
X-1969Y38070D01*
X-1969Y38070D01*
Y38423D01*
X-1898Y38478D01*
X-1819Y38580D01*
X-1803Y38584D01*
X-1777D01*
X-1761Y38580D01*
X-1682Y38478D01*
X-1611Y38423D01*
Y38213D01*
X-2587Y37237D01*
X-2638Y37170D01*
X-2670Y37093D01*
X-2681Y37010D01*
Y36630D01*
X-2840D01*
Y35830D01*
Y35030D01*
X-2711D01*
Y34410D01*
X-2840D01*
Y33610D01*
X-1940D01*
Y34410D01*
X-2069D01*
Y35030D01*
X-1940D01*
Y35830D01*
Y36630D01*
X-2039D01*
Y36877D01*
X-1063Y37853D01*
X-1063Y37853D01*
X-1012Y37920D01*
X-980Y37997D01*
X-969Y38080D01*
X-969Y38080D01*
Y38423D01*
X-898Y38478D01*
X-819Y38580D01*
X-803Y38584D01*
X-777D01*
X-761Y38580D01*
X-682Y38478D01*
X-567Y38390D01*
X-434Y38334D01*
X-290Y38315D01*
X-146Y38334D01*
X-13Y38390D01*
X102Y38478D01*
X181Y38580D01*
X197Y38584D01*
X223D01*
X239Y38580D01*
X318Y38478D01*
X433Y38390D01*
X566Y38334D01*
X710Y38315D01*
X854Y38334D01*
X987Y38390D01*
X1102Y38478D01*
X1181Y38580D01*
X1197Y38584D01*
X1223D01*
X1239Y38580D01*
X1318Y38478D01*
X1433Y38390D01*
X1566Y38334D01*
X1710Y38315D01*
X1854Y38334D01*
X1987Y38390D01*
X2102Y38478D01*
X2181Y38580D01*
X2197Y38584D01*
X2223D01*
X2239Y38580D01*
X2318Y38478D01*
X2433Y38390D01*
X2566Y38334D01*
X2710Y38315D01*
X2854Y38334D01*
X2987Y38390D01*
X3102Y38478D01*
X3181Y38580D01*
X3197Y38584D01*
X3223D01*
X3239Y38580D01*
X3318Y38478D01*
X3433Y38390D01*
X3566Y38334D01*
X3710Y38315D01*
X3854Y38334D01*
X3987Y38390D01*
X4102Y38478D01*
X4181Y38580D01*
X4197Y38584D01*
X4223D01*
X4239Y38580D01*
X4318Y38478D01*
X4433Y38390D01*
X4566Y38334D01*
X4710Y38315D01*
X4854Y38334D01*
X4987Y38390D01*
X5102Y38478D01*
X5181Y38580D01*
X5197Y38584D01*
X5223D01*
X5239Y38580D01*
X5318Y38478D01*
X5433Y38390D01*
X5566Y38334D01*
X5710Y38315D01*
X5854Y38334D01*
X5987Y38390D01*
X6102Y38478D01*
X6181Y38580D01*
X6197Y38584D01*
X6223D01*
X6239Y38580D01*
X6318Y38478D01*
X6433Y38390D01*
X6566Y38334D01*
X6710Y38315D01*
X6854Y38334D01*
X6987Y38390D01*
X7102Y38478D01*
X7181Y38580D01*
X7197Y38584D01*
X7223D01*
X7239Y38580D01*
X7318Y38478D01*
X7433Y38390D01*
X7566Y38334D01*
X7710Y38315D01*
X7854Y38334D01*
X7987Y38390D01*
X8102Y38478D01*
X8181Y38580D01*
X8197Y38584D01*
X8223D01*
X8239Y38580D01*
X8318Y38478D01*
X8433Y38390D01*
X8566Y38334D01*
X8710Y38315D01*
X8854Y38334D01*
X8987Y38390D01*
X9102Y38478D01*
X9181Y38580D01*
X9197Y38584D01*
X9223D01*
X9239Y38580D01*
X9318Y38478D01*
X9433Y38390D01*
X9566Y38334D01*
X9710Y38315D01*
X9829Y38331D01*
X9879Y38296D01*
Y38181D01*
X9879Y38181D01*
X9807Y38087D01*
X9762Y37977D01*
X9746Y37860D01*
X9762Y37743D01*
X9807Y37633D01*
X9879Y37539D01*
X9973Y37467D01*
X10083Y37422D01*
X10200Y37406D01*
X10243Y37412D01*
X10272Y37375D01*
X10271Y37365D01*
X10256Y37250D01*
X10272Y37133D01*
X10317Y37023D01*
X10389Y36929D01*
X10483Y36857D01*
X10593Y36812D01*
X10710Y36796D01*
X10827Y36812D01*
X10937Y36857D01*
X11031Y36929D01*
X11103Y37023D01*
X11148Y37133D01*
X11164Y37250D01*
X11148Y37367D01*
X11103Y37477D01*
X11031Y37571D01*
X11031Y37571D01*
Y38423D01*
X11102Y38478D01*
X11190Y38593D01*
X11237Y38705D01*
X11291D01*
X11317Y38643D01*
X11389Y38549D01*
X11483Y38477D01*
X11590Y38433D01*
Y38870D01*
Y39307D01*
X11483Y39263D01*
X11389Y39191D01*
X11317Y39097D01*
X11291Y39035D01*
X11237D01*
X11190Y39147D01*
X11102Y39262D01*
X11000Y39341D01*
X10996Y39357D01*
Y39383D01*
X11000Y39399D01*
X11102Y39478D01*
X11190Y39593D01*
X11237Y39705D01*
X11291D01*
X11317Y39643D01*
X11389Y39549D01*
X11483Y39477D01*
X11590Y39433D01*
Y39870D01*
Y40307D01*
X11483Y40263D01*
X11389Y40191D01*
X11317Y40097D01*
X11291Y40035D01*
X11237D01*
X11190Y40147D01*
X11102Y40262D01*
X10987Y40350D01*
X10854Y40406D01*
X10710Y40425D01*
D02*
G37*
G36*
X13710Y40724D02*
X13543Y40708D01*
X13383Y40659D01*
X13235Y40580D01*
X13106Y40474D01*
X13000Y40345D01*
X12921Y40197D01*
X12872Y40037D01*
X12856Y39870D01*
X12872Y39703D01*
X12921Y39543D01*
X13000Y39395D01*
X13106Y39266D01*
X13235Y39160D01*
X13383Y39081D01*
X13543Y39032D01*
X13710Y39016D01*
X13877Y39032D01*
X14037Y39081D01*
X14185Y39160D01*
X14314Y39266D01*
X14420Y39395D01*
X14499Y39543D01*
X14548Y39703D01*
X14564Y39870D01*
X14548Y40037D01*
X14499Y40197D01*
X14420Y40345D01*
X14314Y40474D01*
X14185Y40580D01*
X14037Y40659D01*
X13877Y40708D01*
X13710Y40724D01*
D02*
G37*
G36*
X12147Y39750D02*
X11830D01*
Y39433D01*
X11937Y39477D01*
X12031Y39549D01*
X12103Y39643D01*
X12147Y39750D01*
D02*
G37*
G36*
X8310Y35617D02*
X8203Y35573D01*
X8109Y35501D01*
X8037Y35407D01*
X7993Y35300D01*
X8310D01*
Y35617D01*
D02*
G37*
G36*
X8550D02*
Y35300D01*
X8867D01*
X8823Y35407D01*
X8751Y35501D01*
X8657Y35573D01*
X8550Y35617D01*
D02*
G37*
G36*
X7310D02*
X7203Y35573D01*
X7109Y35501D01*
X7037Y35407D01*
X6993Y35300D01*
X7310D01*
Y35617D01*
D02*
G37*
G36*
X7550D02*
Y35300D01*
X7867D01*
X7823Y35407D01*
X7751Y35501D01*
X7657Y35573D01*
X7550Y35617D01*
D02*
G37*
G36*
X13960Y36324D02*
X13460D01*
X13343Y36308D01*
X13233Y36263D01*
X13139Y36191D01*
X13067Y36097D01*
X13022Y35987D01*
X13006Y35870D01*
X13022Y35753D01*
X13067Y35643D01*
X13139Y35549D01*
X13233Y35477D01*
X13343Y35432D01*
X13460Y35416D01*
X13960D01*
X14077Y35432D01*
X14187Y35477D01*
X14281Y35549D01*
X14353Y35643D01*
X14398Y35753D01*
X14414Y35870D01*
X14398Y35987D01*
X14353Y36097D01*
X14281Y36191D01*
X14187Y36263D01*
X14077Y36308D01*
X13960Y36324D01*
D02*
G37*
G36*
X1530Y35735D02*
X1386Y35716D01*
X1253Y35660D01*
X1138Y35572D01*
X1059Y35470D01*
X1043Y35466D01*
X1017D01*
X1001Y35470D01*
X922Y35572D01*
X807Y35660D01*
X674Y35716D01*
X530Y35735D01*
X386Y35716D01*
X253Y35660D01*
X138Y35572D01*
X50Y35457D01*
X-6Y35324D01*
X-25Y35180D01*
X-6Y35036D01*
X50Y34903D01*
X138Y34788D01*
X240Y34709D01*
X244Y34693D01*
Y34667D01*
X240Y34651D01*
X138Y34572D01*
X50Y34457D01*
X-6Y34324D01*
X-25Y34180D01*
X-6Y34036D01*
X50Y33903D01*
X138Y33788D01*
X240Y33709D01*
X244Y33693D01*
Y33667D01*
X240Y33651D01*
X138Y33572D01*
X50Y33457D01*
X-6Y33324D01*
X-25Y33180D01*
X-6Y33036D01*
X50Y32903D01*
X138Y32788D01*
X240Y32709D01*
X244Y32693D01*
Y32667D01*
X240Y32651D01*
X138Y32572D01*
X50Y32457D01*
X-6Y32324D01*
X-25Y32180D01*
X-6Y32036D01*
X50Y31903D01*
X138Y31788D01*
X253Y31700D01*
X365Y31653D01*
Y31599D01*
X303Y31573D01*
X209Y31501D01*
X137Y31407D01*
X93Y31300D01*
X967D01*
X923Y31407D01*
X851Y31501D01*
X757Y31573D01*
X695Y31599D01*
Y31653D01*
X807Y31700D01*
X922Y31788D01*
X1001Y31890D01*
X1017Y31894D01*
X1043D01*
X1059Y31890D01*
X1138Y31788D01*
X1253Y31700D01*
X1365Y31653D01*
Y31599D01*
X1303Y31573D01*
X1209Y31501D01*
X1137Y31407D01*
X1093Y31300D01*
X1967D01*
X1923Y31407D01*
X1851Y31501D01*
X1757Y31573D01*
X1695Y31599D01*
Y31653D01*
X1807Y31700D01*
X1922Y31788D01*
X2010Y31903D01*
X2066Y32036D01*
X2085Y32180D01*
X2066Y32324D01*
X2010Y32457D01*
X1922Y32572D01*
X1820Y32651D01*
X1816Y32667D01*
Y32693D01*
X1820Y32709D01*
X1922Y32788D01*
X2010Y32903D01*
X2066Y33036D01*
X2085Y33180D01*
X2066Y33324D01*
X2010Y33457D01*
X1922Y33572D01*
X1820Y33651D01*
X1816Y33667D01*
Y33693D01*
X1820Y33709D01*
X1922Y33788D01*
X2010Y33903D01*
X2066Y34036D01*
X2085Y34180D01*
X2066Y34324D01*
X2010Y34457D01*
X1922Y34572D01*
X1820Y34651D01*
X1816Y34667D01*
Y34693D01*
X1820Y34709D01*
X1922Y34788D01*
X2010Y34903D01*
X2066Y35036D01*
X2085Y35180D01*
X2066Y35324D01*
X2010Y35457D01*
X1922Y35572D01*
X1807Y35660D01*
X1674Y35716D01*
X1530Y35735D01*
D02*
G37*
G36*
X4360Y36099D02*
X4303Y36076D01*
X4230Y36020D01*
X4174Y35947D01*
X4151Y35890D01*
X4360D01*
Y36099D01*
D02*
G37*
G36*
Y35650D02*
X4151D01*
X4174Y35593D01*
X4230Y35520D01*
X4303Y35464D01*
X4360Y35441D01*
Y35650D01*
D02*
G37*
G36*
X4809D02*
X4600D01*
Y35441D01*
X4657Y35464D01*
X4730Y35520D01*
X4786Y35593D01*
X4809Y35650D01*
D02*
G37*
G36*
X410Y31060D02*
X93D01*
X137Y30953D01*
X209Y30859D01*
X303Y30787D01*
X410Y30743D01*
Y31060D01*
D02*
G37*
G36*
X8590Y25124D02*
X8433Y25108D01*
X8282Y25063D01*
X8143Y24988D01*
X8022Y24888D01*
X7922Y24767D01*
X7847Y24628D01*
X7802Y24477D01*
X7786Y24320D01*
X7802Y24163D01*
X7847Y24012D01*
X7922Y23873D01*
X8022Y23752D01*
X8143Y23652D01*
X8282Y23577D01*
X8433Y23532D01*
X8590Y23516D01*
X8747Y23532D01*
X8898Y23577D01*
X9037Y23652D01*
X9158Y23752D01*
X9258Y23873D01*
X9333Y24012D01*
X9378Y24163D01*
X9394Y24320D01*
X9378Y24477D01*
X9333Y24628D01*
X9258Y24767D01*
X9158Y24888D01*
X9037Y24988D01*
X8898Y25063D01*
X8747Y25108D01*
X8590Y25124D01*
D02*
G37*
G36*
X10630Y24200D02*
X10058D01*
X10060Y24183D01*
X10100Y24051D01*
X10165Y23929D01*
X10253Y23823D01*
X10359Y23735D01*
X10481Y23670D01*
X10613Y23630D01*
X10630Y23628D01*
Y24200D01*
D02*
G37*
G36*
X2880Y22232D02*
Y21660D01*
X3452D01*
X3450Y21677D01*
X3410Y21809D01*
X3345Y21931D01*
X3257Y22037D01*
X3151Y22125D01*
X3029Y22190D01*
X2897Y22230D01*
X2880Y22232D01*
D02*
G37*
G36*
X-5040Y23324D02*
X-5540D01*
X-5657Y23308D01*
X-5767Y23263D01*
X-5861Y23191D01*
X-5933Y23097D01*
X-5978Y22987D01*
X-5994Y22870D01*
X-5978Y22753D01*
X-5933Y22643D01*
X-5861Y22549D01*
X-5767Y22477D01*
X-5657Y22432D01*
X-5540Y22416D01*
X-5040D01*
X-4923Y22432D01*
X-4813Y22477D01*
X-4719Y22549D01*
X-4647Y22643D01*
X-4602Y22753D01*
X-4586Y22870D01*
X-4602Y22987D01*
X-4647Y23097D01*
X-4719Y23191D01*
X-4813Y23263D01*
X-4923Y23308D01*
X-5040Y23324D01*
D02*
G37*
G36*
X11442Y24200D02*
X10870D01*
Y23628D01*
X10887Y23630D01*
X11019Y23670D01*
X11141Y23735D01*
X11247Y23823D01*
X11335Y23929D01*
X11400Y24051D01*
X11440Y24183D01*
X11442Y24200D01*
D02*
G37*
G36*
X10630Y25012D02*
X10613Y25010D01*
X10481Y24970D01*
X10359Y24905D01*
X10253Y24817D01*
X10165Y24711D01*
X10100Y24589D01*
X10060Y24457D01*
X10058Y24440D01*
X10630D01*
Y25012D01*
D02*
G37*
G36*
X10870D02*
Y24440D01*
X11442D01*
X11440Y24457D01*
X11400Y24589D01*
X11335Y24711D01*
X11247Y24817D01*
X11141Y24905D01*
X11019Y24970D01*
X10887Y25010D01*
X10870Y25012D01*
D02*
G37*
G36*
X-4220Y24324D02*
X-4337Y24308D01*
X-4447Y24263D01*
X-4541Y24191D01*
X-4541Y24191D01*
X-4719D01*
X-4719Y24191D01*
X-4813Y24263D01*
X-4923Y24308D01*
X-5040Y24324D01*
X-5540D01*
X-5657Y24308D01*
X-5767Y24263D01*
X-5861Y24191D01*
X-5933Y24097D01*
X-5978Y23987D01*
X-5994Y23870D01*
X-5978Y23753D01*
X-5933Y23643D01*
X-5861Y23549D01*
X-5767Y23477D01*
X-5657Y23432D01*
X-5540Y23416D01*
X-5040D01*
X-4923Y23432D01*
X-4813Y23477D01*
X-4719Y23549D01*
X-4719Y23549D01*
X-4541D01*
X-4541Y23549D01*
X-4447Y23477D01*
X-4337Y23432D01*
X-4220Y23416D01*
X-4103Y23432D01*
X-3993Y23477D01*
X-3899Y23549D01*
X-3827Y23643D01*
X-3782Y23753D01*
X-3766Y23870D01*
X-3782Y23987D01*
X-3827Y24097D01*
X-3899Y24191D01*
X-3993Y24263D01*
X-4103Y24308D01*
X-4220Y24324D01*
D02*
G37*
G36*
X-5040Y25324D02*
X-5540D01*
X-5657Y25308D01*
X-5767Y25263D01*
X-5861Y25191D01*
X-5933Y25097D01*
X-5978Y24987D01*
X-5994Y24870D01*
X-5978Y24753D01*
X-5933Y24643D01*
X-5861Y24549D01*
X-5767Y24477D01*
X-5657Y24432D01*
X-5540Y24416D01*
X-5040D01*
X-4923Y24432D01*
X-4813Y24477D01*
X-4719Y24549D01*
X-4647Y24643D01*
X-4602Y24753D01*
X-4586Y24870D01*
X-4602Y24987D01*
X-4647Y25097D01*
X-4719Y25191D01*
X-4813Y25263D01*
X-4923Y25308D01*
X-5040Y25324D01*
D02*
G37*
G36*
X13200Y21070D02*
X13020D01*
Y20840D01*
X13200D01*
Y21070D01*
D02*
G37*
G36*
X2640Y21420D02*
X2068D01*
X2070Y21403D01*
X2110Y21271D01*
X2175Y21149D01*
X2263Y21043D01*
X2369Y20955D01*
X2491Y20890D01*
X2623Y20850D01*
X2640Y20848D01*
Y21420D01*
D02*
G37*
G36*
X520Y22344D02*
X363Y22328D01*
X212Y22283D01*
X73Y22208D01*
X-48Y22108D01*
X-148Y21987D01*
X-223Y21848D01*
X-268Y21697D01*
X-284Y21540D01*
X-268Y21383D01*
X-223Y21232D01*
X-148Y21093D01*
X-48Y20972D01*
X73Y20872D01*
X212Y20797D01*
X363Y20752D01*
X520Y20736D01*
X677Y20752D01*
X828Y20797D01*
X967Y20872D01*
X1088Y20972D01*
X1188Y21093D01*
X1263Y21232D01*
X1308Y21383D01*
X1324Y21540D01*
X1308Y21697D01*
X1263Y21848D01*
X1188Y21987D01*
X1088Y22108D01*
X967Y22208D01*
X828Y22283D01*
X677Y22328D01*
X520Y22344D01*
D02*
G37*
G36*
X12780Y21070D02*
X12600D01*
Y20840D01*
X12780D01*
Y21070D01*
D02*
G37*
G36*
X3452Y21420D02*
X2880D01*
Y20848D01*
X2897Y20850D01*
X3029Y20890D01*
X3151Y20955D01*
X3257Y21043D01*
X3345Y21149D01*
X3410Y21271D01*
X3450Y21403D01*
X3452Y21420D01*
D02*
G37*
G36*
X13960Y22324D02*
X13460D01*
X13343Y22308D01*
X13233Y22263D01*
X13139Y22191D01*
X13067Y22097D01*
X13022Y21987D01*
X13006Y21870D01*
X13022Y21753D01*
X13067Y21643D01*
X13139Y21549D01*
X13233Y21477D01*
X13343Y21432D01*
X13460Y21416D01*
X13960D01*
X14077Y21432D01*
X14187Y21477D01*
X14281Y21549D01*
X14353Y21643D01*
X14398Y21753D01*
X14414Y21870D01*
X14398Y21987D01*
X14353Y22097D01*
X14281Y22191D01*
X14187Y22263D01*
X14077Y22308D01*
X13960Y22324D01*
D02*
G37*
G36*
X2640Y22232D02*
X2623Y22230D01*
X2491Y22190D01*
X2369Y22125D01*
X2263Y22037D01*
X2175Y21931D01*
X2110Y21809D01*
X2070Y21677D01*
X2068Y21660D01*
X2640D01*
Y22232D01*
D02*
G37*
G36*
X-3700Y21354D02*
X-3817Y21338D01*
X-3927Y21293D01*
X-4021Y21221D01*
X-4021Y21221D01*
X-4758D01*
X-4813Y21263D01*
X-4923Y21308D01*
X-5040Y21324D01*
X-5540D01*
X-5657Y21308D01*
X-5767Y21263D01*
X-5861Y21191D01*
X-5933Y21097D01*
X-5978Y20987D01*
X-5994Y20870D01*
X-5978Y20753D01*
X-5933Y20643D01*
X-5861Y20549D01*
X-5767Y20477D01*
X-5657Y20432D01*
X-5540Y20416D01*
X-5040D01*
X-4923Y20432D01*
X-4813Y20477D01*
X-4719Y20549D01*
X-4696Y20579D01*
X-4021D01*
X-4021Y20579D01*
X-3927Y20507D01*
X-3817Y20462D01*
X-3700Y20446D01*
X-3583Y20462D01*
X-3473Y20507D01*
X-3379Y20579D01*
X-3307Y20673D01*
X-3262Y20783D01*
X-3246Y20900D01*
X-3262Y21017D01*
X-3307Y21127D01*
X-3379Y21221D01*
X-3473Y21293D01*
X-3583Y21338D01*
X-3700Y21354D01*
D02*
G37*
G36*
X-5040Y22324D02*
X-5540D01*
X-5657Y22308D01*
X-5767Y22263D01*
X-5861Y22191D01*
X-5933Y22097D01*
X-5978Y21987D01*
X-5994Y21870D01*
X-5978Y21753D01*
X-5933Y21643D01*
X-5861Y21549D01*
X-5767Y21477D01*
X-5657Y21432D01*
X-5540Y21416D01*
X-5040D01*
X-4923Y21432D01*
X-4813Y21477D01*
X-4719Y21549D01*
X-4647Y21643D01*
X-4602Y21753D01*
X-4586Y21870D01*
X-4602Y21987D01*
X-4647Y22097D01*
X-4719Y22191D01*
X-4813Y22263D01*
X-4923Y22308D01*
X-5040Y22324D01*
D02*
G37*
G36*
Y26324D02*
X-5540D01*
X-5657Y26308D01*
X-5767Y26263D01*
X-5861Y26191D01*
X-5933Y26097D01*
X-5978Y25987D01*
X-5994Y25870D01*
X-5978Y25753D01*
X-5933Y25643D01*
X-5861Y25549D01*
X-5767Y25477D01*
X-5657Y25432D01*
X-5540Y25416D01*
X-5040D01*
X-4923Y25432D01*
X-4813Y25477D01*
X-4719Y25549D01*
X-4647Y25643D01*
X-4602Y25753D01*
X-4586Y25870D01*
X-4602Y25987D01*
X-4647Y26097D01*
X-4719Y26191D01*
X-4813Y26263D01*
X-4923Y26308D01*
X-5040Y26324D01*
D02*
G37*
G36*
X-1780Y29790D02*
X-2010D01*
Y29610D01*
X-1780D01*
Y29790D01*
D02*
G37*
G36*
X-2250Y30210D02*
X-2480D01*
Y30030D01*
X-2250D01*
Y30210D01*
D02*
G37*
G36*
X13960Y29324D02*
X13460D01*
X13343Y29308D01*
X13233Y29263D01*
X13139Y29191D01*
X13067Y29097D01*
X13022Y28987D01*
X13006Y28870D01*
X13022Y28753D01*
X13067Y28643D01*
X13139Y28549D01*
X13233Y28477D01*
X13343Y28432D01*
X13460Y28416D01*
X13960D01*
X14077Y28432D01*
X14187Y28477D01*
X14281Y28549D01*
X14353Y28643D01*
X14398Y28753D01*
X14414Y28870D01*
X14398Y28987D01*
X14353Y29097D01*
X14281Y29191D01*
X14187Y29263D01*
X14077Y29308D01*
X13960Y29324D01*
D02*
G37*
G36*
X-2250Y29790D02*
X-2480D01*
Y29610D01*
X-2250D01*
Y29790D01*
D02*
G37*
G36*
X-1780Y30210D02*
X-2010D01*
Y30030D01*
X-1780D01*
Y30210D01*
D02*
G37*
G36*
X3760Y36582D02*
X2460D01*
Y30284D01*
X3760D01*
Y36582D01*
D02*
G37*
G36*
X13960Y31324D02*
X13460D01*
X13343Y31308D01*
X13233Y31263D01*
X13139Y31191D01*
X13067Y31097D01*
X13022Y30987D01*
X13006Y30870D01*
X13022Y30753D01*
X13067Y30643D01*
X13139Y30549D01*
X13233Y30477D01*
X13343Y30432D01*
X13460Y30416D01*
X13960D01*
X14077Y30432D01*
X14187Y30477D01*
X14281Y30549D01*
X14353Y30643D01*
X14398Y30753D01*
X14414Y30870D01*
X14398Y30987D01*
X14353Y31097D01*
X14281Y31191D01*
X14187Y31263D01*
X14077Y31308D01*
X13960Y31324D01*
D02*
G37*
G36*
X-5040D02*
X-5540D01*
X-5657Y31308D01*
X-5767Y31263D01*
X-5861Y31191D01*
X-5933Y31097D01*
X-5978Y30987D01*
X-5994Y30870D01*
X-5978Y30753D01*
X-5933Y30643D01*
X-5861Y30549D01*
X-5767Y30477D01*
X-5657Y30432D01*
X-5540Y30416D01*
X-5040D01*
X-4923Y30432D01*
X-4813Y30477D01*
X-4740Y30533D01*
X-4690Y30508D01*
Y30232D01*
X-4740Y30207D01*
X-4813Y30263D01*
X-4923Y30308D01*
X-5040Y30324D01*
X-5540D01*
X-5657Y30308D01*
X-5767Y30263D01*
X-5861Y30191D01*
X-5933Y30097D01*
X-5978Y29987D01*
X-5994Y29870D01*
X-5978Y29753D01*
X-5933Y29643D01*
X-5861Y29549D01*
X-5767Y29477D01*
X-5657Y29432D01*
X-5540Y29416D01*
X-5040D01*
X-4923Y29432D01*
X-4813Y29477D01*
X-4740Y29533D01*
X-4690Y29508D01*
Y29232D01*
X-4740Y29207D01*
X-4813Y29263D01*
X-4923Y29308D01*
X-5040Y29324D01*
X-5540D01*
X-5657Y29308D01*
X-5767Y29263D01*
X-5861Y29191D01*
X-5933Y29097D01*
X-5978Y28987D01*
X-5994Y28870D01*
X-5978Y28753D01*
X-5933Y28643D01*
X-5861Y28549D01*
X-5767Y28477D01*
X-5657Y28432D01*
X-5540Y28416D01*
X-5040D01*
X-4923Y28432D01*
X-4813Y28477D01*
X-4740Y28533D01*
X-4690Y28508D01*
Y27232D01*
X-4740Y27207D01*
X-4813Y27263D01*
X-4923Y27308D01*
X-5040Y27324D01*
X-5540D01*
X-5657Y27308D01*
X-5767Y27263D01*
X-5861Y27191D01*
X-5933Y27097D01*
X-5978Y26987D01*
X-5994Y26870D01*
X-5978Y26753D01*
X-5933Y26643D01*
X-5861Y26549D01*
X-5767Y26477D01*
X-5657Y26432D01*
X-5540Y26416D01*
X-5040D01*
X-4923Y26432D01*
X-4813Y26477D01*
X-4719Y26549D01*
X-4647Y26643D01*
X-4602Y26753D01*
X-4586Y26870D01*
X-4592Y26912D01*
X-4559Y26950D01*
X-3490D01*
Y27910D01*
X-3314D01*
X-3247Y27843D01*
X-3180Y27792D01*
X-3103Y27760D01*
X-3020Y27749D01*
X-1541D01*
X-1541Y27749D01*
X-1447Y27677D01*
X-1337Y27632D01*
X-1220Y27616D01*
X-1220Y27616D01*
X-975Y27371D01*
X-995Y27321D01*
X-1839D01*
X-1839Y27321D01*
X-1933Y27393D01*
X-2043Y27438D01*
X-2160Y27454D01*
X-2277Y27438D01*
X-2387Y27393D01*
X-2481Y27321D01*
X-2553Y27227D01*
X-2598Y27117D01*
X-2614Y27000D01*
X-2598Y26883D01*
X-2553Y26773D01*
X-2481Y26679D01*
X-2387Y26607D01*
X-2277Y26562D01*
X-2160Y26546D01*
X-2043Y26562D01*
X-1933Y26607D01*
X-1839Y26679D01*
X-1839Y26679D01*
X-1063D01*
X1933Y23683D01*
X2000Y23632D01*
X2077Y23600D01*
X2160Y23589D01*
X6747D01*
X7669Y22667D01*
Y17390D01*
X7680Y17307D01*
X7712Y17230D01*
X7763Y17163D01*
X9283Y15643D01*
X9283Y15643D01*
X9350Y15592D01*
X9427Y15560D01*
X9510Y15549D01*
X9510Y15549D01*
X10880D01*
Y14710D01*
X10959D01*
Y14520D01*
X10870D01*
Y13620D01*
X11966D01*
X12103Y13483D01*
X12085Y13437D01*
X9509Y13406D01*
X9524Y12206D01*
X12722Y12244D01*
X12716Y12768D01*
X12754Y12801D01*
X12790Y12796D01*
X12907Y12812D01*
X12970Y12838D01*
X13014Y12813D01*
X13022Y12753D01*
X13067Y12643D01*
X13139Y12549D01*
X13233Y12477D01*
X13343Y12432D01*
X13460Y12416D01*
X13960D01*
X14077Y12432D01*
X14187Y12477D01*
X14281Y12549D01*
X14353Y12643D01*
X14398Y12753D01*
X14414Y12870D01*
X14398Y12987D01*
X14353Y13097D01*
X14281Y13191D01*
X14187Y13263D01*
X14077Y13308D01*
X13960Y13324D01*
X13460D01*
X13343Y13308D01*
X13280Y13282D01*
X13236Y13307D01*
X13228Y13367D01*
X13198Y13441D01*
X13223Y13467D01*
X13238Y13475D01*
X13343Y13432D01*
X13460Y13416D01*
X13960D01*
X14077Y13432D01*
X14187Y13477D01*
X14281Y13549D01*
X14353Y13643D01*
X14398Y13753D01*
X14414Y13870D01*
X14398Y13987D01*
X14353Y14097D01*
X14281Y14191D01*
X14187Y14263D01*
X14077Y14308D01*
X13960Y14324D01*
X13460D01*
X13343Y14308D01*
X13233Y14263D01*
X13139Y14191D01*
X13067Y14097D01*
X13022Y13987D01*
X13006Y13870D01*
X13022Y13753D01*
X13052Y13679D01*
X13027Y13653D01*
X13012Y13645D01*
X12907Y13688D01*
X12790Y13704D01*
X12790Y13704D01*
X12470Y14024D01*
Y14520D01*
X11601D01*
Y14710D01*
X11680D01*
Y15549D01*
X11754D01*
X11780Y15510D01*
Y15280D01*
X12380D01*
Y15385D01*
X12430Y15427D01*
X12510Y15416D01*
X12627Y15432D01*
X12737Y15477D01*
X12831Y15549D01*
X12903Y15643D01*
X12948Y15753D01*
X12960Y15839D01*
X13010D01*
X13022Y15753D01*
X13067Y15643D01*
X13139Y15549D01*
X13233Y15477D01*
X13343Y15432D01*
X13460Y15416D01*
X13960D01*
X14077Y15432D01*
X14187Y15477D01*
X14281Y15549D01*
X14353Y15643D01*
X14398Y15753D01*
X14414Y15870D01*
X14398Y15987D01*
X14353Y16097D01*
X14281Y16191D01*
X14187Y16263D01*
X14077Y16308D01*
X13960Y16324D01*
X13460D01*
X13343Y16308D01*
X13233Y16263D01*
X13139Y16191D01*
X13067Y16097D01*
X13022Y15987D01*
X13010Y15901D01*
X12960D01*
X12948Y15987D01*
X12903Y16097D01*
X12831Y16191D01*
X12737Y16263D01*
X12696Y16280D01*
X12706Y16330D01*
X13099D01*
Y16526D01*
X13149Y16541D01*
X13233Y16477D01*
X13343Y16432D01*
X13460Y16416D01*
X13960D01*
X14077Y16432D01*
X14187Y16477D01*
X14281Y16549D01*
X14353Y16643D01*
X14398Y16753D01*
X14414Y16870D01*
X14398Y16987D01*
X14353Y17097D01*
X14281Y17191D01*
X14187Y17263D01*
X14077Y17308D01*
X13960Y17324D01*
X13460D01*
X13343Y17308D01*
X13233Y17263D01*
X13149Y17199D01*
X13099Y17214D01*
Y17530D01*
X12660D01*
Y18050D01*
X11760D01*
Y17991D01*
X11500D01*
Y18070D01*
Y18870D01*
X11500Y18870D01*
X11500D01*
X11502Y18918D01*
X12083Y19499D01*
X12189D01*
X12189Y19499D01*
X12283Y19427D01*
X12393Y19382D01*
X12510Y19366D01*
X12627Y19382D01*
X12737Y19427D01*
X12831Y19499D01*
X12831Y19499D01*
X13204D01*
X13233Y19477D01*
X13343Y19432D01*
X13460Y19416D01*
X13960D01*
X14077Y19432D01*
X14187Y19477D01*
X14281Y19549D01*
X14353Y19643D01*
X14398Y19753D01*
X14414Y19870D01*
X14398Y19987D01*
X14353Y20097D01*
X14281Y20191D01*
X14187Y20263D01*
X14100Y20299D01*
Y21170D01*
X13300D01*
Y20291D01*
X13233Y20263D01*
X13139Y20191D01*
X13101Y20141D01*
X12831D01*
X12831Y20141D01*
X12737Y20213D01*
X12627Y20258D01*
X12510Y20274D01*
X12393Y20258D01*
X12283Y20213D01*
X12189Y20141D01*
X12189Y20141D01*
X11950D01*
X11867Y20130D01*
X11790Y20098D01*
X11723Y20047D01*
X10823Y19147D01*
X10772Y19080D01*
X10740Y19003D01*
X10729Y18920D01*
Y18870D01*
X10600D01*
Y18070D01*
Y17530D01*
X9300D01*
Y16599D01*
X9254Y16580D01*
X8311Y17523D01*
Y22800D01*
X8300Y22883D01*
X8268Y22960D01*
X8217Y23027D01*
X7170Y24074D01*
X7189Y24120D01*
X7690D01*
Y28719D01*
X6390D01*
Y24231D01*
X2293D01*
X1995Y24529D01*
X2015Y24579D01*
X3101D01*
X3143Y24547D01*
X3253Y24502D01*
X3370Y24486D01*
X3487Y24502D01*
X3597Y24547D01*
X3691Y24619D01*
X3763Y24713D01*
X3808Y24823D01*
X3824Y24940D01*
X3808Y25057D01*
X3763Y25167D01*
X3691Y25261D01*
X3597Y25333D01*
X3487Y25378D01*
X3370Y25394D01*
X3253Y25378D01*
X3143Y25333D01*
X3049Y25261D01*
X3018Y25221D01*
X2083D01*
X86Y27218D01*
X119Y27255D01*
X131Y27246D01*
X235Y27160D01*
X383Y27081D01*
X543Y27032D01*
X710Y27016D01*
X877Y27032D01*
X1037Y27081D01*
X1185Y27160D01*
X1314Y27266D01*
X1420Y27395D01*
X1499Y27543D01*
X1548Y27703D01*
X1564Y27870D01*
X1548Y28037D01*
X1499Y28197D01*
X1420Y28345D01*
X1314Y28474D01*
X1185Y28580D01*
X1037Y28659D01*
X877Y28708D01*
X710Y28724D01*
X543Y28708D01*
X383Y28659D01*
X235Y28580D01*
X106Y28474D01*
X-0Y28345D01*
X-79Y28197D01*
X-128Y28037D01*
X-144Y27870D01*
X-128Y27703D01*
X-79Y27543D01*
X-0Y27395D01*
X86Y27291D01*
X95Y27279D01*
X58Y27246D01*
X-766Y28070D01*
X-766Y28070D01*
X-782Y28187D01*
X-827Y28297D01*
X-899Y28391D01*
X-993Y28463D01*
X-1103Y28508D01*
X-1220Y28524D01*
X-1337Y28508D01*
X-1447Y28463D01*
X-1541Y28391D01*
X-1541Y28391D01*
X-2810D01*
Y28789D01*
X-2580D01*
Y28710D01*
X-1680D01*
Y29510D01*
X-2580D01*
Y29431D01*
X-2810D01*
Y29510D01*
X-3490D01*
Y30749D01*
X-4552D01*
X-4595Y30799D01*
X-4586Y30870D01*
X-4602Y30987D01*
X-4647Y31097D01*
X-4719Y31191D01*
X-4813Y31263D01*
X-4923Y31308D01*
X-5040Y31324D01*
D02*
G37*
G36*
X5234Y36583D02*
X5199Y30285D01*
X6498Y30278D01*
X6534Y36576D01*
X5234Y36583D01*
D02*
G37*
G36*
X10870Y27012D02*
Y26440D01*
X11442D01*
X11440Y26457D01*
X11400Y26589D01*
X11335Y26711D01*
X11247Y26817D01*
X11141Y26905D01*
X11019Y26970D01*
X10887Y27010D01*
X10870Y27012D01*
D02*
G37*
G36*
X10630Y26200D02*
X10058D01*
X10060Y26183D01*
X10100Y26051D01*
X10165Y25929D01*
X10253Y25823D01*
X10359Y25735D01*
X10481Y25670D01*
X10613Y25630D01*
X10630Y25628D01*
Y26200D01*
D02*
G37*
G36*
X11442D02*
X10870D01*
Y25628D01*
X10887Y25630D01*
X11019Y25670D01*
X11141Y25735D01*
X11247Y25823D01*
X11335Y25929D01*
X11400Y26051D01*
X11440Y26183D01*
X11442Y26200D01*
D02*
G37*
G36*
X10630Y27012D02*
X10613Y27010D01*
X10481Y26970D01*
X10359Y26905D01*
X10253Y26817D01*
X10165Y26711D01*
X10100Y26589D01*
X10060Y26457D01*
X10058Y26440D01*
X10630D01*
Y27012D01*
D02*
G37*
G36*
X4830Y28307D02*
Y27990D01*
X5147D01*
X5103Y28097D01*
X5031Y28191D01*
X4937Y28263D01*
X4830Y28307D01*
D02*
G37*
G36*
X3710Y28425D02*
X3566Y28406D01*
X3433Y28350D01*
X3318Y28262D01*
X3239Y28160D01*
X3223Y28156D01*
X3197D01*
X3181Y28160D01*
X3102Y28262D01*
X2987Y28350D01*
X2854Y28406D01*
X2710Y28425D01*
X2566Y28406D01*
X2433Y28350D01*
X2318Y28262D01*
X2230Y28147D01*
X2174Y28014D01*
X2155Y27870D01*
X2174Y27726D01*
X2230Y27593D01*
X2318Y27478D01*
X2420Y27399D01*
X2424Y27383D01*
Y27357D01*
X2420Y27341D01*
X2318Y27262D01*
X2230Y27147D01*
X2174Y27014D01*
X2155Y26870D01*
X2174Y26726D01*
X2230Y26593D01*
X2318Y26478D01*
X2433Y26390D01*
X2566Y26334D01*
X2710Y26315D01*
X2854Y26334D01*
X2987Y26390D01*
X3102Y26478D01*
X3181Y26580D01*
X3197Y26584D01*
X3223D01*
X3239Y26580D01*
X3318Y26478D01*
X3433Y26390D01*
X3566Y26334D01*
X3710Y26315D01*
X3854Y26334D01*
X3987Y26390D01*
X4102Y26478D01*
X4181Y26580D01*
X4197Y26584D01*
X4223D01*
X4239Y26580D01*
X4318Y26478D01*
X4433Y26390D01*
X4566Y26334D01*
X4710Y26315D01*
X4854Y26334D01*
X4987Y26390D01*
X5102Y26478D01*
X5190Y26593D01*
X5246Y26726D01*
X5265Y26870D01*
X5246Y27014D01*
X5190Y27147D01*
X5102Y27262D01*
X4987Y27350D01*
X4875Y27397D01*
Y27451D01*
X4937Y27477D01*
X5031Y27549D01*
X5103Y27643D01*
X5147Y27750D01*
X4710D01*
Y27870D01*
X4590D01*
Y28307D01*
X4483Y28263D01*
X4389Y28191D01*
X4317Y28097D01*
X4291Y28035D01*
X4237D01*
X4190Y28147D01*
X4102Y28262D01*
X3987Y28350D01*
X3854Y28406D01*
X3710Y28425D01*
D02*
G37*
G36*
X8590Y27124D02*
X8433Y27108D01*
X8282Y27063D01*
X8143Y26988D01*
X8022Y26888D01*
X7922Y26767D01*
X7847Y26628D01*
X7802Y26477D01*
X7786Y26320D01*
X7802Y26163D01*
X7847Y26012D01*
X7922Y25873D01*
X8022Y25752D01*
X8143Y25652D01*
X8282Y25577D01*
X8433Y25532D01*
X8590Y25516D01*
X8747Y25532D01*
X8898Y25577D01*
X9037Y25652D01*
X9158Y25752D01*
X9258Y25873D01*
X9333Y26012D01*
X9378Y26163D01*
X9394Y26320D01*
X9378Y26477D01*
X9333Y26628D01*
X9258Y26767D01*
X9158Y26888D01*
X9037Y26988D01*
X8898Y27063D01*
X8747Y27108D01*
X8590Y27124D01*
D02*
G37*
G36*
X11710Y28724D02*
X11543Y28708D01*
X11383Y28659D01*
X11235Y28580D01*
X11106Y28474D01*
X11000Y28345D01*
X10921Y28197D01*
X10872Y28037D01*
X10856Y27870D01*
X10872Y27703D01*
X10921Y27543D01*
X11000Y27395D01*
X11106Y27266D01*
X11235Y27160D01*
X11383Y27081D01*
X11543Y27032D01*
X11710Y27016D01*
X11830Y27028D01*
X11880Y26982D01*
Y22880D01*
X12997D01*
X13006Y22870D01*
X13022Y22753D01*
X13067Y22643D01*
X13139Y22549D01*
X13233Y22477D01*
X13343Y22432D01*
X13460Y22416D01*
X13960D01*
X14077Y22432D01*
X14187Y22477D01*
X14281Y22549D01*
X14353Y22643D01*
X14398Y22753D01*
X14414Y22870D01*
X14398Y22987D01*
X14353Y23097D01*
X14281Y23191D01*
X14187Y23263D01*
X14077Y23308D01*
X13960Y23324D01*
X13460D01*
X13343Y23308D01*
X13233Y23263D01*
X13225Y23257D01*
X13180Y23279D01*
Y23461D01*
X13225Y23483D01*
X13233Y23477D01*
X13343Y23432D01*
X13460Y23416D01*
X13960D01*
X14077Y23432D01*
X14187Y23477D01*
X14281Y23549D01*
X14353Y23643D01*
X14398Y23753D01*
X14414Y23870D01*
X14398Y23987D01*
X14353Y24097D01*
X14281Y24191D01*
X14187Y24263D01*
X14077Y24308D01*
X13960Y24324D01*
X13460D01*
X13343Y24308D01*
X13233Y24263D01*
X13225Y24257D01*
X13180Y24279D01*
Y24461D01*
X13225Y24483D01*
X13233Y24477D01*
X13343Y24432D01*
X13460Y24416D01*
X13960D01*
X14077Y24432D01*
X14187Y24477D01*
X14281Y24549D01*
X14353Y24643D01*
X14398Y24753D01*
X14414Y24870D01*
X14398Y24987D01*
X14353Y25097D01*
X14281Y25191D01*
X14187Y25263D01*
X14077Y25308D01*
X13960Y25324D01*
X13460D01*
X13343Y25308D01*
X13233Y25263D01*
X13225Y25257D01*
X13180Y25279D01*
Y25461D01*
X13225Y25483D01*
X13233Y25477D01*
X13343Y25432D01*
X13460Y25416D01*
X13960D01*
X14077Y25432D01*
X14187Y25477D01*
X14281Y25549D01*
X14353Y25643D01*
X14398Y25753D01*
X14414Y25870D01*
X14398Y25987D01*
X14353Y26097D01*
X14281Y26191D01*
X14187Y26263D01*
X14077Y26308D01*
X13960Y26324D01*
X13460D01*
X13343Y26308D01*
X13233Y26263D01*
X13225Y26257D01*
X13180Y26279D01*
Y26461D01*
X13225Y26483D01*
X13233Y26477D01*
X13343Y26432D01*
X13460Y26416D01*
X13960D01*
X14077Y26432D01*
X14187Y26477D01*
X14281Y26549D01*
X14353Y26643D01*
X14398Y26753D01*
X14414Y26870D01*
X14398Y26987D01*
X14353Y27097D01*
X14281Y27191D01*
X14187Y27263D01*
X14077Y27308D01*
X13960Y27324D01*
X13460D01*
X13343Y27308D01*
X13233Y27263D01*
X13225Y27257D01*
X13180Y27279D01*
X13180Y27442D01*
Y27444D01*
Y27444D01*
X13180Y27455D01*
X13196Y27463D01*
X13230Y27480D01*
X13233Y27477D01*
X13343Y27432D01*
X13460Y27416D01*
X13960D01*
X14077Y27432D01*
X14187Y27477D01*
X14281Y27549D01*
X14353Y27643D01*
X14398Y27753D01*
X14414Y27870D01*
X14398Y27987D01*
X14353Y28097D01*
X14281Y28191D01*
X14187Y28263D01*
X14077Y28308D01*
X13960Y28324D01*
X13460D01*
X13343Y28308D01*
X13233Y28263D01*
X13139Y28191D01*
X13067Y28097D01*
X13022Y27987D01*
X13006Y27870D01*
X13022Y27753D01*
X13067Y27643D01*
X13139Y27549D01*
X13166Y27529D01*
X13149Y27479D01*
X13140Y27479D01*
X12513D01*
X12488Y27522D01*
X12499Y27543D01*
X12548Y27703D01*
X12564Y27870D01*
X12548Y28037D01*
X12499Y28197D01*
X12420Y28345D01*
X12314Y28474D01*
X12185Y28580D01*
X12037Y28659D01*
X11877Y28708D01*
X11710Y28724D01*
D02*
G37*
%LPD*%
G36*
X-2761Y38580D02*
X-2682Y38478D01*
X-2611Y38423D01*
Y38203D01*
X-3255Y37558D01*
X-3312Y37573D01*
X-3347Y37657D01*
X-3419Y37751D01*
X-3489Y37804D01*
X-3491Y37865D01*
X-3476Y37876D01*
X-3404Y37970D01*
X-3359Y38080D01*
X-3344Y38197D01*
X-3354Y38273D01*
X-3309Y38318D01*
X-3290Y38315D01*
X-3146Y38334D01*
X-3013Y38390D01*
X-2898Y38478D01*
X-2819Y38580D01*
X-2803Y38584D01*
X-2777D01*
X-2761Y38580D01*
D02*
G37*
G36*
X12324Y16280D02*
X12283Y16263D01*
X12189Y16191D01*
X12189Y16191D01*
X9643D01*
X9550Y16284D01*
X9569Y16330D01*
X12314D01*
X12324Y16280D01*
D02*
G37*
G54D10*
X-3740Y34010D02*
D03*
Y33210D02*
D03*
X-2390Y34010D02*
D03*
Y33210D02*
D03*
X-3740Y36230D02*
D03*
Y35430D02*
D03*
X-2390Y36230D02*
D03*
Y35430D02*
D03*
X11050Y17670D02*
D03*
Y18470D02*
D03*
X12210Y18450D02*
D03*
Y17650D02*
D03*
X-2130Y29910D02*
D03*
Y29110D02*
D03*
X-3260D02*
D03*
Y28310D02*
D03*
X7480Y3770D02*
D03*
Y4570D02*
D03*
X7490Y6400D02*
D03*
Y5600D02*
D03*
G54D11*
X12070Y14070D02*
D03*
X11270D02*
D03*
X11280Y15160D02*
D03*
X12080D02*
D03*
X13700Y20720D02*
D03*
X12900D02*
D03*
X1960Y2550D02*
D03*
X1160D02*
D03*
X-630D02*
D03*
X170D02*
D03*
G54D12*
X-532Y3530D02*
D03*
Y3786D02*
D03*
Y4042D02*
D03*
Y4298D02*
D03*
Y4554D02*
D03*
Y4810D02*
D03*
Y5065D02*
D03*
X1870D02*
D03*
Y4810D02*
D03*
Y4554D02*
D03*
Y4298D02*
D03*
Y4042D02*
D03*
Y3786D02*
D03*
Y3530D02*
D03*
G54D13*
Y5065D02*
X2335D01*
X1870Y3529D02*
X2841D01*
X-532Y5065D02*
X295D01*
X460Y4900D01*
Y4070D02*
Y4900D01*
Y4070D02*
X1000Y3530D01*
X1870D01*
X2712Y4042D02*
X2970Y4300D01*
X1870Y4042D02*
X2712D01*
X2926Y3786D02*
X3390Y4250D01*
X1870Y3786D02*
X2926D01*
X-533Y3785D02*
X-532Y3786D01*
X-1093Y3785D02*
X-533D01*
X-1095Y3786D02*
X-1093Y3785D01*
X-1391Y3786D02*
X-1095D01*
X-1393Y3785D02*
X-1391Y3786D01*
X-1692Y3785D02*
X-1393D01*
X-1882Y4042D02*
X-532D01*
X-1201Y3529D02*
X-532D01*
X-3797Y38197D02*
Y39377D01*
X10210Y38595D02*
Y39370D01*
X10200Y38585D02*
X10210Y38595D01*
G54D14*
X-3740Y34010D02*
Y35430D01*
X-2390Y34010D02*
Y35430D01*
Y36230D02*
X-2360Y36260D01*
Y37010D01*
X-1290Y38080D01*
Y38870D01*
X-3740Y36230D02*
Y36620D01*
X-2290Y38070D01*
Y38870D01*
X-2190Y2550D02*
X-1200D01*
X-6112Y7022D02*
X2620D01*
X2970Y6672D01*
Y4300D02*
Y6672D01*
X-6380Y35870D02*
X-5290D01*
X-6816Y35434D02*
X-6380Y35870D01*
X-6816Y7726D02*
Y35434D01*
Y7726D02*
X-6112Y7022D01*
X-5350Y34810D02*
X-5290Y34870D01*
X-5988Y34810D02*
X-5350D01*
X-6500Y34298D02*
X-5988Y34810D01*
X-6500Y9040D02*
Y34298D01*
Y9040D02*
X-6282Y8822D01*
X1771D01*
X2392Y8200D01*
X2470D01*
X3390Y7280D01*
Y4250D02*
Y7280D01*
X-2116Y3360D02*
X-1692Y3785D01*
X-4560Y3360D02*
X-2116D01*
X-3200Y5360D02*
X-1882Y4042D01*
X-4560Y5360D02*
X-3200D01*
X2841Y3529D02*
X2970Y3400D01*
Y2830D02*
Y3400D01*
X2690Y2550D02*
X2970Y2830D01*
X1960Y2550D02*
X2690D01*
X-1440Y3290D02*
X-1201Y3529D01*
X-1440Y2790D02*
Y3290D01*
Y2790D02*
X-1200Y2550D01*
X-630D01*
X9510Y15870D02*
X12510D01*
X7990Y17390D02*
X9510Y15870D01*
X7990Y17390D02*
Y22800D01*
X6880Y23910D02*
X7990Y22800D01*
X2160Y23910D02*
X6880D01*
X-930Y27000D02*
X2160Y23910D01*
X-2160Y27000D02*
X-930D01*
X12070Y13970D02*
Y14070D01*
Y13970D02*
X12790Y13250D01*
X11270Y14070D02*
X11280Y14080D01*
Y15160D01*
X6450Y6400D02*
X7490D01*
X4570Y8280D02*
X6450Y6400D01*
X4570Y8280D02*
Y11190D01*
X7480Y4570D02*
X7490Y4580D01*
Y5600D01*
X8520D01*
X13700Y20720D02*
X13710Y20710D01*
Y19870D02*
Y20710D01*
X12150Y17670D02*
X12200Y17620D01*
X11050Y17670D02*
X12150D01*
X11050Y18470D02*
Y18920D01*
X11950Y19820D01*
X12510D01*
X-3260Y29110D02*
X-2130D01*
X-3260Y28310D02*
X-3020Y28070D01*
X-1220D01*
X-5290Y13270D02*
X-4200D01*
X-5290Y14270D02*
X-4060D01*
X-1070Y10510D02*
Y15800D01*
X-1540Y16270D02*
X-1070Y15800D01*
X-5290Y16270D02*
X-1540D01*
X-4246Y37936D02*
X-3740Y37430D01*
X-4246Y37936D02*
Y38389D01*
X-4240Y38394D01*
Y38820D01*
X-4290Y38870D02*
X-4240Y38820D01*
X-4290Y39870D02*
X-3797Y39377D01*
X10710Y37250D02*
Y38870D01*
X10210Y39370D02*
X10710Y39870D01*
X10200Y37860D02*
Y38585D01*
X-5290Y23870D02*
X-4220D01*
X-5260Y20900D02*
X-3700D01*
X-5290Y20870D02*
X-5260Y20900D01*
X-5290Y15270D02*
X-4120D01*
X-1220Y28070D02*
X1950Y24900D01*
X3330D01*
X3370Y24940D01*
X12510Y19820D02*
X13660D01*
X13710Y19870D01*
G54D15*
X5602Y30983D02*
X5502Y30883D01*
X5501Y30683D01*
X5600Y30583D01*
X6000Y30581D01*
X6101Y30680D01*
X6102Y30880D01*
X6002Y30980D01*
X6103Y31180D02*
X5704Y31182D01*
X5704Y31282D01*
X5805Y31381D01*
X6105Y31380D01*
X5805Y31381D01*
X5705Y31482D01*
X5806Y31581D01*
X6106Y31580D01*
X5509Y32183D02*
X6109Y32179D01*
X6107Y31880D01*
X6007Y31780D01*
X5807Y31781D01*
X5707Y31882D01*
X5709Y32182D01*
X6210Y32379D02*
X6212Y32779D01*
X6114Y32979D02*
X5514Y32983D01*
X5715Y33181D01*
X5516Y33382D01*
X6116Y33379D01*
X6117Y33679D02*
X6119Y33879D01*
X6019Y33979D01*
X5819Y33981D01*
X5719Y33881D01*
X5718Y33681D01*
X5817Y33581D01*
X6017Y33580D01*
X6117Y33679D01*
X5621Y34282D02*
X5721Y34281D01*
X5720Y34181D01*
X5722Y34381D01*
X5721Y34281D01*
X6021Y34279D01*
X6121Y34379D01*
X6124Y34779D02*
X6125Y34979D01*
X6025Y35079D01*
X5825Y35080D01*
X5725Y34981D01*
X5724Y34781D01*
X5823Y34680D01*
X6023Y34679D01*
X6124Y34779D01*
X5727Y35281D02*
X6126Y35278D01*
X5927Y35280D01*
X5827Y35380D01*
X5728Y35481D01*
X5728Y35581D01*
X5530Y35882D02*
X6130Y35878D01*
X6132Y36278D01*
X2860Y30984D02*
X2760Y30884D01*
Y30684D01*
X2860Y30584D01*
X3260D01*
X3360Y30684D01*
Y30884D01*
X3260Y30984D01*
X3360Y31184D02*
X2960D01*
Y31284D01*
X3060Y31384D01*
X3360D01*
X3060D01*
X2960Y31484D01*
X3060Y31584D01*
X3360D01*
X2760Y32183D02*
X3360D01*
Y31883D01*
X3260Y31783D01*
X3060D01*
X2960Y31883D01*
Y32183D01*
X3460Y32383D02*
Y32783D01*
X3360Y32983D02*
X2760D01*
X2960Y33183D01*
X2760Y33383D01*
X3360D01*
Y33683D02*
Y33883D01*
X3260Y33983D01*
X3060D01*
X2960Y33883D01*
Y33683D01*
X3060Y33583D01*
X3260D01*
X3360Y33683D01*
X2860Y34283D02*
X2960D01*
Y34183D01*
Y34383D01*
Y34283D01*
X3260D01*
X3360Y34383D01*
Y34782D02*
Y34982D01*
X3260Y35082D01*
X3060D01*
X2960Y34982D01*
Y34782D01*
X3060Y34683D01*
X3260D01*
X3360Y34782D01*
X2960Y35282D02*
X3360D01*
X3160D01*
X3060Y35382D01*
X2960Y35482D01*
Y35582D01*
X3360Y35882D02*
X2760D01*
Y36182D01*
X2860Y36282D01*
X3060D01*
X3160Y36182D01*
Y35882D01*
Y36082D02*
X3360Y36282D01*
X5430Y8910D02*
Y8510D01*
X6030D01*
Y8910D01*
X5730Y8510D02*
Y8710D01*
X6030Y9110D02*
X5630D01*
Y9410D01*
X5730Y9510D01*
X6030D01*
X5630Y10109D02*
Y9810D01*
X5730Y9710D01*
X5930D01*
X6030Y9810D01*
Y10109D01*
Y10409D02*
Y10609D01*
X5930Y10709D01*
X5730D01*
X5630Y10609D01*
Y10409D01*
X5730Y10309D01*
X5930D01*
X6030Y10409D01*
X5430Y11309D02*
X6030D01*
Y11009D01*
X5930Y10909D01*
X5730D01*
X5630Y11009D01*
Y11309D01*
X6030Y11809D02*
Y11609D01*
X5930Y11509D01*
X5730D01*
X5630Y11609D01*
Y11809D01*
X5730Y11909D01*
X5830D01*
Y11509D01*
X5630Y12109D02*
X6030D01*
X5830D01*
X5730Y12209D01*
X5630Y12309D01*
Y12409D01*
X6030Y12709D02*
X5430D01*
X5630Y12909D01*
X5430Y13109D01*
X6030D01*
Y13408D02*
Y13608D01*
X5930Y13708D01*
X5730D01*
X5630Y13608D01*
Y13408D01*
X5730Y13308D01*
X5930D01*
X6030Y13408D01*
X5530Y14008D02*
X5630D01*
Y13908D01*
Y14108D01*
Y14008D01*
X5930D01*
X6030Y14108D01*
Y14508D02*
Y14708D01*
X5930Y14808D01*
X5730D01*
X5630Y14708D01*
Y14508D01*
X5730Y14408D01*
X5930D01*
X6030Y14508D01*
X5630Y15008D02*
X6030D01*
X5830D01*
X5730Y15108D01*
X5630Y15208D01*
Y15308D01*
X5430Y15608D02*
X6030D01*
Y16008D01*
X2958Y8906D02*
X2960Y8507D01*
X3560Y8510D01*
X3558Y8909D01*
X3260Y8508D02*
X3259Y8708D01*
X3557Y9109D02*
X3157Y9107D01*
X3156Y9407D01*
X3255Y9508D01*
X3555Y9509D01*
X3152Y10107D02*
X3154Y9807D01*
X3254Y9708D01*
X3454Y9709D01*
X3553Y9809D01*
X3552Y10109D01*
X3550Y10409D02*
X3550Y10609D01*
X3449Y10708D01*
X3249Y10707D01*
X3150Y10607D01*
X3151Y10407D01*
X3251Y10307D01*
X3451Y10308D01*
X3550Y10409D01*
X2946Y11306D02*
X3546Y11309D01*
X3548Y11009D01*
X3448Y10908D01*
X3248Y10907D01*
X3148Y11007D01*
X3146Y11307D01*
X3544Y11808D02*
X3544Y11609D01*
X3445Y11508D01*
X3245Y11507D01*
X3145Y11607D01*
X3144Y11806D01*
X3243Y11907D01*
X3343Y11907D01*
X3345Y11508D01*
X3142Y12106D02*
X3542Y12108D01*
X3342Y12107D01*
X3242Y12207D01*
X3141Y12306D01*
X3141Y12406D01*
X3539Y12708D02*
X2939Y12705D01*
X3138Y12906D01*
X2937Y13105D01*
X3537Y13108D01*
X3536Y13408D02*
X3535Y13608D01*
X3434Y13707D01*
X3234Y13706D01*
X3135Y13606D01*
X3136Y13406D01*
X3236Y13306D01*
X3436Y13307D01*
X3536Y13408D01*
X3033Y14005D02*
X3133Y14006D01*
X3133Y13906D01*
X3132Y14106D01*
X3133Y14006D01*
X3433Y14007D01*
X3532Y14108D01*
X3530Y14508D02*
X3529Y14708D01*
X3429Y14807D01*
X3229Y14806D01*
X3129Y14706D01*
X3130Y14506D01*
X3231Y14406D01*
X3431Y14407D01*
X3530Y14508D01*
X3128Y15005D02*
X3528Y15007D01*
X3328Y15006D01*
X3227Y15106D01*
X3127Y15205D01*
X3126Y15305D01*
X3525Y15607D02*
X2925Y15604D01*
X2923Y15904D01*
X3023Y16005D01*
X3223Y16006D01*
X3323Y15906D01*
X3325Y15606D01*
X3324Y15806D02*
X3523Y16007D01*
X8694Y7565D02*
X8593Y7663D01*
X8393Y7661D01*
X8294Y7560D01*
X8295Y7460D01*
X8396Y7361D01*
X8596Y7363D01*
X8697Y7265D01*
X8699Y7165D01*
X8600Y7064D01*
X8400Y7061D01*
X8299Y7160D01*
X8893Y7667D02*
X8900Y7067D01*
X9097Y7270D01*
X9300Y7072D01*
X9292Y7672D01*
X9501Y6974D02*
X9901Y6979D01*
X10099Y7082D02*
X10092Y7681D01*
X10392Y7685D01*
X10493Y7586D01*
X10496Y7386D01*
X10397Y7285D01*
X10097Y7282D01*
X10297Y7284D02*
X10499Y7086D01*
X10999Y7092D02*
X10799Y7090D01*
X10698Y7189D01*
X10695Y7389D01*
X10794Y7490D01*
X10994Y7492D01*
X11095Y7394D01*
X11096Y7294D01*
X10697Y7289D01*
X11299Y7096D02*
X11599Y7100D01*
X11697Y7201D01*
X11596Y7300D01*
X11396Y7297D01*
X11295Y7396D01*
X11394Y7497D01*
X11694Y7501D01*
X12198Y7107D02*
X11999Y7105D01*
X11897Y7203D01*
X11895Y7403D01*
X11994Y7504D01*
X12194Y7507D01*
X12295Y7408D01*
X12296Y7308D01*
X11896Y7303D01*
X12592Y7612D02*
X12593Y7512D01*
X12494Y7510D01*
X12693Y7513D01*
X12593Y7512D01*
X12597Y7212D01*
X12698Y7113D01*
X-1550Y18710D02*
X-1150D01*
X-950Y18910D01*
X-1150Y19110D01*
X-1550D01*
X-1450Y19710D02*
X-1550Y19610D01*
Y19410D01*
X-1450Y19310D01*
X-1050D01*
X-950Y19410D01*
Y19610D01*
X-1050Y19710D01*
X-1450Y20309D02*
X-1550Y20210D01*
Y20010D01*
X-1450Y19910D01*
X-1050D01*
X-950Y20010D01*
Y20210D01*
X-1050Y20309D01*
X-850Y20509D02*
Y20909D01*
X-1550Y21509D02*
Y21109D01*
X-1250D01*
X-1350Y21309D01*
Y21409D01*
X-1250Y21509D01*
X-1050D01*
X-950Y21409D01*
Y21209D01*
X-1050Y21109D01*
X-1550Y21709D02*
X-1150D01*
X-950Y21909D01*
X-1150Y22109D01*
X-1550D01*
X-1250Y22309D02*
Y22709D01*
X-1450Y22509D02*
X-1050D01*
X4000Y18710D02*
X4400D01*
X4600Y18910D01*
X4400Y19110D01*
X4000D01*
X4100Y19710D02*
X4000Y19610D01*
Y19410D01*
X4100Y19310D01*
X4500D01*
X4600Y19410D01*
Y19610D01*
X4500Y19710D01*
X4100Y20309D02*
X4000Y20210D01*
Y20010D01*
X4100Y19910D01*
X4500D01*
X4600Y20010D01*
Y20210D01*
X4500Y20309D01*
X4700Y20509D02*
Y20909D01*
X4000Y21509D02*
Y21109D01*
X4300D01*
X4200Y21309D01*
Y21409D01*
X4300Y21509D01*
X4500D01*
X4600Y21409D01*
Y21209D01*
X4500Y21109D01*
X4000Y21709D02*
X4400D01*
X4600Y21909D01*
X4400Y22109D01*
X4000D01*
X4300Y22309D02*
Y22709D01*
X12180Y23180D02*
X12580D01*
X12780Y23380D01*
X12580Y23580D01*
X12180D01*
X12280Y24180D02*
X12180Y24080D01*
Y23880D01*
X12280Y23780D01*
X12680D01*
X12780Y23880D01*
Y24080D01*
X12680Y24180D01*
X12280Y24779D02*
X12180Y24680D01*
Y24480D01*
X12280Y24380D01*
X12680D01*
X12780Y24480D01*
Y24680D01*
X12680Y24779D01*
X12880Y24979D02*
Y25379D01*
X12180Y25579D02*
Y25979D01*
X12280D01*
X12680Y25579D01*
X12780D01*
X12180Y26179D02*
X12580D01*
X12780Y26379D01*
X12580Y26579D01*
X12180D01*
X12480Y26779D02*
Y27179D01*
X6690Y24420D02*
X7090D01*
X7290Y24620D01*
X7090Y24820D01*
X6690D01*
X6790Y25420D02*
X6690Y25320D01*
Y25120D01*
X6790Y25020D01*
X7190D01*
X7290Y25120D01*
Y25320D01*
X7190Y25420D01*
X6790Y26019D02*
X6690Y25920D01*
Y25720D01*
X6790Y25620D01*
X7190D01*
X7290Y25720D01*
Y25920D01*
X7190Y26019D01*
X7390Y26219D02*
Y26619D01*
X6690Y26819D02*
Y27219D01*
X6790D01*
X7190Y26819D01*
X7290D01*
X6690Y27419D02*
X7090D01*
X7290Y27619D01*
X7090Y27819D01*
X6690D01*
X6990Y28019D02*
Y28419D01*
X6790Y28219D02*
X7190D01*
X-3790Y27250D02*
X-4190D01*
X-4390Y27450D01*
X-4190Y27650D01*
X-3790D01*
X-4090D01*
Y27250D01*
X-3790Y27850D02*
Y28050D01*
Y27950D01*
X-4390D01*
Y27850D01*
X-3790Y28350D02*
Y28550D01*
Y28450D01*
X-4190D01*
Y28350D01*
X-3790Y28849D02*
X-4190D01*
Y28949D01*
X-4090Y29049D01*
X-3790D01*
X-4090D01*
X-4190Y29149D01*
X-4090Y29249D01*
X-3790D01*
X-4390Y29849D02*
Y29449D01*
X-4090D01*
X-4190Y29649D01*
Y29749D01*
X-4090Y29849D01*
X-3890D01*
X-3790Y29749D01*
Y29549D01*
X-3890Y29449D01*
X-4390Y30049D02*
X-3990D01*
X-3790Y30249D01*
X-3990Y30449D01*
X-4390D01*
X9820Y12510D02*
X9813Y13110D01*
X10113Y13113D01*
X10214Y13015D01*
X10216Y12815D01*
X10118Y12713D01*
X9818Y12710D01*
X10018Y12712D02*
X10220Y12515D01*
X10720Y12521D02*
X10520Y12518D01*
X10419Y12617D01*
X10416Y12817D01*
X10515Y12918D01*
X10715Y12920D01*
X10816Y12822D01*
X10817Y12722D01*
X10417Y12717D01*
X11020Y12524D02*
X11319Y12528D01*
X11418Y12629D01*
X11317Y12728D01*
X11117Y12725D01*
X11016Y12824D01*
X11115Y12925D01*
X11415Y12929D01*
X11919Y12535D02*
X11719Y12532D01*
X11618Y12631D01*
X11616Y12831D01*
X11715Y12932D01*
X11914Y12935D01*
X12016Y12836D01*
X12017Y12736D01*
X11617Y12731D01*
X12313Y13039D02*
X12314Y12939D01*
X12214Y12938D01*
X12414Y12940D01*
X12314Y12939D01*
X12318Y12639D01*
X12419Y12541D01*
X9600Y16630D02*
Y17030D01*
X9800Y17230D01*
X10000Y17030D01*
Y16630D01*
Y16930D01*
X9600D01*
X10200Y16630D02*
X10400D01*
X10300D01*
Y17230D01*
X10200D01*
X10700Y16630D02*
X10900D01*
X10800D01*
Y17030D01*
X10700D01*
X11199Y16630D02*
Y17030D01*
X11299D01*
X11399Y16930D01*
Y16630D01*
Y16930D01*
X11499Y17030D01*
X11599Y16930D01*
Y16630D01*
X11799Y17230D02*
X12199D01*
Y17130D01*
X11799Y16730D01*
Y16630D01*
X12399Y17230D02*
Y16830D01*
X12599Y16630D01*
X12799Y16830D01*
Y17230D01*
G54D16*
X520Y19540D02*
D03*
Y21540D02*
D03*
X2760D02*
D03*
Y19540D02*
D03*
X8590Y24320D02*
D03*
Y26320D02*
D03*
X10750Y24320D02*
D03*
Y26320D02*
D03*
X-4560Y5360D02*
D03*
G54D17*
X12780Y5600D02*
D03*
X9780D02*
D03*
Y3600D02*
D03*
X12780D02*
D03*
G54D18*
X8430Y31180D02*
D03*
X7430Y35180D02*
D03*
X8430D02*
D03*
X7430Y34180D02*
D03*
X8430D02*
D03*
X7430Y33180D02*
D03*
X8430D02*
D03*
X7430Y32180D02*
D03*
X8430D02*
D03*
X7430Y31180D02*
D03*
X530Y35180D02*
D03*
X1530Y31180D02*
D03*
X530D02*
D03*
X1530Y32180D02*
D03*
X530D02*
D03*
X1530Y33180D02*
D03*
X530D02*
D03*
X1530Y34180D02*
D03*
X530D02*
D03*
X1530Y35180D02*
D03*
X8400Y10200D02*
D03*
X7400Y14200D02*
D03*
X8400D02*
D03*
X7400Y13200D02*
D03*
X8400D02*
D03*
X7400Y12200D02*
D03*
X8400D02*
D03*
X7400Y11200D02*
D03*
X8400D02*
D03*
X7400Y10200D02*
D03*
X470Y14190D02*
D03*
X1470Y10190D02*
D03*
X470D02*
D03*
X1470Y11190D02*
D03*
X470D02*
D03*
X1470Y12190D02*
D03*
X470D02*
D03*
X1470Y13190D02*
D03*
X470D02*
D03*
X1470Y14190D02*
D03*
X4710Y27870D02*
D03*
Y26870D02*
D03*
X3710Y27870D02*
D03*
Y26870D02*
D03*
X2710Y27870D02*
D03*
Y26870D02*
D03*
X-5290Y38870D02*
D03*
Y39870D02*
D03*
X-4290Y38870D02*
D03*
Y39870D02*
D03*
X-3290Y38870D02*
D03*
Y39870D02*
D03*
X-2290Y38870D02*
D03*
Y39870D02*
D03*
X-1290Y38870D02*
D03*
Y39870D02*
D03*
X-290Y38870D02*
D03*
Y39870D02*
D03*
X710Y38870D02*
D03*
Y39870D02*
D03*
X1710Y38870D02*
D03*
Y39870D02*
D03*
X2710Y38870D02*
D03*
Y39870D02*
D03*
X3710Y38870D02*
D03*
Y39870D02*
D03*
X4710Y38870D02*
D03*
Y39870D02*
D03*
X5710Y38870D02*
D03*
Y39870D02*
D03*
X6710Y38870D02*
D03*
Y39870D02*
D03*
X7710Y38870D02*
D03*
Y39870D02*
D03*
X8710Y38870D02*
D03*
Y39870D02*
D03*
X9710Y38870D02*
D03*
Y39870D02*
D03*
X10710Y38870D02*
D03*
Y39870D02*
D03*
X11710Y38870D02*
D03*
Y39870D02*
D03*
G54D19*
X-5290Y18270D02*
D03*
Y17270D02*
D03*
Y16270D02*
D03*
Y15270D02*
D03*
Y14270D02*
D03*
Y13270D02*
D03*
Y12270D02*
D03*
Y11270D02*
D03*
Y10270D02*
D03*
Y9270D02*
D03*
Y19870D02*
D03*
Y20870D02*
D03*
Y21870D02*
D03*
Y22870D02*
D03*
Y23870D02*
D03*
Y24870D02*
D03*
Y25870D02*
D03*
Y26870D02*
D03*
Y28870D02*
D03*
Y29870D02*
D03*
Y30870D02*
D03*
Y31870D02*
D03*
Y32870D02*
D03*
Y33870D02*
D03*
Y34870D02*
D03*
Y35870D02*
D03*
X13710Y37870D02*
D03*
Y36870D02*
D03*
Y35870D02*
D03*
Y34870D02*
D03*
Y33870D02*
D03*
Y32870D02*
D03*
Y31870D02*
D03*
Y30870D02*
D03*
Y28870D02*
D03*
Y27870D02*
D03*
Y26870D02*
D03*
Y25870D02*
D03*
Y24870D02*
D03*
Y23870D02*
D03*
Y22870D02*
D03*
Y21870D02*
D03*
Y19870D02*
D03*
Y18870D02*
D03*
Y17870D02*
D03*
Y16870D02*
D03*
Y15870D02*
D03*
Y14870D02*
D03*
Y13870D02*
D03*
Y12870D02*
D03*
G54D20*
X11710Y27870D02*
D03*
X710D02*
D03*
X13710Y7370D02*
D03*
Y39870D02*
D03*
X-5290Y37370D02*
D03*
Y7870D02*
D03*
G54D21*
X-4560Y3360D02*
D03*
G54D22*
X2960Y3010D02*
D03*
X-6730Y6350D02*
D03*
X6480Y6380D02*
D03*
X-2190Y2550D02*
D03*
X4480Y35770D02*
D03*
X12510Y15870D02*
D03*
X-2160Y27000D02*
D03*
X12790Y13250D02*
D03*
X4570Y11190D02*
D03*
X8520Y5600D02*
D03*
X-4210Y13250D02*
D03*
X-4110Y14250D02*
D03*
X-1070Y10400D02*
D03*
X-4110Y15250D02*
D03*
X-3740Y37430D02*
D03*
X-3797Y38197D02*
D03*
X10200Y37860D02*
D03*
X10710Y37250D02*
D03*
X-4220Y23870D02*
D03*
X-3700Y20900D02*
D03*
X-1220Y28070D02*
D03*
X3370Y24940D02*
D03*
X12510Y19820D02*
D03*
M02*
