M48
;Layer_Color=9474304
;FILE_FORMAT=2:4
INCH,LZ
;TYPE=PLATED
T1F00S00C0.0280
T2F00S00C0.0360
T3F00S00C0.0400
T4F00S00C0.0520
T5F00S00C0.1260
%
T01
X00852Y0056
X00457Y01119
X01279Y01325
X-00107Y0104
X-00421Y01325
X-00411Y01425
Y01525
X-0037Y0209
X-00422Y02387
X-00216Y027
X-00122Y02807
X00337Y02494
X01251Y01982
Y01587
X01071Y03725
X0102Y03786
X-00155Y03577
X-00374Y03743
X-003797Y038197
X-00435Y03395
X-00368Y03124
T02
X0074Y0102
Y0112
X0084
Y0122
X0074
Y0132
X0084
Y0142
X0074
X0084Y0102
X00147Y01019
Y01119
Y01219
Y01319
Y01419
X00047
Y01319
Y01219
Y01119
Y01019
X00743Y03118
Y03218
X00843
Y03318
X00743
Y03418
X00843
Y03518
X00743
X00843Y03118
X00153
Y03218
Y03318
Y03418
Y03518
X00053
Y03418
Y03318
Y03218
Y03118
T03
X00978Y0036
Y0056
X01278
Y0036
X01371Y01287
Y01387
X-00529Y01327
Y01227
Y01127
Y01027
Y00927
Y01427
Y01527
Y01627
Y01727
Y01827
Y01987
Y02087
Y02187
Y02287
Y02387
Y02487
Y02587
Y02687
Y02887
X00271Y02787
Y02687
X00371
Y02787
X00471
Y02687
X01371
Y02587
Y02487
Y02387
Y02287
Y02187
Y01987
Y01887
Y01787
Y01687
Y01587
Y01487
Y02787
Y02887
Y03087
Y03187
Y03287
Y03387
Y03487
Y03587
Y03687
Y03787
X01171Y03887
Y03987
X01071
Y03887
X00971
Y03987
X00871
Y03887
X00771
Y03987
X00671
Y03887
X00571
Y03987
X00471
Y03887
X00371
Y03987
X00271
Y03887
X00171
Y03987
X00071
Y03887
X-00029
Y03987
X-00129
Y03887
X-00229
Y03987
X-00329
Y03887
X-00429
Y03987
X-00529
Y03887
Y03587
Y03487
Y03387
Y03287
Y03187
Y03087
Y02987
T04
X00052Y01954
Y02154
X00276
Y01954
X00859Y02432
Y02632
X01075
Y02432
X-00803Y03029
Y03229
T05
X01371Y00737
X-00529Y00787
X00071Y02787
X01171
X01371Y03987
X-00529Y03737
M30
