%FSLAX24Y24*%
%MOIN*%
G70*
G01*
G75*
G04 Layer_Physical_Order=1*
G04 Layer_Color=255*
%ADD10R,0.0400X0.0500*%
%ADD11R,0.0500X0.0400*%
%ADD12R,0.0800X0.0800*%
%ADD13C,0.0197*%
%ADD14C,0.0100*%
%ADD15C,0.0709*%
%ADD16C,0.0827*%
%ADD17R,0.0827X0.0827*%
%ADD18C,0.0600*%
%ADD19C,0.1969*%
%ADD20R,0.0709X0.0709*%
%ADD21R,0.0709X0.0709*%
%ADD22C,0.0669*%
%ADD23O,0.0500X0.0800*%
%ADD24R,0.1000X0.0500*%
%ADD25O,0.1000X0.0500*%
%ADD26C,0.0500*%
G36*
X2822Y23988D02*
X2850Y23950D01*
X2923Y23894D01*
X3009Y23859D01*
X3100Y23847D01*
Y22696D01*
X2972Y22550D01*
X2822Y22550D01*
X2822Y22550D01*
Y22550D01*
X2820D01*
Y22200D01*
Y21850D01*
X2822D01*
X2822Y21850D01*
X2822Y21850D01*
X2907Y21850D01*
X3076Y21641D01*
X3023Y21393D01*
X2929Y21321D01*
X2857Y21227D01*
X2812Y21117D01*
X2796Y21000D01*
X2812Y20883D01*
X2857Y20773D01*
X2929Y20679D01*
X3023Y20607D01*
X3023Y20607D01*
D01*
X2929Y20321D01*
X2857Y20227D01*
X2812Y20117D01*
X2796Y20000D01*
X2812Y19883D01*
X2857Y19773D01*
X2929Y19679D01*
X3023Y19607D01*
X3023Y19607D01*
D01*
X2929Y19321D01*
X2857Y19227D01*
X2812Y19117D01*
X2796Y19000D01*
X2812Y18883D01*
X2857Y18773D01*
X2929Y18679D01*
X3023Y18393D01*
X3023D01*
X3023Y18393D01*
X2929Y18321D01*
X2857Y18227D01*
X2812Y18117D01*
X2796Y18000D01*
X2812Y17883D01*
X2857Y17773D01*
X2929Y17679D01*
X3023Y17607D01*
X3023Y17607D01*
D01*
X2929Y17321D01*
X2857Y17227D01*
X2812Y17117D01*
X2796Y17000D01*
X2812Y16883D01*
X2857Y16773D01*
X2929Y16679D01*
X3023Y16607D01*
X3023Y16607D01*
D01*
X2929Y16321D01*
X2857Y16227D01*
X2812Y16117D01*
X2796Y16000D01*
X2812Y15883D01*
X2857Y15773D01*
X2929Y15679D01*
X2933Y15666D01*
X2809Y15301D01*
X2375D01*
X2301Y15375D01*
Y21850D01*
X2301D01*
X2400D01*
X2579Y21850D01*
X2579Y21850D01*
X2579Y21850D01*
X2580D01*
Y22200D01*
Y22550D01*
X2400D01*
D01*
X2400D01*
D01*
X2129Y22550D01*
X1851Y22828D01*
Y23625D01*
X2075Y23849D01*
X2100Y23846D01*
X2217Y23862D01*
X2327Y23907D01*
X2421Y23979D01*
X2428Y23988D01*
X2822Y23988D01*
D02*
G37*
G36*
X-728Y26226D02*
X-523Y26124D01*
X-539Y26000D01*
X-521Y25860D01*
X-467Y25730D01*
X-381Y25619D01*
X-270Y25533D01*
X-140Y25479D01*
X0Y25461D01*
X140Y25479D01*
X270Y25533D01*
X342Y25588D01*
X654Y25349D01*
X428Y24804D01*
X-394Y23982D01*
X-473Y24043D01*
X-583Y24088D01*
X-700Y24104D01*
X-817Y24088D01*
X-927Y24043D01*
X-1021Y23971D01*
X-1036Y23951D01*
X-1350D01*
X-1428Y23941D01*
X-1500Y23911D01*
X-1563Y23863D01*
X-1611Y23800D01*
X-1613Y23795D01*
X-1999Y23872D01*
Y25175D01*
X-884Y26290D01*
X-728Y26226D01*
D02*
G37*
G36*
X7110Y24135D02*
X6587Y23613D01*
X6539Y23551D01*
X6509Y23478D01*
X6499Y23400D01*
Y19225D01*
X5968Y18694D01*
X5658Y18653D01*
X5551Y18741D01*
X5504Y18836D01*
X5447Y19022D01*
X5963Y19537D01*
X6011Y19599D01*
X6041Y19672D01*
X6051Y19750D01*
Y20850D01*
X6041Y20928D01*
X6011Y21000D01*
X5963Y21063D01*
X5900Y21111D01*
X5828Y21141D01*
X5750Y21151D01*
X5450D01*
Y21350D01*
X4550D01*
Y21251D01*
X4125D01*
X4071Y21321D01*
X3977Y21393D01*
X4190Y21908D01*
X4229Y21929D01*
Y21929D01*
X4229Y21929D01*
X4323Y21857D01*
X4433Y21812D01*
X4550Y21796D01*
X4667Y21812D01*
X4777Y21857D01*
X4871Y21929D01*
X4943Y22023D01*
X4988Y22133D01*
X5004Y22250D01*
X4988Y22367D01*
X4943Y22477D01*
X4901Y22532D01*
Y23475D01*
X5925Y24499D01*
X6959D01*
X7110Y24135D01*
D02*
G37*
G36*
X1594Y24688D02*
X1705Y24522D01*
X1662Y24417D01*
X1646Y24300D01*
X1649Y24275D01*
X1337Y23963D01*
X1289Y23900D01*
X1259Y23828D01*
X1249Y23750D01*
Y22700D01*
X1249Y22700D01*
X1249D01*
X1259Y22622D01*
X1289Y22550D01*
X1337Y22487D01*
X1699Y22125D01*
Y15250D01*
X1699Y15250D01*
X1699D01*
X1709Y15172D01*
X1739Y15100D01*
X1787Y15037D01*
X2037Y14787D01*
X2100Y14739D01*
X2172Y14709D01*
X2250Y14699D01*
X2809D01*
X2933Y14334D01*
X2929Y14321D01*
X2857Y14227D01*
X2812Y14117D01*
X2796Y14000D01*
X2812Y13883D01*
X2857Y13773D01*
X2929Y13679D01*
X3023Y13607D01*
X3023Y13607D01*
D01*
X2929Y13321D01*
X2857Y13227D01*
X2812Y13117D01*
X2796Y13000D01*
X2812Y12883D01*
X2857Y12773D01*
X2929Y12679D01*
X3023Y12607D01*
X3133Y12562D01*
X3250Y12546D01*
X3750D01*
X3867Y12562D01*
X3977Y12607D01*
X4071Y12679D01*
X4143Y12773D01*
X4188Y12883D01*
X4204Y13000D01*
X4188Y13117D01*
X4143Y13227D01*
X4071Y13321D01*
X3977Y13607D01*
X4071Y13679D01*
X4143Y13773D01*
X4188Y13883D01*
X4204Y14000D01*
X4188Y14117D01*
X4587Y14283D01*
X5035Y13939D01*
X5099Y13875D01*
X5096Y13850D01*
X5112Y13733D01*
X5157Y13623D01*
X5229Y13529D01*
X5323Y13457D01*
X5433Y13412D01*
X5550Y13396D01*
X5667Y13412D01*
X5777Y13457D01*
X5871Y13529D01*
X5943Y13623D01*
X5988Y13733D01*
X6004Y13850D01*
X5990Y13957D01*
X6125Y14024D01*
X6355Y14119D01*
X8610Y11865D01*
X8459Y11501D01*
X3068D01*
X2411Y11773D01*
X2390Y11797D01*
X2404Y11900D01*
X2388Y12017D01*
X2343Y12127D01*
X2271Y12221D01*
X2177Y12293D01*
X2067Y12338D01*
X1950Y12354D01*
X1833Y12338D01*
X1723Y12293D01*
X1629Y12221D01*
X1557Y12127D01*
X1512Y12017D01*
X1496Y11900D01*
X1512Y11783D01*
X1557Y11673D01*
X1629Y11579D01*
X1646Y11566D01*
X1544Y11186D01*
X130Y11000D01*
X-2085D01*
X-2640Y11230D01*
X-3050D01*
Y11470D01*
X-2721D01*
X-2744Y11527D01*
X-2800Y11600D01*
X-2873Y11656D01*
X-2873Y11656D01*
X-2873D01*
X-3039Y11802D01*
X-3039Y11802D01*
X-3039Y11802D01*
X-2942Y11961D01*
X-2870Y12133D01*
X-2827Y12314D01*
X-2812Y12500D01*
X-2827Y12686D01*
X-2870Y12867D01*
X-2942Y13039D01*
X-3039Y13198D01*
X-3160Y13340D01*
X-3302Y13461D01*
X-3461Y13558D01*
X-3633Y13630D01*
X-3814Y13673D01*
X-4000Y13688D01*
X-4186Y13673D01*
X-4213Y13667D01*
X-4505Y13930D01*
X-4496Y14000D01*
X-4512Y14117D01*
X-4557Y14227D01*
X-4629Y14321D01*
X-4723Y14393D01*
X-4723D01*
X-4830Y14456D01*
X-4819Y14538D01*
X-4734Y14745D01*
X-4348Y14822D01*
X-3613Y14087D01*
X-3550Y14039D01*
X-3478Y14009D01*
X-3400Y13999D01*
X-2650D01*
X-2572Y14009D01*
X-2500Y14039D01*
X-2437Y14087D01*
X-2389Y14150D01*
X-2359Y14222D01*
X-2349Y14300D01*
Y16277D01*
X-2223Y16403D01*
X-2039Y16440D01*
X-1719Y16210D01*
X-1679Y15913D01*
X-1727Y15893D01*
X-1821Y15821D01*
X-1893Y15727D01*
X-1938Y15617D01*
X-1954Y15500D01*
X-1938Y15383D01*
X-1893Y15273D01*
X-1821Y15179D01*
X-1727Y15107D01*
X-1617Y15062D01*
X-1500Y15046D01*
X-1383Y15062D01*
X-1273Y15107D01*
X-1179Y15179D01*
X-1107Y15273D01*
X-1062Y15383D01*
X-1046Y15500D01*
X-1062Y15617D01*
X-1107Y15727D01*
X-1179Y15821D01*
X-1273Y15893D01*
X-1383Y15938D01*
X-1383Y15939D01*
X-1389Y15951D01*
X-1389D01*
X-1487Y16189D01*
X-1487Y16387D01*
X-1475Y16402D01*
X-1475D01*
D01*
D01*
D01*
D01*
Y16402D01*
Y16402D01*
X-1475Y16402D01*
X-1439Y16450D01*
X-1409Y16522D01*
X-1399Y16600D01*
Y16750D01*
X-1399Y16753D01*
X-1333Y16762D01*
X-1223Y16807D01*
X-1129Y16879D01*
X-1057Y16973D01*
X-1012Y17083D01*
X-996Y17200D01*
X-1012Y17317D01*
X-1057Y17427D01*
X-883Y17612D01*
X-773Y17657D01*
X-679Y17729D01*
X-607Y17823D01*
X-605Y17828D01*
X-239Y17876D01*
X12Y17573D01*
X-71Y17321D01*
X-143Y17227D01*
X-188Y17117D01*
X-204Y17000D01*
X-188Y16883D01*
X-143Y16773D01*
X-71Y16679D01*
X23Y16607D01*
X23Y16607D01*
D01*
X-71Y16321D01*
X-143Y16227D01*
X-188Y16117D01*
X-204Y16000D01*
X-188Y15883D01*
X-143Y15773D01*
X-71Y15679D01*
X23Y15607D01*
X23Y15607D01*
D01*
X-71Y15321D01*
X-143Y15227D01*
X-188Y15117D01*
X-204Y15000D01*
X-188Y14883D01*
X-143Y14773D01*
X-71Y14679D01*
X23Y14607D01*
X23Y14607D01*
D01*
X-71Y14321D01*
X-143Y14227D01*
X-188Y14117D01*
X-204Y14000D01*
X-188Y13883D01*
X-143Y13773D01*
X-71Y13679D01*
X23Y13607D01*
X23Y13607D01*
D01*
X-71Y13321D01*
X-143Y13227D01*
X-188Y13117D01*
X-204Y13000D01*
X-188Y12883D01*
X-143Y12773D01*
X-71Y12679D01*
X23Y12607D01*
X133Y12562D01*
X250Y12546D01*
X750D01*
X867Y12562D01*
X977Y12607D01*
X1071Y12679D01*
X1143Y12773D01*
X1188Y12883D01*
X1204Y13000D01*
X1188Y13117D01*
X1143Y13227D01*
X1071Y13321D01*
X977Y13607D01*
X1071Y13679D01*
X1143Y13773D01*
X1188Y13883D01*
X1204Y14000D01*
X1188Y14117D01*
X1143Y14227D01*
X1071Y14321D01*
X977Y14607D01*
X1071Y14679D01*
X1143Y14773D01*
X1188Y14883D01*
X1204Y15000D01*
X1188Y15117D01*
X1143Y15227D01*
X1071Y15321D01*
X977Y15607D01*
X1071Y15679D01*
X1143Y15773D01*
X1188Y15883D01*
X1204Y16000D01*
X1188Y16117D01*
X1143Y16227D01*
X1071Y16321D01*
X977Y16607D01*
X1071Y16679D01*
X1143Y16773D01*
X1188Y16883D01*
X1204Y17000D01*
X1188Y17117D01*
X1143Y17227D01*
X1071Y17321D01*
X977Y17607D01*
X1071Y17679D01*
X1143Y17773D01*
X1188Y17883D01*
X1204Y18000D01*
X1188Y18117D01*
X1143Y18227D01*
X1071Y18321D01*
X977Y18607D01*
X1071Y18679D01*
X1143Y18773D01*
X1188Y18883D01*
X1204Y19000D01*
X1188Y19117D01*
X1143Y19227D01*
X1071Y19321D01*
X977Y19607D01*
X1071Y19679D01*
X1143Y19773D01*
X1188Y19883D01*
X1204Y20000D01*
X1188Y20117D01*
X1143Y20227D01*
X1071Y20321D01*
D01*
D01*
X1071Y20321D01*
X1071Y20321D01*
X1200Y20550D01*
X1200Y20550D01*
D01*
D01*
D01*
X1200Y20655D01*
X1200Y20655D01*
X1200D01*
Y21450D01*
X-200D01*
Y20655D01*
X-200Y20655D01*
X-200D01*
X-200Y20550D01*
D01*
D01*
D01*
X-200Y20550D01*
X-71Y20321D01*
D01*
D01*
Y20321D01*
X-143Y20227D01*
X-188Y20117D01*
X-204Y20000D01*
X-188Y19883D01*
X-143Y19773D01*
X-71Y19679D01*
X23Y19607D01*
X23Y19607D01*
D01*
X-17Y19485D01*
X-191Y19404D01*
X-423Y19364D01*
X-450Y19400D01*
X-523Y19456D01*
X-580Y19479D01*
Y19150D01*
X-820D01*
Y19490D01*
X-901Y19488D01*
X-912Y19567D01*
X-957Y19677D01*
X-1029Y19771D01*
X-1049Y19786D01*
Y22653D01*
X-860Y23109D01*
X-753Y23203D01*
X-700Y23196D01*
X-583Y23212D01*
X-473Y23257D01*
X-379Y23329D01*
X-364Y23349D01*
X-300D01*
X-222Y23359D01*
X-149Y23389D01*
X-87Y23437D01*
X1202Y24726D01*
X1594Y24688D01*
D02*
G37*
G36*
X14872Y26209D02*
X14950Y26199D01*
X15964D01*
X15979Y26179D01*
X16073Y26107D01*
X16183Y26062D01*
X16297Y26046D01*
X16302Y26033D01*
X16358Y25608D01*
X16351Y25601D01*
X15147D01*
X14767Y25759D01*
X14698Y26146D01*
X14799Y26239D01*
D01*
X14799Y26239D01*
X14872Y26209D01*
D02*
G37*
G36*
X3841Y26513D02*
X3730Y26467D01*
X3619Y26381D01*
X3533Y26270D01*
D01*
X3310Y26310D01*
X3219Y26380D01*
X3120Y26421D01*
Y26000D01*
X2880D01*
Y26421D01*
X2781Y26380D01*
X2690Y26310D01*
X2381Y26381D01*
X2270Y26467D01*
X2159Y26513D01*
X2236Y26899D01*
X3764D01*
X3841Y26513D01*
D02*
G37*
G36*
X16172Y24999D02*
X16312Y24899D01*
X16342Y24827D01*
X16390Y24764D01*
X16447Y24707D01*
Y23824D01*
X16308Y22767D01*
X16105Y22656D01*
X16073Y22643D01*
X16054Y22629D01*
X15963Y22579D01*
X15756Y22677D01*
X15700Y22750D01*
X15627Y22806D01*
X15570Y22829D01*
Y22500D01*
Y22171D01*
X15627Y22194D01*
X15627D01*
Y22194D01*
X15907Y22023D01*
X15979Y21929D01*
X15999Y21914D01*
Y20286D01*
X15613Y20209D01*
X15606Y20227D01*
X15550Y20300D01*
X15477Y20356D01*
X15420Y20379D01*
Y20050D01*
X15300D01*
Y19930D01*
X14971D01*
X14994Y19873D01*
X15050Y19800D01*
X15123Y19744D01*
X15154Y19731D01*
X15103Y19341D01*
X15083Y19338D01*
X14973Y19293D01*
X14879Y19221D01*
X14807Y19127D01*
X14762Y19017D01*
X14746Y18900D01*
X14762Y18783D01*
X14807Y18673D01*
X14879Y18579D01*
X14913Y18553D01*
X14913Y18233D01*
X14635Y17954D01*
X14454D01*
Y17954D01*
X14120D01*
Y17620D01*
X14454D01*
Y17656D01*
X14840Y17733D01*
X14844Y17723D01*
X14900Y17650D01*
X14973Y17594D01*
X15030Y17571D01*
Y17900D01*
X15150D01*
Y18020D01*
X15479D01*
X15456Y18077D01*
X15407Y18140D01*
X15458Y18531D01*
X15521Y18579D01*
X15593Y18673D01*
X15638Y18783D01*
X15654Y18900D01*
X15651Y18925D01*
X16084Y19358D01*
X16447Y19207D01*
Y17023D01*
X14879Y15454D01*
X14454Y15454D01*
D01*
X14454D01*
D01*
X14193Y15454D01*
X14193Y15454D01*
X14193Y15454D01*
X14120D01*
Y15000D01*
Y14546D01*
X14271D01*
X14271Y14546D01*
X14271Y14546D01*
X14454Y14546D01*
X14549Y14451D01*
Y13454D01*
X14549D01*
X14454D01*
X14271Y13454D01*
X14271Y13454D01*
X14271Y13454D01*
X14120D01*
Y13000D01*
X13880D01*
Y13454D01*
X13546D01*
Y13305D01*
X13395Y13395D01*
Y13395D01*
X13395Y13395D01*
X13395Y13395D01*
X13395Y13395D01*
D01*
X13280Y13484D01*
X13145Y13540D01*
X13000Y13559D01*
X12855Y13540D01*
X12720Y13484D01*
X12605Y13395D01*
X12411Y13381D01*
X12395Y13395D01*
X12395Y13395D01*
Y13395D01*
X12280Y13484D01*
X12145Y13540D01*
X12000Y13559D01*
X11855Y13540D01*
X11720Y13484D01*
X11605Y13395D01*
X11411Y13381D01*
X11395Y13395D01*
X11395Y13395D01*
Y13395D01*
X11280Y13484D01*
X11145Y13540D01*
X11000Y13559D01*
X10896Y13545D01*
X10829Y13604D01*
X10665Y14000D01*
X10829Y14396D01*
X10896Y14455D01*
X11000Y14441D01*
X11145Y14460D01*
X11280Y14516D01*
X11395Y14605D01*
X11589Y14619D01*
X11605Y14605D01*
X11605Y14605D01*
Y14605D01*
X11720Y14516D01*
X11855Y14460D01*
X12000Y14441D01*
X12145Y14460D01*
X12280Y14516D01*
X12395Y14605D01*
X12589Y14619D01*
X12605Y14605D01*
X12605Y14605D01*
Y14605D01*
X12720Y14516D01*
X12855Y14460D01*
X13000Y14441D01*
X13145Y14460D01*
X13280Y14516D01*
X13395Y14605D01*
D01*
X13395Y14605D01*
X13395Y14605D01*
X13395Y14605D01*
Y14605D01*
X13546Y14695D01*
Y14546D01*
X13880D01*
Y15000D01*
Y15454D01*
X13546D01*
Y15305D01*
X13395Y15395D01*
Y15395D01*
X13395Y15395D01*
X13395Y15395D01*
X13395Y15395D01*
D01*
X13280Y15484D01*
X13145Y15540D01*
X13000Y15559D01*
X12855Y15540D01*
X12720Y15484D01*
X12605Y15395D01*
X12411Y15381D01*
X12395Y15395D01*
X12395Y15395D01*
Y15395D01*
X12280Y15484D01*
X12145Y15540D01*
X12000Y15559D01*
X11855Y15540D01*
X11720Y15484D01*
X11605Y15395D01*
X11411Y15381D01*
X11395Y15395D01*
X11395Y15395D01*
Y15395D01*
X11280Y15484D01*
X11145Y15540D01*
X11000Y15559D01*
X10855Y15540D01*
X10720Y15484D01*
X10703Y15471D01*
X10350Y15645D01*
Y16100D01*
X9871D01*
X9716Y16164D01*
X9793Y16550D01*
X10250D01*
Y16832D01*
X10605Y17105D01*
X10720Y17016D01*
X10855Y16960D01*
X11000Y16941D01*
X11145Y16960D01*
X11280Y17016D01*
X11395Y17105D01*
X11589Y17119D01*
X11605Y17105D01*
X11605Y17105D01*
Y17105D01*
X11720Y17016D01*
X11855Y16960D01*
X12000Y16941D01*
X12145Y16960D01*
X12280Y17016D01*
X12395Y17105D01*
X12589Y17119D01*
X12605Y17105D01*
X12605Y17105D01*
Y17105D01*
X12720Y17016D01*
X12855Y16960D01*
X13000Y16941D01*
X13145Y16960D01*
X13280Y17016D01*
X13395Y17105D01*
D01*
X13395Y17105D01*
X13395Y17105D01*
X13395Y17105D01*
Y17105D01*
X13546Y17195D01*
Y17046D01*
X13880D01*
Y17500D01*
Y17954D01*
X13546D01*
Y17805D01*
X13546Y17805D01*
X13299Y17969D01*
Y18363D01*
X13321Y18379D01*
X13393Y18473D01*
X13438Y18583D01*
X13454Y18700D01*
X13438Y18817D01*
X13393Y18927D01*
X13321Y19021D01*
X13227Y19093D01*
X13218Y19097D01*
Y19476D01*
X13274Y19513D01*
X13280Y19516D01*
X13294Y19527D01*
X13546Y19695D01*
X13546Y19695D01*
Y19546D01*
X13880D01*
Y20000D01*
Y20454D01*
X13546D01*
Y20305D01*
X13395Y20395D01*
Y20395D01*
X13395Y20395D01*
X13395Y20395D01*
X13395Y20395D01*
D01*
X13280Y20484D01*
X13145Y20540D01*
X13000Y20559D01*
X12855Y20540D01*
X12720Y20484D01*
X12605Y20395D01*
X12411Y20381D01*
X12395Y20395D01*
X12395Y20395D01*
Y20395D01*
X12280Y20484D01*
X12145Y20540D01*
X12000Y20559D01*
X11855Y20540D01*
X11720Y20484D01*
X11605Y20395D01*
X11411Y20381D01*
X11395Y20395D01*
X11395Y20395D01*
Y20395D01*
X11280Y20484D01*
X11145Y20540D01*
X11051Y20552D01*
Y21948D01*
X11145Y21960D01*
X11280Y22016D01*
X11395Y22105D01*
X11589Y22119D01*
X11605Y22105D01*
X11605Y22105D01*
Y22105D01*
X11720Y22016D01*
X11855Y21960D01*
X12000Y21941D01*
X12145Y21960D01*
X12280Y22016D01*
X12395Y22105D01*
X12589Y22119D01*
X12605Y22105D01*
X12605Y22105D01*
Y22105D01*
X12720Y22016D01*
X12855Y21960D01*
X13000Y21941D01*
X13145Y21960D01*
X13280Y22016D01*
X13395Y22105D01*
D01*
X13395Y22105D01*
X13395Y22105D01*
X13395Y22105D01*
Y22105D01*
X13546Y22195D01*
Y22046D01*
X13880D01*
Y22500D01*
Y22954D01*
X13546D01*
Y22805D01*
X13395Y22895D01*
Y22895D01*
X13395Y22895D01*
X13395Y22895D01*
X13395Y22895D01*
D01*
X13280Y22984D01*
X13145Y23040D01*
X13000Y23059D01*
X12855Y23040D01*
X12720Y22984D01*
X12605Y22895D01*
X12411Y22881D01*
X12395Y22895D01*
X12395Y22895D01*
Y22895D01*
X12280Y22984D01*
X12145Y23040D01*
X12000Y23059D01*
X11855Y23040D01*
X11720Y22984D01*
X11605Y22895D01*
X11411Y22881D01*
X11395Y22895D01*
X11395Y22895D01*
Y22895D01*
X11280Y22984D01*
X11145Y23040D01*
X11000Y23059D01*
X10855Y23040D01*
X10720Y22984D01*
X10605Y22895D01*
X10596Y22884D01*
X10206Y22833D01*
X10127Y22893D01*
X10017Y22938D01*
X9900Y22954D01*
X9783Y22938D01*
X9673Y22893D01*
X9579Y22821D01*
X9507Y22727D01*
X9462Y22617D01*
X9446Y22500D01*
X9462Y22383D01*
X9507Y22273D01*
X9522Y22253D01*
X9348Y21900D01*
X8729D01*
X8729Y21900D01*
X8729Y21900D01*
X8650Y21900D01*
X8451Y22099D01*
Y22550D01*
X8441Y22628D01*
X8411Y22701D01*
X8363Y22763D01*
X8151Y22975D01*
X8154Y23000D01*
X8138Y23117D01*
X8093Y23227D01*
X8021Y23321D01*
X8014Y23326D01*
X8141Y23699D01*
X13450D01*
X13528Y23709D01*
X13600Y23739D01*
X13663Y23787D01*
X14213Y24337D01*
X14261Y24399D01*
X14279Y24444D01*
X14281Y24448D01*
X14321Y24479D01*
X14393Y24573D01*
X14438Y24683D01*
X14451Y24776D01*
X14792Y24973D01*
X15040Y24870D01*
X15860D01*
X16172Y24999D01*
D01*
Y24999D01*
D02*
G37*
G36*
X5619Y25619D02*
X5619Y25619D01*
Y25619D01*
X5730Y25533D01*
X5836Y25489D01*
X5784Y25099D01*
X5722Y25091D01*
X5649Y25061D01*
X5587Y25013D01*
X4387Y23813D01*
X4339Y23751D01*
X4309Y23678D01*
X4299Y23600D01*
Y22874D01*
X3979Y22645D01*
X3849Y22689D01*
Y24752D01*
X3839Y24829D01*
X3809Y24902D01*
X3761Y24964D01*
X3526Y25200D01*
X3745Y25527D01*
X3860Y25479D01*
X4000Y25461D01*
X4140Y25479D01*
X4270Y25533D01*
X4381Y25619D01*
X4467Y25730D01*
X4619Y25619D01*
X4619Y25619D01*
Y25619D01*
X4730Y25533D01*
X4860Y25479D01*
X5000Y25461D01*
X5140Y25479D01*
X5270Y25533D01*
X5381Y25619D01*
X5467Y25730D01*
X5619Y25619D01*
D02*
G37*
G36*
X12605Y19605D02*
X12605Y19605D01*
Y19605D01*
X12720Y19516D01*
X12782Y19490D01*
Y19097D01*
X12773Y19093D01*
X12679Y19021D01*
X12607Y18927D01*
X12562Y18817D01*
X12546Y18700D01*
X11667Y18584D01*
X11211Y18773D01*
X11190Y18797D01*
X11204Y18900D01*
X11188Y19017D01*
X11143Y19127D01*
X11145Y19460D01*
D01*
X11145Y19460D01*
X11280Y19516D01*
X11395Y19605D01*
X11589Y19619D01*
X11605Y19605D01*
X11605Y19605D01*
Y19605D01*
X11720Y19516D01*
X11855Y19460D01*
X12000Y19441D01*
X12145Y19460D01*
X12280Y19516D01*
X12395Y19605D01*
X12589Y19619D01*
X12605Y19605D01*
D02*
G37*
G36*
X13546Y12546D02*
X14006D01*
X14156Y12182D01*
X13825Y11851D01*
X13329D01*
X13324Y11880D01*
X12950D01*
Y12120D01*
X13279D01*
X13256Y12177D01*
X13280Y12516D01*
D01*
D01*
X13395Y12605D01*
D01*
X13395Y12605D01*
X13395Y12605D01*
X13395Y12605D01*
Y12605D01*
X13546Y12695D01*
Y12695D01*
Y12546D01*
D02*
G37*
G36*
X17957Y15068D02*
X17978Y13297D01*
X17594Y13138D01*
X17496Y13297D01*
X17375Y13438D01*
X17234Y13559D01*
X17075Y13657D01*
X16903Y13728D01*
X16721Y13772D01*
X16658Y13777D01*
X16522Y14146D01*
X17592Y15217D01*
X17957Y15068D01*
D02*
G37*
G36*
X-5058Y11961D02*
X-4961Y11802D01*
X-4840Y11660D01*
X-4698Y11539D01*
X-4539Y11442D01*
X-4405Y11386D01*
X-4482Y11000D01*
X-5000D01*
X-5500Y11500D01*
Y12018D01*
X-5114Y12095D01*
X-5058Y11961D01*
D02*
G37*
G36*
X17994Y12017D02*
X18000Y11500D01*
X17500Y11000D01*
X15440D01*
X15289Y11364D01*
X15463Y11537D01*
X15511Y11600D01*
X15511Y11600D01*
Y11600D01*
X15695Y11758D01*
D01*
D01*
D01*
X15837Y11637D01*
X15996Y11540D01*
X16168Y11469D01*
X16350Y11425D01*
X16535Y11411D01*
X16721Y11425D01*
X16903Y11469D01*
X17075Y11540D01*
X17234Y11637D01*
X17375Y11758D01*
X17496Y11900D01*
X17594Y12059D01*
X17607Y12091D01*
X17994Y12017D01*
D02*
G37*
G36*
X4910Y19335D02*
X4787Y19213D01*
X4739Y19151D01*
X4709Y19078D01*
X4699Y19000D01*
Y18899D01*
X4643Y18857D01*
X4563Y18752D01*
X4513Y18631D01*
X4505Y18574D01*
X4245Y18548D01*
X4069Y18666D01*
X4068Y18670D01*
X4071Y18679D01*
X4143Y18773D01*
X4188Y18883D01*
X4204Y19000D01*
X4188Y19117D01*
X4143Y19227D01*
X4071Y19321D01*
X4067Y19334D01*
X4191Y19699D01*
X4759D01*
X4910Y19335D01*
D02*
G37*
G36*
X7836Y18689D02*
X8449Y18075D01*
Y16836D01*
X8429Y16821D01*
X8357Y16727D01*
X8312Y16617D01*
X8296Y16500D01*
X8312Y16383D01*
X8357Y16273D01*
X8429Y16179D01*
X8523Y16107D01*
X8633Y16062D01*
X8750Y16046D01*
X8867Y16062D01*
X8977Y16107D01*
X8997Y16122D01*
X9350Y15948D01*
Y14900D01*
X9976D01*
X10185Y14761D01*
X10264Y14527D01*
X10163Y14450D01*
X9600D01*
Y14450D01*
X9500Y14350D01*
X9500Y14350D01*
X9427Y14406D01*
X9370Y14429D01*
Y14100D01*
X9250D01*
Y13980D01*
X8921D01*
X8944Y13923D01*
X9000Y13850D01*
X9073Y13794D01*
X9159Y13759D01*
X9250Y13747D01*
X9351Y13677D01*
X9401Y13298D01*
X9391Y13233D01*
X9323Y13206D01*
X9250Y13150D01*
X9194Y13077D01*
X9171Y13020D01*
X9910D01*
X10026Y13068D01*
X10001Y13058D01*
X10248Y13025D01*
X10453Y12907D01*
X10460Y12855D01*
X10516Y12720D01*
X10605Y12605D01*
X10720Y12516D01*
X10855Y12460D01*
X11000Y12441D01*
X11145Y12460D01*
X11280Y12516D01*
X11395Y12605D01*
X11589Y12619D01*
X11605Y12605D01*
X11605Y12605D01*
Y12605D01*
X11720Y12516D01*
X11855Y12460D01*
X12000Y12441D01*
X12145Y12460D01*
X12280Y12516D01*
X12282Y12518D01*
X12646Y12367D01*
X12656Y12289D01*
X12416Y11976D01*
X11465Y11851D01*
X9475D01*
X5451Y15875D01*
Y16768D01*
X5493Y16823D01*
X5538Y16933D01*
X5554Y17050D01*
X5538Y17167D01*
X5493Y17277D01*
X5439Y17347D01*
X5504Y17479D01*
X5674Y17701D01*
X5702D01*
X5779Y17711D01*
X5852Y17741D01*
X5914Y17789D01*
X7013Y18887D01*
X7061Y18950D01*
X7061D01*
X7105Y18991D01*
Y18991D01*
X7836Y18689D01*
D02*
G37*
G36*
X4696Y17479D02*
X4761Y17347D01*
X4707Y17277D01*
X4662Y17167D01*
X4646Y17050D01*
X4662Y16933D01*
X4707Y16823D01*
X4779Y16729D01*
X4849Y16675D01*
Y15750D01*
X4849Y15750D01*
X4849D01*
X4859Y15672D01*
X4889Y15599D01*
X4937Y15537D01*
X5819Y14655D01*
X5765Y14524D01*
X5593Y14490D01*
X5086Y14740D01*
X4613Y15213D01*
X4550Y15261D01*
X4478Y15291D01*
X4400Y15301D01*
X4191D01*
X4067Y15666D01*
X4071Y15679D01*
X4143Y15773D01*
X4188Y15883D01*
X4204Y16000D01*
X4188Y16117D01*
X4143Y16227D01*
X4071Y16321D01*
X3977Y16607D01*
X4071Y16679D01*
X4143Y16773D01*
X4188Y16883D01*
X4204Y17000D01*
X4188Y17117D01*
X4143Y17227D01*
X4071Y17321D01*
X4065Y17338D01*
X4158Y17610D01*
X4546Y17674D01*
X4696Y17479D01*
D02*
G37*
G36*
X10125Y19305D02*
X10267Y19093D01*
X10152Y18717D01*
X9632Y18501D01*
X9575D01*
X9089Y18986D01*
X9240Y19350D01*
X10066D01*
X10125Y19305D01*
D02*
G37*
G36*
X16180Y40109D02*
X16168Y40106D01*
X15996Y40035D01*
X15837Y39937D01*
X15695Y39816D01*
X15574Y39675D01*
X15477Y39516D01*
X15406Y39343D01*
X15362Y39162D01*
X15348Y38976D01*
X15362Y38791D01*
X15369Y38764D01*
X15170Y38512D01*
X15120Y38491D01*
Y38000D01*
Y37546D01*
X15454D01*
Y37872D01*
X15812Y38037D01*
X15837Y38015D01*
X15996Y37918D01*
X16168Y37847D01*
X16350Y37803D01*
X16535Y37788D01*
X16721Y37803D01*
X16903Y37847D01*
X17075Y37918D01*
X17234Y38015D01*
X17324Y38092D01*
X17544Y37992D01*
X17683Y37874D01*
X17698Y36603D01*
X17400Y36600D01*
Y36600D01*
X15800D01*
Y36454D01*
X15454D01*
Y36454D01*
X15120D01*
Y36000D01*
Y35546D01*
X15454D01*
Y35546D01*
X15654D01*
X15800Y35400D01*
Y35400D01*
X17400D01*
Y35400D01*
X17713D01*
X17719Y34880D01*
X17442Y34600D01*
X15900D01*
Y33400D01*
X17457D01*
D01*
X17500Y33400D01*
X17500D01*
X17737D01*
X17824Y26168D01*
X17461Y26015D01*
X17201Y26275D01*
Y30850D01*
X17191Y30928D01*
X17161Y31000D01*
X17113Y31063D01*
X16301Y31875D01*
X16304Y31900D01*
X16288Y32017D01*
X16243Y32127D01*
X16171Y32221D01*
X16077Y32293D01*
X15967Y32338D01*
X15850Y32354D01*
X15733Y32338D01*
X15623Y32293D01*
X15529Y32221D01*
X15457Y32127D01*
X15412Y32017D01*
X15396Y31900D01*
X15412Y31783D01*
X15457Y31673D01*
X15529Y31579D01*
X15623Y31507D01*
X15733Y31462D01*
X15850Y31446D01*
X15875Y31449D01*
X16599Y30725D01*
Y27377D01*
X16493Y27120D01*
X16303Y26953D01*
X16300Y26954D01*
X16183Y26938D01*
X16073Y26893D01*
X15979Y26821D01*
X15964Y26801D01*
X15075D01*
X14463Y27413D01*
X14401Y27461D01*
X14328Y27491D01*
X14250Y27501D01*
X-400D01*
X-478Y27491D01*
X-551Y27461D01*
X-613Y27413D01*
X-2335Y25690D01*
X-2699Y25841D01*
Y26414D01*
X-2679Y26429D01*
X-2607Y26523D01*
X-2562Y26633D01*
X-2546Y26750D01*
X-2562Y26867D01*
X-2576Y26902D01*
X-2235Y27099D01*
X-2221Y27081D01*
X-2127Y27009D01*
X-2017Y26963D01*
X-1900Y26948D01*
X-1783Y26963D01*
X-1673Y27009D01*
X-1579Y27081D01*
X-1507Y27175D01*
X-1462Y27284D01*
X-1446Y27402D01*
X-1462Y27519D01*
X-1507Y27629D01*
X-1579Y27723D01*
X-1673Y27795D01*
X-1783Y27840D01*
X-1900Y27855D01*
X-1925Y27852D01*
X-3849Y29776D01*
Y31799D01*
X-2250D01*
X-2172Y31809D01*
X-2100Y31839D01*
X-2037Y31887D01*
X-2037Y31887D01*
X-2037Y31887D01*
X-1775Y32149D01*
X-1750Y32146D01*
X-1633Y32162D01*
X-1523Y32207D01*
X-1429Y32279D01*
X-1357Y32373D01*
X-1312Y32483D01*
X-1296Y32600D01*
X-1312Y32717D01*
X-1357Y32827D01*
X-1429Y32921D01*
X-1523Y32993D01*
X-1633Y33038D01*
X-1750Y33054D01*
D01*
D01*
D01*
X-1750Y33054D01*
X-1750Y33054D01*
X-1950Y33094D01*
Y33380D01*
X-2950D01*
Y33000D01*
X-2871D01*
X-2680Y32921D01*
X-2731Y32531D01*
X-3716Y32401D01*
X-4150D01*
X-4228Y32391D01*
X-4300Y32361D01*
X-4489Y32630D01*
X-4730D01*
Y32393D01*
X-4442Y32171D01*
X-4451Y32100D01*
Y29652D01*
X-4451Y29652D01*
X-4451D01*
X-4441Y29574D01*
X-4411Y29501D01*
X-4363Y29439D01*
X-2457Y27533D01*
X-2509Y27143D01*
X-2665Y27053D01*
X-2679Y27071D01*
X-2773Y27143D01*
X-2883Y27188D01*
X-3000Y27204D01*
X-3117Y27188D01*
X-3227Y27143D01*
X-3321Y27071D01*
X-3393Y26977D01*
X-3438Y26867D01*
X-3454Y26750D01*
X-3438Y26633D01*
X-3393Y26523D01*
X-3321Y26429D01*
X-3301Y26414D01*
Y24900D01*
X-3301Y24900D01*
X-3301D01*
X-3291Y24822D01*
X-3261Y24750D01*
X-3261Y24750D01*
X-3500Y24458D01*
X-3619Y24443D01*
X-3729Y24397D01*
X-3824Y24324D01*
X-3824D01*
X-4105Y24395D01*
X-4220Y24484D01*
X-4355Y24540D01*
X-4500Y24559D01*
X-4645Y24540D01*
X-4780Y24484D01*
X-4895Y24395D01*
X-4984Y24280D01*
X-5040Y24145D01*
X-5059Y24000D01*
X-5040Y23855D01*
X-4984Y23720D01*
X-4895Y23605D01*
X-4895Y23605D01*
X-4780Y23516D01*
X-4895Y23395D01*
X-4895Y23395D01*
X-4895D01*
X-4984Y23280D01*
X-5040Y23145D01*
X-5059Y23000D01*
X-5040Y22855D01*
X-4984Y22720D01*
X-4895Y22605D01*
X-4895Y22605D01*
X-4780Y22516D01*
X-4895Y22395D01*
X-4895Y22395D01*
X-4895D01*
X-4984Y22280D01*
X-5040Y22145D01*
X-5059Y22000D01*
X-5040Y21855D01*
X-4984Y21720D01*
X-4895Y21605D01*
X-4780Y21516D01*
X-4645Y21460D01*
X-4500Y21441D01*
X-4382Y21456D01*
X-2951Y20025D01*
Y18314D01*
X-3258Y17913D01*
X-3278Y17900D01*
X-3380Y17942D01*
Y17500D01*
X-3620D01*
Y17942D01*
X-3729Y17897D01*
X-3824Y17824D01*
X-3824D01*
X-4105Y17895D01*
X-4220Y17984D01*
X-4355Y18040D01*
X-4500Y18059D01*
X-4553Y18052D01*
X-4705Y18185D01*
X-4849Y18533D01*
Y18625D01*
X-4537Y18937D01*
X-4489Y19000D01*
X-4459Y19072D01*
X-4459D01*
D01*
X-4459Y19072D01*
D01*
D01*
X-4459D01*
X-4459Y19072D01*
X-4357Y19323D01*
X-4357Y19323D01*
D01*
X-4312Y19433D01*
X-4296Y19550D01*
X-4312Y19667D01*
X-4357Y19777D01*
X-4429Y19871D01*
X-4523Y19943D01*
X-4633Y19988D01*
X-4750Y20004D01*
X-4867Y19988D01*
X-4977Y19943D01*
X-5071Y19871D01*
X-5127Y19798D01*
X-5492Y19921D01*
X-5500Y19925D01*
Y32410D01*
X-5127Y32536D01*
X-5100Y32500D01*
X-5027Y32444D01*
X-4970Y32421D01*
Y32750D01*
Y33079D01*
X-5027Y33056D01*
X-5100Y33000D01*
X-5127Y32964D01*
X-5500Y33090D01*
Y38518D01*
X-5114Y38595D01*
X-5058Y38461D01*
X-4961Y38302D01*
X-4840Y38160D01*
X-4698Y38039D01*
X-4539Y37942D01*
X-4447Y37903D01*
X-4500Y37503D01*
X-4591Y37491D01*
X-4677Y37456D01*
X-4750Y37400D01*
X-4806Y37327D01*
X-4841Y37241D01*
X-4853Y37150D01*
Y37120D01*
X-4500D01*
Y37000D01*
X-4380D01*
Y36521D01*
X-4323Y36544D01*
X-4250Y36600D01*
X-3893Y36623D01*
Y36623D01*
X-3893Y36623D01*
X-3821Y36529D01*
X-3727Y36457D01*
X-3617Y36412D01*
X-3500Y36396D01*
X-3383Y36412D01*
X-3273Y36457D01*
X-3179Y36529D01*
X-3173Y36537D01*
X-2800Y36411D01*
Y36050D01*
X-1600D01*
Y37222D01*
X-1600Y37222D01*
X-1600Y37222D01*
X-1600Y37250D01*
X-1700Y37500D01*
D01*
X-1700Y37528D01*
X-1700Y37528D01*
X-1700Y37528D01*
Y37880D01*
X-2700D01*
Y37528D01*
X-2700Y37528D01*
X-2700Y37528D01*
X-2700Y37500D01*
D01*
X-2724Y37440D01*
X-3114Y37386D01*
X-3179Y37471D01*
X-3273Y37543D01*
X-3372Y37584D01*
X-3376Y37635D01*
X-3325Y38025D01*
X-3302Y38039D01*
X-3160Y38160D01*
X-3069Y38266D01*
X-2847Y38184D01*
X-2742Y38120D01*
X-2320D01*
Y38500D01*
X-2584D01*
X-2828Y38809D01*
X-2827Y38814D01*
X-2812Y39000D01*
X-2827Y39186D01*
X-2870Y39367D01*
X-2942Y39539D01*
X-3039Y39698D01*
X-3160Y39840D01*
X-3302Y39961D01*
X-3461Y40058D01*
X-3595Y40114D01*
X-3518Y40500D01*
X1910D01*
X2036Y40127D01*
X2000Y40100D01*
X1944Y40027D01*
X1921Y39970D01*
X2579D01*
X2556Y40027D01*
X2500Y40100D01*
X2464Y40127D01*
X2590Y40500D01*
X5600D01*
Y39350D01*
X6600D01*
Y40500D01*
X8900D01*
D01*
Y40500D01*
X8900Y40222D01*
X8900Y40222D01*
X8900Y40222D01*
Y39300D01*
X9900D01*
Y40222D01*
X9900Y40222D01*
X9900Y40222D01*
X9900Y40500D01*
X9900Y40500D01*
X12550D01*
D01*
Y40500D01*
X12550Y40222D01*
X12550Y40222D01*
X12550Y40222D01*
Y39300D01*
X13550D01*
Y40222D01*
X13550Y40222D01*
X13550Y40222D01*
X13550Y40500D01*
X13550Y40500D01*
X16134D01*
X16180Y40109D01*
D02*
G37*
%LPC*%
G36*
X14180Y39180D02*
X13971D01*
X13994Y39123D01*
X14050Y39050D01*
X14123Y38994D01*
X14180Y38971D01*
Y39180D01*
D02*
G37*
G36*
X11820Y38629D02*
Y38420D01*
X12029D01*
X12006Y38477D01*
X11950Y38550D01*
X11877Y38606D01*
X11820Y38629D01*
D02*
G37*
G36*
X14454Y17380D02*
X14120D01*
Y17046D01*
X14454D01*
Y17380D01*
D02*
G37*
G36*
X15479Y17780D02*
X15270D01*
Y17571D01*
X15327Y17594D01*
X15400Y17650D01*
X15456Y17723D01*
X15479Y17780D01*
D02*
G37*
G36*
X14629Y39180D02*
X14420D01*
Y38971D01*
X14477Y38994D01*
X14550Y39050D01*
X14606Y39123D01*
X14629Y39180D01*
D02*
G37*
G36*
X14000Y38559D02*
X13855Y38540D01*
X13720Y38484D01*
X13605Y38395D01*
X13411Y38381D01*
X13395Y38395D01*
X13395Y38395D01*
Y38395D01*
X13280Y38484D01*
X13145Y38540D01*
X13000Y38559D01*
X12855Y38540D01*
X12720Y38484D01*
X12605Y38395D01*
X12516Y38280D01*
X12460Y38145D01*
X12441Y38000D01*
X12460Y37855D01*
X12516Y37720D01*
X12605Y37605D01*
X12720Y37516D01*
X12855Y37460D01*
X13000Y37441D01*
X13145Y37460D01*
X13280Y37516D01*
X13395Y37605D01*
X13589Y37619D01*
X13605Y37605D01*
X13605Y37605D01*
Y37605D01*
X13720Y37516D01*
X13855Y37460D01*
X14000Y37441D01*
X14145Y37460D01*
X14280Y37516D01*
X14395Y37605D01*
D01*
X14395Y37605D01*
X14395Y37605D01*
X14395Y37605D01*
Y37605D01*
X14546Y37695D01*
Y37546D01*
X14880D01*
Y38000D01*
Y38454D01*
X14546D01*
Y38305D01*
X14395Y38395D01*
Y38395D01*
X14395Y38395D01*
X14395Y38395D01*
X14395Y38395D01*
D01*
X14280Y38484D01*
X14145Y38540D01*
X14000Y38559D01*
D02*
G37*
G36*
X11580Y38629D02*
X11523Y38606D01*
X11450Y38550D01*
X11394Y38477D01*
X11359Y38391D01*
X11347Y38302D01*
X11347Y38302D01*
X11242Y38308D01*
X11242D01*
X10963Y38327D01*
X10954Y38454D01*
X10954D01*
D01*
D01*
X10942D01*
Y38454D01*
X10620D01*
Y38000D01*
X10380D01*
Y38454D01*
X10046D01*
Y38305D01*
X9895Y38395D01*
Y38395D01*
X9895Y38395D01*
X9895Y38395D01*
X9895Y38395D01*
D01*
X9780Y38484D01*
X9645Y38540D01*
X9500Y38559D01*
X9355Y38540D01*
X9220Y38484D01*
X9105Y38395D01*
X8911Y38381D01*
X8895Y38395D01*
X8895Y38395D01*
Y38395D01*
X8780Y38484D01*
X8645Y38540D01*
X8500Y38559D01*
X8355Y38540D01*
X8220Y38484D01*
X8105Y38395D01*
X8016Y38280D01*
X7960Y38145D01*
X7941Y38000D01*
X7960Y37855D01*
X8016Y37720D01*
X8105Y37605D01*
X8220Y37516D01*
X8355Y37460D01*
X8500Y37441D01*
X8645Y37460D01*
X8780Y37516D01*
X8895Y37605D01*
X9089Y37619D01*
X9105Y37605D01*
X9105Y37605D01*
Y37605D01*
X9220Y37516D01*
X9355Y37460D01*
X9500Y37441D01*
Y36400D01*
X11220D01*
X11264Y36342D01*
X11316Y36237D01*
D01*
X11405Y36057D01*
X11405D01*
X11410Y36047D01*
X11394Y36027D01*
X11371Y35970D01*
X12029D01*
X12006Y36027D01*
X11950Y36100D01*
X11877Y36156D01*
X11791Y36191D01*
X11700Y36203D01*
X11700Y36326D01*
X11700D01*
X11699Y36400D01*
X11699Y36400D01*
X11699Y36400D01*
Y37554D01*
X11699D01*
Y37600D01*
X11699D01*
X11700Y37947D01*
X11791Y37959D01*
X11877Y37994D01*
X11950Y38050D01*
X12006Y38123D01*
X12029Y38180D01*
X11700D01*
Y38300D01*
X11580D01*
Y38629D01*
D02*
G37*
G36*
X14454Y22380D02*
X14120D01*
Y22046D01*
X14454D01*
Y22380D01*
D02*
G37*
G36*
X15330D02*
X15121D01*
X15144Y22323D01*
X15200Y22250D01*
X15273Y22194D01*
X15330Y22171D01*
Y22380D01*
D02*
G37*
G36*
X14454Y19880D02*
X14120D01*
Y19546D01*
X14454D01*
Y19880D01*
D02*
G37*
G36*
Y20454D02*
X14120D01*
Y20120D01*
X14454D01*
Y20454D01*
D02*
G37*
G36*
X15180Y20379D02*
X15123Y20356D01*
X15050Y20300D01*
X14994Y20227D01*
X14971Y20170D01*
X15180D01*
Y20379D01*
D02*
G37*
G36*
X9829Y12780D02*
X9620D01*
Y12571D01*
X9677Y12594D01*
X9750Y12650D01*
X9806Y12723D01*
X9829Y12780D01*
D02*
G37*
G36*
X14420Y39629D02*
Y39420D01*
X14629D01*
X14606Y39477D01*
X14550Y39550D01*
X14477Y39606D01*
X14420Y39629D01*
D02*
G37*
G36*
X-1500Y13954D02*
X-1617Y13938D01*
X-1727Y13893D01*
X-1821Y13821D01*
X-1893Y13727D01*
X-1938Y13617D01*
X-1954Y13500D01*
X-1938Y13383D01*
X-1893Y13273D01*
X-1821Y13179D01*
X-1727Y13107D01*
X-1617Y13062D01*
X-1500Y13046D01*
X-1383Y13062D01*
X-1273Y13107D01*
X-1179Y13179D01*
X-1107Y13273D01*
X-1062Y13383D01*
X-1046Y13500D01*
X-1062Y13617D01*
X-1107Y13727D01*
X-1179Y13821D01*
X-1273Y13893D01*
X-1383Y13938D01*
X-1500Y13954D01*
D02*
G37*
G36*
X2579Y39730D02*
X2370D01*
Y39521D01*
X2427Y39544D01*
X2500Y39600D01*
X2556Y39673D01*
X2579Y39730D01*
D02*
G37*
G36*
X2130D02*
X1921D01*
X1944Y39673D01*
X2000Y39600D01*
X2073Y39544D01*
X2130Y39521D01*
Y39730D01*
D02*
G37*
G36*
X9380Y12780D02*
X9171D01*
X9194Y12723D01*
X9250Y12650D01*
X9323Y12594D01*
X9380Y12571D01*
Y12780D01*
D02*
G37*
G36*
X7129Y16130D02*
X6920D01*
Y15921D01*
X6977Y15944D01*
X7050Y16000D01*
X7106Y16073D01*
X7129Y16130D01*
D02*
G37*
G36*
X6680Y16579D02*
X6623Y16556D01*
X6550Y16500D01*
X6494Y16427D01*
X6471Y16370D01*
X6680D01*
Y16579D01*
D02*
G37*
G36*
X6920D02*
Y16370D01*
X7129D01*
X7106Y16427D01*
X7050Y16500D01*
X6977Y16556D01*
X6920Y16579D01*
D02*
G37*
G36*
X14180Y39629D02*
X14123Y39606D01*
X14050Y39550D01*
X13994Y39477D01*
X13971Y39420D01*
X14180D01*
Y39629D01*
D02*
G37*
G36*
X9130Y14429D02*
X9073Y14406D01*
X9000Y14350D01*
X8944Y14277D01*
X8921Y14220D01*
X9130D01*
Y14429D01*
D02*
G37*
G36*
X6680Y16130D02*
X6471D01*
X6494Y16073D01*
X6550Y16000D01*
X6623Y15944D01*
X6680Y15921D01*
Y16130D01*
D02*
G37*
G36*
X14454Y22954D02*
X14120D01*
Y22620D01*
X14454D01*
Y22954D01*
D02*
G37*
G36*
X4730Y33779D02*
X4673Y33756D01*
X4600Y33700D01*
X4544Y33627D01*
X4521Y33570D01*
X4730D01*
Y33779D01*
D02*
G37*
G36*
X4970D02*
Y33570D01*
X5179D01*
X5156Y33627D01*
X5100Y33700D01*
X5027Y33756D01*
X4970Y33779D01*
D02*
G37*
G36*
X-4620Y34380D02*
X-4853D01*
Y34350D01*
X-4841Y34259D01*
X-4806Y34173D01*
X-4750Y34100D01*
X-4677Y34044D01*
X-4620Y34021D01*
Y34380D01*
D02*
G37*
G36*
X4730Y33330D02*
X4521D01*
X4544Y33273D01*
X4600Y33200D01*
X4673Y33144D01*
X4730Y33121D01*
Y33330D01*
D02*
G37*
G36*
X5179D02*
X4970D01*
Y33121D01*
X5027Y33144D01*
X5100Y33200D01*
X5156Y33273D01*
X5179Y33330D01*
D02*
G37*
G36*
X15454Y33880D02*
X15120D01*
Y33546D01*
X15454D01*
Y33880D01*
D02*
G37*
G36*
X-1850Y35450D02*
X-3050D01*
Y35305D01*
X-3377Y35086D01*
X-3383Y35088D01*
X-3500Y35104D01*
X-3617Y35088D01*
X-3727Y35043D01*
X-3821Y34971D01*
X-3893Y34877D01*
Y34877D01*
X-4250Y34900D01*
X-4323Y34956D01*
X-4380Y34979D01*
Y34500D01*
Y34021D01*
X-4323Y34044D01*
X-4250Y34100D01*
X-3893Y34123D01*
X-3893Y34123D01*
Y34123D01*
X-3821Y34029D01*
X-3727Y33957D01*
X-3617Y33912D01*
X-3500Y33896D01*
X-3383Y33912D01*
X-3277Y33955D01*
X-3266Y33947D01*
X-3015Y33620D01*
X-1950D01*
Y33972D01*
X-1950Y33972D01*
X-1950Y33972D01*
X-1950Y34000D01*
D01*
X-1850Y34250D01*
X-1850Y34278D01*
X-1850Y34278D01*
X-1850Y34278D01*
Y35450D01*
D02*
G37*
G36*
X11580Y35730D02*
X11371D01*
X11394Y35673D01*
X11450Y35600D01*
X11523Y35544D01*
X11580Y35521D01*
Y35730D01*
D02*
G37*
G36*
X12029D02*
X11820D01*
Y35521D01*
X11877Y35544D01*
X11950Y35600D01*
X12006Y35673D01*
X12029Y35730D01*
D02*
G37*
G36*
X15454Y34454D02*
X15120D01*
Y34120D01*
X15454D01*
Y34454D01*
D02*
G37*
G36*
X14000Y34559D02*
X13855Y34540D01*
X13720Y34484D01*
X13605Y34395D01*
X13411Y34381D01*
X13395Y34395D01*
X13395Y34395D01*
Y34395D01*
X13280Y34484D01*
X13145Y34540D01*
X13000Y34559D01*
X12855Y34540D01*
X12720Y34484D01*
X12605Y34395D01*
X12516Y34280D01*
X12460Y34145D01*
X12441Y34000D01*
X12460Y33855D01*
X12516Y33720D01*
X12605Y33605D01*
X12720Y33516D01*
X12855Y33460D01*
X13000Y33441D01*
X13145Y33460D01*
X13280Y33516D01*
X13395Y33605D01*
X13589Y33619D01*
X13605Y33605D01*
X13605Y33605D01*
Y33605D01*
X13720Y33516D01*
X13855Y33460D01*
X14000Y33441D01*
X14145Y33460D01*
X14280Y33516D01*
X14395Y33605D01*
D01*
X14395Y33605D01*
X14395Y33605D01*
X14395Y33605D01*
Y33605D01*
X14546Y33695D01*
Y33546D01*
X14880D01*
Y34000D01*
Y34454D01*
X14546D01*
Y34305D01*
X14395Y34395D01*
Y34395D01*
X14395Y34395D01*
X14395Y34395D01*
X14395Y34395D01*
D01*
X14280Y34484D01*
X14145Y34540D01*
X14000Y34559D01*
D02*
G37*
G36*
X-4620Y34979D02*
X-4677Y34956D01*
X-4750Y34900D01*
X-4806Y34827D01*
X-4841Y34741D01*
X-4853Y34650D01*
Y34620D01*
X-4620D01*
Y34979D01*
D02*
G37*
G36*
X3000Y33579D02*
X2883Y33563D01*
X2773Y33518D01*
X2679Y33446D01*
X2607Y33352D01*
X2562Y33242D01*
X2546Y33125D01*
X2562Y33008D01*
X2607Y32898D01*
D01*
X2616Y32868D01*
X2530Y32499D01*
X2346Y32408D01*
X2270Y32467D01*
X2140Y32521D01*
X2000Y32539D01*
X1860Y32521D01*
X1730Y32467D01*
X1619Y32381D01*
X1533Y32270D01*
D01*
X1310Y32310D01*
X1219Y32380D01*
X1120Y32421D01*
Y32000D01*
Y31579D01*
X1219Y31620D01*
X1310Y31690D01*
X1430Y31712D01*
X1677Y31405D01*
X1464Y30890D01*
X375Y29801D01*
X350Y29804D01*
X233Y29788D01*
X123Y29743D01*
X29Y29671D01*
X-43Y29577D01*
X-88Y29467D01*
X-104Y29350D01*
X-88Y29233D01*
X-43Y29123D01*
X29Y29029D01*
X123Y28957D01*
X233Y28912D01*
X350Y28896D01*
X467Y28912D01*
X577Y28957D01*
X671Y29029D01*
X743Y29123D01*
X788Y29233D01*
X804Y29350D01*
X801Y29375D01*
X2900Y31474D01*
X3000Y31461D01*
X3140Y31479D01*
X3270Y31533D01*
X3381Y31619D01*
X3467Y31730D01*
X3619Y31619D01*
X3619Y31619D01*
Y31619D01*
X3730Y31533D01*
X3860Y31479D01*
X4000Y31461D01*
X4140Y31479D01*
X4270Y31533D01*
X4381Y31619D01*
X4467Y31730D01*
X4619Y31619D01*
X4619Y31619D01*
Y31619D01*
X4730Y31533D01*
X4860Y31479D01*
X5000Y31461D01*
X5140Y31479D01*
X5270Y31533D01*
X5381Y31619D01*
X5467Y31730D01*
X5619Y31619D01*
X5619Y31619D01*
Y31619D01*
X5730Y31533D01*
X5860Y31479D01*
X6000Y31461D01*
X6140Y31479D01*
X6270Y31533D01*
X6381Y31619D01*
X6467Y31730D01*
X6619Y31619D01*
X6619Y31619D01*
Y31619D01*
X6730Y31533D01*
X6860Y31479D01*
X7000Y31461D01*
X7140Y31479D01*
X7270Y31533D01*
X7381Y31619D01*
X7467Y31730D01*
X7619Y31619D01*
X7619Y31619D01*
Y31619D01*
X7730Y31533D01*
X7860Y31479D01*
X8000Y31461D01*
X8140Y31479D01*
X8270Y31533D01*
X8381Y31619D01*
X8467Y31730D01*
X8619Y31619D01*
X8619Y31619D01*
Y31619D01*
X8730Y31533D01*
X8860Y31479D01*
X9000Y31461D01*
X9140Y31479D01*
X9270Y31533D01*
X9381Y31619D01*
X9467Y31730D01*
X9619Y31619D01*
X9619Y31619D01*
Y31619D01*
X9730Y31533D01*
X9860Y31479D01*
X10000Y31461D01*
X10140Y31479D01*
X10270Y31533D01*
X10381Y31619D01*
X10467Y31730D01*
X10619Y31619D01*
X10619Y31619D01*
Y31619D01*
X10730Y31533D01*
X10860Y31479D01*
X11000Y31461D01*
X11140Y31479D01*
X11270Y31533D01*
X11381Y31619D01*
X11467Y31730D01*
X11619Y31619D01*
X11619Y31619D01*
Y31619D01*
X11730Y31533D01*
X11860Y31479D01*
X12000Y31461D01*
X12140Y31479D01*
X12270Y31533D01*
X12381Y31619D01*
X12467Y31730D01*
X12619Y31619D01*
X12619Y31619D01*
Y31619D01*
X12730Y31533D01*
X12860Y31479D01*
X13000Y31461D01*
X13140Y31479D01*
X13270Y31533D01*
X13381Y31619D01*
X13467Y31730D01*
X13619Y31619D01*
X13619Y31619D01*
Y31619D01*
X13730Y31533D01*
X13860Y31479D01*
X14000Y31461D01*
X14140Y31479D01*
X14270Y31533D01*
X14381Y31619D01*
X14467Y31730D01*
X14521Y31860D01*
X14539Y32000D01*
X14521Y32140D01*
X14467Y32270D01*
X14381Y32381D01*
X14270Y32467D01*
X14140Y32521D01*
X14000Y32539D01*
X13860Y32521D01*
X13730Y32467D01*
X13619Y32381D01*
X13533Y32270D01*
D01*
X13381Y32381D01*
X13381Y32381D01*
Y32381D01*
X13270Y32467D01*
X13140Y32521D01*
X13000Y32539D01*
X12860Y32521D01*
X12730Y32467D01*
X12619Y32381D01*
X12533Y32270D01*
D01*
X12381Y32381D01*
X12381Y32381D01*
Y32381D01*
X12270Y32467D01*
X12140Y32521D01*
X12000Y32539D01*
X11860Y32521D01*
X11730Y32467D01*
X11619Y32381D01*
X11533Y32270D01*
D01*
X11381Y32381D01*
X11381Y32381D01*
Y32381D01*
X11270Y32467D01*
X11140Y32521D01*
X11000Y32539D01*
X10860Y32521D01*
X10730Y32467D01*
X10619Y32381D01*
X10533Y32270D01*
D01*
X10381Y32381D01*
X10381Y32381D01*
Y32381D01*
X10270Y32467D01*
X10140Y32521D01*
X10000Y32539D01*
X9860Y32521D01*
X9730Y32467D01*
X9619Y32381D01*
X9533Y32270D01*
D01*
X9381Y32381D01*
X9381Y32381D01*
Y32381D01*
X9270Y32467D01*
X9140Y32521D01*
X9000Y32539D01*
X8860Y32521D01*
X8730Y32467D01*
X8619Y32381D01*
X8533Y32270D01*
D01*
X8381Y32381D01*
X8381Y32381D01*
Y32381D01*
X8270Y32467D01*
X8140Y32521D01*
X8000Y32539D01*
X7860Y32521D01*
X7730Y32467D01*
X7619Y32381D01*
X7533Y32270D01*
D01*
X7381Y32381D01*
X7381Y32381D01*
Y32381D01*
X7270Y32467D01*
X7140Y32521D01*
X7000Y32539D01*
X6860Y32521D01*
X6730Y32467D01*
X6619Y32381D01*
X6533Y32270D01*
D01*
X6381Y32381D01*
X6381Y32381D01*
Y32381D01*
X6270Y32467D01*
X6140Y32521D01*
X6000Y32539D01*
X5860Y32521D01*
X5730Y32467D01*
X5619Y32381D01*
X5533Y32270D01*
D01*
X5381Y32381D01*
X5381Y32381D01*
Y32381D01*
X5270Y32467D01*
X5140Y32521D01*
X5000Y32539D01*
X4860Y32521D01*
X4730Y32467D01*
X4619Y32381D01*
X4533Y32270D01*
D01*
X4381Y32381D01*
X4381Y32381D01*
Y32381D01*
X4270Y32467D01*
X4140Y32521D01*
X4000Y32539D01*
X3860Y32521D01*
X3730Y32467D01*
X3654Y32408D01*
X3470Y32499D01*
X3384Y32868D01*
X3393Y32898D01*
D01*
X3438Y33008D01*
X3454Y33125D01*
X3438Y33242D01*
X3393Y33352D01*
X3321Y33446D01*
X3227Y33518D01*
X3117Y33563D01*
X3000Y33579D01*
D02*
G37*
G36*
X6000Y38559D02*
X5855Y38540D01*
X5720Y38484D01*
X5605Y38395D01*
X5516Y38280D01*
X5460Y38145D01*
X5441Y38000D01*
X5460Y37855D01*
X5516Y37720D01*
X5605Y37605D01*
X5605Y37605D01*
X5720Y37516D01*
X5605Y37395D01*
X5605Y37395D01*
X5605D01*
X5516Y37280D01*
X5460Y37145D01*
X5441Y37000D01*
X5460Y36855D01*
X5505Y36746D01*
X5319Y36399D01*
X5308Y36397D01*
Y36397D01*
X5160Y36367D01*
X5156Y36377D01*
X5100Y36450D01*
X5027Y36506D01*
X4970Y36529D01*
Y36200D01*
X4850D01*
Y36080D01*
X4521D01*
X4544Y36023D01*
X4600Y35950D01*
X4673Y35894D01*
X4759Y35859D01*
X4850Y35847D01*
X4862Y35838D01*
X4900Y35550D01*
D01*
D01*
Y35550D01*
X4900D01*
Y35451D01*
X4900D01*
Y34350D01*
X7099D01*
Y35550D01*
X6454D01*
Y35880D01*
X6000D01*
Y36120D01*
X6454D01*
Y36454D01*
X6305D01*
X6395Y36605D01*
X6395D01*
X6395Y36605D01*
X6395Y36605D01*
X6395Y36605D01*
D01*
X6484Y36720D01*
X6540Y36855D01*
X6559Y37000D01*
X6540Y37145D01*
X6484Y37280D01*
X6395Y37395D01*
X6381Y37589D01*
X6395Y37605D01*
X6395Y37605D01*
X6395D01*
X6484Y37720D01*
X6540Y37855D01*
X6559Y38000D01*
X6540Y38145D01*
X6484Y38280D01*
X6395Y38395D01*
X6280Y38484D01*
X6145Y38540D01*
X6000Y38559D01*
D02*
G37*
G36*
X15330Y24630D02*
X15121D01*
X15144Y24573D01*
X15200Y24500D01*
X15273Y24444D01*
X15330Y24421D01*
Y24630D01*
D02*
G37*
G36*
X15779D02*
X15570D01*
Y24421D01*
X15627Y24444D01*
X15700Y24500D01*
X15756Y24573D01*
X15779Y24630D01*
D02*
G37*
G36*
X15330Y22829D02*
X15273Y22806D01*
X15200Y22750D01*
X15144Y22677D01*
X15121Y22620D01*
X15330D01*
Y22829D01*
D02*
G37*
G36*
X-1700Y38500D02*
X-2080D01*
Y38120D01*
X-1700D01*
Y38500D01*
D02*
G37*
G36*
X2878Y38116D02*
X2758Y38105D01*
X2642Y38069D01*
X2536Y38012D01*
X2442Y37936D01*
X2384Y37865D01*
X2021Y37995D01*
X2013Y38013D01*
Y38013D01*
X1620D01*
Y37500D01*
Y36987D01*
X2013D01*
Y36987D01*
X2021Y37005D01*
X2384Y37135D01*
X2442Y37064D01*
X2536Y36988D01*
X2642Y36931D01*
X2758Y36895D01*
X2878Y36884D01*
X2998Y36895D01*
X3114Y36931D01*
X3220Y36988D01*
X3314Y37064D01*
X3390Y37158D01*
X3447Y37264D01*
X3482Y37380D01*
X3494Y37500D01*
X3482Y37620D01*
X3447Y37736D01*
X3390Y37842D01*
X3314Y37936D01*
X3220Y38012D01*
X3114Y38069D01*
X2998Y38105D01*
X2878Y38116D01*
D02*
G37*
G36*
X4730Y36529D02*
X4673Y36506D01*
X4600Y36450D01*
X4544Y36377D01*
X4521Y36320D01*
X4730D01*
Y36529D01*
D02*
G37*
G36*
X0Y32539D02*
X-140Y32521D01*
X-270Y32467D01*
X-381Y32381D01*
X-467Y32270D01*
X-521Y32140D01*
X-539Y32000D01*
X-521Y31860D01*
X-467Y31730D01*
X-381Y31619D01*
X-270Y31533D01*
X-140Y31479D01*
X0Y31461D01*
X140Y31479D01*
X270Y31533D01*
X381Y31619D01*
X467Y31730D01*
Y31730D01*
X467Y31730D01*
X690Y31690D01*
X781Y31620D01*
X880Y31579D01*
Y32000D01*
Y32421D01*
X781Y32380D01*
X690Y32310D01*
X467Y32270D01*
D01*
X381Y32381D01*
X270Y32467D01*
X140Y32521D01*
X0Y32539D01*
D02*
G37*
G36*
X-4730Y33079D02*
Y32870D01*
X-4521D01*
X-4544Y32927D01*
X-4600Y33000D01*
X-4673Y33056D01*
X-4730Y33079D01*
D02*
G37*
G36*
X122Y38116D02*
X2Y38105D01*
X-114Y38069D01*
X-220Y38012D01*
X-314Y37936D01*
X-390Y37842D01*
X-447Y37736D01*
X-482Y37620D01*
X-494Y37500D01*
X-482Y37380D01*
X-447Y37264D01*
X-390Y37158D01*
X-314Y37064D01*
X-220Y36988D01*
X-114Y36931D01*
X2Y36895D01*
X122Y36884D01*
X242Y36895D01*
X358Y36931D01*
X464Y36988D01*
X558Y37064D01*
X616Y37135D01*
X979Y37005D01*
X987Y36987D01*
Y36987D01*
X1380D01*
Y37500D01*
Y38013D01*
X987D01*
Y38013D01*
X979Y37995D01*
X616Y37865D01*
X558Y37936D01*
X464Y38012D01*
X358Y38069D01*
X242Y38105D01*
X122Y38116D01*
D02*
G37*
G36*
X-4620Y36880D02*
X-4853D01*
Y36850D01*
X-4841Y36759D01*
X-4806Y36673D01*
X-4750Y36600D01*
X-4677Y36544D01*
X-4620Y36521D01*
Y36880D01*
D02*
G37*
G36*
X14000Y36559D02*
X13855Y36540D01*
X13720Y36484D01*
X13605Y36395D01*
X13411Y36381D01*
X13395Y36395D01*
X13395Y36395D01*
Y36395D01*
X13280Y36484D01*
X13145Y36540D01*
X13000Y36559D01*
X12855Y36540D01*
X12720Y36484D01*
X12605Y36395D01*
X12516Y36280D01*
X12460Y36145D01*
X12441Y36000D01*
X12460Y35855D01*
X12516Y35720D01*
X12605Y35605D01*
X12720Y35516D01*
X12855Y35460D01*
X13000Y35441D01*
X13145Y35460D01*
X13280Y35516D01*
X13395Y35605D01*
X13589Y35619D01*
X13605Y35605D01*
X13605Y35605D01*
Y35605D01*
X13720Y35516D01*
X13855Y35460D01*
X14000Y35441D01*
X14145Y35460D01*
X14280Y35516D01*
X14395Y35605D01*
D01*
X14395Y35605D01*
X14395Y35605D01*
X14395Y35605D01*
Y35605D01*
X14546Y35695D01*
Y35546D01*
X14880D01*
Y36000D01*
Y36454D01*
X14546D01*
Y36305D01*
X14395Y36395D01*
Y36395D01*
X14395Y36395D01*
X14395Y36395D01*
X14395Y36395D01*
D01*
X14280Y36484D01*
X14145Y36540D01*
X14000Y36559D01*
D02*
G37*
%LPD*%
G54D10*
X3500Y22200D02*
D03*
X2700D02*
D03*
G54D11*
X5000Y20950D02*
D03*
Y20150D02*
D03*
G54D12*
X-2450Y33500D02*
D03*
Y34850D02*
D03*
X-2200Y38000D02*
D03*
Y36650D02*
D03*
G54D13*
X-2800Y11350D02*
X-900Y13250D01*
X-3050Y11350D02*
X-2800D01*
X-700Y18384D02*
Y19150D01*
Y18384D02*
X-552Y18236D01*
Y17864D02*
Y18236D01*
X-700Y17716D02*
X-552Y17864D01*
X-700Y17450D02*
Y17716D01*
X-900Y17250D02*
X-700Y17450D01*
X1500Y39050D02*
X12450D01*
X-4850Y32750D02*
X-4100Y33500D01*
X-2450D01*
X-3500Y34500D02*
X-3150Y34850D01*
X-2450D01*
X16900Y26150D02*
Y30850D01*
Y26150D02*
X17500Y25550D01*
X15850Y31900D02*
X16900Y30850D01*
X13300Y25300D02*
X16603D01*
Y24977D02*
Y25300D01*
Y24977D02*
X16748Y24832D01*
Y16898D02*
Y24832D01*
X15450Y22500D02*
Y24750D01*
X-700Y23650D02*
X-300D01*
X-1350D02*
X-700D01*
X-1350Y19450D02*
Y23650D01*
X1200Y25150D02*
X3150D01*
X-300Y23650D02*
X1200Y25150D01*
X15300Y22350D02*
X15450Y22500D01*
X15300Y20050D02*
Y22350D01*
X14100Y18850D02*
X15300Y20050D01*
X14000Y16300D02*
X15150Y17450D01*
Y17900D01*
X15000D02*
X15150D01*
X14050Y18850D02*
X15000Y17900D01*
X14050Y18850D02*
X14100D01*
X9500Y12900D02*
X10400Y12000D01*
X12950D01*
X9250Y14100D02*
X9500Y13850D01*
Y12900D02*
Y13850D01*
X13950Y11550D02*
X14850Y12450D01*
X9350Y11550D02*
X13950D01*
X5150Y15750D02*
X9350Y11550D01*
X1950Y11200D02*
X14700D01*
X15250Y11750D01*
X1950Y11200D02*
Y11900D01*
X14850Y12450D02*
Y15000D01*
X16748Y16898D01*
X-4500Y22000D02*
X-2650Y20150D01*
Y14300D02*
Y20150D01*
X-3400Y14300D02*
X-2650D01*
X-4500Y15400D02*
X-3400Y14300D01*
X-4500Y15400D02*
Y15500D01*
X-2298Y17314D02*
X-2036Y17052D01*
X-2200Y17784D02*
Y20550D01*
X-2298Y17686D02*
X-2200Y17784D01*
X-2298Y17314D02*
Y17686D01*
X-1903Y18953D02*
X-1000Y18050D01*
X-1903Y18953D02*
Y20673D01*
X-2300Y21070D02*
X-1903Y20673D01*
X-2300Y21070D02*
Y25300D01*
X-2800Y21150D02*
X-2200Y20550D01*
X-2002Y17052D02*
X-1700Y16750D01*
X-2036Y17052D02*
X-2002D01*
X-1700Y16600D02*
Y16750D01*
X-2300Y25300D02*
X-400Y27200D01*
X-900Y13250D02*
Y17250D01*
X-2800Y21150D02*
Y24700D01*
X-3000Y24900D02*
X-2800Y24700D01*
X-3000Y24900D02*
Y26750D01*
X-2250Y32100D02*
X-1750Y32600D01*
X-4150Y32100D02*
X-2250D01*
X-4150Y29652D02*
Y32100D01*
Y29652D02*
X-1900Y27402D01*
X1500Y38650D02*
Y39050D01*
Y37500D02*
Y38650D01*
X-4950Y32850D02*
X-4850Y32750D01*
X-5000Y32850D02*
X-4950D01*
X-5150Y33000D02*
X-5000Y32850D01*
X-5150Y33000D02*
Y37750D01*
X-2500D01*
X-1600Y38650D01*
X1500D01*
X-5150Y14200D02*
X-4950Y14000D01*
X-5150Y14200D02*
Y18750D01*
X-4750Y19150D01*
Y19550D01*
X4800Y36150D02*
X4850Y36200D01*
X3950Y36150D02*
X4800D01*
X2850D02*
X3950D01*
Y34350D02*
X4850Y33450D01*
X3950Y34350D02*
Y36150D01*
X1500Y37500D02*
X2850Y36150D01*
X12450Y39050D02*
X12700Y39300D01*
X11700Y38300D02*
X12450Y39050D01*
X12700Y39300D02*
X14300D01*
X11700Y35850D02*
Y38300D01*
X-400Y27200D02*
X14250D01*
X14950Y26500D01*
X16300D01*
X8800Y14550D02*
X9250Y14100D01*
X8800Y14550D02*
Y15800D01*
X5150Y15750D02*
Y16950D01*
X3150Y25150D02*
X3548Y24752D01*
Y22248D02*
Y24752D01*
X3500Y22200D02*
X3548Y22248D01*
X3100Y23200D02*
Y24200D01*
X2700Y22800D02*
X3100Y23200D01*
X2700Y22200D02*
Y22800D01*
X3000Y32000D02*
Y33125D01*
X350Y29350D02*
X3000Y32000D01*
X1550Y22700D02*
Y23750D01*
X2000Y15250D02*
X2250Y15000D01*
X2000Y15250D02*
Y22250D01*
X1550Y22700D02*
X2000Y22250D01*
X1550Y23750D02*
X2100Y24300D01*
X4400Y15000D02*
X5550Y13850D01*
X3500Y15000D02*
X4400D01*
X2250D02*
X3500D01*
X15250Y11750D02*
Y13300D01*
X17500Y15550D01*
Y25550D01*
X6800Y19100D02*
Y23400D01*
X5702Y18002D02*
X6800Y19100D01*
X3502Y18002D02*
X5702D01*
X7400Y24000D02*
X13450D01*
X6800Y23400D02*
X7400Y24000D01*
X13450D02*
X14000Y24550D01*
Y24800D01*
X3500Y18000D02*
X3502Y18002D01*
X13000Y25000D02*
X13300Y25300D01*
X13000Y24800D02*
Y25000D01*
X5800Y24800D02*
X12000D01*
X4600Y23600D02*
X5800Y24800D01*
X4600Y22200D02*
Y23600D01*
X5000Y20950D02*
X5100Y20850D01*
X5750D01*
Y19750D02*
Y20850D01*
X5000Y19000D02*
X5750Y19750D01*
X5000Y18500D02*
Y19000D01*
X15400Y14700D02*
X16350Y15650D01*
X15400Y14300D02*
Y14700D01*
X6800Y15950D02*
Y16250D01*
Y15950D02*
X6950Y15800D01*
X8800D01*
X9300Y16300D01*
X14000D01*
X3450Y22100D02*
X3500Y22050D01*
Y21000D02*
Y22050D01*
Y21000D02*
X3550Y20950D01*
X5000D01*
X3500Y20000D02*
X5200D01*
X16300D02*
Y22250D01*
X15200Y18900D02*
X16300Y20000D01*
X9900Y22500D02*
X11000D01*
X10750Y18900D02*
Y22250D01*
X11000Y22500D01*
X12500Y18200D02*
X13000Y18700D01*
X9450Y18200D02*
X12500D01*
X8150Y19500D02*
X9450Y18200D01*
X8150Y19500D02*
Y22550D01*
X7700Y23000D02*
X8150Y22550D01*
X8750Y16500D02*
Y18200D01*
X7650Y19300D02*
X8750Y18200D01*
X7650Y19300D02*
Y22000D01*
G54D14*
X10200Y37200D02*
X10100Y37300D01*
X9900D01*
X9800Y37200D01*
Y36800D01*
X9900Y36700D01*
X10100D01*
X10200Y36800D01*
Y37000D01*
X10000D01*
X10400Y36700D02*
Y37300D01*
X10800Y36700D01*
Y37300D01*
X11000D02*
Y36700D01*
X11300D01*
X11399Y36800D01*
Y37200D01*
X11300Y37300D01*
X11000D01*
X5600Y35150D02*
X5500Y35250D01*
X5300D01*
X5200Y35150D01*
Y34750D01*
X5300Y34650D01*
X5500D01*
X5600Y34750D01*
Y34950D01*
X5400D01*
X5800Y34650D02*
Y35250D01*
X6200Y34650D01*
Y35250D01*
X6400D02*
Y34650D01*
X6700D01*
X6799Y34750D01*
Y35150D01*
X6700Y35250D01*
X6400D01*
X9900Y14150D02*
Y13550D01*
X10200D01*
X10300Y13650D01*
Y13750D01*
X10200Y13850D01*
X9900D01*
X10200D01*
X10300Y13950D01*
Y14050D01*
X10200Y14150D01*
X9900D01*
X9650Y15800D02*
Y15200D01*
X10050D01*
X9550Y16850D02*
Y17450D01*
X9850D01*
X9950Y17350D01*
Y17150D01*
X9850Y17050D01*
X9550D01*
X9750D02*
X9950Y16850D01*
X9450Y20250D02*
X9050D01*
Y19950D01*
X9250D01*
X9050D01*
Y19650D01*
X9650D02*
Y20250D01*
X9950D01*
X10050Y20150D01*
Y19950D01*
X9950Y19850D01*
X9650D01*
X9850D02*
X10050Y19650D01*
X9350Y21600D02*
X8950D01*
Y21300D01*
X9150D01*
X8950D01*
Y21000D01*
X9550Y21600D02*
Y21000D01*
X9950D01*
X5900Y40250D02*
Y39650D01*
X6200D01*
X6300Y39750D01*
Y39850D01*
X6200Y39950D01*
X5900D01*
X6200D01*
X6300Y40050D01*
Y40150D01*
X6200Y40250D01*
X5900D01*
X9200Y40200D02*
Y39600D01*
X9600D01*
X12850D02*
Y40200D01*
X13150D01*
X13250Y40100D01*
Y39900D01*
X13150Y39800D01*
X12850D01*
X13050D02*
X13250Y39600D01*
X16500Y36300D02*
X16100D01*
Y36000D01*
X16300D01*
X16100D01*
Y35700D01*
X16700Y36300D02*
Y35700D01*
X17100D01*
X16600Y34300D02*
X16200D01*
Y34000D01*
X16400D01*
X16200D01*
Y33700D01*
X16800D02*
Y34300D01*
X17100D01*
X17200Y34200D01*
Y34000D01*
X17100Y33900D01*
X16800D01*
X17000D02*
X17200Y33700D01*
G54D15*
X-4500Y17500D02*
D03*
Y16500D02*
D03*
Y15500D02*
D03*
X-3500D02*
D03*
Y16500D02*
D03*
Y17500D02*
D03*
X11000Y13000D02*
D03*
X12000D02*
D03*
X13000D02*
D03*
X11000Y15000D02*
D03*
X12000D02*
D03*
X13000D02*
D03*
X11000Y17500D02*
D03*
X12000D02*
D03*
X13000D02*
D03*
X11000Y22500D02*
D03*
X12000D02*
D03*
X13000D02*
D03*
X11000Y20000D02*
D03*
X12000D02*
D03*
X13000D02*
D03*
X6000Y37000D02*
D03*
Y38000D02*
D03*
X14000D02*
D03*
X13000D02*
D03*
X14000Y34000D02*
D03*
X13000D02*
D03*
X9500Y38000D02*
D03*
X8500D02*
D03*
X14000Y36000D02*
D03*
X13000D02*
D03*
X-4500Y24000D02*
D03*
Y23000D02*
D03*
Y22000D02*
D03*
X-3500D02*
D03*
Y23000D02*
D03*
Y24000D02*
D03*
G54D16*
X2878Y37500D02*
D03*
X122D02*
D03*
G54D17*
X1500D02*
D03*
G54D18*
X5000Y18500D02*
D03*
G54D19*
X-4000Y39000D02*
D03*
Y12500D02*
D03*
X16535Y38976D02*
D03*
Y12598D02*
D03*
G54D20*
X14000Y13000D02*
D03*
Y15000D02*
D03*
Y17500D02*
D03*
Y22500D02*
D03*
Y20000D02*
D03*
X15000Y38000D02*
D03*
Y34000D02*
D03*
X10500Y38000D02*
D03*
X15000Y36000D02*
D03*
G54D21*
X6000D02*
D03*
G54D22*
X0Y26000D02*
D03*
Y32000D02*
D03*
X1000Y26000D02*
D03*
X2000D02*
D03*
X6000D02*
D03*
X3000D02*
D03*
X4000D02*
D03*
X5000D02*
D03*
X7000D02*
D03*
X8000D02*
D03*
X9000D02*
D03*
X10000D02*
D03*
X11000D02*
D03*
X12000D02*
D03*
X13000D02*
D03*
X14000D02*
D03*
Y32000D02*
D03*
X13000D02*
D03*
X12000D02*
D03*
X11000D02*
D03*
X10000D02*
D03*
X9000D02*
D03*
X8000D02*
D03*
X7000D02*
D03*
X6000D02*
D03*
X5000D02*
D03*
X4000D02*
D03*
X3000D02*
D03*
X2000D02*
D03*
X1000D02*
D03*
G54D23*
X-4500Y34500D02*
D03*
X-3500D02*
D03*
X-4500Y37000D02*
D03*
X-3500D02*
D03*
G54D24*
X500Y21000D02*
D03*
G54D25*
Y20000D02*
D03*
Y19000D02*
D03*
Y18000D02*
D03*
Y17000D02*
D03*
Y16000D02*
D03*
Y15000D02*
D03*
Y14000D02*
D03*
Y13000D02*
D03*
X3500Y21000D02*
D03*
Y20000D02*
D03*
Y19000D02*
D03*
Y18000D02*
D03*
Y17000D02*
D03*
Y16000D02*
D03*
Y15000D02*
D03*
Y14000D02*
D03*
Y13000D02*
D03*
G54D26*
X-1500Y13500D02*
D03*
Y15500D02*
D03*
X-3050Y11350D02*
D03*
X-1450Y17200D02*
D03*
X-700Y19150D02*
D03*
X15850Y31900D02*
D03*
X15450Y24750D02*
D03*
X350Y29350D02*
D03*
X-700Y23650D02*
D03*
X15450Y22500D02*
D03*
X15150Y17900D02*
D03*
X9500Y12900D02*
D03*
X12950Y12000D02*
D03*
X9900Y22500D02*
D03*
X15300Y20050D02*
D03*
X-1350Y19450D02*
D03*
X-1000Y18050D02*
D03*
X-3000Y26750D02*
D03*
X-1750Y32600D02*
D03*
X-1900Y27402D02*
D03*
X-4850Y32750D02*
D03*
X2250Y39850D02*
D03*
X-4950Y14000D02*
D03*
X-4750Y19550D02*
D03*
X4850Y36200D02*
D03*
Y33450D02*
D03*
X14300Y39300D02*
D03*
X11700Y38300D02*
D03*
Y35850D02*
D03*
X16300Y26500D02*
D03*
X9250Y14100D02*
D03*
X1950Y11900D02*
D03*
X3100Y24200D02*
D03*
X3000Y33125D02*
D03*
X2100Y24300D02*
D03*
X5550Y13850D02*
D03*
X5100Y17050D02*
D03*
X4550Y22250D02*
D03*
X12000Y24800D02*
D03*
X13000D02*
D03*
X14000D02*
D03*
X15400Y14300D02*
D03*
X16350Y15650D02*
D03*
X6800Y16250D02*
D03*
X15200Y18900D02*
D03*
X16300Y22250D02*
D03*
X10750Y18900D02*
D03*
X13000Y18700D02*
D03*
X7700Y23000D02*
D03*
X8750Y16500D02*
D03*
X7650Y22000D02*
D03*
M02*
