G04 Layer_Physical_Order=1*
G04 Layer_Color=255*
%FSLAX24Y24*%
%MOIN*%
G70*
G01*
G75*
%ADD10R,0.0400X0.0500*%
%ADD11R,0.0500X0.0400*%
%ADD12C,0.0197*%
%ADD13C,0.0100*%
%ADD14C,0.1200*%
%ADD15C,0.1969*%
%ADD16C,0.0709*%
%ADD17R,0.0709X0.0709*%
%ADD18O,0.0500X0.0800*%
%ADD19R,0.0709X0.0709*%
%ADD20C,0.0669*%
%ADD21R,0.1200X0.1200*%
%ADD22C,0.0500*%
G36*
X18000Y40000D02*
Y11000D01*
X15011D01*
X15008Y11050D01*
X15078Y11059D01*
X15151Y11089D01*
X15213Y11137D01*
X15261Y11200D01*
X15291Y11272D01*
X15301Y11350D01*
Y12552D01*
X15351Y12554D01*
X15362Y12413D01*
X15406Y12231D01*
X15477Y12059D01*
X15574Y11900D01*
X15695Y11758D01*
X15837Y11637D01*
X15996Y11540D01*
X16168Y11469D01*
X16350Y11425D01*
X16535Y11411D01*
X16721Y11425D01*
X16903Y11469D01*
X17075Y11540D01*
X17234Y11637D01*
X17375Y11758D01*
X17496Y11900D01*
X17594Y12059D01*
X17665Y12231D01*
X17709Y12413D01*
X17723Y12598D01*
X17709Y12784D01*
X17665Y12966D01*
X17594Y13138D01*
X17496Y13297D01*
X17375Y13438D01*
X17234Y13559D01*
X17075Y13657D01*
X16903Y13728D01*
X16721Y13772D01*
X16535Y13786D01*
X16350Y13772D01*
X16168Y13728D01*
X16008Y13662D01*
X15980Y13704D01*
X17763Y15487D01*
X17811Y15549D01*
X17841Y15622D01*
X17851Y15700D01*
Y25500D01*
X17841Y25578D01*
X17811Y25650D01*
X17763Y25713D01*
X17263Y26213D01*
X17200Y26261D01*
X17128Y26291D01*
X17050Y26301D01*
X16886D01*
X16871Y26321D01*
X16777Y26393D01*
X16667Y26438D01*
X16550Y26454D01*
X16433Y26438D01*
X16323Y26393D01*
X16229Y26321D01*
X16157Y26227D01*
X16112Y26117D01*
X16096Y26000D01*
X16112Y25883D01*
X16157Y25773D01*
X16229Y25679D01*
X16323Y25607D01*
X16433Y25562D01*
X16550Y25546D01*
X16667Y25562D01*
X16777Y25607D01*
X16871Y25679D01*
X16879Y25690D01*
X16932Y25692D01*
X17249Y25375D01*
Y24318D01*
X17199Y24315D01*
X17191Y24378D01*
X17161Y24451D01*
X17113Y24513D01*
X16113Y25513D01*
X16050Y25561D01*
X15978Y25591D01*
X15900Y25601D01*
X14431D01*
X14406Y25651D01*
X14467Y25730D01*
X14521Y25860D01*
X14539Y26000D01*
X14521Y26140D01*
X14467Y26270D01*
X14381Y26381D01*
X14270Y26467D01*
X14140Y26521D01*
X14000Y26539D01*
X13860Y26521D01*
X13730Y26467D01*
X13619Y26381D01*
X13533Y26270D01*
X13525Y26250D01*
X13475D01*
X13467Y26270D01*
X13381Y26381D01*
X13270Y26467D01*
X13140Y26521D01*
X13000Y26539D01*
X12860Y26521D01*
X12730Y26467D01*
X12619Y26381D01*
X12533Y26270D01*
X12525Y26250D01*
X12475D01*
X12467Y26270D01*
X12381Y26381D01*
X12270Y26467D01*
X12140Y26521D01*
X12000Y26539D01*
X11860Y26521D01*
X11730Y26467D01*
X11619Y26381D01*
X11533Y26270D01*
X11525Y26250D01*
X11475D01*
X11467Y26270D01*
X11381Y26381D01*
X11270Y26467D01*
X11140Y26521D01*
X11000Y26539D01*
X10860Y26521D01*
X10730Y26467D01*
X10619Y26381D01*
X10533Y26270D01*
X10525Y26250D01*
X10475D01*
X10467Y26270D01*
X10381Y26381D01*
X10270Y26467D01*
X10140Y26521D01*
X10000Y26539D01*
X9860Y26521D01*
X9730Y26467D01*
X9619Y26381D01*
X9533Y26270D01*
X9525Y26250D01*
X9475D01*
X9467Y26270D01*
X9381Y26381D01*
X9270Y26467D01*
X9140Y26521D01*
X9000Y26539D01*
X8860Y26521D01*
X8730Y26467D01*
X8619Y26381D01*
X8533Y26270D01*
X8525Y26250D01*
X8475D01*
X8467Y26270D01*
X8381Y26381D01*
X8270Y26467D01*
X8140Y26521D01*
X8000Y26539D01*
X7860Y26521D01*
X7730Y26467D01*
X7619Y26381D01*
X7533Y26270D01*
X7525Y26250D01*
X7475D01*
X7467Y26270D01*
X7381Y26381D01*
X7270Y26467D01*
X7140Y26521D01*
X7000Y26539D01*
X6900Y26526D01*
X4916Y28510D01*
X4854Y28558D01*
X4781Y28588D01*
X4703Y28598D01*
X478D01*
X211Y28864D01*
X231Y28908D01*
X235Y28911D01*
X350Y28896D01*
X467Y28912D01*
X577Y28957D01*
X671Y29029D01*
X743Y29123D01*
X788Y29233D01*
X804Y29350D01*
X801Y29375D01*
X2900Y31474D01*
X3000Y31461D01*
X3140Y31479D01*
X3270Y31533D01*
X3381Y31619D01*
X3467Y31730D01*
X3475Y31750D01*
X3525D01*
X3533Y31730D01*
X3619Y31619D01*
X3730Y31533D01*
X3860Y31479D01*
X4000Y31461D01*
X4140Y31479D01*
X4270Y31533D01*
X4381Y31619D01*
X4467Y31730D01*
X4475Y31750D01*
X4525D01*
X4533Y31730D01*
X4619Y31619D01*
X4730Y31533D01*
X4860Y31479D01*
X5000Y31461D01*
X5140Y31479D01*
X5270Y31533D01*
X5381Y31619D01*
X5467Y31730D01*
X5475Y31750D01*
X5525D01*
X5533Y31730D01*
X5619Y31619D01*
X5730Y31533D01*
X5860Y31479D01*
X6000Y31461D01*
X6140Y31479D01*
X6270Y31533D01*
X6381Y31619D01*
X6467Y31730D01*
X6475Y31750D01*
X6525D01*
X6533Y31730D01*
X6619Y31619D01*
X6730Y31533D01*
X6860Y31479D01*
X7000Y31461D01*
X7140Y31479D01*
X7270Y31533D01*
X7381Y31619D01*
X7467Y31730D01*
X7475Y31750D01*
X7525D01*
X7533Y31730D01*
X7619Y31619D01*
X7730Y31533D01*
X7860Y31479D01*
X8000Y31461D01*
X8140Y31479D01*
X8270Y31533D01*
X8381Y31619D01*
X8467Y31730D01*
X8475Y31750D01*
X8525D01*
X8533Y31730D01*
X8619Y31619D01*
X8730Y31533D01*
X8860Y31479D01*
X9000Y31461D01*
X9140Y31479D01*
X9270Y31533D01*
X9381Y31619D01*
X9467Y31730D01*
X9475Y31750D01*
X9525D01*
X9533Y31730D01*
X9619Y31619D01*
X9730Y31533D01*
X9860Y31479D01*
X10000Y31461D01*
X10140Y31479D01*
X10270Y31533D01*
X10381Y31619D01*
X10467Y31730D01*
X10475Y31750D01*
X10525D01*
X10533Y31730D01*
X10619Y31619D01*
X10730Y31533D01*
X10860Y31479D01*
X11000Y31461D01*
X11140Y31479D01*
X11270Y31533D01*
X11381Y31619D01*
X11467Y31730D01*
X11475Y31750D01*
X11525D01*
X11533Y31730D01*
X11619Y31619D01*
X11730Y31533D01*
X11860Y31479D01*
X12000Y31461D01*
X12140Y31479D01*
X12270Y31533D01*
X12381Y31619D01*
X12467Y31730D01*
X12475Y31750D01*
X12525D01*
X12533Y31730D01*
X12619Y31619D01*
X12730Y31533D01*
X12860Y31479D01*
X13000Y31461D01*
X13140Y31479D01*
X13270Y31533D01*
X13381Y31619D01*
X13467Y31730D01*
X13475Y31750D01*
X13525D01*
X13533Y31730D01*
X13619Y31619D01*
X13730Y31533D01*
X13860Y31479D01*
X14000Y31461D01*
X14140Y31479D01*
X14270Y31533D01*
X14381Y31619D01*
X14467Y31730D01*
X14521Y31860D01*
X14539Y32000D01*
X14521Y32140D01*
X14467Y32270D01*
X14381Y32381D01*
X14270Y32467D01*
X14140Y32521D01*
X14000Y32539D01*
X13860Y32521D01*
X13730Y32467D01*
X13619Y32381D01*
X13533Y32270D01*
X13525Y32250D01*
X13475D01*
X13467Y32270D01*
X13381Y32381D01*
X13270Y32467D01*
X13140Y32521D01*
X13000Y32539D01*
X12860Y32521D01*
X12730Y32467D01*
X12619Y32381D01*
X12533Y32270D01*
X12525Y32250D01*
X12475D01*
X12467Y32270D01*
X12381Y32381D01*
X12270Y32467D01*
X12140Y32521D01*
X12000Y32539D01*
X11860Y32521D01*
X11730Y32467D01*
X11619Y32381D01*
X11533Y32270D01*
X11525Y32250D01*
X11475D01*
X11467Y32270D01*
X11381Y32381D01*
X11270Y32467D01*
X11140Y32521D01*
X11000Y32539D01*
X10860Y32521D01*
X10730Y32467D01*
X10619Y32381D01*
X10533Y32270D01*
X10525Y32250D01*
X10475D01*
X10467Y32270D01*
X10381Y32381D01*
X10270Y32467D01*
X10140Y32521D01*
X10000Y32539D01*
X9860Y32521D01*
X9730Y32467D01*
X9619Y32381D01*
X9533Y32270D01*
X9525Y32250D01*
X9475D01*
X9467Y32270D01*
X9381Y32381D01*
X9270Y32467D01*
X9140Y32521D01*
X9000Y32539D01*
X8860Y32521D01*
X8730Y32467D01*
X8619Y32381D01*
X8533Y32270D01*
X8525Y32250D01*
X8475D01*
X8467Y32270D01*
X8381Y32381D01*
X8270Y32467D01*
X8140Y32521D01*
X8000Y32539D01*
X7860Y32521D01*
X7730Y32467D01*
X7619Y32381D01*
X7533Y32270D01*
X7525Y32250D01*
X7475D01*
X7467Y32270D01*
X7381Y32381D01*
X7270Y32467D01*
X7140Y32521D01*
X7000Y32539D01*
X6860Y32521D01*
X6730Y32467D01*
X6619Y32381D01*
X6533Y32270D01*
X6525Y32250D01*
X6475D01*
X6467Y32270D01*
X6381Y32381D01*
X6270Y32467D01*
X6140Y32521D01*
X6000Y32539D01*
X5860Y32521D01*
X5730Y32467D01*
X5619Y32381D01*
X5533Y32270D01*
X5525Y32250D01*
X5475D01*
X5467Y32270D01*
X5381Y32381D01*
X5270Y32467D01*
X5140Y32521D01*
X5000Y32539D01*
X4860Y32521D01*
X4730Y32467D01*
X4619Y32381D01*
X4533Y32270D01*
X4525Y32250D01*
X4475D01*
X4467Y32270D01*
X4381Y32381D01*
X4270Y32467D01*
X4140Y32521D01*
X4000Y32539D01*
X3860Y32521D01*
X3730Y32467D01*
X3619Y32381D01*
X3533Y32270D01*
X3525Y32250D01*
X3475D01*
X3467Y32270D01*
X3381Y32381D01*
X3301Y32443D01*
Y32789D01*
X3321Y32804D01*
X3393Y32898D01*
X3438Y33008D01*
X3454Y33125D01*
X3438Y33242D01*
X3393Y33352D01*
X3321Y33446D01*
X3227Y33518D01*
X3117Y33563D01*
X3000Y33579D01*
X2883Y33563D01*
X2773Y33518D01*
X2679Y33446D01*
X2607Y33352D01*
X2562Y33242D01*
X2546Y33125D01*
X2562Y33008D01*
X2607Y32898D01*
X2679Y32804D01*
X2699Y32789D01*
Y32443D01*
X2619Y32381D01*
X2533Y32270D01*
X2525Y32250D01*
X2475D01*
X2467Y32270D01*
X2381Y32381D01*
X2270Y32467D01*
X2140Y32521D01*
X2000Y32539D01*
X1860Y32521D01*
X1730Y32467D01*
X1619Y32381D01*
X1533Y32270D01*
X1479Y32140D01*
X1475Y32107D01*
X1475D01*
X1461Y32000D01*
X1475Y31893D01*
X1475D01*
X1479Y31860D01*
X1533Y31730D01*
X1619Y31619D01*
X1730Y31533D01*
X1860Y31479D01*
X1969Y31465D01*
X1986Y31412D01*
X375Y29801D01*
X350Y29804D01*
X233Y29788D01*
X123Y29743D01*
X29Y29671D01*
X-43Y29577D01*
X-88Y29467D01*
X-104Y29350D01*
X-89Y29235D01*
X-92Y29231D01*
X-136Y29211D01*
X-1299Y30375D01*
Y31350D01*
X-1309Y31428D01*
X-1339Y31500D01*
X-1387Y31563D01*
X-2187Y32363D01*
X-2250Y32411D01*
X-2322Y32441D01*
X-2400Y32451D01*
X-3164D01*
X-3179Y32471D01*
X-3273Y32543D01*
X-3383Y32588D01*
X-3500Y32604D01*
X-3617Y32588D01*
X-3727Y32543D01*
X-3821Y32471D01*
X-3893Y32377D01*
X-3938Y32267D01*
X-3954Y32150D01*
X-3938Y32033D01*
X-3893Y31923D01*
X-3821Y31829D01*
X-3727Y31757D01*
X-3617Y31712D01*
X-3500Y31696D01*
X-3383Y31712D01*
X-3273Y31757D01*
X-3179Y31829D01*
X-3164Y31849D01*
X-2525D01*
X-1901Y31225D01*
Y30250D01*
X-1891Y30172D01*
X-1861Y30099D01*
X-1813Y30037D01*
X-123Y28347D01*
X-142Y28301D01*
X-1300D01*
X-1378Y28291D01*
X-1451Y28261D01*
X-1513Y28213D01*
X-3475Y26251D01*
X-3500Y26254D01*
X-3617Y26238D01*
X-3727Y26193D01*
X-3821Y26121D01*
X-3893Y26027D01*
X-3938Y25917D01*
X-3954Y25800D01*
X-3938Y25683D01*
X-3893Y25573D01*
X-3821Y25479D01*
X-3727Y25407D01*
X-3617Y25362D01*
X-3500Y25346D01*
X-3383Y25362D01*
X-3273Y25407D01*
X-3179Y25479D01*
X-3107Y25573D01*
X-3062Y25683D01*
X-3046Y25800D01*
X-3049Y25825D01*
X-1175Y27699D01*
X3975D01*
X5097Y26577D01*
X5074Y26530D01*
X5000Y26539D01*
X4860Y26521D01*
X4730Y26467D01*
X4619Y26381D01*
X4533Y26270D01*
X4525Y26250D01*
X4475D01*
X4467Y26270D01*
X4381Y26381D01*
X4270Y26467D01*
X4140Y26521D01*
X4000Y26539D01*
X3860Y26521D01*
X3730Y26467D01*
X3619Y26381D01*
X3533Y26270D01*
X3479Y26140D01*
X3475Y26107D01*
X3475D01*
X3461Y26000D01*
X3475Y25893D01*
X3475D01*
X3479Y25860D01*
X3533Y25730D01*
X3619Y25619D01*
X3730Y25533D01*
X3860Y25479D01*
X4000Y25461D01*
X4140Y25479D01*
X4270Y25533D01*
X4381Y25619D01*
X4467Y25730D01*
X4475Y25750D01*
X4525D01*
X4533Y25730D01*
X4619Y25619D01*
X4730Y25533D01*
X4860Y25479D01*
X5000Y25461D01*
X5140Y25479D01*
X5270Y25533D01*
X5381Y25619D01*
X5467Y25730D01*
X5475Y25750D01*
X5525D01*
X5533Y25730D01*
X5619Y25619D01*
X5699Y25557D01*
Y25186D01*
X5679Y25171D01*
X5607Y25077D01*
X5562Y24967D01*
X5546Y24850D01*
X5562Y24733D01*
X5607Y24623D01*
X5679Y24529D01*
X5773Y24457D01*
X5883Y24412D01*
X6000Y24396D01*
X6117Y24412D01*
X6227Y24457D01*
X6321Y24529D01*
X6393Y24623D01*
X6438Y24733D01*
X6454Y24850D01*
X6438Y24967D01*
X6393Y25077D01*
X6321Y25171D01*
X6301Y25186D01*
Y25557D01*
X6381Y25619D01*
X6467Y25730D01*
X6475Y25750D01*
X6525D01*
X6533Y25730D01*
X6619Y25619D01*
X6699Y25557D01*
Y25186D01*
X6679Y25171D01*
X6607Y25077D01*
X6562Y24967D01*
X6546Y24850D01*
X6562Y24733D01*
X6607Y24623D01*
X6679Y24529D01*
X6719Y24498D01*
X6723Y24448D01*
X4775Y22501D01*
X3900D01*
Y22650D01*
X3849D01*
Y24752D01*
X3839Y24829D01*
X3809Y24902D01*
X3761Y24964D01*
X3363Y25363D01*
X3300Y25411D01*
X3228Y25441D01*
X3150Y25451D01*
X2202D01*
X2192Y25501D01*
X2270Y25533D01*
X2381Y25619D01*
X2467Y25730D01*
X2521Y25860D01*
X2525Y25893D01*
X2525D01*
X2539Y26000D01*
X2525Y26107D01*
X2525D01*
X2521Y26140D01*
X2467Y26270D01*
X2381Y26381D01*
X2270Y26467D01*
X2140Y26521D01*
X2000Y26539D01*
X1860Y26521D01*
X1730Y26467D01*
X1619Y26381D01*
X1533Y26270D01*
X1525Y26250D01*
X1475D01*
X1467Y26270D01*
X1381Y26381D01*
X1270Y26467D01*
X1140Y26521D01*
X1000Y26539D01*
X860Y26521D01*
X730Y26467D01*
X619Y26381D01*
X533Y26270D01*
X525Y26250D01*
X475D01*
X467Y26270D01*
X381Y26381D01*
X270Y26467D01*
X140Y26521D01*
X0Y26539D01*
X-140Y26521D01*
X-270Y26467D01*
X-381Y26381D01*
X-467Y26270D01*
X-521Y26140D01*
X-539Y26000D01*
X-521Y25860D01*
X-467Y25730D01*
X-381Y25619D01*
X-270Y25533D01*
X-140Y25479D01*
X0Y25461D01*
X140Y25479D01*
X270Y25533D01*
X381Y25619D01*
X467Y25730D01*
X475Y25750D01*
X525D01*
X533Y25730D01*
X619Y25619D01*
X730Y25533D01*
X860Y25479D01*
X1000Y25461D01*
X1058Y25468D01*
X1071Y25420D01*
X1050Y25411D01*
X987Y25363D01*
X-394Y23982D01*
X-473Y24043D01*
X-583Y24088D01*
X-700Y24104D01*
X-817Y24088D01*
X-927Y24043D01*
X-1021Y23971D01*
X-1093Y23877D01*
X-1138Y23767D01*
X-1154Y23650D01*
X-1138Y23533D01*
X-1093Y23423D01*
X-1021Y23329D01*
X-927Y23257D01*
X-817Y23212D01*
X-700Y23196D01*
X-583Y23212D01*
X-473Y23257D01*
X-379Y23329D01*
X-364Y23349D01*
X-300D01*
X-222Y23359D01*
X-149Y23389D01*
X-87Y23437D01*
X1325Y24849D01*
X3025D01*
X3247Y24627D01*
Y24563D01*
X3220Y24544D01*
Y24200D01*
X3100D01*
Y24080D01*
X2771D01*
X2794Y24023D01*
X2799Y24017D01*
Y23325D01*
X2487Y23013D01*
X2439Y22950D01*
X2409Y22878D01*
X2399Y22800D01*
Y22320D01*
X3001D01*
Y22675D01*
X3201Y22876D01*
X3247Y22856D01*
Y22650D01*
X3100D01*
Y21750D01*
X3199D01*
Y21650D01*
X3209Y21572D01*
X3239Y21500D01*
X3287Y21437D01*
X5349Y19375D01*
Y19192D01*
X5303Y19173D01*
X4001Y20475D01*
X3988Y20567D01*
X3943Y20677D01*
X3871Y20771D01*
X3777Y20843D01*
X3667Y20888D01*
X3550Y20904D01*
X3433Y20888D01*
X3323Y20843D01*
X3229Y20771D01*
X3157Y20677D01*
X3112Y20567D01*
X3096Y20450D01*
X3112Y20333D01*
X3157Y20223D01*
X3229Y20129D01*
X3323Y20057D01*
X3433Y20012D01*
X3550Y19996D01*
X3619Y20005D01*
X4849Y18775D01*
Y15800D01*
X4859Y15722D01*
X4889Y15649D01*
X4937Y15587D01*
X9387Y11137D01*
X9449Y11089D01*
X9522Y11059D01*
X9592Y11050D01*
X9589Y11000D01*
X9200D01*
X5900Y14300D01*
X-4750D01*
X-6000Y15550D01*
Y26650D01*
X-5000D01*
Y28849D01*
X-6000D01*
Y29000D01*
X-5050D01*
Y31199D01*
X-6000D01*
Y40000D01*
X-5250Y40750D01*
X17250D01*
X18000Y40000D01*
D02*
G37*
G36*
X17249Y20162D02*
Y15825D01*
X15878Y14453D01*
X15819Y14465D01*
X15793Y14527D01*
X15732Y14606D01*
X16325Y15199D01*
X16350Y15196D01*
X16467Y15212D01*
X16577Y15257D01*
X16671Y15329D01*
X16743Y15423D01*
X16788Y15533D01*
X16804Y15650D01*
X16788Y15767D01*
X16743Y15877D01*
X16671Y15971D01*
X16577Y16043D01*
X16467Y16088D01*
X16350Y16104D01*
X16233Y16088D01*
X16123Y16043D01*
X16029Y15971D01*
X15957Y15877D01*
X15912Y15767D01*
X15896Y15650D01*
X15899Y15625D01*
X15187Y14913D01*
X15139Y14850D01*
X15109Y14778D01*
X15099Y14700D01*
Y14636D01*
X15079Y14621D01*
X15007Y14527D01*
X14962Y14417D01*
X14946Y14300D01*
X14962Y14183D01*
X15007Y14073D01*
X15079Y13979D01*
X15173Y13907D01*
X15235Y13881D01*
X15247Y13822D01*
X14787Y13363D01*
X14739Y13300D01*
X14709Y13228D01*
X14699Y13150D01*
Y11651D01*
X13149D01*
X13141Y11666D01*
X13135Y11701D01*
X13200Y11750D01*
X13256Y11823D01*
X13279Y11880D01*
X12950D01*
Y12000D01*
X12830D01*
Y12329D01*
X12773Y12306D01*
X12767Y12301D01*
X10525D01*
X9842Y12984D01*
X9841Y12991D01*
X9806Y13077D01*
X9801Y13083D01*
Y13250D01*
X10459D01*
X10486Y13208D01*
X10460Y13145D01*
X10441Y13000D01*
X10460Y12855D01*
X10516Y12720D01*
X10605Y12605D01*
X10720Y12516D01*
X10855Y12460D01*
X11000Y12441D01*
X11145Y12460D01*
X11280Y12516D01*
X11395Y12605D01*
X11470Y12701D01*
X11478Y12705D01*
X11522D01*
X11530Y12701D01*
X11605Y12605D01*
X11720Y12516D01*
X11855Y12460D01*
X12000Y12441D01*
X12145Y12460D01*
X12280Y12516D01*
X12395Y12605D01*
X12470Y12701D01*
X12478Y12705D01*
X12522D01*
X12530Y12701D01*
X12605Y12605D01*
X12720Y12516D01*
X12855Y12460D01*
X13000Y12441D01*
X13145Y12460D01*
X13280Y12516D01*
X13395Y12605D01*
X13484Y12720D01*
X13496Y12748D01*
X13546Y12738D01*
Y12546D01*
X13880D01*
Y13000D01*
Y13454D01*
X13546D01*
Y13262D01*
X13496Y13252D01*
X13484Y13280D01*
X13395Y13395D01*
X13280Y13484D01*
X13145Y13540D01*
X13000Y13559D01*
X12855Y13540D01*
X12720Y13484D01*
X12605Y13395D01*
X12530Y13299D01*
X12522Y13295D01*
X12478D01*
X12470Y13299D01*
X12395Y13395D01*
X12280Y13484D01*
X12145Y13540D01*
X12000Y13559D01*
X11855Y13540D01*
X11720Y13484D01*
X11605Y13395D01*
X11530Y13299D01*
X11522Y13295D01*
X11478D01*
X11470Y13299D01*
X11395Y13395D01*
X11280Y13484D01*
X11145Y13540D01*
X11000Y13559D01*
X10855Y13540D01*
X10720Y13484D01*
X10650Y13430D01*
X10600Y13455D01*
Y14400D01*
Y14545D01*
X10650Y14570D01*
X10720Y14516D01*
X10855Y14460D01*
X11000Y14441D01*
X11145Y14460D01*
X11280Y14516D01*
X11395Y14605D01*
X11470Y14701D01*
X11478Y14705D01*
X11522D01*
X11530Y14701D01*
X11605Y14605D01*
X11720Y14516D01*
X11855Y14460D01*
X12000Y14441D01*
X12145Y14460D01*
X12280Y14516D01*
X12395Y14605D01*
X12470Y14701D01*
X12478Y14705D01*
X12522D01*
X12530Y14701D01*
X12605Y14605D01*
X12720Y14516D01*
X12855Y14460D01*
X13000Y14441D01*
X13145Y14460D01*
X13280Y14516D01*
X13395Y14605D01*
X13484Y14720D01*
X13496Y14748D01*
X13546Y14738D01*
Y14546D01*
X13880D01*
Y15000D01*
Y15454D01*
X13546D01*
Y15262D01*
X13496Y15252D01*
X13484Y15280D01*
X13395Y15395D01*
X13280Y15484D01*
X13145Y15540D01*
X13000Y15559D01*
X12855Y15540D01*
X12720Y15484D01*
X12605Y15395D01*
X12530Y15299D01*
X12522Y15295D01*
X12478D01*
X12470Y15299D01*
X12395Y15395D01*
X12280Y15484D01*
X12145Y15540D01*
X12000Y15559D01*
X11855Y15540D01*
X11720Y15484D01*
X11605Y15395D01*
X11530Y15299D01*
X11522Y15295D01*
X11478D01*
X11470Y15299D01*
X11395Y15395D01*
X11280Y15484D01*
X11145Y15540D01*
X11000Y15559D01*
X10855Y15540D01*
X10720Y15484D01*
X10650Y15430D01*
X10600Y15455D01*
Y15600D01*
X10091D01*
X10072Y15646D01*
X10128Y15702D01*
X14123D01*
X14201Y15712D01*
X14273Y15742D01*
X14336Y15790D01*
X16063Y17517D01*
X16111Y17580D01*
X16141Y17652D01*
X16151Y17730D01*
Y19006D01*
X17113Y19967D01*
X17161Y20030D01*
X17191Y20102D01*
X17199Y20165D01*
X17249Y20162D01*
D02*
G37*
G36*
X14758Y19019D02*
X14761Y19015D01*
X14746Y18900D01*
X14762Y18783D01*
X14807Y18673D01*
X14879Y18579D01*
X14973Y18507D01*
X15083Y18462D01*
X15200Y18446D01*
X15317Y18462D01*
X15427Y18507D01*
X15499Y18562D01*
X15549Y18538D01*
Y17934D01*
X15499Y17931D01*
X15491Y17991D01*
X15456Y18077D01*
X15400Y18150D01*
X15327Y18206D01*
X15270Y18229D01*
Y17900D01*
X15030D01*
Y18296D01*
X14526Y18800D01*
Y18850D01*
X14714Y19039D01*
X14758Y19019D01*
D02*
G37*
G36*
X9399Y23075D02*
Y22786D01*
X9379Y22771D01*
X9307Y22677D01*
X9262Y22567D01*
X9246Y22450D01*
X9262Y22333D01*
X9307Y22223D01*
X9379Y22129D01*
X9473Y22057D01*
X9583Y22012D01*
X9700Y21996D01*
X9725Y21999D01*
X9778Y21946D01*
X9759Y21900D01*
X8650D01*
Y20700D01*
X10099D01*
Y20550D01*
X8750D01*
Y19350D01*
X10099D01*
Y19250D01*
X10109Y19172D01*
X10139Y19100D01*
X10187Y19037D01*
X10299Y18925D01*
X10296Y18900D01*
X10312Y18783D01*
X10357Y18673D01*
X10429Y18579D01*
X10523Y18507D01*
X10633Y18462D01*
X10750Y18446D01*
X10867Y18462D01*
X10977Y18507D01*
X11071Y18579D01*
X11143Y18673D01*
X11188Y18783D01*
X11204Y18900D01*
X11188Y19017D01*
X11143Y19127D01*
X11071Y19221D01*
X10977Y19293D01*
X10867Y19338D01*
X10750Y19354D01*
X10742Y19353D01*
X10701Y19390D01*
Y19470D01*
X10751Y19503D01*
X10855Y19460D01*
X11000Y19441D01*
X11145Y19460D01*
X11280Y19516D01*
X11395Y19605D01*
X11470Y19701D01*
X11478Y19705D01*
X11522D01*
X11530Y19701D01*
X11605Y19605D01*
X11720Y19516D01*
X11855Y19460D01*
X12000Y19441D01*
X12145Y19460D01*
X12280Y19516D01*
X12395Y19605D01*
X12470Y19701D01*
X12478Y19705D01*
X12522D01*
X12530Y19701D01*
X12605Y19605D01*
X12699Y19532D01*
Y18986D01*
X12679Y18971D01*
X12607Y18877D01*
X12562Y18767D01*
X12546Y18650D01*
X12562Y18533D01*
X12607Y18423D01*
X12679Y18329D01*
X12773Y18257D01*
X12883Y18212D01*
X13000Y18196D01*
X13117Y18212D01*
X13227Y18257D01*
X13321Y18329D01*
X13393Y18423D01*
X13438Y18533D01*
X13454Y18650D01*
X13438Y18767D01*
X13393Y18877D01*
X13321Y18971D01*
X13301Y18986D01*
Y19532D01*
X13395Y19605D01*
X13484Y19720D01*
X13496Y19748D01*
X13546Y19738D01*
Y19546D01*
X13880D01*
Y20000D01*
Y20454D01*
X13546D01*
Y20262D01*
X13496Y20252D01*
X13484Y20280D01*
X13395Y20395D01*
X13301Y20468D01*
Y20525D01*
X13325Y20549D01*
X14300D01*
X14378Y20559D01*
X14451Y20589D01*
X14513Y20637D01*
X14953Y21077D01*
X14999Y21058D01*
Y20233D01*
X14994Y20227D01*
X14959Y20141D01*
X14958Y20134D01*
X14501Y19676D01*
X14454Y19695D01*
Y19880D01*
X14120D01*
Y19546D01*
X14305D01*
X14324Y19499D01*
X13960Y19136D01*
X13900Y19111D01*
X13837Y19063D01*
X13789Y19001D01*
X13759Y18928D01*
X13749Y18850D01*
X13759Y18772D01*
X13789Y18700D01*
X13837Y18637D01*
X14481Y17993D01*
X14449Y17954D01*
X14120D01*
Y17500D01*
Y17046D01*
X14255D01*
X14274Y16999D01*
X13875Y16601D01*
X10250D01*
Y17750D01*
X9250D01*
Y16594D01*
X9222Y16591D01*
X9150Y16561D01*
X9087Y16513D01*
X8675Y16101D01*
X7162D01*
X7143Y16130D01*
X6471D01*
X6494Y16073D01*
X6499Y16067D01*
Y15950D01*
X6509Y15872D01*
X6539Y15799D01*
X6587Y15737D01*
X6737Y15587D01*
X6799Y15539D01*
X6872Y15509D01*
X6950Y15499D01*
X7650D01*
Y15370D01*
X8350D01*
Y15499D01*
X8499D01*
Y14852D01*
X8450Y14850D01*
X8450Y14850D01*
X8450Y14850D01*
X7550D01*
Y14541D01*
X7504Y14522D01*
X5951Y16075D01*
Y19500D01*
X5941Y19578D01*
X5911Y19650D01*
X5863Y19713D01*
X3872Y21704D01*
X3891Y21750D01*
X3900D01*
Y21899D01*
X4900D01*
X4978Y21909D01*
X5051Y21939D01*
X5113Y21987D01*
X7225Y24099D01*
X8375D01*
X9399Y23075D01*
D02*
G37*
G36*
X9173Y15107D02*
X9283Y15062D01*
X9400Y15046D01*
X9517Y15062D01*
X9558Y15079D01*
X9600Y15051D01*
Y14400D01*
Y14298D01*
X9578Y14287D01*
X9550Y14284D01*
X9500Y14350D01*
X9427Y14406D01*
X9341Y14441D01*
X9334Y14442D01*
X9101Y14675D01*
Y15106D01*
X9146Y15128D01*
X9173Y15107D01*
D02*
G37*
G36*
X16599Y24175D02*
Y22644D01*
X16554Y22622D01*
X16527Y22643D01*
X16417Y22688D01*
X16300Y22704D01*
X16183Y22688D01*
X16073Y22643D01*
X15979Y22571D01*
X15907Y22477D01*
X15862Y22367D01*
X15846Y22250D01*
X15862Y22133D01*
X15907Y22023D01*
X15979Y21929D01*
X15999Y21914D01*
Y20125D01*
X15225Y19351D01*
X15200Y19354D01*
X15085Y19339D01*
X15081Y19342D01*
X15061Y19386D01*
X15384Y19708D01*
X15391Y19709D01*
X15477Y19744D01*
X15550Y19800D01*
X15606Y19873D01*
X15629Y19930D01*
X15300D01*
Y20170D01*
X15629D01*
X15606Y20227D01*
X15601Y20233D01*
Y22184D01*
X15627Y22194D01*
X15700Y22250D01*
X15756Y22323D01*
X15779Y22380D01*
X15450D01*
Y22620D01*
X15779D01*
X15756Y22677D01*
X15751Y22683D01*
Y24567D01*
X15756Y24573D01*
X15779Y24630D01*
X15450D01*
Y24870D01*
X15779D01*
X15760Y24917D01*
X15770Y24950D01*
X15784Y24972D01*
X15800Y24974D01*
X16599Y24175D01*
D02*
G37*
G36*
X12533Y25730D02*
X12619Y25619D01*
X12730Y25533D01*
X12739Y25530D01*
X12746Y25472D01*
X12679Y25421D01*
X12607Y25327D01*
X12562Y25217D01*
X12546Y25100D01*
X12562Y24983D01*
X12578Y24943D01*
X12550Y24901D01*
X12454D01*
X12438Y25017D01*
X12393Y25127D01*
X12321Y25221D01*
X12227Y25293D01*
X12117Y25338D01*
X12000Y25354D01*
X11883Y25338D01*
X11773Y25293D01*
X11679Y25221D01*
X11607Y25127D01*
X11562Y25017D01*
X11546Y24900D01*
X11562Y24783D01*
X11607Y24673D01*
X11679Y24579D01*
X11773Y24507D01*
X11883Y24462D01*
X12000Y24446D01*
X12025Y24449D01*
X12087Y24387D01*
X12149Y24339D01*
X12222Y24309D01*
X12300Y24299D01*
X14325D01*
X14599Y24025D01*
Y21575D01*
X14175Y21151D01*
X13200D01*
X13122Y21141D01*
X13049Y21111D01*
X12987Y21063D01*
X12787Y20863D01*
X12739Y20800D01*
X12709Y20728D01*
X12699Y20650D01*
Y20468D01*
X12605Y20395D01*
X12530Y20299D01*
X12522Y20295D01*
X12478D01*
X12470Y20299D01*
X12395Y20395D01*
X12280Y20484D01*
X12145Y20540D01*
X12000Y20559D01*
X11855Y20540D01*
X11720Y20484D01*
X11605Y20395D01*
X11530Y20299D01*
X11522Y20295D01*
X11478D01*
X11470Y20299D01*
X11395Y20395D01*
X11280Y20484D01*
X11145Y20540D01*
X11000Y20559D01*
X10855Y20540D01*
X10751Y20497D01*
X10701Y20530D01*
Y21750D01*
X10691Y21828D01*
X10661Y21900D01*
X10613Y21963D01*
X10151Y22425D01*
X10154Y22450D01*
X10138Y22567D01*
X10093Y22677D01*
X10021Y22771D01*
X10001Y22786D01*
Y23200D01*
X9991Y23278D01*
X9961Y23351D01*
X9913Y23413D01*
X8713Y24613D01*
X8651Y24661D01*
X8578Y24691D01*
X8500Y24701D01*
X7474D01*
X7441Y24751D01*
X7454Y24850D01*
X7438Y24967D01*
X7393Y25077D01*
X7321Y25171D01*
X7301Y25186D01*
Y25557D01*
X7381Y25619D01*
X7467Y25730D01*
X7475Y25750D01*
X7525D01*
X7533Y25730D01*
X7619Y25619D01*
X7730Y25533D01*
X7860Y25479D01*
X8000Y25461D01*
X8140Y25479D01*
X8270Y25533D01*
X8381Y25619D01*
X8467Y25730D01*
X8475Y25750D01*
X8525D01*
X8533Y25730D01*
X8619Y25619D01*
X8730Y25533D01*
X8860Y25479D01*
X9000Y25461D01*
X9140Y25479D01*
X9270Y25533D01*
X9381Y25619D01*
X9467Y25730D01*
X9475Y25750D01*
X9525D01*
X9533Y25730D01*
X9619Y25619D01*
X9730Y25533D01*
X9860Y25479D01*
X10000Y25461D01*
X10140Y25479D01*
X10270Y25533D01*
X10381Y25619D01*
X10467Y25730D01*
X10475Y25750D01*
X10525D01*
X10533Y25730D01*
X10619Y25619D01*
X10730Y25533D01*
X10860Y25479D01*
X11000Y25461D01*
X11140Y25479D01*
X11270Y25533D01*
X11381Y25619D01*
X11467Y25730D01*
X11475Y25750D01*
X11525D01*
X11533Y25730D01*
X11619Y25619D01*
X11730Y25533D01*
X11860Y25479D01*
X12000Y25461D01*
X12140Y25479D01*
X12270Y25533D01*
X12381Y25619D01*
X12467Y25730D01*
X12475Y25750D01*
X12525D01*
X12533Y25730D01*
D02*
G37*
G36*
X8505Y13419D02*
X8496Y13350D01*
X8512Y13233D01*
X8557Y13123D01*
X8629Y13029D01*
X8723Y12957D01*
X8833Y12912D01*
X8950Y12896D01*
X9067Y12912D01*
X9107Y12928D01*
X9148Y12891D01*
X9159Y12809D01*
X9194Y12723D01*
X9250Y12650D01*
X9323Y12594D01*
X9409Y12559D01*
X9416Y12558D01*
X10187Y11787D01*
X10250Y11739D01*
X10322Y11709D01*
X10385Y11701D01*
X10382Y11651D01*
X9725D01*
X7923Y13453D01*
X7942Y13499D01*
X8425D01*
X8505Y13419D01*
D02*
G37*
%LPC*%
G36*
X-3120Y20542D02*
X-3137Y20540D01*
X-3269Y20500D01*
X-3391Y20435D01*
X-3497Y20347D01*
X-3585Y20241D01*
X-3650Y20119D01*
X-3690Y19987D01*
X-3692Y19970D01*
X-3120D01*
Y20542D01*
D02*
G37*
G36*
X14454Y20454D02*
X14120D01*
Y20120D01*
X14454D01*
Y20454D01*
D02*
G37*
G36*
X-2880Y20542D02*
Y19970D01*
X-2308D01*
X-2310Y19987D01*
X-2350Y20119D01*
X-2415Y20241D01*
X-2503Y20347D01*
X-2609Y20435D01*
X-2731Y20500D01*
X-2863Y20540D01*
X-2880Y20542D01*
D02*
G37*
G36*
X1550Y22099D02*
X350D01*
Y19900D01*
X1550D01*
Y22099D01*
D02*
G37*
G36*
X-3120Y19730D02*
X-3692D01*
X-3690Y19713D01*
X-3650Y19581D01*
X-3585Y19459D01*
X-3497Y19353D01*
X-3391Y19265D01*
X-3269Y19200D01*
X-3137Y19160D01*
X-3120Y19158D01*
Y19730D01*
D02*
G37*
G36*
X-750Y20654D02*
X-907Y20638D01*
X-1058Y20593D01*
X-1197Y20518D01*
X-1318Y20418D01*
X-1418Y20297D01*
X-1493Y20158D01*
X-1538Y20007D01*
X-1554Y19850D01*
X-1538Y19693D01*
X-1493Y19542D01*
X-1418Y19403D01*
X-1318Y19282D01*
X-1197Y19182D01*
X-1058Y19107D01*
X-907Y19062D01*
X-750Y19046D01*
X-593Y19062D01*
X-442Y19107D01*
X-303Y19182D01*
X-182Y19282D01*
X-82Y19403D01*
X-7Y19542D01*
X38Y19693D01*
X54Y19850D01*
X38Y20007D01*
X-7Y20158D01*
X-82Y20297D01*
X-182Y20418D01*
X-303Y20518D01*
X-442Y20593D01*
X-593Y20638D01*
X-750Y20654D01*
D02*
G37*
G36*
X-4050Y22099D02*
X-5250D01*
Y19900D01*
X-4050D01*
Y22099D01*
D02*
G37*
G36*
X-2308Y19730D02*
X-2880D01*
Y19158D01*
X-2863Y19160D01*
X-2731Y19200D01*
X-2609Y19265D01*
X-2503Y19353D01*
X-2415Y19459D01*
X-2350Y19581D01*
X-2310Y19713D01*
X-2308Y19730D01*
D02*
G37*
G36*
X7350Y23454D02*
X7233Y23438D01*
X7123Y23393D01*
X7029Y23321D01*
X6957Y23227D01*
X6912Y23117D01*
X6896Y23000D01*
X6912Y22883D01*
X6957Y22773D01*
X7029Y22679D01*
X7040Y22671D01*
X7042Y22618D01*
X6537Y22113D01*
X6489Y22050D01*
X6459Y21978D01*
X6455Y21945D01*
X6412Y21920D01*
X6367Y21938D01*
X6250Y21954D01*
X6133Y21938D01*
X6023Y21893D01*
X5929Y21821D01*
X5857Y21727D01*
X5812Y21617D01*
X5796Y21500D01*
X5812Y21383D01*
X5857Y21273D01*
X5929Y21179D01*
X6023Y21107D01*
X6133Y21062D01*
X6250Y21046D01*
X6302Y21003D01*
X6312Y20933D01*
X6357Y20823D01*
X6429Y20729D01*
X6523Y20657D01*
X6633Y20612D01*
X6750Y20596D01*
X6867Y20612D01*
X6977Y20657D01*
X7071Y20729D01*
X7143Y20823D01*
X7188Y20933D01*
X7204Y21050D01*
X7188Y21167D01*
X7143Y21277D01*
X7071Y21371D01*
X7051Y21386D01*
Y21775D01*
X7563Y22287D01*
X7611Y22350D01*
X7641Y22422D01*
X7651Y22500D01*
Y22664D01*
X7671Y22679D01*
X7743Y22773D01*
X7788Y22883D01*
X7804Y23000D01*
X7788Y23117D01*
X7743Y23227D01*
X7671Y23321D01*
X7577Y23393D01*
X7467Y23438D01*
X7350Y23454D01*
D02*
G37*
G36*
X3000Y22080D02*
X2820D01*
Y21850D01*
X3000D01*
Y22080D01*
D02*
G37*
G36*
X-3120Y22542D02*
X-3137Y22540D01*
X-3269Y22500D01*
X-3391Y22435D01*
X-3497Y22347D01*
X-3585Y22241D01*
X-3650Y22119D01*
X-3690Y21987D01*
X-3692Y21970D01*
X-3120D01*
Y22542D01*
D02*
G37*
G36*
X14454Y22380D02*
X14120D01*
Y22046D01*
X14454D01*
Y22380D01*
D02*
G37*
G36*
X-2880Y22542D02*
Y21970D01*
X-2308D01*
X-2310Y21987D01*
X-2350Y22119D01*
X-2415Y22241D01*
X-2503Y22347D01*
X-2609Y22435D01*
X-2731Y22500D01*
X-2863Y22540D01*
X-2880Y22542D01*
D02*
G37*
G36*
X-3120Y21730D02*
X-3692D01*
X-3690Y21713D01*
X-3650Y21581D01*
X-3585Y21459D01*
X-3497Y21353D01*
X-3391Y21265D01*
X-3269Y21200D01*
X-3137Y21160D01*
X-3120Y21158D01*
Y21730D01*
D02*
G37*
G36*
X-750Y22654D02*
X-907Y22638D01*
X-1058Y22593D01*
X-1197Y22518D01*
X-1318Y22418D01*
X-1418Y22297D01*
X-1493Y22158D01*
X-1538Y22007D01*
X-1554Y21850D01*
X-1538Y21693D01*
X-1493Y21542D01*
X-1418Y21403D01*
X-1318Y21282D01*
X-1197Y21182D01*
X-1058Y21107D01*
X-907Y21062D01*
X-750Y21046D01*
X-593Y21062D01*
X-442Y21107D01*
X-303Y21182D01*
X-182Y21282D01*
X-82Y21403D01*
X-7Y21542D01*
X38Y21693D01*
X54Y21850D01*
X38Y22007D01*
X-7Y22158D01*
X-82Y22297D01*
X-182Y22418D01*
X-303Y22518D01*
X-442Y22593D01*
X-593Y22638D01*
X-750Y22654D01*
D02*
G37*
G36*
X14454Y22954D02*
X14120D01*
Y22620D01*
X14454D01*
Y22954D01*
D02*
G37*
G36*
X2580Y22080D02*
X2400D01*
Y21850D01*
X2580D01*
Y22080D01*
D02*
G37*
G36*
X-2308Y21730D02*
X-2880D01*
Y21158D01*
X-2863Y21160D01*
X-2731Y21200D01*
X-2609Y21265D01*
X-2503Y21353D01*
X-2415Y21459D01*
X-2350Y21581D01*
X-2310Y21713D01*
X-2308Y21730D01*
D02*
G37*
G36*
X7880Y15130D02*
X7650D01*
Y14950D01*
X7880D01*
Y15130D01*
D02*
G37*
G36*
X-2408Y15380D02*
X-2980D01*
Y14808D01*
X-2963Y14810D01*
X-2831Y14850D01*
X-2709Y14915D01*
X-2603Y15003D01*
X-2515Y15109D01*
X-2450Y15231D01*
X-2410Y15363D01*
X-2408Y15380D01*
D02*
G37*
G36*
X8350Y15130D02*
X8120D01*
Y14950D01*
X8350D01*
Y15130D01*
D02*
G37*
G36*
X1365Y17805D02*
X166Y17783D01*
X206Y15584D01*
X1405Y15606D01*
X1365Y17805D01*
D02*
G37*
G36*
X14454Y15454D02*
X14120D01*
Y15120D01*
X14454D01*
Y15454D01*
D02*
G37*
G36*
X-3220Y15380D02*
X-3792D01*
X-3790Y15363D01*
X-3750Y15231D01*
X-3685Y15109D01*
X-3597Y15003D01*
X-3491Y14915D01*
X-3369Y14850D01*
X-3237Y14810D01*
X-3220Y14808D01*
Y15380D01*
D02*
G37*
G36*
X14454Y12880D02*
X14120D01*
Y12546D01*
X14454D01*
Y12880D01*
D02*
G37*
G36*
X13070Y12329D02*
Y12120D01*
X13279D01*
X13256Y12177D01*
X13200Y12250D01*
X13127Y12306D01*
X13070Y12329D01*
D02*
G37*
G36*
X14454Y13454D02*
X14120D01*
Y13120D01*
X14454D01*
Y13454D01*
D02*
G37*
G36*
X-800Y16304D02*
X-957Y16288D01*
X-1108Y16243D01*
X-1247Y16168D01*
X-1368Y16068D01*
X-1468Y15947D01*
X-1543Y15808D01*
X-1588Y15657D01*
X-1604Y15500D01*
X-1588Y15343D01*
X-1543Y15192D01*
X-1468Y15053D01*
X-1368Y14932D01*
X-1247Y14832D01*
X-1108Y14757D01*
X-957Y14712D01*
X-800Y14696D01*
X-643Y14712D01*
X-492Y14757D01*
X-353Y14832D01*
X-232Y14932D01*
X-132Y15053D01*
X-57Y15192D01*
X-12Y15343D01*
X4Y15500D01*
X-12Y15657D01*
X-57Y15808D01*
X-132Y15947D01*
X-232Y16068D01*
X-353Y16168D01*
X-492Y16243D01*
X-643Y16288D01*
X-800Y16304D01*
D02*
G37*
G36*
X14454Y14880D02*
X14120D01*
Y14546D01*
X14454D01*
Y14880D01*
D02*
G37*
G36*
X-4100Y17801D02*
X-5300D01*
Y15602D01*
X-4100D01*
Y17801D01*
D02*
G37*
G36*
X-2408Y17380D02*
X-2980D01*
Y16808D01*
X-2963Y16810D01*
X-2831Y16850D01*
X-2709Y16915D01*
X-2603Y17003D01*
X-2515Y17109D01*
X-2450Y17231D01*
X-2410Y17363D01*
X-2408Y17380D01*
D02*
G37*
G36*
X-3220D02*
X-3792D01*
X-3790Y17363D01*
X-3750Y17231D01*
X-3685Y17109D01*
X-3597Y17003D01*
X-3491Y16915D01*
X-3369Y16850D01*
X-3237Y16810D01*
X-3220Y16808D01*
Y17380D01*
D02*
G37*
G36*
Y18192D02*
X-3237Y18190D01*
X-3369Y18150D01*
X-3491Y18085D01*
X-3597Y17997D01*
X-3685Y17891D01*
X-3750Y17769D01*
X-3790Y17637D01*
X-3792Y17620D01*
X-3220D01*
Y18192D01*
D02*
G37*
G36*
X13000Y18059D02*
X12855Y18040D01*
X12720Y17984D01*
X12605Y17895D01*
X12530Y17799D01*
X12522Y17795D01*
X12478D01*
X12470Y17799D01*
X12395Y17895D01*
X12280Y17984D01*
X12145Y18040D01*
X12000Y18059D01*
X11855Y18040D01*
X11720Y17984D01*
X11605Y17895D01*
X11530Y17799D01*
X11522Y17795D01*
X11478D01*
X11470Y17799D01*
X11395Y17895D01*
X11280Y17984D01*
X11145Y18040D01*
X11000Y18059D01*
X10855Y18040D01*
X10720Y17984D01*
X10605Y17895D01*
X10516Y17780D01*
X10460Y17645D01*
X10441Y17500D01*
X10460Y17355D01*
X10516Y17220D01*
X10605Y17105D01*
X10720Y17016D01*
X10855Y16960D01*
X11000Y16941D01*
X11145Y16960D01*
X11280Y17016D01*
X11395Y17105D01*
X11470Y17201D01*
X11478Y17205D01*
X11522D01*
X11530Y17201D01*
X11605Y17105D01*
X11720Y17016D01*
X11855Y16960D01*
X12000Y16941D01*
X12145Y16960D01*
X12280Y17016D01*
X12395Y17105D01*
X12470Y17201D01*
X12478Y17205D01*
X12522D01*
X12530Y17201D01*
X12605Y17105D01*
X12720Y17016D01*
X12855Y16960D01*
X13000Y16941D01*
X13145Y16960D01*
X13280Y17016D01*
X13395Y17105D01*
X13484Y17220D01*
X13496Y17248D01*
X13546Y17238D01*
Y17046D01*
X13880D01*
Y17500D01*
Y17954D01*
X13546D01*
Y17762D01*
X13496Y17752D01*
X13484Y17780D01*
X13395Y17895D01*
X13280Y17984D01*
X13145Y18040D01*
X13000Y18059D01*
D02*
G37*
G36*
X-2980Y18192D02*
Y17620D01*
X-2408D01*
X-2410Y17637D01*
X-2450Y17769D01*
X-2515Y17891D01*
X-2603Y17997D01*
X-2709Y18085D01*
X-2831Y18150D01*
X-2963Y18190D01*
X-2980Y18192D01*
D02*
G37*
G36*
X-800Y18304D02*
X-957Y18288D01*
X-1108Y18243D01*
X-1247Y18168D01*
X-1368Y18068D01*
X-1468Y17947D01*
X-1543Y17808D01*
X-1588Y17657D01*
X-1604Y17500D01*
X-1588Y17343D01*
X-1543Y17192D01*
X-1468Y17053D01*
X-1368Y16932D01*
X-1247Y16832D01*
X-1108Y16757D01*
X-957Y16712D01*
X-800Y16696D01*
X-643Y16712D01*
X-492Y16757D01*
X-353Y16832D01*
X-232Y16932D01*
X-132Y17053D01*
X-57Y17192D01*
X-12Y17343D01*
X4Y17500D01*
X-12Y17657D01*
X-57Y17808D01*
X-132Y17947D01*
X-232Y18068D01*
X-353Y18168D01*
X-492Y18243D01*
X-643Y18288D01*
X-800Y18304D01*
D02*
G37*
G36*
X-2980Y16192D02*
Y15620D01*
X-2408D01*
X-2410Y15637D01*
X-2450Y15769D01*
X-2515Y15891D01*
X-2603Y15997D01*
X-2709Y16085D01*
X-2831Y16150D01*
X-2963Y16190D01*
X-2980Y16192D01*
D02*
G37*
G36*
X-3220D02*
X-3237Y16190D01*
X-3369Y16150D01*
X-3491Y16085D01*
X-3597Y15997D01*
X-3685Y15891D01*
X-3750Y15769D01*
X-3790Y15637D01*
X-3792Y15620D01*
X-3220D01*
Y16192D01*
D02*
G37*
G36*
X3300Y18188D02*
X3114Y18173D01*
X2933Y18130D01*
X2761Y18058D01*
X2602Y17961D01*
X2460Y17840D01*
X2339Y17698D01*
X2242Y17539D01*
X2170Y17367D01*
X2127Y17186D01*
X2112Y17000D01*
X2127Y16814D01*
X2170Y16633D01*
X2242Y16461D01*
X2339Y16302D01*
X2460Y16160D01*
X2602Y16039D01*
X2761Y15942D01*
X2933Y15870D01*
X3114Y15827D01*
X3300Y15812D01*
X3486Y15827D01*
X3667Y15870D01*
X3839Y15942D01*
X3998Y16039D01*
X4140Y16160D01*
X4261Y16302D01*
X4358Y16461D01*
X4430Y16633D01*
X4473Y16814D01*
X4488Y17000D01*
X4473Y17186D01*
X4430Y17367D01*
X4358Y17539D01*
X4261Y17698D01*
X4140Y17840D01*
X3998Y17961D01*
X3839Y18058D01*
X3667Y18130D01*
X3486Y18173D01*
X3300Y18188D01*
D02*
G37*
G36*
X6920Y16579D02*
Y16370D01*
X7129D01*
X7106Y16427D01*
X7050Y16500D01*
X6977Y16556D01*
X6920Y16579D01*
D02*
G37*
G36*
X6680D02*
X6623Y16556D01*
X6550Y16500D01*
X6494Y16427D01*
X6471Y16370D01*
X6680D01*
Y16579D01*
D02*
G37*
G36*
X15454Y36454D02*
X15120D01*
Y36120D01*
X15454D01*
Y36454D01*
D02*
G37*
G36*
X6000Y38559D02*
X5855Y38540D01*
X5720Y38484D01*
X5605Y38395D01*
X5516Y38280D01*
X5460Y38145D01*
X5441Y38000D01*
X5460Y37855D01*
X5516Y37720D01*
X5605Y37605D01*
X5701Y37530D01*
X5705Y37522D01*
Y37478D01*
X5701Y37470D01*
X5605Y37395D01*
X5516Y37280D01*
X5460Y37145D01*
X5441Y37000D01*
X5460Y36855D01*
X5516Y36720D01*
X5605Y36605D01*
X5720Y36516D01*
X5748Y36504D01*
X5738Y36454D01*
X5546D01*
Y36120D01*
X6454D01*
Y36454D01*
X6262D01*
X6252Y36504D01*
X6280Y36516D01*
X6395Y36605D01*
X6484Y36720D01*
X6540Y36855D01*
X6559Y37000D01*
X6540Y37145D01*
X6484Y37280D01*
X6395Y37395D01*
X6299Y37470D01*
X6295Y37478D01*
Y37522D01*
X6299Y37530D01*
X6395Y37605D01*
X6484Y37720D01*
X6540Y37855D01*
X6559Y38000D01*
X6540Y38145D01*
X6484Y38280D01*
X6395Y38395D01*
X6280Y38484D01*
X6145Y38540D01*
X6000Y38559D01*
D02*
G37*
G36*
X14000Y36559D02*
X13855Y36540D01*
X13720Y36484D01*
X13605Y36395D01*
X13530Y36299D01*
X13522Y36295D01*
X13478D01*
X13470Y36299D01*
X13395Y36395D01*
X13280Y36484D01*
X13145Y36540D01*
X13000Y36559D01*
X12855Y36540D01*
X12720Y36484D01*
X12605Y36395D01*
X12516Y36280D01*
X12460Y36145D01*
X12441Y36000D01*
X12460Y35855D01*
X12516Y35720D01*
X12605Y35605D01*
X12720Y35516D01*
X12855Y35460D01*
X13000Y35441D01*
X13145Y35460D01*
X13280Y35516D01*
X13395Y35605D01*
X13470Y35701D01*
X13478Y35705D01*
X13522D01*
X13530Y35701D01*
X13605Y35605D01*
X13720Y35516D01*
X13855Y35460D01*
X14000Y35441D01*
X14145Y35460D01*
X14280Y35516D01*
X14395Y35605D01*
X14484Y35720D01*
X14496Y35748D01*
X14546Y35738D01*
Y35546D01*
X14880D01*
Y36000D01*
Y36454D01*
X14546D01*
Y36262D01*
X14496Y36252D01*
X14484Y36280D01*
X14395Y36395D01*
X14280Y36484D01*
X14145Y36540D01*
X14000Y36559D01*
D02*
G37*
G36*
X-3500Y37604D02*
X-3617Y37588D01*
X-3727Y37543D01*
X-3821Y37471D01*
X-3893Y37377D01*
X-3938Y37267D01*
X-3954Y37150D01*
Y36850D01*
X-3938Y36733D01*
X-3893Y36623D01*
X-3821Y36529D01*
X-3727Y36457D01*
X-3617Y36412D01*
X-3500Y36396D01*
X-3383Y36412D01*
X-3273Y36457D01*
X-3179Y36529D01*
X-3107Y36623D01*
X-3062Y36733D01*
X-3046Y36850D01*
Y37150D01*
X-3062Y37267D01*
X-3107Y37377D01*
X-3179Y37471D01*
X-3273Y37543D01*
X-3383Y37588D01*
X-3500Y37604D01*
D02*
G37*
G36*
X4970Y36529D02*
Y36320D01*
X5179D01*
X5156Y36377D01*
X5100Y36450D01*
X5027Y36506D01*
X4970Y36529D01*
D02*
G37*
G36*
X5179Y36080D02*
X4970D01*
Y35871D01*
X5027Y35894D01*
X5100Y35950D01*
X5156Y36023D01*
X5179Y36080D01*
D02*
G37*
G36*
X17400Y36600D02*
X15800D01*
Y35400D01*
X17400D01*
Y36600D01*
D02*
G37*
G36*
X-4380Y34979D02*
Y34620D01*
X-4147D01*
Y34650D01*
X-4159Y34741D01*
X-4194Y34827D01*
X-4250Y34900D01*
X-4323Y34956D01*
X-4380Y34979D01*
D02*
G37*
G36*
X11580Y35730D02*
X11371D01*
X11394Y35673D01*
X11450Y35600D01*
X11523Y35544D01*
X11580Y35521D01*
Y35730D01*
D02*
G37*
G36*
X15454Y35880D02*
X15120D01*
Y35546D01*
X15454D01*
Y35880D01*
D02*
G37*
G36*
X12029Y35730D02*
X11820D01*
Y35521D01*
X11877Y35544D01*
X11950Y35600D01*
X12006Y35673D01*
X12029Y35730D01*
D02*
G37*
G36*
X-4620Y36880D02*
X-4853D01*
Y36850D01*
X-4841Y36759D01*
X-4806Y36673D01*
X-4750Y36600D01*
X-4677Y36544D01*
X-4620Y36521D01*
Y36880D01*
D02*
G37*
G36*
X14000Y38559D02*
X13855Y38540D01*
X13720Y38484D01*
X13605Y38395D01*
X13530Y38299D01*
X13522Y38295D01*
X13478D01*
X13470Y38299D01*
X13395Y38395D01*
X13280Y38484D01*
X13145Y38540D01*
X13000Y38559D01*
X12855Y38540D01*
X12720Y38484D01*
X12605Y38395D01*
X12516Y38280D01*
X12460Y38145D01*
X12441Y38000D01*
X12460Y37855D01*
X12516Y37720D01*
X12605Y37605D01*
X12720Y37516D01*
X12855Y37460D01*
X13000Y37441D01*
X13145Y37460D01*
X13280Y37516D01*
X13395Y37605D01*
X13470Y37701D01*
X13478Y37705D01*
X13522D01*
X13530Y37701D01*
X13605Y37605D01*
X13720Y37516D01*
X13855Y37460D01*
X14000Y37441D01*
X14145Y37460D01*
X14280Y37516D01*
X14395Y37605D01*
X14484Y37720D01*
X14496Y37748D01*
X14546Y37738D01*
Y37546D01*
X14880D01*
Y38000D01*
Y38454D01*
X14546D01*
Y38262D01*
X14496Y38252D01*
X14484Y38280D01*
X14395Y38395D01*
X14280Y38484D01*
X14145Y38540D01*
X14000Y38559D01*
D02*
G37*
G36*
X10954Y38454D02*
X10620D01*
Y38120D01*
X10954D01*
Y38454D01*
D02*
G37*
G36*
X6600Y40550D02*
X5600D01*
Y39351D01*
X1500D01*
X1422Y39341D01*
X1349Y39311D01*
X1287Y39263D01*
X1239Y39200D01*
X1209Y39128D01*
X1199Y39050D01*
Y37500D01*
X1209Y37422D01*
X1239Y37350D01*
X1287Y37287D01*
X2637Y35937D01*
X2700Y35889D01*
X2772Y35859D01*
X2850Y35849D01*
X3649D01*
Y34350D01*
X3659Y34272D01*
X3689Y34200D01*
X3737Y34137D01*
X4508Y33366D01*
X4509Y33359D01*
X4544Y33273D01*
X4600Y33200D01*
X4673Y33144D01*
X4730Y33121D01*
Y33450D01*
X4850D01*
Y33570D01*
X5179D01*
X5156Y33627D01*
X5100Y33700D01*
X5027Y33756D01*
X4941Y33791D01*
X4934Y33792D01*
X4251Y34475D01*
Y35849D01*
X4730D01*
Y36200D01*
Y36529D01*
X4673Y36506D01*
X4602Y36451D01*
X2975D01*
X1801Y37625D01*
Y38749D01*
X11658D01*
X11677Y38703D01*
X11616Y38642D01*
X11609Y38641D01*
X11523Y38606D01*
X11450Y38550D01*
X11394Y38477D01*
X11371Y38420D01*
X11700D01*
Y38180D01*
X11371D01*
X11394Y38123D01*
X11399Y38117D01*
Y37600D01*
X10954D01*
Y37880D01*
X10500D01*
Y38000D01*
X10380D01*
Y38454D01*
X10046D01*
Y38262D01*
X9996Y38252D01*
X9984Y38280D01*
X9895Y38395D01*
X9780Y38484D01*
X9645Y38540D01*
X9500Y38559D01*
X9355Y38540D01*
X9220Y38484D01*
X9105Y38395D01*
X9030Y38299D01*
X9022Y38295D01*
X8978D01*
X8970Y38299D01*
X8895Y38395D01*
X8780Y38484D01*
X8645Y38540D01*
X8500Y38559D01*
X8355Y38540D01*
X8220Y38484D01*
X8105Y38395D01*
X8016Y38280D01*
X7960Y38145D01*
X7941Y38000D01*
X7960Y37855D01*
X8016Y37720D01*
X8105Y37605D01*
X8220Y37516D01*
X8355Y37460D01*
X8500Y37441D01*
X8645Y37460D01*
X8780Y37516D01*
X8895Y37605D01*
X8970Y37701D01*
X8978Y37705D01*
X9022D01*
X9030Y37701D01*
X9105Y37605D01*
X9220Y37516D01*
X9355Y37460D01*
X9500Y37441D01*
Y36400D01*
X11399D01*
Y36033D01*
X11394Y36027D01*
X11371Y35970D01*
X12029D01*
X12006Y36027D01*
X12001Y36033D01*
Y38117D01*
X12006Y38123D01*
X12041Y38209D01*
X12042Y38216D01*
X12663Y38837D01*
X12825Y38999D01*
X14117D01*
X14123Y38994D01*
X14180Y38971D01*
Y39300D01*
Y39629D01*
X14123Y39606D01*
X14117Y39601D01*
X13550D01*
Y40500D01*
X12550D01*
Y39561D01*
X12550Y39561D01*
X12487Y39513D01*
X12325Y39351D01*
X9900D01*
Y40500D01*
X8900D01*
Y39351D01*
X6600D01*
Y40550D01*
D02*
G37*
G36*
X14420Y39629D02*
Y39420D01*
X14629D01*
X14606Y39477D01*
X14550Y39550D01*
X14477Y39606D01*
X14420Y39629D01*
D02*
G37*
G36*
X14629Y39180D02*
X14420D01*
Y38971D01*
X14477Y38994D01*
X14550Y39050D01*
X14606Y39123D01*
X14629Y39180D01*
D02*
G37*
G36*
X-4000Y40188D02*
X-4186Y40173D01*
X-4367Y40130D01*
X-4539Y40058D01*
X-4698Y39961D01*
X-4840Y39840D01*
X-4961Y39698D01*
X-5058Y39539D01*
X-5130Y39367D01*
X-5173Y39186D01*
X-5188Y39000D01*
X-5173Y38814D01*
X-5130Y38633D01*
X-5058Y38461D01*
X-4961Y38302D01*
X-4840Y38160D01*
X-4698Y38039D01*
X-4539Y37942D01*
X-4367Y37870D01*
X-4186Y37827D01*
X-4000Y37812D01*
X-3814Y37827D01*
X-3633Y37870D01*
X-3461Y37942D01*
X-3302Y38039D01*
X-3160Y38160D01*
X-3039Y38302D01*
X-2942Y38461D01*
X-2870Y38633D01*
X-2827Y38814D01*
X-2812Y39000D01*
X-2827Y39186D01*
X-2870Y39367D01*
X-2942Y39539D01*
X-3039Y39698D01*
X-3160Y39840D01*
X-3302Y39961D01*
X-3461Y40058D01*
X-3633Y40130D01*
X-3814Y40173D01*
X-4000Y40188D01*
D02*
G37*
G36*
X-4620Y37479D02*
X-4677Y37456D01*
X-4750Y37400D01*
X-4806Y37327D01*
X-4841Y37241D01*
X-4853Y37150D01*
Y37120D01*
X-4620D01*
Y37479D01*
D02*
G37*
G36*
X-4147Y36880D02*
X-4380D01*
Y36521D01*
X-4323Y36544D01*
X-4250Y36600D01*
X-4194Y36673D01*
X-4159Y36759D01*
X-4147Y36850D01*
Y36880D01*
D02*
G37*
G36*
X-4380Y37479D02*
Y37120D01*
X-4147D01*
Y37150D01*
X-4159Y37241D01*
X-4194Y37327D01*
X-4250Y37400D01*
X-4323Y37456D01*
X-4380Y37479D01*
D02*
G37*
G36*
X16535Y40164D02*
X16350Y40150D01*
X16168Y40106D01*
X15996Y40035D01*
X15837Y39937D01*
X15695Y39816D01*
X15574Y39675D01*
X15477Y39516D01*
X15406Y39343D01*
X15362Y39162D01*
X15348Y38976D01*
X15362Y38791D01*
X15406Y38609D01*
X15449Y38504D01*
X15416Y38454D01*
X15120D01*
Y38120D01*
X15454D01*
Y38378D01*
X15504Y38392D01*
X15574Y38278D01*
X15695Y38136D01*
X15837Y38015D01*
X15996Y37918D01*
X16168Y37847D01*
X16350Y37803D01*
X16535Y37788D01*
X16721Y37803D01*
X16903Y37847D01*
X17075Y37918D01*
X17234Y38015D01*
X17375Y38136D01*
X17496Y38278D01*
X17594Y38437D01*
X17665Y38609D01*
X17709Y38791D01*
X17723Y38976D01*
X17709Y39162D01*
X17665Y39343D01*
X17594Y39516D01*
X17496Y39675D01*
X17375Y39816D01*
X17234Y39937D01*
X17075Y40035D01*
X16903Y40106D01*
X16721Y40150D01*
X16535Y40164D01*
D02*
G37*
G36*
X15454Y37880D02*
X15120D01*
Y37546D01*
X15454D01*
Y37880D01*
D02*
G37*
G36*
X-4620Y34979D02*
X-4677Y34956D01*
X-4750Y34900D01*
X-4806Y34827D01*
X-4841Y34741D01*
X-4853Y34650D01*
Y34620D01*
X-4620D01*
Y34979D01*
D02*
G37*
G36*
X13747Y30000D02*
X2950D01*
Y28800D01*
X13747D01*
Y30000D01*
D02*
G37*
G36*
X-2700Y28800D02*
X-4300D01*
Y27200D01*
X-2700D01*
Y28800D01*
D02*
G37*
G36*
X-3500Y30804D02*
X-3657Y30788D01*
X-3808Y30743D01*
X-3947Y30668D01*
X-4068Y30568D01*
X-4168Y30447D01*
X-4243Y30308D01*
X-4288Y30157D01*
X-4304Y30000D01*
X-4288Y29843D01*
X-4243Y29692D01*
X-4168Y29553D01*
X-4068Y29432D01*
X-3947Y29332D01*
X-3808Y29257D01*
X-3657Y29212D01*
X-3500Y29196D01*
X-3343Y29212D01*
X-3192Y29257D01*
X-3053Y29332D01*
X-2932Y29432D01*
X-2832Y29553D01*
X-2757Y29692D01*
X-2712Y29843D01*
X-2696Y30000D01*
X-2712Y30157D01*
X-2757Y30308D01*
X-2832Y30447D01*
X-2932Y30568D01*
X-3053Y30668D01*
X-3192Y30743D01*
X-3343Y30788D01*
X-3500Y30804D01*
D02*
G37*
G36*
X1421Y31880D02*
X1120D01*
Y31579D01*
X1219Y31620D01*
X1310Y31690D01*
X1380Y31781D01*
X1421Y31880D01*
D02*
G37*
G36*
X880D02*
X579D01*
X620Y31781D01*
X690Y31690D01*
X781Y31620D01*
X880Y31579D01*
Y31880D01*
D02*
G37*
G36*
X3120Y26421D02*
Y26120D01*
X3421D01*
X3380Y26219D01*
X3310Y26310D01*
X3219Y26380D01*
X3120Y26421D01*
D02*
G37*
G36*
X2980Y24529D02*
X2923Y24506D01*
X2850Y24450D01*
X2794Y24377D01*
X2771Y24320D01*
X2980D01*
Y24529D01*
D02*
G37*
G36*
X13000Y23059D02*
X12855Y23040D01*
X12720Y22984D01*
X12605Y22895D01*
X12530Y22799D01*
X12522Y22795D01*
X12478D01*
X12470Y22799D01*
X12395Y22895D01*
X12280Y22984D01*
X12145Y23040D01*
X12000Y23059D01*
X11855Y23040D01*
X11720Y22984D01*
X11605Y22895D01*
X11530Y22799D01*
X11522Y22795D01*
X11478D01*
X11470Y22799D01*
X11395Y22895D01*
X11280Y22984D01*
X11145Y23040D01*
X11000Y23059D01*
X10855Y23040D01*
X10720Y22984D01*
X10605Y22895D01*
X10516Y22780D01*
X10460Y22645D01*
X10441Y22500D01*
X10460Y22355D01*
X10516Y22220D01*
X10605Y22105D01*
X10720Y22016D01*
X10855Y21960D01*
X11000Y21941D01*
X11145Y21960D01*
X11280Y22016D01*
X11395Y22105D01*
X11470Y22201D01*
X11478Y22205D01*
X11522D01*
X11530Y22201D01*
X11605Y22105D01*
X11720Y22016D01*
X11855Y21960D01*
X12000Y21941D01*
X12145Y21960D01*
X12280Y22016D01*
X12395Y22105D01*
X12470Y22201D01*
X12478Y22205D01*
X12522D01*
X12530Y22201D01*
X12605Y22105D01*
X12720Y22016D01*
X12855Y21960D01*
X13000Y21941D01*
X13145Y21960D01*
X13280Y22016D01*
X13395Y22105D01*
X13484Y22220D01*
X13496Y22248D01*
X13546Y22238D01*
Y22046D01*
X13880D01*
Y22500D01*
Y22954D01*
X13546D01*
Y22762D01*
X13496Y22752D01*
X13484Y22780D01*
X13395Y22895D01*
X13280Y22984D01*
X13145Y23040D01*
X13000Y23059D01*
D02*
G37*
G36*
X2880Y25880D02*
X2579D01*
X2620Y25781D01*
X2690Y25690D01*
X2781Y25620D01*
X2880Y25579D01*
Y25880D01*
D02*
G37*
G36*
Y26421D02*
X2781Y26380D01*
X2690Y26310D01*
X2620Y26219D01*
X2579Y26120D01*
X2880D01*
Y26421D01*
D02*
G37*
G36*
X3421Y25880D02*
X3120D01*
Y25579D01*
X3219Y25620D01*
X3310Y25690D01*
X3380Y25781D01*
X3421Y25880D01*
D02*
G37*
G36*
X0Y32539D02*
X-140Y32521D01*
X-270Y32467D01*
X-381Y32381D01*
X-467Y32270D01*
X-521Y32140D01*
X-539Y32000D01*
X-521Y31860D01*
X-467Y31730D01*
X-381Y31619D01*
X-270Y31533D01*
X-140Y31479D01*
X0Y31461D01*
X140Y31479D01*
X270Y31533D01*
X381Y31619D01*
X467Y31730D01*
X521Y31860D01*
X525Y31893D01*
X525D01*
X539Y32000D01*
X525Y32107D01*
X525D01*
X521Y32140D01*
X467Y32270D01*
X381Y32381D01*
X270Y32467D01*
X140Y32521D01*
X0Y32539D01*
D02*
G37*
G36*
X-4147Y34380D02*
X-4380D01*
Y34021D01*
X-4323Y34044D01*
X-4250Y34100D01*
X-4194Y34173D01*
X-4159Y34259D01*
X-4147Y34350D01*
Y34380D01*
D02*
G37*
G36*
X-4620D02*
X-4853D01*
Y34350D01*
X-4841Y34259D01*
X-4806Y34173D01*
X-4750Y34100D01*
X-4677Y34044D01*
X-4620Y34021D01*
Y34380D01*
D02*
G37*
G36*
X15454Y34454D02*
X15120D01*
Y34120D01*
X15454D01*
Y34454D01*
D02*
G37*
G36*
X6454Y35880D02*
X5546D01*
Y35550D01*
X4900D01*
Y34350D01*
X7099D01*
Y35550D01*
X6454D01*
Y35880D01*
D02*
G37*
G36*
X14000Y34559D02*
X13855Y34540D01*
X13720Y34484D01*
X13605Y34395D01*
X13530Y34299D01*
X13522Y34295D01*
X13478D01*
X13470Y34299D01*
X13395Y34395D01*
X13280Y34484D01*
X13145Y34540D01*
X13000Y34559D01*
X12855Y34540D01*
X12720Y34484D01*
X12605Y34395D01*
X12516Y34280D01*
X12460Y34145D01*
X12441Y34000D01*
X12460Y33855D01*
X12516Y33720D01*
X12605Y33605D01*
X12720Y33516D01*
X12855Y33460D01*
X13000Y33441D01*
X13145Y33460D01*
X13280Y33516D01*
X13395Y33605D01*
X13470Y33701D01*
X13478Y33705D01*
X13522D01*
X13530Y33701D01*
X13605Y33605D01*
X13720Y33516D01*
X13855Y33460D01*
X14000Y33441D01*
X14145Y33460D01*
X14280Y33516D01*
X14395Y33605D01*
X14484Y33720D01*
X14496Y33748D01*
X14546Y33738D01*
Y33546D01*
X14880D01*
Y34000D01*
Y34454D01*
X14546D01*
Y34262D01*
X14496Y34252D01*
X14484Y34280D01*
X14395Y34395D01*
X14280Y34484D01*
X14145Y34540D01*
X14000Y34559D01*
D02*
G37*
G36*
X-3500Y35104D02*
X-3617Y35088D01*
X-3727Y35043D01*
X-3821Y34971D01*
X-3893Y34877D01*
X-3938Y34767D01*
X-3954Y34650D01*
Y34350D01*
X-3938Y34233D01*
X-3893Y34123D01*
X-3821Y34029D01*
X-3727Y33957D01*
X-3617Y33912D01*
X-3500Y33896D01*
X-3383Y33912D01*
X-3273Y33957D01*
X-3179Y34029D01*
X-3107Y34123D01*
X-3062Y34233D01*
X-3046Y34350D01*
Y34650D01*
X-3062Y34767D01*
X-3107Y34877D01*
X-3179Y34971D01*
X-3273Y35043D01*
X-3383Y35088D01*
X-3500Y35104D01*
D02*
G37*
G36*
X1120Y32421D02*
Y32120D01*
X1421D01*
X1380Y32219D01*
X1310Y32310D01*
X1219Y32380D01*
X1120Y32421D01*
D02*
G37*
G36*
X880D02*
X781Y32380D01*
X690Y32310D01*
X620Y32219D01*
X579Y32120D01*
X880D01*
Y32421D01*
D02*
G37*
G36*
X5179Y33330D02*
X4970D01*
Y33121D01*
X5027Y33144D01*
X5100Y33200D01*
X5156Y33273D01*
X5179Y33330D01*
D02*
G37*
G36*
X15454Y33880D02*
X15120D01*
Y33546D01*
X15454D01*
Y33880D01*
D02*
G37*
G36*
X17500Y34600D02*
X15900D01*
Y33400D01*
X17500D01*
Y34600D01*
D02*
G37*
%LPD*%
G54D10*
X3500Y22200D02*
D03*
X2700D02*
D03*
G54D11*
X8000Y15250D02*
D03*
Y14450D02*
D03*
G54D12*
X3500Y20550D02*
X5150Y18900D01*
Y15800D02*
Y18900D01*
Y15800D02*
X9600Y11350D01*
X15000D01*
Y13150D01*
X17550Y15700D01*
Y25500D01*
X17050Y26000D02*
X17550Y25500D01*
X16550Y26000D02*
X17050D01*
X6750Y21050D02*
Y21900D01*
X7350Y22500D01*
Y23000D01*
X-3500Y32150D02*
X-2400D01*
X-1600Y31350D01*
Y30250D02*
Y31350D01*
Y30250D02*
X353Y28297D01*
X4703D01*
X7000Y26000D01*
Y24850D02*
Y26000D01*
X6000D02*
Y26100D01*
Y24850D02*
Y26000D01*
X-3500Y25800D02*
X-1300Y28000D01*
X4100D01*
X6000Y26100D01*
X14000Y25100D02*
X14200Y25300D01*
X13000Y25100D02*
X14000D01*
X14200Y25300D02*
X15900D01*
X16900Y24300D01*
Y20180D02*
Y24300D01*
X15850Y19130D02*
X16900Y20180D01*
X15850Y17730D02*
Y19130D01*
X14123Y16003D02*
X15850Y17730D01*
X10003Y16003D02*
X14123D01*
X9500Y15500D02*
X10003Y16003D01*
X9400Y15500D02*
X9500D01*
X13000Y20000D02*
Y20650D01*
Y18650D02*
Y20000D01*
Y20650D02*
X13200Y20850D01*
X14300D01*
X14900Y21450D01*
Y24150D01*
X14450Y24600D02*
X14900Y24150D01*
X12300Y24600D02*
X14450D01*
X12000Y24900D02*
X12300Y24600D01*
X7950Y15800D02*
X8800D01*
X6950D02*
X7950D01*
X8000Y15750D01*
Y15250D02*
Y15750D01*
Y13800D02*
X8550D01*
X7800D02*
X8000D01*
Y14450D01*
X1500Y39050D02*
X12450D01*
X15450Y22500D02*
Y24750D01*
X-700Y23650D02*
X-300D01*
X1200Y25150D02*
X3150D01*
X-300Y23650D02*
X1200Y25150D01*
X15300Y22350D02*
X15450Y22500D01*
X15300Y20050D02*
Y22350D01*
X14100Y18850D02*
X15300Y20050D01*
X14000Y16300D02*
X15150Y17450D01*
Y17900D01*
X15000D02*
X15150D01*
X14050Y18850D02*
X15000Y17900D01*
X14050Y18850D02*
X14100D01*
X9500Y12900D02*
X10400Y12000D01*
X12950D01*
X9250Y14100D02*
X9500Y13850D01*
Y12900D02*
Y13850D01*
X1500Y37500D02*
Y39050D01*
X4800Y36150D02*
X4850Y36200D01*
X3950Y36150D02*
X4800D01*
X2850D02*
X3950D01*
Y34350D02*
X4850Y33450D01*
X3950Y34350D02*
Y36150D01*
X1500Y37500D02*
X2850Y36150D01*
X12450Y39050D02*
X12700Y39300D01*
X11700Y38300D02*
X12450Y39050D01*
X12700Y39300D02*
X14300D01*
X11700Y35850D02*
Y38300D01*
X8800Y14550D02*
X9250Y14100D01*
X8800Y14550D02*
Y15800D01*
X3150Y25150D02*
X3548Y24752D01*
Y22248D02*
Y24752D01*
X3500Y22200D02*
X3548Y22248D01*
X3100Y23200D02*
Y24200D01*
X2700Y22800D02*
X3100Y23200D01*
X2700Y22200D02*
Y22800D01*
X3000Y32000D02*
Y33125D01*
X350Y29350D02*
X3000Y32000D01*
X15400Y14700D02*
X16350Y15650D01*
X15400Y14300D02*
Y14700D01*
X6800Y15950D02*
Y16250D01*
Y15950D02*
X6950Y15800D01*
X8800D02*
X9300Y16300D01*
X14000D01*
X16300Y20000D02*
Y22250D01*
X15200Y18900D02*
X16300Y20000D01*
X10400Y19250D02*
X10750Y18900D01*
X10400Y19250D02*
Y21750D01*
X9700Y22450D02*
X10400Y21750D01*
X9700Y22450D02*
Y23200D01*
X8500Y24400D02*
X9700Y23200D01*
X7100Y24400D02*
X8500D01*
X4900Y22200D02*
X7100Y24400D01*
X3500Y22200D02*
X4900D01*
X3500Y21650D02*
Y22200D01*
Y21650D02*
X5650Y19500D01*
Y15950D02*
Y19500D01*
Y15950D02*
X7800Y13800D01*
X8550D02*
X8900Y13450D01*
X8950D01*
G54D13*
X493Y16289D02*
X500Y15889D01*
X800Y15895D01*
X697Y16093D01*
X695Y16193D01*
X793Y16294D01*
X993Y16298D01*
X1095Y16200D01*
X1098Y16000D01*
X1000Y15898D01*
X689Y16492D02*
X1085Y16700D01*
X682Y16892D01*
X778Y17094D02*
X771Y17494D01*
X575Y17290D02*
X975Y17298D01*
X-5000Y16301D02*
Y15902D01*
X-4700D01*
X-4800Y16101D01*
Y16201D01*
X-4700Y16301D01*
X-4500D01*
X-4400Y16201D01*
Y16002D01*
X-4500Y15902D01*
X-4800Y16501D02*
X-4400Y16701D01*
X-4800Y16901D01*
X-4700Y17101D02*
Y17501D01*
X650Y20200D02*
Y20600D01*
X750D01*
X1150Y20200D01*
X1250D01*
X850Y20800D02*
X1250Y21000D01*
X850Y21200D01*
X950Y21400D02*
Y21799D01*
X750Y21600D02*
X1150D01*
X-4950Y20200D02*
Y20600D01*
X-4850D01*
X-4450Y20200D01*
X-4350D01*
X-4750Y20800D02*
X-4350Y21000D01*
X-4750Y21200D01*
X-4650Y21400D02*
Y21799D01*
X-5850Y29700D02*
X-5950Y29600D01*
Y29400D01*
X-5850Y29300D01*
X-5750D01*
X-5650Y29400D01*
Y29600D01*
X-5550Y29700D01*
X-5450D01*
X-5350Y29600D01*
Y29400D01*
X-5450Y29300D01*
X-5950Y29900D02*
X-5350D01*
Y30200D01*
X-5450Y30300D01*
X-5850D01*
X-5950Y30200D01*
Y29900D01*
Y30500D02*
X-5350D01*
Y30899D01*
X-5800Y27350D02*
X-5900Y27250D01*
Y27050D01*
X-5800Y26950D01*
X-5700D01*
X-5600Y27050D01*
Y27250D01*
X-5500Y27350D01*
X-5400D01*
X-5300Y27250D01*
Y27050D01*
X-5400Y26950D01*
X-5900Y27550D02*
X-5300D01*
Y27850D01*
X-5400Y27950D01*
X-5800D01*
X-5900Y27850D01*
Y27550D01*
X-5300Y28150D02*
X-5700D01*
X-5900Y28350D01*
X-5700Y28549D01*
X-5300D01*
X-5600D01*
Y28150D01*
X10200Y37200D02*
X10100Y37300D01*
X9900D01*
X9800Y37200D01*
Y36800D01*
X9900Y36700D01*
X10100D01*
X10200Y36800D01*
Y37000D01*
X10000D01*
X10400Y36700D02*
Y37300D01*
X10800Y36700D01*
Y37300D01*
X11000D02*
Y36700D01*
X11300D01*
X11399Y36800D01*
Y37200D01*
X11300Y37300D01*
X11000D01*
X5600Y35150D02*
X5500Y35250D01*
X5300D01*
X5200Y35150D01*
Y34750D01*
X5300Y34650D01*
X5500D01*
X5600Y34750D01*
Y34950D01*
X5400D01*
X5800Y34650D02*
Y35250D01*
X6200Y34650D01*
Y35250D01*
X6400D02*
Y34650D01*
X6700D01*
X6799Y34750D01*
Y35150D01*
X6700Y35250D01*
X6400D01*
X9900Y14150D02*
Y13550D01*
X10200D01*
X10300Y13650D01*
Y13750D01*
X10200Y13850D01*
X9900D01*
X10200D01*
X10300Y13950D01*
Y14050D01*
X10200Y14150D01*
X9900D01*
Y15300D02*
Y14700D01*
X10300D01*
X9550Y16850D02*
Y17450D01*
X9850D01*
X9950Y17350D01*
Y17150D01*
X9850Y17050D01*
X9550D01*
X9750D02*
X9950Y16850D01*
X9450Y20250D02*
X9050D01*
Y19950D01*
X9250D01*
X9050D01*
Y19650D01*
X9650D02*
Y20250D01*
X9950D01*
X10050Y20150D01*
Y19950D01*
X9950Y19850D01*
X9650D01*
X9850D02*
X10050Y19650D01*
X9350Y21600D02*
X8950D01*
Y21300D01*
X9150D01*
X8950D01*
Y21000D01*
X9550Y21600D02*
Y21000D01*
X9950D01*
X5900Y40250D02*
Y39650D01*
X6200D01*
X6300Y39750D01*
Y39850D01*
X6200Y39950D01*
X5900D01*
X6200D01*
X6300Y40050D01*
Y40150D01*
X6200Y40250D01*
X5900D01*
X9200Y40200D02*
Y39600D01*
X9600D01*
X12850D02*
Y40200D01*
X13150D01*
X13250Y40100D01*
Y39900D01*
X13150Y39800D01*
X12850D01*
X13050D02*
X13250Y39600D01*
X16500Y36300D02*
X16100D01*
Y36000D01*
X16300D01*
X16100D01*
Y35700D01*
X16700Y36300D02*
Y35700D01*
X17100D01*
X16600Y34300D02*
X16200D01*
Y34000D01*
X16400D01*
X16200D01*
Y33700D01*
X16800D02*
Y34300D01*
X17100D01*
X17200Y34200D01*
Y34000D01*
X17100Y33900D01*
X16800D01*
X17000D02*
X17200Y33700D01*
X3650Y29600D02*
X3550Y29700D01*
X3350D01*
X3250Y29600D01*
Y29200D01*
X3350Y29100D01*
X3550D01*
X3650Y29200D01*
X3950Y29500D02*
X4150D01*
X4250Y29400D01*
Y29100D01*
X3950D01*
X3850Y29200D01*
X3950Y29300D01*
X4250D01*
X4450Y29500D02*
Y29100D01*
Y29300D01*
X4550Y29400D01*
X4650Y29500D01*
X4750D01*
X5149Y29600D02*
Y29500D01*
X5049D01*
X5249D01*
X5149D01*
Y29200D01*
X5249Y29100D01*
X5849D02*
X5649D01*
X5549Y29200D01*
Y29400D01*
X5649Y29500D01*
X5849D01*
X5949Y29400D01*
Y29300D01*
X5549D01*
X7149Y29700D02*
Y29100D01*
X6849D01*
X6749Y29200D01*
Y29400D01*
X6849Y29500D01*
X7149D01*
X7649Y29100D02*
X7449D01*
X7349Y29200D01*
Y29400D01*
X7449Y29500D01*
X7649D01*
X7749Y29400D01*
Y29300D01*
X7349D01*
X8948Y29700D02*
Y29100D01*
X8648D01*
X8548Y29200D01*
Y29400D01*
X8648Y29500D01*
X8948D01*
X9448Y29100D02*
X9248D01*
X9148Y29200D01*
Y29400D01*
X9248Y29500D01*
X9448D01*
X9548Y29400D01*
Y29300D01*
X9148D01*
X9848Y29600D02*
Y29500D01*
X9748D01*
X9948D01*
X9848D01*
Y29200D01*
X9948Y29100D01*
X10548D02*
X10348D01*
X10248Y29200D01*
Y29400D01*
X10348Y29500D01*
X10548D01*
X10648Y29400D01*
Y29300D01*
X10248D01*
X11247Y29500D02*
X10948D01*
X10848Y29400D01*
Y29200D01*
X10948Y29100D01*
X11247D01*
X11547Y29600D02*
Y29500D01*
X11447D01*
X11647D01*
X11547D01*
Y29200D01*
X11647Y29100D01*
X11947D02*
X12147D01*
X12047D01*
Y29500D01*
X11947D01*
X12547Y29100D02*
X12747D01*
X12847Y29200D01*
Y29400D01*
X12747Y29500D01*
X12547D01*
X12447Y29400D01*
Y29200D01*
X12547Y29100D01*
X13047D02*
Y29500D01*
X13347D01*
X13447Y29400D01*
Y29100D01*
G54D14*
X-3100Y17500D02*
D03*
Y15500D02*
D03*
X-800D02*
D03*
Y17500D02*
D03*
X-750Y19850D02*
D03*
Y21850D02*
D03*
X-3000D02*
D03*
Y19850D02*
D03*
X-3500Y30000D02*
D03*
G54D15*
X-4000Y39000D02*
D03*
X3300Y17000D02*
D03*
X16535Y38976D02*
D03*
Y12598D02*
D03*
G54D16*
X11000Y17500D02*
D03*
X12000D02*
D03*
X13000D02*
D03*
X11000Y15000D02*
D03*
X12000D02*
D03*
X13000D02*
D03*
X11000Y20000D02*
D03*
X12000D02*
D03*
X13000D02*
D03*
X11000Y22500D02*
D03*
X12000D02*
D03*
X13000D02*
D03*
X11000Y13000D02*
D03*
X12000D02*
D03*
X13000D02*
D03*
X6000Y37000D02*
D03*
Y38000D02*
D03*
X9500D02*
D03*
X8500D02*
D03*
X14000D02*
D03*
X13000D02*
D03*
X14000Y36000D02*
D03*
X13000D02*
D03*
X14000Y34000D02*
D03*
X13000D02*
D03*
G54D17*
X14000Y17500D02*
D03*
Y15000D02*
D03*
Y20000D02*
D03*
Y22500D02*
D03*
Y13000D02*
D03*
X10500Y38000D02*
D03*
X15000D02*
D03*
Y36000D02*
D03*
Y34000D02*
D03*
G54D18*
X-4500Y37000D02*
D03*
X-3500D02*
D03*
X-4500Y34500D02*
D03*
X-3500D02*
D03*
G54D19*
X6000Y36000D02*
D03*
G54D20*
X0Y26000D02*
D03*
Y32000D02*
D03*
X1000Y26000D02*
D03*
X2000D02*
D03*
X6000D02*
D03*
X3000D02*
D03*
X4000D02*
D03*
X5000D02*
D03*
X7000D02*
D03*
X8000D02*
D03*
X9000D02*
D03*
X10000D02*
D03*
X11000D02*
D03*
X12000D02*
D03*
X13000D02*
D03*
X14000D02*
D03*
Y32000D02*
D03*
X13000D02*
D03*
X12000D02*
D03*
X11000D02*
D03*
X10000D02*
D03*
X9000D02*
D03*
X8000D02*
D03*
X7000D02*
D03*
X6000D02*
D03*
X5000D02*
D03*
X4000D02*
D03*
X3000D02*
D03*
X2000D02*
D03*
X1000D02*
D03*
G54D21*
X-3500Y28000D02*
D03*
G54D22*
X6250Y21500D02*
D03*
X3550Y20450D02*
D03*
X16550Y26000D02*
D03*
X6750Y21050D02*
D03*
X7350Y23000D02*
D03*
X-3500Y32150D02*
D03*
X7000Y24850D02*
D03*
X-3500Y25800D02*
D03*
X6000Y24850D02*
D03*
X13000Y25100D02*
D03*
X9400Y15500D02*
D03*
X13000Y18650D02*
D03*
X12000Y24900D02*
D03*
X15450Y24750D02*
D03*
X350Y29350D02*
D03*
X-700Y23650D02*
D03*
X15450Y22500D02*
D03*
X15150Y17900D02*
D03*
X9500Y12900D02*
D03*
X12950Y12000D02*
D03*
X15300Y20050D02*
D03*
X4850Y36200D02*
D03*
Y33450D02*
D03*
X14300Y39300D02*
D03*
X11700Y38300D02*
D03*
Y35850D02*
D03*
X9250Y14100D02*
D03*
X3100Y24200D02*
D03*
X3000Y33125D02*
D03*
X15400Y14300D02*
D03*
X16350Y15650D02*
D03*
X6800Y16250D02*
D03*
X15200Y18900D02*
D03*
X16300Y22250D02*
D03*
X10750Y18900D02*
D03*
X9700Y22450D02*
D03*
X8950Y13350D02*
D03*
M02*
