M48
;Layer_Color=9474304
;FILE_FORMAT=2:4
INCH,TZ
;TYPE=PLATED
T1F00S00C0.0280
T2F00S00C0.0409
T3F00S00C0.0413
T4F00S00C0.0520
T5F00S00C0.1575
;TYPE=NON_PLATED
T6F00S00C0.0320
%
T01
X12950Y12000
X9500Y12900
X8950Y13350
X9250Y14100
X9400Y15500
X6800Y16250
X6750Y21050
X6250Y21500
X7350Y23000
X7000Y24850
X6000
X3100Y24200
X3550Y20450
X-700Y23650
X-3500Y25800
X350Y29350
X9700Y22450
X10750Y18900
X13000Y18650
X15200Y18900
X15150Y17900
X15300Y20050
X15450Y22500
X16300Y22250
X15450Y24750
X16550Y26000
X13000Y25100
X12000Y24900
X16350Y15650
X15400Y14300
X11700Y35850
Y38300
X14300Y39300
X4850Y36200
X4900Y33450
X6000Y33500
X7000
X3000Y33125
X-3500Y32150
T02
X0Y26000
X1000
X2000
X3000
X4000
X5000
X6000
X7000
X8000
X9000
X10000
X11000
X12000
X13000
X14000
Y32000
X13000
X12000
X11000
X10000
X9000
X8000
X7000
X6000
X5000
X4000
X3000
X2000
X1000
X0
T03
X11000Y13000
X12000
X13000
X14000
Y15000
X13000
X12000
X11000
Y17500
X12000
X13000
X14000
Y20000
X13000
X12000
X11000
Y22500
X12000
X13000
X14000
Y34000
X13000
X15000
Y36000
X14000
X13000
Y38000
X14000
X15000
X10500
X9500
X8500
X6000
Y37000
Y36000
T04
X-3100Y15500
Y17500
X-800
Y15500
X-750Y19850
Y21850
X-3000
Y19850
X-3500Y28000
Y30000
T05
X16535Y12598
X3300Y17000
X16535Y38976
X-4000Y39000
T06
X-4500Y34500
X-3500
Y37000
X-4500
M30
