%FSLAX24Y24*%
%MOIN*%
G70*
G01*
G75*
G04 Layer_Color=16711935*
%ADD10R,0.0400X0.0500*%
%ADD11R,0.0200X0.0500*%
%ADD12C,0.0236*%
%ADD13C,0.0315*%
%ADD14R,0.1200X0.1200*%
%ADD15C,0.1200*%
%ADD16O,0.0787X0.0591*%
%ADD17O,0.1500X0.0700*%
%ADD18R,0.1500X0.0700*%
%ADD19C,0.0700*%
%ADD20C,0.2362*%
%ADD21C,0.0620*%
%ADD22C,0.0500*%
%ADD23R,0.0500X0.0400*%
%ADD24C,0.0787*%
%ADD25C,0.1181*%
%ADD26C,0.0984*%
%ADD27C,0.0591*%
%ADD28C,0.0100*%
%ADD29C,0.0039*%
%ADD30C,0.0120*%
%ADD31C,0.0020*%
%ADD32R,0.0480X0.0580*%
%ADD33R,0.0280X0.0580*%
%ADD34R,0.1280X0.1280*%
%ADD35C,0.1280*%
%ADD36O,0.0867X0.0671*%
%ADD37O,0.1580X0.0780*%
%ADD38R,0.1580X0.0780*%
%ADD39C,0.0780*%
%ADD40C,0.2442*%
%ADD41C,0.0580*%
%ADD42R,0.0580X0.0480*%
G54D19*
X-18340Y4860D02*
D03*
Y5860D02*
D03*
X-18310Y2730D02*
D03*
Y3730D02*
D03*
G54D32*
X-31120Y8170D02*
D03*
X-31920D02*
D03*
X-29380Y8140D02*
D03*
X-30180D02*
D03*
X-30910Y2520D02*
D03*
X-30110D02*
D03*
X-23920Y-2110D02*
D03*
X-24720D02*
D03*
X-23060Y-3210D02*
D03*
X-23860D02*
D03*
G54D34*
X-21970Y13930D02*
D03*
X-28510D02*
D03*
X-23840D02*
D03*
X-26140Y13920D02*
D03*
G54D35*
X-21970Y11930D02*
D03*
X-28510D02*
D03*
X-23840D02*
D03*
X-26140Y11920D02*
D03*
G54D36*
X-22575Y1767D02*
D03*
Y2554D02*
D03*
Y3342D02*
D03*
Y4129D02*
D03*
Y4917D02*
D03*
Y5704D02*
D03*
Y6492D02*
D03*
Y7279D02*
D03*
Y8066D02*
D03*
X-21000Y1373D02*
D03*
Y2161D02*
D03*
Y2948D02*
D03*
Y3736D02*
D03*
Y4523D02*
D03*
Y5310D02*
D03*
Y6098D02*
D03*
Y6885D02*
D03*
Y7673D02*
D03*
Y8460D02*
D03*
G54D37*
X-30900Y6410D02*
D03*
Y5410D02*
D03*
G54D38*
Y4410D02*
D03*
G54D39*
X-24120Y-5880D02*
D03*
X-28120Y-6880D02*
D03*
Y-5880D02*
D03*
X-27120Y-6880D02*
D03*
Y-5880D02*
D03*
X-26120Y-6880D02*
D03*
Y-5880D02*
D03*
X-25120Y-6880D02*
D03*
Y-5880D02*
D03*
X-24120Y-6880D02*
D03*
G54D40*
X-19899Y-3133D02*
D03*
X-30529D02*
D03*
Y14189D02*
D03*
X-19899D02*
D03*
G54D41*
X-27300Y3240D02*
D03*
X-30990Y9910D02*
D03*
X-21760Y9810D02*
D03*
X-24530Y9050D02*
D03*
X-26270Y9130D02*
D03*
X-22150Y8990D02*
D03*
X-19300Y3750D02*
D03*
X-21800Y7320D02*
D03*
X-20290Y7150D02*
D03*
Y970D02*
D03*
X-25308Y-3718D02*
D03*
X-26095Y-3645D02*
D03*
X-26883Y-3713D02*
D03*
X-28040Y-3130D02*
D03*
X-23932Y3342D02*
D03*
X-26640Y4100D02*
D03*
X-22480Y830D02*
D03*
X-28390Y4320D02*
D03*
X-29320Y6250D02*
D03*
X-23600Y8740D02*
D03*
X-23064Y-4166D02*
D03*
X-23740Y2700D02*
D03*
X-29320Y4410D02*
D03*
X-27840Y2370D02*
D03*
G54D42*
X-28900Y3320D02*
D03*
Y2520D02*
D03*
M02*
