%FSLAX24Y24*%
%MOIN*%
G70*
G01*
G75*
G04 Layer_Color=32896*
%ADD10R,0.0400X0.0500*%
%ADD11R,0.0200X0.0500*%
%ADD12C,0.0236*%
%ADD13C,0.0315*%
%ADD14R,0.1200X0.1200*%
%ADD15C,0.1200*%
%ADD16O,0.0787X0.0591*%
%ADD17O,0.1500X0.0700*%
%ADD18R,0.1500X0.0700*%
%ADD19C,0.0700*%
%ADD20C,0.2362*%
%ADD21C,0.0620*%
%ADD22C,0.0500*%
%ADD23R,0.0500X0.0400*%
%ADD24C,0.0787*%
%ADD25C,0.1181*%
%ADD26C,0.0984*%
%ADD27C,0.0591*%
%ADD28C,0.0100*%
%ADD29C,0.0039*%
%ADD30C,0.0120*%
%ADD31C,0.0020*%
%ADD32R,0.0480X0.0580*%
%ADD33R,0.0280X0.0580*%
%ADD34R,0.1280X0.1280*%
%ADD35C,0.1280*%
%ADD36O,0.0867X0.0671*%
%ADD37O,0.1580X0.0780*%
%ADD38R,0.1580X0.0780*%
%ADD39C,0.0780*%
%ADD40C,0.2442*%
%ADD41C,0.0580*%
%ADD42R,0.0580X0.0480*%
%ADD43C,0.0020*%
G54D28*
X-22964Y16160D02*
X-22961Y15760D01*
X-22760Y15561D01*
X-22561Y15762D01*
X-22564Y16162D01*
X-21963Y16066D02*
X-22064Y16165D01*
X-22264Y16164D01*
X-22363Y16063D01*
X-22361Y15664D01*
X-22260Y15564D01*
X-22060Y15565D01*
X-21961Y15666D01*
X-21364Y16070D02*
X-21464Y16169D01*
X-21664Y16168D01*
X-21763Y16067D01*
X-21761Y15667D01*
X-21660Y15568D01*
X-21461Y15569D01*
X-21361Y15670D01*
X-20761Y15573D02*
X-21161Y15571D01*
X-20763Y15973D01*
X-20764Y16073D01*
X-20864Y16173D01*
X-21064Y16171D01*
X-21164Y16071D01*
X-20261Y15576D02*
X-20265Y16176D01*
X-20563Y15874D01*
X-20163Y15877D01*
X-26470Y15820D02*
X-26070D01*
X-26270Y16020D02*
Y15620D01*
X-25870Y15520D02*
Y16120D01*
X-25670Y15920D01*
X-25470Y16120D01*
Y15520D01*
X-24970Y16120D02*
X-25170D01*
X-25270Y16020D01*
Y15620D01*
X-25170Y15520D01*
X-24970D01*
X-24871Y15620D01*
Y16020D01*
X-24970Y16120D01*
X-24671D02*
X-24271D01*
X-24471D01*
Y15520D01*
X-24071Y15820D02*
X-23671D01*
X-29380Y16060D02*
X-29480Y16160D01*
X-29680D01*
X-29780Y16060D01*
Y15660D01*
X-29680Y15560D01*
X-29480D01*
X-29380Y15660D01*
Y15860D01*
X-29580D01*
X-29180Y15560D02*
Y16160D01*
X-28780Y15560D01*
Y16160D01*
X-28580D02*
Y15560D01*
X-28280D01*
X-28181Y15660D01*
Y16060D01*
X-28280Y16160D01*
X-28580D01*
X-32124Y9380D02*
X-32130Y8780D01*
X-31730Y8776D01*
X-31525Y9374D02*
X-31530Y8774D01*
X-31230Y8772D01*
X-31129Y8871D01*
X-31126Y9270D01*
X-31225Y9371D01*
X-31525Y9374D01*
X-30926Y9269D02*
X-30825Y9368D01*
X-30625Y9366D01*
X-30526Y9265D01*
X-30527Y9165D01*
X-30628Y9066D01*
X-30728Y9067D01*
X-30628Y9066D01*
X-30529Y8965D01*
X-30530Y8865D01*
X-30631Y8766D01*
X-30830Y8768D01*
X-30930Y8869D01*
X-30100Y8760D02*
Y9360D01*
X-29800D01*
X-29700Y9260D01*
Y9060D01*
X-29800Y8960D01*
X-30100D01*
X-29900D02*
X-29700Y8760D01*
X-29500Y9260D02*
X-29400Y9360D01*
X-29200D01*
X-29100Y9260D01*
Y9160D01*
X-29200Y9060D01*
X-29300D01*
X-29200D01*
X-29100Y8960D01*
Y8860D01*
X-29200Y8760D01*
X-29400D01*
X-29500Y8860D01*
X-29240Y1260D02*
X-29235Y1860D01*
X-28936Y1858D01*
X-28836Y1757D01*
X-28838Y1557D01*
X-28939Y1458D01*
X-29238Y1460D01*
X-29039Y1458D02*
X-28840Y1257D01*
X-28640Y1255D02*
X-28440Y1254D01*
X-28540Y1255D01*
X-28536Y1854D01*
X-28636Y1755D01*
X-31330Y1850D02*
Y1250D01*
X-30930D01*
X-30730Y1850D02*
Y1250D01*
X-30430D01*
X-30330Y1350D01*
Y1750D01*
X-30430Y1850D01*
X-30730D01*
X-30130Y1250D02*
X-29930D01*
X-30030D01*
Y1850D01*
X-30130Y1750D01*
X-24600Y-1610D02*
X-24605Y-1010D01*
X-24305Y-1008D01*
X-24204Y-1107D01*
X-24203Y-1307D01*
X-24302Y-1408D01*
X-24602Y-1410D01*
X-24402Y-1408D02*
X-24200Y-1607D01*
X-23600Y-1602D02*
X-24000Y-1605D01*
X-23604Y-1202D01*
X-23605Y-1102D01*
X-23705Y-1003D01*
X-23905Y-1004D01*
X-24004Y-1105D01*
X-24267Y-3910D02*
X-24260Y-4510D01*
X-23860Y-4505D01*
X-23667Y-3903D02*
X-23660Y-4503D01*
X-23360Y-4499D01*
X-23262Y-4398D01*
X-23266Y-3998D01*
X-23367Y-3900D01*
X-23667Y-3903D01*
X-22661Y-4491D02*
X-23060Y-4496D01*
X-22665Y-4091D01*
X-22667Y-3991D01*
X-22768Y-3893D01*
X-22968Y-3895D01*
X-23066Y-3996D01*
G54D31*
X-32170Y8470D02*
X-31720D01*
X-31320Y7870D02*
X-30870D01*
Y8470D01*
X-31320D02*
X-30870D01*
X-32170Y7870D02*
Y8470D01*
Y7870D02*
X-31720D01*
X-30430Y7840D02*
X-29980D01*
X-30430D02*
Y8440D01*
X-29580D02*
X-29130D01*
Y7840D02*
Y8440D01*
X-29580Y7840D02*
X-29130D01*
X-30430Y8440D02*
X-29980D01*
X-28600Y2270D02*
Y2720D01*
X-29200Y2270D02*
X-28600D01*
X-29200Y3120D02*
Y3570D01*
X-28600D01*
Y3120D02*
Y3570D01*
X-29200Y2270D02*
Y2720D01*
X-31160Y2820D02*
X-30710D01*
X-30310Y2220D02*
X-29860D01*
Y2820D01*
X-30310D02*
X-29860D01*
X-31160Y2220D02*
Y2820D01*
Y2220D02*
X-30710D01*
X-24120Y-1810D02*
X-23670D01*
Y-2410D02*
Y-1810D01*
X-24970Y-2410D02*
X-24520D01*
X-24970D02*
Y-1810D01*
X-24520D01*
X-24120Y-2410D02*
X-23670D01*
X-23260Y-3510D02*
X-22810D01*
X-24110Y-2910D02*
X-23660D01*
X-24110Y-3510D02*
Y-2910D01*
Y-3510D02*
X-23660D01*
X-22810D02*
Y-2910D01*
X-23260D02*
X-22810D01*
G54D43*
X-31620Y7870D02*
Y8470D01*
X-30610Y2220D02*
Y2820D01*
X-23360Y-3510D02*
Y-2910D01*
M02*
