M48
;Layer_Color=9474304
;FILE_FORMAT=2:4
INCH,TZ
;TYPE=PLATED
T1F00S00C0.0236
T2F00S00C0.0240
T3F00S00C0.0280
T4F00S00C0.0360
T5F00S00C0.0400
T6F00S00C0.0520
T7F00S00C0.1260
%
T01
X-22575Y1767
Y2554
Y3342
Y4129
Y4917
Y5704
Y6492
Y7279
Y8066
X-21000Y7673
Y6885
Y6098
Y5310
Y4523
Y3736
Y2948
Y2161
Y1373
Y8460
T02
X-18310Y2730
Y3730
X-18340Y4860
Y5860
T03
X-28040Y-3130
X-26883Y-3713
X-26095Y-3645
X-25308Y-3718
X-23064Y-4166
X-22480Y830
X-20290Y970
X-19300Y3750
X-20290Y7150
X-21800Y7320
X-22150Y8990
X-21760Y9810
X-23600Y8740
X-24530Y9050
X-26270Y9130
X-26640Y4100
X-27300Y3240
X-27840Y2370
X-28390Y4320
X-23932Y3342
X-23740Y2700
X-29320Y4410
Y6250
X-30990Y9910
T04
X-28120Y-6880
Y-5880
X-27120
Y-6880
X-26120
Y-5880
X-25120
X-24120
Y-6880
X-25120
T05
X-30900Y4410
Y5410
Y6410
T06
X-28510Y11930
Y13930
X-26140Y13920
Y11920
X-23840Y11930
X-21970
Y13930
X-23840
T07
X-30529Y-3133
X-19899
Y14189
X-30529
M30
