%FSLAX24Y24*%
%MOIN*%
G70*
G01*
G75*
G04 Layer_Color=65535*
%ADD10R,0.0400X0.0500*%
%ADD11R,0.0200X0.0500*%
%ADD12C,0.0236*%
%ADD13C,0.0315*%
%ADD14R,0.1200X0.1200*%
%ADD15C,0.1200*%
%ADD16O,0.0787X0.0591*%
%ADD17O,0.1500X0.0700*%
%ADD18R,0.1500X0.0700*%
%ADD19C,0.0700*%
%ADD20C,0.2362*%
%ADD21C,0.0620*%
%ADD22C,0.0500*%
%ADD23R,0.0500X0.0400*%
%ADD24C,0.0787*%
%ADD25C,0.1181*%
%ADD26C,0.0984*%
%ADD27C,0.0591*%
%ADD28C,0.0100*%
%ADD29C,0.0039*%
%ADD30C,0.0120*%
%ADD31C,0.0020*%
G54D28*
X-21570Y10930D02*
G03*
X-21570Y12930I0J1000D01*
G01*
D02*
G03*
X-21570Y14930I0J1000D01*
G01*
X-28110Y10930D02*
G03*
X-28110Y12930I0J1000D01*
G01*
D02*
G03*
X-28110Y14930I0J1000D01*
G01*
X-23440Y10930D02*
G03*
X-23440Y12930I0J1000D01*
G01*
D02*
G03*
X-23440Y14930I0J1000D01*
G01*
X-25740Y10920D02*
G03*
X-25740Y12920I0J1000D01*
G01*
D02*
G03*
X-25740Y14920I0J1000D01*
G01*
X-27692Y-630D02*
G03*
X-27692Y-630I-158J0D01*
G01*
X-23670Y15330D02*
X-20270D01*
Y10530D02*
Y15330D01*
X-23670Y10530D02*
Y15330D01*
Y10530D02*
X-20270D01*
X-30210Y15330D02*
X-26810D01*
Y10530D02*
Y15330D01*
X-30210Y10530D02*
Y15330D01*
Y10530D02*
X-26810D01*
X-25540Y15330D02*
X-22140D01*
Y10530D02*
Y15330D01*
X-25540Y10530D02*
Y15330D01*
Y10530D02*
X-22140D01*
X-27840Y15320D02*
X-24440D01*
Y10520D02*
Y15320D01*
X-27840Y10520D02*
Y15320D01*
Y10520D02*
X-24440D01*
X-19346Y-1140D02*
Y10356D01*
X-21118Y-1140D02*
X-19346D01*
X-21118D02*
Y10356D01*
X-19346D01*
X-22974Y16160D02*
X-22971Y15760D01*
X-22770Y15561D01*
X-22571Y15762D01*
X-22574Y16162D01*
X-21973Y16066D02*
X-22074Y16165D01*
X-22274Y16164D01*
X-22373Y16063D01*
X-22371Y15664D01*
X-22270Y15564D01*
X-22070Y15565D01*
X-21971Y15666D01*
X-21374Y16070D02*
X-21474Y16169D01*
X-21674Y16168D01*
X-21773Y16067D01*
X-21771Y15667D01*
X-21670Y15568D01*
X-21471Y15569D01*
X-21371Y15670D01*
X-20771Y15573D02*
X-21171Y15571D01*
X-20773Y15973D01*
X-20774Y16073D01*
X-20874Y16173D01*
X-21074Y16171D01*
X-21174Y16071D01*
X-20271Y15576D02*
X-20275Y16176D01*
X-20573Y15874D01*
X-20173Y15877D01*
X-26480Y15800D02*
X-26080D01*
X-26280Y16000D02*
Y15600D01*
X-25880Y15500D02*
Y16100D01*
X-25680Y15900D01*
X-25480Y16100D01*
Y15500D01*
X-24980Y16100D02*
X-25180D01*
X-25280Y16000D01*
Y15600D01*
X-25180Y15500D01*
X-24980D01*
X-24881Y15600D01*
Y16000D01*
X-24980Y16100D01*
X-24681D02*
X-24281D01*
X-24481D01*
Y15500D01*
X-24081Y15800D02*
X-23681D01*
X-29400Y16060D02*
X-29500Y16160D01*
X-29700D01*
X-29800Y16060D01*
Y15660D01*
X-29700Y15560D01*
X-29500D01*
X-29400Y15660D01*
Y15860D01*
X-29600D01*
X-29200Y15560D02*
Y16160D01*
X-28800Y15560D01*
Y16160D01*
X-28600D02*
Y15560D01*
X-28300D01*
X-28201Y15660D01*
Y16060D01*
X-28300Y16160D01*
X-28600D01*
X-26312Y10324D02*
X-26512Y10327D01*
X-26412Y10326D01*
X-26419Y9826D01*
X-26520Y9727D01*
X-26620Y9729D01*
X-26719Y9830D01*
X-25820Y9718D02*
X-25812Y10318D01*
X-26116Y10022D01*
X-25716Y10017D01*
X-24112Y10297D02*
X-24312Y10303D01*
X-24212Y10300D01*
X-24227Y9801D01*
X-24330Y9704D01*
X-24430Y9707D01*
X-24527Y9810D01*
X-23915Y10191D02*
X-23812Y10288D01*
X-23612Y10282D01*
X-23516Y10179D01*
X-23519Y10079D01*
X-23622Y9982D01*
X-23721Y9985D01*
X-23622Y9982D01*
X-23525Y9879D01*
X-23528Y9779D01*
X-23631Y9683D01*
X-23831Y9689D01*
X-23927Y9792D01*
X-29080Y10410D02*
X-29280D01*
X-29180D01*
Y9910D01*
X-29280Y9810D01*
X-29380D01*
X-29480Y9910D01*
X-28480Y9810D02*
X-28880D01*
X-28480Y10210D01*
Y10310D01*
X-28580Y10410D01*
X-28780D01*
X-28880Y10310D01*
X-22025Y10353D02*
X-22225Y10352D01*
X-22125Y10352D01*
X-22121Y9853D01*
X-22220Y9752D01*
X-22320Y9751D01*
X-22421Y9850D01*
X-21820Y9755D02*
X-21620Y9757D01*
X-21720Y9756D01*
X-21725Y10356D01*
X-21825Y10255D01*
X-19510Y6679D02*
X-20110Y6680D01*
X-19810Y6679D01*
X-19811Y6280D01*
X-19511Y6279D01*
X-20111Y6280D01*
X-19511Y6079D02*
X-20111Y6080D01*
X-20112Y5780D01*
X-20012Y5680D01*
X-19912Y5680D01*
X-19812Y5780D01*
X-19811Y6080D01*
X-19812Y5780D01*
X-19712Y5680D01*
X-19612Y5679D01*
X-19512Y5779D01*
X-19511Y6079D01*
X-19712Y5480D02*
X-20112Y5480D01*
X-19912Y5480D01*
X-19812Y5380D01*
X-19713Y5280D01*
X-19713Y5180D01*
X-20113Y4881D02*
X-20114Y4681D01*
X-20113Y4781D01*
X-19714Y4780D01*
X-19713Y4880D01*
X-19515Y3980D02*
X-20115Y3981D01*
X-20114Y4281D01*
X-20014Y4381D01*
X-19814Y4380D01*
X-19714Y4280D01*
X-19715Y3980D01*
X-20316Y3581D02*
X-20316Y3481D01*
X-20216Y3381D01*
X-19716Y3380D01*
X-19716Y3680D01*
X-19815Y3780D01*
X-20015Y3781D01*
X-20115Y3681D01*
X-20116Y3381D01*
X-20117Y2881D02*
X-20116Y3081D01*
X-20016Y3181D01*
X-19816Y3181D01*
X-19717Y3080D01*
X-19717Y2881D01*
X-19817Y2781D01*
X-19917Y2781D01*
X-19916Y3181D01*
X-28325Y4765D02*
X-28925Y4761D01*
X-28928Y5061D01*
X-28828Y5161D01*
X-28628Y5163D01*
X-28528Y5064D01*
X-28525Y4764D01*
X-28527Y4964D02*
X-28329Y5165D01*
X-28332Y5665D02*
X-28331Y5465D01*
X-28430Y5364D01*
X-28630Y5363D01*
X-28731Y5462D01*
X-28732Y5662D01*
X-28633Y5763D01*
X-28533Y5763D01*
X-28530Y5364D01*
X-28136Y6166D02*
X-28137Y6266D01*
X-28238Y6366D01*
X-28738Y6362D01*
X-28735Y6062D01*
X-28635Y5963D01*
X-28435Y5964D01*
X-28335Y6065D01*
X-28338Y6365D01*
X-28942Y6960D02*
X-28939Y6560D01*
X-28639Y6562D01*
X-28741Y6762D01*
X-28741Y6862D01*
X-28642Y6962D01*
X-28442Y6964D01*
X-28342Y6865D01*
X-28340Y6665D01*
X-28439Y6564D01*
X-28944Y7160D02*
X-28544Y7163D01*
X-28345Y7364D01*
X-28547Y7563D01*
X-28947Y7560D01*
X-18571Y1954D02*
X-18667Y2058D01*
X-18867Y2065D01*
X-18971Y1969D01*
X-18986Y1570D01*
X-18890Y1466D01*
X-18690Y1458D01*
X-18587Y1554D01*
X-17991Y1431D02*
X-18391Y1447D01*
X-17976Y1831D01*
X-17972Y1931D01*
X-18068Y2034D01*
X-18267Y2042D01*
X-18371Y1946D01*
X-18510Y7440D02*
X-18610Y7540D01*
X-18810D01*
X-18910Y7440D01*
Y7040D01*
X-18810Y6940D01*
X-18610D01*
X-18510Y7040D01*
X-18310Y6940D02*
X-18110D01*
X-18210D01*
Y7540D01*
X-18310Y7440D01*
X-27981Y-7220D02*
X-28081Y-7120D01*
X-28281Y-7120D01*
X-28381Y-7220D01*
X-28380Y-7620D01*
X-28280Y-7720D01*
X-28080Y-7720D01*
X-27980Y-7620D01*
X-27680Y-7719D02*
X-27480Y-7719D01*
X-27380Y-7619D01*
X-27381Y-7419D01*
X-27481Y-7319D01*
X-27681Y-7319D01*
X-27781Y-7419D01*
X-27780Y-7619D01*
X-27680Y-7719D01*
X-27180Y-7718D02*
X-27181Y-7319D01*
X-26881Y-7318D01*
X-26781Y-7418D01*
X-26781Y-7718D01*
X-26581Y-7718D02*
X-26581Y-7318D01*
X-26281Y-7317D01*
X-26181Y-7417D01*
X-26181Y-7717D01*
X-25681Y-7716D02*
X-25881Y-7717D01*
X-25981Y-7617D01*
X-25981Y-7417D01*
X-25881Y-7317D01*
X-25681Y-7317D01*
X-25581Y-7416D01*
X-25581Y-7516D01*
X-25981Y-7517D01*
X-24982Y-7316D02*
X-25282Y-7316D01*
X-25381Y-7416D01*
X-25381Y-7616D01*
X-25281Y-7716D01*
X-24981Y-7715D01*
X-24682Y-7215D02*
X-24682Y-7315D01*
X-24782Y-7315D01*
X-24582Y-7315D01*
X-24682Y-7315D01*
X-24681Y-7615D01*
X-24581Y-7715D01*
X-24181Y-7714D02*
X-23981Y-7714D01*
X-23882Y-7614D01*
X-23882Y-7414D01*
X-23982Y-7314D01*
X-24182Y-7315D01*
X-24282Y-7415D01*
X-24281Y-7615D01*
X-24181Y-7714D01*
X-23682Y-7314D02*
X-23682Y-7714D01*
X-23682Y-7514D01*
X-23582Y-7414D01*
X-23482Y-7314D01*
X-23382Y-7313D01*
X-28160Y-2170D02*
X-28260Y-2070D01*
X-28460D01*
X-28560Y-2170D01*
Y-2570D01*
X-28460Y-2670D01*
X-28260D01*
X-28160Y-2570D01*
X-27960Y-2170D02*
X-27860Y-2070D01*
X-27660D01*
X-27560Y-2170D01*
Y-2270D01*
X-27660Y-2370D01*
X-27760D01*
X-27660D01*
X-27560Y-2470D01*
Y-2570D01*
X-27660Y-2670D01*
X-27860D01*
X-27960Y-2570D01*
X-29400Y260D02*
Y-340D01*
Y-40D01*
X-29000D01*
Y260D01*
Y-340D01*
X-28400Y160D02*
X-28500Y260D01*
X-28700D01*
X-28800Y160D01*
Y-240D01*
X-28700Y-340D01*
X-28500D01*
X-28400Y-240D01*
X-28200Y-340D02*
Y260D01*
X-27900D01*
X-27801Y160D01*
Y-40D01*
X-27900Y-140D01*
X-28200D01*
X-27601Y260D02*
Y-340D01*
X-27201D01*
X-27001Y-40D02*
X-26601D01*
X-26401Y-240D02*
X-26301Y-340D01*
X-26101D01*
X-26001Y-240D01*
Y160D01*
X-26101Y260D01*
X-26301D01*
X-26401Y160D01*
Y60D01*
X-26301Y-40D01*
X-26001D01*
X-25801Y160D02*
X-25701Y260D01*
X-25501D01*
X-25401Y160D01*
Y-240D01*
X-25501Y-340D01*
X-25701D01*
X-25801Y-240D01*
Y160D01*
X-25201D02*
X-25101Y260D01*
X-24901D01*
X-24801Y160D01*
Y-240D01*
X-24901Y-340D01*
X-25101D01*
X-25201Y-240D01*
Y160D01*
X-24202Y260D02*
X-24402D01*
X-24302D01*
Y-240D01*
X-24402Y-340D01*
X-24502D01*
X-24602Y-240D01*
G54D29*
X-32250Y-730D02*
X-23420D01*
X-22970Y10930D02*
X-21570D01*
X-22970D02*
Y14930D01*
X-21570D01*
X-29510Y10930D02*
X-28110D01*
X-29510D02*
Y14930D01*
X-28110D01*
X-24840Y10930D02*
X-23440D01*
X-24840D02*
Y14930D01*
X-23440D01*
X-27140Y10920D02*
X-25740D01*
X-27140D02*
Y14920D01*
X-25740D01*
X-28150Y820D02*
X-23950D01*
Y-830D02*
Y820D01*
X-28150Y-830D02*
X-23950D01*
X-28150D02*
Y820D01*
X-23420Y-730D02*
X-22750Y-1400D01*
X-17420D01*
X-22950Y-230D02*
X-17400D01*
X-23780Y600D02*
X-22950Y-230D01*
X-32240Y600D02*
X-23780D01*
G54D30*
X-31900Y3410D02*
X-29900D01*
X-31900D02*
Y7410D01*
X-29900D01*
Y3410D02*
Y7410D01*
X-31800Y3410D02*
Y7410D01*
X-31700Y3410D02*
Y7400D01*
X-31600Y3410D02*
Y7410D01*
X-31500Y3510D02*
Y7410D01*
X-30120Y-7880D02*
Y-4880D01*
Y-7880D02*
X-22120D01*
X-30120Y-4880D02*
X-22120D01*
X-26520Y-5280D02*
Y-4880D01*
Y-5280D02*
X-25720D01*
Y-4880D01*
X-22120Y-7880D02*
Y-4880D01*
X-18840Y4360D02*
X-17840D01*
X-18840D02*
Y6360D01*
X-17840D01*
Y4360D02*
Y6360D01*
X-18810Y2230D02*
X-17810D01*
X-18810D02*
Y4230D01*
X-17810D01*
Y2230D02*
Y4230D01*
G54D31*
X-28600Y-4460D02*
X-28150D01*
X-27750Y-3860D02*
X-27300D01*
Y-4460D02*
Y-3860D01*
X-27750Y-4460D02*
X-27300D01*
X-28600D02*
Y-3860D01*
X-28150D01*
M02*
