%FSLAX24Y24*%
%MOIN*%
G70*
G01*
G75*
G04 Layer_Physical_Order=2*
G04 Layer_Color=16711680*
%ADD10R,0.0400X0.0500*%
%ADD11R,0.0200X0.0500*%
%ADD12C,0.0236*%
%ADD13C,0.0315*%
%ADD14R,0.1200X0.1200*%
%ADD15C,0.1200*%
%ADD16O,0.0787X0.0591*%
%ADD17O,0.1500X0.0700*%
%ADD18R,0.1500X0.0700*%
%ADD19C,0.0700*%
%ADD20C,0.2362*%
%ADD21C,0.0620*%
%ADD22C,0.0500*%
%ADD23R,0.0500X0.0400*%
%ADD24C,0.0787*%
%ADD25C,0.1181*%
%ADD26C,0.0984*%
%ADD27C,0.0591*%
G36*
X-21573Y1225D02*
X-21531Y1124D01*
X-21452Y1020D01*
X-21348Y941D01*
X-21228Y891D01*
X-21098Y874D01*
X-20954D01*
X-20784Y703D01*
X-20783Y703D01*
X-20717Y652D01*
X-20672Y633D01*
X-20640Y620D01*
X-20559Y610D01*
X-20517Y577D01*
X-20407Y532D01*
X-20290Y516D01*
X-20176Y531D01*
X-20155Y489D01*
X-20154Y486D01*
X-20239Y401D01*
X-22223D01*
X-22239Y448D01*
X-22159Y509D01*
X-22087Y603D01*
X-22042Y713D01*
X-22026Y830D01*
X-22026Y830D01*
X-21622Y1234D01*
X-21573Y1225D01*
D02*
G37*
G36*
X-19461Y1371D02*
Y1179D01*
X-19806Y834D01*
X-19809Y835D01*
X-19851Y856D01*
X-19836Y970D01*
X-19852Y1087D01*
X-19897Y1197D01*
X-19969Y1291D01*
X-20063Y1363D01*
X-20173Y1408D01*
X-20290Y1424D01*
X-20372Y1413D01*
X-20411Y1444D01*
X-20419Y1503D01*
X-20469Y1623D01*
X-20548Y1727D01*
X-20568Y1742D01*
Y1792D01*
X-20548Y1808D01*
X-20469Y1911D01*
X-20419Y2031D01*
X-20402Y2161D01*
X-20415Y2258D01*
X-20370Y2280D01*
X-19461Y1371D01*
D02*
G37*
G36*
X-19705Y8912D02*
Y6713D01*
X-20043D01*
X-20059Y6760D01*
X-19969Y6829D01*
X-19897Y6923D01*
X-19852Y7033D01*
X-19836Y7150D01*
X-19852Y7267D01*
X-19897Y7377D01*
X-19969Y7471D01*
X-20063Y7543D01*
X-20173Y7588D01*
X-20290Y7604D01*
X-20290Y7604D01*
X-20409Y7722D01*
X-20419Y7802D01*
X-20469Y7922D01*
X-20548Y8026D01*
X-20651Y8104D01*
Y8154D01*
X-20620Y8178D01*
X-20556Y8261D01*
X-20523Y8340D01*
X-21477D01*
X-21444Y8261D01*
X-21380Y8178D01*
X-21349Y8154D01*
Y8104D01*
X-21452Y8026D01*
X-21531Y7922D01*
X-21581Y7802D01*
X-21598Y7673D01*
X-21597Y7661D01*
X-21636Y7631D01*
X-21680Y7649D01*
Y7320D01*
Y6991D01*
X-21625Y7014D01*
X-21621Y7011D01*
X-21587Y6967D01*
X-21598Y6885D01*
X-21581Y6756D01*
X-21531Y6635D01*
X-21452Y6532D01*
X-21447Y6489D01*
X-21496Y6429D01*
X-21551Y6326D01*
X-21585Y6214D01*
X-21592Y6140D01*
X-21598Y6098D01*
X-21597Y6087D01*
Y5321D01*
X-21598Y5310D01*
X-21592Y5268D01*
X-21585Y5194D01*
X-21551Y5082D01*
X-21496Y4979D01*
X-21447Y4919D01*
X-21452Y4876D01*
X-21531Y4773D01*
X-21581Y4652D01*
X-21598Y4523D01*
X-21581Y4394D01*
X-21531Y4273D01*
X-21452Y4170D01*
X-21432Y4154D01*
Y4104D01*
X-21452Y4089D01*
X-21531Y3985D01*
X-21581Y3865D01*
X-21587Y3816D01*
X-21923Y3480D01*
X-21994Y3471D01*
X-22044Y3592D01*
X-22123Y3695D01*
X-22143Y3711D01*
Y3761D01*
X-22123Y3776D01*
X-22044Y3880D01*
X-21994Y4000D01*
X-21977Y4129D01*
X-21994Y4259D01*
X-22044Y4379D01*
X-22123Y4483D01*
X-22143Y4498D01*
Y4548D01*
X-22123Y4563D01*
X-22044Y4667D01*
X-21994Y4787D01*
X-21977Y4917D01*
X-21994Y5046D01*
X-22044Y5166D01*
X-22123Y5270D01*
X-22143Y5285D01*
Y5335D01*
X-22123Y5351D01*
X-22044Y5454D01*
X-21994Y5575D01*
X-21977Y5704D01*
X-21994Y5833D01*
X-22044Y5954D01*
X-22123Y6057D01*
X-22128Y6100D01*
X-22079Y6160D01*
X-22024Y6263D01*
X-21990Y6375D01*
X-21982Y6449D01*
X-21977Y6492D01*
X-21982Y6534D01*
X-21990Y6608D01*
X-22024Y6720D01*
X-22079Y6823D01*
X-22128Y6883D01*
X-22123Y6926D01*
X-22044Y7029D01*
X-22008Y7039D01*
X-21977Y7014D01*
X-21920Y6991D01*
Y7320D01*
Y7649D01*
X-21977Y7626D01*
X-22038Y7579D01*
X-22087Y7585D01*
X-22123Y7632D01*
X-22143Y7648D01*
Y7698D01*
X-22123Y7713D01*
X-22044Y7817D01*
X-21994Y7937D01*
X-21977Y8066D01*
X-21987Y8144D01*
X-21895Y8236D01*
X-21838Y8311D01*
X-21802Y8398D01*
X-21789Y8491D01*
Y8721D01*
X-21757Y8763D01*
X-21712Y8873D01*
X-21696Y8990D01*
X-21712Y9107D01*
X-21722Y9133D01*
X-21694Y9175D01*
X-19968D01*
X-19705Y8912D01*
D02*
G37*
G36*
X-22736Y9188D02*
X-22604Y9175D01*
X-22578Y9132D01*
X-22588Y9107D01*
X-22604Y8990D01*
X-22588Y8873D01*
X-22543Y8763D01*
X-22511Y8721D01*
Y8640D01*
X-22585Y8566D01*
X-22673D01*
X-22803Y8549D01*
X-22923Y8499D01*
X-23026Y8420D01*
X-23106Y8316D01*
X-23156Y8196D01*
X-23173Y8066D01*
X-23156Y7937D01*
X-23106Y7817D01*
X-23026Y7713D01*
X-23006Y7698D01*
Y7648D01*
X-23026Y7632D01*
X-23106Y7529D01*
X-23156Y7408D01*
X-23173Y7279D01*
X-23156Y7150D01*
X-23147Y7130D01*
X-23175Y7088D01*
X-23393D01*
X-23736Y7431D01*
Y8266D01*
X-23698Y8299D01*
X-23600Y8286D01*
X-23483Y8302D01*
X-23373Y8347D01*
X-23279Y8419D01*
X-23207Y8513D01*
X-23162Y8623D01*
X-23146Y8740D01*
X-23155Y8805D01*
X-22764Y9196D01*
X-22736Y9188D01*
D02*
G37*
G36*
X-25324Y10278D02*
Y7381D01*
X-25309Y7227D01*
X-25271Y7101D01*
X-25314Y7076D01*
X-25437Y7198D01*
Y10122D01*
X-25406Y10179D01*
X-25396Y10214D01*
X-25374Y10286D01*
X-25324Y10278D01*
D02*
G37*
G36*
X-17450Y-186D02*
X-17460Y-190D01*
Y-190D01*
X-17460Y-190D01*
X-19745D01*
X-19764Y-144D01*
X-18845Y775D01*
X-18788Y850D01*
X-18788Y850D01*
X-18788Y850D01*
X-18752Y937D01*
X-18739Y1030D01*
Y1520D01*
X-18739Y1520D01*
X-18739Y1520D01*
Y1520D01*
Y1791D01*
X-18314Y2216D01*
X-18310Y2216D01*
X-18177Y2233D01*
X-18053Y2285D01*
X-17946Y2366D01*
X-17865Y2473D01*
X-17813Y2597D01*
X-17796Y2730D01*
X-17813Y2863D01*
X-17865Y2987D01*
X-17946Y3094D01*
X-18053Y3175D01*
X-18124Y3205D01*
Y3255D01*
X-18053Y3285D01*
X-17946Y3366D01*
X-17865Y3473D01*
X-17813Y3597D01*
X-17796Y3730D01*
X-17813Y3863D01*
X-17865Y3987D01*
X-17946Y4094D01*
X-18053Y4175D01*
X-18177Y4227D01*
X-18310Y4244D01*
X-18443Y4227D01*
X-18567Y4175D01*
X-18674Y4094D01*
X-18676Y4091D01*
X-19005D01*
X-19073Y4143D01*
X-19183Y4188D01*
X-19300Y4204D01*
X-19417Y4188D01*
X-19527Y4143D01*
X-19621Y4071D01*
X-19693Y3977D01*
X-19738Y3867D01*
X-19754Y3750D01*
X-19738Y3633D01*
X-19693Y3523D01*
X-19621Y3429D01*
X-19527Y3357D01*
X-19417Y3312D01*
X-19300Y3296D01*
X-19183Y3312D01*
X-19073Y3357D01*
X-19057Y3369D01*
X-18676D01*
X-18674Y3366D01*
X-18567Y3285D01*
X-18496Y3255D01*
Y3205D01*
X-18567Y3175D01*
X-18674Y3094D01*
X-18755Y2987D01*
X-18807Y2863D01*
X-18824Y2730D01*
X-18824Y2726D01*
X-19310Y2240D01*
X-20273Y3203D01*
X-20348Y3260D01*
X-20373Y3271D01*
X-20435Y3296D01*
X-20528Y3309D01*
X-20558D01*
X-20568Y3317D01*
Y3367D01*
X-20548Y3382D01*
X-20469Y3486D01*
X-20419Y3606D01*
X-20402Y3736D01*
X-20419Y3865D01*
X-20469Y3985D01*
X-20548Y4089D01*
X-20568Y4104D01*
Y4154D01*
X-20548Y4170D01*
X-20469Y4273D01*
X-20419Y4394D01*
X-20402Y4523D01*
X-20419Y4652D01*
X-20469Y4773D01*
X-20548Y4876D01*
X-20553Y4919D01*
X-20504Y4979D01*
X-20449Y5082D01*
X-20415Y5194D01*
X-20408Y5268D01*
X-20402Y5310D01*
X-20403Y5321D01*
Y5520D01*
X-19404D01*
X-19404Y5520D01*
X-19287Y5531D01*
X-19175Y5565D01*
X-19080Y5616D01*
X-18832Y5368D01*
X-18726Y5282D01*
X-18612Y5221D01*
X-18608Y5171D01*
X-18632Y5152D01*
X-18698Y5067D01*
X-18734Y4980D01*
X-17946D01*
X-17982Y5067D01*
X-18048Y5152D01*
X-18072Y5171D01*
X-18068Y5221D01*
X-17954Y5282D01*
X-17848Y5368D01*
X-17762Y5474D01*
X-17697Y5594D01*
X-17658Y5724D01*
X-17645Y5860D01*
X-17658Y5996D01*
X-17697Y6126D01*
X-17762Y6246D01*
X-17848Y6352D01*
X-18315Y6818D01*
Y9200D01*
X-18328Y9336D01*
X-18367Y9466D01*
X-18432Y9586D01*
X-18518Y9692D01*
X-19188Y10362D01*
X-19294Y10448D01*
X-19414Y10513D01*
X-19544Y10552D01*
X-19680Y10565D01*
X-21162D01*
X-21185Y10590D01*
Y11763D01*
X-21182Y11773D01*
X-21166Y11930D01*
X-21182Y12087D01*
X-21227Y12238D01*
X-21275Y12326D01*
Y13130D01*
X-21170D01*
Y13528D01*
X-21122Y13541D01*
X-21020Y13375D01*
X-20879Y13210D01*
X-20713Y13069D01*
X-20528Y12955D01*
X-20327Y12872D01*
X-20116Y12821D01*
X-19899Y12804D01*
X-19682Y12821D01*
X-19471Y12872D01*
X-19270Y12955D01*
X-19085Y13069D01*
X-18920Y13210D01*
X-18778Y13375D01*
X-18665Y13560D01*
X-18582Y13761D01*
X-18531Y13973D01*
X-18514Y14189D01*
X-18531Y14406D01*
X-18582Y14617D01*
X-18665Y14818D01*
X-18778Y15004D01*
X-18920Y15169D01*
X-19085Y15310D01*
X-19270Y15424D01*
X-19471Y15507D01*
X-19682Y15558D01*
X-19899Y15575D01*
X-20116Y15558D01*
X-20327Y15507D01*
X-20528Y15424D01*
X-20713Y15310D01*
X-20879Y15169D01*
X-21020Y15004D01*
X-21134Y14818D01*
X-21170Y14730D01*
X-22770D01*
Y13130D01*
X-22665D01*
Y12326D01*
X-22713Y12238D01*
X-22758Y12087D01*
X-22774Y11930D01*
X-22758Y11773D01*
X-22713Y11622D01*
X-22638Y11483D01*
X-22575Y11407D01*
Y10878D01*
X-23092Y10362D01*
X-23178Y10256D01*
X-23243Y10136D01*
X-23282Y10006D01*
X-23295Y9870D01*
X-23282Y9734D01*
X-23274Y9706D01*
X-23689Y9290D01*
X-23736Y9310D01*
Y9981D01*
X-23278Y10438D01*
X-23278Y10438D01*
X-23180Y10559D01*
X-23106Y10696D01*
X-23061Y10845D01*
X-23046Y11000D01*
Y11834D01*
X-23036Y11930D01*
X-23046Y12026D01*
Y13130D01*
X-23040D01*
Y14730D01*
X-24640D01*
Y13130D01*
X-24634D01*
Y12026D01*
X-24644Y11930D01*
X-24634Y11834D01*
Y11329D01*
X-25092Y10872D01*
X-25190Y10751D01*
X-25264Y10614D01*
X-25274Y10579D01*
X-25296Y10508D01*
X-25346Y10515D01*
Y11824D01*
X-25336Y11920D01*
X-25346Y12016D01*
Y13120D01*
X-25340D01*
Y14720D01*
X-26940D01*
Y13120D01*
X-26934D01*
Y12016D01*
X-26944Y11920D01*
X-26934Y11824D01*
Y10754D01*
X-26965Y10696D01*
X-26976Y10662D01*
X-27010Y10547D01*
X-27025Y10392D01*
Y6869D01*
X-27025Y6869D01*
X-27025D01*
X-27010Y6714D01*
X-26976Y6600D01*
X-26965Y6565D01*
X-26892Y6428D01*
X-26793Y6308D01*
X-26793Y6308D01*
X-26793Y6308D01*
X-25628Y5142D01*
X-25507Y5044D01*
X-25370Y4970D01*
X-25221Y4925D01*
X-25066Y4910D01*
X-24911Y4925D01*
X-24762Y4970D01*
X-24625Y5044D01*
X-24504Y5142D01*
X-24453Y5205D01*
X-23135D01*
X-23107Y5163D01*
X-23156Y5046D01*
X-23173Y4917D01*
X-23156Y4787D01*
X-23106Y4667D01*
X-23026Y4563D01*
X-23006Y4548D01*
Y4498D01*
X-23026Y4483D01*
X-23051Y4450D01*
X-26357D01*
X-26413Y4493D01*
X-26523Y4538D01*
X-26640Y4554D01*
X-26757Y4538D01*
X-26867Y4493D01*
X-26961Y4421D01*
X-27033Y4327D01*
X-27078Y4217D01*
X-27094Y4100D01*
X-27078Y3983D01*
X-27033Y3873D01*
X-26961Y3779D01*
X-26867Y3707D01*
X-26757Y3662D01*
X-26640Y3646D01*
X-26523Y3662D01*
X-26413Y3707D01*
X-26319Y3779D01*
X-26297Y3808D01*
X-24110D01*
X-24100Y3759D01*
X-24159Y3735D01*
X-24253Y3663D01*
X-24325Y3569D01*
X-24370Y3459D01*
X-24386Y3342D01*
X-24370Y3224D01*
X-24325Y3115D01*
X-24253Y3021D01*
X-24159Y2949D01*
X-24118Y2932D01*
X-24046Y2877D01*
X-24069Y2820D01*
X-23411D01*
X-23434Y2877D01*
X-23490Y2950D01*
X-23522Y2974D01*
X-23506Y3021D01*
X-23051D01*
X-23026Y2989D01*
X-23006Y2973D01*
Y2923D01*
X-23026Y2908D01*
X-23106Y2804D01*
X-23156Y2684D01*
X-23173Y2554D01*
X-23156Y2425D01*
X-23106Y2305D01*
X-23026Y2201D01*
X-23006Y2186D01*
Y2136D01*
X-23026Y2120D01*
X-23106Y2017D01*
X-23156Y1896D01*
X-23173Y1767D01*
X-23156Y1638D01*
X-23106Y1517D01*
X-23026Y1414D01*
X-22923Y1334D01*
X-22803Y1285D01*
X-22713Y1273D01*
X-22707Y1223D01*
X-22707Y1223D01*
X-22801Y1151D01*
X-22873Y1057D01*
X-22875Y1053D01*
X-22924Y1044D01*
X-23339Y1459D01*
Y2050D01*
X-23352Y2143D01*
X-23388Y2230D01*
X-23445Y2305D01*
X-23520Y2362D01*
X-23529Y2366D01*
X-23536Y2416D01*
X-23490Y2450D01*
X-23434Y2523D01*
X-23411Y2580D01*
X-24069D01*
X-24046Y2523D01*
X-23993Y2455D01*
X-24016Y2411D01*
X-27371D01*
X-27395Y2435D01*
X-27402Y2487D01*
X-27447Y2597D01*
X-27519Y2691D01*
X-27613Y2763D01*
X-27723Y2808D01*
X-27840Y2824D01*
X-27957Y2808D01*
X-28067Y2763D01*
X-28161Y2691D01*
X-28233Y2597D01*
X-28278Y2487D01*
X-28294Y2370D01*
X-28278Y2253D01*
X-28233Y2143D01*
X-28161Y2049D01*
X-28067Y1977D01*
X-27957Y1932D01*
X-27905Y1925D01*
X-27775Y1795D01*
X-27700Y1738D01*
X-27613Y1702D01*
X-27520Y1689D01*
X-24061D01*
Y1310D01*
X-24048Y1217D01*
X-24012Y1130D01*
X-24012Y1130D01*
X-24012Y1130D01*
X-23955Y1055D01*
X-22756Y-144D01*
X-22775Y-190D01*
X-22950D01*
Y-160D01*
X-23780Y670D01*
X-23810Y700D01*
X-32250D01*
Y7820D01*
X-32250D01*
X-32220D01*
X-32215Y7820D01*
X-32215Y7820D01*
Y7820D01*
X-32040D01*
Y8170D01*
Y8520D01*
X-32215D01*
X-32215Y8520D01*
Y8520D01*
X-32220Y8520D01*
X-32250Y8550D01*
Y16250D01*
X-17450D01*
Y-186D01*
D02*
G37*
G36*
X-22760Y-1450D02*
X-17450D01*
Y-7910D01*
X-17480Y-7940D01*
Y-7940D01*
X-17480Y-7940D01*
X-32250D01*
Y-800D01*
X-23410D01*
X-22760Y-1450D01*
D02*
G37*
%LPC*%
G36*
X-30610Y2870D02*
X-30790D01*
Y2640D01*
X-30610D01*
Y2870D01*
D02*
G37*
G36*
X-23180Y-2860D02*
X-23360D01*
Y-3090D01*
X-23180D01*
Y-2860D01*
D02*
G37*
G36*
X-22760Y-3330D02*
X-22940D01*
Y-3560D01*
X-22760D01*
Y-3330D01*
D02*
G37*
G36*
X-30610Y2400D02*
X-30790D01*
Y2170D01*
X-30610D01*
Y2400D01*
D02*
G37*
G36*
X-31030D02*
X-31210D01*
Y2170D01*
X-31030D01*
Y2400D01*
D02*
G37*
G36*
Y2870D02*
X-31210D01*
Y2640D01*
X-31030D01*
Y2870D01*
D02*
G37*
G36*
X-22760Y-2860D02*
X-22940D01*
Y-3090D01*
X-22760D01*
Y-2860D01*
D02*
G37*
G36*
X-24000Y-5443D02*
Y-5760D01*
X-23683D01*
X-23727Y-5653D01*
X-23799Y-5559D01*
X-23893Y-5487D01*
X-24000Y-5443D01*
D02*
G37*
G36*
X-30529Y-1748D02*
X-30746Y-1765D01*
X-30957Y-1816D01*
X-31158Y-1899D01*
X-31343Y-2013D01*
X-31509Y-2154D01*
X-31650Y-2319D01*
X-31763Y-2505D01*
X-31847Y-2705D01*
X-31897Y-2917D01*
X-31914Y-3133D01*
X-31897Y-3350D01*
X-31847Y-3562D01*
X-31763Y-3762D01*
X-31650Y-3948D01*
X-31509Y-4113D01*
X-31343Y-4254D01*
X-31158Y-4368D01*
X-30957Y-4451D01*
X-30746Y-4502D01*
X-30529Y-4519D01*
X-30312Y-4502D01*
X-30101Y-4451D01*
X-29900Y-4368D01*
X-29715Y-4254D01*
X-29549Y-4113D01*
X-29408Y-3948D01*
X-29295Y-3762D01*
X-29211Y-3562D01*
X-29161Y-3350D01*
X-29144Y-3133D01*
X-29161Y-2917D01*
X-29211Y-2705D01*
X-29295Y-2505D01*
X-29408Y-2319D01*
X-29549Y-2154D01*
X-29715Y-2013D01*
X-29900Y-1899D01*
X-30101Y-1816D01*
X-30312Y-1765D01*
X-30529Y-1748D01*
D02*
G37*
G36*
X-19899D02*
X-20116Y-1765D01*
X-20327Y-1816D01*
X-20528Y-1899D01*
X-20713Y-2013D01*
X-20879Y-2154D01*
X-21020Y-2319D01*
X-21134Y-2505D01*
X-21217Y-2705D01*
X-21267Y-2917D01*
X-21285Y-3133D01*
X-21267Y-3350D01*
X-21217Y-3562D01*
X-21134Y-3762D01*
X-21020Y-3948D01*
X-20879Y-4113D01*
X-20713Y-4254D01*
X-20528Y-4368D01*
X-20327Y-4451D01*
X-20116Y-4502D01*
X-19899Y-4519D01*
X-19682Y-4502D01*
X-19471Y-4451D01*
X-19270Y-4368D01*
X-19085Y-4254D01*
X-18920Y-4113D01*
X-18778Y-3948D01*
X-18665Y-3762D01*
X-18582Y-3562D01*
X-18531Y-3350D01*
X-18514Y-3133D01*
X-18531Y-2917D01*
X-18582Y-2705D01*
X-18665Y-2505D01*
X-18778Y-2319D01*
X-18920Y-2154D01*
X-19085Y-2013D01*
X-19270Y-1899D01*
X-19471Y-1816D01*
X-19682Y-1765D01*
X-19899Y-1748D01*
D02*
G37*
G36*
X-23683Y-7000D02*
X-24000D01*
Y-7317D01*
X-23893Y-7273D01*
X-23799Y-7201D01*
X-23727Y-7107D01*
X-23683Y-7000D01*
D02*
G37*
G36*
X-24000Y-6443D02*
Y-6760D01*
X-23683D01*
X-23727Y-6653D01*
X-23799Y-6559D01*
X-23893Y-6487D01*
X-24000Y-6443D01*
D02*
G37*
G36*
X-23683Y-6000D02*
X-24000D01*
Y-6317D01*
X-23893Y-6273D01*
X-23799Y-6201D01*
X-23727Y-6107D01*
X-23683Y-6000D01*
D02*
G37*
G36*
X-22944Y-3837D02*
Y-4046D01*
X-22735D01*
X-22758Y-3989D01*
X-22814Y-3916D01*
X-22888Y-3860D01*
X-22944Y-3837D01*
D02*
G37*
G36*
X-23520Y-1660D02*
X-25120D01*
Y-1789D01*
X-27020D01*
X-27103Y-1800D01*
X-27135Y-1813D01*
X-27180Y-1832D01*
X-27247Y-1883D01*
X-28040Y-2676D01*
X-28040Y-2676D01*
X-28157Y-2692D01*
X-28267Y-2737D01*
X-28361Y-2809D01*
X-28433Y-2903D01*
X-28478Y-3013D01*
X-28494Y-3130D01*
X-28478Y-3247D01*
X-28433Y-3357D01*
X-28361Y-3451D01*
X-28361Y-3451D01*
Y-3467D01*
X-28377Y-3483D01*
X-28428Y-3550D01*
X-28447Y-3595D01*
X-28460Y-3627D01*
X-28471Y-3710D01*
Y-5456D01*
X-28512Y-5488D01*
X-28600Y-5603D01*
X-28656Y-5736D01*
X-28675Y-5880D01*
X-28656Y-6024D01*
X-28600Y-6157D01*
X-28512Y-6272D01*
X-28471Y-6304D01*
Y-6456D01*
X-28512Y-6488D01*
X-28600Y-6603D01*
X-28656Y-6736D01*
X-28675Y-6880D01*
X-28656Y-7024D01*
X-28600Y-7157D01*
X-28512Y-7272D01*
X-28397Y-7360D01*
X-28264Y-7416D01*
X-28120Y-7435D01*
X-27976Y-7416D01*
X-27843Y-7360D01*
X-27728Y-7272D01*
X-27645Y-7164D01*
X-27595D01*
X-27512Y-7272D01*
X-27397Y-7360D01*
X-27264Y-7416D01*
X-27120Y-7435D01*
X-26976Y-7416D01*
X-26843Y-7360D01*
X-26728Y-7272D01*
X-26645Y-7164D01*
X-26595D01*
X-26512Y-7272D01*
X-26397Y-7360D01*
X-26264Y-7416D01*
X-26120Y-7435D01*
X-25976Y-7416D01*
X-25843Y-7360D01*
X-25728Y-7272D01*
X-25645Y-7164D01*
X-25595D01*
X-25512Y-7272D01*
X-25397Y-7360D01*
X-25264Y-7416D01*
X-25120Y-7435D01*
X-24976Y-7416D01*
X-24843Y-7360D01*
X-24728Y-7272D01*
X-24640Y-7157D01*
X-24591Y-7040D01*
X-24541D01*
X-24513Y-7107D01*
X-24441Y-7201D01*
X-24347Y-7273D01*
X-24240Y-7317D01*
Y-6880D01*
Y-6443D01*
X-24347Y-6487D01*
X-24441Y-6559D01*
X-24513Y-6653D01*
X-24541Y-6720D01*
X-24591D01*
X-24640Y-6603D01*
X-24728Y-6488D01*
X-24799Y-6433D01*
Y-6327D01*
X-24728Y-6272D01*
X-24640Y-6157D01*
X-24591Y-6040D01*
X-24541D01*
X-24513Y-6107D01*
X-24441Y-6201D01*
X-24347Y-6273D01*
X-24240Y-6317D01*
Y-5880D01*
Y-5443D01*
X-24347Y-5487D01*
X-24441Y-5559D01*
X-24513Y-5653D01*
X-24541Y-5720D01*
X-24591D01*
X-24640Y-5603D01*
X-24728Y-5488D01*
X-24799Y-5433D01*
Y-4370D01*
X-24810Y-4287D01*
X-24830Y-4238D01*
X-24842Y-4210D01*
X-24893Y-4143D01*
X-24987Y-4049D01*
Y-4039D01*
X-24987Y-4039D01*
X-24915Y-3945D01*
X-24869Y-3835D01*
X-24854Y-3718D01*
X-24869Y-3600D01*
X-24915Y-3491D01*
X-24987Y-3397D01*
X-25081Y-3325D01*
X-25190Y-3279D01*
X-25308Y-3264D01*
X-25425Y-3279D01*
X-25535Y-3325D01*
X-25629Y-3397D01*
X-25652Y-3427D01*
X-25701Y-3420D01*
X-25702Y-3418D01*
X-25774Y-3324D01*
X-25868Y-3252D01*
X-25978Y-3206D01*
X-26095Y-3191D01*
X-26213Y-3206D01*
X-26322Y-3252D01*
X-26416Y-3324D01*
X-26488Y-3418D01*
X-26537Y-3424D01*
X-26562Y-3392D01*
X-26656Y-3320D01*
X-26765Y-3274D01*
X-26883Y-3259D01*
X-27000Y-3274D01*
X-27110Y-3320D01*
X-27204Y-3392D01*
X-27276Y-3486D01*
X-27321Y-3595D01*
X-27336Y-3713D01*
X-27321Y-3830D01*
X-27276Y-3940D01*
X-27204Y-4034D01*
X-27203Y-4034D01*
Y-4060D01*
X-27357Y-4213D01*
X-27408Y-4280D01*
X-27427Y-4325D01*
X-27440Y-4357D01*
X-27451Y-4440D01*
Y-5441D01*
X-27512Y-5488D01*
X-27595Y-5596D01*
X-27645D01*
X-27728Y-5488D01*
X-27829Y-5410D01*
Y-3843D01*
X-27813Y-3827D01*
X-27813Y-3827D01*
X-27762Y-3760D01*
X-27743Y-3715D01*
X-27730Y-3683D01*
X-27719Y-3600D01*
X-27719Y-3600D01*
X-27719Y-3600D01*
Y-3600D01*
Y-3451D01*
X-27719Y-3451D01*
X-27647Y-3357D01*
X-27602Y-3247D01*
X-27586Y-3130D01*
X-27586Y-3130D01*
X-26887Y-2431D01*
X-25120D01*
Y-2560D01*
X-24281D01*
Y-3150D01*
X-24268Y-3243D01*
X-24260Y-3263D01*
Y-3660D01*
X-23460D01*
Y-2760D01*
X-23559D01*
Y-2560D01*
X-23520D01*
Y-1660D01*
D02*
G37*
G36*
X-23180Y-3330D02*
X-23360D01*
Y-3560D01*
X-23180D01*
Y-3330D01*
D02*
G37*
G36*
X-23184Y-4286D02*
X-23393D01*
X-23370Y-4342D01*
X-23314Y-4416D01*
X-23241Y-4472D01*
X-23184Y-4495D01*
Y-4286D01*
D02*
G37*
G36*
X-22735D02*
X-22944D01*
Y-4495D01*
X-22888Y-4472D01*
X-22814Y-4416D01*
X-22758Y-4342D01*
X-22735Y-4286D01*
D02*
G37*
G36*
X-23184Y-3837D02*
X-23241Y-3860D01*
X-23314Y-3916D01*
X-23370Y-3989D01*
X-23393Y-4046D01*
X-23184D01*
Y-3837D01*
D02*
G37*
G36*
X-27420Y3120D02*
X-27629D01*
X-27606Y3063D01*
X-27550Y2990D01*
X-27477Y2934D01*
X-27420Y2911D01*
Y3120D01*
D02*
G37*
G36*
X-30870Y10239D02*
Y10030D01*
X-30661D01*
X-30684Y10087D01*
X-30740Y10160D01*
X-30813Y10216D01*
X-30870Y10239D01*
D02*
G37*
G36*
X-28630Y11810D02*
X-29202D01*
X-29200Y11793D01*
X-29160Y11661D01*
X-29095Y11539D01*
X-29007Y11433D01*
X-28901Y11345D01*
X-28779Y11280D01*
X-28647Y11240D01*
X-28630Y11238D01*
Y11810D01*
D02*
G37*
G36*
X-31110Y10239D02*
X-31167Y10216D01*
X-31240Y10160D01*
X-31296Y10087D01*
X-31319Y10030D01*
X-31110D01*
Y10239D01*
D02*
G37*
G36*
Y9790D02*
X-31319D01*
X-31296Y9733D01*
X-31240Y9660D01*
X-31167Y9604D01*
X-31110Y9581D01*
Y9790D01*
D02*
G37*
G36*
X-30661D02*
X-30870D01*
Y9581D01*
X-30813Y9604D01*
X-30740Y9660D01*
X-30684Y9733D01*
X-30661Y9790D01*
D02*
G37*
G36*
X-27818Y11810D02*
X-28390D01*
Y11238D01*
X-28373Y11240D01*
X-28241Y11280D01*
X-28119Y11345D01*
X-28013Y11433D01*
X-27925Y11539D01*
X-27860Y11661D01*
X-27820Y11793D01*
X-27818Y11810D01*
D02*
G37*
G36*
X-27810Y13810D02*
X-28390D01*
Y13230D01*
X-27810D01*
Y13810D01*
D02*
G37*
G36*
Y14630D02*
X-28390D01*
Y14050D01*
X-27810D01*
Y14630D01*
D02*
G37*
G36*
X-30529Y15575D02*
X-30746Y15558D01*
X-30957Y15507D01*
X-31158Y15424D01*
X-31343Y15310D01*
X-31509Y15169D01*
X-31650Y15004D01*
X-31763Y14818D01*
X-31847Y14617D01*
X-31897Y14406D01*
X-31914Y14189D01*
X-31897Y13973D01*
X-31847Y13761D01*
X-31763Y13560D01*
X-31650Y13375D01*
X-31509Y13210D01*
X-31343Y13069D01*
X-31158Y12955D01*
X-30957Y12872D01*
X-30746Y12821D01*
X-30529Y12804D01*
X-30312Y12821D01*
X-30101Y12872D01*
X-29900Y12955D01*
X-29715Y13069D01*
X-29549Y13210D01*
X-29408Y13375D01*
X-29295Y13560D01*
X-29259Y13646D01*
X-29210Y13637D01*
Y13230D01*
X-28630D01*
Y13930D01*
Y14630D01*
X-29210D01*
Y14630D01*
X-29217D01*
X-29295Y14818D01*
X-29408Y15004D01*
X-29549Y15169D01*
X-29715Y15310D01*
X-29900Y15424D01*
X-30101Y15507D01*
X-30312Y15558D01*
X-30529Y15575D01*
D02*
G37*
G36*
X-28630Y12622D02*
X-28647Y12620D01*
X-28779Y12580D01*
X-28901Y12515D01*
X-29007Y12427D01*
X-29095Y12321D01*
X-29160Y12199D01*
X-29200Y12067D01*
X-29202Y12050D01*
X-28630D01*
Y12622D01*
D02*
G37*
G36*
X-28390D02*
Y12050D01*
X-27818D01*
X-27820Y12067D01*
X-27860Y12199D01*
X-27925Y12321D01*
X-28013Y12427D01*
X-28119Y12515D01*
X-28241Y12580D01*
X-28373Y12620D01*
X-28390Y12622D01*
D02*
G37*
G36*
X-27420Y3569D02*
X-27477Y3546D01*
X-27550Y3490D01*
X-27606Y3417D01*
X-27629Y3360D01*
X-27420D01*
Y3569D01*
D02*
G37*
G36*
X-30720Y8620D02*
X-31520D01*
Y7720D01*
X-30720D01*
Y7779D01*
X-30580D01*
Y7690D01*
X-29681D01*
Y6519D01*
X-29713Y6477D01*
X-29758Y6367D01*
X-29771Y6274D01*
X-29818Y6258D01*
X-29948Y6388D01*
X-29945Y6410D01*
X-29964Y6554D01*
X-30020Y6687D01*
X-30108Y6802D01*
X-30223Y6890D01*
X-30356Y6946D01*
X-30500Y6965D01*
X-31300D01*
X-31444Y6946D01*
X-31577Y6890D01*
X-31692Y6802D01*
X-31780Y6687D01*
X-31836Y6554D01*
X-31855Y6410D01*
X-31836Y6266D01*
X-31780Y6133D01*
X-31692Y6018D01*
X-31577Y5930D01*
X-31460Y5881D01*
Y5831D01*
X-31527Y5803D01*
X-31621Y5731D01*
X-31693Y5637D01*
X-31737Y5530D01*
X-30900D01*
Y5290D01*
X-31737D01*
X-31693Y5183D01*
X-31621Y5089D01*
X-31527Y5017D01*
X-31508Y5009D01*
X-31518Y4960D01*
X-31850D01*
Y3860D01*
X-29950D01*
Y4049D01*
X-29589D01*
X-29547Y4017D01*
X-29437Y3972D01*
X-29320Y3956D01*
X-29226Y3969D01*
X-29195Y3929D01*
X-29197Y3925D01*
X-29210Y3893D01*
X-29221Y3810D01*
Y3720D01*
X-29350D01*
Y2920D01*
Y2881D01*
X-29710D01*
Y2970D01*
X-30510D01*
Y2070D01*
X-29710D01*
Y2159D01*
X-29350D01*
Y2120D01*
X-28450D01*
Y2920D01*
Y3720D01*
X-28471D01*
X-28490Y3766D01*
X-28390Y3866D01*
X-28390Y3866D01*
X-28273Y3882D01*
X-28163Y3927D01*
X-28069Y3999D01*
X-27997Y4093D01*
X-27952Y4203D01*
X-27936Y4320D01*
X-27952Y4437D01*
X-27997Y4547D01*
X-28069Y4641D01*
X-28163Y4713D01*
X-28273Y4758D01*
X-28325Y4765D01*
X-29312Y5752D01*
X-29296Y5799D01*
X-29203Y5812D01*
X-29093Y5857D01*
X-28999Y5929D01*
X-28927Y6023D01*
X-28882Y6133D01*
X-28866Y6250D01*
X-28882Y6367D01*
X-28927Y6477D01*
X-28959Y6519D01*
Y8080D01*
X-28972Y8173D01*
X-28980Y8193D01*
Y8590D01*
X-30580D01*
Y8501D01*
X-30720D01*
Y8620D01*
D02*
G37*
G36*
X-27180Y3569D02*
Y3360D01*
X-26971D01*
X-26994Y3417D01*
X-27050Y3490D01*
X-27123Y3546D01*
X-27180Y3569D01*
D02*
G37*
G36*
X-18460Y4740D02*
X-18734D01*
X-18698Y4653D01*
X-18632Y4568D01*
X-18547Y4502D01*
X-18460Y4466D01*
Y4740D01*
D02*
G37*
G36*
X-17946D02*
X-18220D01*
Y4466D01*
X-18133Y4502D01*
X-18048Y4568D01*
X-17982Y4653D01*
X-17946Y4740D01*
D02*
G37*
G36*
X-21120Y8856D02*
X-21202Y8845D01*
X-21298Y8805D01*
X-21380Y8742D01*
X-21444Y8659D01*
X-21477Y8580D01*
X-21120D01*
Y8856D01*
D02*
G37*
G36*
X-20880D02*
Y8580D01*
X-20523D01*
X-20556Y8659D01*
X-20620Y8742D01*
X-20702Y8805D01*
X-20798Y8845D01*
X-20880Y8856D01*
D02*
G37*
G36*
X-26971Y3120D02*
X-27180D01*
Y2911D01*
X-27123Y2934D01*
X-27050Y2990D01*
X-26994Y3063D01*
X-26971Y3120D01*
D02*
G37*
G36*
X-31620Y8050D02*
X-31800D01*
Y7820D01*
X-31620D01*
Y8050D01*
D02*
G37*
G36*
Y8520D02*
X-31800D01*
Y8290D01*
X-31620D01*
Y8520D01*
D02*
G37*
%LPD*%
G36*
X-26416Y-3968D02*
Y-5414D01*
X-26512Y-5488D01*
X-26595Y-5596D01*
X-26645D01*
X-26728Y-5488D01*
X-26809Y-5425D01*
Y-4573D01*
X-26656Y-4419D01*
X-26656Y-4419D01*
X-26656Y-4419D01*
X-26605Y-4353D01*
X-26595Y-4330D01*
X-26573Y-4276D01*
X-26562Y-4193D01*
X-26562Y-4193D01*
X-26562Y-4193D01*
Y-4193D01*
Y-4034D01*
X-26562Y-4034D01*
X-26490Y-3940D01*
X-26454Y-3935D01*
X-26416Y-3968D01*
D02*
G37*
G36*
X-29463Y4883D02*
X-29473Y4834D01*
X-29547Y4803D01*
X-29589Y4771D01*
X-29950D01*
Y4960D01*
X-30282D01*
X-30292Y5009D01*
X-30273Y5017D01*
X-30179Y5089D01*
X-30107Y5183D01*
X-30062Y5293D01*
X-30047Y5404D01*
X-30000Y5420D01*
X-29463Y4883D01*
D02*
G37*
G36*
X-25702Y-3942D02*
X-25701Y-3945D01*
X-25629Y-4039D01*
X-25629Y-4039D01*
Y-4182D01*
X-25629Y-4182D01*
X-25629D01*
X-25618Y-4265D01*
X-25602Y-4304D01*
X-25586Y-4343D01*
X-25535Y-4409D01*
X-25535Y-4409D01*
X-25535Y-4409D01*
X-25441Y-4503D01*
Y-5433D01*
X-25512Y-5488D01*
X-25595Y-5596D01*
X-25645D01*
X-25728Y-5488D01*
X-25774Y-5452D01*
Y-3971D01*
X-25737Y-3938D01*
X-25702Y-3942D01*
D02*
G37*
G54D10*
X-31120Y8170D02*
D03*
X-31920D02*
D03*
X-29380Y8140D02*
D03*
X-30180D02*
D03*
X-30910Y2520D02*
D03*
X-30110D02*
D03*
X-23920Y-2110D02*
D03*
X-24720D02*
D03*
X-23060Y-3210D02*
D03*
X-23860D02*
D03*
G54D12*
X-24120Y-6880D02*
Y-5880D01*
X-23064Y-4824D01*
Y-4166D01*
Y-3214D02*
X-23060Y-3210D01*
X-23064Y-4166D02*
Y-3214D01*
X-21800Y7780D02*
X-21335Y8245D01*
X-21000Y7673D02*
X-20813D01*
X-20290Y7150D01*
X-20557Y930D02*
X-20290D01*
X-28040Y-3130D02*
X-27020Y-2110D01*
X-24720D01*
X-21000Y1373D02*
X-20557Y930D01*
X-23932Y3342D02*
X-22575D01*
X-26631Y4129D02*
X-22575D01*
X-22480Y830D02*
X-21740Y1570D01*
Y3210D01*
X-21214Y3736D01*
X-21000D01*
X-28900Y3810D02*
X-28390Y4320D01*
X-28900Y3320D02*
Y3810D01*
X-26095Y-5855D02*
Y-3645D01*
X-26120Y-5880D02*
X-26095Y-5855D01*
X-26120Y-6880D02*
Y-5880D01*
X-25308Y-4182D02*
Y-3718D01*
Y-4182D02*
X-25120Y-4370D01*
Y-5880D02*
Y-4370D01*
Y-6880D02*
Y-5880D01*
X-26883Y-4193D02*
Y-3713D01*
X-27130Y-4440D02*
X-26883Y-4193D01*
X-27130Y-6870D02*
Y-4440D01*
Y-6870D02*
X-27120Y-6880D01*
X-28040Y-3600D02*
Y-3130D01*
X-28150Y-3710D02*
X-28040Y-3600D01*
X-28150Y-6850D02*
X-28120Y-6880D01*
X-28150Y-6850D02*
Y-3710D01*
X-30900Y6410D02*
X-30480D01*
G54D13*
X-27400Y3340D02*
X-27300Y3240D01*
X-27400Y3340D02*
Y6946D01*
X-27300Y3240D02*
X-26760Y2700D01*
X-23740D01*
X-30950Y9870D02*
X-29570D01*
X-31540D02*
X-30950D01*
X-29707Y8627D01*
X-30990Y9910D02*
X-30950Y9870D01*
X-29082Y8627D02*
X-27400Y6946D01*
X-29707Y8627D02*
X-29082D01*
X-31920Y3530D02*
Y5400D01*
Y3530D02*
X-30910Y2520D01*
X-31920Y8170D02*
Y9490D01*
Y5400D02*
Y8170D01*
X-30910Y5400D02*
X-30900Y5410D01*
X-31920Y5400D02*
X-30910D01*
X-23920Y-3150D02*
X-23860Y-3210D01*
X-23920Y-3150D02*
Y-2110D01*
X-22575Y8066D02*
X-22150Y8491D01*
Y8990D01*
X-19210Y3740D02*
X-19200Y3730D01*
X-18310D01*
X-19100Y1940D02*
X-18310Y2730D01*
X-19100Y1520D02*
Y1940D01*
X-20528Y2948D02*
X-19100Y1520D01*
X-21000Y2948D02*
X-20528D01*
X-21800Y7460D02*
Y7780D01*
X-21335Y8245D02*
X-21215D01*
X-21000Y8460D01*
X-23600Y8870D02*
X-22600Y9870D01*
X-23600Y8740D02*
Y8870D01*
X-28510Y11930D02*
Y13930D01*
Y10930D02*
Y11930D01*
X-29570Y9870D02*
X-28510Y10930D01*
X-22430Y40D02*
X-20090D01*
X-19100Y1030D01*
Y1520D01*
X-29320Y6250D02*
Y8080D01*
X-29380Y8140D02*
X-29320Y8080D01*
X-31100Y8140D02*
X-30180D01*
X-31120Y8120D02*
X-31100Y8140D01*
X-31920Y9490D02*
X-31540Y9870D01*
X-30040Y2520D02*
X-28900D01*
X-30060Y2540D02*
X-30040Y2520D01*
X-22575Y1767D02*
Y2554D01*
X-30480Y6410D02*
X-28390Y4320D01*
X-30900Y4410D02*
X-29320D01*
X-23700Y1310D02*
X-22430Y40D01*
X-23700Y1310D02*
Y2050D01*
X-27520D02*
X-23700D01*
X-27840Y2370D02*
X-27520Y2050D01*
G54D14*
X-21970Y13930D02*
D03*
X-28510D02*
D03*
X-23840D02*
D03*
X-26140Y13920D02*
D03*
G54D15*
X-21970Y11930D02*
D03*
X-28510D02*
D03*
X-23840D02*
D03*
X-26140Y11920D02*
D03*
G54D16*
X-22575Y1767D02*
D03*
Y2554D02*
D03*
Y3342D02*
D03*
Y4129D02*
D03*
Y4917D02*
D03*
Y5704D02*
D03*
Y6492D02*
D03*
Y7279D02*
D03*
Y8066D02*
D03*
X-21000Y1373D02*
D03*
Y2161D02*
D03*
Y2948D02*
D03*
Y3736D02*
D03*
Y4523D02*
D03*
Y5310D02*
D03*
Y6098D02*
D03*
Y6885D02*
D03*
Y7673D02*
D03*
Y8460D02*
D03*
G54D17*
X-30900Y6410D02*
D03*
Y5410D02*
D03*
G54D18*
Y4410D02*
D03*
G54D19*
X-24120Y-5880D02*
D03*
X-28120Y-6880D02*
D03*
Y-5880D02*
D03*
X-27120Y-6880D02*
D03*
Y-5880D02*
D03*
X-26120Y-6880D02*
D03*
Y-5880D02*
D03*
X-25120Y-6880D02*
D03*
Y-5880D02*
D03*
X-24120Y-6880D02*
D03*
G54D20*
X-19899Y-3133D02*
D03*
X-30529D02*
D03*
Y14189D02*
D03*
X-19899D02*
D03*
G54D21*
X-18340Y4860D02*
D03*
Y5860D02*
D03*
X-18310Y2730D02*
D03*
Y3730D02*
D03*
G54D22*
X-27300Y3240D02*
D03*
X-30990Y9910D02*
D03*
X-21760Y9810D02*
D03*
X-24530Y9050D02*
D03*
X-26270Y9130D02*
D03*
X-22150Y8990D02*
D03*
X-19300Y3750D02*
D03*
X-21800Y7320D02*
D03*
X-20290Y7150D02*
D03*
Y970D02*
D03*
X-25308Y-3718D02*
D03*
X-26095Y-3645D02*
D03*
X-26883Y-3713D02*
D03*
X-28040Y-3130D02*
D03*
X-23932Y3342D02*
D03*
X-26640Y4100D02*
D03*
X-22480Y830D02*
D03*
X-28390Y4320D02*
D03*
X-29320Y6250D02*
D03*
X-23600Y8740D02*
D03*
X-23064Y-4166D02*
D03*
X-23740Y2700D02*
D03*
X-29320Y4410D02*
D03*
X-27840Y2370D02*
D03*
G54D23*
X-28900Y3320D02*
D03*
Y2520D02*
D03*
G54D24*
X-24530Y7381D02*
X-23640Y6492D01*
X-21000Y6098D02*
X-20982Y6116D01*
X-21000Y5310D02*
Y6098D01*
X-23640Y6492D02*
X-22575D01*
X-20982Y6116D02*
X-19404D01*
X-19010Y6510D01*
G54D25*
X-24530Y10310D02*
X-23840Y11000D01*
X-24530Y7381D02*
Y10310D01*
X-26231Y6869D02*
X-25066Y5704D01*
X-26231Y6869D02*
Y10392D01*
X-26140Y10483D01*
Y11920D02*
Y13920D01*
Y10483D02*
Y11920D01*
X-23840Y11930D02*
Y13930D01*
Y11000D02*
Y11930D01*
G54D26*
X-22600Y9870D02*
X-19680D01*
X-19010Y9200D01*
Y6510D02*
Y9200D01*
X-22600Y9870D02*
X-21880Y10590D01*
Y11840D01*
X-21970Y11930D02*
X-21880Y11840D01*
X-21970Y11930D02*
Y13930D01*
X-19010Y6510D02*
X-18990D01*
X-18340Y5860D01*
G54D27*
X-25066Y5704D02*
X-22575D01*
M02*
