%FSLAX24Y24*%
%MOIN*%
G70*
G01*
G75*
G04 Layer_Color=12632256*
%ADD10R,0.0400X0.0500*%
%ADD11R,0.0200X0.0500*%
%ADD12C,0.0236*%
%ADD13C,0.0315*%
%ADD14R,0.1200X0.1200*%
%ADD15C,0.1200*%
%ADD16O,0.0787X0.0591*%
%ADD17O,0.1500X0.0700*%
%ADD18R,0.1500X0.0700*%
%ADD19C,0.0700*%
%ADD20C,0.2362*%
%ADD21C,0.0620*%
%ADD22C,0.0500*%
%ADD23R,0.0500X0.0400*%
%ADD24C,0.0787*%
%ADD25C,0.1181*%
%ADD26C,0.0984*%
%ADD27C,0.0591*%
G54D14*
X-21970Y13930D02*
D03*
X-28510D02*
D03*
X-23840D02*
D03*
X-26140Y13920D02*
D03*
G54D15*
X-21970Y11930D02*
D03*
X-28510D02*
D03*
X-23840D02*
D03*
X-26140Y11920D02*
D03*
G54D16*
X-22575Y1767D02*
D03*
Y2554D02*
D03*
Y3342D02*
D03*
Y4129D02*
D03*
Y4917D02*
D03*
Y5704D02*
D03*
Y6492D02*
D03*
Y7279D02*
D03*
Y8066D02*
D03*
X-21000Y1373D02*
D03*
Y2161D02*
D03*
Y2948D02*
D03*
Y3736D02*
D03*
Y4523D02*
D03*
Y5310D02*
D03*
Y6098D02*
D03*
Y6885D02*
D03*
Y7673D02*
D03*
Y8460D02*
D03*
G54D17*
X-30900Y6410D02*
D03*
Y5410D02*
D03*
G54D18*
Y4410D02*
D03*
G54D19*
X-24120Y-5880D02*
D03*
X-28120Y-6880D02*
D03*
Y-5880D02*
D03*
X-27120Y-6880D02*
D03*
Y-5880D02*
D03*
X-26120Y-6880D02*
D03*
Y-5880D02*
D03*
X-25120Y-6880D02*
D03*
Y-5880D02*
D03*
X-24120Y-6880D02*
D03*
G54D20*
X-19899Y-3133D02*
D03*
X-30529D02*
D03*
Y14189D02*
D03*
X-19899D02*
D03*
G54D21*
X-18340Y4860D02*
D03*
Y5860D02*
D03*
X-18310Y2730D02*
D03*
Y3730D02*
D03*
M02*
