G04 Layer_Physical_Order=2*
G04 Layer_Color=16711680*
%FSLAX24Y24*%
%MOIN*%
G70*
G01*
G75*
%ADD10C,0.1200*%
%ADD11C,0.0787*%
%ADD12C,0.1378*%
%ADD13R,0.1200X0.1200*%
%ADD14R,0.0400X0.0500*%
%ADD15R,0.0500X0.0400*%
%ADD16C,0.0394*%
%ADD17C,0.0787*%
G36*
X-15551Y33245D02*
X-15894Y32902D01*
X-15968Y32812D01*
X-16024Y32709D01*
X-16058Y32597D01*
X-16069Y32480D01*
X-16069Y32480D01*
Y30433D01*
X-16069Y30433D01*
X-16058Y30317D01*
X-16024Y30205D01*
X-15968Y30102D01*
X-15894Y30011D01*
X-15551Y29668D01*
Y29331D01*
Y21850D01*
X-15401Y21700D01*
X-15420Y21654D01*
X-25977D01*
Y29169D01*
X-25927Y29178D01*
X-24516Y27767D01*
X-24516Y27767D01*
X-24426Y27693D01*
X-24323Y27638D01*
X-24211Y27604D01*
X-24094Y27592D01*
X-19764D01*
X-19764Y27592D01*
X-19647Y27604D01*
X-19535Y27638D01*
X-19432Y27693D01*
X-19342Y27767D01*
X-17032Y30077D01*
X-17032Y30077D01*
X-16958Y30167D01*
X-16903Y30270D01*
X-16869Y30382D01*
X-16857Y30499D01*
X-16857Y30499D01*
Y30906D01*
Y34853D01*
X-16833Y34873D01*
X-16733Y34994D01*
X-16659Y35133D01*
X-16613Y35284D01*
X-16598Y35441D01*
X-16613Y35598D01*
X-16659Y35749D01*
X-16733Y35888D01*
X-16805Y35975D01*
Y36907D01*
X-16733Y36994D01*
X-16659Y37133D01*
X-16613Y37284D01*
X-16598Y37441D01*
X-16613Y37598D01*
X-16659Y37749D01*
X-16733Y37888D01*
X-16805Y37975D01*
Y38936D01*
X-16738Y39062D01*
X-16692Y39213D01*
X-16676Y39370D01*
X-16692Y39527D01*
X-16738Y39678D01*
X-16805Y39804D01*
Y40936D01*
X-16738Y41062D01*
X-16692Y41213D01*
X-16676Y41370D01*
X-16692Y41527D01*
X-16738Y41678D01*
X-16812Y41817D01*
X-16912Y41939D01*
X-17034Y42038D01*
X-17173Y42113D01*
X-17323Y42158D01*
X-17480Y42174D01*
X-17637Y42158D01*
X-17788Y42113D01*
X-17927Y42038D01*
X-18049Y41939D01*
X-18149Y41817D01*
X-18223Y41678D01*
X-18269Y41527D01*
X-18284Y41370D01*
X-18269Y41213D01*
X-18223Y41062D01*
X-18149Y40923D01*
X-18049Y40802D01*
X-17998Y40760D01*
Y39980D01*
X-18049Y39938D01*
X-18149Y39817D01*
X-18223Y39678D01*
X-18269Y39527D01*
X-18284Y39370D01*
X-18269Y39213D01*
X-18223Y39062D01*
X-18149Y38923D01*
X-18049Y38802D01*
X-17998Y38760D01*
Y37975D01*
X-18070Y37888D01*
X-18144Y37749D01*
X-18190Y37598D01*
X-18205Y37441D01*
X-18190Y37284D01*
X-18144Y37133D01*
X-18070Y36994D01*
X-17998Y36907D01*
Y35975D01*
X-18070Y35888D01*
X-18144Y35749D01*
X-18190Y35598D01*
X-18205Y35441D01*
X-18190Y35284D01*
X-18144Y35133D01*
X-18070Y34994D01*
X-18051Y34971D01*
Y31306D01*
X-19401D01*
X-20085Y31989D01*
Y32345D01*
X-19285D01*
Y32793D01*
X-19285Y32795D01*
Y33713D01*
X-19298Y33817D01*
X-19312Y33849D01*
Y34190D01*
X-20112D01*
Y33742D01*
X-20112Y33740D01*
X-20112Y33738D01*
Y33290D01*
X-20112Y33290D01*
X-20112D01*
X-20112Y33290D01*
X-20124Y33245D01*
X-20885D01*
Y32797D01*
X-20885Y32795D01*
Y31824D01*
X-20872Y31720D01*
X-20832Y31623D01*
X-20768Y31541D01*
X-19850Y30622D01*
X-19767Y30559D01*
X-19671Y30519D01*
X-19567Y30505D01*
X-18357D01*
X-18337Y30459D01*
X-20011Y28786D01*
X-23847D01*
X-24915Y29853D01*
Y33217D01*
X-24106Y34027D01*
X-24106Y34027D01*
X-24032Y34117D01*
X-23976Y34221D01*
X-23942Y34332D01*
X-23931Y34449D01*
X-23931Y34449D01*
Y34899D01*
X-23859Y34986D01*
X-23785Y35125D01*
X-23739Y35276D01*
X-23724Y35433D01*
X-23739Y35590D01*
X-23785Y35741D01*
X-23859Y35880D01*
X-23931Y35967D01*
Y36899D01*
X-23859Y36986D01*
X-23785Y37125D01*
X-23739Y37276D01*
X-23724Y37433D01*
X-23739Y37590D01*
X-23785Y37741D01*
X-23859Y37880D01*
X-23959Y38001D01*
X-23970Y38011D01*
Y38836D01*
X-23899Y38923D01*
X-23824Y39062D01*
X-23779Y39213D01*
X-23763Y39370D01*
X-23779Y39527D01*
X-23824Y39678D01*
X-23899Y39817D01*
X-23970Y39904D01*
Y40836D01*
X-23899Y40923D01*
X-23824Y41062D01*
X-23779Y41213D01*
X-23763Y41370D01*
X-23779Y41527D01*
X-23824Y41678D01*
X-23899Y41817D01*
X-23999Y41939D01*
X-24120Y42038D01*
X-24259Y42113D01*
X-24410Y42158D01*
X-24567Y42174D01*
X-24724Y42158D01*
X-24875Y42113D01*
X-25014Y42038D01*
X-25135Y41939D01*
X-25235Y41817D01*
X-25310Y41678D01*
X-25355Y41527D01*
X-25371Y41370D01*
X-25355Y41213D01*
X-25310Y41062D01*
X-25235Y40923D01*
X-25164Y40836D01*
Y39904D01*
X-25235Y39817D01*
X-25310Y39678D01*
X-25355Y39527D01*
X-25371Y39370D01*
X-25355Y39213D01*
X-25310Y39062D01*
X-25235Y38923D01*
X-25164Y38836D01*
Y37919D01*
X-25196Y37880D01*
X-25270Y37741D01*
X-25316Y37590D01*
X-25331Y37433D01*
X-25316Y37276D01*
X-25270Y37125D01*
X-25196Y36986D01*
X-25124Y36899D01*
Y35967D01*
X-25196Y35880D01*
X-25270Y35741D01*
X-25316Y35590D01*
X-25331Y35433D01*
X-25316Y35276D01*
X-25270Y35125D01*
X-25196Y34986D01*
X-25124Y34899D01*
Y34696D01*
X-25927Y33893D01*
X-25977Y33902D01*
Y39646D01*
Y43094D01*
X-25964Y43110D01*
X-15551D01*
Y33245D01*
D02*
G37*
G36*
X-15283Y21494D02*
X-15263Y21477D01*
X-15250Y21472D01*
X-15239Y21465D01*
X-15213Y21460D01*
X-15187Y21451D01*
X-15174Y21452D01*
X-15161Y21450D01*
X-6142D01*
Y13386D01*
X-6299Y13228D01*
Y13189D01*
X-13346D01*
X-13386Y13150D01*
X-18740Y7795D01*
X-45866D01*
X-45945Y7874D01*
X-45984D01*
Y21450D01*
X-36089D01*
X-36011Y21465D01*
X-35960Y21499D01*
X-35952Y21494D01*
X-35932Y21477D01*
X-35919Y21472D01*
X-35908Y21465D01*
X-35882Y21460D01*
X-35856Y21451D01*
X-35843Y21452D01*
X-35830Y21450D01*
X-26181D01*
X-26103Y21465D01*
X-26079Y21481D01*
X-26055Y21465D01*
X-25977Y21450D01*
X-15420D01*
X-15342Y21465D01*
X-15290Y21499D01*
X-15283Y21494D01*
D02*
G37*
G36*
X-26220Y43110D02*
X-26181Y43094D01*
Y39646D01*
Y21654D01*
X-35830D01*
X-35866Y21700D01*
X-35881Y21778D01*
X-35926Y21844D01*
X-36017Y21935D01*
Y29405D01*
X-35967Y29414D01*
X-34674Y28121D01*
X-34674Y28121D01*
X-34583Y28047D01*
X-34480Y27992D01*
X-34368Y27958D01*
X-34252Y27947D01*
X-34252Y27947D01*
X-29646D01*
X-29646Y27947D01*
X-29529Y27958D01*
X-29417Y27992D01*
X-29314Y28047D01*
X-29224Y28121D01*
X-27163Y30182D01*
X-27163Y30182D01*
X-27089Y30272D01*
X-27034Y30375D01*
X-27000Y30487D01*
X-26989Y30604D01*
X-26989Y30604D01*
Y30906D01*
Y34828D01*
X-26891Y34947D01*
X-26816Y35086D01*
X-26771Y35237D01*
X-26755Y35394D01*
X-26771Y35551D01*
X-26816Y35701D01*
X-26891Y35840D01*
X-26962Y35928D01*
Y36860D01*
X-26891Y36947D01*
X-26816Y37086D01*
X-26771Y37237D01*
X-26755Y37394D01*
X-26771Y37551D01*
X-26816Y37701D01*
X-26891Y37840D01*
X-26962Y37928D01*
Y38884D01*
X-26930Y38923D01*
X-26856Y39062D01*
X-26810Y39213D01*
X-26795Y39370D01*
X-26810Y39527D01*
X-26856Y39678D01*
X-26930Y39817D01*
X-26962Y39856D01*
Y40884D01*
X-26930Y40923D01*
X-26856Y41062D01*
X-26810Y41213D01*
X-26795Y41370D01*
X-26810Y41527D01*
X-26856Y41678D01*
X-26930Y41817D01*
X-27030Y41939D01*
X-27152Y42038D01*
X-27291Y42113D01*
X-27442Y42158D01*
X-27598Y42174D01*
X-27755Y42158D01*
X-27906Y42113D01*
X-28045Y42038D01*
X-28167Y41939D01*
X-28267Y41817D01*
X-28341Y41678D01*
X-28387Y41527D01*
X-28402Y41370D01*
X-28387Y41213D01*
X-28341Y41062D01*
X-28267Y40923D01*
X-28167Y40802D01*
X-28156Y40792D01*
Y39948D01*
X-28167Y39938D01*
X-28267Y39817D01*
X-28341Y39678D01*
X-28387Y39527D01*
X-28402Y39370D01*
X-28387Y39213D01*
X-28341Y39062D01*
X-28267Y38923D01*
X-28167Y38802D01*
X-28156Y38792D01*
Y37928D01*
X-28227Y37840D01*
X-28302Y37701D01*
X-28347Y37551D01*
X-28363Y37394D01*
X-28347Y37237D01*
X-28302Y37086D01*
X-28227Y36947D01*
X-28156Y36860D01*
Y35928D01*
X-28227Y35840D01*
X-28302Y35701D01*
X-28347Y35551D01*
X-28363Y35394D01*
X-28347Y35237D01*
X-28302Y35086D01*
X-28227Y34947D01*
X-28182Y34892D01*
Y31306D01*
X-30149D01*
X-30990Y32147D01*
Y32345D01*
X-30191D01*
Y32872D01*
X-30190Y32874D01*
Y33740D01*
X-30191Y33742D01*
Y34190D01*
X-30991D01*
Y33742D01*
X-30991Y33740D01*
Y33245D01*
X-31250D01*
X-31287Y33261D01*
X-31391Y33274D01*
X-31494Y33261D01*
X-31531Y33245D01*
X-31791D01*
Y32876D01*
X-31791Y32874D01*
Y31981D01*
X-31777Y31878D01*
X-31737Y31781D01*
X-31674Y31698D01*
X-30598Y30622D01*
X-30515Y30559D01*
X-30475Y30542D01*
X-30419Y30519D01*
X-30315Y30505D01*
X-28593D01*
X-28574Y30459D01*
X-29893Y29140D01*
X-34005D01*
X-34955Y30090D01*
Y33414D01*
X-34258Y34110D01*
X-34258Y34110D01*
X-34184Y34201D01*
X-34129Y34304D01*
X-34095Y34416D01*
X-34084Y34532D01*
X-34084Y34532D01*
Y34860D01*
X-34012Y34947D01*
X-33938Y35086D01*
X-33892Y35237D01*
X-33876Y35394D01*
X-33892Y35551D01*
X-33938Y35701D01*
X-34012Y35840D01*
X-34088Y35934D01*
Y36854D01*
X-34012Y36947D01*
X-33938Y37086D01*
X-33892Y37237D01*
X-33876Y37394D01*
X-33892Y37551D01*
X-33938Y37701D01*
X-34012Y37840D01*
X-34088Y37934D01*
Y38836D01*
X-34017Y38923D01*
X-33942Y39062D01*
X-33897Y39213D01*
X-33881Y39370D01*
X-33897Y39527D01*
X-33942Y39678D01*
X-34017Y39817D01*
X-34088Y39904D01*
Y40836D01*
X-34017Y40923D01*
X-33942Y41062D01*
X-33897Y41213D01*
X-33881Y41370D01*
X-33897Y41527D01*
X-33942Y41678D01*
X-34017Y41817D01*
X-34117Y41939D01*
X-34238Y42038D01*
X-34377Y42113D01*
X-34528Y42158D01*
X-34685Y42174D01*
X-34842Y42158D01*
X-34993Y42113D01*
X-35132Y42038D01*
X-35253Y41939D01*
X-35353Y41817D01*
X-35428Y41678D01*
X-35473Y41527D01*
X-35489Y41370D01*
X-35473Y41213D01*
X-35428Y41062D01*
X-35353Y40923D01*
X-35282Y40836D01*
Y39904D01*
X-35353Y39817D01*
X-35428Y39678D01*
X-35473Y39527D01*
X-35489Y39370D01*
X-35473Y39213D01*
X-35428Y39062D01*
X-35353Y38923D01*
X-35282Y38836D01*
Y37922D01*
X-35349Y37840D01*
X-35423Y37701D01*
X-35469Y37551D01*
X-35484Y37394D01*
X-35469Y37237D01*
X-35423Y37086D01*
X-35349Y36947D01*
X-35282Y36865D01*
Y35922D01*
X-35349Y35840D01*
X-35423Y35701D01*
X-35469Y35551D01*
X-35484Y35394D01*
X-35469Y35237D01*
X-35423Y35086D01*
X-35349Y34947D01*
X-35277Y34860D01*
Y34779D01*
X-35967Y34090D01*
X-36017Y34099D01*
Y40157D01*
Y43075D01*
X-35981Y43110D01*
X-26220D01*
D02*
G37*
G36*
X-7406Y44871D02*
X-7544Y44798D01*
X-7679Y44687D01*
X-7790Y44551D01*
X-7873Y44397D01*
X-7923Y44229D01*
X-7941Y44055D01*
X-7923Y43881D01*
X-7873Y43713D01*
X-7790Y43559D01*
X-7679Y43423D01*
X-7544Y43312D01*
X-7389Y43230D01*
X-7222Y43179D01*
X-7047Y43162D01*
X-6873Y43179D01*
X-6705Y43230D01*
X-6551Y43312D01*
X-6416Y43423D01*
X-6305Y43559D01*
X-6222Y43713D01*
X-6192Y43813D01*
X-6142Y43806D01*
Y21654D01*
X-15161D01*
X-15197Y21700D01*
X-15212Y21778D01*
X-15256Y21844D01*
X-15347Y21935D01*
Y29331D01*
Y29399D01*
X-15301Y29418D01*
X-13886Y28003D01*
X-13886Y28003D01*
X-13796Y27929D01*
X-13693Y27874D01*
X-13581Y27840D01*
X-13465Y27829D01*
X-13465Y27829D01*
X-8701D01*
X-8701Y27829D01*
X-8584Y27840D01*
X-8472Y27874D01*
X-8369Y27929D01*
X-8279Y28003D01*
X-6901Y29381D01*
X-6827Y29472D01*
X-6772Y29575D01*
X-6738Y29687D01*
X-6726Y29803D01*
X-6726Y29803D01*
Y30906D01*
Y34879D01*
X-6638Y34986D01*
X-6564Y35125D01*
X-6518Y35276D01*
X-6502Y35433D01*
X-6518Y35590D01*
X-6564Y35741D01*
X-6638Y35880D01*
X-6710Y35967D01*
Y36899D01*
X-6638Y36986D01*
X-6564Y37125D01*
X-6518Y37276D01*
X-6502Y37433D01*
X-6518Y37590D01*
X-6564Y37741D01*
X-6638Y37880D01*
X-6710Y37967D01*
Y38884D01*
X-6677Y38923D01*
X-6603Y39062D01*
X-6557Y39213D01*
X-6542Y39370D01*
X-6557Y39527D01*
X-6603Y39678D01*
X-6677Y39817D01*
X-6710Y39856D01*
Y40884D01*
X-6677Y40923D01*
X-6603Y41062D01*
X-6557Y41213D01*
X-6542Y41370D01*
X-6557Y41527D01*
X-6603Y41678D01*
X-6677Y41817D01*
X-6777Y41939D01*
X-6899Y42038D01*
X-7038Y42113D01*
X-7189Y42158D01*
X-7346Y42174D01*
X-7502Y42158D01*
X-7653Y42113D01*
X-7792Y42038D01*
X-7914Y41939D01*
X-8014Y41817D01*
X-8088Y41678D01*
X-8134Y41527D01*
X-8150Y41370D01*
X-8134Y41213D01*
X-8088Y41062D01*
X-8014Y40923D01*
X-7914Y40802D01*
X-7903Y40792D01*
Y39948D01*
X-7914Y39938D01*
X-8014Y39817D01*
X-8088Y39678D01*
X-8134Y39527D01*
X-8150Y39370D01*
X-8134Y39213D01*
X-8088Y39062D01*
X-8014Y38923D01*
X-7914Y38802D01*
X-7903Y38792D01*
Y37967D01*
X-7975Y37880D01*
X-8049Y37741D01*
X-8095Y37590D01*
X-8110Y37433D01*
X-8095Y37276D01*
X-8049Y37125D01*
X-7975Y36986D01*
X-7903Y36899D01*
Y35967D01*
X-7975Y35880D01*
X-8049Y35741D01*
X-8095Y35590D01*
X-8110Y35433D01*
X-8095Y35276D01*
X-8049Y35125D01*
X-7975Y34986D01*
X-7919Y34919D01*
Y31306D01*
X-9598D01*
X-10164Y31871D01*
Y32227D01*
X-9364D01*
Y32592D01*
X-9351Y32690D01*
Y33701D01*
X-9351Y33703D01*
Y34151D01*
X-10151D01*
Y33703D01*
X-10151Y33701D01*
Y33127D01*
X-10964D01*
Y32679D01*
X-10964Y32677D01*
Y31706D01*
X-10950Y31602D01*
X-10910Y31505D01*
X-10847Y31422D01*
X-10047Y30622D01*
X-9964Y30559D01*
X-9867Y30519D01*
X-9764Y30505D01*
X-7919D01*
Y30050D01*
X-8948Y29022D01*
X-13217D01*
X-14876Y30680D01*
Y32233D01*
X-14162Y32947D01*
X-14162Y32947D01*
X-14087Y33038D01*
X-14032Y33141D01*
X-13998Y33253D01*
X-13987Y33369D01*
X-13987Y33369D01*
Y34907D01*
X-13915Y34994D01*
X-13841Y35133D01*
X-13795Y35284D01*
X-13780Y35441D01*
X-13795Y35598D01*
X-13841Y35749D01*
X-13915Y35888D01*
X-13987Y35975D01*
Y36907D01*
X-13915Y36994D01*
X-13841Y37133D01*
X-13795Y37284D01*
X-13780Y37441D01*
X-13795Y37598D01*
X-13841Y37749D01*
X-13915Y37888D01*
X-13987Y37975D01*
Y38844D01*
X-13915Y38931D01*
X-13841Y39070D01*
X-13795Y39221D01*
X-13780Y39378D01*
X-13795Y39535D01*
X-13841Y39686D01*
X-13915Y39825D01*
X-13987Y39912D01*
Y40844D01*
X-13915Y40931D01*
X-13841Y41070D01*
X-13795Y41221D01*
X-13780Y41378D01*
X-13795Y41535D01*
X-13841Y41686D01*
X-13915Y41825D01*
X-14015Y41946D01*
X-14137Y42046D01*
X-14276Y42121D01*
X-14427Y42166D01*
X-14583Y42182D01*
X-14740Y42166D01*
X-14891Y42121D01*
X-15030Y42046D01*
X-15152Y41946D01*
X-15252Y41825D01*
X-15297Y41740D01*
X-15347Y41752D01*
Y43094D01*
X-8150Y43110D01*
Y44488D01*
X-8110D01*
X-7677Y44921D01*
X-7419D01*
X-7406Y44871D01*
D02*
G37*
G36*
X-43898Y44488D02*
Y43110D01*
X-36220D01*
Y40157D01*
Y21850D01*
X-36070Y21700D01*
X-36089Y21654D01*
X-45984D01*
Y29924D01*
X-45934Y29942D01*
X-45894Y29893D01*
X-44083Y28082D01*
X-44083Y28082D01*
X-43993Y28008D01*
X-43890Y27953D01*
X-43778Y27919D01*
X-43661Y27907D01*
X-43661Y27907D01*
X-39646D01*
X-39646Y27907D01*
X-39529Y27919D01*
X-39417Y27953D01*
X-39314Y28008D01*
X-39224Y28082D01*
X-37295Y30011D01*
X-37295Y30011D01*
X-37220Y30102D01*
X-37165Y30205D01*
X-37131Y30317D01*
X-37120Y30433D01*
Y30866D01*
Y34781D01*
X-37113Y34786D01*
X-37013Y34908D01*
X-36939Y35047D01*
X-36893Y35198D01*
X-36878Y35354D01*
X-36893Y35511D01*
X-36939Y35662D01*
X-37013Y35801D01*
X-37085Y35888D01*
Y36820D01*
X-37013Y36908D01*
X-36939Y37047D01*
X-36893Y37197D01*
X-36878Y37354D01*
X-36893Y37511D01*
X-36939Y37662D01*
X-37013Y37801D01*
X-37085Y37888D01*
Y38797D01*
X-37013Y38884D01*
X-36939Y39023D01*
X-36893Y39174D01*
X-36878Y39331D01*
X-36893Y39488D01*
X-36939Y39638D01*
X-37013Y39777D01*
X-37085Y39865D01*
Y40797D01*
X-37013Y40884D01*
X-36939Y41023D01*
X-36893Y41174D01*
X-36878Y41331D01*
X-36893Y41488D01*
X-36939Y41638D01*
X-37013Y41777D01*
X-37113Y41899D01*
X-37235Y41999D01*
X-37374Y42073D01*
X-37525Y42119D01*
X-37682Y42135D01*
X-37839Y42119D01*
X-37990Y42073D01*
X-38128Y41999D01*
X-38250Y41899D01*
X-38350Y41777D01*
X-38425Y41638D01*
X-38470Y41488D01*
X-38486Y41331D01*
X-38470Y41174D01*
X-38425Y41023D01*
X-38350Y40884D01*
X-38278Y40797D01*
Y39865D01*
X-38350Y39777D01*
X-38425Y39638D01*
X-38470Y39488D01*
X-38486Y39331D01*
X-38470Y39174D01*
X-38425Y39023D01*
X-38350Y38884D01*
X-38278Y38797D01*
Y37888D01*
X-38350Y37801D01*
X-38425Y37662D01*
X-38470Y37511D01*
X-38486Y37354D01*
X-38470Y37197D01*
X-38425Y37047D01*
X-38350Y36908D01*
X-38278Y36820D01*
Y35888D01*
X-38350Y35801D01*
X-38425Y35662D01*
X-38470Y35511D01*
X-38486Y35354D01*
X-38470Y35198D01*
X-38425Y35047D01*
X-38350Y34908D01*
X-38313Y34862D01*
Y31266D01*
X-39480D01*
X-40591Y32378D01*
X-40572Y32424D01*
X-40033D01*
Y32911D01*
X-40033Y32913D01*
Y33330D01*
X-40020D01*
Y33777D01*
X-40020Y33780D01*
X-40020Y33782D01*
Y34230D01*
X-40820D01*
Y33865D01*
X-40833Y33767D01*
Y33324D01*
X-41633D01*
Y32915D01*
X-41633Y32913D01*
Y32454D01*
X-41633Y32451D01*
Y32424D01*
X-41629D01*
X-41620Y32350D01*
X-41580Y32253D01*
X-41516Y32171D01*
X-39929Y30583D01*
X-39846Y30519D01*
X-39749Y30480D01*
X-39646Y30466D01*
X-38593D01*
X-38574Y30420D01*
X-39893Y29101D01*
X-43414D01*
X-44775Y30462D01*
X-44742Y30499D01*
X-44658Y30435D01*
X-44538Y30385D01*
X-44529Y30384D01*
Y30866D01*
Y31348D01*
X-44538Y31347D01*
X-44658Y31297D01*
X-44762Y31218D01*
X-44826Y31134D01*
X-44876Y31151D01*
Y32784D01*
X-44525Y33136D01*
X-44525Y33136D01*
X-44450Y33226D01*
X-44395Y33329D01*
X-44361Y33441D01*
X-44350Y33557D01*
X-44350Y33557D01*
Y34820D01*
X-44278Y34908D01*
X-44204Y35047D01*
X-44158Y35198D01*
X-44143Y35354D01*
X-44158Y35511D01*
X-44204Y35662D01*
X-44278Y35801D01*
X-44350Y35888D01*
Y36820D01*
X-44278Y36908D01*
X-44204Y37047D01*
X-44158Y37197D01*
X-44143Y37354D01*
X-44158Y37511D01*
X-44204Y37662D01*
X-44271Y37788D01*
Y38836D01*
X-44199Y38923D01*
X-44125Y39062D01*
X-44079Y39213D01*
X-44064Y39370D01*
X-44079Y39527D01*
X-44125Y39678D01*
X-44199Y39817D01*
X-44271Y39904D01*
Y40836D01*
X-44199Y40923D01*
X-44125Y41062D01*
X-44079Y41213D01*
X-44064Y41370D01*
X-44079Y41527D01*
X-44125Y41678D01*
X-44199Y41817D01*
X-44299Y41939D01*
X-44421Y42038D01*
X-44560Y42113D01*
X-44711Y42158D01*
X-44868Y42174D01*
X-45025Y42158D01*
X-45175Y42113D01*
X-45314Y42038D01*
X-45436Y41939D01*
X-45536Y41817D01*
X-45610Y41678D01*
X-45656Y41527D01*
X-45672Y41370D01*
X-45656Y41213D01*
X-45610Y41062D01*
X-45536Y40923D01*
X-45464Y40836D01*
Y39904D01*
X-45536Y39817D01*
X-45610Y39678D01*
X-45656Y39527D01*
X-45672Y39370D01*
X-45656Y39213D01*
X-45610Y39062D01*
X-45536Y38923D01*
X-45464Y38836D01*
Y37964D01*
X-45515Y37923D01*
X-45615Y37801D01*
X-45689Y37662D01*
X-45735Y37511D01*
X-45750Y37354D01*
X-45735Y37197D01*
X-45689Y37047D01*
X-45615Y36908D01*
X-45543Y36820D01*
Y35888D01*
X-45615Y35801D01*
X-45689Y35662D01*
X-45735Y35511D01*
X-45750Y35354D01*
X-45735Y35198D01*
X-45689Y35047D01*
X-45615Y34908D01*
X-45543Y34820D01*
Y33805D01*
X-45894Y33453D01*
X-45934Y33405D01*
X-45984Y33423D01*
Y44646D01*
X-45748Y44882D01*
X-45327D01*
X-45314Y44832D01*
X-45378Y44798D01*
X-45514Y44687D01*
X-45625Y44551D01*
X-45707Y44397D01*
X-45758Y44229D01*
X-45775Y44055D01*
X-45758Y43881D01*
X-45707Y43713D01*
X-45625Y43559D01*
X-45514Y43423D01*
X-45378Y43312D01*
X-45224Y43230D01*
X-45056Y43179D01*
X-44882Y43162D01*
X-44708Y43179D01*
X-44540Y43230D01*
X-44386Y43312D01*
X-44250Y43423D01*
X-44139Y43559D01*
X-44057Y43713D01*
X-44006Y43881D01*
X-43989Y44055D01*
X-44006Y44229D01*
X-44057Y44397D01*
X-44139Y44551D01*
X-44250Y44687D01*
X-44386Y44798D01*
X-44449Y44832D01*
X-44437Y44882D01*
X-44291D01*
X-43898Y44488D01*
D02*
G37*
%LPC*%
G36*
X-39190Y35234D02*
X-39762D01*
Y34663D01*
X-39745Y34664D01*
X-39613Y34704D01*
X-39491Y34769D01*
X-39385Y34857D01*
X-39297Y34964D01*
X-39232Y35085D01*
X-39192Y35217D01*
X-39190Y35234D01*
D02*
G37*
G36*
X-40920Y34130D02*
X-41100D01*
Y33900D01*
X-40920D01*
Y34130D01*
D02*
G37*
G36*
X-40002Y35234D02*
X-40573D01*
X-40572Y35217D01*
X-40532Y35085D01*
X-40467Y34964D01*
X-40379Y34857D01*
X-40273Y34769D01*
X-40151Y34704D01*
X-40019Y34664D01*
X-40002Y34663D01*
Y35234D01*
D02*
G37*
G36*
X-29844Y35274D02*
X-30416D01*
X-30414Y35256D01*
X-30374Y35125D01*
X-30309Y35003D01*
X-30222Y34896D01*
X-30115Y34809D01*
X-29994Y34744D01*
X-29862Y34704D01*
X-29844Y34702D01*
Y35274D01*
D02*
G37*
G36*
X-42766Y35242D02*
X-43338D01*
X-43336Y35225D01*
X-43296Y35093D01*
X-43231Y34971D01*
X-43144Y34865D01*
X-43037Y34777D01*
X-42916Y34712D01*
X-42784Y34672D01*
X-42766Y34671D01*
Y35242D01*
D02*
G37*
G36*
X-41955D02*
X-42526D01*
Y34671D01*
X-42509Y34672D01*
X-42377Y34712D01*
X-42256Y34777D01*
X-42149Y34865D01*
X-42062Y34971D01*
X-41997Y35093D01*
X-41957Y35225D01*
X-41955Y35242D01*
D02*
G37*
G36*
X-31789Y35274D02*
X-32360D01*
Y34702D01*
X-32343Y34704D01*
X-32211Y34744D01*
X-32090Y34809D01*
X-31983Y34896D01*
X-31895Y35003D01*
X-31830Y35125D01*
X-31790Y35256D01*
X-31789Y35274D01*
D02*
G37*
G36*
X-32600D02*
X-33172D01*
X-33170Y35256D01*
X-33130Y35125D01*
X-33065Y35003D01*
X-32978Y34896D01*
X-32871Y34809D01*
X-32749Y34744D01*
X-32618Y34704D01*
X-32600Y34702D01*
Y35274D01*
D02*
G37*
G36*
X-41340Y34130D02*
X-41520D01*
Y33900D01*
X-41340D01*
Y34130D01*
D02*
G37*
G36*
X-20212Y33620D02*
X-20392D01*
Y33390D01*
X-20212D01*
Y33620D01*
D02*
G37*
G36*
X-41340Y33660D02*
X-41520D01*
Y33430D01*
X-41340D01*
Y33660D01*
D02*
G37*
G36*
X-40920D02*
X-41100D01*
Y33430D01*
X-40920D01*
Y33660D01*
D02*
G37*
G36*
X-31511Y33620D02*
X-31691D01*
Y33390D01*
X-31511D01*
Y33620D01*
D02*
G37*
G36*
X-31091D02*
X-31271D01*
Y33390D01*
X-31091D01*
Y33620D01*
D02*
G37*
G36*
X-20632D02*
X-20812D01*
Y33390D01*
X-20632D01*
Y33620D01*
D02*
G37*
G36*
X-31091Y34090D02*
X-31271D01*
Y33860D01*
X-31091D01*
Y34090D01*
D02*
G37*
G36*
X-20632D02*
X-20812D01*
Y33860D01*
X-20632D01*
Y34090D01*
D02*
G37*
G36*
X-20212D02*
X-20392D01*
Y33860D01*
X-20212D01*
Y34090D01*
D02*
G37*
G36*
X-10671Y34051D02*
X-10851D01*
Y33821D01*
X-10671D01*
Y34051D01*
D02*
G37*
G36*
X-10251D02*
X-10431D01*
Y33821D01*
X-10251D01*
Y34051D01*
D02*
G37*
G36*
X-31511Y34090D02*
X-31691D01*
Y33860D01*
X-31511D01*
Y34090D01*
D02*
G37*
G36*
X-29604Y36085D02*
Y35514D01*
X-29033D01*
X-29035Y35531D01*
X-29075Y35663D01*
X-29140Y35784D01*
X-29227Y35891D01*
X-29334Y35979D01*
X-29455Y36044D01*
X-29587Y36084D01*
X-29604Y36085D01*
D02*
G37*
G36*
X-9726Y36125D02*
X-9744Y36123D01*
X-9875Y36083D01*
X-9997Y36018D01*
X-10104Y35930D01*
X-10191Y35824D01*
X-10256Y35702D01*
X-10296Y35570D01*
X-10298Y35553D01*
X-9726D01*
Y36125D01*
D02*
G37*
G36*
X-9486D02*
Y35553D01*
X-8915D01*
X-8916Y35570D01*
X-8956Y35702D01*
X-9021Y35824D01*
X-9109Y35930D01*
X-9216Y36018D01*
X-9337Y36083D01*
X-9469Y36123D01*
X-9486Y36125D01*
D02*
G37*
G36*
X-32600Y36085D02*
X-32618Y36084D01*
X-32749Y36044D01*
X-32871Y35979D01*
X-32978Y35891D01*
X-33065Y35784D01*
X-33130Y35663D01*
X-33170Y35531D01*
X-33172Y35514D01*
X-32600D01*
Y36085D01*
D02*
G37*
G36*
X-32360D02*
Y35514D01*
X-31789D01*
X-31790Y35531D01*
X-31830Y35663D01*
X-31895Y35784D01*
X-31983Y35891D01*
X-32090Y35979D01*
X-32211Y36044D01*
X-32343Y36084D01*
X-32360Y36085D01*
D02*
G37*
G36*
X-29844D02*
X-29862Y36084D01*
X-29994Y36044D01*
X-30115Y35979D01*
X-30222Y35891D01*
X-30309Y35784D01*
X-30374Y35663D01*
X-30414Y35531D01*
X-30416Y35514D01*
X-29844D01*
Y36085D01*
D02*
G37*
G36*
X-19565Y36125D02*
Y35553D01*
X-18993D01*
X-18995Y35570D01*
X-19035Y35702D01*
X-19100Y35824D01*
X-19188Y35930D01*
X-19294Y36018D01*
X-19416Y36083D01*
X-19548Y36123D01*
X-19565Y36125D01*
D02*
G37*
G36*
X-12403Y36133D02*
X-12421Y36131D01*
X-12553Y36091D01*
X-12674Y36026D01*
X-12781Y35938D01*
X-12868Y35832D01*
X-12933Y35710D01*
X-12973Y35578D01*
X-12975Y35561D01*
X-12403D01*
Y36133D01*
D02*
G37*
G36*
X-12163D02*
Y35561D01*
X-11592D01*
X-11594Y35578D01*
X-11634Y35710D01*
X-11699Y35832D01*
X-11786Y35938D01*
X-11893Y36026D01*
X-12014Y36091D01*
X-12146Y36131D01*
X-12163Y36133D01*
D02*
G37*
G36*
X-22387Y36125D02*
X-22404Y36123D01*
X-22536Y36083D01*
X-22658Y36018D01*
X-22764Y35930D01*
X-22852Y35824D01*
X-22917Y35702D01*
X-22957Y35570D01*
X-22959Y35553D01*
X-22387D01*
Y36125D01*
D02*
G37*
G36*
X-22147D02*
Y35553D01*
X-21575D01*
X-21577Y35570D01*
X-21617Y35702D01*
X-21682Y35824D01*
X-21770Y35930D01*
X-21876Y36018D01*
X-21998Y36083D01*
X-22130Y36123D01*
X-22147Y36125D01*
D02*
G37*
G36*
X-19805D02*
X-19822Y36123D01*
X-19954Y36083D01*
X-20076Y36018D01*
X-20182Y35930D01*
X-20270Y35824D01*
X-20335Y35702D01*
X-20375Y35570D01*
X-20377Y35553D01*
X-19805D01*
Y36125D01*
D02*
G37*
G36*
X-42526Y36054D02*
Y35482D01*
X-41955D01*
X-41957Y35499D01*
X-41997Y35631D01*
X-42062Y35753D01*
X-42149Y35860D01*
X-42256Y35947D01*
X-42377Y36012D01*
X-42509Y36052D01*
X-42526Y36054D01*
D02*
G37*
G36*
X-22387Y35313D02*
X-22959D01*
X-22957Y35296D01*
X-22917Y35164D01*
X-22852Y35042D01*
X-22764Y34936D01*
X-22658Y34848D01*
X-22536Y34783D01*
X-22404Y34743D01*
X-22387Y34741D01*
Y35313D01*
D02*
G37*
G36*
X-21575D02*
X-22147D01*
Y34741D01*
X-22130Y34743D01*
X-21998Y34783D01*
X-21876Y34848D01*
X-21770Y34936D01*
X-21682Y35042D01*
X-21617Y35164D01*
X-21577Y35296D01*
X-21575Y35313D01*
D02*
G37*
G36*
X-19805D02*
X-20377D01*
X-20375Y35296D01*
X-20335Y35164D01*
X-20270Y35042D01*
X-20182Y34936D01*
X-20076Y34848D01*
X-19954Y34783D01*
X-19822Y34743D01*
X-19805Y34741D01*
Y35313D01*
D02*
G37*
G36*
X-29033Y35274D02*
X-29604D01*
Y34702D01*
X-29587Y34704D01*
X-29455Y34744D01*
X-29334Y34809D01*
X-29227Y34896D01*
X-29140Y35003D01*
X-29075Y35125D01*
X-29035Y35256D01*
X-29033Y35274D01*
D02*
G37*
G36*
X-9726Y35313D02*
X-10298D01*
X-10296Y35296D01*
X-10256Y35164D01*
X-10191Y35042D01*
X-10104Y34936D01*
X-9997Y34848D01*
X-9875Y34783D01*
X-9744Y34743D01*
X-9726Y34741D01*
Y35313D01*
D02*
G37*
G36*
X-8915D02*
X-9486D01*
Y34741D01*
X-9469Y34743D01*
X-9337Y34783D01*
X-9216Y34848D01*
X-9109Y34936D01*
X-9021Y35042D01*
X-8956Y35164D01*
X-8916Y35296D01*
X-8915Y35313D01*
D02*
G37*
G36*
X-40002Y36046D02*
X-40019Y36044D01*
X-40151Y36004D01*
X-40273Y35939D01*
X-40379Y35852D01*
X-40467Y35745D01*
X-40532Y35624D01*
X-40572Y35492D01*
X-40573Y35474D01*
X-40002D01*
Y36046D01*
D02*
G37*
G36*
X-39762D02*
Y35474D01*
X-39190D01*
X-39192Y35492D01*
X-39232Y35624D01*
X-39297Y35745D01*
X-39385Y35852D01*
X-39491Y35939D01*
X-39613Y36004D01*
X-39745Y36044D01*
X-39762Y36046D01*
D02*
G37*
G36*
X-42766Y36054D02*
X-42784Y36052D01*
X-42916Y36012D01*
X-43037Y35947D01*
X-43144Y35860D01*
X-43231Y35753D01*
X-43296Y35631D01*
X-43336Y35499D01*
X-43338Y35482D01*
X-42766D01*
Y36054D01*
D02*
G37*
G36*
X-18993Y35313D02*
X-19565D01*
Y34741D01*
X-19548Y34743D01*
X-19416Y34783D01*
X-19294Y34848D01*
X-19188Y34936D01*
X-19100Y35042D01*
X-19035Y35164D01*
X-18995Y35296D01*
X-18993Y35313D01*
D02*
G37*
G36*
X-12403Y35321D02*
X-12975D01*
X-12973Y35304D01*
X-12933Y35172D01*
X-12868Y35050D01*
X-12781Y34944D01*
X-12674Y34856D01*
X-12553Y34791D01*
X-12421Y34751D01*
X-12403Y34749D01*
Y35321D01*
D02*
G37*
G36*
X-11592D02*
X-12163D01*
Y34749D01*
X-12146Y34751D01*
X-12014Y34791D01*
X-11893Y34856D01*
X-11786Y34944D01*
X-11699Y35050D01*
X-11634Y35172D01*
X-11594Y35304D01*
X-11592Y35321D01*
D02*
G37*
G36*
X-37288Y11009D02*
X-37518D01*
Y10829D01*
X-37288D01*
Y11009D01*
D02*
G37*
G36*
X-24766Y11873D02*
X-24783Y11871D01*
X-24915Y11831D01*
X-25036Y11766D01*
X-25143Y11678D01*
X-25231Y11572D01*
X-25296Y11450D01*
X-25336Y11318D01*
X-25337Y11301D01*
X-24766D01*
Y11873D01*
D02*
G37*
G36*
X-37758Y11009D02*
X-37988D01*
Y10829D01*
X-37758D01*
Y11009D01*
D02*
G37*
G36*
X-24766Y11061D02*
X-25337D01*
X-25336Y11044D01*
X-25296Y10912D01*
X-25231Y10790D01*
X-25143Y10684D01*
X-25036Y10596D01*
X-24915Y10531D01*
X-24783Y10491D01*
X-24766Y10490D01*
Y11061D01*
D02*
G37*
G36*
X-23954D02*
X-24526D01*
Y10490D01*
X-24508Y10491D01*
X-24376Y10531D01*
X-24255Y10596D01*
X-24148Y10684D01*
X-24061Y10790D01*
X-23996Y10912D01*
X-23956Y11044D01*
X-23954Y11061D01*
D02*
G37*
G36*
X-24526Y11873D02*
Y11301D01*
X-23954D01*
X-23956Y11318D01*
X-23996Y11450D01*
X-24061Y11572D01*
X-24148Y11678D01*
X-24255Y11766D01*
X-24376Y11831D01*
X-24508Y11871D01*
X-24526Y11873D01*
D02*
G37*
G36*
X-7323Y15754D02*
X-7439Y15743D01*
X-7551Y15709D01*
X-7654Y15654D01*
X-7745Y15579D01*
X-7745Y15579D01*
X-8594Y14730D01*
X-13684D01*
X-13700Y14778D01*
X-13664Y14805D01*
X-13585Y14908D01*
X-13535Y15029D01*
X-13534Y15037D01*
X-14498D01*
X-14497Y15029D01*
X-14447Y14908D01*
X-14368Y14805D01*
X-14332Y14778D01*
X-14348Y14730D01*
X-16972D01*
X-16995Y14780D01*
X-16958Y14826D01*
X-16903Y14929D01*
X-16869Y15041D01*
X-16857Y15157D01*
X-16869Y15274D01*
X-16903Y15386D01*
X-16958Y15489D01*
X-17032Y15579D01*
X-17123Y15654D01*
X-17226Y15709D01*
X-17338Y15743D01*
X-17454Y15754D01*
X-17570Y15743D01*
X-17682Y15709D01*
X-17786Y15654D01*
X-17876Y15579D01*
X-17876Y15579D01*
X-18725Y14730D01*
X-23815D01*
X-23831Y14778D01*
X-23795Y14805D01*
X-23716Y14908D01*
X-23666Y15029D01*
X-23665Y15037D01*
X-24629D01*
X-24628Y15029D01*
X-24578Y14908D01*
X-24499Y14805D01*
X-24463Y14778D01*
X-24479Y14730D01*
X-26342D01*
X-26354Y14754D01*
X-26429Y14844D01*
X-26429Y14844D01*
X-27163Y15579D01*
X-27254Y15654D01*
X-27357Y15709D01*
X-27469Y15743D01*
X-27585Y15754D01*
X-27702Y15743D01*
X-27814Y15709D01*
X-27917Y15654D01*
X-28007Y15579D01*
X-28081Y15489D01*
X-28136Y15386D01*
X-28170Y15274D01*
X-28182Y15157D01*
X-28170Y15041D01*
X-28136Y14929D01*
X-28081Y14826D01*
X-28044Y14780D01*
X-28068Y14730D01*
X-33946D01*
X-33962Y14778D01*
X-33926Y14805D01*
X-33847Y14908D01*
X-33797Y15029D01*
X-33796Y15037D01*
X-34760D01*
X-34759Y15029D01*
X-34709Y14908D01*
X-34630Y14805D01*
X-34594Y14778D01*
X-34610Y14730D01*
X-36485D01*
X-37295Y15540D01*
X-37385Y15614D01*
X-37488Y15669D01*
X-37600Y15703D01*
X-37717Y15715D01*
X-37833Y15703D01*
X-37945Y15669D01*
X-38048Y15614D01*
X-38138Y15540D01*
X-38213Y15450D01*
X-38268Y15346D01*
X-38302Y15235D01*
X-38313Y15118D01*
X-38302Y15002D01*
X-38268Y14890D01*
X-38213Y14787D01*
X-38204Y14776D01*
X-38225Y14730D01*
X-41134D01*
X-41134Y14730D01*
X-41250Y14719D01*
X-41362Y14685D01*
X-41465Y14630D01*
X-41556Y14556D01*
X-43824Y12288D01*
X-43936Y12277D01*
X-44087Y12231D01*
X-44226Y12157D01*
X-44348Y12057D01*
X-44448Y11935D01*
X-44522Y11796D01*
X-44568Y11645D01*
X-44583Y11488D01*
X-44568Y11331D01*
X-44522Y11181D01*
X-44448Y11042D01*
X-44348Y10920D01*
X-44226Y10820D01*
X-44087Y10746D01*
X-43936Y10700D01*
X-43780Y10684D01*
X-43623Y10700D01*
X-43472Y10746D01*
X-43333Y10820D01*
X-43211Y10920D01*
X-43111Y11042D01*
X-43037Y11181D01*
X-42991Y11331D01*
X-42980Y11444D01*
X-40887Y13537D01*
X-36935D01*
X-36909Y13494D01*
X-36929Y13457D01*
X-36963Y13345D01*
X-36975Y13228D01*
X-36963Y13112D01*
X-36929Y13000D01*
X-36874Y12897D01*
X-36800Y12807D01*
X-36778Y12789D01*
Y11121D01*
X-36828D01*
Y10322D01*
X-37625D01*
X-37723Y10309D01*
X-38088D01*
Y9509D01*
X-37188D01*
Y9521D01*
X-36378D01*
X-36376Y9521D01*
X-35928D01*
Y10321D01*
Y11121D01*
X-35978D01*
Y12789D01*
X-35956Y12807D01*
X-35225Y13537D01*
X-27447D01*
Y11715D01*
X-27519Y11628D01*
X-27593Y11489D01*
X-27639Y11338D01*
X-27654Y11181D01*
X-27639Y11024D01*
X-27593Y10873D01*
X-27519Y10734D01*
X-27447Y10647D01*
Y9715D01*
X-27519Y9628D01*
X-27593Y9489D01*
X-27639Y9338D01*
X-27654Y9181D01*
X-27639Y9024D01*
X-27593Y8873D01*
X-27519Y8734D01*
X-27419Y8613D01*
X-27297Y8513D01*
X-27158Y8438D01*
X-27007Y8393D01*
X-26850Y8377D01*
X-26694Y8393D01*
X-26543Y8438D01*
X-26404Y8513D01*
X-26282Y8613D01*
X-26182Y8734D01*
X-26108Y8873D01*
X-26062Y9024D01*
X-26047Y9181D01*
X-26062Y9338D01*
X-26108Y9489D01*
X-26182Y9628D01*
X-26254Y9715D01*
Y10647D01*
X-26182Y10734D01*
X-26108Y10873D01*
X-26062Y11024D01*
X-26047Y11181D01*
X-26062Y11338D01*
X-26108Y11489D01*
X-26182Y11628D01*
X-26254Y11715D01*
Y12931D01*
X-26208Y12950D01*
X-26064Y12807D01*
X-26043Y12789D01*
Y12778D01*
X-26030D01*
X-25974Y12732D01*
X-25871Y12677D01*
X-25759Y12643D01*
X-25643Y12632D01*
X-25526Y12643D01*
X-25414Y12677D01*
X-25311Y12732D01*
X-25255Y12778D01*
X-25243D01*
Y12789D01*
X-25221Y12807D01*
X-25182Y12853D01*
X-25143Y12878D01*
X-24963D01*
Y13228D01*
X-24843D01*
Y13348D01*
X-24543D01*
Y13537D01*
X-18478D01*
X-18478Y13537D01*
X-18478Y13537D01*
X-8346D01*
X-8346Y13537D01*
X-8230Y13549D01*
X-8118Y13583D01*
X-8015Y13638D01*
X-7925Y13712D01*
X-6901Y14736D01*
X-6901Y14736D01*
X-6827Y14826D01*
X-6772Y14929D01*
X-6738Y15041D01*
X-6726Y15157D01*
X-6738Y15274D01*
X-6772Y15386D01*
X-6827Y15489D01*
X-6901Y15579D01*
X-6991Y15654D01*
X-7095Y15709D01*
X-7206Y15743D01*
X-7217Y15744D01*
X-7323Y15754D01*
D02*
G37*
G36*
X-44529Y15600D02*
X-44538Y15599D01*
X-44658Y15549D01*
X-44762Y15470D01*
X-44841Y15367D01*
X-44890Y15247D01*
X-44892Y15238D01*
X-44529D01*
Y15600D01*
D02*
G37*
G36*
X-43927Y14998D02*
X-44289D01*
Y14636D01*
X-44281Y14637D01*
X-44160Y14687D01*
X-44057Y14766D01*
X-43978Y14869D01*
X-43928Y14989D01*
X-43927Y14998D01*
D02*
G37*
G36*
X-24543Y13108D02*
X-24723D01*
Y12878D01*
X-24543D01*
Y13108D01*
D02*
G37*
G36*
X-44529Y14998D02*
X-44892D01*
X-44890Y14989D01*
X-44841Y14869D01*
X-44762Y14766D01*
X-44658Y14687D01*
X-44538Y14637D01*
X-44529Y14636D01*
Y14998D01*
D02*
G37*
G36*
X-37288Y10589D02*
X-37518D01*
Y10409D01*
X-37288D01*
Y10589D01*
D02*
G37*
G36*
X-43080Y9368D02*
X-43660D01*
Y8788D01*
X-43080D01*
Y9368D01*
D02*
G37*
G36*
X-24766Y9873D02*
X-24783Y9871D01*
X-24915Y9831D01*
X-25036Y9766D01*
X-25143Y9678D01*
X-25231Y9572D01*
X-25296Y9450D01*
X-25336Y9318D01*
X-25337Y9301D01*
X-24766D01*
Y9873D01*
D02*
G37*
G36*
X-43900Y9368D02*
X-44480D01*
Y8788D01*
X-43900D01*
Y9368D01*
D02*
G37*
G36*
X-24766Y9061D02*
X-25337D01*
X-25336Y9044D01*
X-25296Y8912D01*
X-25231Y8790D01*
X-25143Y8684D01*
X-25036Y8596D01*
X-24915Y8531D01*
X-24783Y8491D01*
X-24766Y8490D01*
Y9061D01*
D02*
G37*
G36*
X-23954D02*
X-24526D01*
Y8490D01*
X-24508Y8491D01*
X-24376Y8531D01*
X-24255Y8596D01*
X-24148Y8684D01*
X-24061Y8790D01*
X-23996Y8912D01*
X-23956Y9044D01*
X-23954Y9061D01*
D02*
G37*
G36*
X-24526Y9873D02*
Y9301D01*
X-23954D01*
X-23956Y9318D01*
X-23996Y9450D01*
X-24061Y9572D01*
X-24148Y9678D01*
X-24255Y9766D01*
X-24376Y9831D01*
X-24508Y9871D01*
X-24526Y9873D01*
D02*
G37*
G36*
X-43080Y10188D02*
X-43660D01*
Y9608D01*
X-43080D01*
Y10188D01*
D02*
G37*
G36*
X-37758Y10589D02*
X-37988D01*
Y10409D01*
X-37758D01*
Y10589D01*
D02*
G37*
G36*
X-43900Y10188D02*
X-44480D01*
Y9608D01*
X-43900D01*
Y10188D01*
D02*
G37*
G36*
X-32008Y11248D02*
X-32182Y11230D01*
X-32350Y11180D01*
X-32504Y11097D01*
X-32640Y10986D01*
X-32751Y10851D01*
X-32833Y10696D01*
X-32884Y10529D01*
X-32901Y10354D01*
X-32884Y10180D01*
X-32833Y10012D01*
X-32751Y9858D01*
X-32640Y9723D01*
X-32504Y9612D01*
X-32350Y9529D01*
X-32182Y9478D01*
X-32008Y9461D01*
X-31834Y9478D01*
X-31666Y9529D01*
X-31512Y9612D01*
X-31376Y9723D01*
X-31265Y9858D01*
X-31183Y10012D01*
X-31132Y10180D01*
X-31115Y10354D01*
X-31132Y10529D01*
X-31183Y10696D01*
X-31265Y10851D01*
X-31376Y10986D01*
X-31512Y11097D01*
X-31666Y11180D01*
X-31834Y11230D01*
X-32008Y11248D01*
D02*
G37*
G36*
X-19134D02*
X-19308Y11230D01*
X-19476Y11180D01*
X-19630Y11097D01*
X-19765Y10986D01*
X-19877Y10851D01*
X-19959Y10696D01*
X-20010Y10529D01*
X-20027Y10354D01*
X-20010Y10180D01*
X-19959Y10012D01*
X-19877Y9858D01*
X-19765Y9723D01*
X-19630Y9612D01*
X-19476Y9529D01*
X-19308Y9478D01*
X-19134Y9461D01*
X-18960Y9478D01*
X-18792Y9529D01*
X-18638Y9612D01*
X-18502Y9723D01*
X-18391Y9858D01*
X-18309Y10012D01*
X-18258Y10180D01*
X-18241Y10354D01*
X-18258Y10529D01*
X-18309Y10696D01*
X-18391Y10851D01*
X-18502Y10986D01*
X-18638Y11097D01*
X-18792Y11180D01*
X-18960Y11230D01*
X-19134Y11248D01*
D02*
G37*
G36*
X-34398Y31388D02*
X-34407Y31386D01*
X-34527Y31337D01*
X-34630Y31258D01*
X-34709Y31154D01*
X-34759Y31034D01*
X-34760Y31026D01*
X-34398D01*
Y31388D01*
D02*
G37*
G36*
X-34158D02*
Y31026D01*
X-33796D01*
X-33797Y31034D01*
X-33847Y31154D01*
X-33926Y31258D01*
X-34029Y31337D01*
X-34149Y31386D01*
X-34158Y31388D01*
D02*
G37*
G36*
X-44289Y31348D02*
Y30986D01*
X-43927D01*
X-43928Y30995D01*
X-43978Y31115D01*
X-44057Y31218D01*
X-44160Y31297D01*
X-44281Y31347D01*
X-44289Y31348D01*
D02*
G37*
G36*
X-14136Y30786D02*
X-14498D01*
X-14497Y30777D01*
X-14447Y30657D01*
X-14368Y30553D01*
X-14265Y30474D01*
X-14145Y30425D01*
X-14136Y30423D01*
Y30786D01*
D02*
G37*
G36*
X-13534D02*
X-13896D01*
Y30423D01*
X-13887Y30425D01*
X-13767Y30474D01*
X-13664Y30553D01*
X-13585Y30657D01*
X-13535Y30777D01*
X-13534Y30786D01*
D02*
G37*
G36*
X-24267Y31388D02*
X-24276Y31386D01*
X-24396Y31337D01*
X-24499Y31258D01*
X-24578Y31154D01*
X-24628Y31034D01*
X-24629Y31026D01*
X-24267D01*
Y31388D01*
D02*
G37*
G36*
X-10671Y33581D02*
X-10851D01*
Y33351D01*
X-10671D01*
Y33581D01*
D02*
G37*
G36*
X-10251D02*
X-10431D01*
Y33351D01*
X-10251D01*
Y33581D01*
D02*
G37*
G36*
X-13896Y31388D02*
Y31026D01*
X-13534D01*
X-13535Y31034D01*
X-13585Y31154D01*
X-13664Y31258D01*
X-13767Y31337D01*
X-13887Y31386D01*
X-13896Y31388D01*
D02*
G37*
G36*
X-24027D02*
Y31026D01*
X-23665D01*
X-23666Y31034D01*
X-23716Y31154D01*
X-23795Y31258D01*
X-23898Y31337D01*
X-24018Y31386D01*
X-24027Y31388D01*
D02*
G37*
G36*
X-14136D02*
X-14145Y31386D01*
X-14265Y31337D01*
X-14368Y31258D01*
X-14447Y31154D01*
X-14497Y31034D01*
X-14498Y31026D01*
X-14136D01*
Y31388D01*
D02*
G37*
G36*
X-23665Y30786D02*
X-24027D01*
Y30423D01*
X-24018Y30425D01*
X-23898Y30474D01*
X-23795Y30553D01*
X-23716Y30657D01*
X-23666Y30777D01*
X-23665Y30786D01*
D02*
G37*
G36*
X-24267Y15640D02*
X-24276Y15638D01*
X-24396Y15589D01*
X-24499Y15510D01*
X-24578Y15406D01*
X-24628Y15286D01*
X-24629Y15277D01*
X-24267D01*
Y15640D01*
D02*
G37*
G36*
X-24027D02*
Y15277D01*
X-23665D01*
X-23666Y15286D01*
X-23716Y15406D01*
X-23795Y15510D01*
X-23898Y15589D01*
X-24018Y15638D01*
X-24027Y15640D01*
D02*
G37*
G36*
X-34158D02*
Y15277D01*
X-33796D01*
X-33797Y15286D01*
X-33847Y15406D01*
X-33926Y15510D01*
X-34029Y15589D01*
X-34149Y15638D01*
X-34158Y15640D01*
D02*
G37*
G36*
X-44289Y15600D02*
Y15238D01*
X-43927D01*
X-43928Y15247D01*
X-43978Y15367D01*
X-44057Y15470D01*
X-44160Y15549D01*
X-44281Y15599D01*
X-44289Y15600D01*
D02*
G37*
G36*
X-34398Y15640D02*
X-34407Y15638D01*
X-34527Y15589D01*
X-34630Y15510D01*
X-34709Y15406D01*
X-34759Y15286D01*
X-34760Y15277D01*
X-34398D01*
Y15640D01*
D02*
G37*
G36*
X-14136D02*
X-14145Y15638D01*
X-14265Y15589D01*
X-14368Y15510D01*
X-14447Y15406D01*
X-14497Y15286D01*
X-14498Y15277D01*
X-14136D01*
Y15640D01*
D02*
G37*
G36*
X-33796Y30786D02*
X-34158D01*
Y30423D01*
X-34149Y30425D01*
X-34029Y30474D01*
X-33926Y30553D01*
X-33847Y30657D01*
X-33797Y30777D01*
X-33796Y30786D01*
D02*
G37*
G36*
X-24267D02*
X-24629D01*
X-24628Y30777D01*
X-24578Y30657D01*
X-24499Y30553D01*
X-24396Y30474D01*
X-24276Y30425D01*
X-24267Y30423D01*
Y30786D01*
D02*
G37*
G36*
X-34398D02*
X-34760D01*
X-34759Y30777D01*
X-34709Y30657D01*
X-34630Y30553D01*
X-34527Y30474D01*
X-34407Y30425D01*
X-34398Y30423D01*
Y30786D01*
D02*
G37*
G36*
X-13896Y15640D02*
Y15277D01*
X-13534D01*
X-13535Y15286D01*
X-13585Y15406D01*
X-13664Y15510D01*
X-13767Y15589D01*
X-13887Y15638D01*
X-13896Y15640D01*
D02*
G37*
G36*
X-43927Y30746D02*
X-44289D01*
Y30384D01*
X-44281Y30385D01*
X-44160Y30435D01*
X-44057Y30514D01*
X-43978Y30617D01*
X-43928Y30737D01*
X-43927Y30746D01*
D02*
G37*
G36*
X-12163Y40070D02*
Y39498D01*
X-11592D01*
X-11594Y39515D01*
X-11634Y39647D01*
X-11699Y39769D01*
X-11786Y39875D01*
X-11893Y39963D01*
X-12014Y40028D01*
X-12146Y40068D01*
X-12163Y40070D01*
D02*
G37*
G36*
X-40002Y41211D02*
X-40573D01*
X-40572Y41193D01*
X-40532Y41062D01*
X-40467Y40940D01*
X-40379Y40833D01*
X-40273Y40746D01*
X-40151Y40681D01*
X-40019Y40641D01*
X-40002Y40639D01*
Y41211D01*
D02*
G37*
G36*
X-39190D02*
X-39762D01*
Y40639D01*
X-39745Y40641D01*
X-39613Y40681D01*
X-39491Y40746D01*
X-39385Y40833D01*
X-39297Y40940D01*
X-39232Y41062D01*
X-39192Y41193D01*
X-39190Y41211D01*
D02*
G37*
G36*
X-22443Y40070D02*
X-22460Y40068D01*
X-22592Y40028D01*
X-22714Y39963D01*
X-22820Y39875D01*
X-22908Y39769D01*
X-22973Y39647D01*
X-23013Y39515D01*
X-23014Y39498D01*
X-22443D01*
Y40070D01*
D02*
G37*
G36*
X-22203D02*
Y39498D01*
X-21631D01*
X-21633Y39515D01*
X-21673Y39647D01*
X-21738Y39769D01*
X-21825Y39875D01*
X-21932Y39963D01*
X-22054Y40028D01*
X-22186Y40068D01*
X-22203Y40070D01*
D02*
G37*
G36*
X-12403D02*
X-12421Y40068D01*
X-12553Y40028D01*
X-12674Y39963D01*
X-12781Y39875D01*
X-12868Y39769D01*
X-12933Y39647D01*
X-12973Y39515D01*
X-12975Y39498D01*
X-12403D01*
Y40070D01*
D02*
G37*
G36*
X-31867Y41250D02*
X-32439D01*
Y40679D01*
X-32422Y40680D01*
X-32290Y40720D01*
X-32168Y40785D01*
X-32062Y40873D01*
X-31974Y40979D01*
X-31909Y41101D01*
X-31869Y41233D01*
X-31867Y41250D01*
D02*
G37*
G36*
X-29844D02*
X-30416D01*
X-30414Y41233D01*
X-30374Y41101D01*
X-30309Y40979D01*
X-30222Y40873D01*
X-30115Y40785D01*
X-29994Y40720D01*
X-29862Y40680D01*
X-29844Y40679D01*
Y41250D01*
D02*
G37*
G36*
X-29033D02*
X-29604D01*
Y40679D01*
X-29587Y40680D01*
X-29455Y40720D01*
X-29334Y40785D01*
X-29227Y40873D01*
X-29140Y40979D01*
X-29075Y41101D01*
X-29035Y41233D01*
X-29033Y41250D01*
D02*
G37*
G36*
X-42788D02*
X-43359D01*
X-43358Y41233D01*
X-43318Y41101D01*
X-43253Y40979D01*
X-43165Y40873D01*
X-43059Y40785D01*
X-42937Y40720D01*
X-42805Y40680D01*
X-42788Y40679D01*
Y41250D01*
D02*
G37*
G36*
X-41976D02*
X-42548D01*
Y40679D01*
X-42530Y40680D01*
X-42399Y40720D01*
X-42277Y40785D01*
X-42170Y40873D01*
X-42083Y40979D01*
X-42018Y41101D01*
X-41978Y41233D01*
X-41976Y41250D01*
D02*
G37*
G36*
X-32679D02*
X-33251D01*
X-33249Y41233D01*
X-33209Y41101D01*
X-33144Y40979D01*
X-33056Y40873D01*
X-32950Y40785D01*
X-32828Y40720D01*
X-32696Y40680D01*
X-32679Y40679D01*
Y41250D01*
D02*
G37*
G36*
X-42548Y40062D02*
Y39490D01*
X-41976D01*
X-41978Y39507D01*
X-42018Y39639D01*
X-42083Y39761D01*
X-42170Y39867D01*
X-42277Y39955D01*
X-42399Y40020D01*
X-42530Y40060D01*
X-42548Y40062D01*
D02*
G37*
G36*
X-32679D02*
X-32696Y40060D01*
X-32828Y40020D01*
X-32950Y39955D01*
X-33056Y39867D01*
X-33144Y39761D01*
X-33209Y39639D01*
X-33249Y39507D01*
X-33251Y39490D01*
X-32679D01*
Y40062D01*
D02*
G37*
G36*
X-32439D02*
Y39490D01*
X-31867D01*
X-31869Y39507D01*
X-31909Y39639D01*
X-31974Y39761D01*
X-32062Y39867D01*
X-32168Y39955D01*
X-32290Y40020D01*
X-32422Y40060D01*
X-32439Y40062D01*
D02*
G37*
G36*
X-40002Y40022D02*
X-40019Y40021D01*
X-40151Y39981D01*
X-40273Y39916D01*
X-40379Y39828D01*
X-40467Y39721D01*
X-40532Y39600D01*
X-40572Y39468D01*
X-40573Y39451D01*
X-40002D01*
Y40022D01*
D02*
G37*
G36*
X-39762D02*
Y39451D01*
X-39190D01*
X-39192Y39468D01*
X-39232Y39600D01*
X-39297Y39721D01*
X-39385Y39828D01*
X-39491Y39916D01*
X-39613Y39981D01*
X-39745Y40021D01*
X-39762Y40022D01*
D02*
G37*
G36*
X-42788Y40062D02*
X-42805Y40060D01*
X-42937Y40020D01*
X-43059Y39955D01*
X-43165Y39867D01*
X-43253Y39761D01*
X-43318Y39639D01*
X-43358Y39507D01*
X-43359Y39490D01*
X-42788D01*
Y40062D01*
D02*
G37*
G36*
X-19486D02*
Y39490D01*
X-18915D01*
X-18916Y39507D01*
X-18956Y39639D01*
X-19021Y39761D01*
X-19109Y39867D01*
X-19216Y39955D01*
X-19337Y40020D01*
X-19469Y40060D01*
X-19486Y40062D01*
D02*
G37*
G36*
X-9766D02*
X-9783Y40060D01*
X-9915Y40020D01*
X-10036Y39955D01*
X-10143Y39867D01*
X-10231Y39761D01*
X-10296Y39639D01*
X-10336Y39507D01*
X-10337Y39490D01*
X-9766D01*
Y40062D01*
D02*
G37*
G36*
X-9526D02*
Y39490D01*
X-8954D01*
X-8956Y39507D01*
X-8996Y39639D01*
X-9061Y39761D01*
X-9148Y39867D01*
X-9255Y39955D01*
X-9376Y40020D01*
X-9508Y40060D01*
X-9526Y40062D01*
D02*
G37*
G36*
X-29844D02*
X-29862Y40060D01*
X-29994Y40020D01*
X-30115Y39955D01*
X-30222Y39867D01*
X-30309Y39761D01*
X-30374Y39639D01*
X-30414Y39507D01*
X-30416Y39490D01*
X-29844D01*
Y40062D01*
D02*
G37*
G36*
X-29604D02*
Y39490D01*
X-29033D01*
X-29035Y39507D01*
X-29075Y39639D01*
X-29140Y39761D01*
X-29227Y39867D01*
X-29334Y39955D01*
X-29455Y40020D01*
X-29587Y40060D01*
X-29604Y40062D01*
D02*
G37*
G36*
X-19726D02*
X-19744Y40060D01*
X-19875Y40020D01*
X-19997Y39955D01*
X-20104Y39867D01*
X-20191Y39761D01*
X-20256Y39639D01*
X-20296Y39507D01*
X-20298Y39490D01*
X-19726D01*
Y40062D01*
D02*
G37*
G36*
X-29604Y42062D02*
Y41490D01*
X-29033D01*
X-29035Y41507D01*
X-29075Y41639D01*
X-29140Y41761D01*
X-29227Y41867D01*
X-29334Y41955D01*
X-29455Y42020D01*
X-29587Y42060D01*
X-29604Y42062D01*
D02*
G37*
G36*
X-19726D02*
X-19744Y42060D01*
X-19875Y42020D01*
X-19997Y41955D01*
X-20104Y41867D01*
X-20191Y41761D01*
X-20256Y41639D01*
X-20296Y41507D01*
X-20298Y41490D01*
X-19726D01*
Y42062D01*
D02*
G37*
G36*
X-19486D02*
Y41490D01*
X-18915D01*
X-18916Y41507D01*
X-18956Y41639D01*
X-19021Y41761D01*
X-19109Y41867D01*
X-19216Y41955D01*
X-19337Y42020D01*
X-19469Y42060D01*
X-19486Y42062D01*
D02*
G37*
G36*
X-32679D02*
X-32696Y42060D01*
X-32828Y42020D01*
X-32950Y41955D01*
X-33056Y41867D01*
X-33144Y41761D01*
X-33209Y41639D01*
X-33249Y41507D01*
X-33251Y41490D01*
X-32679D01*
Y42062D01*
D02*
G37*
G36*
X-32439D02*
Y41490D01*
X-31867D01*
X-31869Y41507D01*
X-31909Y41639D01*
X-31974Y41761D01*
X-32062Y41867D01*
X-32168Y41955D01*
X-32290Y42020D01*
X-32422Y42060D01*
X-32439Y42062D01*
D02*
G37*
G36*
X-29844D02*
X-29862Y42060D01*
X-29994Y42020D01*
X-30115Y41955D01*
X-30222Y41867D01*
X-30309Y41761D01*
X-30374Y41639D01*
X-30414Y41507D01*
X-30416Y41490D01*
X-29844D01*
Y42062D01*
D02*
G37*
G36*
X-22203Y42070D02*
Y41498D01*
X-21631D01*
X-21633Y41515D01*
X-21673Y41647D01*
X-21738Y41769D01*
X-21825Y41875D01*
X-21932Y41963D01*
X-22054Y42028D01*
X-22186Y42068D01*
X-22203Y42070D01*
D02*
G37*
G36*
X-12403D02*
X-12421Y42068D01*
X-12553Y42028D01*
X-12674Y41963D01*
X-12781Y41875D01*
X-12868Y41769D01*
X-12933Y41647D01*
X-12973Y41515D01*
X-12975Y41498D01*
X-12403D01*
Y42070D01*
D02*
G37*
G36*
X-12163D02*
Y41498D01*
X-11592D01*
X-11594Y41515D01*
X-11634Y41647D01*
X-11699Y41769D01*
X-11786Y41875D01*
X-11893Y41963D01*
X-12014Y42028D01*
X-12146Y42068D01*
X-12163Y42070D01*
D02*
G37*
G36*
X-9766Y42062D02*
X-9783Y42060D01*
X-9915Y42020D01*
X-10036Y41955D01*
X-10143Y41867D01*
X-10231Y41761D01*
X-10296Y41639D01*
X-10336Y41507D01*
X-10337Y41490D01*
X-9766D01*
Y42062D01*
D02*
G37*
G36*
X-9526D02*
Y41490D01*
X-8954D01*
X-8956Y41507D01*
X-8996Y41639D01*
X-9061Y41761D01*
X-9148Y41867D01*
X-9255Y41955D01*
X-9376Y42020D01*
X-9508Y42060D01*
X-9526Y42062D01*
D02*
G37*
G36*
X-22443Y42070D02*
X-22460Y42068D01*
X-22592Y42028D01*
X-22714Y41963D01*
X-22820Y41875D01*
X-22908Y41769D01*
X-22973Y41647D01*
X-23013Y41515D01*
X-23014Y41498D01*
X-22443D01*
Y42070D01*
D02*
G37*
G36*
X-8954Y41250D02*
X-9526D01*
Y40679D01*
X-9508Y40680D01*
X-9376Y40720D01*
X-9255Y40785D01*
X-9148Y40873D01*
X-9061Y40979D01*
X-8996Y41101D01*
X-8956Y41233D01*
X-8954Y41250D01*
D02*
G37*
G36*
X-22443Y41258D02*
X-23014D01*
X-23013Y41241D01*
X-22973Y41109D01*
X-22908Y40987D01*
X-22820Y40881D01*
X-22714Y40793D01*
X-22592Y40728D01*
X-22460Y40688D01*
X-22443Y40686D01*
Y41258D01*
D02*
G37*
G36*
X-21631D02*
X-22203D01*
Y40686D01*
X-22186Y40688D01*
X-22054Y40728D01*
X-21932Y40793D01*
X-21825Y40881D01*
X-21738Y40987D01*
X-21673Y41109D01*
X-21633Y41241D01*
X-21631Y41258D01*
D02*
G37*
G36*
X-19726Y41250D02*
X-20298D01*
X-20296Y41233D01*
X-20256Y41101D01*
X-20191Y40979D01*
X-20104Y40873D01*
X-19997Y40785D01*
X-19875Y40720D01*
X-19744Y40680D01*
X-19726Y40679D01*
Y41250D01*
D02*
G37*
G36*
X-18915D02*
X-19486D01*
Y40679D01*
X-19469Y40680D01*
X-19337Y40720D01*
X-19216Y40785D01*
X-19109Y40873D01*
X-19021Y40979D01*
X-18956Y41101D01*
X-18916Y41233D01*
X-18915Y41250D01*
D02*
G37*
G36*
X-9766D02*
X-10337D01*
X-10336Y41233D01*
X-10296Y41101D01*
X-10231Y40979D01*
X-10143Y40873D01*
X-10036Y40785D01*
X-9915Y40720D01*
X-9783Y40680D01*
X-9766Y40679D01*
Y41250D01*
D02*
G37*
G36*
X-39762Y42022D02*
Y41451D01*
X-39190D01*
X-39192Y41468D01*
X-39232Y41600D01*
X-39297Y41721D01*
X-39385Y41828D01*
X-39491Y41916D01*
X-39613Y41981D01*
X-39745Y42021D01*
X-39762Y42022D01*
D02*
G37*
G36*
X-42788Y42062D02*
X-42805Y42060D01*
X-42937Y42020D01*
X-43059Y41955D01*
X-43165Y41867D01*
X-43253Y41761D01*
X-43318Y41639D01*
X-43358Y41507D01*
X-43359Y41490D01*
X-42788D01*
Y42062D01*
D02*
G37*
G36*
X-42548D02*
Y41490D01*
X-41976D01*
X-41978Y41507D01*
X-42018Y41639D01*
X-42083Y41761D01*
X-42170Y41867D01*
X-42277Y41955D01*
X-42399Y42020D01*
X-42530Y42060D01*
X-42548Y42062D01*
D02*
G37*
G36*
X-12403Y41258D02*
X-12975D01*
X-12973Y41241D01*
X-12933Y41109D01*
X-12868Y40987D01*
X-12781Y40881D01*
X-12674Y40793D01*
X-12553Y40728D01*
X-12421Y40688D01*
X-12403Y40686D01*
Y41258D01*
D02*
G37*
G36*
X-11592D02*
X-12163D01*
Y40686D01*
X-12146Y40688D01*
X-12014Y40728D01*
X-11893Y40793D01*
X-11786Y40881D01*
X-11699Y40987D01*
X-11634Y41109D01*
X-11594Y41241D01*
X-11592Y41258D01*
D02*
G37*
G36*
X-40002Y42022D02*
X-40019Y42021D01*
X-40151Y41981D01*
X-40273Y41916D01*
X-40379Y41828D01*
X-40467Y41721D01*
X-40532Y41600D01*
X-40572Y41468D01*
X-40573Y41451D01*
X-40002D01*
Y42022D01*
D02*
G37*
G36*
X-11592Y37321D02*
X-12163D01*
Y36749D01*
X-12146Y36751D01*
X-12014Y36791D01*
X-11893Y36856D01*
X-11786Y36944D01*
X-11699Y37050D01*
X-11634Y37172D01*
X-11594Y37304D01*
X-11592Y37321D01*
D02*
G37*
G36*
X-40002Y38046D02*
X-40019Y38044D01*
X-40151Y38004D01*
X-40273Y37939D01*
X-40379Y37852D01*
X-40467Y37745D01*
X-40532Y37624D01*
X-40572Y37492D01*
X-40573Y37474D01*
X-40002D01*
Y38046D01*
D02*
G37*
G36*
X-39762D02*
Y37474D01*
X-39190D01*
X-39192Y37492D01*
X-39232Y37624D01*
X-39297Y37745D01*
X-39385Y37852D01*
X-39491Y37939D01*
X-39613Y38004D01*
X-39745Y38044D01*
X-39762Y38046D01*
D02*
G37*
G36*
X-19805Y37313D02*
X-20377D01*
X-20375Y37296D01*
X-20335Y37164D01*
X-20270Y37042D01*
X-20182Y36936D01*
X-20076Y36848D01*
X-19954Y36783D01*
X-19822Y36743D01*
X-19805Y36741D01*
Y37313D01*
D02*
G37*
G36*
X-18993D02*
X-19565D01*
Y36741D01*
X-19548Y36743D01*
X-19416Y36783D01*
X-19294Y36848D01*
X-19188Y36936D01*
X-19100Y37042D01*
X-19035Y37164D01*
X-18995Y37296D01*
X-18993Y37313D01*
D02*
G37*
G36*
X-12403Y37321D02*
X-12975D01*
X-12973Y37304D01*
X-12933Y37172D01*
X-12868Y37050D01*
X-12781Y36944D01*
X-12674Y36856D01*
X-12553Y36791D01*
X-12421Y36751D01*
X-12403Y36749D01*
Y37321D01*
D02*
G37*
G36*
X-32360Y38085D02*
Y37514D01*
X-31789D01*
X-31790Y37531D01*
X-31830Y37663D01*
X-31895Y37784D01*
X-31983Y37891D01*
X-32090Y37979D01*
X-32211Y38044D01*
X-32343Y38084D01*
X-32360Y38085D01*
D02*
G37*
G36*
X-29844D02*
X-29862Y38084D01*
X-29994Y38044D01*
X-30115Y37979D01*
X-30222Y37891D01*
X-30309Y37784D01*
X-30374Y37663D01*
X-30414Y37531D01*
X-30416Y37514D01*
X-29844D01*
Y38085D01*
D02*
G37*
G36*
X-29604D02*
Y37514D01*
X-29033D01*
X-29035Y37531D01*
X-29075Y37663D01*
X-29140Y37784D01*
X-29227Y37891D01*
X-29334Y37979D01*
X-29455Y38044D01*
X-29587Y38084D01*
X-29604Y38085D01*
D02*
G37*
G36*
X-42766Y38054D02*
X-42784Y38052D01*
X-42916Y38012D01*
X-43037Y37947D01*
X-43144Y37860D01*
X-43231Y37753D01*
X-43296Y37631D01*
X-43336Y37499D01*
X-43338Y37482D01*
X-42766D01*
Y38054D01*
D02*
G37*
G36*
X-42526D02*
Y37482D01*
X-41955D01*
X-41957Y37499D01*
X-41997Y37631D01*
X-42062Y37753D01*
X-42149Y37860D01*
X-42256Y37947D01*
X-42377Y38012D01*
X-42509Y38052D01*
X-42526Y38054D01*
D02*
G37*
G36*
X-32600Y38085D02*
X-32618Y38084D01*
X-32749Y38044D01*
X-32871Y37979D01*
X-32978Y37891D01*
X-33065Y37784D01*
X-33130Y37663D01*
X-33170Y37531D01*
X-33172Y37514D01*
X-32600D01*
Y38085D01*
D02*
G37*
G36*
X-41955Y37242D02*
X-42526D01*
Y36671D01*
X-42509Y36672D01*
X-42377Y36712D01*
X-42256Y36777D01*
X-42149Y36865D01*
X-42062Y36971D01*
X-41997Y37093D01*
X-41957Y37225D01*
X-41955Y37242D01*
D02*
G37*
G36*
X-32600Y37274D02*
X-33172D01*
X-33170Y37256D01*
X-33130Y37125D01*
X-33065Y37003D01*
X-32978Y36896D01*
X-32871Y36809D01*
X-32749Y36744D01*
X-32618Y36704D01*
X-32600Y36702D01*
Y37274D01*
D02*
G37*
G36*
X-31789D02*
X-32360D01*
Y36702D01*
X-32343Y36704D01*
X-32211Y36744D01*
X-32090Y36809D01*
X-31983Y36896D01*
X-31895Y37003D01*
X-31830Y37125D01*
X-31790Y37256D01*
X-31789Y37274D01*
D02*
G37*
G36*
X-40002Y37234D02*
X-40573D01*
X-40572Y37217D01*
X-40532Y37085D01*
X-40467Y36964D01*
X-40379Y36857D01*
X-40273Y36769D01*
X-40151Y36704D01*
X-40019Y36664D01*
X-40002Y36663D01*
Y37234D01*
D02*
G37*
G36*
X-39190D02*
X-39762D01*
Y36663D01*
X-39745Y36664D01*
X-39613Y36704D01*
X-39491Y36769D01*
X-39385Y36857D01*
X-39297Y36964D01*
X-39232Y37085D01*
X-39192Y37217D01*
X-39190Y37234D01*
D02*
G37*
G36*
X-42766Y37242D02*
X-43338D01*
X-43336Y37225D01*
X-43296Y37093D01*
X-43231Y36971D01*
X-43144Y36865D01*
X-43037Y36777D01*
X-42916Y36712D01*
X-42784Y36672D01*
X-42766Y36671D01*
Y37242D01*
D02*
G37*
G36*
X-8915Y37313D02*
X-9486D01*
Y36741D01*
X-9469Y36743D01*
X-9337Y36783D01*
X-9216Y36848D01*
X-9109Y36936D01*
X-9021Y37042D01*
X-8956Y37164D01*
X-8916Y37296D01*
X-8915Y37313D01*
D02*
G37*
G36*
X-22387Y37313D02*
X-22959D01*
X-22957Y37296D01*
X-22917Y37164D01*
X-22852Y37042D01*
X-22764Y36936D01*
X-22658Y36848D01*
X-22536Y36783D01*
X-22404Y36743D01*
X-22387Y36741D01*
Y37313D01*
D02*
G37*
G36*
X-21575D02*
X-22147D01*
Y36741D01*
X-22130Y36743D01*
X-21998Y36783D01*
X-21876Y36848D01*
X-21770Y36936D01*
X-21682Y37042D01*
X-21617Y37164D01*
X-21577Y37296D01*
X-21575Y37313D01*
D02*
G37*
G36*
X-29844Y37274D02*
X-30416D01*
X-30414Y37256D01*
X-30374Y37125D01*
X-30309Y37003D01*
X-30222Y36896D01*
X-30115Y36809D01*
X-29994Y36744D01*
X-29862Y36704D01*
X-29844Y36702D01*
Y37274D01*
D02*
G37*
G36*
X-29033D02*
X-29604D01*
Y36702D01*
X-29587Y36704D01*
X-29455Y36744D01*
X-29334Y36809D01*
X-29227Y36896D01*
X-29140Y37003D01*
X-29075Y37125D01*
X-29035Y37256D01*
X-29033Y37274D01*
D02*
G37*
G36*
X-9726Y37313D02*
X-10298D01*
X-10296Y37296D01*
X-10256Y37164D01*
X-10191Y37042D01*
X-10104Y36936D01*
X-9997Y36848D01*
X-9875Y36783D01*
X-9744Y36743D01*
X-9726Y36741D01*
Y37313D01*
D02*
G37*
G36*
X-29033Y39250D02*
X-29604D01*
Y38679D01*
X-29587Y38680D01*
X-29455Y38720D01*
X-29334Y38785D01*
X-29227Y38873D01*
X-29140Y38979D01*
X-29075Y39101D01*
X-29035Y39233D01*
X-29033Y39250D01*
D02*
G37*
G36*
X-19726D02*
X-20298D01*
X-20296Y39233D01*
X-20256Y39101D01*
X-20191Y38979D01*
X-20104Y38873D01*
X-19997Y38785D01*
X-19875Y38720D01*
X-19744Y38680D01*
X-19726Y38679D01*
Y39250D01*
D02*
G37*
G36*
X-18915D02*
X-19486D01*
Y38679D01*
X-19469Y38680D01*
X-19337Y38720D01*
X-19216Y38785D01*
X-19109Y38873D01*
X-19021Y38979D01*
X-18956Y39101D01*
X-18916Y39233D01*
X-18915Y39250D01*
D02*
G37*
G36*
X-32679D02*
X-33251D01*
X-33249Y39233D01*
X-33209Y39101D01*
X-33144Y38979D01*
X-33056Y38873D01*
X-32950Y38785D01*
X-32828Y38720D01*
X-32696Y38680D01*
X-32679Y38679D01*
Y39250D01*
D02*
G37*
G36*
X-31867D02*
X-32439D01*
Y38679D01*
X-32422Y38680D01*
X-32290Y38720D01*
X-32168Y38785D01*
X-32062Y38873D01*
X-31974Y38979D01*
X-31909Y39101D01*
X-31869Y39233D01*
X-31867Y39250D01*
D02*
G37*
G36*
X-29844D02*
X-30416D01*
X-30414Y39233D01*
X-30374Y39101D01*
X-30309Y38979D01*
X-30222Y38873D01*
X-30115Y38785D01*
X-29994Y38720D01*
X-29862Y38680D01*
X-29844Y38679D01*
Y39250D01*
D02*
G37*
G36*
X-21631Y39258D02*
X-22203D01*
Y38686D01*
X-22186Y38688D01*
X-22054Y38728D01*
X-21932Y38793D01*
X-21825Y38881D01*
X-21738Y38987D01*
X-21673Y39109D01*
X-21633Y39241D01*
X-21631Y39258D01*
D02*
G37*
G36*
X-12403D02*
X-12975D01*
X-12973Y39241D01*
X-12933Y39109D01*
X-12868Y38987D01*
X-12781Y38881D01*
X-12674Y38793D01*
X-12553Y38728D01*
X-12421Y38688D01*
X-12403Y38686D01*
Y39258D01*
D02*
G37*
G36*
X-11592D02*
X-12163D01*
Y38686D01*
X-12146Y38688D01*
X-12014Y38728D01*
X-11893Y38793D01*
X-11786Y38881D01*
X-11699Y38987D01*
X-11634Y39109D01*
X-11594Y39241D01*
X-11592Y39258D01*
D02*
G37*
G36*
X-9766Y39250D02*
X-10337D01*
X-10336Y39233D01*
X-10296Y39101D01*
X-10231Y38979D01*
X-10143Y38873D01*
X-10036Y38785D01*
X-9915Y38720D01*
X-9783Y38680D01*
X-9766Y38679D01*
Y39250D01*
D02*
G37*
G36*
X-8954D02*
X-9526D01*
Y38679D01*
X-9508Y38680D01*
X-9376Y38720D01*
X-9255Y38785D01*
X-9148Y38873D01*
X-9061Y38979D01*
X-8996Y39101D01*
X-8956Y39233D01*
X-8954Y39250D01*
D02*
G37*
G36*
X-22443Y39258D02*
X-23014D01*
X-23013Y39241D01*
X-22973Y39109D01*
X-22908Y38987D01*
X-22820Y38881D01*
X-22714Y38793D01*
X-22592Y38728D01*
X-22460Y38688D01*
X-22443Y38686D01*
Y39258D01*
D02*
G37*
G36*
X-22147Y38125D02*
Y37553D01*
X-21575D01*
X-21577Y37570D01*
X-21617Y37702D01*
X-21682Y37824D01*
X-21770Y37930D01*
X-21876Y38018D01*
X-21998Y38083D01*
X-22130Y38123D01*
X-22147Y38125D01*
D02*
G37*
G36*
X-19805D02*
X-19822Y38123D01*
X-19954Y38083D01*
X-20076Y38018D01*
X-20182Y37930D01*
X-20270Y37824D01*
X-20335Y37702D01*
X-20375Y37570D01*
X-20377Y37553D01*
X-19805D01*
Y38125D01*
D02*
G37*
G36*
X-19565D02*
Y37553D01*
X-18993D01*
X-18995Y37570D01*
X-19035Y37702D01*
X-19100Y37824D01*
X-19188Y37930D01*
X-19294Y38018D01*
X-19416Y38083D01*
X-19548Y38123D01*
X-19565Y38125D01*
D02*
G37*
G36*
X-9726Y38125D02*
X-9744Y38123D01*
X-9875Y38083D01*
X-9997Y38018D01*
X-10104Y37930D01*
X-10191Y37824D01*
X-10256Y37702D01*
X-10296Y37570D01*
X-10298Y37553D01*
X-9726D01*
Y38125D01*
D02*
G37*
G36*
X-9486D02*
Y37553D01*
X-8915D01*
X-8916Y37570D01*
X-8956Y37702D01*
X-9021Y37824D01*
X-9109Y37930D01*
X-9216Y38018D01*
X-9337Y38083D01*
X-9469Y38123D01*
X-9486Y38125D01*
D02*
G37*
G36*
X-22387Y38125D02*
X-22404Y38123D01*
X-22536Y38083D01*
X-22658Y38018D01*
X-22764Y37930D01*
X-22852Y37824D01*
X-22917Y37702D01*
X-22957Y37570D01*
X-22959Y37553D01*
X-22387D01*
Y38125D01*
D02*
G37*
G36*
X-39190Y39211D02*
X-39762D01*
Y38639D01*
X-39745Y38641D01*
X-39613Y38681D01*
X-39491Y38746D01*
X-39385Y38833D01*
X-39297Y38940D01*
X-39232Y39062D01*
X-39192Y39193D01*
X-39190Y39211D01*
D02*
G37*
G36*
X-42788Y39250D02*
X-43359D01*
X-43358Y39233D01*
X-43318Y39101D01*
X-43253Y38979D01*
X-43165Y38873D01*
X-43059Y38785D01*
X-42937Y38720D01*
X-42805Y38680D01*
X-42788Y38679D01*
Y39250D01*
D02*
G37*
G36*
X-41976D02*
X-42548D01*
Y38679D01*
X-42530Y38680D01*
X-42399Y38720D01*
X-42277Y38785D01*
X-42170Y38873D01*
X-42083Y38979D01*
X-42018Y39101D01*
X-41978Y39233D01*
X-41976Y39250D01*
D02*
G37*
G36*
X-12403Y38133D02*
X-12421Y38131D01*
X-12553Y38091D01*
X-12674Y38026D01*
X-12781Y37938D01*
X-12868Y37832D01*
X-12933Y37710D01*
X-12973Y37578D01*
X-12975Y37561D01*
X-12403D01*
Y38133D01*
D02*
G37*
G36*
X-12163D02*
Y37561D01*
X-11592D01*
X-11594Y37578D01*
X-11634Y37710D01*
X-11699Y37832D01*
X-11786Y37938D01*
X-11893Y38026D01*
X-12014Y38091D01*
X-12146Y38131D01*
X-12163Y38133D01*
D02*
G37*
G36*
X-40002Y39211D02*
X-40573D01*
X-40572Y39193D01*
X-40532Y39062D01*
X-40467Y38940D01*
X-40379Y38833D01*
X-40273Y38746D01*
X-40151Y38681D01*
X-40019Y38641D01*
X-40002Y38639D01*
Y39211D01*
D02*
G37*
%LPD*%
G54D10*
X-9606Y37433D02*
D03*
Y35433D02*
D03*
X-7306D02*
D03*
Y37433D02*
D03*
X-29724Y41370D02*
D03*
Y39370D02*
D03*
X-27598Y41370D02*
D03*
Y39370D02*
D03*
X-9646Y41370D02*
D03*
Y39370D02*
D03*
X-7346D02*
D03*
Y41370D02*
D03*
X-29724Y37394D02*
D03*
Y35394D02*
D03*
X-27559Y37394D02*
D03*
Y35394D02*
D03*
X-12283Y35441D02*
D03*
Y37441D02*
D03*
X-14583D02*
D03*
Y35441D02*
D03*
X-32480Y37394D02*
D03*
Y35394D02*
D03*
X-34680Y37394D02*
D03*
Y35394D02*
D03*
X-12283Y39378D02*
D03*
Y41378D02*
D03*
X-14583D02*
D03*
Y39378D02*
D03*
X-32559Y41370D02*
D03*
Y39370D02*
D03*
X-34685Y41370D02*
D03*
Y39370D02*
D03*
X-19685Y37433D02*
D03*
Y35433D02*
D03*
X-17402Y35441D02*
D03*
Y37441D02*
D03*
X-19606Y41370D02*
D03*
Y39370D02*
D03*
X-17480Y41370D02*
D03*
Y39370D02*
D03*
X-22267Y35433D02*
D03*
Y37433D02*
D03*
X-24528Y37433D02*
D03*
Y35433D02*
D03*
X-22323Y39378D02*
D03*
Y41378D02*
D03*
X-24567Y41370D02*
D03*
Y39370D02*
D03*
X-24646Y9181D02*
D03*
Y11181D02*
D03*
X-26850D02*
D03*
Y9181D02*
D03*
X-39882Y41331D02*
D03*
Y39331D02*
D03*
X-37682Y41331D02*
D03*
Y39331D02*
D03*
X-42668Y41370D02*
D03*
Y39370D02*
D03*
X-44868Y41370D02*
D03*
Y39370D02*
D03*
X-39882Y37354D02*
D03*
Y35354D02*
D03*
X-37682Y37354D02*
D03*
Y35354D02*
D03*
X-42646Y35362D02*
D03*
Y37362D02*
D03*
X-44946Y37354D02*
D03*
Y35354D02*
D03*
X-43780Y11488D02*
D03*
G54D11*
X-37717Y15118D02*
D03*
X-44409D02*
D03*
X-37717Y30866D02*
D03*
X-44409D02*
D03*
X-27585Y15157D02*
D03*
X-34278D02*
D03*
X-27585Y30906D02*
D03*
X-34278D02*
D03*
X-7323Y15157D02*
D03*
X-14016D02*
D03*
X-7323Y30906D02*
D03*
X-14016D02*
D03*
X-17454Y15157D02*
D03*
X-24147D02*
D03*
X-17454Y30906D02*
D03*
X-24147D02*
D03*
G54D12*
X-44882Y44055D02*
D03*
X-7047D02*
D03*
X-32008Y10354D02*
D03*
X-19134D02*
D03*
G54D13*
X-43780Y9488D02*
D03*
G54D14*
X-31391Y32795D02*
D03*
X-30591D02*
D03*
X-24843Y13228D02*
D03*
X-25643D02*
D03*
X-41220Y33780D02*
D03*
X-40420D02*
D03*
X-41233Y32874D02*
D03*
X-40433D02*
D03*
X-31391Y33740D02*
D03*
X-30591D02*
D03*
X-20512D02*
D03*
X-19712D02*
D03*
X-20485Y32795D02*
D03*
X-19685D02*
D03*
X-10551Y33701D02*
D03*
X-9751D02*
D03*
X-10564Y32677D02*
D03*
X-9764D02*
D03*
G54D15*
X-36378Y10721D02*
D03*
Y9921D02*
D03*
X-37638Y10709D02*
D03*
Y9909D02*
D03*
G54D16*
X-12402Y33701D02*
X-10551D01*
X-24843Y13228D02*
X-24685Y13071D01*
X-36378Y10721D02*
Y13228D01*
X-37625Y9921D02*
X-36378D01*
X-39646Y30866D02*
X-37717D01*
X-41233Y32454D02*
X-39646Y30866D01*
X-41233Y32454D02*
Y32913D01*
X-40433D02*
Y33767D01*
X-40420Y33780D01*
X-42953D02*
X-41220D01*
X-30315Y30906D02*
X-27585D01*
X-31391Y31981D02*
X-30315Y30906D01*
X-31391Y31981D02*
Y32874D01*
X-30591D02*
Y33740D01*
X-19567Y30906D02*
X-17454D01*
X-20485Y31824D02*
X-19567Y30906D01*
X-20485Y31824D02*
Y32795D01*
X-19685D02*
Y33713D01*
X-19712Y33740D02*
X-19685Y33713D01*
X-9751Y32690D02*
Y33701D01*
X-9764Y32677D02*
X-9751Y32690D01*
X-9764Y30906D02*
X-7323D01*
X-10564Y31706D02*
X-9764Y30906D01*
X-10564Y31706D02*
Y32677D01*
X-22953Y33740D02*
X-20512D01*
X-17454Y35388D02*
X-17402Y35441D01*
X-32598Y33740D02*
X-31391D01*
G54D17*
X-14016Y32087D02*
X-12402Y33701D01*
X-24685Y11220D02*
X-24646Y11181D01*
X-24685Y11220D02*
Y13071D01*
X-26548Y14134D02*
X-18478D01*
X-26548D02*
X-25643Y13228D01*
X-26850Y14134D02*
X-26548D01*
X-26850Y9181D02*
Y11181D01*
X-24646Y9181D02*
Y11181D01*
X-27585Y15157D02*
X-26850Y14423D01*
X-18478Y14134D02*
X-17454Y15157D01*
X-18478Y14134D02*
X-8346D01*
X-7323Y15157D01*
X-37717Y15118D02*
X-36732Y14134D01*
X-26850Y11181D02*
Y14134D01*
Y14423D01*
X-41134Y14134D02*
X-36732D01*
X-43780Y11488D02*
X-41134Y14134D01*
X-35472D02*
X-26850D01*
X-36378Y13228D02*
X-35472Y14134D01*
X-36732D02*
X-35472D01*
X-44409Y32323D02*
X-42953Y33780D01*
X-44409Y30866D02*
Y32323D01*
X-34278Y32060D02*
X-32598Y33740D01*
X-34278Y30906D02*
Y32060D01*
X-14016Y30906D02*
Y32087D01*
X-37682Y35354D02*
Y37354D01*
Y39331D01*
X-37682Y39331D01*
Y41331D01*
X-44868Y39370D02*
Y41370D01*
Y37433D02*
Y39370D01*
X-44946Y37354D02*
X-44868Y37433D01*
X-44946Y35354D02*
Y37354D01*
X-42646Y41349D02*
X-39900D01*
X-39890Y37362D02*
X-39882Y37354D01*
X-39900Y37362D02*
X-39890D01*
X-39900Y39331D02*
X-39882D01*
X-42668Y39370D02*
X-42646Y39349D01*
Y37362D02*
Y39349D01*
Y35362D02*
Y37362D01*
Y39349D02*
Y41349D01*
X-39900Y37362D02*
Y39331D01*
Y41349D01*
Y37354D02*
X-39882D01*
X-42639Y35354D02*
X-39882D01*
X-39900Y35372D02*
Y37354D01*
X-27559Y35394D02*
Y37394D01*
Y41331D01*
X-34685Y39370D02*
Y41370D01*
X-29724Y35394D02*
Y37394D01*
Y39370D01*
Y41370D01*
X-32559D02*
X-29724D01*
X-32559Y39370D02*
Y41370D01*
Y37472D02*
Y39370D01*
X-32598Y33740D02*
X-32165Y34173D01*
X-32480Y35394D02*
Y37394D01*
Y35394D02*
X-29724D01*
X-24147Y30906D02*
Y32546D01*
X-22953Y33740D01*
X-17454Y30906D02*
Y35388D01*
X-17402Y35441D02*
Y37441D01*
X-17480Y41370D02*
X-17402Y41291D01*
X-24528Y35433D02*
Y37433D01*
X-17402Y37441D02*
Y41291D01*
X-24528Y34449D02*
Y35433D01*
X-25512Y33465D02*
X-24528Y34449D01*
X-19764Y28189D02*
X-17454Y30499D01*
Y30906D01*
X-22323Y41378D02*
X-19614D01*
X-19606Y41370D01*
X-19685Y35433D02*
X-19606Y35512D01*
X-22267Y35433D02*
X-19685D01*
X-22267D02*
Y37433D01*
Y41243D01*
X-22323Y41299D02*
X-22267Y41243D01*
X-19606Y35512D02*
Y39370D01*
Y41370D01*
X-22953Y33740D02*
X-22267Y34426D01*
Y35433D01*
X-24567Y37472D02*
X-24528Y37433D01*
X-24567Y37472D02*
Y39370D01*
Y41370D01*
X-37717Y30866D02*
Y35320D01*
X-37682Y35354D02*
X-37638Y35310D01*
X-42953Y33780D02*
Y35056D01*
X-42646Y35362D01*
X-44946Y33557D02*
Y35354D01*
X-45472Y33031D02*
X-44946Y33557D01*
X-45472Y30315D02*
Y33031D01*
Y30315D02*
X-43661Y28504D01*
X-39646D01*
X-37717Y30433D01*
Y30866D01*
X-27585Y30906D02*
Y35367D01*
X-34680Y34532D02*
Y35394D01*
X-35551Y33661D02*
X-34680Y34532D01*
X-35551Y29843D02*
Y33661D01*
Y29843D02*
X-34252Y28543D01*
X-29646D01*
X-27585Y30604D01*
Y30906D01*
X-34685Y35398D02*
Y39370D01*
X-25512Y29606D02*
Y33465D01*
Y29606D02*
X-24094Y28189D01*
X-19764D01*
X-32165Y34173D02*
Y35079D01*
X-32480Y35394D02*
X-32165Y35079D01*
X-7323Y30906D02*
Y35417D01*
X-7306Y35433D02*
Y37433D01*
Y41488D01*
X-7346Y41370D02*
X-7306Y41331D01*
X-14583Y39378D02*
Y41378D01*
Y37441D02*
Y39378D01*
Y35441D02*
Y37441D01*
Y33369D02*
Y35441D01*
X-15472Y32480D02*
X-14583Y33369D01*
X-15472Y30433D02*
Y32480D01*
Y30433D02*
X-13465Y28425D01*
X-8701D01*
X-7323Y29803D01*
Y30906D01*
X-12283Y37441D02*
Y39378D01*
Y35441D02*
Y37441D01*
Y35441D02*
X-12276Y35433D01*
X-9606D01*
Y37433D01*
X-12244Y41378D02*
X-9654D01*
X-12283Y39378D02*
Y41378D01*
X-9606Y37433D02*
Y41331D01*
X-9654Y41378D02*
X-9646Y41370D01*
X-9606Y41331D01*
M02*
