G04 Layer_Color=65535*
%FSLAX24Y24*%
%MOIN*%
G70*
G01*
G75*
%ADD18C,0.0100*%
%ADD19C,0.0049*%
%ADD20C,0.0039*%
%ADD21C,0.0079*%
G54D18*
X-44180Y10488D02*
G03*
X-44180Y8488I0J-1000D01*
G01*
Y12488D02*
G03*
X-44180Y10488I0J-1000D01*
G01*
X-8606Y34683D02*
X-8506D01*
X-8606Y38183D02*
X-8506D01*
Y38083D02*
Y38183D01*
Y34683D02*
Y38083D01*
X-10606Y38183D02*
X-8606D01*
X-10606Y34683D02*
Y38183D01*
Y34683D02*
X-8606D01*
X-8406Y38183D02*
X-8306D01*
X-8406Y34683D02*
X-8306D01*
X-8406D02*
Y34783D01*
Y38183D01*
X-8306Y34683D02*
X-6306D01*
Y38183D01*
X-8306D02*
X-6306D01*
X-28724Y38620D02*
X-28624D01*
X-28724Y42120D02*
X-28624D01*
Y42020D02*
Y42120D01*
Y38620D02*
Y42020D01*
X-30724Y42120D02*
X-28724D01*
X-30724Y38620D02*
Y42120D01*
Y38620D02*
X-28724D01*
X-26598D02*
X-26498D01*
X-26598Y42120D02*
X-26498D01*
Y42020D02*
Y42120D01*
Y38620D02*
Y42020D01*
X-28598Y42120D02*
X-26598D01*
X-28598Y38620D02*
Y42120D01*
Y38620D02*
X-26598D01*
X-8646D02*
X-8546D01*
X-8646Y42120D02*
X-8546D01*
Y42020D02*
Y42120D01*
Y38620D02*
Y42020D01*
X-10646Y42120D02*
X-8646D01*
X-10646Y38620D02*
Y42120D01*
Y38620D02*
X-8646D01*
X-8446Y42120D02*
X-8346D01*
X-8446Y38620D02*
X-8346D01*
X-8446D02*
Y38720D01*
Y42120D01*
X-8346Y38620D02*
X-6346D01*
Y42120D01*
X-8346D02*
X-6346D01*
X-28724Y34644D02*
X-28624D01*
X-28724Y38144D02*
X-28624D01*
Y38044D02*
Y38144D01*
Y34644D02*
Y38044D01*
X-30724Y38144D02*
X-28724D01*
X-30724Y34644D02*
Y38144D01*
Y34644D02*
X-28724D01*
X-26559D02*
X-26459D01*
X-26559Y38144D02*
X-26459D01*
Y38044D02*
Y38144D01*
Y34644D02*
Y38044D01*
X-28559Y38144D02*
X-26559D01*
X-28559Y34644D02*
Y38144D01*
Y34644D02*
X-26559D01*
X-13383Y38191D02*
X-13283D01*
X-13383Y34691D02*
X-13283D01*
X-13383D02*
Y34791D01*
Y38191D01*
X-13283Y34691D02*
X-11283D01*
Y38191D01*
X-13283D02*
X-11283D01*
X-13583Y34691D02*
X-13483D01*
X-13583Y38191D02*
X-13483D01*
Y38091D02*
Y38191D01*
Y34691D02*
Y38091D01*
X-15583Y38191D02*
X-13583D01*
X-15583Y34691D02*
Y38191D01*
Y34691D02*
X-13583D01*
X-31480Y34644D02*
X-31380D01*
X-31480Y38144D02*
X-31380D01*
Y38044D02*
Y38144D01*
Y34644D02*
Y38044D01*
X-33480Y38144D02*
X-31480D01*
X-33480Y34644D02*
Y38144D01*
Y34644D02*
X-31480D01*
X-33680D02*
X-33580D01*
X-33680Y38144D02*
X-33580D01*
Y38044D02*
Y38144D01*
Y34644D02*
Y38044D01*
X-35680Y38144D02*
X-33680D01*
X-35680Y34644D02*
Y38144D01*
Y34644D02*
X-33680D01*
X-13383Y42128D02*
X-13283D01*
X-13383Y38628D02*
X-13283D01*
X-13383D02*
Y38728D01*
Y42128D01*
X-13283Y38628D02*
X-11283D01*
Y42128D01*
X-13283D02*
X-11283D01*
X-13583Y38628D02*
X-13483D01*
X-13583Y42128D02*
X-13483D01*
Y42028D02*
Y42128D01*
Y38628D02*
Y42028D01*
X-15583Y42128D02*
X-13583D01*
X-15583Y38628D02*
Y42128D01*
Y38628D02*
X-13583D01*
X-31559Y38620D02*
X-31459D01*
X-31559Y42120D02*
X-31459D01*
Y42020D02*
Y42120D01*
Y38620D02*
Y42020D01*
X-33559Y42120D02*
X-31559D01*
X-33559Y38620D02*
Y42120D01*
Y38620D02*
X-31559D01*
X-33685D02*
X-33585D01*
X-33685Y42120D02*
X-33585D01*
Y42020D02*
Y42120D01*
Y38620D02*
Y42020D01*
X-35685Y42120D02*
X-33685D01*
X-35685Y38620D02*
Y42120D01*
Y38620D02*
X-33685D01*
X-18685Y34683D02*
X-18585D01*
X-18685Y38183D02*
X-18585D01*
Y38083D02*
Y38183D01*
Y34683D02*
Y38083D01*
X-20685Y38183D02*
X-18685D01*
X-20685Y34683D02*
Y38183D01*
Y34683D02*
X-18685D01*
X-18502Y38191D02*
X-18402D01*
X-18502Y34691D02*
X-18402D01*
X-18502D02*
Y34791D01*
Y38191D01*
X-18402Y34691D02*
X-16402D01*
Y38191D01*
X-18402D02*
X-16402D01*
X-18606Y38620D02*
X-18506D01*
X-18606Y42120D02*
X-18506D01*
Y42020D02*
Y42120D01*
Y38620D02*
Y42020D01*
X-20606Y42120D02*
X-18606D01*
X-20606Y38620D02*
Y42120D01*
Y38620D02*
X-18606D01*
X-16480D02*
X-16380D01*
X-16480Y42120D02*
X-16380D01*
Y42020D02*
Y42120D01*
Y38620D02*
Y42020D01*
X-18480Y42120D02*
X-16480D01*
X-18480Y38620D02*
Y42120D01*
Y38620D02*
X-16480D01*
X-23367Y38183D02*
X-23267D01*
X-23367Y34683D02*
X-23267D01*
X-23367D02*
Y34783D01*
Y38183D01*
X-23267Y34683D02*
X-21267D01*
Y38183D01*
X-23267D02*
X-21267D01*
X-23528Y34683D02*
X-23428D01*
X-23528Y38183D02*
X-23428D01*
Y38083D02*
Y38183D01*
Y34683D02*
Y38083D01*
X-25528Y38183D02*
X-23528D01*
X-25528Y34683D02*
Y38183D01*
Y34683D02*
X-23528D01*
X-23423Y42128D02*
X-23323D01*
X-23423Y38628D02*
X-23323D01*
X-23423D02*
Y38728D01*
Y42128D01*
X-23323Y38628D02*
X-21323D01*
Y42128D01*
X-23323D02*
X-21323D01*
X-23567Y38620D02*
X-23467D01*
X-23567Y42120D02*
X-23467D01*
Y42020D02*
Y42120D01*
Y38620D02*
Y42020D01*
X-25567Y42120D02*
X-23567D01*
X-25567Y38620D02*
Y42120D01*
Y38620D02*
X-23567D01*
X-25746Y11931D02*
X-25646D01*
X-25746Y8431D02*
X-25646D01*
X-25746D02*
Y8531D01*
Y11931D01*
X-25646Y8431D02*
X-23646D01*
Y11931D01*
X-25646D02*
X-23646D01*
X-25850Y8431D02*
X-25750D01*
X-25850Y11931D02*
X-25750D01*
Y11831D02*
Y11931D01*
Y8431D02*
Y11831D01*
X-27850Y11931D02*
X-25850D01*
X-27850Y8431D02*
Y11931D01*
Y8431D02*
X-25850D01*
X-38882Y38581D02*
X-38782D01*
X-38882Y42081D02*
X-38782D01*
Y41981D02*
Y42081D01*
Y38581D02*
Y41981D01*
X-40882Y42081D02*
X-38882D01*
X-40882Y38581D02*
Y42081D01*
Y38581D02*
X-38882D01*
X-36682D02*
X-36582D01*
X-36682Y42081D02*
X-36582D01*
Y41981D02*
Y42081D01*
Y38581D02*
Y41981D01*
X-38682Y42081D02*
X-36682D01*
X-38682Y38581D02*
Y42081D01*
Y38581D02*
X-36682D01*
X-41668Y38620D02*
X-41568D01*
X-41668Y42120D02*
X-41568D01*
Y42020D02*
Y42120D01*
Y38620D02*
Y42020D01*
X-43668Y42120D02*
X-41668D01*
X-43668Y38620D02*
Y42120D01*
Y38620D02*
X-41668D01*
X-43868D02*
X-43768D01*
X-43868Y42120D02*
X-43768D01*
Y42020D02*
Y42120D01*
Y38620D02*
Y42020D01*
X-45868Y42120D02*
X-43868D01*
X-45868Y38620D02*
Y42120D01*
Y38620D02*
X-43868D01*
X-38882Y34604D02*
X-38782D01*
X-38882Y38104D02*
X-38782D01*
Y38004D02*
Y38104D01*
Y34604D02*
Y38004D01*
X-40882Y38104D02*
X-38882D01*
X-40882Y34604D02*
Y38104D01*
Y34604D02*
X-38882D01*
X-36682D02*
X-36582D01*
X-36682Y38104D02*
X-36582D01*
Y38004D02*
Y38104D01*
Y34604D02*
Y38004D01*
X-38682Y38104D02*
X-36682D01*
X-38682Y34604D02*
Y38104D01*
Y34604D02*
X-36682D01*
X-43746Y38112D02*
X-43646D01*
X-43746Y34612D02*
X-43646D01*
X-43746D02*
Y34712D01*
Y38112D01*
X-43646Y34612D02*
X-41646D01*
Y38112D01*
X-43646D02*
X-41646D01*
X-43946Y34604D02*
X-43846D01*
X-43946Y38104D02*
X-43846D01*
Y38004D02*
Y38104D01*
Y34604D02*
Y38004D01*
X-45946Y38104D02*
X-43946D01*
X-45946Y34604D02*
Y38104D01*
Y34604D02*
X-43946D01*
X-45480Y12888D02*
X-42080D01*
Y8088D02*
Y12888D01*
X-45480Y8088D02*
Y12888D01*
Y8088D02*
X-42080D01*
X-28986Y8425D02*
Y8625D01*
Y8525D01*
X-28386D01*
Y8425D01*
Y8625D01*
Y8925D02*
X-28786D01*
Y9225D01*
X-28686Y9325D01*
X-28386D01*
X-28186Y9525D02*
X-28786D01*
Y9825D01*
X-28686Y9925D01*
X-28486D01*
X-28386Y9825D01*
Y9525D01*
X-28786Y10125D02*
X-28486D01*
X-28386Y10225D01*
Y10525D01*
X-28786D01*
X-28886Y10824D02*
X-28786D01*
Y10724D01*
Y10924D01*
Y10824D01*
X-28486D01*
X-28386Y10924D01*
X-28286Y11224D02*
Y11624D01*
X-28386Y12224D02*
Y11824D01*
X-28786Y12224D01*
X-28886D01*
X-28986Y12124D01*
Y11924D01*
X-28886Y11824D01*
X-28386Y12724D02*
X-28986D01*
X-28686Y12424D01*
Y12824D01*
X-28986Y13024D02*
X-28586D01*
X-28386Y13224D01*
X-28586Y13424D01*
X-28986D01*
X-28686Y13624D02*
Y14023D01*
X-28886Y13823D02*
X-28486D01*
X-23474Y8228D02*
Y8428D01*
Y8328D01*
X-22874D01*
Y8228D01*
Y8428D01*
Y8728D02*
X-23274D01*
Y9028D01*
X-23174Y9128D01*
X-22874D01*
X-22674Y9328D02*
X-23274D01*
Y9628D01*
X-23174Y9728D01*
X-22974D01*
X-22874Y9628D01*
Y9328D01*
X-23274Y9928D02*
X-22974D01*
X-22874Y10028D01*
Y10328D01*
X-23274D01*
X-23374Y10628D02*
X-23274D01*
Y10528D01*
Y10728D01*
Y10628D01*
X-22974D01*
X-22874Y10728D01*
X-22774Y11027D02*
Y11427D01*
X-22874Y12027D02*
Y11627D01*
X-23274Y12027D01*
X-23374D01*
X-23474Y11927D01*
Y11727D01*
X-23374Y11627D01*
X-22874Y12527D02*
X-23474D01*
X-23174Y12227D01*
Y12627D01*
X-23474Y12827D02*
X-23074D01*
X-22874Y13027D01*
X-23074Y13227D01*
X-23474D01*
X-23174Y13427D02*
Y13827D01*
X-45000Y42547D02*
X-44600D01*
X-44800Y42747D02*
Y42347D01*
X-37874Y42547D02*
X-37474D01*
X-37674Y42747D02*
Y42347D01*
X-34764Y42547D02*
X-34364D01*
X-34564Y42747D02*
Y42347D01*
X-27795Y42547D02*
X-27395D01*
X-27595Y42747D02*
Y42347D01*
X-24764Y42547D02*
X-24364D01*
X-24564Y42747D02*
Y42347D01*
X-17638Y42547D02*
X-17238D01*
X-17438Y42747D02*
Y42347D01*
X-14646Y42547D02*
X-14246D01*
X-14446Y42747D02*
Y42347D01*
X-7520Y42547D02*
X-7120D01*
X-7320Y42747D02*
Y42347D01*
X-42953Y42590D02*
X-42553D01*
X-40000D02*
X-39600D01*
X-32835D02*
X-32435D01*
X-29803D02*
X-29403D01*
X-22598D02*
X-22199D01*
X-19646D02*
X-19246D01*
X-12323D02*
X-11923D01*
X-9882D02*
X-9482D01*
X-42677Y26024D02*
Y26623D01*
X-42377D01*
X-42277Y26523D01*
Y26324D01*
X-42377Y26224D01*
X-42677D01*
X-42477D02*
X-42277Y26024D01*
X-41777D02*
X-41977D01*
X-42077Y26124D01*
Y26324D01*
X-41977Y26423D01*
X-41777D01*
X-41677Y26324D01*
Y26224D01*
X-42077D01*
X-41278Y25824D02*
X-41178D01*
X-41078Y25924D01*
Y26423D01*
X-41378D01*
X-41478Y26324D01*
Y26124D01*
X-41378Y26024D01*
X-41078D01*
X-40878D02*
X-40678D01*
X-40778D01*
Y26623D01*
X-40878Y26523D01*
X-31339Y26024D02*
Y26623D01*
X-31039D01*
X-30939Y26523D01*
Y26324D01*
X-31039Y26224D01*
X-31339D01*
X-31139D02*
X-30939Y26024D01*
X-30439D02*
X-30639D01*
X-30739Y26124D01*
Y26324D01*
X-30639Y26423D01*
X-30439D01*
X-30339Y26324D01*
Y26224D01*
X-30739D01*
X-29939Y25824D02*
X-29839D01*
X-29739Y25924D01*
Y26423D01*
X-30039D01*
X-30139Y26324D01*
Y26124D01*
X-30039Y26024D01*
X-29739D01*
X-29139D02*
X-29539D01*
X-29139Y26423D01*
Y26523D01*
X-29239Y26623D01*
X-29439D01*
X-29539Y26523D01*
X-21496Y26024D02*
Y26623D01*
X-21196D01*
X-21096Y26523D01*
Y26324D01*
X-21196Y26224D01*
X-21496D01*
X-21296D02*
X-21096Y26024D01*
X-20596D02*
X-20796D01*
X-20896Y26124D01*
Y26324D01*
X-20796Y26423D01*
X-20596D01*
X-20496Y26324D01*
Y26224D01*
X-20896D01*
X-20097Y25824D02*
X-19997D01*
X-19897Y25924D01*
Y26423D01*
X-20196D01*
X-20296Y26324D01*
Y26124D01*
X-20196Y26024D01*
X-19897D01*
X-19697Y26523D02*
X-19597Y26623D01*
X-19397D01*
X-19297Y26523D01*
Y26423D01*
X-19397Y26324D01*
X-19497D01*
X-19397D01*
X-19297Y26224D01*
Y26124D01*
X-19397Y26024D01*
X-19597D01*
X-19697Y26124D01*
X-11339Y26024D02*
Y26623D01*
X-11039D01*
X-10939Y26523D01*
Y26324D01*
X-11039Y26224D01*
X-11339D01*
X-11139D02*
X-10939Y26024D01*
X-10439D02*
X-10639D01*
X-10739Y26124D01*
Y26324D01*
X-10639Y26423D01*
X-10439D01*
X-10339Y26324D01*
Y26224D01*
X-10739D01*
X-9939Y25824D02*
X-9839D01*
X-9739Y25924D01*
Y26423D01*
X-10039D01*
X-10139Y26324D01*
Y26124D01*
X-10039Y26024D01*
X-9739D01*
X-9239D02*
Y26623D01*
X-9539Y26324D01*
X-9139D01*
G54D19*
X-37567Y14318D02*
X-36167Y15718D01*
Y15868D01*
Y14318D02*
Y31568D01*
X-45367D02*
X-36167D01*
X-45367Y14318D02*
Y31568D01*
Y14318D02*
X-36167D01*
X-27435Y14357D02*
X-26035Y15757D01*
Y15907D01*
Y14357D02*
Y31607D01*
X-35235D02*
X-26035D01*
X-35235Y14357D02*
Y31607D01*
Y14357D02*
X-26035D01*
X-7173D02*
X-5773Y15757D01*
Y15907D01*
Y14357D02*
Y31607D01*
X-14973D02*
X-5773D01*
X-14973Y14357D02*
Y31607D01*
Y14357D02*
X-5773D01*
X-17304D02*
X-15904Y15757D01*
Y15907D01*
Y14357D02*
Y31607D01*
X-25104D02*
X-15904D01*
X-25104Y14357D02*
Y31607D01*
Y14357D02*
X-15904D01*
G54D20*
X-44180Y8488D02*
X-42780D01*
Y12488D01*
X-44180D02*
X-42780D01*
G54D21*
X-41286Y13675D02*
X-41221Y13740D01*
Y13871D01*
X-41286Y13937D01*
X-41549D01*
X-41614Y13871D01*
Y13740D01*
X-41549Y13675D01*
X-41614Y13478D02*
Y13347D01*
X-41549Y13281D01*
X-41417D01*
X-41352Y13347D01*
Y13478D01*
X-41417Y13543D01*
X-41549D01*
X-41614Y13478D01*
Y13150D02*
X-41352D01*
Y12953D01*
X-41417Y12887D01*
X-41614D01*
Y12756D02*
X-41352D01*
Y12559D01*
X-41417Y12494D01*
X-41614D01*
Y12166D02*
Y12297D01*
X-41549Y12363D01*
X-41417D01*
X-41352Y12297D01*
Y12166D01*
X-41417Y12100D01*
X-41483D01*
Y12363D01*
X-41352Y11707D02*
Y11904D01*
X-41417Y11969D01*
X-41549D01*
X-41614Y11904D01*
Y11707D01*
X-41286Y11510D02*
X-41352D01*
Y11576D01*
Y11444D01*
Y11510D01*
X-41549D01*
X-41614Y11444D01*
Y11182D02*
Y11051D01*
X-41549Y10985D01*
X-41417D01*
X-41352Y11051D01*
Y11182D01*
X-41417Y11248D01*
X-41549D01*
X-41614Y11182D01*
X-41352Y10854D02*
X-41614D01*
X-41483D01*
X-41417Y10788D01*
X-41352Y10723D01*
Y10657D01*
X-41680Y10460D02*
Y10198D01*
X-41286Y9804D02*
X-41221Y9870D01*
Y10001D01*
X-41286Y10067D01*
X-41352D01*
X-41417Y10001D01*
Y9870D01*
X-41483Y9804D01*
X-41549D01*
X-41614Y9870D01*
Y10001D01*
X-41549Y10067D01*
X-41352Y9673D02*
X-41549D01*
X-41614Y9608D01*
X-41549Y9542D01*
X-41614Y9477D01*
X-41549Y9411D01*
X-41352D01*
X-41614Y9280D02*
Y9149D01*
Y9214D01*
X-41352D01*
Y9280D01*
X-41286Y8886D02*
X-41352D01*
Y8952D01*
Y8821D01*
Y8886D01*
X-41549D01*
X-41614Y8821D01*
X-41352Y8361D02*
Y8558D01*
X-41417Y8624D01*
X-41549D01*
X-41614Y8558D01*
Y8361D01*
X-41221Y8230D02*
X-41614D01*
X-41417D01*
X-41352Y8165D01*
Y8033D01*
X-41417Y7968D01*
X-41614D01*
M02*
