G04 Layer_Color=16711935*
%FSLAX24Y24*%
%MOIN*%
G70*
G01*
G75*
%ADD22C,0.1280*%
%ADD23C,0.0867*%
%ADD24C,0.2442*%
%ADD25R,0.1280X0.1280*%
%ADD26R,0.0480X0.0580*%
%ADD27R,0.0580X0.0480*%
G54D22*
X-9606Y37433D02*
D03*
Y35433D02*
D03*
X-7306D02*
D03*
Y37433D02*
D03*
X-29724Y41370D02*
D03*
Y39370D02*
D03*
X-27598Y41370D02*
D03*
Y39370D02*
D03*
X-9646Y41370D02*
D03*
Y39370D02*
D03*
X-7346D02*
D03*
Y41370D02*
D03*
X-29724Y37394D02*
D03*
Y35394D02*
D03*
X-27559Y37394D02*
D03*
Y35394D02*
D03*
X-12283Y35441D02*
D03*
Y37441D02*
D03*
X-14583D02*
D03*
Y35441D02*
D03*
X-32480Y37394D02*
D03*
Y35394D02*
D03*
X-34680Y37394D02*
D03*
Y35394D02*
D03*
X-12283Y39378D02*
D03*
Y41378D02*
D03*
X-14583D02*
D03*
Y39378D02*
D03*
X-32559Y41370D02*
D03*
Y39370D02*
D03*
X-34685Y41370D02*
D03*
Y39370D02*
D03*
X-19685Y37433D02*
D03*
Y35433D02*
D03*
X-17402Y35441D02*
D03*
Y37441D02*
D03*
X-19606Y41370D02*
D03*
Y39370D02*
D03*
X-17480Y41370D02*
D03*
Y39370D02*
D03*
X-22267Y35433D02*
D03*
Y37433D02*
D03*
X-24528Y37433D02*
D03*
Y35433D02*
D03*
X-22323Y39378D02*
D03*
Y41378D02*
D03*
X-24567Y41370D02*
D03*
Y39370D02*
D03*
X-24646Y9181D02*
D03*
Y11181D02*
D03*
X-26850D02*
D03*
Y9181D02*
D03*
X-39882Y41331D02*
D03*
Y39331D02*
D03*
X-37682Y41331D02*
D03*
Y39331D02*
D03*
X-42668Y41370D02*
D03*
Y39370D02*
D03*
X-44868Y41370D02*
D03*
Y39370D02*
D03*
X-39882Y37354D02*
D03*
Y35354D02*
D03*
X-37682Y37354D02*
D03*
Y35354D02*
D03*
X-42646Y35362D02*
D03*
Y37362D02*
D03*
X-44946Y37354D02*
D03*
Y35354D02*
D03*
X-43780Y11488D02*
D03*
G54D23*
X-37717Y15118D02*
D03*
X-44409D02*
D03*
X-37717Y30866D02*
D03*
X-44409D02*
D03*
X-27585Y15157D02*
D03*
X-34278D02*
D03*
X-27585Y30906D02*
D03*
X-34278D02*
D03*
X-7323Y15157D02*
D03*
X-14016D02*
D03*
X-7323Y30906D02*
D03*
X-14016D02*
D03*
X-17454Y15157D02*
D03*
X-24147D02*
D03*
X-17454Y30906D02*
D03*
X-24147D02*
D03*
G54D24*
X-44606Y44409D02*
D03*
X-6890Y44409D02*
D03*
X-32008Y10354D02*
D03*
X-19134D02*
D03*
G54D25*
X-43780Y9488D02*
D03*
G54D26*
X-31391Y32795D02*
D03*
X-30591D02*
D03*
X-24843Y13228D02*
D03*
X-25643D02*
D03*
X-41220Y33780D02*
D03*
X-40420D02*
D03*
X-41233Y32874D02*
D03*
X-40433D02*
D03*
X-31391Y33740D02*
D03*
X-30591D02*
D03*
X-20512D02*
D03*
X-19712D02*
D03*
X-20485Y32795D02*
D03*
X-19685D02*
D03*
X-10551Y33701D02*
D03*
X-9751D02*
D03*
X-10564Y32677D02*
D03*
X-9764D02*
D03*
G54D27*
X-36378Y10721D02*
D03*
Y9921D02*
D03*
X-37638Y10709D02*
D03*
Y9909D02*
D03*
M02*
