M48
;Layer_Color=9474304
;FILE_FORMAT=2:5
INCH,LZ
;TYPE=PLATED
T1F00S00C0.02800
T2F00S00C0.03000
T3F00S00C0.03600
T4F00S00C0.04000
T5F00S00C0.05200
T6F00S00C0.05201
T7F00S00C0.12598
T8F00S00C0.12600
%
T01
X01955Y00694
X02129Y00853
X02046Y01119
X00847Y00735
Y00645
X00747
X00748Y00735
X00849Y01979
Y0208
X00598Y02062
X01367Y02065
X01596Y02217
X01566Y02356
X01581Y01679
X01754Y0168
X01789Y01488
X01583Y0148
X01474Y01483
X01195Y02727
X01137Y02788
X01817Y02985
X01972Y02661
X02052
X02132
X0233Y02781
X01922Y02528
X01926Y02439
Y02093
X02573Y0194
X0256Y01839
X02546Y02302
X02735Y01445
X0253Y03305
X02541Y03594
X02573Y0382
X02493Y03848
X02295Y0386259
X02294Y03729
X0237421Y0399621
X02063Y04018
X01861Y03752
X01818Y03681
X01848Y03051
X02246Y03228
X02805Y04511
X02879Y0444
X01621Y03984
X01549Y03849
X01399Y03913
X01398Y03327
X00892Y03235
X01059Y03017
X00506Y03165
X00442Y04348
X00554Y04442
X00946Y04439
X00844Y04248
X00895Y04601
X02647Y04664
X02734Y04591
T02
X01078Y0137
X01178
X01278
X01378
X01478
X01578
X01678
X01778
X02075Y03597
Y03697
Y03797
Y03897
X0237421
Y03797
Y03697
Y03597
T03
X01112Y01826
Y01926
X01212
Y01826
X01312
Y01926
X01412
Y01826
X01512
Y01926
X01926Y01925
X02026
Y01825
X02126
Y01925
X02226
Y01825
X02326
Y01925
X01926Y01825
T04
X01846Y00516
X01946
X02046
X02218Y00653
Y00853
X02518
Y00653
X00755Y0118
Y0128
Y0138
Y0148
Y0158
Y0168
Y0178
Y0188
Y0198
Y0208
Y0224
Y0234
Y0244
Y0254
Y0264
Y0274
Y0284
Y0294
X01555
X01655
X01755
X01324Y02332
Y02232
X01217Y02233
Y02333
X01109
Y02233
X00513Y02154
X00413
X02655Y0214
Y0204
Y0194
Y0184
Y0174
Y0164
Y0154
Y0224
Y0244
Y0254
Y0264
Y0274
Y0284
Y0294
X0285Y02154
X0295
X02655Y0304
Y0314
Y0334
Y0344
Y0354
Y0364
Y0374
Y0384
Y0394
Y0404
X02455Y0414
Y0424
X02155
Y0414
X02055
Y0424
X01955
Y0414
X01855
Y0424
X01755
Y0414
X01655
Y0424
X01555
Y0414
X01455
Y0424
X01355
Y0414
X01255
Y0424
X01155
Y0414
X01055
Y0424
X00755
Y0414
Y0384
Y0374
Y0364
Y0354
Y0344
Y0334
Y0324
Y0314
X01555Y0304
X01655
X01755
X00806Y04393
X00706
T05
X00455Y02771
Y02971
X01833Y04483
X02126
X02326
X01633
X01341
X01141
T06
X01178Y03476
Y03676
X01399Y03677
Y03477
T07
X02927Y0063596
X00447
Y02334
X02927
T08
X02655Y0099
X00755Y0104
X02455Y0304
X02655Y0424
X00755Y0399
X01355Y0304
M30
