G04 Layer_Physical_Order=1*
G04 Layer_Color=255*
%FSLAX25Y25*%
%MOIN*%
G70*
G01*
G75*
%ADD10R,0.05000X0.04000*%
%ADD11R,0.04000X0.05000*%
%ADD12R,0.01181X0.03937*%
%ADD13R,0.02000X0.02000*%
%ADD14C,0.01575*%
%ADD15C,0.02362*%
%ADD16C,0.01000*%
%ADD17R,0.12000X0.12000*%
%ADD18C,0.12000*%
%ADD19C,0.07000*%
%ADD20O,0.10000X0.05000*%
%ADD21C,0.13000*%
%ADD22C,0.06000*%
%ADD23R,0.12000X0.12000*%
%ADD24C,0.10000*%
%ADD25C,0.13004*%
%ADD26C,0.05000*%
G36*
X307500Y430700D02*
Y44000D01*
X252705D01*
X252288Y44200D01*
X252288Y44500D01*
Y56198D01*
X209300D01*
Y55287D01*
X208826Y55127D01*
X208523Y55523D01*
X207374Y56404D01*
X206036Y56958D01*
X204600Y57148D01*
X203164Y56958D01*
X201826Y56404D01*
X200677Y55523D01*
X199796Y54374D01*
X199329Y53248D01*
X198788D01*
X198531Y53869D01*
X197809Y54809D01*
X196869Y55531D01*
X195800Y55974D01*
Y51600D01*
Y47226D01*
X196869Y47669D01*
X197809Y48391D01*
X198531Y49331D01*
X198788Y49952D01*
X199329D01*
X199796Y48826D01*
X200677Y47677D01*
X201826Y46796D01*
X203164Y46242D01*
X204600Y46053D01*
X206036Y46242D01*
X207374Y46796D01*
X208523Y47677D01*
X208826Y48073D01*
X209300Y47913D01*
X209300Y44200D01*
X208883Y44000D01*
X33854D01*
X33500Y44354D01*
Y430800D01*
X86000Y483300D01*
X254900D01*
X307500Y430700D01*
D02*
G37*
%LPC*%
G36*
X285000Y220948D02*
X283564Y220758D01*
X282226Y220204D01*
X281077Y219323D01*
X280196Y218174D01*
X279642Y216836D01*
X279452Y215400D01*
X279642Y213964D01*
X280196Y212626D01*
X281077Y211477D01*
X282226Y210596D01*
X283564Y210042D01*
X285000Y209853D01*
X286436Y210042D01*
X287774Y210596D01*
X288923Y211477D01*
X289804Y212626D01*
X290271Y213752D01*
X290812D01*
X291069Y213131D01*
X291791Y212191D01*
X292731Y211469D01*
X293800Y211026D01*
Y215400D01*
Y219774D01*
X292731Y219331D01*
X291791Y218609D01*
X291069Y217669D01*
X290812Y217048D01*
X290271D01*
X289804Y218174D01*
X288923Y219323D01*
X287774Y220204D01*
X286436Y220758D01*
X285000Y220948D01*
D02*
G37*
G36*
X299374Y214200D02*
X296200D01*
Y211026D01*
X297269Y211469D01*
X298209Y212191D01*
X298931Y213131D01*
X299374Y214200D01*
D02*
G37*
G36*
X40100D02*
X36926D01*
X37369Y213131D01*
X38091Y212191D01*
X39031Y211469D01*
X40100Y211026D01*
Y214200D01*
D02*
G37*
G36*
X264300Y207530D02*
X263000D01*
X262086Y207410D01*
X261235Y207057D01*
X260504Y206496D01*
X259943Y205765D01*
X259709Y205200D01*
X264300D01*
Y207530D01*
D02*
G37*
G36*
X271500Y89192D02*
X259502D01*
Y57200D01*
X271500D01*
Y89192D01*
D02*
G37*
G36*
X264300Y212800D02*
X259709D01*
X259943Y212235D01*
X260504Y211504D01*
X261235Y210943D01*
X262086Y210590D01*
X263000Y210470D01*
X264300D01*
Y212800D01*
D02*
G37*
G36*
Y217530D02*
X263000D01*
X262086Y217410D01*
X261235Y217057D01*
X260504Y216496D01*
X259943Y215765D01*
X259709Y215200D01*
X264300D01*
Y217530D01*
D02*
G37*
G36*
X89200Y328039D02*
X88025Y327884D01*
X86931Y327431D01*
X85991Y326709D01*
X85269Y325769D01*
X84816Y324675D01*
X84661Y323500D01*
X84816Y322325D01*
X85269Y321231D01*
X85991Y320291D01*
X86931Y319569D01*
X88025Y319116D01*
X89200Y318961D01*
X90375Y319116D01*
X90988Y319370D01*
X91488Y319036D01*
Y226165D01*
X83836Y218512D01*
X69300D01*
X69300Y218512D01*
X68572Y218416D01*
X67894Y218135D01*
X67312Y217688D01*
X67312Y217688D01*
X60297Y210673D01*
X59800Y210739D01*
X58625Y210584D01*
X57531Y210131D01*
X56591Y209409D01*
X55869Y208469D01*
X55416Y207375D01*
X55261Y206200D01*
X55416Y205025D01*
X55869Y203931D01*
X56591Y202991D01*
X57531Y202269D01*
X58625Y201816D01*
X59800Y201661D01*
X60975Y201816D01*
X62069Y202269D01*
X63009Y202991D01*
X63731Y203931D01*
X64184Y205025D01*
X64339Y206200D01*
X64273Y206697D01*
X70464Y212889D01*
X71826D01*
X71859Y212388D01*
X71825Y212384D01*
X70731Y211931D01*
X69791Y211209D01*
X69069Y210269D01*
X68616Y209175D01*
X68461Y208000D01*
X68616Y206825D01*
X69069Y205731D01*
X69791Y204791D01*
X70731Y204069D01*
X71825Y203616D01*
X73000Y203461D01*
X78000D01*
X79175Y203616D01*
X80269Y204069D01*
X81209Y204791D01*
X81256D01*
X81784Y204718D01*
X82631Y204069D01*
X83725Y203616D01*
X84900Y203461D01*
X85911Y203594D01*
X86150Y203126D01*
X85397Y202373D01*
X84900Y202439D01*
X83725Y202284D01*
X82631Y201831D01*
X81691Y201109D01*
X81286Y201109D01*
X81209Y201209D01*
X80269Y201931D01*
X79175Y202384D01*
X78000Y202539D01*
X73000D01*
X71825Y202384D01*
X70731Y201931D01*
X69791Y201209D01*
X69069Y200269D01*
X68616Y199175D01*
X68461Y198000D01*
X68616Y196825D01*
X69069Y195731D01*
X69791Y194791D01*
X70731Y194069D01*
X71825Y193616D01*
X73000Y193461D01*
X78000D01*
X79175Y193616D01*
X80269Y194069D01*
X81067Y194682D01*
X81687Y194695D01*
X81691Y194691D01*
X82631Y193969D01*
X83725Y193516D01*
X84900Y193361D01*
X86075Y193516D01*
X87169Y193969D01*
X88109Y194691D01*
X88831Y195631D01*
X89284Y196725D01*
X89439Y197900D01*
X89373Y198397D01*
X94665Y203689D01*
X133185D01*
X133491Y203291D01*
X134431Y202569D01*
X135525Y202116D01*
X136700Y201961D01*
X137875Y202116D01*
X138969Y202569D01*
X139909Y203291D01*
X140631Y204231D01*
X141084Y205325D01*
X141239Y206500D01*
X141084Y207675D01*
X140631Y208769D01*
X139909Y209709D01*
X139641Y209915D01*
X139802Y210388D01*
X187635D01*
X188138Y209886D01*
X188061Y209300D01*
X188216Y208125D01*
X188669Y207031D01*
X189391Y206091D01*
X190331Y205369D01*
X191425Y204916D01*
X192600Y204761D01*
X193775Y204916D01*
X194869Y205369D01*
X195809Y206091D01*
X196531Y207031D01*
X196984Y208125D01*
X197139Y209300D01*
X196984Y210475D01*
X196531Y211569D01*
X195809Y212509D01*
X194869Y213231D01*
X193775Y213684D01*
X192600Y213839D01*
X192191Y213785D01*
X190788Y215188D01*
X190206Y215635D01*
X189528Y215916D01*
X188800Y216012D01*
X188800Y216012D01*
X93300D01*
X93300Y216012D01*
X92572Y215916D01*
X91894Y215635D01*
X91312Y215188D01*
X91312Y215188D01*
X87670Y211546D01*
X87169Y211931D01*
X86075Y212384D01*
X85537Y212455D01*
Y212959D01*
X85728Y212984D01*
X86406Y213265D01*
X86988Y213712D01*
X96288Y223012D01*
X96288Y223012D01*
X96735Y223594D01*
X97016Y224272D01*
X97111Y225000D01*
X97111Y225000D01*
Y321600D01*
X97111Y321600D01*
X97016Y322328D01*
X96735Y323006D01*
X96288Y323588D01*
X96288Y323588D01*
X94388Y325488D01*
X93806Y325935D01*
X93128Y326216D01*
X92750Y326265D01*
X92409Y326709D01*
X91469Y327431D01*
X90375Y327884D01*
X89200Y328039D01*
D02*
G37*
G36*
X78000Y228539D02*
X73000D01*
X71825Y228384D01*
X70731Y227931D01*
X69791Y227209D01*
X69069Y226269D01*
X68616Y225175D01*
X68461Y224000D01*
X68616Y222825D01*
X69069Y221731D01*
X69791Y220791D01*
X70731Y220069D01*
X71825Y219616D01*
X73000Y219461D01*
X78000D01*
X79175Y219616D01*
X80269Y220069D01*
X81209Y220791D01*
X81931Y221731D01*
X82384Y222825D01*
X82539Y224000D01*
X82384Y225175D01*
X81931Y226269D01*
X81209Y227209D01*
X80269Y227931D01*
X79175Y228384D01*
X78000Y228539D01*
D02*
G37*
G36*
X44700Y241943D02*
X43033Y241779D01*
X41431Y241293D01*
X39954Y240503D01*
X38659Y239441D01*
X37597Y238146D01*
X36807Y236669D01*
X36321Y235067D01*
X36157Y233400D01*
X36321Y231733D01*
X36807Y230131D01*
X37597Y228654D01*
X38659Y227359D01*
X39954Y226297D01*
X41431Y225507D01*
X43033Y225021D01*
X44700Y224857D01*
X46367Y225021D01*
X47969Y225507D01*
X49446Y226297D01*
X50741Y227359D01*
X51803Y228654D01*
X52593Y230131D01*
X53079Y231733D01*
X53243Y233400D01*
X53079Y235067D01*
X52593Y236669D01*
X51803Y238146D01*
X50741Y239441D01*
X49446Y240503D01*
X47969Y241293D01*
X46367Y241779D01*
X44700Y241943D01*
D02*
G37*
G36*
X40100Y219774D02*
X39031Y219331D01*
X38091Y218609D01*
X37369Y217669D01*
X36926Y216600D01*
X40100D01*
Y219774D01*
D02*
G37*
G36*
X296200D02*
Y216600D01*
X299374D01*
X298931Y217669D01*
X298209Y218609D01*
X297269Y219331D01*
X296200Y219774D01*
D02*
G37*
G36*
X51300Y220948D02*
X49864Y220758D01*
X48526Y220204D01*
X47377Y219323D01*
X46496Y218174D01*
X46029Y217048D01*
X45488D01*
X45231Y217669D01*
X44509Y218609D01*
X43569Y219331D01*
X42500Y219774D01*
Y215400D01*
Y211026D01*
X43569Y211469D01*
X44509Y212191D01*
X45231Y213131D01*
X45488Y213752D01*
X46029D01*
X46496Y212626D01*
X47377Y211477D01*
X48526Y210596D01*
X49864Y210042D01*
X51300Y209853D01*
X52736Y210042D01*
X54074Y210596D01*
X55223Y211477D01*
X56104Y212626D01*
X56658Y213964D01*
X56848Y215400D01*
X56658Y216836D01*
X56104Y218174D01*
X55223Y219323D01*
X54074Y220204D01*
X52736Y220758D01*
X51300Y220948D01*
D02*
G37*
G36*
X175400Y172539D02*
X174225Y172384D01*
X173131Y171931D01*
X172191Y171209D01*
X171469Y170269D01*
X171016Y169175D01*
X170861Y168000D01*
X171016Y166825D01*
X171469Y165731D01*
X171550Y165626D01*
X158444Y152520D01*
X158300Y152539D01*
X157125Y152384D01*
X156031Y151931D01*
X155091Y151209D01*
X154369Y150269D01*
X153916Y149175D01*
X153761Y148000D01*
X153916Y146825D01*
X154369Y145731D01*
X155091Y144791D01*
X156031Y144069D01*
X157125Y143616D01*
X158300Y143461D01*
X159475Y143616D01*
X160569Y144069D01*
X161509Y144791D01*
X162231Y145731D01*
X162684Y146825D01*
X162839Y148000D01*
X162727Y148851D01*
X177388Y163512D01*
X177388Y163512D01*
X177835Y164094D01*
X177897Y164244D01*
X178609Y164791D01*
X179331Y165731D01*
X179784Y166825D01*
X179939Y168000D01*
X179784Y169175D01*
X179331Y170269D01*
X178609Y171209D01*
X177669Y171931D01*
X176575Y172384D01*
X175400Y172539D01*
D02*
G37*
G36*
X78000Y162539D02*
X73000D01*
X71825Y162384D01*
X70731Y161931D01*
X69791Y161209D01*
X69069Y160269D01*
X68616Y159175D01*
X68461Y158000D01*
X68616Y156825D01*
X69069Y155731D01*
X69791Y154791D01*
X70731Y154069D01*
X71825Y153616D01*
X73000Y153461D01*
X78000D01*
X79175Y153616D01*
X80269Y154069D01*
X81209Y154791D01*
X81931Y155731D01*
X82384Y156825D01*
X82539Y158000D01*
X82384Y159175D01*
X81931Y160269D01*
X81209Y161209D01*
X80269Y161931D01*
X79175Y162384D01*
X78000Y162539D01*
D02*
G37*
G36*
X268000Y168539D02*
X263000D01*
X261825Y168384D01*
X260731Y167931D01*
X259791Y167209D01*
X259069Y166269D01*
X258616Y165175D01*
X258461Y164000D01*
X258616Y162825D01*
X259069Y161731D01*
X259791Y160791D01*
X260731Y160069D01*
X261825Y159616D01*
X263000Y159461D01*
X268000D01*
X269175Y159616D01*
X270269Y160069D01*
X271209Y160791D01*
X271931Y161731D01*
X272384Y162825D01*
X272539Y164000D01*
X272384Y165175D01*
X271931Y166269D01*
X271209Y167209D01*
X270269Y167931D01*
X269175Y168384D01*
X268000Y168539D01*
D02*
G37*
G36*
Y158539D02*
X263000D01*
X261825Y158384D01*
X260731Y157931D01*
X259791Y157209D01*
X259069Y156269D01*
X258616Y155175D01*
X258461Y154000D01*
X258616Y152825D01*
X259069Y151731D01*
X259791Y150791D01*
X260731Y150069D01*
X261825Y149616D01*
X261946Y149600D01*
X261913Y149100D01*
X255036D01*
Y153100D01*
X245100D01*
Y130045D01*
X255036D01*
Y132200D01*
X262600D01*
Y140100D01*
X263600D01*
Y137900D01*
X269600D01*
Y140100D01*
X270600D01*
Y140488D01*
X271048Y140709D01*
X271231Y140569D01*
X272325Y140116D01*
X273500Y139961D01*
X274675Y140116D01*
X275769Y140569D01*
X276709Y141291D01*
X277431Y142231D01*
X277884Y143325D01*
X278039Y144500D01*
X277884Y145675D01*
X277431Y146769D01*
X276709Y147709D01*
X275769Y148431D01*
X274675Y148884D01*
X273500Y149039D01*
X272325Y148884D01*
X271231Y148431D01*
X271048Y148291D01*
X270600Y148512D01*
Y149100D01*
X269087D01*
X269055Y149600D01*
X269175Y149616D01*
X270269Y150069D01*
X271209Y150791D01*
X271931Y151731D01*
X272384Y152825D01*
X272539Y154000D01*
X272384Y155175D01*
X271931Y156269D01*
X271209Y157209D01*
X270269Y157931D01*
X269175Y158384D01*
X268000Y158539D01*
D02*
G37*
G36*
X74300Y151530D02*
X73000D01*
X72086Y151410D01*
X71235Y151057D01*
X70504Y150496D01*
X69943Y149765D01*
X69709Y149200D01*
X74300D01*
Y151530D01*
D02*
G37*
G36*
X78000D02*
X76700D01*
Y149200D01*
X81291D01*
X81057Y149765D01*
X80496Y150496D01*
X79765Y151057D01*
X78914Y151410D01*
X78000Y151530D01*
D02*
G37*
G36*
Y172539D02*
X73000D01*
X71825Y172384D01*
X70731Y171931D01*
X69791Y171209D01*
X69069Y170269D01*
X68616Y169175D01*
X68461Y168000D01*
X68616Y166825D01*
X69069Y165731D01*
X69791Y164791D01*
X70731Y164069D01*
X71825Y163616D01*
X73000Y163461D01*
X78000D01*
X79175Y163616D01*
X80269Y164069D01*
X81209Y164791D01*
X81931Y165731D01*
X82384Y166825D01*
X82539Y168000D01*
X82384Y169175D01*
X81931Y170269D01*
X81209Y171209D01*
X80269Y171931D01*
X79175Y172384D01*
X78000Y172539D01*
D02*
G37*
G36*
Y192539D02*
X73000D01*
X71825Y192384D01*
X70731Y191931D01*
X69791Y191209D01*
X69069Y190269D01*
X68616Y189175D01*
X68461Y188000D01*
X68616Y186825D01*
X69069Y185731D01*
X69791Y184791D01*
X70731Y184069D01*
X71825Y183616D01*
X73000Y183461D01*
X78000D01*
X79175Y183616D01*
X80269Y184069D01*
X81209Y184791D01*
X81931Y185731D01*
X82384Y186825D01*
X82539Y188000D01*
X82384Y189175D01*
X81931Y190269D01*
X81209Y191209D01*
X80269Y191931D01*
X79175Y192384D01*
X78000Y192539D01*
D02*
G37*
G36*
X151200Y198147D02*
X149764Y197958D01*
X148426Y197404D01*
X147277Y196523D01*
X146493Y195500D01*
X146327Y195457D01*
X146073D01*
X145907Y195500D01*
X145123Y196523D01*
X143974Y197404D01*
X142636Y197958D01*
X141200Y198147D01*
X139764Y197958D01*
X138426Y197404D01*
X137277Y196523D01*
X136493Y195500D01*
X136327Y195457D01*
X136073D01*
X135907Y195500D01*
X135123Y196523D01*
X133974Y197404D01*
X132636Y197958D01*
X131200Y198147D01*
X129764Y197958D01*
X128426Y197404D01*
X127277Y196523D01*
X126493Y195500D01*
X126327Y195457D01*
X126073D01*
X125907Y195500D01*
X125123Y196523D01*
X123974Y197404D01*
X122636Y197958D01*
X121200Y198147D01*
X119764Y197958D01*
X118426Y197404D01*
X117277Y196523D01*
X116493Y195500D01*
X116327Y195457D01*
X116073D01*
X115907Y195500D01*
X115123Y196523D01*
X113974Y197404D01*
X112636Y197958D01*
X111200Y198147D01*
X109764Y197958D01*
X108426Y197404D01*
X107277Y196523D01*
X106396Y195374D01*
X105842Y194036D01*
X105652Y192600D01*
X105842Y191164D01*
X106396Y189826D01*
X107277Y188677D01*
X108300Y187893D01*
X108343Y187727D01*
Y187473D01*
X108300Y187307D01*
X107277Y186523D01*
X106396Y185374D01*
X105842Y184036D01*
X105652Y182600D01*
X105842Y181164D01*
X106396Y179826D01*
X107277Y178677D01*
X108426Y177796D01*
X109764Y177242D01*
X111200Y177052D01*
X112636Y177242D01*
X113974Y177796D01*
X115123Y178677D01*
X115907Y179700D01*
X116073Y179743D01*
X116327D01*
X116493Y179700D01*
X117277Y178677D01*
X118426Y177796D01*
X119764Y177242D01*
X121200Y177052D01*
X122636Y177242D01*
X123974Y177796D01*
X125123Y178677D01*
X125907Y179700D01*
X126073Y179743D01*
X126327D01*
X126493Y179700D01*
X127277Y178677D01*
X128426Y177796D01*
X129764Y177242D01*
X131200Y177052D01*
X132636Y177242D01*
X133974Y177796D01*
X135123Y178677D01*
X135907Y179700D01*
X136073Y179743D01*
X136327D01*
X136493Y179700D01*
X137277Y178677D01*
X138426Y177796D01*
X139764Y177242D01*
X141200Y177052D01*
X142636Y177242D01*
X143974Y177796D01*
X145123Y178677D01*
X146004Y179826D01*
X146471Y180952D01*
X147012D01*
X147269Y180331D01*
X147991Y179391D01*
X148931Y178669D01*
X150000Y178226D01*
Y182600D01*
X151200D01*
Y183800D01*
X155574D01*
X155131Y184869D01*
X154409Y185809D01*
X153469Y186531D01*
X152848Y186788D01*
Y187329D01*
X153974Y187796D01*
X155123Y188677D01*
X156004Y189826D01*
X156558Y191164D01*
X156747Y192600D01*
X156558Y194036D01*
X156004Y195374D01*
X155123Y196523D01*
X153974Y197404D01*
X152636Y197958D01*
X151200Y198147D01*
D02*
G37*
G36*
X264300Y202800D02*
X259709D01*
X259943Y202235D01*
X260504Y201504D01*
X261235Y200943D01*
X262086Y200590D01*
X263000Y200470D01*
X264300D01*
Y202800D01*
D02*
G37*
G36*
X268000Y178539D02*
X263000D01*
X261825Y178384D01*
X260731Y177931D01*
X259791Y177209D01*
X259069Y176269D01*
X258616Y175175D01*
X258461Y174000D01*
X258616Y172825D01*
X259069Y171731D01*
X259791Y170791D01*
X260731Y170069D01*
X261825Y169616D01*
X263000Y169461D01*
X268000D01*
X269175Y169616D01*
X270269Y170069D01*
X271209Y170791D01*
X271931Y171731D01*
X272384Y172825D01*
X272539Y174000D01*
X272384Y175175D01*
X271931Y176269D01*
X271209Y177209D01*
X270269Y177931D01*
X269175Y178384D01*
X268000Y178539D01*
D02*
G37*
G36*
X78000Y182539D02*
X73000D01*
X71825Y182384D01*
X70731Y181931D01*
X69791Y181209D01*
X69069Y180269D01*
X68616Y179175D01*
X68461Y178000D01*
X68616Y176825D01*
X69069Y175731D01*
X69791Y174791D01*
X70731Y174069D01*
X71825Y173616D01*
X73000Y173461D01*
X78000D01*
X79175Y173616D01*
X80269Y174069D01*
X81209Y174791D01*
X81931Y175731D01*
X82384Y176825D01*
X82539Y178000D01*
X82384Y179175D01*
X81931Y180269D01*
X81209Y181209D01*
X80269Y181931D01*
X79175Y182384D01*
X78000Y182539D01*
D02*
G37*
G36*
X155574Y181400D02*
X152400D01*
Y178226D01*
X153469Y178669D01*
X154409Y179391D01*
X155131Y180331D01*
X155574Y181400D01*
D02*
G37*
G36*
X225700Y286400D02*
X223400D01*
Y284600D01*
X225700D01*
Y286400D01*
D02*
G37*
G36*
X225900Y292200D02*
X218900D01*
Y290600D01*
X218700D01*
Y288800D01*
X225700D01*
Y290400D01*
X225900D01*
Y292200D01*
D02*
G37*
G36*
X45500Y305139D02*
X43932Y304984D01*
X42424Y304527D01*
X41034Y303784D01*
X39816Y302784D01*
X38816Y301566D01*
X38073Y300176D01*
X37616Y298668D01*
X37461Y297100D01*
X37616Y295532D01*
X38073Y294024D01*
X38816Y292634D01*
X39816Y291416D01*
X41034Y290416D01*
X42424Y289673D01*
X43932Y289216D01*
X45500Y289061D01*
X47068Y289216D01*
X48576Y289673D01*
X49966Y290416D01*
X51184Y291416D01*
X52184Y292634D01*
X52927Y294024D01*
X53384Y295532D01*
X53539Y297100D01*
X53384Y298668D01*
X52927Y300176D01*
X52184Y301566D01*
X51184Y302784D01*
X49966Y303784D01*
X48576Y304527D01*
X47068Y304984D01*
X45500Y305139D01*
D02*
G37*
G36*
X44300Y284100D02*
X38500D01*
Y278300D01*
X44300D01*
Y284100D01*
D02*
G37*
G36*
X52500D02*
X46700D01*
Y278300D01*
X52500D01*
Y284100D01*
D02*
G37*
G36*
X221000Y286400D02*
X218700D01*
Y284600D01*
X221000D01*
Y286400D01*
D02*
G37*
G36*
X221200Y296400D02*
X218900D01*
Y294600D01*
X221200D01*
Y296400D01*
D02*
G37*
G36*
X109191Y300500D02*
X107100D01*
Y298409D01*
X107665Y298643D01*
X108396Y299204D01*
X108957Y299935D01*
X109191Y300500D01*
D02*
G37*
G36*
X184600Y57148D02*
X183164Y56958D01*
X181826Y56404D01*
X180677Y55523D01*
X179796Y54374D01*
X179242Y53036D01*
X179052Y51600D01*
X179242Y50164D01*
X179796Y48826D01*
X180677Y47677D01*
X181826Y46796D01*
X183164Y46242D01*
X184600Y46053D01*
X186036Y46242D01*
X187374Y46796D01*
X188523Y47677D01*
X189404Y48826D01*
X189871Y49952D01*
X190412D01*
X190669Y49331D01*
X191391Y48391D01*
X192331Y47669D01*
X193400Y47226D01*
Y51600D01*
Y55974D01*
X192331Y55531D01*
X191391Y54809D01*
X190669Y53869D01*
X190412Y53248D01*
X189871D01*
X189404Y54374D01*
X188523Y55523D01*
X187374Y56404D01*
X186036Y56958D01*
X184600Y57148D01*
D02*
G37*
G36*
X104700Y304991D02*
X104135Y304757D01*
X103404Y304196D01*
X102843Y303465D01*
X102609Y302900D01*
X104700D01*
Y304991D01*
D02*
G37*
G36*
X225900Y296400D02*
X223600D01*
Y294600D01*
X225900D01*
Y296400D01*
D02*
G37*
G36*
X78000Y318539D02*
X73000D01*
X71825Y318384D01*
X70731Y317931D01*
X69791Y317209D01*
X69069Y316269D01*
X68616Y315175D01*
X68461Y314000D01*
X68616Y312825D01*
X69069Y311731D01*
X69791Y310791D01*
X70731Y310069D01*
X71825Y309616D01*
X73000Y309461D01*
X78000D01*
X79175Y309616D01*
X80269Y310069D01*
X80552Y310286D01*
X81000Y310065D01*
Y297935D01*
X80552Y297714D01*
X80269Y297931D01*
X79175Y298384D01*
X78000Y298539D01*
X73000D01*
X71825Y298384D01*
X70731Y297931D01*
X69791Y297209D01*
X69069Y296269D01*
X68616Y295175D01*
X68461Y294000D01*
X68616Y292825D01*
X69069Y291731D01*
X69791Y290791D01*
X70731Y290069D01*
X71825Y289616D01*
X73000Y289461D01*
X78000D01*
X79175Y289616D01*
X80269Y290069D01*
X80552Y290286D01*
X81000Y290065D01*
Y287935D01*
X80552Y287714D01*
X80269Y287931D01*
X79175Y288384D01*
X78000Y288539D01*
X73000D01*
X71825Y288384D01*
X70731Y287931D01*
X69791Y287209D01*
X69069Y286269D01*
X68616Y285175D01*
X68461Y284000D01*
X68616Y282825D01*
X69069Y281731D01*
X69791Y280791D01*
X70731Y280069D01*
X71825Y279616D01*
X73000Y279461D01*
X78000D01*
X79175Y279616D01*
X80269Y280069D01*
X80552Y280286D01*
X81000Y280065D01*
Y277935D01*
X80552Y277714D01*
X80269Y277931D01*
X79175Y278384D01*
X78000Y278539D01*
X73000D01*
X71825Y278384D01*
X70731Y277931D01*
X69791Y277209D01*
X69069Y276269D01*
X68616Y275175D01*
X68461Y274000D01*
X68616Y272825D01*
X69069Y271731D01*
X69791Y270791D01*
X70731Y270069D01*
X71825Y269616D01*
X73000Y269461D01*
X78000D01*
X79175Y269616D01*
X80269Y270069D01*
X80552Y270286D01*
X81000Y270065D01*
Y267935D01*
X80552Y267714D01*
X80269Y267931D01*
X79175Y268384D01*
X78000Y268539D01*
X73000D01*
X71825Y268384D01*
X70731Y267931D01*
X69791Y267209D01*
X69069Y266269D01*
X68616Y265175D01*
X68461Y264000D01*
X68616Y262825D01*
X69069Y261731D01*
X69791Y260791D01*
X70731Y260069D01*
X71825Y259616D01*
X73000Y259461D01*
X78000D01*
X79175Y259616D01*
X80269Y260069D01*
X81209Y260791D01*
X81443Y261095D01*
X90936D01*
Y311700D01*
X82459D01*
X82125Y312200D01*
X82384Y312825D01*
X82539Y314000D01*
X82384Y315175D01*
X81931Y316269D01*
X81209Y317209D01*
X80269Y317931D01*
X79175Y318384D01*
X78000Y318539D01*
D02*
G37*
G36*
X104700Y300500D02*
X102609D01*
X102843Y299935D01*
X103404Y299204D01*
X104135Y298643D01*
X104700Y298409D01*
Y300500D01*
D02*
G37*
G36*
X52500Y275900D02*
X46700D01*
Y270100D01*
X52500D01*
Y275900D01*
D02*
G37*
G36*
X292700Y72139D02*
X291033Y71975D01*
X289431Y71489D01*
X287954Y70699D01*
X286659Y69637D01*
X285597Y68342D01*
X284807Y66865D01*
X284321Y65263D01*
X284157Y63596D01*
X284321Y61929D01*
X284807Y60327D01*
X285597Y58850D01*
X286659Y57555D01*
X287954Y56493D01*
X289431Y55703D01*
X291033Y55217D01*
X292700Y55053D01*
X294367Y55217D01*
X295969Y55703D01*
X297446Y56493D01*
X298741Y57555D01*
X299803Y58850D01*
X300593Y60327D01*
X301079Y61929D01*
X301243Y63596D01*
X301079Y65263D01*
X300593Y66865D01*
X299803Y68342D01*
X298741Y69637D01*
X297446Y70699D01*
X295969Y71489D01*
X294367Y71975D01*
X292700Y72139D01*
D02*
G37*
G36*
X121700Y238847D02*
X120264Y238658D01*
X118926Y238104D01*
X117777Y237223D01*
X116896Y236074D01*
X116571Y235289D01*
X116029D01*
X115704Y236074D01*
X114823Y237223D01*
X113674Y238104D01*
X112336Y238658D01*
X110900Y238847D01*
X109464Y238658D01*
X108126Y238104D01*
X106977Y237223D01*
X106096Y236074D01*
X105542Y234736D01*
X105352Y233300D01*
X105542Y231864D01*
X106096Y230526D01*
X106977Y229377D01*
X108000Y228593D01*
X108043Y228427D01*
Y228173D01*
X108000Y228007D01*
X106977Y227223D01*
X106096Y226074D01*
X105542Y224736D01*
X105352Y223300D01*
X105542Y221864D01*
X106096Y220526D01*
X106977Y219377D01*
X108126Y218496D01*
X109464Y217942D01*
X110900Y217753D01*
X112336Y217942D01*
X113674Y218496D01*
X114823Y219377D01*
X115704Y220526D01*
X116029Y221311D01*
X116571D01*
X116896Y220526D01*
X117777Y219377D01*
X118926Y218496D01*
X120264Y217942D01*
X121700Y217753D01*
X123136Y217942D01*
X124474Y218496D01*
X125623Y219377D01*
X126504Y220526D01*
X126759Y221141D01*
X127300D01*
X127596Y220426D01*
X128477Y219277D01*
X129626Y218396D01*
X130964Y217842D01*
X132400Y217653D01*
X133836Y217842D01*
X135174Y218396D01*
X136323Y219277D01*
X137204Y220426D01*
X137758Y221764D01*
X137947Y223200D01*
X137758Y224636D01*
X137204Y225974D01*
X136323Y227123D01*
X135300Y227907D01*
X135257Y228073D01*
Y228327D01*
X135300Y228493D01*
X136323Y229277D01*
X137204Y230426D01*
X137758Y231764D01*
X137947Y233200D01*
X137758Y234636D01*
X137204Y235974D01*
X136323Y237123D01*
X135174Y238004D01*
X133836Y238558D01*
X132400Y238748D01*
X130964Y238558D01*
X129626Y238004D01*
X128477Y237123D01*
X127596Y235974D01*
X127341Y235359D01*
X126800D01*
X126504Y236074D01*
X125623Y237223D01*
X124474Y238104D01*
X123136Y238658D01*
X121700Y238847D01*
D02*
G37*
G36*
X78000Y248539D02*
X73000D01*
X71825Y248384D01*
X70731Y247931D01*
X69791Y247209D01*
X69069Y246269D01*
X68616Y245175D01*
X68461Y244000D01*
X68616Y242825D01*
X69069Y241731D01*
X69791Y240791D01*
X70731Y240069D01*
X71825Y239616D01*
X73000Y239461D01*
X78000D01*
X79175Y239616D01*
X80269Y240069D01*
X81209Y240791D01*
X81931Y241731D01*
X82384Y242825D01*
X82539Y244000D01*
X82384Y245175D01*
X81931Y246269D01*
X81209Y247209D01*
X80269Y247931D01*
X79175Y248384D01*
X78000Y248539D01*
D02*
G37*
G36*
X292700Y241943D02*
X291033Y241779D01*
X289431Y241293D01*
X287954Y240503D01*
X286659Y239441D01*
X285597Y238146D01*
X284807Y236669D01*
X284321Y235067D01*
X284157Y233400D01*
X284321Y231733D01*
X284807Y230131D01*
X285597Y228654D01*
X286659Y227359D01*
X287954Y226297D01*
X289431Y225507D01*
X291033Y225021D01*
X292700Y224857D01*
X294367Y225021D01*
X295969Y225507D01*
X297446Y226297D01*
X298741Y227359D01*
X299803Y228654D01*
X300593Y230131D01*
X301079Y231733D01*
X301243Y233400D01*
X301079Y235067D01*
X300593Y236669D01*
X299803Y238146D01*
X298741Y239441D01*
X297446Y240503D01*
X295969Y241293D01*
X294367Y241779D01*
X292700Y241943D01*
D02*
G37*
G36*
X78000Y238539D02*
X73000D01*
X71825Y238384D01*
X70731Y237931D01*
X69791Y237209D01*
X69069Y236269D01*
X68616Y235175D01*
X68461Y234000D01*
X68616Y232825D01*
X69069Y231731D01*
X69791Y230791D01*
X70731Y230069D01*
X71825Y229616D01*
X73000Y229461D01*
X78000D01*
X79175Y229616D01*
X80269Y230069D01*
X81209Y230791D01*
X81931Y231731D01*
X82384Y232825D01*
X82539Y234000D01*
X82384Y235175D01*
X81931Y236269D01*
X81209Y237209D01*
X80269Y237931D01*
X79175Y238384D01*
X78000Y238539D01*
D02*
G37*
G36*
X113700Y283339D02*
X112525Y283184D01*
X111431Y282731D01*
X110491Y282009D01*
X109769Y281069D01*
X109316Y279975D01*
X109161Y278800D01*
X109316Y277625D01*
X109769Y276531D01*
X110491Y275591D01*
X111431Y274869D01*
X112525Y274416D01*
X112601Y274406D01*
Y265887D01*
X112601Y265887D01*
X112697Y265160D01*
X112978Y264482D01*
X113425Y263899D01*
X155127Y222197D01*
X155061Y221700D01*
X155216Y220525D01*
X155669Y219431D01*
X156391Y218491D01*
X157331Y217769D01*
X158425Y217316D01*
X159600Y217161D01*
X160775Y217316D01*
X161869Y217769D01*
X162809Y218491D01*
X163531Y219431D01*
X163984Y220525D01*
X164139Y221700D01*
X163984Y222875D01*
X163531Y223969D01*
X162809Y224909D01*
X161869Y225631D01*
X160775Y226084D01*
X159600Y226239D01*
X159103Y226173D01*
X153928Y231348D01*
X154259Y231725D01*
X154331Y231669D01*
X155425Y231216D01*
X156600Y231061D01*
X157775Y231216D01*
X158869Y231669D01*
X159809Y232391D01*
X160531Y233331D01*
X160984Y234425D01*
X161139Y235600D01*
X160984Y236775D01*
X160531Y237869D01*
X159809Y238809D01*
X158869Y239531D01*
X157775Y239984D01*
X156600Y240139D01*
X156103Y240073D01*
X123973Y272203D01*
X124039Y272700D01*
X123884Y273875D01*
X123431Y274969D01*
X122709Y275909D01*
X121769Y276631D01*
X120675Y277084D01*
X119500Y277239D01*
X118705Y277134D01*
X118321Y277097D01*
X118164Y277546D01*
X118128Y277815D01*
X118114Y277850D01*
X118239Y278800D01*
X118084Y279975D01*
X117631Y281069D01*
X116909Y282009D01*
X115969Y282731D01*
X114875Y283184D01*
X113700Y283339D01*
D02*
G37*
G36*
X253200Y246000D02*
X250900D01*
Y244200D01*
X253200D01*
Y246000D01*
D02*
G37*
G36*
X78000Y258539D02*
X73000D01*
X71825Y258384D01*
X70731Y257931D01*
X69791Y257209D01*
X69069Y256269D01*
X68616Y255175D01*
X68461Y254000D01*
X68616Y252825D01*
X69069Y251731D01*
X69791Y250791D01*
X70731Y250069D01*
X71825Y249616D01*
X73000Y249461D01*
X78000D01*
X79175Y249616D01*
X80269Y250069D01*
X81209Y250791D01*
X81931Y251731D01*
X82384Y252825D01*
X82539Y254000D01*
X82384Y255175D01*
X81931Y256269D01*
X81209Y257209D01*
X80269Y257931D01*
X79175Y258384D01*
X78000Y258539D01*
D02*
G37*
G36*
X44700Y72139D02*
X43033Y71975D01*
X41431Y71489D01*
X39954Y70699D01*
X38659Y69637D01*
X37597Y68342D01*
X36807Y66865D01*
X36321Y65263D01*
X36157Y63596D01*
X36321Y61929D01*
X36807Y60327D01*
X37597Y58850D01*
X38659Y57555D01*
X39954Y56493D01*
X41431Y55703D01*
X43033Y55217D01*
X44700Y55053D01*
X46367Y55217D01*
X47969Y55703D01*
X49446Y56493D01*
X50741Y57555D01*
X51803Y58850D01*
X52593Y60327D01*
X53079Y61929D01*
X53243Y63596D01*
X53079Y65263D01*
X52593Y66865D01*
X51803Y68342D01*
X50741Y69637D01*
X49446Y70699D01*
X47969Y71489D01*
X46367Y71975D01*
X44700Y72139D01*
D02*
G37*
G36*
X44300Y275900D02*
X38500D01*
Y270100D01*
X44300D01*
Y275900D01*
D02*
G37*
G36*
X257900Y246000D02*
X255600D01*
Y244200D01*
X257900D01*
Y246000D01*
D02*
G37*
G36*
X253200Y250200D02*
X250900D01*
Y248400D01*
X253200D01*
Y250200D01*
D02*
G37*
G36*
X257900D02*
X255600D01*
Y248400D01*
X257900D01*
Y250200D01*
D02*
G37*
G36*
X208300Y69600D02*
X206000D01*
Y67800D01*
X208300D01*
Y69600D01*
D02*
G37*
G36*
X73600Y72300D02*
X71509D01*
X71743Y71735D01*
X72304Y71004D01*
X73035Y70443D01*
X73600Y70209D01*
Y72300D01*
D02*
G37*
G36*
X78091D02*
X76000D01*
Y70209D01*
X76565Y70443D01*
X77296Y71004D01*
X77857Y71735D01*
X78091Y72300D01*
D02*
G37*
G36*
X250600Y71206D02*
X249493Y70870D01*
X248450Y70313D01*
X247537Y69563D01*
X246787Y68650D01*
X246230Y67607D01*
X245894Y66500D01*
X250600D01*
Y71206D01*
D02*
G37*
G36*
X253000D02*
Y66500D01*
X257706D01*
X257370Y67607D01*
X256813Y68650D01*
X256063Y69563D01*
X255150Y70313D01*
X254107Y70870D01*
X253000Y71206D01*
D02*
G37*
G36*
X203600Y69600D02*
X201300D01*
Y67800D01*
X203600D01*
Y69600D01*
D02*
G37*
G36*
X83500Y72300D02*
X81409D01*
X81643Y71735D01*
X82204Y71004D01*
X82935Y70443D01*
X83500Y70209D01*
Y72300D01*
D02*
G37*
G36*
X73600Y76791D02*
X73035Y76557D01*
X72304Y75996D01*
X71743Y75265D01*
X71509Y74700D01*
X73600D01*
Y76791D01*
D02*
G37*
G36*
X76000D02*
Y74700D01*
X78091D01*
X77857Y75265D01*
X77296Y75996D01*
X76565Y76557D01*
X76000Y76791D01*
D02*
G37*
G36*
X83500D02*
X82935Y76557D01*
X82204Y75996D01*
X81643Y75265D01*
X81409Y74700D01*
X83500D01*
Y76791D01*
D02*
G37*
G36*
X87991Y72300D02*
X85900D01*
Y70209D01*
X86465Y70443D01*
X87196Y71004D01*
X87757Y71735D01*
X87991Y72300D01*
D02*
G37*
G36*
X203600Y73800D02*
X201300D01*
Y72000D01*
X203600D01*
Y73800D01*
D02*
G37*
G36*
X208300D02*
X206000D01*
Y72000D01*
X208300D01*
Y73800D01*
D02*
G37*
G36*
X223000Y71206D02*
Y66500D01*
X227706D01*
X227370Y67607D01*
X226813Y68650D01*
X226063Y69563D01*
X225149Y70313D01*
X224107Y70870D01*
X223000Y71206D01*
D02*
G37*
G36*
X257706Y64100D02*
X253000D01*
Y59394D01*
X254107Y59730D01*
X255150Y60287D01*
X256063Y61037D01*
X256813Y61950D01*
X257370Y62993D01*
X257706Y64100D01*
D02*
G37*
G36*
X73500Y63300D02*
X71409D01*
X71643Y62735D01*
X72204Y62004D01*
X72935Y61443D01*
X73500Y61209D01*
Y63300D01*
D02*
G37*
G36*
X77991D02*
X75900D01*
Y61209D01*
X76465Y61443D01*
X77196Y62004D01*
X77757Y62735D01*
X77991Y63300D01*
D02*
G37*
G36*
X220600Y64100D02*
X215894D01*
X216230Y62993D01*
X216787Y61950D01*
X217537Y61037D01*
X218450Y60287D01*
X219493Y59730D01*
X220600Y59394D01*
Y64100D01*
D02*
G37*
G36*
X227706D02*
X223000D01*
Y59394D01*
X224107Y59730D01*
X225149Y60287D01*
X226063Y61037D01*
X226813Y61950D01*
X227370Y62993D01*
X227706Y64100D01*
D02*
G37*
G36*
X250600D02*
X245894D01*
X246230Y62993D01*
X246787Y61950D01*
X247537Y61037D01*
X248450Y60287D01*
X249493Y59730D01*
X250600Y59394D01*
Y64100D01*
D02*
G37*
G36*
X83500Y63300D02*
X81409D01*
X81643Y62735D01*
X82204Y62004D01*
X82935Y61443D01*
X83500Y61209D01*
Y63300D01*
D02*
G37*
G36*
Y67791D02*
X82935Y67557D01*
X82204Y66996D01*
X81643Y66265D01*
X81409Y65700D01*
X83500D01*
Y67791D01*
D02*
G37*
G36*
X85900D02*
Y65700D01*
X87991D01*
X87757Y66265D01*
X87196Y66996D01*
X86465Y67557D01*
X85900Y67791D01*
D02*
G37*
G36*
X220600Y71206D02*
X219493Y70870D01*
X218450Y70313D01*
X217537Y69563D01*
X216787Y68650D01*
X216230Y67607D01*
X215894Y66500D01*
X220600D01*
Y71206D01*
D02*
G37*
G36*
X87991Y63300D02*
X85900D01*
Y61209D01*
X86465Y61443D01*
X87196Y62004D01*
X87757Y62735D01*
X87991Y63300D01*
D02*
G37*
G36*
X73500Y67791D02*
X72935Y67557D01*
X72204Y66996D01*
X71643Y66265D01*
X71409Y65700D01*
X73500D01*
Y67791D01*
D02*
G37*
G36*
X75900D02*
Y65700D01*
X77991D01*
X77757Y66265D01*
X77196Y66996D01*
X76465Y67557D01*
X75900Y67791D01*
D02*
G37*
G36*
X166600Y140832D02*
X165783Y140494D01*
X164947Y139853D01*
X164306Y139017D01*
X163968Y138200D01*
X166600D01*
Y140832D01*
D02*
G37*
G36*
X169000D02*
Y138200D01*
X171633D01*
X171294Y139017D01*
X170653Y139853D01*
X169817Y140494D01*
X169000Y140832D01*
D02*
G37*
G36*
X157800Y142043D02*
X156495Y141871D01*
X155278Y141367D01*
X154234Y140566D01*
X153433Y139522D01*
X153071Y138648D01*
X152529D01*
X152167Y139522D01*
X151366Y140566D01*
X150322Y141367D01*
X149105Y141871D01*
X147800Y142043D01*
X146495Y141871D01*
X145278Y141367D01*
X144234Y140566D01*
X143432Y139522D01*
X143071Y138648D01*
X142529D01*
X142167Y139522D01*
X141366Y140566D01*
X140322Y141367D01*
X139105Y141871D01*
X137800Y142043D01*
X136495Y141871D01*
X135278Y141367D01*
X134234Y140566D01*
X133432Y139522D01*
X133071Y138648D01*
X132529D01*
X132167Y139522D01*
X131366Y140566D01*
X130322Y141367D01*
X129105Y141871D01*
X127800Y142043D01*
X126495Y141871D01*
X125278Y141367D01*
X124234Y140566D01*
X123433Y139522D01*
X123071Y138648D01*
X122529D01*
X122168Y139522D01*
X121366Y140566D01*
X120322Y141367D01*
X119105Y141871D01*
X117800Y142043D01*
X116495Y141871D01*
X115278Y141367D01*
X114234Y140566D01*
X113433Y139522D01*
X113071Y138648D01*
X112529D01*
X112168Y139522D01*
X111366Y140566D01*
X110322Y141367D01*
X109105Y141871D01*
X107800Y142043D01*
X106495Y141871D01*
X105278Y141367D01*
X104234Y140566D01*
X103433Y139522D01*
X102929Y138305D01*
X102757Y137000D01*
X102929Y135695D01*
X103433Y134478D01*
X104234Y133434D01*
X105278Y132633D01*
X106495Y132129D01*
X107800Y131957D01*
X109105Y132129D01*
X110322Y132633D01*
X111366Y133434D01*
X112168Y134478D01*
X112529Y135352D01*
X113071D01*
X113433Y134478D01*
X114234Y133434D01*
X115278Y132633D01*
X116495Y132129D01*
X117800Y131957D01*
X119105Y132129D01*
X120322Y132633D01*
X121366Y133434D01*
X122168Y134478D01*
X122529Y135352D01*
X123071D01*
X123433Y134478D01*
X124234Y133434D01*
X125278Y132633D01*
X126495Y132129D01*
X127800Y131957D01*
X129105Y132129D01*
X130322Y132633D01*
X131366Y133434D01*
X132167Y134478D01*
X132529Y135352D01*
X133071D01*
X133432Y134478D01*
X134234Y133434D01*
X135278Y132633D01*
X136495Y132129D01*
X137800Y131957D01*
X139105Y132129D01*
X140322Y132633D01*
X141366Y133434D01*
X142167Y134478D01*
X142529Y135352D01*
X143071D01*
X143432Y134478D01*
X144234Y133434D01*
X145278Y132633D01*
X146495Y132129D01*
X147800Y131957D01*
X149105Y132129D01*
X150322Y132633D01*
X151366Y133434D01*
X152167Y134478D01*
X152529Y135352D01*
X153071D01*
X153433Y134478D01*
X154234Y133434D01*
X155278Y132633D01*
X156495Y132129D01*
X157800Y131957D01*
X159105Y132129D01*
X160322Y132633D01*
X161366Y133434D01*
X162168Y134478D01*
X162671Y135695D01*
X162843Y137000D01*
X162671Y138305D01*
X162168Y139522D01*
X161366Y140566D01*
X160322Y141367D01*
X159105Y141871D01*
X157800Y142043D01*
D02*
G37*
G36*
X78000Y142539D02*
X73000D01*
X71825Y142384D01*
X70731Y141931D01*
X69791Y141209D01*
X69069Y140269D01*
X68616Y139175D01*
X68461Y138000D01*
X68616Y136825D01*
X69069Y135731D01*
X69791Y134791D01*
X70731Y134069D01*
X71825Y133616D01*
X73000Y133461D01*
X78000D01*
X79175Y133616D01*
X80269Y134069D01*
X81209Y134791D01*
X81931Y135731D01*
X82384Y136825D01*
X82539Y138000D01*
X82384Y139175D01*
X81931Y140269D01*
X81209Y141209D01*
X80269Y141931D01*
X79175Y142384D01*
X78000Y142539D01*
D02*
G37*
G36*
X188000Y138500D02*
X185700D01*
Y136700D01*
X188000D01*
Y138500D01*
D02*
G37*
G36*
X192700D02*
X190400D01*
Y136700D01*
X192700D01*
Y138500D01*
D02*
G37*
G36*
X211300Y141900D02*
X209500D01*
Y139600D01*
X211300D01*
Y141900D01*
D02*
G37*
G36*
X158100Y172439D02*
X156925Y172284D01*
X155831Y171831D01*
X154891Y171109D01*
X154169Y170169D01*
X153716Y169075D01*
X153561Y167900D01*
X153716Y166725D01*
X154169Y165631D01*
X154727Y164903D01*
X145412Y155588D01*
X144965Y155006D01*
X144684Y154328D01*
X144588Y153600D01*
X144589Y153600D01*
Y151815D01*
X144191Y151509D01*
X143469Y150569D01*
X143016Y149475D01*
X142861Y148300D01*
X143016Y147125D01*
X143469Y146031D01*
X144191Y145091D01*
X145131Y144369D01*
X146225Y143916D01*
X147400Y143761D01*
X148575Y143916D01*
X149669Y144369D01*
X150609Y145091D01*
X151331Y146031D01*
X151784Y147125D01*
X151939Y148300D01*
X151784Y149475D01*
X151331Y150569D01*
X150609Y151509D01*
X150211Y151815D01*
Y152435D01*
X160088Y162312D01*
X160088Y162312D01*
X160535Y162894D01*
X160816Y163572D01*
X160912Y164300D01*
X160911Y164300D01*
Y164385D01*
X161309Y164691D01*
X162031Y165631D01*
X162484Y166725D01*
X162639Y167900D01*
X162484Y169075D01*
X162031Y170169D01*
X161309Y171109D01*
X160369Y171831D01*
X159275Y172284D01*
X158100Y172439D01*
D02*
G37*
G36*
X74300Y146800D02*
X69709D01*
X69943Y146235D01*
X70504Y145504D01*
X71235Y144943D01*
X72086Y144590D01*
X73000Y144470D01*
X74300D01*
Y146800D01*
D02*
G37*
G36*
X81291D02*
X76700D01*
Y144470D01*
X78000D01*
X78914Y144590D01*
X79765Y144943D01*
X80496Y145504D01*
X81057Y146235D01*
X81291Y146800D01*
D02*
G37*
G36*
X215500Y141900D02*
X213700D01*
Y139600D01*
X215500D01*
Y141900D01*
D02*
G37*
G36*
X188000Y142700D02*
X185700D01*
Y140900D01*
X188000D01*
Y142700D01*
D02*
G37*
G36*
X192700D02*
X190400D01*
Y140900D01*
X192700D01*
Y142700D01*
D02*
G37*
G36*
X269600Y135500D02*
X267800D01*
Y133200D01*
X269600D01*
Y135500D01*
D02*
G37*
G36*
X75500Y112541D02*
X73834Y112377D01*
X72231Y111891D01*
X70755Y111102D01*
X69460Y110039D01*
X68398Y108745D01*
X67609Y107269D01*
X67123Y105666D01*
X66959Y104000D01*
X67123Y102334D01*
X67609Y100731D01*
X68398Y99255D01*
X69460Y97961D01*
X70755Y96898D01*
X72231Y96109D01*
X73834Y95623D01*
X75500Y95459D01*
X77166Y95623D01*
X78769Y96109D01*
X80245Y96898D01*
X81539Y97961D01*
X82602Y99255D01*
X83391Y100731D01*
X83877Y102334D01*
X84041Y104000D01*
X83877Y105666D01*
X83391Y107269D01*
X82602Y108745D01*
X81539Y110039D01*
X80245Y111102D01*
X78769Y111891D01*
X77166Y112377D01*
X75500Y112541D01*
D02*
G37*
G36*
X78000Y122539D02*
X73000D01*
X71825Y122384D01*
X70731Y121931D01*
X69791Y121209D01*
X69069Y120269D01*
X68616Y119175D01*
X68461Y118000D01*
X68616Y116825D01*
X69069Y115731D01*
X69791Y114791D01*
X70731Y114069D01*
X71825Y113616D01*
X73000Y113461D01*
X78000D01*
X79175Y113616D01*
X80269Y114069D01*
X81209Y114791D01*
X81931Y115731D01*
X82384Y116825D01*
X82539Y118000D01*
X82384Y119175D01*
X81931Y120269D01*
X81209Y121209D01*
X80269Y121931D01*
X79175Y122384D01*
X78000Y122539D01*
D02*
G37*
G36*
Y132539D02*
X73000D01*
X71825Y132384D01*
X70731Y131931D01*
X69791Y131209D01*
X69069Y130269D01*
X68616Y129175D01*
X68461Y128000D01*
X68616Y126825D01*
X69069Y125731D01*
X69791Y124791D01*
X70731Y124069D01*
X71825Y123616D01*
X73000Y123461D01*
X78000D01*
X79175Y123616D01*
X80269Y124069D01*
X81209Y124791D01*
X81931Y125731D01*
X82384Y126825D01*
X82539Y128000D01*
X82384Y129175D01*
X81931Y130269D01*
X81209Y131209D01*
X80269Y131931D01*
X79175Y132384D01*
X78000Y132539D01*
D02*
G37*
G36*
X85900Y76791D02*
Y74700D01*
X87991D01*
X87757Y75265D01*
X87196Y75996D01*
X86465Y76557D01*
X85900Y76791D01*
D02*
G37*
G36*
X251800Y92334D02*
X250428Y92199D01*
X249108Y91799D01*
X247892Y91149D01*
X246826Y90274D01*
X245952Y89208D01*
X245302Y87992D01*
X244901Y86672D01*
X244766Y85300D01*
X244901Y83928D01*
X245302Y82608D01*
X245952Y81392D01*
X246826Y80326D01*
X247892Y79452D01*
X249108Y78802D01*
X250428Y78401D01*
X251800Y78266D01*
X253172Y78401D01*
X254492Y78802D01*
X255708Y79452D01*
X256774Y80326D01*
X257648Y81392D01*
X258298Y82608D01*
X258699Y83928D01*
X258834Y85300D01*
X258699Y86672D01*
X258298Y87992D01*
X257648Y89208D01*
X256774Y90274D01*
X255708Y91149D01*
X254492Y91799D01*
X253172Y92199D01*
X251800Y92334D01*
D02*
G37*
G36*
X265500Y107541D02*
X263834Y107377D01*
X262231Y106891D01*
X260755Y106102D01*
X259460Y105040D01*
X258398Y103745D01*
X257609Y102269D01*
X257123Y100666D01*
X256959Y99000D01*
X257123Y97334D01*
X257609Y95731D01*
X258398Y94255D01*
X259460Y92961D01*
X260755Y91898D01*
X262231Y91109D01*
X263834Y90623D01*
X265500Y90459D01*
X267166Y90623D01*
X268769Y91109D01*
X270245Y91898D01*
X271539Y92961D01*
X272602Y94255D01*
X273391Y95731D01*
X273877Y97334D01*
X274041Y99000D01*
X273877Y100666D01*
X273391Y102269D01*
X272602Y103745D01*
X271539Y105040D01*
X270245Y106102D01*
X268769Y106891D01*
X267166Y107377D01*
X265500Y107541D01*
D02*
G37*
G36*
X224500Y132400D02*
X216500D01*
Y124600D01*
X215500D01*
Y126700D01*
X209500D01*
Y124600D01*
X208500D01*
Y115600D01*
X208500Y115600D01*
X208500D01*
X208241Y115217D01*
X208114Y115089D01*
X207809Y115109D01*
X206869Y115831D01*
X205775Y116284D01*
X204600Y116439D01*
X203425Y116284D01*
X202331Y115831D01*
X201391Y115109D01*
X200669Y114169D01*
X200216Y113075D01*
X200061Y111900D01*
X200216Y110725D01*
X200669Y109631D01*
X201391Y108691D01*
X201789Y108385D01*
Y103200D01*
X200500D01*
Y102012D01*
X197300D01*
X196572Y101916D01*
X195894Y101635D01*
X195312Y101188D01*
X195312Y101188D01*
X193512Y99388D01*
X193065Y98806D01*
X192784Y98128D01*
X192689Y97400D01*
X192689Y97400D01*
Y72915D01*
X192291Y72609D01*
X191569Y71669D01*
X191116Y70575D01*
X190961Y69400D01*
X191116Y68225D01*
X191569Y67131D01*
X192291Y66191D01*
X193231Y65469D01*
X194325Y65016D01*
X195500Y64861D01*
X196675Y65016D01*
X197769Y65469D01*
X198709Y66191D01*
X199431Y67131D01*
X199884Y68225D01*
X200039Y69400D01*
X199884Y70575D01*
X199431Y71669D01*
X198709Y72609D01*
X198311Y72915D01*
Y96236D01*
X198465Y96389D01*
X200500D01*
Y95200D01*
Y87200D01*
X201713D01*
X202188Y87100D01*
X202189Y87100D01*
Y82800D01*
X200300D01*
Y74800D01*
X209300D01*
Y81783D01*
X209431Y81886D01*
X209800Y82007D01*
X210631Y81369D01*
X211725Y80916D01*
X212900Y80761D01*
X214075Y80916D01*
X215169Y81369D01*
X215426Y81566D01*
X215915Y81461D01*
X215951Y81392D01*
X216826Y80326D01*
X217892Y79452D01*
X219108Y78802D01*
X220428Y78401D01*
X221800Y78266D01*
X223172Y78401D01*
X224492Y78802D01*
X225708Y79452D01*
X226774Y80326D01*
X227648Y81392D01*
X228298Y82608D01*
X228699Y83928D01*
X228834Y85300D01*
X228699Y86672D01*
X228298Y87992D01*
X227648Y89208D01*
X226774Y90274D01*
X225708Y91149D01*
X224492Y91799D01*
X223172Y92199D01*
X221800Y92334D01*
X220428Y92199D01*
X219108Y91799D01*
X217892Y91149D01*
X216826Y90274D01*
X215951Y89208D01*
X215915Y89139D01*
X215426Y89034D01*
X215169Y89231D01*
X214075Y89684D01*
X212900Y89839D01*
X211725Y89684D01*
X210631Y89231D01*
X210000Y88747D01*
X209500Y88994D01*
Y95200D01*
Y103200D01*
X207412D01*
Y108385D01*
X207809Y108691D01*
X208115Y109089D01*
X208900D01*
X208900Y109089D01*
X209628Y109184D01*
X210306Y109465D01*
X210888Y109912D01*
X214488Y113512D01*
X214488Y113512D01*
X214935Y114094D01*
X215216Y114772D01*
X215312Y115500D01*
X215787Y115600D01*
X224500D01*
Y123400D01*
Y132400D01*
D02*
G37*
G36*
X166600Y135800D02*
X163968D01*
X164306Y134983D01*
X164947Y134147D01*
X165783Y133506D01*
X166600Y133168D01*
Y135800D01*
D02*
G37*
G36*
X171633D02*
X169000D01*
Y133168D01*
X169817Y133506D01*
X170653Y134147D01*
X171294Y134983D01*
X171633Y135800D01*
D02*
G37*
G36*
X265400Y135500D02*
X263600D01*
Y133200D01*
X265400D01*
Y135500D01*
D02*
G37*
G36*
X211300Y131400D02*
X209500D01*
Y129100D01*
X211300D01*
Y131400D01*
D02*
G37*
G36*
X215500D02*
X213700D01*
Y129100D01*
X215500D01*
Y131400D01*
D02*
G37*
G36*
X177800Y142043D02*
X176495Y141871D01*
X175278Y141367D01*
X174234Y140566D01*
X173433Y139522D01*
X172929Y138305D01*
X172757Y137000D01*
X172929Y135695D01*
X173433Y134478D01*
X174234Y133434D01*
X175278Y132633D01*
X176495Y132129D01*
X177800Y131957D01*
X179105Y132129D01*
X180322Y132633D01*
X181366Y133434D01*
X182167Y134478D01*
X182671Y135695D01*
X182843Y137000D01*
X182671Y138305D01*
X182167Y139522D01*
X181366Y140566D01*
X180322Y141367D01*
X179105Y141871D01*
X177800Y142043D01*
D02*
G37*
G36*
X43000Y438091D02*
X42435Y437857D01*
X41704Y437296D01*
X41143Y436565D01*
X40909Y436000D01*
X43000D01*
Y438091D01*
D02*
G37*
G36*
X45400D02*
Y436000D01*
X47491D01*
X47257Y436565D01*
X46696Y437296D01*
X45965Y437857D01*
X45400Y438091D01*
D02*
G37*
G36*
X134100Y456339D02*
X132532Y456184D01*
X131024Y455727D01*
X129634Y454984D01*
X128416Y453984D01*
X127416Y452766D01*
X126673Y451376D01*
X126216Y449868D01*
X126061Y448300D01*
X126216Y446732D01*
X126673Y445224D01*
X127416Y443834D01*
X128416Y442616D01*
X129634Y441616D01*
X131024Y440873D01*
X132532Y440416D01*
X134100Y440261D01*
X135668Y440416D01*
X137176Y440873D01*
X138566Y441616D01*
X139784Y442616D01*
X140784Y443834D01*
X141527Y445224D01*
X141984Y446732D01*
X142139Y448300D01*
X141984Y449868D01*
X141527Y451376D01*
X140784Y452766D01*
X139784Y453984D01*
X138566Y454984D01*
X137176Y455727D01*
X135668Y456184D01*
X134100Y456339D01*
D02*
G37*
G36*
X215500Y429548D02*
X214064Y429358D01*
X212726Y428804D01*
X211577Y427923D01*
X210793Y426900D01*
X210627Y426858D01*
X210373D01*
X210207Y426900D01*
X209423Y427923D01*
X208274Y428804D01*
X206936Y429358D01*
X205500Y429548D01*
X204064Y429358D01*
X202726Y428804D01*
X201577Y427923D01*
X200793Y426900D01*
X200627Y426858D01*
X200373D01*
X200207Y426900D01*
X199423Y427923D01*
X198274Y428804D01*
X196936Y429358D01*
X195500Y429548D01*
X194064Y429358D01*
X192726Y428804D01*
X191577Y427923D01*
X190793Y426900D01*
X190627Y426858D01*
X190373D01*
X190207Y426900D01*
X189423Y427923D01*
X188274Y428804D01*
X186936Y429358D01*
X185500Y429548D01*
X184064Y429358D01*
X182726Y428804D01*
X181577Y427923D01*
X180793Y426900D01*
X180627Y426858D01*
X180373D01*
X180207Y426900D01*
X179423Y427923D01*
X178274Y428804D01*
X176936Y429358D01*
X175500Y429548D01*
X174064Y429358D01*
X172726Y428804D01*
X171577Y427923D01*
X170793Y426900D01*
X170627Y426858D01*
X170373D01*
X170207Y426900D01*
X169423Y427923D01*
X168274Y428804D01*
X166936Y429358D01*
X165500Y429548D01*
X164064Y429358D01*
X162726Y428804D01*
X161577Y427923D01*
X160793Y426900D01*
X160627Y426858D01*
X160373D01*
X160207Y426900D01*
X159423Y427923D01*
X158274Y428804D01*
X156936Y429358D01*
X155500Y429548D01*
X154064Y429358D01*
X152726Y428804D01*
X151577Y427923D01*
X150793Y426900D01*
X150627Y426858D01*
X150373D01*
X150207Y426900D01*
X149423Y427923D01*
X148274Y428804D01*
X146936Y429358D01*
X145500Y429548D01*
X144064Y429358D01*
X142726Y428804D01*
X141577Y427923D01*
X140793Y426900D01*
X140627Y426858D01*
X140373D01*
X140207Y426900D01*
X139423Y427923D01*
X138274Y428804D01*
X136936Y429358D01*
X135500Y429548D01*
X134064Y429358D01*
X132726Y428804D01*
X131577Y427923D01*
X130793Y426900D01*
X130627Y426858D01*
X130373D01*
X130207Y426900D01*
X129423Y427923D01*
X128274Y428804D01*
X126936Y429358D01*
X125500Y429548D01*
X124064Y429358D01*
X122726Y428804D01*
X121577Y427923D01*
X120793Y426900D01*
X120627Y426858D01*
X120373D01*
X120207Y426900D01*
X119423Y427923D01*
X118274Y428804D01*
X116936Y429358D01*
X115500Y429548D01*
X114064Y429358D01*
X112726Y428804D01*
X111577Y427923D01*
X110793Y426900D01*
X110627Y426858D01*
X110373D01*
X110207Y426900D01*
X109423Y427923D01*
X108274Y428804D01*
X106936Y429358D01*
X105500Y429548D01*
X104064Y429358D01*
X102726Y428804D01*
X101577Y427923D01*
X100696Y426774D01*
X100142Y425436D01*
X99953Y424000D01*
X100142Y422564D01*
X100696Y421226D01*
X101577Y420077D01*
X102600Y419293D01*
X102643Y419127D01*
Y418873D01*
X102600Y418707D01*
X101577Y417923D01*
X100696Y416774D01*
X100142Y415436D01*
X99953Y414000D01*
X100142Y412564D01*
X100696Y411226D01*
X101577Y410077D01*
X102726Y409196D01*
X104064Y408642D01*
X105500Y408453D01*
X106936Y408642D01*
X108274Y409196D01*
X109423Y410077D01*
X110207Y411100D01*
X110373Y411142D01*
X110627D01*
X110793Y411100D01*
X111577Y410077D01*
X112726Y409196D01*
X114064Y408642D01*
X115500Y408453D01*
X116936Y408642D01*
X118274Y409196D01*
X119423Y410077D01*
X120207Y411100D01*
X120373Y411142D01*
X120627D01*
X120793Y411100D01*
X121577Y410077D01*
X122726Y409196D01*
X124064Y408642D01*
X125500Y408453D01*
X126936Y408642D01*
X128274Y409196D01*
X129423Y410077D01*
X130207Y411100D01*
X130373Y411142D01*
X130627D01*
X130793Y411100D01*
X131577Y410077D01*
X132726Y409196D01*
X134064Y408642D01*
X135500Y408453D01*
X136936Y408642D01*
X138274Y409196D01*
X139423Y410077D01*
X140207Y411100D01*
X140373Y411142D01*
X140627D01*
X140793Y411100D01*
X141577Y410077D01*
X142726Y409196D01*
X144064Y408642D01*
X145500Y408453D01*
X146936Y408642D01*
X148274Y409196D01*
X149423Y410077D01*
X150207Y411100D01*
X150373Y411142D01*
X150627D01*
X150793Y411100D01*
X151577Y410077D01*
X152726Y409196D01*
X154064Y408642D01*
X155500Y408453D01*
X156936Y408642D01*
X158274Y409196D01*
X159423Y410077D01*
X160207Y411100D01*
X160373Y411142D01*
X160627D01*
X160793Y411100D01*
X161577Y410077D01*
X162726Y409196D01*
X164064Y408642D01*
X165500Y408453D01*
X166936Y408642D01*
X168274Y409196D01*
X169423Y410077D01*
X170207Y411100D01*
X170373Y411142D01*
X170627D01*
X170793Y411100D01*
X171577Y410077D01*
X172726Y409196D01*
X174064Y408642D01*
X175500Y408453D01*
X176936Y408642D01*
X178274Y409196D01*
X179423Y410077D01*
X180207Y411100D01*
X180373Y411142D01*
X180627D01*
X180793Y411100D01*
X181577Y410077D01*
X182726Y409196D01*
X184064Y408642D01*
X185500Y408453D01*
X186936Y408642D01*
X188274Y409196D01*
X189423Y410077D01*
X190207Y411100D01*
X190373Y411142D01*
X190627D01*
X190793Y411100D01*
X191577Y410077D01*
X192726Y409196D01*
X194064Y408642D01*
X195500Y408453D01*
X196936Y408642D01*
X198274Y409196D01*
X199423Y410077D01*
X200207Y411100D01*
X200373Y411142D01*
X200627D01*
X200793Y411100D01*
X201577Y410077D01*
X202726Y409196D01*
X204064Y408642D01*
X205500Y408453D01*
X206936Y408642D01*
X208274Y409196D01*
X209423Y410077D01*
X210207Y411100D01*
X210373Y411142D01*
X210627D01*
X210793Y411100D01*
X211577Y410077D01*
X212726Y409196D01*
X214064Y408642D01*
X215500Y408453D01*
X216936Y408642D01*
X218274Y409196D01*
X219423Y410077D01*
X220304Y411226D01*
X220858Y412564D01*
X221047Y414000D01*
X220858Y415436D01*
X220304Y416774D01*
X219423Y417923D01*
X218400Y418707D01*
X218357Y418873D01*
Y419127D01*
X218400Y419293D01*
X219423Y420077D01*
X220304Y421226D01*
X220858Y422564D01*
X221047Y424000D01*
X220858Y425436D01*
X220304Y426774D01*
X219423Y427923D01*
X218274Y428804D01*
X216936Y429358D01*
X215500Y429548D01*
D02*
G37*
G36*
X43000Y433600D02*
X40909D01*
X41143Y433035D01*
X41704Y432304D01*
X42435Y431743D01*
X43000Y431509D01*
Y433600D01*
D02*
G37*
G36*
X47491D02*
X45400D01*
Y431509D01*
X45965Y431743D01*
X46696Y432304D01*
X47257Y433035D01*
X47491Y433600D01*
D02*
G37*
G36*
X183300Y456339D02*
X181732Y456184D01*
X180224Y455727D01*
X178834Y454984D01*
X177616Y453984D01*
X176616Y452766D01*
X175873Y451376D01*
X175416Y449868D01*
X175261Y448300D01*
X175416Y446732D01*
X175873Y445224D01*
X176616Y443834D01*
X177616Y442616D01*
X178834Y441616D01*
X180224Y440873D01*
X181732Y440416D01*
X183300Y440261D01*
X184868Y440416D01*
X186376Y440873D01*
X187766Y441616D01*
X188984Y442616D01*
X189984Y443834D01*
X190727Y445224D01*
X191184Y446732D01*
X191339Y448300D01*
X191184Y449868D01*
X190727Y451376D01*
X189984Y452766D01*
X188984Y453984D01*
X187766Y454984D01*
X186376Y455727D01*
X184868Y456184D01*
X183300Y456339D01*
D02*
G37*
G36*
X220600Y456300D02*
X204600D01*
Y440300D01*
X220600D01*
Y456300D01*
D02*
G37*
G36*
X93400Y442700D02*
X91309D01*
X91543Y442135D01*
X92104Y441404D01*
X92835Y440843D01*
X93400Y440609D01*
Y442700D01*
D02*
G37*
G36*
X97891D02*
X95800D01*
Y440609D01*
X96365Y440843D01*
X97096Y441404D01*
X97657Y442135D01*
X97891Y442700D01*
D02*
G37*
G36*
X232600Y456339D02*
X231032Y456184D01*
X229524Y455727D01*
X228134Y454984D01*
X226916Y453984D01*
X225916Y452766D01*
X225173Y451376D01*
X224716Y449868D01*
X224561Y448300D01*
X224716Y446732D01*
X225173Y445224D01*
X225916Y443834D01*
X226916Y442616D01*
X228134Y441616D01*
X229524Y440873D01*
X231032Y440416D01*
X232600Y440261D01*
X234168Y440416D01*
X235676Y440873D01*
X237066Y441616D01*
X238284Y442616D01*
X239284Y443834D01*
X240027Y445224D01*
X240484Y446732D01*
X240639Y448300D01*
X240484Y449868D01*
X240027Y451376D01*
X239284Y452766D01*
X238284Y453984D01*
X237066Y454984D01*
X235676Y455727D01*
X234168Y456184D01*
X232600Y456339D01*
D02*
G37*
G36*
X122100Y456300D02*
X106100D01*
Y440300D01*
X122100D01*
Y456300D01*
D02*
G37*
G36*
X171300D02*
X155300D01*
Y440300D01*
X171300D01*
Y456300D01*
D02*
G37*
G36*
X238600Y412100D02*
X236300D01*
Y410300D01*
X238600D01*
Y412100D01*
D02*
G37*
G36*
X233900Y416300D02*
X231600D01*
Y414500D01*
X233900D01*
Y416300D01*
D02*
G37*
G36*
X238600D02*
X236300D01*
Y414500D01*
X238600D01*
Y416300D01*
D02*
G37*
G36*
X244300Y412800D02*
X241126D01*
X241569Y411731D01*
X242291Y410791D01*
X243231Y410069D01*
X244300Y409626D01*
Y412800D01*
D02*
G37*
G36*
X249874D02*
X246700D01*
Y409626D01*
X247769Y410069D01*
X248709Y410791D01*
X249431Y411731D01*
X249874Y412800D01*
D02*
G37*
G36*
X233900Y412100D02*
X231600D01*
Y410300D01*
X233900D01*
Y412100D01*
D02*
G37*
G36*
X244300Y418374D02*
X243231Y417931D01*
X242291Y417209D01*
X241569Y416269D01*
X241126Y415200D01*
X244300D01*
Y418374D01*
D02*
G37*
G36*
X249874Y422800D02*
X246700D01*
Y419626D01*
X247769Y420069D01*
X248709Y420791D01*
X249431Y421731D01*
X249874Y422800D01*
D02*
G37*
G36*
X244300Y428374D02*
X243231Y427931D01*
X242291Y427209D01*
X241569Y426269D01*
X241126Y425200D01*
X244300D01*
Y428374D01*
D02*
G37*
G36*
X246700D02*
Y425200D01*
X249874D01*
X249431Y426269D01*
X248709Y427209D01*
X247769Y427931D01*
X246700Y428374D01*
D02*
G37*
G36*
Y418374D02*
Y415200D01*
X249874D01*
X249431Y416269D01*
X248709Y417209D01*
X247769Y417931D01*
X246700Y418374D01*
D02*
G37*
G36*
X265500Y432541D02*
X263834Y432377D01*
X262231Y431891D01*
X260755Y431102D01*
X259460Y430040D01*
X258398Y428745D01*
X257609Y427269D01*
X257123Y425666D01*
X256959Y424000D01*
X257123Y422334D01*
X257609Y420731D01*
X258398Y419255D01*
X259460Y417961D01*
X260755Y416898D01*
X262231Y416109D01*
X263834Y415623D01*
X265500Y415459D01*
X267166Y415623D01*
X268769Y416109D01*
X270245Y416898D01*
X271539Y417961D01*
X272602Y419255D01*
X273391Y420731D01*
X273877Y422334D01*
X274041Y424000D01*
X273877Y425666D01*
X273391Y427269D01*
X272602Y428745D01*
X271539Y430040D01*
X270245Y431102D01*
X268769Y431891D01*
X267166Y432377D01*
X265500Y432541D01*
D02*
G37*
G36*
X244300Y422800D02*
X241126D01*
X241569Y421731D01*
X242291Y420791D01*
X243231Y420069D01*
X244300Y419626D01*
Y422800D01*
D02*
G37*
G36*
X286700Y442800D02*
X284609D01*
X284843Y442235D01*
X285404Y441504D01*
X286135Y440943D01*
X286700Y440709D01*
Y442800D01*
D02*
G37*
G36*
X273400Y462630D02*
X272486Y462510D01*
X271635Y462157D01*
X270904Y461596D01*
X270343Y460865D01*
X270109Y460300D01*
X273400D01*
Y459100D01*
X274600D01*
Y455809D01*
X275165Y456043D01*
X275896Y456604D01*
X276457Y457335D01*
X276810Y458186D01*
X276930Y459100D01*
X276810Y460014D01*
X276457Y460865D01*
X275896Y461596D01*
X275165Y462157D01*
X274314Y462510D01*
X273400Y462630D01*
D02*
G37*
G36*
X88300Y463391D02*
X87735Y463157D01*
X87004Y462596D01*
X86443Y461865D01*
X86209Y461300D01*
X88300D01*
Y463391D01*
D02*
G37*
G36*
X90700D02*
Y461300D01*
X92791D01*
X92557Y461865D01*
X91996Y462596D01*
X91265Y463157D01*
X90700Y463391D01*
D02*
G37*
G36*
X279300Y454391D02*
X278735Y454157D01*
X278004Y453596D01*
X277443Y452865D01*
X277209Y452300D01*
X279300D01*
Y454391D01*
D02*
G37*
G36*
X281700D02*
Y452300D01*
X283791D01*
X283557Y452865D01*
X282996Y453596D01*
X282265Y454157D01*
X281700Y454391D01*
D02*
G37*
G36*
X272200Y457900D02*
X270109D01*
X270343Y457335D01*
X270904Y456604D01*
X271635Y456043D01*
X272200Y455809D01*
Y457900D01*
D02*
G37*
G36*
X263500Y465200D02*
X261409D01*
X261643Y464635D01*
X262204Y463904D01*
X262935Y463343D01*
X263500Y463109D01*
Y465200D01*
D02*
G37*
G36*
X148361Y479836D02*
X97100D01*
Y469900D01*
X148361D01*
Y479836D01*
D02*
G37*
G36*
X194545D02*
X150500D01*
Y469900D01*
X194545D01*
Y479836D01*
D02*
G37*
G36*
X245146D02*
X201100D01*
Y469900D01*
X245146D01*
Y479836D01*
D02*
G37*
G36*
X267991Y465200D02*
X265900D01*
Y463109D01*
X266465Y463343D01*
X267196Y463904D01*
X267757Y464635D01*
X267991Y465200D01*
D02*
G37*
G36*
X263500Y469691D02*
X262935Y469457D01*
X262204Y468896D01*
X261643Y468165D01*
X261409Y467600D01*
X263500D01*
Y469691D01*
D02*
G37*
G36*
X265900D02*
Y467600D01*
X267991D01*
X267757Y468165D01*
X267196Y468896D01*
X266465Y469457D01*
X265900Y469691D01*
D02*
G37*
G36*
X80600Y444847D02*
X79164Y444658D01*
X77826Y444104D01*
X76677Y443223D01*
X75893Y442200D01*
X75727Y442158D01*
X75473D01*
X75307Y442200D01*
X74523Y443223D01*
X73374Y444104D01*
X72036Y444658D01*
X70600Y444847D01*
X69164Y444658D01*
X67826Y444104D01*
X66677Y443223D01*
X65796Y442074D01*
X65242Y440736D01*
X65052Y439300D01*
X65242Y437864D01*
X65796Y436526D01*
X66677Y435377D01*
X67826Y434496D01*
X69164Y433942D01*
X70600Y433752D01*
X72036Y433942D01*
X73374Y434496D01*
X74523Y435377D01*
X75307Y436400D01*
X75473Y436443D01*
X75727D01*
X75893Y436400D01*
X76677Y435377D01*
X77826Y434496D01*
X79164Y433942D01*
X80600Y433752D01*
X82036Y433942D01*
X83374Y434496D01*
X84523Y435377D01*
X85404Y436526D01*
X85958Y437864D01*
X86147Y439300D01*
X85958Y440736D01*
X85404Y442074D01*
X84523Y443223D01*
X83374Y444104D01*
X82036Y444658D01*
X80600Y444847D01*
D02*
G37*
G36*
X93400Y447191D02*
X92835Y446957D01*
X92104Y446396D01*
X91543Y445665D01*
X91309Y445100D01*
X93400D01*
Y447191D01*
D02*
G37*
G36*
X95800D02*
Y445100D01*
X97891D01*
X97657Y445665D01*
X97096Y446396D01*
X96365Y446957D01*
X95800Y447191D01*
D02*
G37*
G36*
X291191Y442800D02*
X289100D01*
Y440709D01*
X289665Y440943D01*
X290396Y441504D01*
X290957Y442235D01*
X291191Y442800D01*
D02*
G37*
G36*
X54200Y443000D02*
X52109D01*
X52343Y442435D01*
X52904Y441704D01*
X53635Y441143D01*
X54200Y440909D01*
Y443000D01*
D02*
G37*
G36*
X58691D02*
X56600D01*
Y440909D01*
X57165Y441143D01*
X57896Y441704D01*
X58457Y442435D01*
X58691Y443000D01*
D02*
G37*
G36*
X286700Y447291D02*
X286135Y447057D01*
X285404Y446496D01*
X284843Y445765D01*
X284609Y445200D01*
X286700D01*
Y447291D01*
D02*
G37*
G36*
X92791Y458900D02*
X86209D01*
X86443Y458335D01*
X86624Y458098D01*
X86378Y457598D01*
X62700D01*
Y445600D01*
X90693D01*
Y456806D01*
X91265Y457043D01*
X91996Y457604D01*
X92557Y458335D01*
X92791Y458900D01*
D02*
G37*
G36*
X279300Y449900D02*
X277209D01*
X277443Y449335D01*
X278004Y448604D01*
X278735Y448043D01*
X279300Y447809D01*
Y449900D01*
D02*
G37*
G36*
X283791D02*
X281700D01*
Y447809D01*
X282265Y448043D01*
X282996Y448604D01*
X283557Y449335D01*
X283791Y449900D01*
D02*
G37*
G36*
X289100Y447291D02*
Y445200D01*
X291191D01*
X290957Y445765D01*
X290396Y446496D01*
X289665Y447057D01*
X289100Y447291D01*
D02*
G37*
G36*
X54200Y447491D02*
X53635Y447257D01*
X52904Y446696D01*
X52343Y445965D01*
X52109Y445400D01*
X54200D01*
Y447491D01*
D02*
G37*
G36*
X56600D02*
Y445400D01*
X58691D01*
X58457Y445965D01*
X57896Y446696D01*
X57165Y447257D01*
X56600Y447491D01*
D02*
G37*
G36*
X195500Y405000D02*
X193200D01*
Y403200D01*
X195500D01*
Y405000D01*
D02*
G37*
G36*
X116600Y346400D02*
X110884D01*
X110901Y346228D01*
X111302Y344908D01*
X111951Y343692D01*
X112826Y342626D01*
X113892Y341752D01*
X115108Y341102D01*
X116428Y340701D01*
X116600Y340684D01*
Y346400D01*
D02*
G37*
G36*
X124716D02*
X119000D01*
Y340684D01*
X119172Y340701D01*
X120492Y341102D01*
X121708Y341752D01*
X122774Y342626D01*
X123649Y343692D01*
X124299Y344908D01*
X124699Y346228D01*
X124716Y346400D01*
D02*
G37*
G36*
X106698Y369700D02*
X94700D01*
Y347705D01*
X106698D01*
Y369700D01*
D02*
G37*
G36*
X78000Y348539D02*
X73000D01*
X71825Y348384D01*
X70731Y347931D01*
X69791Y347209D01*
X69069Y346269D01*
X68616Y345175D01*
X68461Y344000D01*
X68616Y342825D01*
X69069Y341731D01*
X69791Y340791D01*
X70731Y340069D01*
X71825Y339616D01*
X73000Y339461D01*
X78000D01*
X79175Y339616D01*
X80269Y340069D01*
X81209Y340791D01*
X81931Y341731D01*
X82384Y342825D01*
X82539Y344000D01*
X82384Y345175D01*
X81931Y346269D01*
X81209Y347209D01*
X80269Y347931D01*
X79175Y348384D01*
X78000Y348539D01*
D02*
G37*
G36*
X268000D02*
X263000D01*
X261825Y348384D01*
X260731Y347931D01*
X259791Y347209D01*
X259069Y346269D01*
X258616Y345175D01*
X258461Y344000D01*
X258616Y342825D01*
X259069Y341731D01*
X259791Y340791D01*
X260731Y340069D01*
X261825Y339616D01*
X263000Y339461D01*
X268000D01*
X269175Y339616D01*
X270269Y340069D01*
X271209Y340791D01*
X271931Y341731D01*
X272384Y342825D01*
X272539Y344000D01*
X272384Y345175D01*
X271931Y346269D01*
X271209Y347209D01*
X270269Y347931D01*
X269175Y348384D01*
X268000Y348539D01*
D02*
G37*
G36*
X139900Y355739D02*
X138332Y355584D01*
X136824Y355127D01*
X135434Y354384D01*
X134216Y353384D01*
X133216Y352166D01*
X132473Y350776D01*
X132016Y349268D01*
X131861Y347700D01*
X132016Y346132D01*
X132473Y344624D01*
X133216Y343234D01*
X134216Y342016D01*
X135434Y341016D01*
X136824Y340273D01*
X138332Y339816D01*
X139900Y339661D01*
X141468Y339816D01*
X142976Y340273D01*
X144366Y341016D01*
X145584Y342016D01*
X146584Y343234D01*
X147327Y344624D01*
X147784Y346132D01*
X147939Y347700D01*
X147784Y349268D01*
X147327Y350776D01*
X146584Y352166D01*
X145584Y353384D01*
X144366Y354384D01*
X142976Y355127D01*
X141468Y355584D01*
X139900Y355739D01*
D02*
G37*
G36*
X116600Y354516D02*
X116428Y354499D01*
X115108Y354099D01*
X113892Y353449D01*
X112826Y352574D01*
X111951Y351508D01*
X111302Y350292D01*
X110901Y348972D01*
X110884Y348800D01*
X116600D01*
Y354516D01*
D02*
G37*
G36*
X206300Y358500D02*
X203667D01*
X204006Y357683D01*
X204647Y356847D01*
X205483Y356206D01*
X206300Y355868D01*
Y358500D01*
D02*
G37*
G36*
X211333D02*
X208700D01*
Y355868D01*
X209517Y356206D01*
X210353Y356847D01*
X210994Y357683D01*
X211333Y358500D01*
D02*
G37*
G36*
X236221D02*
X233589D01*
X233927Y357683D01*
X234568Y356847D01*
X235404Y356206D01*
X236221Y355868D01*
Y358500D01*
D02*
G37*
G36*
X119000Y354516D02*
Y348800D01*
X124716D01*
X124699Y348972D01*
X124299Y350292D01*
X123649Y351508D01*
X122774Y352574D01*
X121708Y353449D01*
X120492Y354099D01*
X119172Y354499D01*
X119000Y354516D01*
D02*
G37*
G36*
X78000Y358539D02*
X73000D01*
X71825Y358384D01*
X70731Y357931D01*
X69791Y357209D01*
X69069Y356269D01*
X68616Y355175D01*
X68461Y354000D01*
X68616Y352825D01*
X69069Y351731D01*
X69791Y350791D01*
X70731Y350069D01*
X71825Y349616D01*
X73000Y349461D01*
X78000D01*
X79175Y349616D01*
X80269Y350069D01*
X81209Y350791D01*
X81931Y351731D01*
X82384Y352825D01*
X82539Y354000D01*
X82384Y355175D01*
X81931Y356269D01*
X81209Y357209D01*
X80269Y357931D01*
X79175Y358384D01*
X78000Y358539D01*
D02*
G37*
G36*
X268000D02*
X263000D01*
X261825Y358384D01*
X260731Y357931D01*
X259791Y357209D01*
X259069Y356269D01*
X258616Y355175D01*
X258461Y354000D01*
X258616Y352825D01*
X259069Y351731D01*
X259791Y350791D01*
X260731Y350069D01*
X261825Y349616D01*
X263000Y349461D01*
X268000D01*
X269175Y349616D01*
X270269Y350069D01*
X271209Y350791D01*
X271931Y351731D01*
X272384Y352825D01*
X272539Y354000D01*
X272384Y355175D01*
X271931Y356269D01*
X271209Y357209D01*
X270269Y357931D01*
X269175Y358384D01*
X268000Y358539D01*
D02*
G37*
G36*
X227891Y321600D02*
X225800D01*
Y319509D01*
X226365Y319743D01*
X227096Y320304D01*
X227657Y321035D01*
X227891Y321600D01*
D02*
G37*
G36*
X223400Y326091D02*
X222835Y325857D01*
X222104Y325296D01*
X221543Y324565D01*
X221309Y324000D01*
X223400D01*
Y326091D01*
D02*
G37*
G36*
X225800D02*
Y324000D01*
X227891D01*
X227657Y324565D01*
X227096Y325296D01*
X226365Y325857D01*
X225800Y326091D01*
D02*
G37*
G36*
X107100Y304991D02*
Y302900D01*
X109191D01*
X108957Y303465D01*
X108396Y304196D01*
X107665Y304757D01*
X107100Y304991D01*
D02*
G37*
G36*
X78000Y328539D02*
X73000D01*
X71825Y328384D01*
X70731Y327931D01*
X69791Y327209D01*
X69069Y326269D01*
X68616Y325175D01*
X68461Y324000D01*
X68616Y322825D01*
X69069Y321731D01*
X69791Y320791D01*
X70731Y320069D01*
X71825Y319616D01*
X73000Y319461D01*
X78000D01*
X79175Y319616D01*
X80269Y320069D01*
X81209Y320791D01*
X81931Y321731D01*
X82384Y322825D01*
X82539Y324000D01*
X82384Y325175D01*
X81931Y326269D01*
X81209Y327209D01*
X80269Y327931D01*
X79175Y328384D01*
X78000Y328539D01*
D02*
G37*
G36*
X223400Y321600D02*
X221309D01*
X221543Y321035D01*
X222104Y320304D01*
X222835Y319743D01*
X223400Y319509D01*
Y321600D01*
D02*
G37*
G36*
X100000Y331400D02*
X98200D01*
Y329100D01*
X100000D01*
Y331400D01*
D02*
G37*
G36*
Y336100D02*
X98200D01*
Y333800D01*
X100000D01*
Y336100D01*
D02*
G37*
G36*
X104200D02*
X102400D01*
Y333800D01*
X104200D01*
Y336100D01*
D02*
G37*
G36*
X163198Y376400D02*
X151200D01*
Y336411D01*
X163198D01*
Y376400D01*
D02*
G37*
G36*
X104200Y331400D02*
X102400D01*
Y329100D01*
X104200D01*
Y331400D01*
D02*
G37*
G36*
X54600Y355000D02*
X45600D01*
Y347000D01*
X46891D01*
Y338100D01*
X45600D01*
Y330100D01*
Y322100D01*
X47391D01*
Y319710D01*
X47391Y319709D01*
X46669Y318769D01*
X46216Y317675D01*
X46061Y316500D01*
X46216Y315325D01*
X46669Y314231D01*
X47391Y313291D01*
X48331Y312569D01*
X49425Y312116D01*
X50600Y311961D01*
X51775Y312116D01*
X52869Y312569D01*
X53809Y313291D01*
X54531Y314231D01*
X54984Y315325D01*
X55139Y316500D01*
X54984Y317675D01*
X54531Y318769D01*
X53809Y319709D01*
X53809Y319710D01*
Y322100D01*
X54600D01*
Y330791D01*
X69790D01*
X69791Y330791D01*
X70731Y330069D01*
X71825Y329616D01*
X73000Y329461D01*
X78000D01*
X79175Y329616D01*
X80269Y330069D01*
X81209Y330791D01*
X81931Y331731D01*
X82384Y332825D01*
X82539Y334000D01*
X82384Y335175D01*
X81931Y336269D01*
X81209Y337209D01*
X80269Y337931D01*
X79175Y338384D01*
X78000Y338539D01*
X73000D01*
X71825Y338384D01*
X70731Y337931D01*
X69791Y337209D01*
X69790Y337209D01*
X54600D01*
Y338100D01*
X53309D01*
Y347000D01*
X54600D01*
Y355000D01*
D02*
G37*
G36*
X268000Y338539D02*
X263000D01*
X261825Y338384D01*
X260731Y337931D01*
X259791Y337209D01*
X259069Y336269D01*
X258616Y335175D01*
X258461Y334000D01*
X258502Y333687D01*
X258173Y333312D01*
X256515D01*
X256209Y333709D01*
X255269Y334431D01*
X254175Y334884D01*
X253000Y335039D01*
X251825Y334884D01*
X250731Y334431D01*
X249791Y333709D01*
X249069Y332769D01*
X248616Y331675D01*
X248461Y330500D01*
X248616Y329325D01*
X249069Y328231D01*
X249791Y327291D01*
X250188Y326985D01*
Y318011D01*
X242800D01*
X242072Y317916D01*
X241394Y317635D01*
X240812Y317188D01*
X240812Y317188D01*
X233912Y310288D01*
X233465Y309706D01*
X233184Y309028D01*
X233088Y308300D01*
X233088Y308300D01*
Y304364D01*
X232935Y304211D01*
X226900D01*
Y305400D01*
X225212D01*
Y305900D01*
X225212Y305900D01*
X225116Y306628D01*
X224835Y307306D01*
X224388Y307888D01*
X224388Y307888D01*
X222788Y309488D01*
X222206Y309935D01*
X221528Y310216D01*
X220800Y310312D01*
X220800Y310312D01*
X214600D01*
X213872Y310216D01*
X213194Y309935D01*
X212612Y309488D01*
X212612Y309488D01*
X211093Y307969D01*
X210593Y308176D01*
Y309918D01*
X210497Y310646D01*
X210217Y311324D01*
X209770Y311906D01*
X209770Y311906D01*
X207988Y313688D01*
X207406Y314135D01*
X206728Y314416D01*
X206000Y314511D01*
X206000Y314511D01*
X169400D01*
X168672Y314416D01*
X167994Y314135D01*
X167412Y313688D01*
X167412Y313688D01*
X163512Y309788D01*
X163065Y309206D01*
X162935Y308891D01*
X162726Y308804D01*
X161577Y307923D01*
X160793Y306900D01*
X160627Y306857D01*
X160373D01*
X160207Y306900D01*
X159423Y307923D01*
X158274Y308804D01*
X156936Y309358D01*
X155500Y309547D01*
X154064Y309358D01*
X152726Y308804D01*
X151577Y307923D01*
X150696Y306774D01*
X150142Y305436D01*
X149952Y304000D01*
X150142Y302564D01*
X150696Y301226D01*
X151577Y300077D01*
X152600Y299293D01*
X152643Y299127D01*
Y298873D01*
X152600Y298707D01*
X151577Y297923D01*
X150696Y296774D01*
X150142Y295436D01*
X149952Y294000D01*
X150142Y292564D01*
X150696Y291226D01*
X151577Y290077D01*
X152726Y289196D01*
X154064Y288642D01*
X155500Y288453D01*
X156936Y288642D01*
X158274Y289196D01*
X159423Y290077D01*
X160207Y291100D01*
X160373Y291143D01*
X160627D01*
X160793Y291100D01*
X161577Y290077D01*
X162689Y289225D01*
Y285800D01*
X162689Y285800D01*
X162784Y285072D01*
X163065Y284394D01*
X163512Y283812D01*
X166012Y281312D01*
X166012Y281312D01*
X166594Y280865D01*
X167272Y280584D01*
X168000Y280488D01*
X194734D01*
Y277884D01*
X194830Y277157D01*
X194955Y276855D01*
Y273916D01*
X199187D01*
X199378Y273454D01*
X196466Y270542D01*
X196025Y270484D01*
X194931Y270031D01*
X193991Y269309D01*
X193269Y268369D01*
X192816Y267275D01*
X192661Y266100D01*
X192816Y264925D01*
X193269Y263831D01*
X193991Y262891D01*
X194931Y262169D01*
X196025Y261716D01*
X197200Y261561D01*
X198375Y261716D01*
X199469Y262169D01*
X200409Y262891D01*
X200885Y263510D01*
X201515D01*
X201991Y262891D01*
X202389Y262585D01*
Y259765D01*
X198235Y255611D01*
X195715D01*
X195409Y256009D01*
X194469Y256731D01*
X193375Y257184D01*
X192200Y257339D01*
X191025Y257184D01*
X189931Y256731D01*
X188991Y256009D01*
X188269Y255069D01*
X187816Y253975D01*
X187661Y252800D01*
X187816Y251625D01*
X188269Y250531D01*
X188991Y249591D01*
X189931Y248869D01*
X190731Y248538D01*
Y247997D01*
X190331Y247831D01*
X189391Y247109D01*
X188669Y246169D01*
X188216Y245075D01*
X188061Y243900D01*
X188216Y242725D01*
X188669Y241631D01*
X189391Y240691D01*
X190331Y239969D01*
X191425Y239516D01*
X192600Y239361D01*
X193775Y239516D01*
X194869Y239969D01*
X195809Y240691D01*
X196115Y241089D01*
X201200D01*
X201200Y241089D01*
X201928Y241184D01*
X202606Y241465D01*
X203188Y241912D01*
X215188Y253912D01*
X215188Y253912D01*
X215635Y254494D01*
X215916Y255172D01*
X216012Y255900D01*
Y262585D01*
X216409Y262891D01*
X217131Y263831D01*
X217584Y264925D01*
X217739Y266100D01*
X217584Y267275D01*
X217131Y268369D01*
X216409Y269309D01*
X215469Y270031D01*
X215330Y270089D01*
X215429Y270588D01*
X221100D01*
X221100Y270588D01*
X221828Y270684D01*
X222506Y270965D01*
X223088Y271412D01*
X224188Y272512D01*
X224188Y272512D01*
X224635Y273094D01*
X224916Y273772D01*
X225011Y274500D01*
Y275289D01*
X229485D01*
X229791Y274891D01*
X230731Y274169D01*
X231825Y273716D01*
X233000Y273561D01*
X234175Y273716D01*
X235269Y274169D01*
X236209Y274891D01*
X236931Y275831D01*
X237384Y276925D01*
X237539Y278100D01*
X237384Y279275D01*
X236931Y280369D01*
X236209Y281309D01*
X235269Y282031D01*
X234175Y282484D01*
X233000Y282639D01*
X231825Y282484D01*
X230731Y282031D01*
X229791Y281309D01*
X229485Y280911D01*
X226700D01*
Y283600D01*
X217700D01*
Y276212D01*
X215711D01*
Y277884D01*
X215616Y278612D01*
X215491Y278914D01*
Y281853D01*
X202741D01*
X202549Y282315D01*
X214888Y294654D01*
X214888Y294654D01*
X215335Y295236D01*
X215616Y295914D01*
X215711Y296641D01*
X215711Y296642D01*
Y301900D01*
Y304635D01*
X215764Y304689D01*
X217900D01*
Y297400D01*
X226900D01*
Y298588D01*
X234100D01*
X234100Y298588D01*
X234828Y298684D01*
X235506Y298965D01*
X236088Y299412D01*
X237169Y300493D01*
X237785Y300402D01*
X238398Y299255D01*
X239460Y297960D01*
X240755Y296898D01*
X242231Y296109D01*
X243834Y295623D01*
X245500Y295459D01*
X247166Y295623D01*
X248769Y296109D01*
X250245Y296898D01*
X251539Y297960D01*
X252602Y299255D01*
X253391Y300731D01*
X253877Y302334D01*
X254041Y304000D01*
X253877Y305666D01*
X253391Y307269D01*
X252602Y308745D01*
X251539Y310039D01*
X250245Y311102D01*
X248769Y311891D01*
X248851Y312388D01*
X251700D01*
X251700Y312388D01*
X252428Y312484D01*
X253106Y312765D01*
X253688Y313212D01*
X254988Y314512D01*
X254988Y314512D01*
X255435Y315094D01*
X255716Y315772D01*
X255812Y316500D01*
X255812Y316500D01*
Y326985D01*
X256209Y327291D01*
X256515Y327689D01*
X259435D01*
X268145Y318979D01*
X267878Y318539D01*
X263000D01*
X261825Y318384D01*
X260731Y317931D01*
X259791Y317209D01*
X259069Y316269D01*
X258616Y315175D01*
X258461Y314000D01*
X258616Y312825D01*
X259069Y311731D01*
X259791Y310791D01*
X260731Y310069D01*
X261825Y309616D01*
X263000Y309461D01*
X268000D01*
X269175Y309616D01*
X270269Y310069D01*
X270740Y310430D01*
X271188Y310209D01*
Y307791D01*
X270740Y307570D01*
X270269Y307931D01*
X269175Y308384D01*
X268000Y308539D01*
X263000D01*
X261825Y308384D01*
X260731Y307931D01*
X259791Y307209D01*
X259069Y306269D01*
X258616Y305175D01*
X258461Y304000D01*
X258616Y302825D01*
X259069Y301731D01*
X259791Y300791D01*
X260731Y300069D01*
X261825Y299616D01*
X263000Y299461D01*
X268000D01*
X269175Y299616D01*
X270269Y300069D01*
X270740Y300430D01*
X271188Y300209D01*
Y297791D01*
X270740Y297570D01*
X270269Y297931D01*
X269175Y298384D01*
X268000Y298539D01*
X263000D01*
X261825Y298384D01*
X260731Y297931D01*
X259791Y297209D01*
X259069Y296269D01*
X258616Y295175D01*
X258461Y294000D01*
X258616Y292825D01*
X259069Y291731D01*
X259791Y290791D01*
X260731Y290069D01*
X261825Y289616D01*
X263000Y289461D01*
X268000D01*
X269175Y289616D01*
X270269Y290069D01*
X270740Y290430D01*
X271188Y290209D01*
Y287791D01*
X270740Y287570D01*
X270269Y287931D01*
X269175Y288384D01*
X268000Y288539D01*
X263000D01*
X261825Y288384D01*
X260731Y287931D01*
X259791Y287209D01*
X259069Y286269D01*
X258616Y285175D01*
X258461Y284000D01*
X258616Y282825D01*
X259069Y281731D01*
X259791Y280791D01*
X260731Y280069D01*
X261825Y279616D01*
X263000Y279461D01*
X268000D01*
X269175Y279616D01*
X270269Y280069D01*
X270740Y280430D01*
X271188Y280209D01*
Y277791D01*
X270740Y277570D01*
X270269Y277931D01*
X269175Y278384D01*
X268000Y278539D01*
X263000D01*
X261825Y278384D01*
X260731Y277931D01*
X259791Y277209D01*
X259069Y276269D01*
X258616Y275175D01*
X258461Y274000D01*
X258616Y272825D01*
X259069Y271731D01*
X259791Y270791D01*
X260731Y270069D01*
X261825Y269616D01*
X263000Y269461D01*
X268000D01*
X269175Y269616D01*
X270269Y270069D01*
X270740Y270430D01*
X271188Y270209D01*
Y267791D01*
X270740Y267570D01*
X270269Y267931D01*
X269175Y268384D01*
X268000Y268539D01*
X263000D01*
X261825Y268384D01*
X260731Y267931D01*
X259791Y267209D01*
X259069Y266269D01*
X258616Y265175D01*
X258461Y264000D01*
X258616Y262825D01*
X259069Y261731D01*
X259791Y260791D01*
X260731Y260069D01*
X261825Y259616D01*
X263000Y259461D01*
X268000D01*
X269175Y259616D01*
X270269Y260069D01*
X270740Y260430D01*
X271188Y260209D01*
Y257791D01*
X270740Y257570D01*
X270269Y257931D01*
X269175Y258384D01*
X268000Y258539D01*
X263000D01*
X261825Y258384D01*
X260731Y257931D01*
X259791Y257209D01*
X259069Y256269D01*
X258616Y255175D01*
X258461Y254000D01*
X258616Y252825D01*
X259069Y251731D01*
X259791Y250791D01*
X260731Y250069D01*
X261825Y249616D01*
X263000Y249461D01*
X268000D01*
X269175Y249616D01*
X270269Y250069D01*
X270740Y250430D01*
X271188Y250209D01*
Y247791D01*
X270740Y247570D01*
X270269Y247931D01*
X269175Y248384D01*
X268000Y248539D01*
X263000D01*
X261825Y248384D01*
X260731Y247931D01*
X259791Y247209D01*
X259069Y246269D01*
X258616Y245175D01*
X258461Y244000D01*
X258517Y243576D01*
X258187Y243200D01*
X249900D01*
Y235200D01*
X251391D01*
Y233410D01*
X251391Y233409D01*
X251390Y233409D01*
X190429D01*
X163169Y260669D01*
X162504Y261179D01*
X161730Y261499D01*
X160900Y261609D01*
X149929D01*
X126909Y284629D01*
Y301318D01*
X127409Y301392D01*
X127609Y300731D01*
X128398Y299255D01*
X129461Y297960D01*
X130755Y296898D01*
X132231Y296109D01*
X133834Y295623D01*
X135500Y295459D01*
X137166Y295623D01*
X138769Y296109D01*
X140245Y296898D01*
X141540Y297960D01*
X142602Y299255D01*
X143391Y300731D01*
X143877Y302334D01*
X144041Y304000D01*
X143877Y305666D01*
X143391Y307269D01*
X142602Y308745D01*
X141540Y310039D01*
X140245Y311102D01*
X138769Y311891D01*
X137166Y312377D01*
X135500Y312541D01*
X133834Y312377D01*
X132231Y311891D01*
X130755Y311102D01*
X129461Y310039D01*
X128398Y308745D01*
X127609Y307269D01*
X127409Y306608D01*
X126909Y306682D01*
Y315271D01*
X139799Y328161D01*
X139800Y328161D01*
X140975Y328316D01*
X142069Y328769D01*
X143009Y329491D01*
X143731Y330431D01*
X144184Y331525D01*
X144339Y332700D01*
X144184Y333875D01*
X143731Y334969D01*
X143009Y335909D01*
X142069Y336631D01*
X140975Y337084D01*
X139800Y337239D01*
X138625Y337084D01*
X137531Y336631D01*
X136591Y335909D01*
X136590Y335909D01*
X132900D01*
Y337100D01*
X116900D01*
Y335809D01*
X113200D01*
Y337100D01*
X105200D01*
Y328100D01*
X113200D01*
Y329391D01*
X116900D01*
Y328100D01*
X130009D01*
X130201Y327638D01*
X121431Y318869D01*
X120921Y318204D01*
X120601Y317430D01*
X120492Y316600D01*
Y283300D01*
X120601Y282470D01*
X120921Y281696D01*
X121431Y281031D01*
X146331Y256131D01*
X146996Y255621D01*
X147770Y255301D01*
X148600Y255191D01*
X148600Y255191D01*
X159571D01*
X186831Y227931D01*
X187496Y227421D01*
X188270Y227101D01*
X189100Y226991D01*
X251390D01*
X251391Y226991D01*
X252331Y226269D01*
X253425Y225816D01*
X254600Y225661D01*
X255775Y225816D01*
X256869Y226269D01*
X257809Y226991D01*
X258531Y227931D01*
X258984Y229025D01*
X259139Y230200D01*
X258984Y231375D01*
X258531Y232469D01*
X257809Y233409D01*
X257809Y233410D01*
Y235200D01*
X258900D01*
Y241130D01*
X259400Y241300D01*
X259791Y240791D01*
X260731Y240069D01*
X261825Y239616D01*
X263000Y239461D01*
X268000D01*
X269175Y239616D01*
X270269Y240069D01*
X270740Y240430D01*
X271188Y240209D01*
Y227791D01*
X270740Y227570D01*
X270269Y227931D01*
X269175Y228384D01*
X268000Y228539D01*
X263000D01*
X261825Y228384D01*
X260731Y227931D01*
X259791Y227209D01*
X259069Y226269D01*
X258616Y225175D01*
X258461Y224000D01*
X258616Y222825D01*
X259069Y221731D01*
X259791Y220791D01*
X260731Y220069D01*
X261825Y219616D01*
X263000Y219461D01*
X268000D01*
X269175Y219616D01*
X270269Y220069D01*
X270740Y220430D01*
X271188Y220209D01*
Y216415D01*
X270689Y216246D01*
X270496Y216496D01*
X269765Y217057D01*
X268914Y217410D01*
X268000Y217530D01*
X266700D01*
Y214000D01*
Y210470D01*
X268000D01*
X268914Y210590D01*
X269765Y210943D01*
X270496Y211504D01*
X270689Y211754D01*
X271188Y211585D01*
Y206415D01*
X270689Y206246D01*
X270496Y206496D01*
X269765Y207057D01*
X268914Y207410D01*
X268000Y207530D01*
X266700D01*
Y204000D01*
Y200470D01*
X268000D01*
X268914Y200590D01*
X269765Y200943D01*
X270496Y201504D01*
X270689Y201754D01*
X271188Y201585D01*
Y197791D01*
X270740Y197570D01*
X270269Y197931D01*
X269175Y198384D01*
X268000Y198539D01*
X263000D01*
X261825Y198384D01*
X260731Y197931D01*
X260150Y197485D01*
X259569Y197931D01*
X258475Y198384D01*
X257300Y198539D01*
X256125Y198384D01*
X255031Y197931D01*
X254091Y197209D01*
X253772Y196795D01*
X253172Y196716D01*
X252494Y196435D01*
X251912Y195988D01*
X251912Y195988D01*
X237525Y181601D01*
X237051Y181834D01*
X237139Y182500D01*
X236984Y183675D01*
X236531Y184769D01*
X235809Y185709D01*
X234869Y186431D01*
X234248Y186688D01*
Y187229D01*
X235374Y187696D01*
X236523Y188577D01*
X237404Y189726D01*
X237958Y191064D01*
X238147Y192500D01*
X237958Y193936D01*
X237404Y195274D01*
X236523Y196423D01*
X235374Y197304D01*
X234036Y197858D01*
X232600Y198047D01*
X231164Y197858D01*
X229826Y197304D01*
X228677Y196423D01*
X227893Y195400D01*
X227727Y195358D01*
X227473D01*
X227307Y195400D01*
X226523Y196423D01*
X225374Y197304D01*
X224036Y197858D01*
X222600Y198047D01*
X221164Y197858D01*
X219826Y197304D01*
X218677Y196423D01*
X217893Y195400D01*
X217727Y195358D01*
X217473D01*
X217307Y195400D01*
X216523Y196423D01*
X215374Y197304D01*
X214036Y197858D01*
X212600Y198047D01*
X211164Y197858D01*
X209826Y197304D01*
X208677Y196423D01*
X207893Y195400D01*
X207727Y195358D01*
X207473D01*
X207307Y195400D01*
X206523Y196423D01*
X205374Y197304D01*
X204036Y197858D01*
X202600Y198047D01*
X201164Y197858D01*
X199826Y197304D01*
X198677Y196423D01*
X197893Y195400D01*
X197727Y195358D01*
X197473D01*
X197307Y195400D01*
X196523Y196423D01*
X195374Y197304D01*
X194036Y197858D01*
X192600Y198047D01*
X191164Y197858D01*
X189826Y197304D01*
X188677Y196423D01*
X187796Y195274D01*
X187242Y193936D01*
X187053Y192500D01*
X187242Y191064D01*
X187796Y189726D01*
X188677Y188577D01*
X189700Y187793D01*
X189743Y187627D01*
Y187373D01*
X189700Y187207D01*
X188677Y186423D01*
X187796Y185274D01*
X187242Y183936D01*
X187053Y182500D01*
X187242Y181064D01*
X187796Y179726D01*
X188677Y178577D01*
X189826Y177696D01*
X191164Y177142D01*
X192600Y176953D01*
X194036Y177142D01*
X195374Y177696D01*
X196523Y178577D01*
X197307Y179600D01*
X197473Y179642D01*
X197727D01*
X197893Y179600D01*
X198677Y178577D01*
X199826Y177696D01*
X201164Y177142D01*
X202600Y176953D01*
X204036Y177142D01*
X205374Y177696D01*
X206523Y178577D01*
X207307Y179600D01*
X207473Y179642D01*
X207727D01*
X207893Y179600D01*
X208677Y178577D01*
X209826Y177696D01*
X211164Y177142D01*
X212600Y176953D01*
X214036Y177142D01*
X215374Y177696D01*
X216523Y178577D01*
X217307Y179600D01*
X217473Y179642D01*
X217727D01*
X217893Y179600D01*
X218677Y178577D01*
X219826Y177696D01*
X221164Y177142D01*
X222600Y176953D01*
X224036Y177142D01*
X225374Y177696D01*
X226523Y178577D01*
X227404Y179726D01*
X227871Y180852D01*
X228412D01*
X228669Y180231D01*
X229391Y179291D01*
X230331Y178569D01*
X231400Y178126D01*
Y182500D01*
X233800D01*
Y178126D01*
X234869Y178569D01*
X235601Y179131D01*
X235804Y179076D01*
X236088Y178875D01*
Y161765D01*
X234135Y159811D01*
X216600D01*
X216600Y159811D01*
X216600Y159811D01*
X187100D01*
X187100Y159811D01*
X186372Y159716D01*
X185694Y159435D01*
X185112Y158988D01*
X185112Y158988D01*
X179397Y153273D01*
X178900Y153339D01*
X177725Y153184D01*
X176631Y152731D01*
X175691Y152009D01*
X174969Y151069D01*
X174516Y149975D01*
X174361Y148800D01*
X174516Y147625D01*
X174969Y146531D01*
X175691Y145591D01*
X176631Y144869D01*
X177725Y144416D01*
X178900Y144261D01*
X180075Y144416D01*
X181169Y144869D01*
X181195Y144889D01*
X184700D01*
Y143700D01*
X193700D01*
Y151700D01*
X186429D01*
X186238Y152162D01*
X188265Y154189D01*
X208500D01*
Y146000D01*
X209500D01*
Y144300D01*
X215500D01*
Y146000D01*
X216500D01*
Y138600D01*
X224500D01*
Y146000D01*
Y154189D01*
X229504D01*
X229786Y134429D01*
X229438Y134070D01*
X228660Y134060D01*
X229079Y102480D01*
X239014Y102612D01*
X238608Y133218D01*
X239740Y133234D01*
X239399Y157123D01*
X240888Y158612D01*
X240888Y158612D01*
X241335Y159194D01*
X241616Y159872D01*
X241711Y160600D01*
X241711Y160600D01*
Y177835D01*
X254416Y190541D01*
X255031Y190069D01*
X256125Y189616D01*
X257300Y189461D01*
X258475Y189616D01*
X259569Y190069D01*
X260150Y190515D01*
X260731Y190069D01*
X261825Y189616D01*
X263000Y189461D01*
X268000D01*
X269175Y189616D01*
X270269Y190069D01*
X270740Y190430D01*
X271188Y190209D01*
Y187791D01*
X270740Y187570D01*
X270269Y187931D01*
X269175Y188384D01*
X268000Y188539D01*
X263000D01*
X261825Y188384D01*
X260731Y187931D01*
X259791Y187209D01*
X259712Y187107D01*
X259436Y187107D01*
X259130Y187170D01*
X258269Y187831D01*
X257175Y188284D01*
X256000Y188439D01*
X254825Y188284D01*
X253731Y187831D01*
X252791Y187109D01*
X252069Y186169D01*
X251616Y185075D01*
X251461Y183900D01*
X251616Y182725D01*
X252069Y181631D01*
X252791Y180691D01*
X253731Y179969D01*
X254825Y179516D01*
X256000Y179361D01*
X257175Y179516D01*
X258269Y179969D01*
X259209Y180691D01*
X259223Y180709D01*
X259791Y180791D01*
X260731Y180069D01*
X261825Y179616D01*
X263000Y179461D01*
X268000D01*
X269175Y179616D01*
X270269Y180069D01*
X271209Y180791D01*
X271438Y181089D01*
X272400D01*
X272400Y181088D01*
X273128Y181184D01*
X273806Y181465D01*
X274388Y181912D01*
X275988Y183512D01*
X275988Y183512D01*
X276435Y184094D01*
X276716Y184772D01*
X276812Y185500D01*
X276812Y185500D01*
Y317100D01*
X276812Y317100D01*
X276716Y317828D01*
X276435Y318506D01*
X275988Y319088D01*
X275988Y319088D01*
X266077Y328999D01*
X266268Y329461D01*
X268000D01*
X269175Y329616D01*
X270269Y330069D01*
X271209Y330791D01*
X271931Y331731D01*
X272384Y332825D01*
X272539Y334000D01*
X272384Y335175D01*
X271931Y336269D01*
X271209Y337209D01*
X270269Y337931D01*
X269175Y338384D01*
X268000Y338539D01*
D02*
G37*
G36*
X241254Y358500D02*
X238621D01*
Y355868D01*
X239439Y356206D01*
X240274Y356847D01*
X240915Y357683D01*
X241254Y358500D01*
D02*
G37*
G36*
X78000Y378539D02*
X73000D01*
X71825Y378384D01*
X70731Y377931D01*
X69791Y377209D01*
X69069Y376269D01*
X68616Y375175D01*
X68461Y374000D01*
X68616Y372825D01*
X69069Y371731D01*
X69791Y370791D01*
X70731Y370069D01*
X71825Y369616D01*
X73000Y369461D01*
X78000D01*
X79175Y369616D01*
X80269Y370069D01*
X81209Y370791D01*
X81931Y371731D01*
X82384Y372825D01*
X82539Y374000D01*
X82384Y375175D01*
X81931Y376269D01*
X81209Y377209D01*
X80269Y377931D01*
X79175Y378384D01*
X78000Y378539D01*
D02*
G37*
G36*
X268000D02*
X263000D01*
X261825Y378384D01*
X260731Y377931D01*
X259791Y377209D01*
X259069Y376269D01*
X258616Y375175D01*
X258461Y374000D01*
X258616Y372825D01*
X259069Y371731D01*
X259791Y370791D01*
X260731Y370069D01*
X261825Y369616D01*
X263000Y369461D01*
X268000D01*
X269175Y369616D01*
X270269Y370069D01*
X271209Y370791D01*
X271931Y371731D01*
X272384Y372825D01*
X272539Y374000D01*
X272384Y375175D01*
X271931Y376269D01*
X271209Y377209D01*
X270269Y377931D01*
X269175Y378384D01*
X268000Y378539D01*
D02*
G37*
G36*
X78000Y388539D02*
X73000D01*
X71825Y388384D01*
X70731Y387931D01*
X69791Y387209D01*
X69069Y386269D01*
X68616Y385175D01*
X68461Y384000D01*
X68616Y382825D01*
X69069Y381731D01*
X69791Y380791D01*
X70731Y380069D01*
X71825Y379616D01*
X73000Y379461D01*
X78000D01*
X79175Y379616D01*
X80269Y380069D01*
X81209Y380791D01*
X81931Y381731D01*
X82384Y382825D01*
X82539Y384000D01*
X82384Y385175D01*
X81931Y386269D01*
X81209Y387209D01*
X80269Y387931D01*
X79175Y388384D01*
X78000Y388539D01*
D02*
G37*
G36*
X207500Y394743D02*
X206195Y394571D01*
X204978Y394068D01*
X203934Y393266D01*
X203133Y392222D01*
X202629Y391005D01*
X202457Y389700D01*
X202629Y388395D01*
X203133Y387178D01*
X203934Y386134D01*
X204978Y385332D01*
X205852Y384971D01*
Y384429D01*
X204978Y384068D01*
X203934Y383266D01*
X203133Y382222D01*
X202629Y381005D01*
X202457Y379700D01*
X202629Y378395D01*
X203133Y377178D01*
X203934Y376134D01*
X204978Y375332D01*
X205852Y374971D01*
Y374429D01*
X204978Y374067D01*
X203934Y373266D01*
X203133Y372222D01*
X202629Y371005D01*
X202457Y369700D01*
X202629Y368395D01*
X203133Y367178D01*
X203934Y366134D01*
X204978Y365333D01*
X206195Y364829D01*
X207500Y364657D01*
X208805Y364829D01*
X210022Y365333D01*
X211066Y366134D01*
X211867Y367178D01*
X212371Y368395D01*
X212543Y369700D01*
X212371Y371005D01*
X211867Y372222D01*
X211066Y373266D01*
X210022Y374067D01*
X209148Y374429D01*
Y374971D01*
X210022Y375332D01*
X211066Y376134D01*
X211867Y377178D01*
X212371Y378395D01*
X212543Y379700D01*
X212371Y381005D01*
X211867Y382222D01*
X211066Y383266D01*
X210022Y384068D01*
X209148Y384429D01*
Y384971D01*
X210022Y385332D01*
X211066Y386134D01*
X211867Y387178D01*
X212371Y388395D01*
X212543Y389700D01*
X212371Y391005D01*
X211867Y392222D01*
X211066Y393266D01*
X210022Y394068D01*
X208805Y394571D01*
X207500Y394743D01*
D02*
G37*
G36*
X116600Y374516D02*
X116428Y374499D01*
X115108Y374098D01*
X113892Y373448D01*
X112826Y372574D01*
X111951Y371508D01*
X111302Y370292D01*
X110901Y368972D01*
X110884Y368800D01*
X116600D01*
Y374516D01*
D02*
G37*
G36*
X119000D02*
Y368800D01*
X124716D01*
X124699Y368972D01*
X124299Y370292D01*
X123649Y371508D01*
X122774Y372574D01*
X121708Y373448D01*
X120492Y374098D01*
X119172Y374499D01*
X119000Y374516D01*
D02*
G37*
G36*
X206300Y406339D02*
X205125Y406184D01*
X204031Y405731D01*
X203091Y405009D01*
X202683Y404479D01*
X202094Y404235D01*
X201512Y403788D01*
X201512Y403788D01*
X195724Y398000D01*
X187500D01*
Y390000D01*
X189189D01*
Y385634D01*
X188689Y385535D01*
X188535Y385906D01*
X188088Y386488D01*
X188088Y386488D01*
X174188Y400388D01*
X173606Y400835D01*
X172928Y401116D01*
X172200Y401212D01*
X172200Y401212D01*
X165615D01*
X165309Y401609D01*
X164369Y402331D01*
X163275Y402784D01*
X162100Y402939D01*
X160925Y402784D01*
X159831Y402331D01*
X158891Y401609D01*
X158169Y400669D01*
X157716Y399575D01*
X157561Y398400D01*
X157716Y397225D01*
X158169Y396131D01*
X158891Y395191D01*
X159289Y394885D01*
Y393265D01*
X155397Y389373D01*
X154900Y389439D01*
X153725Y389284D01*
X152631Y388831D01*
X151691Y388109D01*
X150969Y387169D01*
X150516Y386075D01*
X150361Y384900D01*
X150516Y383725D01*
X150969Y382631D01*
X151691Y381691D01*
X152631Y380969D01*
X153725Y380516D01*
X154900Y380361D01*
X156075Y380516D01*
X157169Y380969D01*
X158109Y381691D01*
X158831Y382631D01*
X159284Y383725D01*
X159439Y384900D01*
X159373Y385397D01*
X164088Y390112D01*
X164088Y390112D01*
X164535Y390694D01*
X164816Y391372D01*
X164911Y392100D01*
X164911Y392100D01*
Y394885D01*
X165309Y395191D01*
X165615Y395588D01*
X171035D01*
X183289Y383335D01*
Y378715D01*
X182891Y378409D01*
X182585Y378011D01*
X172300D01*
X171572Y377916D01*
X170894Y377635D01*
X170312Y377188D01*
X170312Y377188D01*
X167112Y373988D01*
X166665Y373406D01*
X166384Y372728D01*
X166288Y372000D01*
X166289Y372000D01*
Y371400D01*
X164600D01*
Y363400D01*
Y355400D01*
X180100D01*
Y356589D01*
X184500D01*
X184500Y356589D01*
X185228Y356684D01*
X185906Y356965D01*
X186488Y357412D01*
X193988Y364912D01*
X193988Y364912D01*
X194435Y365494D01*
X194716Y366172D01*
X194811Y366900D01*
X194811Y366900D01*
Y390000D01*
X196500D01*
Y391314D01*
X197106Y391565D01*
X197688Y392012D01*
X203756Y398080D01*
X204031Y397869D01*
X205125Y397416D01*
X206300Y397261D01*
X207475Y397416D01*
X208569Y397869D01*
X209509Y398591D01*
X210231Y399531D01*
X210684Y400625D01*
X210839Y401800D01*
X210684Y402975D01*
X210231Y404069D01*
X209509Y405009D01*
X208569Y405731D01*
X207475Y406184D01*
X206300Y406339D01*
D02*
G37*
G36*
X195500Y400800D02*
X193200D01*
Y399000D01*
X195500D01*
Y400800D01*
D02*
G37*
G36*
X239600Y409300D02*
X230600D01*
Y404776D01*
X222412Y396588D01*
X221965Y396006D01*
X221684Y395328D01*
X221588Y394600D01*
X221588Y394600D01*
Y359500D01*
X221588Y359500D01*
X221684Y358772D01*
X221965Y358094D01*
X222412Y357512D01*
X231412Y348512D01*
X231412Y348512D01*
X231994Y348065D01*
X232672Y347784D01*
X233400Y347689D01*
X233400Y347689D01*
X244200D01*
X244200Y347689D01*
X244928Y347784D01*
X245606Y348065D01*
X246188Y348512D01*
X252760Y355084D01*
X252925Y355016D01*
X254100Y354861D01*
X255275Y355016D01*
X256369Y355469D01*
X257309Y356191D01*
X258031Y357131D01*
X258484Y358225D01*
X258639Y359400D01*
X258484Y360575D01*
X258031Y361669D01*
X257309Y362609D01*
X256369Y363331D01*
X255275Y363784D01*
X254100Y363939D01*
X252925Y363784D01*
X251831Y363331D01*
X250891Y362609D01*
X250169Y361669D01*
X249716Y360575D01*
X249627Y359903D01*
X243035Y353311D01*
X234564D01*
X227211Y360665D01*
Y368486D01*
X227627Y368764D01*
X228225Y368516D01*
X229400Y368361D01*
X230575Y368516D01*
X231669Y368969D01*
X232004Y369226D01*
X232466Y369035D01*
X232550Y368395D01*
X233054Y367178D01*
X233855Y366134D01*
X234900Y365333D01*
X236116Y364829D01*
X237421Y364657D01*
X238726Y364829D01*
X239943Y365333D01*
X240987Y366134D01*
X241789Y367178D01*
X242293Y368395D01*
X242464Y369700D01*
X242293Y371005D01*
X241789Y372222D01*
X240987Y373266D01*
X239943Y374067D01*
X239069Y374429D01*
Y374971D01*
X239943Y375332D01*
X240987Y376134D01*
X241789Y377178D01*
X242293Y378395D01*
X242464Y379700D01*
X242293Y381005D01*
X241789Y382222D01*
X240987Y383266D01*
X239943Y384068D01*
X239069Y384429D01*
Y384971D01*
X239943Y385332D01*
X240987Y386134D01*
X241789Y387178D01*
X242293Y388395D01*
X242464Y389700D01*
X242293Y391005D01*
X241789Y392222D01*
X240987Y393266D01*
X239943Y394068D01*
X238726Y394571D01*
X238048Y394661D01*
Y395165D01*
X238596Y395237D01*
X239691Y395690D01*
X240631Y396412D01*
X241352Y397352D01*
X241805Y398446D01*
X241960Y399621D01*
X241950Y399694D01*
X242388Y400188D01*
X244800D01*
Y399000D01*
Y391000D01*
X246488D01*
Y388315D01*
X246091Y388009D01*
X245369Y387069D01*
X244916Y385975D01*
X244761Y384800D01*
X244916Y383625D01*
X245369Y382531D01*
X246091Y381591D01*
X247031Y380869D01*
X248125Y380416D01*
X249300Y380261D01*
X250475Y380416D01*
X251569Y380869D01*
X252329Y381452D01*
X252857Y381269D01*
X252916Y380825D01*
X253369Y379731D01*
X254091Y378791D01*
X255031Y378069D01*
X256125Y377616D01*
X257300Y377461D01*
X258475Y377616D01*
X259569Y378069D01*
X260509Y378791D01*
X261231Y379731D01*
X261389Y379796D01*
X261825Y379616D01*
X263000Y379461D01*
X268000D01*
X269175Y379616D01*
X270269Y380069D01*
X271209Y380791D01*
X271931Y381731D01*
X272384Y382825D01*
X272539Y384000D01*
X272384Y385175D01*
X271931Y386269D01*
X271209Y387209D01*
X270269Y387931D01*
X269175Y388384D01*
X268000Y388539D01*
X263000D01*
X261825Y388384D01*
X260731Y387931D01*
X260560Y387800D01*
X260111Y388021D01*
Y389979D01*
X260560Y390200D01*
X260731Y390069D01*
X261825Y389616D01*
X263000Y389461D01*
X268000D01*
X269175Y389616D01*
X270269Y390069D01*
X271209Y390791D01*
X271931Y391731D01*
X272384Y392825D01*
X272539Y394000D01*
X272384Y395175D01*
X271931Y396269D01*
X271209Y397209D01*
X270269Y397931D01*
X269175Y398384D01*
X268000Y398539D01*
X263000D01*
X261825Y398384D01*
X261316Y398173D01*
X260900Y398451D01*
Y399549D01*
X261316Y399827D01*
X261825Y399616D01*
X263000Y399461D01*
X268000D01*
X269175Y399616D01*
X270269Y400069D01*
X271209Y400791D01*
X271931Y401731D01*
X272384Y402825D01*
X272539Y404000D01*
X272384Y405175D01*
X271931Y406269D01*
X271209Y407209D01*
X270269Y407931D01*
X269175Y408384D01*
X268000Y408539D01*
X263000D01*
X261825Y408384D01*
X260731Y407931D01*
X259791Y407209D01*
X259630Y407000D01*
X244800D01*
Y405812D01*
X240800D01*
X240800Y405812D01*
X240100Y405719D01*
X239968Y405724D01*
X239600Y405970D01*
Y409300D01*
D02*
G37*
G36*
X190800Y405000D02*
X188500D01*
Y403200D01*
X190800D01*
Y405000D01*
D02*
G37*
G36*
X75500Y429548D02*
X74064Y429358D01*
X72726Y428804D01*
X71577Y427923D01*
X70696Y426774D01*
X70142Y425436D01*
X69952Y424000D01*
X70142Y422564D01*
X70696Y421226D01*
X71577Y420077D01*
X72600Y419293D01*
X72642Y419127D01*
Y418873D01*
X72600Y418707D01*
X71577Y417923D01*
X70696Y416774D01*
X70142Y415436D01*
X69952Y414000D01*
X70142Y412564D01*
X70696Y411226D01*
X71577Y410077D01*
X72726Y409196D01*
X74064Y408642D01*
X75500Y408453D01*
X76936Y408642D01*
X78274Y409196D01*
X79423Y410077D01*
X80304Y411226D01*
X80858Y412564D01*
X80965Y413374D01*
X81112Y413429D01*
X81478Y413441D01*
X81621Y413096D01*
X82131Y412431D01*
X105531Y389031D01*
X106196Y388521D01*
X106970Y388201D01*
X107800Y388091D01*
X107800Y388091D01*
X136690D01*
X136691Y388091D01*
X137631Y387369D01*
X138725Y386916D01*
X139900Y386761D01*
X141075Y386916D01*
X142169Y387369D01*
X143109Y388091D01*
X143831Y389031D01*
X144284Y390125D01*
X144439Y391300D01*
X144284Y392475D01*
X143831Y393569D01*
X143109Y394509D01*
X142169Y395231D01*
X141075Y395684D01*
X139900Y395839D01*
X138725Y395684D01*
X137631Y395231D01*
X136691Y394509D01*
X136690Y394509D01*
X109129D01*
X87609Y416029D01*
Y421590D01*
X87609Y421591D01*
X88331Y422531D01*
X88784Y423625D01*
X88939Y424800D01*
X88784Y425975D01*
X88331Y427069D01*
X87609Y428009D01*
X86669Y428731D01*
X85575Y429184D01*
X84400Y429339D01*
X83225Y429184D01*
X82131Y428731D01*
X81191Y428009D01*
X80588Y427225D01*
X80103Y427164D01*
X79980Y427196D01*
X79423Y427923D01*
X78274Y428804D01*
X76936Y429358D01*
X75500Y429548D01*
D02*
G37*
G36*
Y407541D02*
X73834Y407377D01*
X72231Y406891D01*
X70755Y406102D01*
X69460Y405040D01*
X68398Y403745D01*
X67609Y402269D01*
X67123Y400666D01*
X66959Y399000D01*
X67123Y397334D01*
X67609Y395731D01*
X68398Y394255D01*
X69460Y392961D01*
X70755Y391898D01*
X72231Y391109D01*
X73834Y390623D01*
X75500Y390459D01*
X77166Y390623D01*
X78769Y391109D01*
X80245Y391898D01*
X81539Y392961D01*
X82602Y394255D01*
X83391Y395731D01*
X83877Y397334D01*
X84041Y399000D01*
X83877Y400666D01*
X83391Y402269D01*
X82602Y403745D01*
X81539Y405040D01*
X80245Y406102D01*
X78769Y406891D01*
X77166Y407377D01*
X75500Y407541D01*
D02*
G37*
G36*
X190800Y400800D02*
X188500D01*
Y399000D01*
X190800D01*
Y400800D01*
D02*
G37*
G36*
X268000Y368539D02*
X263000D01*
X261825Y368384D01*
X260731Y367931D01*
X259791Y367209D01*
X259069Y366269D01*
X258616Y365175D01*
X258461Y364000D01*
X258616Y362825D01*
X259069Y361731D01*
X259791Y360791D01*
X260731Y360069D01*
X261825Y359616D01*
X263000Y359461D01*
X268000D01*
X269175Y359616D01*
X270269Y360069D01*
X271209Y360791D01*
X271931Y361731D01*
X272384Y362825D01*
X272539Y364000D01*
X272384Y365175D01*
X271931Y366269D01*
X271209Y367209D01*
X270269Y367931D01*
X269175Y368384D01*
X268000Y368539D01*
D02*
G37*
G36*
X139900Y375739D02*
X138332Y375584D01*
X136824Y375127D01*
X135434Y374384D01*
X134216Y373384D01*
X133216Y372166D01*
X132473Y370776D01*
X132016Y369268D01*
X131861Y367700D01*
X132016Y366132D01*
X132473Y364624D01*
X133216Y363234D01*
X134216Y362016D01*
X135434Y361016D01*
X136824Y360273D01*
X138332Y359816D01*
X139900Y359661D01*
X141468Y359816D01*
X142976Y360273D01*
X144366Y361016D01*
X145584Y362016D01*
X146584Y363234D01*
X147327Y364624D01*
X147784Y366132D01*
X147939Y367700D01*
X147784Y369268D01*
X147327Y370776D01*
X146584Y372166D01*
X145584Y373384D01*
X144366Y374384D01*
X142976Y375127D01*
X141468Y375584D01*
X139900Y375739D01*
D02*
G37*
G36*
X48900Y362000D02*
X46600D01*
Y360200D01*
X48900D01*
Y362000D01*
D02*
G37*
G36*
Y357800D02*
X46600D01*
Y356000D01*
X48900D01*
Y357800D01*
D02*
G37*
G36*
X53600D02*
X51300D01*
Y356000D01*
X53600D01*
Y357800D01*
D02*
G37*
G36*
X78000Y368539D02*
X73000D01*
X71825Y368384D01*
X70731Y367931D01*
X69791Y367209D01*
X69069Y366269D01*
X68616Y365175D01*
X68461Y364000D01*
X68616Y362825D01*
X69069Y361731D01*
X69791Y360791D01*
X70731Y360069D01*
X71825Y359616D01*
X73000Y359461D01*
X78000D01*
X79175Y359616D01*
X80269Y360069D01*
X81209Y360791D01*
X81931Y361731D01*
X82384Y362825D01*
X82539Y364000D01*
X82384Y365175D01*
X81931Y366269D01*
X81209Y367209D01*
X80269Y367931D01*
X79175Y368384D01*
X78000Y368539D01*
D02*
G37*
G36*
X53600Y362000D02*
X51300D01*
Y360200D01*
X53600D01*
Y362000D01*
D02*
G37*
G36*
X208700Y363532D02*
Y360900D01*
X211333D01*
X210994Y361717D01*
X210353Y362553D01*
X209517Y363194D01*
X208700Y363532D01*
D02*
G37*
G36*
X236221D02*
X235404Y363194D01*
X234568Y362553D01*
X233927Y361717D01*
X233589Y360900D01*
X236221D01*
Y363532D01*
D02*
G37*
G36*
X238621D02*
Y360900D01*
X241254D01*
X240915Y361717D01*
X240274Y362553D01*
X239439Y363194D01*
X238621Y363532D01*
D02*
G37*
G36*
X116600Y366400D02*
X110884D01*
X110901Y366228D01*
X111302Y364908D01*
X111951Y363692D01*
X112826Y362626D01*
X113892Y361752D01*
X115108Y361102D01*
X116428Y360701D01*
X116600Y360684D01*
Y366400D01*
D02*
G37*
G36*
X124716D02*
X119000D01*
Y360684D01*
X119172Y360701D01*
X120492Y361102D01*
X121708Y361752D01*
X122774Y362626D01*
X123649Y363692D01*
X124299Y364908D01*
X124699Y366228D01*
X124716Y366400D01*
D02*
G37*
G36*
X206300Y363532D02*
X205483Y363194D01*
X204647Y362553D01*
X204006Y361717D01*
X203667Y360900D01*
X206300D01*
Y363532D01*
D02*
G37*
%LPD*%
G36*
X197514Y305869D02*
Y304869D01*
X195955D01*
Y304193D01*
X195558Y303888D01*
X195111Y303306D01*
X194830Y302628D01*
X194734Y301900D01*
Y298407D01*
X194572Y298016D01*
X194476Y297288D01*
X194572Y296560D01*
X194853Y295882D01*
X195300Y295300D01*
X195882Y294853D01*
X196560Y294572D01*
X197288Y294477D01*
X198016Y294572D01*
X198694Y294853D01*
X199276Y295300D01*
X199534Y295558D01*
X199980Y296140D01*
X200261Y296818D01*
X200357Y297546D01*
X200668Y297932D01*
X202411D01*
Y293487D01*
X195035Y286111D01*
X169165D01*
X168311Y286965D01*
Y289225D01*
X169423Y290077D01*
X170207Y291100D01*
X170373Y291143D01*
X170627D01*
X170793Y291100D01*
X171577Y290077D01*
X172726Y289196D01*
X174064Y288642D01*
X175500Y288453D01*
X176936Y288642D01*
X178274Y289196D01*
X179423Y290077D01*
X180304Y291226D01*
X180858Y292564D01*
X181047Y294000D01*
X180960Y294667D01*
X181313Y295021D01*
X181700Y294970D01*
X182614Y295090D01*
X183465Y295443D01*
X184196Y296004D01*
X184757Y296735D01*
X184991Y297300D01*
X181700D01*
Y299700D01*
X184991D01*
X184837Y300073D01*
X185047Y300531D01*
X185127Y300604D01*
X185975Y300716D01*
X187069Y301169D01*
X188009Y301891D01*
X188315Y302289D01*
X190100D01*
X190100Y302289D01*
X190828Y302384D01*
X191506Y302665D01*
X192088Y303112D01*
X195064Y306088D01*
X197105D01*
X197514Y305869D01*
D02*
G37*
G36*
X233016Y398606D02*
X233037Y398446D01*
X233490Y397352D01*
X234212Y396412D01*
X235152Y395690D01*
X236246Y395237D01*
X236794Y395165D01*
Y394661D01*
X236116Y394571D01*
X234900Y394068D01*
X233855Y393266D01*
X233054Y392222D01*
X232550Y391005D01*
X232446Y390216D01*
X231984Y390025D01*
X231769Y390190D01*
X230675Y390643D01*
X229500Y390798D01*
X228325Y390643D01*
X227712Y390389D01*
X227211Y390723D01*
Y393435D01*
X232543Y398767D01*
X233016Y398606D01*
D02*
G37*
G36*
X209991Y262891D02*
X210388Y262585D01*
Y257065D01*
X200035Y246711D01*
X196115D01*
X195809Y247109D01*
X194869Y247831D01*
X194069Y248162D01*
Y248703D01*
X194469Y248869D01*
X195409Y249591D01*
X195715Y249989D01*
X199400D01*
X199400Y249989D01*
X200128Y250084D01*
X200806Y250365D01*
X201388Y250812D01*
X207188Y256612D01*
X207188Y256612D01*
X207635Y257194D01*
X207916Y257872D01*
X208012Y258600D01*
X208012Y258600D01*
Y262585D01*
X208409Y262891D01*
X208885Y263510D01*
X209515D01*
X209991Y262891D01*
D02*
G37*
G36*
X133759Y209915D02*
X133491Y209709D01*
X133185Y209312D01*
X94095D01*
X93888Y209811D01*
X94464Y210388D01*
X133598D01*
X133759Y209915D01*
D02*
G37*
G36*
X119500Y268161D02*
X119997Y268227D01*
X152127Y236097D01*
X152061Y235600D01*
X152216Y234425D01*
X152669Y233331D01*
X152724Y233259D01*
X152348Y232928D01*
X118224Y267052D01*
Y267841D01*
X118724Y268263D01*
X119500Y268161D01*
D02*
G37*
D10*
X50100Y326100D02*
D03*
Y334100D02*
D03*
Y359000D02*
D03*
Y351000D02*
D03*
X205000Y91200D02*
D03*
Y99200D02*
D03*
X204800Y78800D02*
D03*
Y70800D02*
D03*
X254400Y239200D02*
D03*
Y247200D02*
D03*
X222200Y279600D02*
D03*
Y287600D02*
D03*
X175600Y367400D02*
D03*
Y359400D02*
D03*
X169100Y367400D02*
D03*
Y359400D02*
D03*
X256400Y403000D02*
D03*
Y395000D02*
D03*
X249300D02*
D03*
Y403000D02*
D03*
X192000Y402000D02*
D03*
Y394000D02*
D03*
X222400Y301400D02*
D03*
Y293400D02*
D03*
X235100Y413300D02*
D03*
Y405300D02*
D03*
X189200Y139700D02*
D03*
Y147700D02*
D03*
D11*
X120900Y332600D02*
D03*
X128900D02*
D03*
X109200D02*
D03*
X101200D02*
D03*
X212500Y143100D02*
D03*
X220500D02*
D03*
X266600Y136700D02*
D03*
X258600D02*
D03*
X212500Y150500D02*
D03*
X220500D02*
D03*
X266600Y144600D02*
D03*
X258600D02*
D03*
X212500Y127900D02*
D03*
X220500D02*
D03*
X212500Y120100D02*
D03*
X220500D02*
D03*
D12*
X212900Y301900D02*
D03*
X210341D02*
D03*
X207782D02*
D03*
X205223D02*
D03*
X202664D02*
D03*
X200105D02*
D03*
X197546D02*
D03*
Y277884D02*
D03*
X200105D02*
D03*
X202664D02*
D03*
X205223D02*
D03*
X207782D02*
D03*
X210341D02*
D03*
X212900D02*
D03*
D13*
X628903Y-174938D02*
D03*
X634021D02*
D03*
D14*
X192600Y297600D02*
X192912Y297288D01*
X197288D01*
X197546Y297546D01*
Y301900D01*
X175300Y367700D02*
X175400Y367800D01*
X181100Y367400D02*
X181800Y368100D01*
X175600Y367400D02*
X181100D01*
X172300Y375200D02*
X186100D01*
X169100Y372000D02*
X172300Y375200D01*
X169100Y367400D02*
Y372000D01*
Y359400D02*
X175600D01*
X184500D01*
X192000Y366900D01*
Y394000D01*
X195700D01*
X203500Y401800D01*
X206300D01*
X229400Y372900D02*
X229500Y373000D01*
Y386259D01*
X224400Y394600D02*
X235100Y405300D01*
X224400Y359500D02*
Y394600D01*
Y359500D02*
X233400Y350500D01*
X244200D01*
X253100Y359400D01*
X254100D01*
X235100Y401942D02*
Y405300D01*
Y401942D02*
X237421Y399621D01*
X186100Y375200D02*
Y384500D01*
X172200Y398400D02*
X186100Y384500D01*
X162100Y398400D02*
X172200D01*
X154900Y384900D02*
X162100Y392100D01*
Y398400D01*
X237421Y399621D02*
X240800Y403000D01*
X249300D01*
X256400D01*
Y395000D02*
X257300Y394100D01*
Y382000D02*
Y394100D01*
X249300Y384800D02*
Y395000D01*
X89200Y323500D02*
X92400D01*
X94300Y321600D01*
Y225000D02*
Y321600D01*
X85000Y215700D02*
X94300Y225000D01*
X69300Y215700D02*
X85000D01*
X59800Y206200D02*
X69300Y215700D01*
X195500Y69400D02*
Y97400D01*
X197300Y99200D01*
X205000D01*
X158300Y148000D02*
Y148400D01*
X175400Y165500D01*
Y168000D01*
X147400Y148300D02*
Y153600D01*
X158100Y164300D01*
Y167900D01*
X119500Y272700D02*
X156600Y235600D01*
X115413Y265887D02*
X159600Y221700D01*
X115413Y265887D02*
Y277087D01*
X113700Y278800D02*
X115413Y277087D01*
X178900Y148800D02*
X180000Y147700D01*
X189200D01*
X258600Y136700D02*
Y144600D01*
X266600D02*
X266700Y144500D01*
X273500D01*
X216600Y157000D02*
X235300D01*
X187100D02*
X216600D01*
X212500Y152900D02*
X216600Y157000D01*
X212500Y150500D02*
Y152900D01*
Y115500D02*
Y120100D01*
X208900Y111900D02*
X212500Y115500D01*
X204600Y111900D02*
X208900D01*
X220500Y120100D02*
Y127900D01*
Y143100D02*
Y150500D01*
X178900Y148800D02*
X187100Y157000D01*
X235300D02*
X238900Y160600D01*
Y179000D01*
X253900Y194000D01*
X257300D01*
X204600Y99600D02*
X205000Y99200D01*
X204600Y99600D02*
Y111900D01*
X256000Y183900D02*
X272400D01*
X204800Y78800D02*
X205000Y79000D01*
Y87100D01*
Y91200D01*
Y87100D02*
X206800Y85300D01*
X212900D01*
X192600Y209300D02*
Y209400D01*
X188800Y213200D02*
X192600Y209400D01*
X93300Y213200D02*
X188800D01*
X88100Y208000D02*
X93300Y213200D01*
X84900Y208000D02*
X88100D01*
X93500Y206500D02*
X136700D01*
X84900Y197900D02*
X93500Y206500D01*
X202664Y301900D02*
Y308036D01*
X201800Y308900D02*
X202664Y308036D01*
X193900Y308900D02*
X201800D01*
X190100Y305100D02*
X193900Y308900D01*
X184800Y305100D02*
X190100D01*
X201200Y243900D02*
X213200Y255900D01*
X192600Y243900D02*
X201200D01*
X192200Y252800D02*
X199400D01*
X205200Y258600D01*
Y266100D01*
X213200Y255900D02*
Y266100D01*
Y267800D01*
X207782Y273218D02*
X213200Y267800D01*
X207782Y273218D02*
Y277884D01*
X197200Y266100D02*
Y266500D01*
X196800Y266900D02*
X197200Y266500D01*
X196800Y266900D02*
X202664Y272764D01*
X205200Y266100D02*
X205223Y266123D01*
Y277884D01*
X202664Y272764D02*
Y277884D01*
X222200Y279600D02*
X223700Y278100D01*
X233000D01*
X222400Y301400D02*
X234100D01*
X253000Y316500D02*
Y330500D01*
X251700Y315200D02*
X253000Y316500D01*
X242800Y315200D02*
X251700D01*
X235900Y308300D02*
X242800Y315200D01*
X235900Y303200D02*
Y308300D01*
X234100Y301400D02*
X235900Y303200D01*
X212900Y274400D02*
Y277884D01*
Y274400D02*
X213900Y273400D01*
X221100D01*
X222200Y274500D01*
Y279600D01*
X222400Y287800D02*
Y293400D01*
X212900Y301900D02*
Y305800D01*
X222400Y301400D02*
Y305900D01*
X220800Y307500D02*
X222400Y305900D01*
X214600Y307500D02*
X220800D01*
X212900Y305800D02*
X214600Y307500D01*
X205200Y304046D02*
X205223Y304023D01*
Y301900D02*
Y304023D01*
X212900Y296641D02*
Y301900D01*
X197546Y281287D02*
X212900Y296641D01*
X197546Y277884D02*
Y281287D01*
X165500Y285800D02*
Y294000D01*
Y285800D02*
X168000Y283300D01*
X196200D01*
X205223Y292323D01*
Y301900D01*
X207782D02*
Y309918D01*
X206000Y311700D02*
X207782Y309918D01*
X169400Y311700D02*
X206000D01*
X165500Y307800D02*
X169400Y311700D01*
X165500Y304000D02*
Y307800D01*
X175300Y367700D02*
X175600Y367400D01*
X253000Y330500D02*
X260600D01*
X274000Y317100D01*
Y185500D02*
Y317100D01*
X272400Y183900D02*
X274000Y185500D01*
D15*
X50100Y334100D02*
X50200Y334000D01*
X75500D01*
X50100Y326100D02*
X50600Y325600D01*
Y316500D02*
Y325600D01*
X50100Y334100D02*
Y351000D01*
X109200Y332600D02*
X120900D01*
X128900D02*
X129000Y332700D01*
X139800D01*
X254400Y239200D02*
X254600Y239000D01*
Y230200D02*
Y239000D01*
X189100Y230200D02*
X254600D01*
X160900Y258400D02*
X189100Y230200D01*
X148600Y258400D02*
X160900D01*
X123700Y283300D02*
X148600Y258400D01*
X123700Y283300D02*
Y316600D01*
X139800Y332700D01*
X107800Y391300D02*
X139900D01*
X84400Y414700D02*
X107800Y391300D01*
X84400Y414700D02*
Y424800D01*
D16*
X212300Y53198D02*
X216299D01*
X214299D01*
Y47200D01*
X218298D02*
X220297D01*
X219298D01*
Y51199D01*
X218298D01*
X223296D02*
Y47200D01*
Y49199D01*
X224296Y50199D01*
X225296Y51199D01*
X226295D01*
X232294Y47200D02*
X230294D01*
X229294Y48200D01*
Y50199D01*
X230294Y51199D01*
X232294D01*
X233293Y50199D01*
Y49199D01*
X229294D01*
X236292Y52198D02*
Y51199D01*
X235293D01*
X237292D01*
X236292D01*
Y48200D01*
X237292Y47200D01*
X241291Y52198D02*
Y51199D01*
X240291D01*
X242290D01*
X241291D01*
Y48200D01*
X242290Y47200D01*
X248288D02*
X246289D01*
X245289Y48200D01*
Y50199D01*
X246289Y51199D01*
X248288D01*
X249288Y50199D01*
Y49199D01*
X245289D01*
X248100Y150100D02*
X252036D01*
Y148132D01*
X251380Y147476D01*
X250068D01*
X249412Y148132D01*
Y150100D01*
Y148788D02*
X248100Y147476D01*
Y144196D02*
Y145508D01*
X248756Y146164D01*
X250068D01*
X250724Y145508D01*
Y144196D01*
X250068Y143540D01*
X249412D01*
Y146164D01*
X248100Y142228D02*
Y140261D01*
X248756Y139605D01*
X249412Y140261D01*
Y141573D01*
X250068Y142228D01*
X250724Y141573D01*
Y139605D01*
X248100Y136325D02*
Y137637D01*
X248756Y138293D01*
X250068D01*
X250724Y137637D01*
Y136325D01*
X250068Y135669D01*
X249412D01*
Y138293D01*
X251380Y133701D02*
X250724D01*
Y134357D01*
Y133045D01*
Y133701D01*
X248756D01*
X248100Y133045D01*
X235635Y131152D02*
X233012Y131117D01*
X231717Y129788D01*
X233047Y128494D01*
X235670Y128528D01*
X235066Y124584D02*
X235714Y125249D01*
X235696Y126561D01*
X235032Y127208D01*
X232408Y127173D01*
X231761Y126509D01*
X231778Y125197D01*
X232443Y124550D01*
X235119Y120649D02*
X235766Y121314D01*
X235748Y122625D01*
X235084Y123273D01*
X232460Y123238D01*
X231813Y122573D01*
X231830Y121262D01*
X232495Y120614D01*
X235136Y119337D02*
X235801Y118690D01*
X235818Y117378D01*
X235171Y116714D01*
X234515Y116705D01*
X233850Y117352D01*
X233841Y118008D01*
X233850Y117352D01*
X233203Y116688D01*
X232547Y116679D01*
X231882Y117326D01*
X231865Y118638D01*
X232512Y119302D01*
X231908Y115358D02*
X232564Y115367D01*
X232573Y114711D01*
X231917Y114702D01*
X231908Y115358D01*
X235231Y112122D02*
X235896Y111475D01*
X235913Y110163D01*
X235266Y109499D01*
X234610Y109490D01*
X233946Y110137D01*
X233937Y110793D01*
X233946Y110137D01*
X233298Y109473D01*
X232643Y109464D01*
X231978Y110111D01*
X231961Y111423D01*
X232608Y112088D01*
X235940Y108196D02*
X233316Y108161D01*
X232021Y106832D01*
X233351Y105537D01*
X235974Y105572D01*
X236435Y154556D02*
X233812Y154519D01*
X232519Y153188D01*
X233849Y151895D01*
X236473Y151933D01*
X235873Y147988D02*
X236520Y148653D01*
X236501Y149965D01*
X235836Y150611D01*
X233212Y150574D01*
X232565Y149909D01*
X232584Y148597D01*
X233249Y147950D01*
X235929Y144053D02*
X236576Y144718D01*
X236557Y146030D01*
X235892Y146676D01*
X233268Y146639D01*
X232622Y145973D01*
X232641Y144662D01*
X233306Y144015D01*
X236641Y140127D02*
X236604Y142750D01*
X234636Y142722D01*
X235311Y141420D01*
X235320Y140764D01*
X234674Y140099D01*
X233362Y140080D01*
X232697Y140726D01*
X232678Y142038D01*
X233325Y142703D01*
X236660Y138815D02*
X234036Y138777D01*
X232744Y137447D01*
X234074Y136154D01*
X236698Y136191D01*
X268500Y60200D02*
X262502D01*
Y63199D01*
X263502Y64199D01*
X265501D01*
X266501Y63199D01*
Y60200D01*
Y62199D02*
X268500Y64199D01*
Y69197D02*
Y67198D01*
X267500Y66198D01*
X265501D01*
X264501Y67198D01*
Y69197D01*
X265501Y70197D01*
X266501D01*
Y66198D01*
X268500Y72196D02*
Y75195D01*
X267500Y76195D01*
X266501Y75195D01*
Y73196D01*
X265501Y72196D01*
X264501Y73196D01*
Y76195D01*
X268500Y81193D02*
Y79194D01*
X267500Y78194D01*
X265501D01*
X264501Y79194D01*
Y81193D01*
X265501Y82193D01*
X266501D01*
Y78194D01*
X263502Y85192D02*
X264501D01*
Y84192D01*
Y86192D01*
Y85192D01*
X267500D01*
X268500Y86192D01*
X69699Y453598D02*
X68699Y454598D01*
X66700D01*
X65700Y453598D01*
Y452599D01*
X66700Y451599D01*
X68699D01*
X69699Y450599D01*
Y449600D01*
X68699Y448600D01*
X66700D01*
X65700Y449600D01*
X71698Y454598D02*
Y448600D01*
X75697D01*
X80695D02*
X78696D01*
X77696Y449600D01*
Y451599D01*
X78696Y452599D01*
X80695D01*
X81695Y451599D01*
Y450599D01*
X77696D01*
X87693Y454598D02*
Y448600D01*
X84694D01*
X83694Y449600D01*
Y451599D01*
X84694Y452599D01*
X87693D01*
X87936Y308700D02*
X84000D01*
Y306732D01*
X84656Y306076D01*
X85312D01*
X85968Y306732D01*
Y308700D01*
Y306732D01*
X86624Y306076D01*
X87280D01*
X87936Y306732D01*
Y308700D01*
X84000Y304108D02*
Y302796D01*
X84656Y302140D01*
X85968D01*
X86624Y302796D01*
Y304108D01*
X85968Y304764D01*
X84656D01*
X84000Y304108D01*
X86624Y300829D02*
X84656D01*
X84000Y300173D01*
Y298205D01*
X86624D01*
X87280Y296237D02*
X86624D01*
Y296893D01*
Y295581D01*
Y296237D01*
X84656D01*
X84000Y295581D01*
Y292957D02*
Y291645D01*
X84656Y290989D01*
X85968D01*
X86624Y291645D01*
Y292957D01*
X85968Y293613D01*
X84656D01*
X84000Y292957D01*
Y289677D02*
X86624D01*
Y287709D01*
X85968Y287053D01*
X84000D01*
Y285741D02*
X86624D01*
X87936Y284430D01*
X86624Y283118D01*
X84000D01*
X85968D01*
Y285741D01*
X86624Y281806D02*
X84000D01*
X85312D01*
X85968Y281150D01*
X86624Y280494D01*
Y279838D01*
Y277870D02*
X84000D01*
X85312D01*
X85968Y277214D01*
X86624Y276558D01*
Y275902D01*
X84000Y271966D02*
Y273278D01*
X84656Y273934D01*
X85968D01*
X86624Y273278D01*
Y271966D01*
X85968Y271310D01*
X85312D01*
Y273934D01*
X87280Y269343D02*
X86624D01*
Y269999D01*
Y268687D01*
Y269343D01*
X84656D01*
X84000Y268687D01*
X87936Y266719D02*
X84656D01*
X84000Y266063D01*
Y264751D01*
X84656Y264095D01*
X87936D01*
X206724Y476180D02*
X206068Y476836D01*
X204756D01*
X204100Y476180D01*
Y475524D01*
X204756Y474868D01*
X206068D01*
X206724Y474212D01*
Y473556D01*
X206068Y472900D01*
X204756D01*
X204100Y473556D01*
X208036Y476836D02*
Y472900D01*
X210004D01*
X210660Y473556D01*
Y476180D01*
X210004Y476836D01*
X208036D01*
X211971Y472900D02*
Y475524D01*
X213283Y476836D01*
X214595Y475524D01*
Y472900D01*
Y474868D01*
X211971D01*
X222467Y476180D02*
X221811Y476836D01*
X220499D01*
X219843Y476180D01*
Y475524D01*
X220499Y474868D01*
X221811D01*
X222467Y474212D01*
Y473556D01*
X221811Y472900D01*
X220499D01*
X219843Y473556D01*
X223779Y476836D02*
Y472900D01*
X225747D01*
X226402Y473556D01*
Y476180D01*
X225747Y476836D01*
X223779D01*
X227714D02*
Y472900D01*
X230338D01*
X238210Y476836D02*
X235586D01*
Y474868D01*
X236898Y475524D01*
X237554D01*
X238210Y474868D01*
Y473556D01*
X237554Y472900D01*
X236242D01*
X235586Y473556D01*
X239522Y476836D02*
Y474212D01*
X240834Y472900D01*
X242145Y474212D01*
Y476836D01*
X156124Y476180D02*
X155468Y476836D01*
X154156D01*
X153500Y476180D01*
Y475524D01*
X154156Y474868D01*
X155468D01*
X156124Y474212D01*
Y473556D01*
X155468Y472900D01*
X154156D01*
X153500Y473556D01*
X160060Y476180D02*
X159404Y476836D01*
X158092D01*
X157436Y476180D01*
Y473556D01*
X158092Y472900D01*
X159404D01*
X160060Y473556D01*
X161372Y476836D02*
Y472900D01*
X163995D01*
X171867Y476180D02*
X171211Y476836D01*
X169899D01*
X169243Y476180D01*
Y475524D01*
X169899Y474868D01*
X171211D01*
X171867Y474212D01*
Y473556D01*
X171211Y472900D01*
X169899D01*
X169243Y473556D01*
X173179Y476836D02*
Y472900D01*
X175147D01*
X175803Y473556D01*
Y476180D01*
X175147Y476836D01*
X173179D01*
X177114Y472900D02*
Y475524D01*
X178426Y476836D01*
X179738Y475524D01*
Y472900D01*
Y474868D01*
X177114D01*
X187610Y476836D02*
X184986D01*
Y474868D01*
X186298Y475524D01*
X186954D01*
X187610Y474868D01*
Y473556D01*
X186954Y472900D01*
X185642D01*
X184986Y473556D01*
X188922Y476836D02*
Y474212D01*
X190234Y472900D01*
X191545Y474212D01*
Y476836D01*
X102724Y476180D02*
X102068Y476836D01*
X100756D01*
X100100Y476180D01*
Y475524D01*
X100756Y474868D01*
X102068D01*
X102724Y474212D01*
Y473556D01*
X102068Y472900D01*
X100756D01*
X100100Y473556D01*
X106660Y476180D02*
X106004Y476836D01*
X104692D01*
X104036Y476180D01*
Y473556D01*
X104692Y472900D01*
X106004D01*
X106660Y473556D01*
X107972Y476836D02*
Y472900D01*
X110595D01*
X118467Y476180D02*
X117811Y476836D01*
X116499D01*
X115843Y476180D01*
Y475524D01*
X116499Y474868D01*
X117811D01*
X118467Y474212D01*
Y473556D01*
X117811Y472900D01*
X116499D01*
X115843Y473556D01*
X119779Y476836D02*
Y472900D01*
X121747D01*
X122403Y473556D01*
Y476180D01*
X121747Y476836D01*
X119779D01*
X123714Y472900D02*
Y475524D01*
X125026Y476836D01*
X126338Y475524D01*
Y472900D01*
Y474868D01*
X123714D01*
X131586Y476180D02*
X132242Y476836D01*
X133554D01*
X134210Y476180D01*
Y475524D01*
X133554Y474868D01*
X132898D01*
X133554D01*
X134210Y474212D01*
Y473556D01*
X133554Y472900D01*
X132242D01*
X131586Y473556D01*
X135522Y472900D02*
Y473556D01*
X136178D01*
Y472900D01*
X135522D01*
X138801Y476180D02*
X139457Y476836D01*
X140769D01*
X141425Y476180D01*
Y475524D01*
X140769Y474868D01*
X140113D01*
X140769D01*
X141425Y474212D01*
Y473556D01*
X140769Y472900D01*
X139457D01*
X138801Y473556D01*
X142737Y476836D02*
Y474212D01*
X144049Y472900D01*
X145361Y474212D01*
Y476836D01*
X160198Y373400D02*
X156199D01*
X154200Y371401D01*
X156199Y369401D01*
X160198D01*
X159198Y363403D02*
X160198Y364403D01*
Y366402D01*
X159198Y367402D01*
X155200D01*
X154200Y366402D01*
Y364403D01*
X155200Y363403D01*
X159198Y357405D02*
X160198Y358405D01*
Y360404D01*
X159198Y361404D01*
X155200D01*
X154200Y360404D01*
Y358405D01*
X155200Y357405D01*
X160198Y355406D02*
Y351407D01*
X159198D01*
X155200Y355406D01*
X154200D01*
X160198Y349408D02*
X156199D01*
X154200Y347408D01*
X156199Y345409D01*
X160198D01*
X157199Y343410D02*
Y339411D01*
X159198Y341410D02*
X155200D01*
X102698Y362701D02*
X103698Y363701D01*
Y365700D01*
X102698Y366700D01*
X98700D01*
X97700Y365700D01*
Y363701D01*
X98700Y362701D01*
X100699D01*
Y364701D01*
X97700Y360702D02*
X103698D01*
X97700Y356703D01*
X103698D01*
Y354704D02*
X97700D01*
Y351705D01*
X98700Y350705D01*
X102698D01*
X103698Y351705D01*
Y354704D01*
D17*
X45500Y277100D02*
D03*
D18*
Y297100D02*
D03*
X134100Y448300D02*
D03*
X183300D02*
D03*
X232600D02*
D03*
X139900Y367700D02*
D03*
Y347700D02*
D03*
X117800Y367600D02*
D03*
Y347600D02*
D03*
D19*
X194600Y51600D02*
D03*
X184600D02*
D03*
X204600D02*
D03*
X245500Y424000D02*
D03*
Y414000D02*
D03*
X215500Y424000D02*
D03*
Y414000D02*
D03*
X205500Y424000D02*
D03*
Y414000D02*
D03*
X195500Y424000D02*
D03*
Y414000D02*
D03*
X185500Y424000D02*
D03*
Y414000D02*
D03*
X175500Y424000D02*
D03*
Y414000D02*
D03*
X165500Y424000D02*
D03*
Y414000D02*
D03*
X155500Y424000D02*
D03*
Y414000D02*
D03*
X145500Y424000D02*
D03*
Y414000D02*
D03*
X135500Y424000D02*
D03*
Y414000D02*
D03*
X125500Y424000D02*
D03*
Y414000D02*
D03*
X115500Y424000D02*
D03*
Y414000D02*
D03*
X105500Y424000D02*
D03*
Y414000D02*
D03*
X75500Y424000D02*
D03*
Y414000D02*
D03*
X155500Y294000D02*
D03*
Y304000D02*
D03*
X165500Y294000D02*
D03*
Y304000D02*
D03*
X175500Y294000D02*
D03*
Y304000D02*
D03*
X192600Y192500D02*
D03*
X202600Y182500D02*
D03*
Y192500D02*
D03*
X212600Y182500D02*
D03*
Y192500D02*
D03*
X222600Y182500D02*
D03*
Y192500D02*
D03*
X232600Y182500D02*
D03*
Y192500D02*
D03*
X192600Y182500D02*
D03*
X111200Y192600D02*
D03*
X121200Y182600D02*
D03*
Y192600D02*
D03*
X131200Y182600D02*
D03*
Y192600D02*
D03*
X141200Y182600D02*
D03*
Y192600D02*
D03*
X151200Y182600D02*
D03*
Y192600D02*
D03*
X111200Y182600D02*
D03*
X132400Y223200D02*
D03*
Y233200D02*
D03*
X121700Y223300D02*
D03*
Y233300D02*
D03*
X110900Y223300D02*
D03*
Y233300D02*
D03*
X70600Y439300D02*
D03*
X80600D02*
D03*
X41300Y215400D02*
D03*
X51300D02*
D03*
X295000D02*
D03*
X285000D02*
D03*
D20*
X265500Y154000D02*
D03*
Y164000D02*
D03*
Y174000D02*
D03*
Y184000D02*
D03*
Y194000D02*
D03*
Y204000D02*
D03*
Y214000D02*
D03*
Y224000D02*
D03*
Y244000D02*
D03*
Y254000D02*
D03*
Y264000D02*
D03*
Y274000D02*
D03*
Y284000D02*
D03*
Y294000D02*
D03*
Y304000D02*
D03*
Y314000D02*
D03*
Y334000D02*
D03*
Y344000D02*
D03*
Y354000D02*
D03*
Y364000D02*
D03*
Y374000D02*
D03*
Y384000D02*
D03*
Y394000D02*
D03*
Y404000D02*
D03*
X75500Y384000D02*
D03*
Y374000D02*
D03*
Y364000D02*
D03*
Y354000D02*
D03*
Y344000D02*
D03*
Y334000D02*
D03*
Y324000D02*
D03*
Y314000D02*
D03*
Y294000D02*
D03*
Y284000D02*
D03*
Y274000D02*
D03*
Y264000D02*
D03*
Y254000D02*
D03*
Y244000D02*
D03*
Y234000D02*
D03*
Y224000D02*
D03*
Y118000D02*
D03*
Y128000D02*
D03*
Y138000D02*
D03*
Y148000D02*
D03*
Y158000D02*
D03*
Y168000D02*
D03*
Y178000D02*
D03*
Y188000D02*
D03*
Y198000D02*
D03*
Y208000D02*
D03*
D21*
Y104000D02*
D03*
Y399000D02*
D03*
X265500Y424000D02*
D03*
Y99000D02*
D03*
X135500Y304000D02*
D03*
X245500D02*
D03*
D22*
X177800Y137000D02*
D03*
X167800D02*
D03*
X157800D02*
D03*
X147800D02*
D03*
X137800D02*
D03*
X117800D02*
D03*
X127800D02*
D03*
X107800D02*
D03*
X237421Y359700D02*
D03*
Y369700D02*
D03*
Y379700D02*
D03*
Y389700D02*
D03*
X207500Y359700D02*
D03*
Y369700D02*
D03*
Y379700D02*
D03*
Y389700D02*
D03*
D23*
X114100Y448300D02*
D03*
X163300D02*
D03*
X212600D02*
D03*
D24*
X221800Y85300D02*
D03*
X251800D02*
D03*
Y65300D02*
D03*
X221800D02*
D03*
D25*
X44700Y63596D02*
D03*
Y233400D02*
D03*
X292700Y63596D02*
D03*
Y233400D02*
D03*
D26*
X181700Y298500D02*
D03*
X224600Y322800D02*
D03*
X105900Y301700D02*
D03*
X89500Y460100D02*
D03*
X94600Y443900D02*
D03*
X55400Y444200D02*
D03*
X44200Y434800D02*
D03*
X287900Y444000D02*
D03*
X280500Y451100D02*
D03*
X273400Y459100D02*
D03*
X264700Y466400D02*
D03*
X181800Y368100D02*
D03*
X206300Y401800D02*
D03*
X237421Y399621D02*
D03*
X229400Y372900D02*
D03*
X229500Y386259D02*
D03*
X254100Y359400D02*
D03*
X186100Y375200D02*
D03*
X162100Y398400D02*
D03*
X249300Y384800D02*
D03*
X257300Y382000D02*
D03*
X89200Y323500D02*
D03*
X59800Y206200D02*
D03*
X195500Y69400D02*
D03*
X50600Y316500D02*
D03*
X158300Y148000D02*
D03*
X147400Y148300D02*
D03*
X175400Y168000D02*
D03*
X158100Y167900D02*
D03*
X156600Y235600D02*
D03*
X159600Y221700D02*
D03*
X113700Y278800D02*
D03*
X119500Y272700D02*
D03*
X154900Y384900D02*
D03*
X84700Y73500D02*
D03*
X74800D02*
D03*
X84700Y64500D02*
D03*
X74700D02*
D03*
X273500Y144500D02*
D03*
X178900Y148800D02*
D03*
X257300Y194000D02*
D03*
X254600Y230200D02*
D03*
X139800Y332700D02*
D03*
X204600Y111900D02*
D03*
X212900Y85300D02*
D03*
X192600Y209300D02*
D03*
X84900Y208000D02*
D03*
X136700Y206500D02*
D03*
X84900Y197900D02*
D03*
X184800Y305100D02*
D03*
X192600Y243900D02*
D03*
X192200Y252800D02*
D03*
X213200Y266100D02*
D03*
X197200D02*
D03*
X205200D02*
D03*
X233000Y278100D02*
D03*
X253000Y330500D02*
D03*
X256000Y183900D02*
D03*
X139900Y391300D02*
D03*
X84400Y424800D02*
D03*
M02*
