G04 Layer_Physical_Order=1*
G04 Layer_Color=255*
%FSLAX25Y25*%
%MOIN*%
G70*
G01*
G75*
%ADD10R,0.05000X0.04000*%
%ADD11R,0.08000X0.08000*%
%ADD12C,0.03150*%
%ADD13C,0.01000*%
%ADD14C,0.13780*%
%ADD15C,0.12000*%
G36*
X376600Y186000D02*
Y149000D01*
X369400Y141800D01*
X365531D01*
X365319Y157619D01*
X365688Y157957D01*
X366600Y157867D01*
X368343Y158039D01*
X370018Y158547D01*
X371563Y159373D01*
X372916Y160484D01*
X374027Y161837D01*
X374853Y163382D01*
X375361Y165057D01*
X375533Y166800D01*
X375361Y168543D01*
X374853Y170218D01*
X374027Y171763D01*
X372916Y173116D01*
X371563Y174227D01*
X370018Y175053D01*
X368343Y175561D01*
X366600Y175733D01*
X365892Y175663D01*
X365519Y175996D01*
X365246Y196433D01*
X353249Y196273D01*
X353330Y190224D01*
X352832Y190042D01*
X352141Y190884D01*
X350923Y191884D01*
X349533Y192627D01*
X348025Y193084D01*
X346457Y193239D01*
X344888Y193084D01*
X343380Y192627D01*
X341991Y191884D01*
X340773Y190884D01*
X339773Y189666D01*
X339313Y188806D01*
X333600D01*
X333141Y189666D01*
X332141Y190884D01*
X330923Y191884D01*
X329533Y192627D01*
X328025Y193084D01*
X326457Y193239D01*
X324888Y193084D01*
X323380Y192627D01*
X321991Y191884D01*
X320773Y190884D01*
X319773Y189666D01*
X319313Y188806D01*
X314400D01*
Y189200D01*
X310253D01*
X310062Y189662D01*
X318100Y197700D01*
X364900D01*
X376600Y186000D01*
D02*
G37*
G36*
X15185Y181165D02*
Y173165D01*
X14736Y173043D01*
X13685D01*
Y161043D01*
X25685D01*
Y173043D01*
X24634D01*
X24185Y173165D01*
Y181594D01*
X54202D01*
X54555Y181241D01*
Y173165D01*
X54106Y173043D01*
X53055D01*
Y161043D01*
X65055D01*
Y173043D01*
X64005D01*
X63555Y173165D01*
Y181594D01*
X93572D01*
X93925Y181241D01*
Y173165D01*
X93476Y173043D01*
X92425D01*
Y161043D01*
X104425D01*
Y173043D01*
X103375D01*
X102925Y173165D01*
Y181594D01*
X132942D01*
X133295Y181241D01*
Y173165D01*
X132846Y173043D01*
X131795D01*
Y161043D01*
X143795D01*
Y173043D01*
X142745D01*
X142295Y173165D01*
Y181594D01*
X172312D01*
X172665Y181241D01*
Y173165D01*
X172216Y173043D01*
X171165D01*
Y161043D01*
X183165D01*
Y173043D01*
X182115D01*
X181665Y173165D01*
Y181594D01*
X211682D01*
X212035Y181241D01*
Y173165D01*
X211586Y173043D01*
X210535D01*
Y161043D01*
X222535D01*
Y173043D01*
X221485D01*
X221035Y173165D01*
Y181594D01*
X251052D01*
X251406Y181241D01*
Y173165D01*
X250956Y173043D01*
X249905D01*
Y161043D01*
X261906D01*
Y173043D01*
X260855D01*
X260405Y173165D01*
Y181594D01*
X290422D01*
X290776Y181241D01*
Y173165D01*
X290326Y173043D01*
X289276D01*
Y161043D01*
X301276D01*
Y173043D01*
X300225D01*
X299776Y173165D01*
Y181594D01*
X305400D01*
Y181200D01*
X314400D01*
Y181594D01*
X319313D01*
X319773Y180734D01*
X320773Y179516D01*
X321991Y178516D01*
X323380Y177773D01*
X324888Y177316D01*
X326457Y177161D01*
X328025Y177316D01*
X329533Y177773D01*
X330923Y178516D01*
X332141Y179516D01*
X333141Y180734D01*
X333600Y181594D01*
X339313D01*
X339773Y180734D01*
X340773Y179516D01*
X341991Y178516D01*
X343380Y177773D01*
X344888Y177316D01*
X346457Y177161D01*
X348025Y177316D01*
X349533Y177773D01*
X350923Y178516D01*
X352141Y179516D01*
X352959Y180513D01*
X353462Y180337D01*
X353543Y174280D01*
X361035Y174380D01*
X361217Y173882D01*
X360284Y173116D01*
X359173Y171763D01*
X358347Y170218D01*
X357839Y168543D01*
X357667Y166800D01*
X357839Y165057D01*
X358299Y163540D01*
X358033Y163037D01*
X353249Y162973D01*
X353333Y156645D01*
X352835Y156516D01*
X352305Y157508D01*
X351430Y158574D01*
X350364Y159449D01*
X349148Y160099D01*
X347829Y160499D01*
X347657Y160516D01*
Y153600D01*
Y146684D01*
X347829Y146701D01*
X349148Y147101D01*
X350364Y147751D01*
X351430Y148626D01*
X352305Y149692D01*
X352911Y150826D01*
X353175Y150826D01*
X353412Y150737D01*
X353527Y142156D01*
X353176Y141800D01*
X316400D01*
X316300Y141700D01*
X311100Y146900D01*
X1500D01*
X-7300Y155700D01*
X-7400D01*
Y166443D01*
X-6900Y166467D01*
X-6761Y165057D01*
X-6253Y163382D01*
X-5427Y161837D01*
X-4316Y160484D01*
X-2963Y159373D01*
X-1418Y158547D01*
X257Y158039D01*
X2000Y157867D01*
X3743Y158039D01*
X5418Y158547D01*
X6963Y159373D01*
X8316Y160484D01*
X9427Y161837D01*
X10253Y163382D01*
X10761Y165057D01*
X10933Y166800D01*
X10761Y168543D01*
X10253Y170218D01*
X9427Y171763D01*
X8316Y173116D01*
X6963Y174227D01*
X5418Y175053D01*
X3743Y175561D01*
X2000Y175733D01*
X257Y175561D01*
X-1418Y175053D01*
X-2963Y174227D01*
X-4316Y173116D01*
X-5427Y171763D01*
X-6253Y170218D01*
X-6761Y168543D01*
X-6900Y167133D01*
X-7400Y167157D01*
Y182600D01*
X-1300Y188700D01*
X15185D01*
Y181165D01*
D02*
G37*
%LPC*%
G36*
X221535Y152343D02*
X217735D01*
Y148543D01*
X221535D01*
Y152343D01*
D02*
G37*
G36*
X254706D02*
X250905D01*
Y148543D01*
X254706D01*
Y152343D01*
D02*
G37*
G36*
X215335D02*
X211535D01*
Y148543D01*
X215335D01*
Y152343D01*
D02*
G37*
G36*
X175965D02*
X172165D01*
Y148543D01*
X175965D01*
Y152343D01*
D02*
G37*
G36*
X182165D02*
X178365D01*
Y148543D01*
X182165D01*
Y152343D01*
D02*
G37*
G36*
X294076D02*
X290276D01*
Y148543D01*
X294076D01*
Y152343D01*
D02*
G37*
G36*
X300276D02*
X296476D01*
Y148543D01*
X300276D01*
Y152343D01*
D02*
G37*
G36*
X18485Y158543D02*
X14685D01*
Y154743D01*
X18485D01*
Y158543D01*
D02*
G37*
G36*
X260906Y152343D02*
X257105D01*
Y148543D01*
X260906D01*
Y152343D01*
D02*
G37*
G36*
X24685Y158543D02*
X20885D01*
Y154743D01*
X24685D01*
Y158543D01*
D02*
G37*
G36*
X142795Y152343D02*
X138995D01*
Y148543D01*
X142795D01*
Y152343D01*
D02*
G37*
G36*
X18485D02*
X14685D01*
Y148543D01*
X18485D01*
Y152343D01*
D02*
G37*
G36*
X24685D02*
X20885D01*
Y148543D01*
X24685D01*
Y152343D01*
D02*
G37*
G36*
X345257Y152400D02*
X339541D01*
X339558Y152228D01*
X339958Y150908D01*
X340608Y149692D01*
X341483Y148626D01*
X342549Y147751D01*
X343765Y147101D01*
X345085Y146701D01*
X345257Y146684D01*
Y152400D01*
D02*
G37*
G36*
X325257D02*
X319541D01*
X319558Y152228D01*
X319958Y150908D01*
X320608Y149692D01*
X321483Y148626D01*
X322549Y147751D01*
X323765Y147101D01*
X325084Y146701D01*
X325257Y146684D01*
Y152400D01*
D02*
G37*
G36*
X333372D02*
X327657D01*
Y146684D01*
X327829Y146701D01*
X329148Y147101D01*
X330364Y147751D01*
X331430Y148626D01*
X332305Y149692D01*
X332955Y150908D01*
X333355Y152228D01*
X333372Y152400D01*
D02*
G37*
G36*
X103425Y152343D02*
X99625D01*
Y148543D01*
X103425D01*
Y152343D01*
D02*
G37*
G36*
X136595D02*
X132795D01*
Y148543D01*
X136595D01*
Y152343D01*
D02*
G37*
G36*
X97225D02*
X93425D01*
Y148543D01*
X97225D01*
Y152343D01*
D02*
G37*
G36*
X57855D02*
X54055D01*
Y148543D01*
X57855D01*
Y152343D01*
D02*
G37*
G36*
X64055D02*
X60255D01*
Y148543D01*
X64055D01*
Y152343D01*
D02*
G37*
G36*
X325257Y160516D02*
X325084Y160499D01*
X323765Y160099D01*
X322549Y159449D01*
X321483Y158574D01*
X320608Y157508D01*
X319958Y156292D01*
X319558Y154972D01*
X319541Y154800D01*
X325257D01*
Y160516D01*
D02*
G37*
G36*
X327657D02*
Y154800D01*
X333372D01*
X333355Y154972D01*
X332955Y156292D01*
X332305Y157508D01*
X331430Y158574D01*
X330364Y159449D01*
X329148Y160099D01*
X327829Y160499D01*
X327657Y160516D01*
D02*
G37*
G36*
X300276Y158543D02*
X296476D01*
Y154743D01*
X300276D01*
Y158543D01*
D02*
G37*
G36*
X260906D02*
X257105D01*
Y154743D01*
X260906D01*
Y158543D01*
D02*
G37*
G36*
X294076D02*
X290276D01*
Y154743D01*
X294076D01*
Y158543D01*
D02*
G37*
G36*
X308700Y180200D02*
X306400D01*
Y178400D01*
X308700D01*
Y180200D01*
D02*
G37*
G36*
X313400D02*
X311100D01*
Y178400D01*
X313400D01*
Y180200D01*
D02*
G37*
G36*
Y176000D02*
X311100D01*
Y174200D01*
X313400D01*
Y176000D01*
D02*
G37*
G36*
X345257Y160516D02*
X345085Y160499D01*
X343765Y160099D01*
X342549Y159449D01*
X341483Y158574D01*
X340608Y157508D01*
X339958Y156292D01*
X339558Y154972D01*
X339541Y154800D01*
X345257D01*
Y160516D01*
D02*
G37*
G36*
X308700Y176000D02*
X306400D01*
Y174200D01*
X308700D01*
Y176000D01*
D02*
G37*
G36*
X254706Y158543D02*
X250905D01*
Y154743D01*
X254706D01*
Y158543D01*
D02*
G37*
G36*
X103425D02*
X99625D01*
Y154743D01*
X103425D01*
Y158543D01*
D02*
G37*
G36*
X136595D02*
X132795D01*
Y154743D01*
X136595D01*
Y158543D01*
D02*
G37*
G36*
X97225D02*
X93425D01*
Y154743D01*
X97225D01*
Y158543D01*
D02*
G37*
G36*
X57855D02*
X54055D01*
Y154743D01*
X57855D01*
Y158543D01*
D02*
G37*
G36*
X64055D02*
X60255D01*
Y154743D01*
X64055D01*
Y158543D01*
D02*
G37*
G36*
X215335D02*
X211535D01*
Y154743D01*
X215335D01*
Y158543D01*
D02*
G37*
G36*
X221535D02*
X217735D01*
Y154743D01*
X221535D01*
Y158543D01*
D02*
G37*
G36*
X182165D02*
X178365D01*
Y154743D01*
X182165D01*
Y158543D01*
D02*
G37*
G36*
X142795D02*
X138995D01*
Y154743D01*
X142795D01*
Y158543D01*
D02*
G37*
G36*
X175965D02*
X172165D01*
Y154743D01*
X175965D01*
Y158543D01*
D02*
G37*
%LPD*%
G54D10*
X309900Y185200D02*
D03*
Y177200D02*
D03*
X295276Y185165D02*
D03*
Y177165D02*
D03*
X255906Y185165D02*
D03*
Y177165D02*
D03*
X216535Y185165D02*
D03*
Y177165D02*
D03*
X177165Y185165D02*
D03*
Y177165D02*
D03*
X137795Y185165D02*
D03*
Y177165D02*
D03*
X98425Y185165D02*
D03*
Y177165D02*
D03*
X59055Y185165D02*
D03*
Y177165D02*
D03*
X19685Y185165D02*
D03*
Y177165D02*
D03*
G54D11*
X295276Y167043D02*
D03*
Y153543D02*
D03*
X255906Y167043D02*
D03*
Y153543D02*
D03*
X216535Y167043D02*
D03*
Y153543D02*
D03*
X177165Y167043D02*
D03*
Y153543D02*
D03*
X137795Y167043D02*
D03*
Y153543D02*
D03*
X98425Y167043D02*
D03*
Y153543D02*
D03*
X59055Y167043D02*
D03*
Y153543D02*
D03*
X19685Y167043D02*
D03*
Y153543D02*
D03*
G54D12*
X326157Y153300D02*
X326457Y153600D01*
X19720Y185200D02*
X326457D01*
X346457D01*
X19685Y185165D02*
X19720Y185200D01*
X177165Y153543D02*
X177409Y153300D01*
X19685Y167043D02*
Y177165D01*
X59055Y167043D02*
Y177165D01*
X98425Y167043D02*
Y177165D01*
X137795Y167043D02*
Y177165D01*
X177165Y167043D02*
Y177165D01*
X216535Y167043D02*
Y177165D01*
X255906Y167043D02*
Y177165D01*
X295276Y167043D02*
Y177165D01*
G54D13*
X356503Y177320D02*
X360501Y177373D01*
X362473Y179399D01*
X360447Y181372D01*
X356449Y181318D01*
X357368Y187329D02*
X356382Y186316D01*
X356409Y184317D01*
X357422Y183331D01*
X361420Y183384D01*
X362406Y184397D01*
X362380Y186396D01*
X361367Y187382D01*
X357288Y193327D02*
X356302Y192314D01*
X356329Y190314D01*
X357342Y189328D01*
X361340Y189382D01*
X362326Y190395D01*
X362299Y192394D01*
X361287Y193380D01*
X357449Y148031D02*
X356462Y147019D01*
X356489Y145019D01*
X357502Y144033D01*
X361500Y144087D01*
X362487Y145100D01*
X362460Y147099D01*
X361447Y148085D01*
X359448Y148058D01*
X359474Y146059D01*
X362420Y150098D02*
X356422Y150017D01*
X362366Y154096D01*
X356369Y154016D01*
X356342Y156015D02*
X362340Y156095D01*
X362299Y159094D01*
X361287Y160080D01*
X357288Y160027D01*
X356302Y159014D01*
X356342Y156015D01*
G54D14*
X366600Y166800D02*
D03*
X2000D02*
D03*
G54D15*
X326457Y153600D02*
D03*
X346457D02*
D03*
X326457Y185200D02*
D03*
X346457D02*
D03*
M02*
